<svg xmlns="http://www.w3.org/2000/svg" viewBox="0 0 72 72"><defs><style>.cls-1{fill:#333;}.cls-2{fill:none;}.cls-3{fill:#fff;}</style></defs><g id="Layer_2" data-name="Layer 2"><g id="Layer_5" data-name="Layer 5"><circle class="cls-1" cx="36" cy="36" r="36"/><rect class="cls-2" x="10.65" y="21.7" width="50.82" height="34.1"/><path class="cls-3" d="M60.92,14.77H11.08a1.63,1.63,0,0,0-1.76,1.32V55.91c0,.77.77,1.32,1.76,1.32H60.92a1.62,1.62,0,0,0,1.75-1.32V16.2A1.61,1.61,0,0,0,60.92,14.77ZM25.05,16.46A1.57,1.57,0,1,1,23.48,18,1.57,1.57,0,0,1,25.05,16.46Zm-5.8,0A1.57,1.57,0,1,1,17.68,18,1.57,1.57,0,0,1,19.25,16.46Zm-5.46,0A1.57,1.57,0,1,1,12.22,18,1.57,1.57,0,0,1,13.79,16.46ZM61.47,55.8H10.65V21.7H61.47Z"/><path class="cls-3" d="M17.81,46.72a.8.8,0,0,0,.79.8h.79v3.19a.8.8,0,1,0,1.59,0V47.52h.79a.79.79,0,0,0,.79-.8V42.21l4-5.12v3.25a.79.79,0,0,0,.79.8h.79v3.19a.8.8,0,1,0,1.59,0V41.14h.79a.8.8,0,0,0,.79-.8V37.83l4.75,6v4.51a.79.79,0,0,0,.79.8h.79V52.3a.79.79,0,1,0,1.58,0V49.12H40a.8.8,0,0,0,.79-.8V44.64L48.68,36v2.74a.8.8,0,0,0,.8.8h.79v3.19a.79.79,0,1,0,1.58,0V39.55h.79a.79.79,0,0,0,.79-.8V29.18a.79.79,0,0,0-.79-.8h-.79V25.2a.79.79,0,1,0-1.58,0v3.18h-.79a.8.8,0,0,0-.8.8v4.47l-7.91,8.64V38.75A.8.8,0,0,0,40,38h-.8V34.76a.79.79,0,1,0-1.58,0V38h-.79a.79.79,0,0,0-.79.8v2.51l-4.75-6v-4.5a.8.8,0,0,0-.79-.8h-.79V26.79a.8.8,0,1,0-1.59,0V30h-.79a.79.79,0,0,0-.79.8v3.71l-4,5.13V37.16a.79.79,0,0,0-.79-.8H21V33.17a.8.8,0,1,0-1.59,0v3.19H18.6a.79.79,0,0,0-.79.8ZM50.27,30h1.58v8H50.27ZM37.6,39.55h1.58v8H37.6Zm-9.5-8h1.59v8H28.1ZM19.39,38H21v8H19.39Z"/></g></g></svg>