<svg xmlns="http://www.w3.org/2000/svg" viewBox="0 0 72 72"><defs><style>.cls-1{fill:#333;}.cls-2{fill:none;}.cls-3{fill:#fff;}</style></defs><g id="Layer_2" data-name="Layer 2"><g id="Layer_5" data-name="Layer 5"><circle class="cls-1" cx="36" cy="36" r="36"/><rect class="cls-2" x="10.65" y="21.7" width="50.82" height="34.1"/><path class="cls-3" d="M60.92,14.77H11.08a1.63,1.63,0,0,0-1.76,1.32V55.91c0,.77.77,1.32,1.76,1.32H60.92a1.62,1.62,0,0,0,1.75-1.32V16.2A1.61,1.61,0,0,0,60.92,14.77ZM25.05,16.46A1.57,1.57,0,1,1,23.48,18,1.57,1.57,0,0,1,25.05,16.46Zm-5.8,0A1.57,1.57,0,1,1,17.68,18,1.57,1.57,0,0,1,19.25,16.46Zm-5.46,0A1.57,1.57,0,1,1,12.22,18,1.57,1.57,0,0,1,13.79,16.46ZM61.47,55.8H10.65V21.7H61.47Z"/><path class="cls-3" d="M49.09,44.78A1.08,1.08,0,0,0,48,43.72H28.39l-2-16.34a1,1,0,0,0-1.06-1H19.89a1.07,1.07,0,1,0,0,2.13h4.44l2,16.34a1.07,1.07,0,0,0,1.07,1H48A1.08,1.08,0,0,0,49.09,44.78Z"/><circle class="cls-3" cx="30.72" cy="50.2" r="2.77"/><circle class="cls-3" cx="43.67" cy="50.2" r="2.77"/><path class="cls-3" d="M30.71,40.63a1.15,1.15,0,0,0,1.07.87H48a1.08,1.08,0,0,0,1.07-1.07V27.48A1.08,1.08,0,0,0,48,26.41H29.65a.94.94,0,0,0-.87.39.92.92,0,0,0-.19.87Z"/></g></g></svg>