<svg xmlns="http://www.w3.org/2000/svg" viewBox="0 0 72 72"><defs><style>.cls-1{fill:#333;}.cls-2{fill:none;}.cls-3{fill:#fff;}</style></defs><g id="Layer_2" data-name="Layer 2"><g id="Layer_5" data-name="Layer 5"><circle class="cls-1" cx="36" cy="36" r="36"/><rect class="cls-2" x="10.65" y="21.7" width="50.82" height="34.1"/><path class="cls-3" d="M60.92,14.77H11.08a1.63,1.63,0,0,0-1.76,1.32V55.91c0,.77.77,1.32,1.76,1.32H60.92a1.62,1.62,0,0,0,1.75-1.32V16.2A1.61,1.61,0,0,0,60.92,14.77ZM25.05,16.46A1.57,1.57,0,1,1,23.48,18,1.57,1.57,0,0,1,25.05,16.46Zm-5.8,0A1.57,1.57,0,1,1,17.68,18,1.57,1.57,0,0,1,19.25,16.46Zm-5.46,0A1.57,1.57,0,1,1,12.22,18,1.57,1.57,0,0,1,13.79,16.46ZM61.47,55.8H10.65V21.7H61.47Z"/><path class="cls-3" d="M42.6,24.4A1.51,1.51,0,0,1,44,26V50.09h1.35V38a1.5,1.5,0,0,1,1.35-1.56h4.68A1.5,1.5,0,0,1,52.69,38V51.65a1.38,1.38,0,0,1-1,1.45h-31a1.44,1.44,0,0,1-1.35-1.35v-7a1.5,1.5,0,0,1,1.35-1.56h4.68a1.5,1.5,0,0,1,1.35,1.56v5.31H28V32.72a1.51,1.51,0,0,1,1.36-1.56h4.68a1.51,1.51,0,0,1,1.35,1.56V50.09h1.35V26a1.5,1.5,0,0,1,1.35-1.56H42.6"/></g></g></svg>