<svg xmlns="http://www.w3.org/2000/svg" viewBox="0 0 72 72"><defs><style>.cls-1{fill:#333;}.cls-2{fill:none;}.cls-3{fill:#fff;}</style></defs><g id="Layer_2" data-name="Layer 2"><g id="Layer_5" data-name="Layer 5"><circle class="cls-1" cx="36" cy="36" r="36"/><rect class="cls-2" x="10.65" y="21.7" width="50.82" height="34.1"/><path class="cls-3" d="M60.92,14.77H11.08a1.63,1.63,0,0,0-1.76,1.32V55.91c0,.77.77,1.32,1.76,1.32H60.92a1.62,1.62,0,0,0,1.75-1.32V16.2A1.61,1.61,0,0,0,60.92,14.77ZM25.05,16.46A1.57,1.57,0,1,1,23.48,18,1.57,1.57,0,0,1,25.05,16.46Zm-5.8,0A1.57,1.57,0,1,1,17.68,18,1.57,1.57,0,0,1,19.25,16.46Zm-5.46,0A1.57,1.57,0,1,1,12.22,18,1.57,1.57,0,0,1,13.79,16.46ZM61.47,55.8H10.65V21.7H61.47Z"/><path class="cls-3" d="M34.78,38.7V23.9a14.29,14.29,0,0,0-8.94,3.82A14.73,14.73,0,0,0,21,36.1a14.29,14.29,0,0,0,1.39,9.59,15.29,15.29,0,0,0,7.08,6.61,15,15,0,0,0,6.05,1.3,16.12,16.12,0,0,0,3.63-.46,15.28,15.28,0,0,0,8.1-5.31l-12.1-8.47A.71.71,0,0,1,34.78,38.7Z"/><path class="cls-3" d="M42.51,25.57a14.51,14.51,0,0,0-6.15-1.67V37.21l11-7.54A15.91,15.91,0,0,0,42.51,25.57Z"/><path class="cls-3" d="M48.19,31,36.92,38.8l11.27,7.82a14.84,14.84,0,0,0,0-15.65Z"/></g></g></svg>