<svg xmlns="http://www.w3.org/2000/svg" viewBox="0 0 72 72"><defs><style>.cls-1{fill:#333;}.cls-2{fill:none;}.cls-3{fill:#fff;}</style></defs><g id="Layer_2" data-name="Layer 2"><g id="Layer_5" data-name="Layer 5"><circle class="cls-1" cx="36" cy="36" r="36"/><rect class="cls-2" x="10.65" y="21.7" width="50.82" height="34.1"/><path class="cls-3" d="M60.92,14.77H11.08a1.63,1.63,0,0,0-1.76,1.32V55.91c0,.77.77,1.32,1.76,1.32H60.92a1.62,1.62,0,0,0,1.75-1.32V16.2A1.61,1.61,0,0,0,60.92,14.77ZM25.05,16.46A1.57,1.57,0,1,1,23.48,18,1.57,1.57,0,0,1,25.05,16.46Zm-5.8,0A1.57,1.57,0,1,1,17.68,18,1.57,1.57,0,0,1,19.25,16.46Zm-5.46,0A1.57,1.57,0,1,1,12.22,18,1.57,1.57,0,0,1,13.79,16.46ZM61.47,55.8H10.65V21.7H61.47Z"/><path class="cls-3" d="M52.22,33.45H50.46A.45.45,0,0,1,50,33V29a1.76,1.76,0,0,0-1.77-1.76H29.84a.44.44,0,0,1-.29-.11l-2-1.69a1.75,1.75,0,0,0-1.14-.41H20a1.77,1.77,0,0,0-1.77,1.77V50.69A1.77,1.77,0,0,0,20,52.46H48.61a1.77,1.77,0,0,0,1.72-1.37l3.6-15.49a1.83,1.83,0,0,0,0-.4A1.75,1.75,0,0,0,52.22,33.45ZM20.08,45.83A.13.13,0,0,1,20,45.7V27.26a.45.45,0,0,1,.44-.45h5.83a.44.44,0,0,1,.29.11l2,1.69a1.71,1.71,0,0,0,1.13.41H47.8a.45.45,0,0,1,.45.45V33h0a.44.44,0,0,1-.45.44H24.45a1.76,1.76,0,0,0-1.72,1.38L20.21,45.73A.13.13,0,0,1,20.08,45.83Zm32-10.07L48.69,50.34a.45.45,0,0,1-.43.35h-27a.44.44,0,0,1-.33-.53L24.25,35.9a.89.89,0,0,1,.86-.69H51.75A.45.45,0,0,1,52.08,35.76Z"/></g></g></svg>