<svg xmlns="http://www.w3.org/2000/svg" viewBox="0 0 72 72"><defs><style>.cls-1{fill:#333;}.cls-2{fill:none;}.cls-3{fill:#fff;}</style></defs><g id="Layer_2" data-name="Layer 2"><g id="Layer_5" data-name="Layer 5"><circle class="cls-1" cx="36" cy="36" r="36"/><rect class="cls-2" x="10.65" y="21.7" width="50.82" height="34.1"/><path class="cls-3" d="M60.92,14.77H11.08a1.63,1.63,0,0,0-1.76,1.32V55.91c0,.77.77,1.32,1.76,1.32H60.92a1.62,1.62,0,0,0,1.75-1.32V16.2A1.61,1.61,0,0,0,60.92,14.77ZM25.05,16.46A1.57,1.57,0,1,1,23.48,18,1.57,1.57,0,0,1,25.05,16.46Zm-5.8,0A1.57,1.57,0,1,1,17.68,18,1.57,1.57,0,0,1,19.25,16.46Zm-5.46,0A1.57,1.57,0,1,1,12.22,18,1.57,1.57,0,0,1,13.79,16.46ZM61.47,55.8H10.65V21.7H61.47Z"/><rect class="cls-2" x="15.15" y="22.19" width="41.69" height="27.61"/><path class="cls-3" d="M50.49,41.88l-.08,0-4-2.48v-4.3a.37.37,0,0,0-.18-.31l-.14,0-3.75-2.33V28.82a.37.37,0,0,0-.18-.31H42.1l-6-3.75a.37.37,0,0,0-.38,0l-6,3.75h-.08a.37.37,0,0,0-.18.31v3.59l-3.75,2.33a.5.5,0,0,0-.13,0,.35.35,0,0,0-.19.31v4.41l-3.8,2.37-.08,0a.35.35,0,0,0-.18.31V48.3a.37.37,0,0,0,.16.3l6.11,3.86h0a.38.38,0,0,0,.34,0h0l4.25-2.69L35.71,52h0a.31.31,0,0,0,.34,0h0l3.6-2.27L44,52.46h0a.38.38,0,0,0,.34,0h0l6.11-3.86a.37.37,0,0,0,.16-.3V42.19A.35.35,0,0,0,50.49,41.88ZM50,48.1l-5.4,3.42V46.25l1.86-1.18,1.08-.68L50,42.86ZM36.26,51.05V41.71l4.92-3.11,4.54-2.83v3.17l-1.32-.82a.35.35,0,0,0-.37,0l-6,3.74-.08,0a.35.35,0,0,0-.18.31V48.3a.37.37,0,0,0,.16.3l1.11.7Zm-8.14.47V46.25l2.94-1.86,2.46-1.53V48.1l-1.31.84-.34.21-.33.2Zm-5.77-9.31,3-1.88.36-.22.35-.22,1.69-1,5.42,3.37h0l-2.58,1.6L27.77,45.6l-1.69-1.05-.35-.22-.36-.22-.46-.29-2.58-1.6Zm4.08-7.1,3-1.87v1.69a.35.35,0,0,0,.16.3l6.11,3.86h0a.31.31,0,0,0,.34,0h0l6.11-3.86a.35.35,0,0,0,.16-.3V33.24l3,1.87,0,0L40.8,38l-4.9,3L31,38l-4.6-2.87Zm4.05-6.27,5.42-3.37,5.42,3.37,0,0L39,30.31l-.27.17-.07,0-.33.21L35.9,32.24l-2.43-1.51-.33-.21-.07,0-.27-.17-2.34-1.45ZM41.66,32v2.77l-5.4,3.41V32.88L39,31.15l.16-.1.17-.11.34-.21,2-1.24ZM30.15,32V29.49l2,1.24.34.21.17.11.16.1,2.75,1.73v5.27l-5.4-3.41V32ZM27.42,46.74v4.78L22,48.1V42.86l2.45,1.53.9.57.36.22,1.69,1.07v.49Zm6.65,1.86a.37.37,0,0,0,.16-.3V42.19a.35.35,0,0,0-.18-.31l-.08,0-6-3.74a.37.37,0,0,0-.38,0l-1.5.93V35.77l4.54,2.83,4.93,3.11v9.34l-2.68-1.7Zm15.58-6.38-2.57,1.6-.65.4-.35.22-.36.22-1.51.94-2.86-1.78-2.58-1.6h0l5.42-3.37,1.51.94.36.22.35.22,3.2,2Zm-10,6.66-1.23-.78V42.86l2.46,1.53,2.93,1.85h0v5.27L40.35,49.3,40,49.09Z"/></g></g></svg>