<svg xmlns="http://www.w3.org/2000/svg" viewBox="0 0 72 72"><defs><style>.cls-1{fill:#333;}.cls-2{fill:none;}.cls-3{fill:#fff;}</style></defs><g id="Layer_2" data-name="Layer 2"><g id="Layer_5" data-name="Layer 5"><circle class="cls-1" cx="36" cy="36" r="36"/><rect class="cls-2" x="10.65" y="21.7" width="50.82" height="34.1"/><path class="cls-3" d="M60.92,14.77H11.08a1.63,1.63,0,0,0-1.76,1.32V55.91c0,.77.77,1.32,1.76,1.32H60.92a1.62,1.62,0,0,0,1.75-1.32V16.2A1.61,1.61,0,0,0,60.92,14.77ZM25.05,16.46A1.57,1.57,0,1,1,23.48,18,1.57,1.57,0,0,1,25.05,16.46Zm-5.8,0A1.57,1.57,0,1,1,17.68,18,1.57,1.57,0,0,1,19.25,16.46Zm-5.46,0A1.57,1.57,0,1,1,12.22,18,1.57,1.57,0,0,1,13.79,16.46ZM61.47,55.8H10.65V21.7H61.47Z"/><rect class="cls-2" x="15.15" y="22.19" width="41.69" height="27.61"/><rect class="cls-2" x="20.84" y="21.78" width="30.32" height="20.08"/><path class="cls-3" d="M50.38,36.11v-1.8a9,9,0,0,0-9.22-8.84,8.84,8.84,0,0,0-8.55,5.7,6.88,6.88,0,0,0-4.37-1.42,7.68,7.68,0,0,0-7.51,7.31A6.23,6.23,0,0,0,23,49H48.19a6.37,6.37,0,0,0,6.37-6.36C54.56,39.82,53,36.87,50.38,36.11Z"/></g></g></svg>