<svg xmlns="http://www.w3.org/2000/svg" viewBox="0 0 72 72"><defs><style>.cls-1{fill:#333;}.cls-2{fill:none;}.cls-3{fill:#fff;}</style></defs><g id="Layer_2" data-name="Layer 2"><g id="Layer_5" data-name="Layer 5"><circle class="cls-1" cx="36" cy="36" r="36"/><rect class="cls-2" x="10.65" y="21.7" width="50.82" height="34.1"/><path class="cls-3" d="M60.92,14.77H11.08a1.63,1.63,0,0,0-1.76,1.32V55.91c0,.77.77,1.32,1.76,1.32H60.92a1.62,1.62,0,0,0,1.75-1.32V16.2A1.61,1.61,0,0,0,60.92,14.77ZM25.05,16.46A1.57,1.57,0,1,1,23.48,18,1.57,1.57,0,0,1,25.05,16.46Zm-5.8,0A1.57,1.57,0,1,1,17.68,18,1.57,1.57,0,0,1,19.25,16.46Zm-5.46,0A1.57,1.57,0,1,1,12.22,18,1.57,1.57,0,0,1,13.79,16.46ZM61.47,55.8H10.65V21.7H61.47Z"/><rect class="cls-3" x="18.14" y="31.67" width="35.84" height="1.94"/><path class="cls-3" d="M50.94,25.72v.12h-30a3.17,3.17,0,0,0-2.07.85A3,3,0,0,0,18,28.76v.85H53.86v-1A3.19,3.19,0,0,0,53,26.57,2.93,2.93,0,0,0,50.94,25.72Z"/><path class="cls-3" d="M26,40.66H24.09a1,1,0,0,0,0,1.94H26a1,1,0,0,0,0-1.94Z"/><path class="cls-3" d="M18.26,48.68a3.17,3.17,0,0,0,.85,2.06,2.93,2.93,0,0,0,2.07.85H51.06a2.85,2.85,0,0,0,2.07-.85A2.93,2.93,0,0,0,54,48.68v-13H18.26Zm29.65-8.87h3a1,1,0,0,1,0,1.94h-3a1,1,0,0,1-1-1A1,1,0,0,1,47.91,39.81Zm-2.92,5h5.95a1,1,0,0,1,0,1.94H45a1,1,0,0,1,0-1.94ZM21.42,40.17A3,3,0,0,1,24,38.72h2a2.86,2.86,0,0,1,2.55,1.45,2.25,2.25,0,0,1,.08.24,2.23,2.23,0,0,1,.16.43s0,.07,0,.11a3,3,0,0,1,.08.68v0c0,.09,0,.19,0,.29a2.66,2.66,0,0,1,0,.28,3.41,3.41,0,0,1-.3,1,3,3,0,0,1-2.55,1.46H24a3.13,3.13,0,0,1-2.55-1.46A3.39,3.39,0,0,1,21.42,40.17Z"/></g></g></svg>