<svg xmlns="http://www.w3.org/2000/svg" viewBox="0 0 72 72"><defs><style>.cls-1{fill:#333;}.cls-2{fill:none;}.cls-3{fill:#fff;}</style></defs><g id="Layer_2" data-name="Layer 2"><g id="Layer_5" data-name="Layer 5"><circle class="cls-1" cx="36" cy="36" r="36"/><rect class="cls-2" x="10.65" y="21.7" width="50.82" height="34.1"/><path class="cls-3" d="M60.92,14.77H11.08a1.63,1.63,0,0,0-1.76,1.32V55.91c0,.77.77,1.32,1.76,1.32H60.92a1.62,1.62,0,0,0,1.75-1.32V16.2A1.61,1.61,0,0,0,60.92,14.77ZM25.05,16.46A1.57,1.57,0,1,1,23.48,18,1.57,1.57,0,0,1,25.05,16.46Zm-5.8,0A1.57,1.57,0,1,1,17.68,18,1.57,1.57,0,0,1,19.25,16.46Zm-5.46,0A1.57,1.57,0,1,1,12.22,18,1.57,1.57,0,0,1,13.79,16.46ZM61.47,55.8H10.65V21.7H61.47Z"/><path class="cls-3" d="M50.26,37.43v-.37L50,36.88a9.73,9.73,0,0,0-2.75-1.19c-.09-.27-.09-.46-.18-.73a8.94,8.94,0,0,0,1.83-2.39l.19-.27L48.88,32a9.3,9.3,0,0,0-1.19-2.1l-.18-.28h-.73a10,10,0,0,0-2.66.37l-.55-.55a9.24,9.24,0,0,0,.36-2.93v-.37L43.66,26a14.38,14.38,0,0,0-2.11-1.19l-.27-.19-.28.19a11.61,11.61,0,0,0-2.38,1.83c-.28-.09-.46-.09-.73-.18a7.77,7.77,0,0,0-1.1-2.75l-.19-.28H35.05c-.37,0-.83.09-1.29.09H33.4l-.19.28a14.78,14.78,0,0,0-1.1,2.75c-.18.09-.45.09-.64.18a11.7,11.7,0,0,0-2.38-1.83l-.28-.19-.27.19a14.92,14.92,0,0,0-2.11,1.19l-.27.18v.37a9.55,9.55,0,0,0,.36,2.93c-.18.18-.36.37-.55.55a10.94,10.94,0,0,0-2.65-.37h-.74L22.4,30a15.36,15.36,0,0,0-1.19,2.11l-.18.27.18.28A9.31,9.31,0,0,0,23,35.05c-.09.27-.09.46-.18.73a7.85,7.85,0,0,0-2.75,1.1l-.28.18v.37a11.42,11.42,0,0,0,0,2.48v.36l.28.19a14.78,14.78,0,0,0,2.75,1.1c.09.27.09.45.18.73a9.14,9.14,0,0,0-1.83,2.38L21,45l.18.27a9.37,9.37,0,0,0,1.19,2.11l.18.27h.74A10.28,10.28,0,0,0,26,47.24l.55.55a9.55,9.55,0,0,0-.36,2.93v.37l.27.18a16,16,0,0,0,2.11,1.19l.27.18.28-.18a12.08,12.08,0,0,0,2.38-1.83c.28.09.46.09.74.18a7.85,7.85,0,0,0,1.09,2.75l.19.27h.36a5.62,5.62,0,0,0,1.29.1,3.48,3.48,0,0,0,1.1-.1h.36l.19-.27a14.78,14.78,0,0,0,1.1-2.75c.27-.09.45-.09.73-.18A9.54,9.54,0,0,0,41,52.46l.28.18.27-.18a9.15,9.15,0,0,0,2.11-1.19l.27-.18v-.37a9.24,9.24,0,0,0-.36-2.93l.55-.55a10.35,10.35,0,0,0,2.66.36h.64l.18-.27a13.17,13.17,0,0,0,1.28-2.2l.19-.28-.19-.27a9.44,9.44,0,0,0-1.83-2.38c.09-.19.09-.46.18-.64A8,8,0,0,0,50,40.46l.28-.19v-.36A11.42,11.42,0,0,0,50.26,37.43ZM38.89,40.27a4.12,4.12,0,0,1-3.75,2.38,4,4,0,1,1,.09-8.06,4.11,4.11,0,0,1,2.93,1.28A4,4,0,0,1,38.89,40.27Z"/></g></g></svg>