<svg xmlns="http://www.w3.org/2000/svg" viewBox="0 0 72 72"><defs><style>.cls-1{fill:#333;}.cls-2{fill:none;}.cls-3{fill:#fff;}</style></defs><g id="Layer_2" data-name="Layer 2"><g id="Layer_5" data-name="Layer 5"><circle class="cls-1" cx="36" cy="36" r="36"/><rect class="cls-2" x="10.65" y="21.7" width="50.82" height="34.1"/><path class="cls-3" d="M60.92,14.77H11.08a1.63,1.63,0,0,0-1.76,1.32V55.91c0,.77.77,1.32,1.76,1.32H60.92a1.62,1.62,0,0,0,1.75-1.32V16.2A1.61,1.61,0,0,0,60.92,14.77ZM25.05,16.46A1.57,1.57,0,1,1,23.48,18,1.57,1.57,0,0,1,25.05,16.46Zm-5.8,0A1.57,1.57,0,1,1,17.68,18,1.57,1.57,0,0,1,19.25,16.46Zm-5.46,0A1.57,1.57,0,1,1,12.22,18,1.57,1.57,0,0,1,13.79,16.46ZM61.47,55.8H10.65V21.7H61.47Z"/><rect class="cls-2" x="12.52" y="21.15" width="46.97" height="29.7"/><path class="cls-3" d="M49.55,35.64a2,2,0,0,0,0-.34,1.85,1.85,0,0,0-.26-.61,1.71,1.71,0,0,0-.21-.26,1.73,1.73,0,0,0-1.23-.51H44V31.43a1.88,1.88,0,0,0,.3-.12,2,2,0,0,0,1.09-1.45,1.69,1.69,0,0,0,0-.33,2,2,0,0,0-.88-1.65,2,2,0,0,0-1.12-.34,2,2,0,0,0-2,2,1.91,1.91,0,0,0,.11.64,2.29,2.29,0,0,0,.29.56,2,2,0,0,0,.72.58,1.88,1.88,0,0,0,.3.12v2.49H36.57V28.2a1.89,1.89,0,0,0,.57-.28A2,2,0,0,0,36,24.31a1.75,1.75,0,0,0-.4,0A2,2,0,0,0,34,26.3a1.94,1.94,0,0,0,.23.93,2.28,2.28,0,0,0,.38.5,2,2,0,0,0,.8.47v5.72H29.18V31.43a2,2,0,0,0,.57-.27,1.91,1.91,0,0,0,.74-1,1.91,1.91,0,0,0,.11-.64A2,2,0,0,0,30,28.12a1.93,1.93,0,0,0-.63-.42,2,2,0,0,0-1.55,0,2.21,2.21,0,0,0-.34.18,2.13,2.13,0,0,0-.54.54,2,2,0,0,0-.34,1.11,1.69,1.69,0,0,0,0,.33,1.93,1.93,0,0,0,.2.6,2,2,0,0,0,.89.85,1.88,1.88,0,0,0,.3.12v2.49H24.18a1.73,1.73,0,0,0-1.43.75,1.69,1.69,0,0,0-.3,1v5.58A1.73,1.73,0,0,0,24.18,43H28v2.44l-.3.12a2,2,0,0,0-.89.85,2,2,0,0,0-.2.6,1.84,1.84,0,0,0,0,.33,2,2,0,0,0,.88,1.65,2.27,2.27,0,0,0,.34.19,2.08,2.08,0,0,0,1.55,0A2.13,2.13,0,0,0,30,48.7a2.08,2.08,0,0,0,.43-.63,2.05,2.05,0,0,0,.16-.78,1.91,1.91,0,0,0-.11-.64,2.06,2.06,0,0,0-.29-.55,2.06,2.06,0,0,0-1-.71V43h6.24v5.67a2,2,0,0,0-.8.48,2,2,0,0,0-.38.49,2,2,0,0,0,.35,2.34,2,2,0,0,0,1,.54,1.75,1.75,0,0,0,.4,0,2,2,0,0,0,1.14-3.61,2.16,2.16,0,0,0-.57-.28V43h6.25v2.44l-.3.12a2,2,0,0,0-1,1.14,1.91,1.91,0,0,0-.11.64,2,2,0,0,0,2,2,2,2,0,0,0,1.12-.34,2,2,0,0,0,.88-1.65,1.84,1.84,0,0,0,0-.33,2,2,0,0,0-.21-.6,2,2,0,0,0-.88-.85l-.3-.12V43h3.85a1.79,1.79,0,0,0,1.25-.51,1.84,1.84,0,0,0,.37-.55,1.66,1.66,0,0,0,.11-.67Z"/></g></g></svg>