<svg xmlns="http://www.w3.org/2000/svg" viewBox="0 0 72 72"><defs><style>.cls-1{fill:#333;}.cls-2{fill:none;}.cls-3{fill:#fff;}</style></defs><g id="Layer_2" data-name="Layer 2"><g id="Layer_5" data-name="Layer 5"><circle class="cls-1" cx="36" cy="36" r="36"/><rect class="cls-2" x="10.65" y="21.7" width="50.82" height="34.1"/><path class="cls-3" d="M60.92,14.77H11.08a1.63,1.63,0,0,0-1.76,1.32V55.91c0,.77.77,1.32,1.76,1.32H60.92a1.62,1.62,0,0,0,1.75-1.32V16.2A1.61,1.61,0,0,0,60.92,14.77ZM25.05,16.46A1.57,1.57,0,1,1,23.48,18,1.57,1.57,0,0,1,25.05,16.46Zm-5.8,0A1.57,1.57,0,1,1,17.68,18,1.57,1.57,0,0,1,19.25,16.46Zm-5.46,0A1.57,1.57,0,1,1,12.22,18,1.57,1.57,0,0,1,13.79,16.46ZM61.47,55.8H10.65V21.7H61.47Z"/><path class="cls-3" d="M34.39,52.89a3,3,0,0,0,1.66.42,3.24,3.24,0,0,0,1.67-.42,3.47,3.47,0,0,0,1.66-3H32.72A3.48,3.48,0,0,0,34.39,52.89Z"/><path class="cls-3" d="M49.68,47.49a.86.86,0,0,0-.84-.94h-.1A2.72,2.72,0,0,1,47,45.82a3,3,0,0,1-.73-1.77V34.49A10.29,10.29,0,0,0,36,24.19h-.42a10.78,10.78,0,0,0-7,3.33,10.46,10.46,0,0,0-2.8,7.28v9.25A2.73,2.73,0,0,1,25,45.82a2.94,2.94,0,0,1-1.77.73.92.92,0,0,0-.94.73.75.75,0,0,0,.21.62.9.9,0,0,0,.63.31H48.74A.92.92,0,0,0,49.68,47.49ZM36,27.62a6.93,6.93,0,0,0-4.89,2,7.29,7.29,0,0,0-2,4.89.83.83,0,0,1-1.66,0A8.52,8.52,0,0,1,36,26a.83.83,0,0,1,0,1.66Z"/></g></g></svg>