<svg xmlns="http://www.w3.org/2000/svg" viewBox="0 0 72 72"><defs><style>.cls-1{fill:#333;}.cls-2{fill:none;}.cls-3{fill:#fff;}</style></defs><g id="Layer_2" data-name="Layer 2"><g id="Layer_5" data-name="Layer 5"><circle class="cls-1" cx="36" cy="36" r="36"/><rect class="cls-2" x="10.65" y="21.7" width="50.82" height="34.1"/><path class="cls-3" d="M60.92,14.77H11.08a1.63,1.63,0,0,0-1.76,1.32V55.91c0,.77.77,1.32,1.76,1.32H60.92a1.62,1.62,0,0,0,1.75-1.32V16.2A1.61,1.61,0,0,0,60.92,14.77ZM25.05,16.46A1.57,1.57,0,1,1,23.48,18,1.57,1.57,0,0,1,25.05,16.46Zm-5.8,0A1.57,1.57,0,1,1,17.68,18,1.57,1.57,0,0,1,19.25,16.46Zm-5.46,0A1.57,1.57,0,1,1,12.22,18,1.57,1.57,0,0,1,13.79,16.46ZM61.47,55.8H10.65V21.7H61.47Z"/><path class="cls-3" d="M50,43.69v-2.3a2.24,2.24,0,0,0-2.21-2.21h-11V32.74H45A1.75,1.75,0,0,0,46.73,31V25.65A1.75,1.75,0,0,0,45,23.9H27.13a1.75,1.75,0,0,0-1.75,1.75V31a1.75,1.75,0,0,0,1.75,1.75h8.19v6.44h-11a2.24,2.24,0,0,0-2.21,2.21v2.3a4.17,4.17,0,0,0-3.49,4.15,4.24,4.24,0,1,0,5-4.15v-2.3a.79.79,0,0,1,.73-.74h11v3a4.17,4.17,0,0,0-3.5,4.15,4.24,4.24,0,1,0,5-4.15v-3h11a.79.79,0,0,1,.73.74v2.3A4.18,4.18,0,0,0,45,47.84a4.24,4.24,0,0,0,8.47,0A4.24,4.24,0,0,0,50,43.69Z"/></g></g></svg>