<svg xmlns="http://www.w3.org/2000/svg" viewBox="0 0 72 72"><defs><style>.cls-1{fill:#333;}.cls-2{fill:none;}.cls-3{fill:#fff;}</style></defs><g id="Layer_2" data-name="Layer 2"><g id="Layer_5" data-name="Layer 5"><circle class="cls-1" cx="36" cy="36" r="36"/><rect class="cls-2" x="10.65" y="21.7" width="50.82" height="34.1"/><path class="cls-3" d="M60.92,14.77H11.08a1.63,1.63,0,0,0-1.76,1.32V55.91c0,.77.77,1.32,1.76,1.32H60.92a1.62,1.62,0,0,0,1.75-1.32V16.2A1.61,1.61,0,0,0,60.92,14.77ZM25.05,16.46A1.57,1.57,0,1,1,23.48,18,1.57,1.57,0,0,1,25.05,16.46Zm-5.8,0A1.57,1.57,0,1,1,17.68,18,1.57,1.57,0,0,1,19.25,16.46Zm-5.46,0A1.57,1.57,0,1,1,12.22,18,1.57,1.57,0,0,1,13.79,16.46ZM61.47,55.8H10.65V21.7H61.47Z"/><path class="cls-3" d="M35.38,30.13c8.34,0,12.94-1.48,12.94-2.51s-4.6-2.51-12.94-2.51S22.44,26.6,22.44,27.62,27.05,30.13,35.38,30.13Z"/><path class="cls-3" d="M48.27,43.55V38c-3.09,1.23-8.72,1.68-13.2,1.68-5.36,0-10.11-.62-13.21-1.73v5.55c1.29.82,5.75,2,13.21,2h0C42.67,45.47,47.53,44.26,48.27,43.55Z"/><path class="cls-3" d="M48.27,45.76c-3.09,1.23-8.72,1.68-13.2,1.68-5.36,0-10.11-.62-13.21-1.73v4h0L22,50c.58,1.25,4.93,2.5,13.33,2.5,7.79,0,12-1.07,13-2.16h0Z"/><path class="cls-3" d="M48.27,30.26C45.67,31.48,40,32,35.07,32c-5.64,0-10.56-.7-13.21-1.85v5.49c1.29.82,5.75,2,13.21,2s12.46-1.21,13.2-1.92Z"/></g></g></svg>