<svg xmlns="http://www.w3.org/2000/svg" viewBox="0 0 72 70.71"><defs><style>.cls-1{fill:#3dba91;}</style></defs><g id="Layer_2" data-name="Layer 2"><g id="Layer_1-2" data-name="Layer 1"><path class="cls-1" d="M50.46,38.22,47.61,42,26,70.71,9.06,53.8,5.92,50.66,2.11,46.85a7.21,7.21,0,0,1,0-10.19,7.05,7.05,0,0,1,3.41-1.88,6.87,6.87,0,0,1,1.68-.23,7.18,7.18,0,0,1,5.09,2.11l5,5,3.11,3.11,4,4,6.7-8.89L34,36.1l25-33.25a6.67,6.67,0,0,1,1.1-1.15c.13-.11.28-.2.42-.3a7.36,7.36,0,0,1,.88-.57c.17-.09.35-.16.52-.23A7.62,7.62,0,0,1,62.9.27c.19-.05.38-.1.57-.13a6.39,6.39,0,0,1,1-.11L65,0l.44,0a6,6,0,0,1,.85.12l.45.11a6.66,6.66,0,0,1,.85.31A3.08,3.08,0,0,1,68,.74a7.06,7.06,0,0,1,3.7,8.48,7,7,0,0,1-1.13,2.3l-8.3,11Z"/></g></g></svg>