<svg xmlns="http://www.w3.org/2000/svg" viewBox="0 0 72.6 72.6"><defs><style>.cls-1{fill:#46c795;}</style></defs><g id="Layer_2" data-name="Layer 2"><g id="Layer_5" data-name="Layer 5"><path class="cls-1" d="M36.3,1.5A34.8,34.8,0,1,1,1.5,36.3,34.8,34.8,0,0,1,36.3,1.5m0-1.5A36.3,36.3,0,1,0,72.6,36.3,36.34,36.34,0,0,0,36.3,0Z"/><path class="cls-1" d="M33.19,69.13h6.23a1,1,0,0,1,.8.46h0l.66,1.15.49-.07-.76-1.32v0a1,1,0,0,1,0-.9v0L43.74,63v0a1,1,0,0,1,.73-.44h6.38a1,1,0,0,1,.73.45h0l2,3.44.39-.24-2-3.4a1,1,0,0,1,0-1l3.09-5.36a1,1,0,0,1,.78-.49h6.32a1,1,0,0,1,.78.47l.7,1.23c.11-.13.21-.26.31-.4l-.6-1v0a.94.94,0,0,1,0-.92h0L66.5,49.9a1,1,0,0,1,.84-.48h1.15c.07-.15.13-.3.19-.45H67.34a1,1,0,0,1-.85-.49l-3.1-5.38a1,1,0,0,1,0-1l3.1-5.37a1,1,0,0,1,.78-.49h3.79v-.46H67.25a1,1,0,0,1-.74-.46h0L63.4,30a1,1,0,0,1,0-1l3.1-5.37a1,1,0,0,1,.59-.45,1.1,1.1,0,0,0,.31,0h1.12c-.07-.17-.14-.35-.22-.52h-1a.9.9,0,0,0-.23,0,1.08,1.08,0,0,1-.56-.45l-3.1-5.38v0a1,1,0,0,1,0-.94l.45-.77-.37-.47-.56,1a1,1,0,0,1-.84.47H56a1,1,0,0,1-.74-.33l0-.06L51.71,9.82l2.07-3.59L53.39,6,51.62,9.06a1,1,0,0,1-.85.5H44.55a1,1,0,0,1-.81-.47h0l-3.11-5.4v0a1,1,0,0,1,0-.9v0l.51-.88-.48-.06-.41.7v0a1,1,0,0,1-.81.47H33.2a1,1,0,0,1-.84-.49L32,1.8l-.49.06.5.87a1,1,0,0,1,0,1L28.87,9.06a1,1,0,0,1-.83.5H21.8a1,1,0,0,1-.8-.47h0L19.21,6l-.39.22,1.79,3.09v0a1,1,0,0,1,0,.89v0l-3.12,5.4a1,1,0,0,1-.84.47h-6.2a1,1,0,0,1-.78-.38l0-.05-.58-1-.31.39.46.79a1,1,0,0,1,0,1L6.11,22.2a1,1,0,0,1-.82.49h-1l-.19.46H5.27a1,1,0,0,1,.74.34l0,.06L9.21,29a1,1,0,0,1,0,1L6.1,35.36a1,1,0,0,1-.71.46H1.54v.46H5.3a1,1,0,0,1,.81.48L9.2,42.14a1,1,0,0,1,0,1l-3.1,5.38a1,1,0,0,1-.84.48H3.92c.06.15.12.3.19.45H5.29a1,1,0,0,1,.81.47l3.1,5.38,0,.07a.93.93,0,0,1,0,.86v0L8.61,57.3l.3.39.7-1.21a1,1,0,0,1,.74-.48H16.7a1,1,0,0,1,.79.48l3.11,5.39v0a1,1,0,0,1,0,.89v0l-2,3.42.39.24L21,63a1,1,0,0,1,.75-.48H28a1,1,0,0,1,.82.46L32,68.4a1,1,0,0,1,0,1l-.75,1.29.49.07.65-1.13A1,1,0,0,1,33.19,69.13ZM54.71,56.25l-3.09,5.36a1,1,0,0,1-.78.49h-6.3a1,1,0,0,1-.81-.49l-3.1-5.38,0,0a1,1,0,0,1,0-.88l0,0,3.1-5.38,0,0a1,1,0,0,1,.8-.47h6.22a1,1,0,0,1,.68.27l.09.08,3.17,5.5A1,1,0,0,1,54.71,56.25Zm.07-14a1,1,0,0,1,0,.75l0,0-3.12,5.4a1,1,0,0,1-.85.5H44.55a1,1,0,0,1-.82-.48l-3.11-5.39,0,0a1,1,0,0,1,0-.87l0,0,3.12-5.4a1,1,0,0,1,.77-.47h6.3a1,1,0,0,1,.78.44v0l3.08,5.33,0,0,0,.08,0,.05v0Zm-14.54-.36v0a1,1,0,0,1-.81.47H33.2a1,1,0,0,1-.84-.49l0,0-3.06-5.32a1,1,0,0,1,0-1l3.1-5.36a1,1,0,0,1,.75-.49h6.37a1,1,0,0,1,.75.47l3.12,5.4v0a1,1,0,0,1,0,.91h0Zm10.63-6.08H44.52a1,1,0,0,1-.79-.49L40.63,30l0,0a1,1,0,0,1,0-.88l0,0,3.11-5.39a1,1,0,0,1,.84-.48h6.19a1,1,0,0,1,.81.44l0,0L54.72,29a1,1,0,0,1,0,1l-3.1,5.37A1,1,0,0,1,50.87,35.83ZM43.36,23.38v0l-3.12,5.4,0,0a1,1,0,0,1-.72.43h-6.3a1,1,0,0,1-.66-.26h0l-3.27-5.59a1,1,0,0,1,0-1l.07-.11,3-5.19h0l0-.06a1,1,0,0,1,.82-.48h6.27a1,1,0,0,1,.78.48l3.11,5.38h0v0A1,1,0,0,1,43.36,23.38Zm-11.1,6.09-3.4,5.88a1,1,0,0,1-.75.48H21.74a1,1,0,0,1-.74-.46h0L17.88,30v0a1,1,0,0,1,0-.92h0L21,23.65a1,1,0,0,1,.84-.5H28a1,1,0,0,1,.72.32l.06.07Zm-10.5,6.82h6.3a1,1,0,0,1,.8.48L32,42.13a1,1,0,0,1,0,1l-3.09,5.36A1,1,0,0,1,28,49H21.8a1,1,0,0,1-.82-.48l-3.11-5.39v0a1,1,0,0,1,0-.87v0L21,36.78A1,1,0,0,1,21.76,36.29Zm7.49,12.44,3.1-5.37a1,1,0,0,1,.85-.5h6.25a1,1,0,0,1,.79.49l3.11,5.38v0a1,1,0,0,1,0,.91h0l-3.12,5.4,0,0a1,1,0,0,1-.69.42H33.17a1,1,0,0,1-.81-.47v0l0,0-3.08-5.32A1,1,0,0,1,29.25,48.73Zm36.84,0a1,1,0,0,1,0,1L63,55.06a1,1,0,0,1-.72.47H55.92a1,1,0,0,1-.8-.47L52,49.69l0-.07a1,1,0,0,1,0-.87v0l3.11-5.38a1,1,0,0,1,.85-.49h6.19a1,1,0,0,1,.84.49Zm0-13.14v0a.94.94,0,0,1,0,.92h0L63,41.93a1,1,0,0,1-.84.47H56a1,1,0,0,1-.73-.32L55.17,42,52,36.55a1,1,0,0,1,0-1l3.09-5.36a1,1,0,0,1,.78-.49h6.32a1,1,0,0,1,.78.47Zm-10.17-19h6.25a1,1,0,0,1,.83.5l3.1,5.37v0a1,1,0,0,1,0,.94L63,28.78a1,1,0,0,1-.75.48H55.92a1,1,0,0,1-.79-.46L52,23.4a.94.94,0,0,1,0-1l3.09-5.37A1,1,0,0,1,55.92,16.58ZM44.52,10h6.27a1,1,0,0,1,.65.27h0l3.28,5.57,0,.05v0a1,1,0,0,1,0,.8l-.09.12-3.06,5.3a.47.47,0,0,1,0,.1l0,.06a1,1,0,0,1-.78.39H44.52a1,1,0,0,1-.76-.44.43.43,0,0,1,0-.07l-3.08-5.33-.06-.09-.23-.4,3.37-5.85A1,1,0,0,1,44.52,10ZM32.35,3.94a1,1,0,0,1,.84-.49h6.23a1,1,0,0,1,.8.46h0l3.1,5.38v0a1,1,0,0,1,0,.93h0l-3.11,5.39a1,1,0,0,1-.84.47H33.2a1,1,0,0,1-.84-.49l0,0L29,9.81Zm-14.48,12v0L21,10.51a1,1,0,0,1,.79-.5H28a1,1,0,0,1,.67.27h0L32,15.86a1,1,0,0,1,0,1L28.87,22.2a1,1,0,0,1-.83.49H21.78a1,1,0,0,1-.8-.49l-3.11-5.38h0A1,1,0,0,1,17.87,15.9ZM6.52,23.43h0v0l0-.08v0a1,1,0,0,1,0-.74l0,0,0,0,3.06-5.31v0l0-.05a1,1,0,0,1,.82-.48H16.7a1,1,0,0,1,.74.41h0l3.15,5.44a.21.21,0,0,0,0,.06v0a1,1,0,0,1-.05.87l-3.12,5.4,0,0a1,1,0,0,1-.74.43H10.35a1,1,0,0,1-.67-.38l0,0Zm0,13.11a1,1,0,0,1,0-1l3.11-5.37a1,1,0,0,1,.75-.49H16.7a1,1,0,0,1,.79.49L20.6,35.6v0a1,1,0,0,1,0,.88v0l-3.11,5.39,0,0a1,1,0,0,1-.8.47H10.45A1,1,0,0,1,9.64,42l0,0Zm11,18.54,0,0a1,1,0,0,1-.74.43h-6.3a1,1,0,0,1-.64-.27l-.09-.08L6.5,49.69a1,1,0,0,1,0-1l3.09-5.35a1,1,0,0,1,.85-.5H16.7a1,1,0,0,1,.8.5l3.1,5.38v0a1,1,0,0,1,0,.87v0Zm10.61,7H21.76a1,1,0,0,1-.77-.47l-3.11-5.38v0a1,1,0,0,1,0-.92h0L21,49.89v0a1,1,0,0,1,.77-.45h6.28a1,1,0,0,1,.8.47L32,55.27a1,1,0,0,1,0,1l-3.09,5.36A1,1,0,0,1,28.08,62.1Zm1.19.72a1,1,0,0,1,0-1l3.1-5.36a1,1,0,0,1,.75-.49h6.35a1,1,0,0,1,.77.47l3.11,5.38v0a.94.94,0,0,1,0,.92h0l-3.11,5.38v0a1,1,0,0,1-.81.47H33.2a1,1,0,0,1-.84-.49Z"/></g></g></svg>