<svg xmlns="http://www.w3.org/2000/svg" viewBox="0 0 72.44 72"><defs><style>.cls-1{opacity:0.5;}.cls-2{fill:#3dba91;}</style></defs><g id="Layer_2" data-name="Layer 2"><g id="Layer_1-2" data-name="Layer 1"><g class="cls-1"><path class="cls-2" d="M72.44,60.89a10.75,10.75,0,0,1-.33,2.56,13.93,13.93,0,0,1-2.78,5.44,11.27,11.27,0,0,1-15.55,0L36,51.11,18.22,68.89A12.59,12.59,0,0,1,10.67,72a11.59,11.59,0,0,1-7.56-3.11A10.42,10.42,0,0,1,0,61.47s0-.09,0-.14a10.7,10.7,0,0,1,3.11-7.55l6.3-6.3L20.78,36.11l.11-.11L3.11,18.22A10.33,10.33,0,0,1,.17,12.63a11.7,11.7,0,0,1-.17-2A10.73,10.73,0,0,1,3.11,3.11,12.59,12.59,0,0,1,10.67,0a11.59,11.59,0,0,1,7.55,3.11L36,20.89,53.78,3.11A10.41,10.41,0,0,1,61.33,0a12.76,12.76,0,0,1,8,3.11,10.37,10.37,0,0,1,3,6.91c0,.37.08.72.08,1.09a9.51,9.51,0,0,1-3.55,7.56L64.56,23,51.11,36.44,68.89,53.33a10.54,10.54,0,0,1,1,1.25A14,14,0,0,1,72.44,60.89Z"/></g></g></g></svg>