<svg xmlns="http://www.w3.org/2000/svg" viewBox="0 0 72 72"><defs><style>.cls-1{fill:#333;}.cls-2{fill:#fff;}</style></defs><g id="Layer_2" data-name="Layer 2"><g id="Layer_5" data-name="Layer 5"><circle class="cls-1" cx="36" cy="36" r="36"/><path class="cls-2" d="M45.79,12.5a2.16,2.16,0,0,1,2,2.25V49.51h1.94V32.13a2.16,2.16,0,0,1,2-2.25h6.74a2.16,2.16,0,0,1,2,2.25V51.76a2,2,0,0,1-1.5,2.09H14.18a2.09,2.09,0,0,1-1.95-1.94v-10a2.16,2.16,0,0,1,1.95-2.25h6.74a2.16,2.16,0,0,1,1.95,2.25v7.64h1.94v-25a2.16,2.16,0,0,1,2-2.25H33.5a2.16,2.16,0,0,1,2,2.25v25H37.4V14.75a2.16,2.16,0,0,1,2-2.25h6.44"/></g></g></svg>