<svg xmlns="http://www.w3.org/2000/svg" viewBox="0 0 72 72"><defs><style>.cls-1{fill:#333;}.cls-2{fill:#fff;}</style></defs><g id="Layer_2" data-name="Layer 2"><g id="Layer_5" data-name="Layer 5"><circle class="cls-1" cx="36" cy="36" r="36"/><path class="cls-2" d="M33.46,58.26a4.82,4.82,0,0,0,2.62.65,5.19,5.19,0,0,0,2.62-.65,5.51,5.51,0,0,0,2.62-4.75H30.85A5.52,5.52,0,0,0,33.46,58.26Z"/><path class="cls-2" d="M57.52,49.75a1.34,1.34,0,0,0-1.31-1.48h-.16a4.3,4.3,0,0,1-2.79-1.14,4.67,4.67,0,0,1-1.14-2.78V29.29a16.22,16.22,0,0,0-16.2-16.2h-.66a16.94,16.94,0,0,0-11,5.24,16.47,16.47,0,0,0-4.42,11.45V44.35a4.3,4.3,0,0,1-1.14,2.78A4.67,4.67,0,0,1,16,48.27a1.43,1.43,0,0,0-1.47,1.15,1.19,1.19,0,0,0,.33,1,1.4,1.4,0,0,0,1,.49H56.05A1.43,1.43,0,0,0,57.52,49.75ZM35.92,18.49a10.89,10.89,0,0,0-7.69,3.11,11.47,11.47,0,0,0-3.11,7.69,1.31,1.31,0,0,1-2.62,0A13.42,13.42,0,0,1,35.92,15.87a1.31,1.31,0,1,1,0,2.62Z"/></g></g></svg>