<svg xmlns="http://www.w3.org/2000/svg" viewBox="0 0 72 72"><defs><style>.cls-1{fill:#333;}.cls-2{fill:#fff;}</style></defs><g id="Layer_2" data-name="Layer 2"><g id="Layer_5" data-name="Layer 5"><circle class="cls-1" cx="36" cy="36" r="36"/><path class="cls-2" d="M63.11,38.59s-.1,0-.15,0l-7.6-4.73V25.61A.67.67,0,0,0,55,25a.71.71,0,0,0-.25-.06L47.6,20.51V13.67a.66.66,0,0,0-.35-.59s-.1,0-.15,0L35.63,5.9a.71.71,0,0,0-.72,0L23.44,13c-.05,0-.11,0-.15,0a.66.66,0,0,0-.35.59v6.84L15.78,25a.66.66,0,0,0-.25.06.67.67,0,0,0-.35.59V34L7.91,38.55s-.1,0-.14,0a.66.66,0,0,0-.35.59V50.84a.69.69,0,0,0,.31.57l11.66,7.37h0a.64.64,0,0,0,.33.08.67.67,0,0,0,.33-.08h0l8.11-5.13,6.69,4.23h0a.66.66,0,0,0,.33.09.62.62,0,0,0,.32-.09h0l6.86-4.34,8.28,5.24h0a.72.72,0,0,0,.66,0h0l11.66-7.37a.69.69,0,0,0,.31-.57V39.18A.66.66,0,0,0,63.11,38.59Zm-1,11.87L51.81,57V46.92l3.55-2.25,2.06-1.3,4.69-2.92ZM35.94,56.09V38.27l9.41-6L54,26.93v6l-2.52-1.57a.67.67,0,0,0-.72,0L39.3,38.55s-.11,0-.15,0a.66.66,0,0,0-.35.59V50.84a.69.69,0,0,0,.31.57l2.12,1.33ZM20.42,57V46.92L26,43.37l4.69-2.92v10l-2.51,1.59-.64.4-.63.4Zm-11-17.77,5.77-3.59.67-.42.68-.42,3.22-2,10.34,6.43,0,0-4.92,3-5.46,3.4-3.22-2-.68-.42-.67-.42-.9-.56-4.91-3ZM17.2,25.67l5.74-3.57v3.23a.66.66,0,0,0,.31.57l11.66,7.37h0a.66.66,0,0,0,.33.09.62.62,0,0,0,.32-.09h0L47.29,25.9a.68.68,0,0,0,.31-.57V22.1l5.74,3.57.07,0-8.79,5.47L35.27,37l-9.35-5.82-8.79-5.47Zm7.73-12L35.27,7.27,45.61,13.7l0,0-4.47,2.78-.51.32-.13.08-.64.4-4.63,2.88-4.63-2.88-.64-.4-.13-.08-.51-.32-4.47-2.78Zm21.32,6V25L35.94,31.47V21.41l5.24-3.31.31-.19.33-.21.64-.39L46.25,15Zm-22,0V15l3.79,2.36.64.39.33.21.31.19,5.23,3.31V31.47L24.29,25V19.67Zm-5.22,28.2V57L8.77,50.46v-10l4.69,2.92,1.72,1.09.67.42,3.22,2v.95Zm12.7,3.54a.69.69,0,0,0,.31-.57V39.18a.66.66,0,0,0-.35-.59s-.1,0-.15,0L20.11,31.41a.67.67,0,0,0-.72,0l-2.86,1.78V26.93l8.66,5.39,9.4,6V56.09l-5.11-3.24ZM61.51,39.24l-4.91,3-1.24.77-.67.42L54,43.9l-2.88,1.79-5.46-3.4-4.92-3,0,0,10.34-6.43L54,34.57l.68.42.67.42,6.11,3.8ZM42.49,52l-2.34-1.49v-10l4.69,2.92,5.6,3.55h0V57l-6.69-4.24-.64-.39Z"/></g></g></svg>