<svg xmlns="http://www.w3.org/2000/svg" viewBox="0 0 72 72"><defs><style>.cls-1{fill:#333;}.cls-2{fill:#fff;}</style></defs><g id="Layer_2" data-name="Layer 2"><g id="Layer_5" data-name="Layer 5"><circle class="cls-1" cx="36" cy="36" r="36"/><path class="cls-2" d="M62.44,30.6a3,3,0,0,0-.07-.67,3.64,3.64,0,0,0-.9-1.7,3.38,3.38,0,0,0-2.4-1H51.55V22.38a4.12,4.12,0,0,0,.58-.23,3.86,3.86,0,0,0,1.73-1.66,3.6,3.6,0,0,0,.4-1.17,3.49,3.49,0,0,0,.06-.65,3.89,3.89,0,0,0-3.89-3.88,4,4,0,0,0-1.51.3,3.88,3.88,0,0,0-2.38,3.58A3.86,3.86,0,0,0,47.32,21a3.85,3.85,0,0,0,1.41,1.15,3.69,3.69,0,0,0,.58.23v4.85H37.12V16.07a3.9,3.9,0,0,0,2.77-3.7A3.89,3.89,0,0,0,36,8.48a4.15,4.15,0,0,0-.79.08,3.89,3.89,0,0,0-2.65,5.62,4.15,4.15,0,0,0,.74,1,4,4,0,0,0,1.57.92V27.23H22.69V22.38a3.81,3.81,0,0,0,1.11-.54,3.65,3.65,0,0,0,.87-.84,3.82,3.82,0,0,0,.58-1.07,4.06,4.06,0,0,0,.21-1.26,3.85,3.85,0,0,0-.31-1.51,4,4,0,0,0-.83-1.23,3.78,3.78,0,0,0-1.24-.84,4,4,0,0,0-1.51-.3,4,4,0,0,0-1.52.3,4.22,4.22,0,0,0-.66.36,4,4,0,0,0-1.05,1.05,3.86,3.86,0,0,0-.66,2.17,4.62,4.62,0,0,0,.05.65,3.86,3.86,0,0,0,.4,1.17,3.93,3.93,0,0,0,1.74,1.66,3.57,3.57,0,0,0,.57.23v4.85H12.93A3.36,3.36,0,0,0,9.56,30.6V41.49a3.37,3.37,0,0,0,3.37,3.37h7.51v4.76a3.57,3.57,0,0,0-.57.23,3.93,3.93,0,0,0-1.74,1.66,3.86,3.86,0,0,0-.4,1.17,4.62,4.62,0,0,0-.05.65,3.86,3.86,0,0,0,.66,2.17,4,4,0,0,0,1.05,1,4.22,4.22,0,0,0,.66.36,4,4,0,0,0,1.52.3,4,4,0,0,0,1.51-.3,3.78,3.78,0,0,0,1.24-.84,4,4,0,0,0,.83-1.23,3.85,3.85,0,0,0,.31-1.51,4.06,4.06,0,0,0-.21-1.26A3.82,3.82,0,0,0,24.67,51a3.65,3.65,0,0,0-.87-.84,3.81,3.81,0,0,0-1.11-.54V44.86H34.87V55.93a4,4,0,0,0-1.57.92,4.15,4.15,0,0,0-.74,1,3.89,3.89,0,0,0,2.65,5.62,4.15,4.15,0,0,0,.79.08,3.89,3.89,0,0,0,3.89-3.89,3.9,3.9,0,0,0-2.77-3.7V44.86H49.31v4.76a3.69,3.69,0,0,0-.58.23A3.85,3.85,0,0,0,47.32,51a3.86,3.86,0,0,0-.78,2.33,3.88,3.88,0,0,0,2.38,3.58,4,4,0,0,0,1.51.3,3.89,3.89,0,0,0,3.89-3.88,3.49,3.49,0,0,0-.06-.65,3.6,3.6,0,0,0-.4-1.17,3.86,3.86,0,0,0-1.73-1.66,4.12,4.12,0,0,0-.58-.23V44.86h7.52a3.43,3.43,0,0,0,2.43-1,3.36,3.36,0,0,0,.72-1.07,3.11,3.11,0,0,0,.22-1.29Z"/></g></g></svg>