<svg xmlns="http://www.w3.org/2000/svg" viewBox="0 0 72 72"><defs><style>.cls-1{fill:#333;}.cls-2{fill:#fff;}</style></defs><g id="Layer_2" data-name="Layer 2"><g id="Layer_5" data-name="Layer 5"><circle class="cls-1" cx="36" cy="36" r="36"/><path class="cls-2" d="M25.14,51.51a.89.89,0,0,0,.9-.89V38.7a.9.9,0,1,0-1.8,0V50.62A.89.89,0,0,0,25.14,51.51Z"/><path class="cls-2" d="M31.89,51.51a.89.89,0,0,0,.9-.89V38.7a.9.9,0,0,0-1.8,0V50.62A.9.9,0,0,0,31.89,51.51Z"/><path class="cls-2" d="M38.64,51.51a.89.89,0,0,0,.9-.89V38.7a.9.9,0,1,0-1.79,0V50.62A.89.89,0,0,0,38.64,51.51Z"/><path class="cls-2" d="M45.39,51.51a.89.89,0,0,0,.9-.89V38.7a.9.9,0,1,0-1.79,0V50.62A.89.89,0,0,0,45.39,51.51Z"/><path class="cls-2" d="M58,38.67H52.53V34a.9.9,0,0,0-.9-.9h-5V28.59a11.35,11.35,0,0,0-10.44-11.3V15.2H43.5a.89.89,0,0,0,.89-.89V10.16a.89.89,0,0,0-.89-.89H36.16V9a.9.9,0,1,0-1.79,0V17.2a.28.28,0,0,0,0,.09,11.35,11.35,0,0,0-10.44,11.3v4.49h-5a.9.9,0,0,0-.9.9v4.69H12.53a.9.9,0,0,0-.9.89V54.5a.9.9,0,0,0,.9.9H58a.9.9,0,0,0,.9-.9V39.56A.89.89,0,0,0,58,38.67ZM42.6,11.06v2.35H36.16V11.06ZM25.73,28.59a9.54,9.54,0,1,1,19.07,0v4.49H25.73ZM13.43,40.46H18V53.61H13.43Zm37.3,13.15H19.8V34.88H50.73Zm6.38,0H52.53V40.46h4.58Z"/></g></g></svg>