<svg xmlns="http://www.w3.org/2000/svg" viewBox="0 0 72 72"><defs><style>.cls-1{fill:#333;}.cls-2{fill:#fff;}</style></defs><g id="Layer_2" data-name="Layer 2"><g id="Layer_5" data-name="Layer 5"><circle class="cls-1" cx="36" cy="36" r="36"/><path class="cls-2" d="M56,55.15H53.34a.78.78,0,0,0,.09-.37V22.91l2.23.92a1,1,0,0,0,.32.06.84.84,0,0,0,.79-.52.85.85,0,0,0-.46-1.11l-11.4-4.68-.26-.06V11.27a.84.84,0,0,0,.24-.78.85.85,0,0,0-1-.66l-28,5.7A.85.85,0,0,0,16,17.21l.17,0,2.39-.49V55.15H16a.85.85,0,0,0,0,1.7H56a.85.85,0,0,0,0-1.7ZM51.73,22.22V54.78a.78.78,0,0,0,.09.37H44.65V19.31ZM20.27,16.36,43,11.75v43.4H34.7V47.79a.85.85,0,0,0-.85-.85H29.36a.85.85,0,0,0-.85.85v7.36H20.27ZM33,55.15h-2.8V48.64H33Z"/><path class="cls-2" d="M25,17.91a.85.85,0,0,0-.85.85v2.18a.85.85,0,0,0,1.7,0V18.76A.85.85,0,0,0,25,17.91Z"/><path class="cls-2" d="M31.61,21.79a.85.85,0,0,0,.85-.85V18.76a.85.85,0,0,0-1.7,0v2.18A.85.85,0,0,0,31.61,21.79Z"/><path class="cls-2" d="M38.23,21.79a.85.85,0,0,0,.85-.85V18.76a.85.85,0,1,0-1.69,0v2.18A.85.85,0,0,0,38.23,21.79Z"/><path class="cls-2" d="M25,25.27a.85.85,0,0,0-.85.85V28.3a.85.85,0,0,0,1.7,0V26.12A.85.85,0,0,0,25,25.27Z"/><path class="cls-2" d="M31.61,29.15a.85.85,0,0,0,.85-.85V26.12a.85.85,0,1,0-1.7,0V28.3A.85.85,0,0,0,31.61,29.15Z"/><path class="cls-2" d="M38.23,29.15a.85.85,0,0,0,.85-.85V26.12a.85.85,0,1,0-1.69,0V28.3A.85.85,0,0,0,38.23,29.15Z"/><path class="cls-2" d="M25,32.63a.85.85,0,0,0-.85.85v2.18a.85.85,0,1,0,1.7,0V33.48A.85.85,0,0,0,25,32.63Z"/><path class="cls-2" d="M31.61,36.51a.85.85,0,0,0,.85-.85V33.48a.85.85,0,1,0-1.7,0v2.18A.85.85,0,0,0,31.61,36.51Z"/><path class="cls-2" d="M38.23,36.51a.85.85,0,0,0,.85-.85V33.48a.85.85,0,1,0-1.69,0v2.18A.85.85,0,0,0,38.23,36.51Z"/><path class="cls-2" d="M25,40a.85.85,0,0,0-.85.85V43a.85.85,0,0,0,1.7,0V40.84A.85.85,0,0,0,25,40Z"/><path class="cls-2" d="M31.61,43.87a.85.85,0,0,0,.85-.85V40.84a.85.85,0,0,0-1.7,0V43A.85.85,0,0,0,31.61,43.87Z"/><path class="cls-2" d="M38.23,43.87a.85.85,0,0,0,.85-.85V40.84a.85.85,0,1,0-1.69,0V43A.85.85,0,0,0,38.23,43.87Z"/><path class="cls-2" d="M25,47.35a.85.85,0,0,0-.85.85v2.18a.85.85,0,0,0,1.7,0V48.2A.85.85,0,0,0,25,47.35Z"/><path class="cls-2" d="M38.23,51.23a.85.85,0,0,0,.85-.85V48.2a.85.85,0,1,0-1.69,0v2.18A.85.85,0,0,0,38.23,51.23Z"/><path class="cls-2" d="M48,29.15a.85.85,0,0,0,.85-.85V26.12a.85.85,0,0,0-1.7,0V28.3A.85.85,0,0,0,48,29.15Z"/><path class="cls-2" d="M48,36.51a.85.85,0,0,0,.85-.85V33.48a.85.85,0,1,0-1.7,0v2.18A.85.85,0,0,0,48,36.51Z"/><path class="cls-2" d="M48,43.87a.85.85,0,0,0,.85-.85V40.84a.85.85,0,0,0-1.7,0V43A.85.85,0,0,0,48,43.87Z"/><path class="cls-2" d="M48,51.23a.85.85,0,0,0,.85-.85V48.2a.85.85,0,0,0-1.7,0v2.18A.85.85,0,0,0,48,51.23Z"/></g></g></svg>