<svg xmlns="http://www.w3.org/2000/svg" viewBox="0 0 72 72"><defs><style>.cls-1{fill:#333;}.cls-2{fill:#fff;}</style></defs><g id="Layer_2" data-name="Layer 2"><g id="Layer_5" data-name="Layer 5"><circle class="cls-1" cx="36" cy="36" r="36"/><path class="cls-2" d="M14.56,52.57a.89.89,0,1,0,0,1.78h42.9a.89.89,0,0,0,0-1.78Z"/><path class="cls-2" d="M58.69,56.12H13.31a.89.89,0,1,0,0,1.78H58.69a.89.89,0,0,0,0-1.78Z"/><path class="cls-2" d="M13.64,25.8h4.27v2.87a.89.89,0,0,0,.89.89h.87L19.33,49H15.94a.89.89,0,1,0,0,1.78H55.7a.89.89,0,0,0,0-1.78h-3c0-3.21-.1-6.44-.18-9.58s-.17-6.59-.18-9.88h.88a.89.89,0,0,0,.89-.89V25.8h4.27a.89.89,0,0,0,.89-.89V21.68a.88.88,0,0,0-.57-.83L36.32,12.22a.88.88,0,0,0-.64,0L13.31,20.84a.9.9,0,0,0-.56.83v3.24A.89.89,0,0,0,13.64,25.8Zm13.22,0v2H19.69v-2Zm16.5,0v2.87a.89.89,0,0,0,.89.89h.87L44.78,49H27.23c0-3.21-.09-6.44-.18-9.58s-.17-6.59-.17-9.88h.87a.89.89,0,0,0,.89-.89V25.8ZM21.45,29.56H25.1c0,3.31.09,6.67.18,9.92s.16,6.35.17,9.54H21.11Zm29.27,9.92c.09,3.13.17,6.35.18,9.54H46.56l.34-19.46h3.64C50.55,32.87,50.64,36.23,50.72,39.48Zm1.59-11.7H45.14v-2h7.17Zm-37.78-5.5L36,14l21.47,8.28V24H14.53Z"/><path class="cls-2" d="M35.64,38.1h0c1.44,0,2.51.42,2.88,1.11a1,1,0,0,1-.07,1c-.37.54-1.37,1.05-3.08.86a13.23,13.23,0,0,1-2.68-.71l-.21-.07A.89.89,0,0,0,32,42l.21.07a18.37,18.37,0,0,0,2.57.72v2a.89.89,0,0,0,1.78,0V42.9A4.31,4.31,0,0,0,40,41.23a2.7,2.7,0,0,0,.17-2.85c-.69-1.31-2.31-2.06-4.45-2.06h0c-1.74,0-2.66-.57-2.94-1.1a.92.92,0,0,1,.07-1c.38-.56,1.41-1.09,3.14-.89a13.56,13.56,0,0,1,2.7.71l.19.06a.89.89,0,0,0,1.13-.56.9.9,0,0,0-.57-1.13l-.19-.06a17.12,17.12,0,0,0-2.64-.73v-2a.89.89,0,0,0-1.78,0v1.88a4.4,4.4,0,0,0-3.45,1.7,2.69,2.69,0,0,0-.17,2.82C31.82,37.36,33.46,38.1,35.64,38.1Z"/><path class="cls-2" d="M47.61,22.66a.87.87,0,0,0,.32.06A.89.89,0,0,0,48.25,21L36.32,16.4a.88.88,0,0,0-.64,0L23.75,21a.89.89,0,0,0,.64,1.66L36,18.18Z"/></g></g></svg>