<svg xmlns="http://www.w3.org/2000/svg" viewBox="0 0 72 72"><defs><style>.cls-1{fill:#333;}.cls-2{fill:#fff;}</style></defs><g id="Layer_2" data-name="Layer 2"><g id="Layer_5" data-name="Layer 5"><circle class="cls-1" cx="36" cy="36" r="36"/><path class="cls-2" d="M57.64,55.7H14.36a.85.85,0,1,0,0,1.7H57.64a.85.85,0,0,0,0-1.7Z"/><path class="cls-2" d="M15.26,26h2.31V52.3H15.66a.85.85,0,1,0,0,1.7H56.34a.85.85,0,1,0,0-1.7H54.43V26h2.31a.84.84,0,0,0,.66-1.38L49.55,15a.84.84,0,0,0-.65-.32H23.1a.84.84,0,0,0-.65.32L14.6,24.65A.84.84,0,0,0,15.26,26ZM52.74,52.3H19.26V26H52.74ZM23.51,16.42h25L55,24.33H17.05Z"/><path class="cls-2" d="M23.87,31l0,0,0,0,0,0,0,0v0l0,0V47.42a.85.85,0,0,0,.85.85H47.44a.85.85,0,0,0,.85-.85V31.34a.07.07,0,0,1,0-.05v0s0,0,0-.05v0l0-.05v0s0,0,0,0l0,0s0,0,0,0l0,0,0,0,0,0,0,0h0l0,0,0,0,0,0,0,0,0,0,0,0,0,0,0,0,0,0H24.26l-.05,0,0,0,0,0,0,0,0,0,0,0,0,0,0,0,0,0h0v0l0,0ZM46.6,45.38l-6.52-5.63c1.55-1.41,3-2.89,4.5-4.33l2-2Zm-12-3.45a2.27,2.27,0,0,0,2.8.11l1.37-1.16,6.57,5.69H26.63l6.72-5.82Zm8.75-7.71a92,92,0,0,1-7,6.49.63.63,0,0,1-.58,0L26.72,32.3H45.33ZM32.1,39.59l-6.7,5.79v-12Z"/></g></g></svg>