<svg xmlns="http://www.w3.org/2000/svg" viewBox="0 0 72 72"><defs><style>.cls-1{fill:#333;}.cls-2{fill:#fff;}</style></defs><g id="Layer_2" data-name="Layer 2"><g id="Layer_5" data-name="Layer 5"><circle class="cls-1" cx="36" cy="36" r="36"/><path class="cls-2" d="M60.38,27a.92.92,0,0,0-.47-.8l-8.29-4.54a.93.93,0,0,0-.9,0,.9.9,0,0,0-.45.78v3l-6.93-3.8a.93.93,0,0,0-.9,0,.9.9,0,0,0-.45.78v3l-6.37-3.49a.93.93,0,0,0-.9,0,.9.9,0,0,0-.45.78V33.83H31.86L31.3,17.57h.18a.91.91,0,0,0,.91-.91v-3a.91.91,0,0,0-.91-.91h-7a.92.92,0,0,0-.92.91v3a.92.92,0,0,0,.92.91h.18l-.56,16.26h-2l-.56-16.26h.18a.92.92,0,0,0,.92-.91v-3a.92.92,0,0,0-.92-.91h-7a.91.91,0,0,0-.91.91v3a.91.91,0,0,0,.91.91H15l-.56,16.26H12.52a.92.92,0,0,0-.91.92V55.93a.92.92,0,0,0,.91.92h47a.92.92,0,0,0,.91-.92V51.05C60.39,41.9,60.39,34.82,60.38,27Zm-35-12.4h5.15v1.2H25.42Zm1.1,3h2.95L30,33.83H26Zm-10.84-3h5.15v1.2H15.68Zm1.1,3h2.95l.57,16.26H16.21ZM13.43,35.66H34.27V55H13.43ZM53.45,55H41.73V47.8H53.45Zm5.12-4v4h-3.3V46.89a.91.91,0,0,0-.91-.91H40.81a.91.91,0,0,0-.91.91V55H36.1V24.26l6.37,3.49a.91.91,0,0,0,1.34-.8V24l6.94,3.8A.92.92,0,0,0,52.1,27V24l6.46,3.54C58.57,35.33,58.57,42.11,58.57,51.05Z"/><path class="cls-2" d="M30.53,39.35H17.12a.91.91,0,0,0-.92.91v3a.92.92,0,0,0,.92.91H30.53a.91.91,0,0,0,.91-.91v-3A.91.91,0,0,0,30.53,39.35Zm-.91,3H18v-1.2H29.62Z"/><path class="cls-2" d="M30.53,46H17.12a.92.92,0,0,0-.92.91v3a.92.92,0,0,0,.92.91H30.53a.91.91,0,0,0,.91-.91v-3A.91.91,0,0,0,30.53,46Zm-.91,3H18V47.8H29.62Z"/><path class="cls-2" d="M54.36,39.35H50.91a.91.91,0,0,0-.91.91v3a.91.91,0,0,0,.91.91h3.45a.91.91,0,0,0,.91-.91v-3A.91.91,0,0,0,54.36,39.35Zm-.91,3H51.82v-1.2h1.63Z"/><path class="cls-2" d="M50.91,37.77h3.45a.92.92,0,0,0,.91-.92v-3a.91.91,0,0,0-.91-.91H50.91a.91.91,0,0,0-.91.91v3A.92.92,0,0,0,50.91,37.77Zm.91-3h1.63v1.19H51.82Z"/></g></g></svg>