<svg xmlns="http://www.w3.org/2000/svg" viewBox="0 0 72 72"><defs><style>.cls-1{fill:#333;}.cls-2{fill:#fff;}</style></defs><g id="Layer_2" data-name="Layer 2"><g id="Layer_5" data-name="Layer 5"><circle class="cls-1" cx="36" cy="36" r="36"/><path class="cls-2" d="M58,23,47.25,13.07a.85.85,0,0,0-1.15,0L36,22.39,25.9,13.07a.85.85,0,0,0-1.15,0L14,23a.89.89,0,0,0-.27.63V56.55a.85.85,0,0,0,.85.85H57.43a.85.85,0,0,0,.85-.85V23.62A.89.89,0,0,0,58,23ZM15.42,24l9.91-9.14,9.74,9V55.7H24.32V47.38a.85.85,0,0,0-.85-.85H19a.85.85,0,0,0-.85.85V55.7H15.42Zm7.2,31.71H19.83V48.22h2.79Zm29.55,0H49.38V48.22h2.79Zm4.41,0H53.87V47.38a.85.85,0,0,0-.85-.85H48.53a.85.85,0,0,0-.85.85V55.7H36.76V24.12a.6.6,0,0,0,.13-.25l9.78-9L56.58,24Z"/><path class="cls-2" d="M26.33,27.19v5.36a.85.85,0,0,0,.85.85h4.5a.85.85,0,0,0,.84-.85V27.19a.85.85,0,0,0-.84-.85h-4.5A.85.85,0,0,0,26.33,27.19ZM28,28h2.8V31.7H28Z"/><path class="cls-2" d="M19,33.4h4.49a.85.85,0,0,0,.85-.85V27.19a.85.85,0,0,0-.85-.85H19a.85.85,0,0,0-.85.85v5.36A.85.85,0,0,0,19,33.4ZM19.83,28h2.79V31.7H19.83Z"/><path class="cls-2" d="M31.68,36.44h-4.5a.85.85,0,0,0-.85.84v5.36a.85.85,0,0,0,.85.85h4.5a.85.85,0,0,0,.84-.85V37.28A.85.85,0,0,0,31.68,36.44Zm-.85,5.35H28V38.13h2.8Z"/><path class="cls-2" d="M19,43.49h4.49a.85.85,0,0,0,.85-.85V37.28a.85.85,0,0,0-.85-.84H19a.85.85,0,0,0-.85.84v5.36A.85.85,0,0,0,19,43.49Zm.85-5.36h2.79v3.66H19.83Z"/><path class="cls-2" d="M31.68,46.53h-4.5a.85.85,0,0,0-.85.85v5.35a.85.85,0,0,0,.85.85h4.5a.85.85,0,0,0,.84-.85V47.38A.85.85,0,0,0,31.68,46.53Zm-.85,5.35H28V48.22h2.8Z"/><path class="cls-2" d="M47.68,27.19v5.36a.85.85,0,0,0,.85.85H53a.85.85,0,0,0,.85-.85V27.19a.85.85,0,0,0-.85-.85H48.53A.85.85,0,0,0,47.68,27.19Zm1.7.85h2.79V31.7H49.38Z"/><path class="cls-2" d="M44.82,26.34h-4.5a.85.85,0,0,0-.85.85v5.36a.85.85,0,0,0,.85.85h4.5a.85.85,0,0,0,.85-.85V27.19A.85.85,0,0,0,44.82,26.34ZM44,31.7h-2.8V28H44Z"/><path class="cls-2" d="M53,36.44H48.53a.85.85,0,0,0-.85.84v5.36a.85.85,0,0,0,.85.85H53a.85.85,0,0,0,.85-.85V37.28A.85.85,0,0,0,53,36.44Zm-.85,5.35H49.38V38.13h2.79Z"/><path class="cls-2" d="M44.82,36.44h-4.5a.85.85,0,0,0-.85.84v5.36a.85.85,0,0,0,.85.85h4.5a.85.85,0,0,0,.85-.85V37.28A.85.85,0,0,0,44.82,36.44ZM44,41.79h-2.8V38.13H44Z"/><path class="cls-2" d="M44.82,46.53h-4.5a.85.85,0,0,0-.85.85v5.35a.85.85,0,0,0,.85.85h4.5a.85.85,0,0,0,.85-.85V47.38A.85.85,0,0,0,44.82,46.53ZM44,51.88h-2.8V48.22H44Z"/><path class="cls-2" d="M19.88,23.49a.84.84,0,0,0,.58-.22l4.87-4.49,4.86,4.49A.85.85,0,0,0,31.34,22L25.9,17a.85.85,0,0,0-1.15,0l-5.44,5a.84.84,0,0,0,0,1.2A.86.86,0,0,0,19.88,23.49Z"/><path class="cls-2" d="M46.1,17l-5.44,5a.85.85,0,1,0,1.15,1.25l4.86-4.49,4.87,4.49a.83.83,0,0,0,.57.22.86.86,0,0,0,.63-.27.84.84,0,0,0-.05-1.2l-5.44-5A.85.85,0,0,0,46.1,17Z"/></g></g></svg>