<svg xmlns="http://www.w3.org/2000/svg" viewBox="0 0 72 72"><defs><style>.cls-1{fill:#333;}.cls-2{fill:#fff;}</style></defs><g id="Layer_2" data-name="Layer 2"><g id="Layer_5" data-name="Layer 5"><circle class="cls-1" cx="36" cy="36" r="36"/><path class="cls-2" d="M59.46,33.39a1.06,1.06,0,0,0,0-.25,1,1,0,0,0-.32-.66L36.83,12.54a.91.91,0,0,0-.83-.22.91.91,0,0,0-.83.22l-6.7,6V13.25a1,1,0,0,0-1-1H21.3a1,1,0,0,0-1,1V25.78l-7.5,6.7a1,1,0,0,0-.32.66,1.06,1.06,0,0,0,0,.25.94.94,0,0,0,.22.83L16.1,38a1,1,0,0,0,.66.32,1,1,0,0,0,.69-.24l2.89-2.58V56.89a1,1,0,0,0,1,1H51.1a1,1,0,0,0,1-1v-21l2.49,2.22a1,1,0,0,0,.69.24A1,1,0,0,0,55.9,38l3.34-3.76A.94.94,0,0,0,59.46,33.39ZM22.25,14.2h4.31v6l-4.31,3.85Zm27.9,41.74H22.25V34.09a.77.77,0,0,0,0-.27L36,21.53,50.15,34.14Zm5-19.94L36.63,19.54a.95.95,0,0,0-1.26,0L16.89,36l-2.26-2.55h0l7.08-6.33a.94.94,0,0,0,.39-.35L28,21.46a.82.82,0,0,0,.22-.19L36,14.38H36L57.37,33.44h0Z"/><path class="cls-2" d="M29,37v9.36a2.33,2.33,0,0,0,2.33,2.33h9.36A2.32,2.32,0,0,0,43,46.36V37a2.32,2.32,0,0,0-2.32-2.32H31.31A2.32,2.32,0,0,0,29,37Zm6,9.78H31.31a.42.42,0,0,1-.42-.42V41.83l4.18,0Zm6.06-.42a.42.42,0,0,1-.41.42H36.92L37,41.87l4.1,0Zm0-9.36v3l-10.19-.06V37a.42.42,0,0,1,.42-.41h9.36A.42.42,0,0,1,41.08,37Z"/></g></g></svg>