<svg xmlns="http://www.w3.org/2000/svg" viewBox="0 0 72 72"><defs><style>.cls-1{fill:#333;}.cls-2{fill:#fff;}</style></defs><g id="Layer_2" data-name="Layer 2"><g id="Layer_5" data-name="Layer 5"><circle class="cls-1" cx="36" cy="36" r="36"/><path class="cls-2" d="M60.29,54.66H56.16v-21a6.3,6.3,0,0,0,5.18-6.14,5.8,5.8,0,0,0-.1-1.11.57.57,0,0,0-.07-.22L55.74,13.86a1,1,0,0,0-.89-.58H17.16a1,1,0,0,0-.89.58L10.83,26.21a.57.57,0,0,0-.07.22,5.8,5.8,0,0,0-.1,1.11,6.3,6.3,0,0,0,5.18,6.14v21H11.7a1,1,0,0,0,0,2H60.29a1,1,0,1,0,0-2ZM31,15.22l-.78,14.43a.8.8,0,0,0,0,.31,4.53,4.53,0,0,1-7.52-.24l2.36-14.5Zm7.87,0,.79,14.53a.93.93,0,0,0,0,.24,4.52,4.52,0,0,1-7.53-.33l.78-14.44Zm7.85,0,2.39,14.64a.47.47,0,0,0,0,.16,4.53,4.53,0,0,1-7.53-.39l0,0-.78-14.38ZM31.26,31.74a6.48,6.48,0,0,0,9.48,0,6.47,6.47,0,0,0,9.47,0,6.42,6.42,0,0,0,4,2V54.66H29.77V33.19a1,1,0,0,0,0-.24A6.33,6.33,0,0,0,31.26,31.74Zm28.09-4.86a4.89,4.89,0,0,1,0,.66,4.4,4.4,0,0,1-4.46,4.31,4.49,4.49,0,0,1-3.89-2.22.36.36,0,0,0-.07-.1L48.66,15.22h5.55Zm-46.75.66a4.89,4.89,0,0,1,.05-.66l5.14-11.66h5.29L20.75,29.55a1.15,1.15,0,0,0,0,.37,4.48,4.48,0,0,1-3.7,1.93A4.4,4.4,0,0,1,12.6,27.54Zm5.19,6.21a6.42,6.42,0,0,0,4-2,6.49,6.49,0,0,0,4.74,2.06,6.88,6.88,0,0,0,1.29-.13v21h-10Z"/><path class="cls-2" d="M24.81,42.31a1,1,0,0,0-1,1v3.45a1,1,0,1,0,1.94,0V43.28A1,1,0,0,0,24.81,42.31Z"/><path class="cls-2" d="M38.69,50.16a.94.94,0,0,0,.68-.28l11-10.83A1,1,0,1,0,49,37.67L38,48.5a1,1,0,0,0,0,1.37A1,1,0,0,0,38.69,50.16Z"/><path class="cls-2" d="M49.29,44.16l-7.42,7.32a1,1,0,0,0,0,1.38,1,1,0,0,0,.7.29,1,1,0,0,0,.68-.29l7.41-7.32a1,1,0,1,0-1.36-1.38Z"/></g></g></svg>