<svg xmlns="http://www.w3.org/2000/svg" viewBox="0 0 72 72"><defs><style>.cls-1{fill:#333;}.cls-2{fill:#fff;}</style></defs><g id="Layer_2" data-name="Layer 2"><g id="Layer_5" data-name="Layer 5"><circle class="cls-1" cx="36" cy="36" r="36"/><path class="cls-2" d="M15.55,52.31a.85.85,0,0,0,0,1.7h40.9a.85.85,0,0,0,0-1.7Z"/><path class="cls-2" d="M57.64,55.7H14.36a.85.85,0,1,0,0,1.7H57.64a.85.85,0,0,0,0-1.7Z"/><path class="cls-2" d="M14.67,26.79h4.08v2.73a.85.85,0,0,0,.85.85h.82L20.1,48.93H17a.85.85,0,1,0,0,1.69H55a.85.85,0,1,0,0-1.69H51.91c0-3.06-.09-6.15-.17-9.14s-.16-6.28-.17-9.42h.83a.85.85,0,0,0,.85-.85V26.79h4.08a.85.85,0,0,0,.85-.85V22.85a.85.85,0,0,0-.54-.79L36.31,13.83a.91.91,0,0,0-.61,0L14.37,22.06a.84.84,0,0,0-.55.79v3.09A.85.85,0,0,0,14.67,26.79Zm12.61,0v1.88H20.45V26.79Zm3.6,0v2.73a.85.85,0,0,0,.85.85h.83l-.32,18.56h-4.6c0-3.06-.09-6.15-.17-9.14s-.16-6.28-.17-9.42h.83a.85.85,0,0,0,.85-.85V26.79Zm12.14,0v2.73a.85.85,0,0,0,.85.85h.83l-.33,18.56h-4.6c0-3.06-.09-6.15-.17-9.14s-.16-6.28-.17-9.42h.84a.85.85,0,0,0,.85-.85V26.79Zm-5.28,3.58c0,3.16.09,6.36.17,9.46s.15,6.06.17,9.1H33.94l.32-18.56Zm1.68-1.7H32.58V26.79h6.84Zm-17.3,1.7H25.6c0,3.16.09,6.36.17,9.46s.16,6.06.17,9.1H21.8ZM50,39.83c.08,3,.16,6.06.17,9.1H46.07l.32-18.56h3.48C49.88,33.53,50,36.73,50,39.83Zm1.51-11.16H44.72V26.79h6.83Zm-36-5.24L36,15.54l20.48,7.89v1.66h-41Z"/><path class="cls-2" d="M47.07,23.79a.79.79,0,0,0,.3.05.85.85,0,0,0,.31-1.64L36.31,17.82a.81.81,0,0,0-.61,0L24.32,22.2a.85.85,0,1,0,.61,1.59L36,19.52Z"/></g></g></svg>