<svg xmlns="http://www.w3.org/2000/svg" viewBox="0 0 72 72"><defs><style>.cls-1{fill:#333;}.cls-2{fill:#fff;}</style></defs><g id="Layer_2" data-name="Layer 2"><g id="Layer_5" data-name="Layer 5"><circle class="cls-1" cx="36" cy="36" r="36"/><path class="cls-2" d="M57.57,23.79,36.34,14.42a.89.89,0,0,0-.68,0L14.43,23.79a.86.86,0,0,0-.5.78v32a.85.85,0,0,0,.85.85h7a.85.85,0,0,0,.85-.85v-4.2H49.38v4.2a.85.85,0,0,0,.85.85h7a.85.85,0,0,0,.85-.85v-32A.86.86,0,0,0,57.57,23.79ZM30.8,50.65H22.62V44.56H30.8Zm-8.18-7.79V36.92h8.07v5.94Zm17.51,7.79H32.5V44.56h7.63Zm0-7.79H32.38V36.92h7.75Zm9.25,7.79H41.83V44.56h7.55Zm0-7.79H41.83V36.07a.85.85,0,0,0-.85-.85H22.62V30.35H49.38Zm7,12.84h-5.3V51.87a.78.78,0,0,0,.09-.37.74.74,0,0,0-.09-.36V44.08a.78.78,0,0,0,.09-.37.74.74,0,0,0-.09-.36V29.5a.85.85,0,0,0-.84-.85H21.77a.85.85,0,0,0-.84.85V55.7h-5.3V25.12l20.37-9,20.37,9Z"/></g></g></svg>