<svg xmlns="http://www.w3.org/2000/svg" viewBox="0 0 72 72"><defs><style>.cls-1{fill:#333;}.cls-2{fill:#fff;}</style></defs><g id="Layer_2" data-name="Layer 2"><g id="Layer_5" data-name="Layer 5"><circle class="cls-1" cx="36" cy="36" r="36"/><path class="cls-2" d="M59.18,28.25H49.27V20a.9.9,0,0,0-.9-.9H43.2a7.53,7.53,0,1,0-14.4,0H23.63a.9.9,0,0,0-.9.9v8.28H12.82a.9.9,0,0,0-.9.9V55.94a.9.9,0,0,0,.9.91H23.19l.22,0a1.46,1.46,0,0,0,.22,0H48.37a1.46,1.46,0,0,0,.22,0l.22,0H59.18a.9.9,0,0,0,.9-.91V29.15A.9.9,0,0,0,59.18,28.25ZM22.73,55h-9v-25h9ZM34.56,11.58h2.88v3.85h3.85v2.88H37.44v3.86H34.56V18.31H30.71V15.43h3.85ZM35.1,55H30.21V49H35.1Zm6.69,0H36.9V49h4.89Zm5.68,0H43.6V48.1a.91.91,0,0,0-.91-.9H29.31a.91.91,0,0,0-.91.9V55H24.53V20.87h4.73a.88.88,0,0,0,.33-.06,7.52,7.52,0,0,0,12.82,0,.88.88,0,0,0,.33.06h4.73Zm10.81,0h-9v-25h9Z"/><path class="cls-2" d="M19.8,46.14H16.39a.9.9,0,0,0-.9.9v3a.9.9,0,0,0,.9.9H19.8a.9.9,0,0,0,.9-.9V47A.9.9,0,0,0,19.8,46.14Zm-.9,3H17.29V47.94H18.9Z"/><path class="cls-2" d="M19.8,39.79H16.39a.9.9,0,0,0-.9.9v3a.9.9,0,0,0,.9.9H19.8a.9.9,0,0,0,.9-.9v-3A.9.9,0,0,0,19.8,39.79Zm-.9,3H17.29V41.59H18.9Z"/><path class="cls-2" d="M16.39,38.22H19.8a.9.9,0,0,0,.9-.9v-3a.9.9,0,0,0-.9-.9H16.39a.9.9,0,0,0-.9.9v3A.9.9,0,0,0,16.39,38.22Zm.9-3H18.9v1.18H17.29Z"/><path class="cls-2" d="M55.61,46.14H52.2a.9.9,0,0,0-.9.9v3a.9.9,0,0,0,.9.9h3.41a.9.9,0,0,0,.9-.9V47A.9.9,0,0,0,55.61,46.14Zm-.9,3H53.1V47.94h1.61Z"/><path class="cls-2" d="M52.2,44.57h3.41a.9.9,0,0,0,.9-.9v-3a.9.9,0,0,0-.9-.9H52.2a.9.9,0,0,0-.9.9v3A.9.9,0,0,0,52.2,44.57Zm.9-3h1.61v1.18H53.1Z"/><path class="cls-2" d="M52.2,38.22h3.41a.9.9,0,0,0,.9-.9v-3a.9.9,0,0,0-.9-.9H52.2a.9.9,0,0,0-.9.9v3A.9.9,0,0,0,52.2,38.22Zm.9-3h1.61v1.18H53.1Z"/><path class="cls-2" d="M29.37,26.88a.9.9,0,0,0-.9.9v3a.9.9,0,0,0,.9.9H42.63a.9.9,0,0,0,.9-.9v-3a.9.9,0,0,0-.9-.9Zm12.36,3H30.27V28.68H41.73Z"/><path class="cls-2" d="M42.63,33.44H29.37a.9.9,0,0,0-.9.9v3a.9.9,0,0,0,.9.9H42.63a.9.9,0,0,0,.9-.9v-3A.9.9,0,0,0,42.63,33.44Zm-.9,3H30.27V35.24H41.73Z"/><path class="cls-2" d="M42.63,39.79H29.37a.9.9,0,0,0-.9.9v3a.9.9,0,0,0,.9.9H42.63a.9.9,0,0,0,.9-.9v-3A.9.9,0,0,0,42.63,39.79Zm-.9,3H30.27V41.59H41.73Z"/></g></g></svg>