<svg xmlns="http://www.w3.org/2000/svg" viewBox="0 0 72 72"><defs><style>.cls-1{fill:#333;}.cls-2{fill:#fff;}</style></defs><g id="Layer_2" data-name="Layer 2"><g id="Layer_5" data-name="Layer 5"><circle class="cls-1" cx="36" cy="36" r="36"/><path class="cls-2" d="M57.11,55.7H54.28a.88.88,0,0,0,.09-.37v-34a.85.85,0,0,0-.85-.85H45.09V14.33a.85.85,0,0,0-.85-.85H18.48a.85.85,0,0,0-.85.85V55.7H14.89a.85.85,0,0,0,0,1.7H57.11a.85.85,0,0,0,0-1.7ZM52.67,22.22V55.33a.87.87,0,0,0,.08.37H45.09V22.22Zm-33.34-7H43.39V55.7H34.58V52.19a.85.85,0,0,0-.85-.85H29a.85.85,0,0,0-.85.85V55.7H19.33ZM32.88,55.7h-3V53h3Z"/><path class="cls-2" d="M22.34,19.7h18a.85.85,0,1,0,0-1.69h-18a.85.85,0,1,0,0,1.69Z"/><path class="cls-2" d="M48.72,29.71a.85.85,0,0,0,.85-.85V26.67a.85.85,0,0,0-1.7,0v2.19A.85.85,0,0,0,48.72,29.71Z"/><path class="cls-2" d="M48.72,37.07a.85.85,0,0,0,.85-.85V34a.85.85,0,0,0-1.7,0v2.19A.85.85,0,0,0,48.72,37.07Z"/><path class="cls-2" d="M48.72,44.43a.85.85,0,0,0,.85-.85V41.4a.85.85,0,1,0-1.7,0v2.18A.85.85,0,0,0,48.72,44.43Z"/><path class="cls-2" d="M48.72,51.79a.85.85,0,0,0,.85-.85V48.76a.85.85,0,1,0-1.7,0v2.18A.85.85,0,0,0,48.72,51.79Z"/><path class="cls-2" d="M22.34,24h18a.85.85,0,1,0,0-1.69h-18a.85.85,0,1,0,0,1.69Z"/><path class="cls-2" d="M22.34,28.25h18a.85.85,0,0,0,0-1.7h-18a.85.85,0,1,0,0,1.7Z"/><path class="cls-2" d="M22.34,32.52h18a.85.85,0,1,0,0-1.7h-18a.85.85,0,1,0,0,1.7Z"/><path class="cls-2" d="M22.34,36.79h18a.85.85,0,0,0,0-1.7h-18a.85.85,0,1,0,0,1.7Z"/><path class="cls-2" d="M22.34,41.06h18a.85.85,0,1,0,0-1.7h-18a.85.85,0,0,0,0,1.7Z"/><path class="cls-2" d="M22.34,45.33h18a.85.85,0,0,0,0-1.7h-18a.85.85,0,0,0,0,1.7Z"/><path class="cls-2" d="M22.34,49.6h18a.85.85,0,1,0,0-1.69h-18a.85.85,0,1,0,0,1.69Z"/><path class="cls-2" d="M25.56,52.24H22.23a.85.85,0,1,0,0,1.7h3.33a.85.85,0,1,0,0-1.7Z"/><path class="cls-2" d="M40.38,52.24H37.05a.85.85,0,1,0,0,1.7h3.33a.85.85,0,1,0,0-1.7Z"/></g></g></svg>