<svg xmlns="http://www.w3.org/2000/svg" viewBox="0 0 72 72"><defs><style>.cls-1{fill:#333;}.cls-2{fill:#fff;}</style></defs><g id="Layer_2" data-name="Layer 2"><g id="Layer_5" data-name="Layer 5"><circle class="cls-1" cx="36" cy="36" r="36"/><path class="cls-2" d="M5.2,28.4c0,4,.11,8.12.11,12.13,0,.31.1.42.42.53,4.11.73,8.12,1.58,12.24,2.42h0a3.9,3.9,0,0,0,1.9,3.17,3.84,3.84,0,0,0,3.69,0,3.58,3.58,0,0,0,1.9-3.17H49.83a3.73,3.73,0,0,0,1.9,3.27,4,4,0,0,0,3.79,0,3.71,3.71,0,0,0,1.9-3.27h8.76c1.16,0,1.48-.42,1.48-1.47V35.57c0-.32,0-.53-.32-.63h0a.94.94,0,0,1-.53-1.06c-.1-2.21-.21-4.43-.31-6.64h0a.87.87,0,0,0,.84-.95v-.11a.94.94,0,0,0-1-.95H57.32a.85.85,0,0,0-.53.21H8.47A3.43,3.43,0,0,0,5.94,26.5a2.82,2.82,0,0,0-.74,1.9Zm54.65,1.16h0a1.21,1.21,0,0,1,.32-.85A1.18,1.18,0,0,1,61,28.4H62.8c1,0,1.27.31,1.27,1.26V40.32c0,.84-.32,1.16-1.16,1.16H61a1.19,1.19,0,0,1-.84-.32,1.2,1.2,0,0,1-.32-.84V29.56ZM51.52,43.48a2.36,2.36,0,0,1,.21-.84,2.27,2.27,0,0,1,.74-1,2.1,2.1,0,0,1,1.16-.32,2.66,2.66,0,0,1,.84.21c.11,0,.21.11.32.21l.21.11h0a2.63,2.63,0,0,1,.52.63,2.22,2.22,0,0,1,0,2,2.63,2.63,0,0,1-.52.63l-.21.11h0c-.11.1-.21.1-.32.21a1.94,1.94,0,0,1-2.32-.43,2.13,2.13,0,0,1-.63-1.58Zm-5.17-14a1.18,1.18,0,0,1,.31-.84,1.21,1.21,0,0,1,.85-.32h8.86a1.1,1.1,0,0,1,1.16,1.16v3.38h0a1.2,1.2,0,0,1-.32.84,1.19,1.19,0,0,1-.84.32H47.51c-.85,0-1.16-.32-1.16-1.16V29.45Zm-13.19,0a1.05,1.05,0,0,1,1.16-1.16h8.76a1.2,1.2,0,0,1,.84.32,1.19,1.19,0,0,1,.32.84v3.27a1.23,1.23,0,0,1-.32.85,1.2,1.2,0,0,1-.84.31H34.21c-.73,0-1.16-.31-1.16-1.05a33.68,33.68,0,0,0,.11-3.38ZM21.34,34c-.84,0-1.16-.32-1.16-1.16V29.45a1,1,0,0,1,1.16-1.16H30.2a1.21,1.21,0,0,1,.85.32,1.19,1.19,0,0,1,.32.84v3.27c0,.85-.32,1.16-1.17,1.16Zm-1.79,9.49a2.07,2.07,0,0,1,.95-1.79,2.27,2.27,0,0,1,2-.21,2.07,2.07,0,0,1,1.16,1.16,1.93,1.93,0,0,1,.21.84,2.12,2.12,0,0,1-.31,1.16,1.65,1.65,0,0,1-.95.74,2.1,2.1,0,0,1-2.74-1.16c-.32-.1-.32-.42-.32-.74ZM8.16,28.92A5,5,0,0,1,10,28.4c2.43-.11,4.85,0,7.28,0a1.2,1.2,0,0,1,.84.31,1.21,1.21,0,0,1,.32.85v3.27c0,.84-.32,1.16-1.16,1.16H8.37a2.08,2.08,0,0,1-.85-.21A1.14,1.14,0,0,1,7.21,33V30.61a1.58,1.58,0,0,1,.21-.95,1,1,0,0,1,.74-.74Z"/></g></g></svg>