<svg xmlns="http://www.w3.org/2000/svg" viewBox="0 0 72 72"><defs><style>.cls-1{fill:#333;}.cls-2{fill:#fff;}</style></defs><g id="Layer_2" data-name="Layer 2"><g id="Layer_5" data-name="Layer 5"><circle class="cls-1" cx="36" cy="36" r="36"/><path class="cls-2" d="M52,52.68l-2.93-1.06,2.53-7.22,2.94,1.07Z"/><path class="cls-2" d="M56.56,56.16l-4.27-1.47L56,44l4.27,1.47Z"/><path class="cls-2" d="M11.83,42.27A1.63,1.63,0,0,0,12.9,44.4L44.55,55.49a1.64,1.64,0,0,0,2.13-1.07l4.68-13.49a1.64,1.64,0,0,0-1.07-2.13L28.92,31.32v6a4.27,4.27,0,0,1-8.54,0V28.38l-1.87-.67a1.65,1.65,0,0,0-2.14,1.07Z"/><path class="cls-2" d="M11.7,15.69V20.5h10V37.33a3.07,3.07,0,0,0,6.14,0V20.5h10V15.69ZM23.31,37.33a1.47,1.47,0,1,1,1.47,1.47A1.49,1.49,0,0,1,23.31,37.33Z"/></g></g></svg>