<svg xmlns="http://www.w3.org/2000/svg" viewBox="0 0 72 72"><defs><style>.cls-1{fill:#333;}.cls-2{fill:#fff;}</style></defs><g id="Layer_2" data-name="Layer 2"><g id="Layer_5" data-name="Layer 5"><circle class="cls-1" cx="36" cy="36" r="36"/><path class="cls-2" d="M52,29.28s-9.08-8.4-14.26-8.4H26c-9.77,0-20.12,8.4-20.12,11V43.65l4.25,1.15a8.08,8.08,0,0,1,8-8,8.2,8.2,0,0,1,8.17,8.17H49a8.2,8.2,0,0,1,8.17-8.17,8,8,0,0,1,8.05,8l4.25-1.15V36.52c0-2.76-6.55-6-17.48-7.24Zm-22.77.57-15.87-.57c3.22-2.3,8.05-4.6,12.65-4.6h3.22Zm3.91.12V24.68h4.49c1.84,0,6.21,2.76,9.77,5.75Z"/><path class="cls-2" d="M23.74,44.8a5.52,5.52,0,1,1-5.52-5.52,5.45,5.45,0,0,1,5.52,5.52"/><path class="cls-2" d="M62.73,44.8a5.52,5.52,0,1,1-5.52-5.52,5.52,5.52,0,0,1,5.52,5.52"/></g></g></svg>