<svg xmlns="http://www.w3.org/2000/svg" viewBox="0 0 72 72"><defs><style>.cls-1{fill:#333;}.cls-2{fill:#fff;}</style></defs><g id="Layer_2" data-name="Layer 2"><g id="Layer_5" data-name="Layer 5"><circle class="cls-1" cx="36" cy="36" r="36"/><path class="cls-2" d="M15.47,46.4H55.15L61,35.71H30.08l-4.6-4H10.64Zm35.31-7.24A2.1,2.1,0,0,1,53.08,41a2.36,2.36,0,0,1-4.6,0A2.36,2.36,0,0,1,50.78,39.16Zm-7.36,0A2.1,2.1,0,0,1,45.72,41a2.36,2.36,0,0,1-4.6,0A2.18,2.18,0,0,1,43.42,39.16Zm-7.48,0A2.09,2.09,0,0,1,38.24,41a2.1,2.1,0,0,1-2.3,1.84A2.11,2.11,0,0,1,33.64,41,2.19,2.19,0,0,1,35.94,39.16Zm-7.47,0A2.1,2.1,0,0,1,30.77,41a2.11,2.11,0,0,1-2.3,1.84A2.1,2.1,0,0,1,26.17,41,2.18,2.18,0,0,1,28.47,39.16Z"/><path class="cls-2" d="M24.1,30.88V25.7H12v5.18Zm-5-3.68H21.8v2.18H19.15Zm-4.94,0h2.64v2.18H14.21Z"/><path class="cls-2" d="M17.54,24.9V17.54H14.67V24.9Z"/><path class="cls-2" d="M59.86,34.9V32.6H49.74v2.3Z"/><path class="cls-2" d="M48.82,34.9V32.6H38.7v2.3Z"/><path class="cls-2" d="M37.78,34.9V32.6H30.65v2.3Z"/><path class="cls-2" d="M42.27,29.5H32.15v2.3H42.27Z"/><path class="cls-2" d="M53.42,31.8V29.5H43.3v2.3Z"/><path class="cls-2" d="M59.86,31.8V29.5H54.34v2.3Z"/><path class="cls-2" d="M51.58,28.69v-2.3h-11v2.3Z"/><path class="cls-2" d="M39.51,28.69v-2.3h-6.1v2.3Z"/><path class="cls-2" d="M59.06,28.69v-2.3H52.5v2.3Z"/><path class="cls-2" d="M8.34,47.78a.93.93,0,0,0-1,.81c0,.46.46.8,1,.8a6.49,6.49,0,0,1,1.73.46,6.28,6.28,0,0,0,2.53.69,6.32,6.32,0,0,0,2.53-.69,4.79,4.79,0,0,1,1.72-.46,5.52,5.52,0,0,1,1.73.46,6.28,6.28,0,0,0,2.53.69,6.32,6.32,0,0,0,2.53-.69,4.79,4.79,0,0,1,1.72-.46,6.49,6.49,0,0,1,1.73.46,6.28,6.28,0,0,0,2.53.69,6.32,6.32,0,0,0,2.53-.69,4.79,4.79,0,0,1,1.72-.46,6.49,6.49,0,0,1,1.73.46,6.28,6.28,0,0,0,2.53.69,6.32,6.32,0,0,0,2.53-.69,4.79,4.79,0,0,1,1.72-.46,6.49,6.49,0,0,1,1.73.46,6.28,6.28,0,0,0,2.53.69,6.32,6.32,0,0,0,2.53-.69,4.79,4.79,0,0,1,1.72-.46,6.49,6.49,0,0,1,1.73.46,6.28,6.28,0,0,0,2.53.69,6.32,6.32,0,0,0,2.53-.69,4.79,4.79,0,0,1,1.72-.46,6.49,6.49,0,0,1,1.73.46,6.28,6.28,0,0,0,2.53.69c.57,0,1-.34,1-.8a.93.93,0,0,0-1-.81,6.49,6.49,0,0,1-1.73-.46,6.44,6.44,0,0,0-2.53-.69,6.49,6.49,0,0,0-2.53.69,4.79,4.79,0,0,1-1.72.46,6.49,6.49,0,0,1-1.73-.46,6.44,6.44,0,0,0-2.53-.69,6.49,6.49,0,0,0-2.53.69,4.79,4.79,0,0,1-1.72.46,6.49,6.49,0,0,1-1.73-.46,6.44,6.44,0,0,0-2.53-.69,6.49,6.49,0,0,0-2.53.69,4.79,4.79,0,0,1-1.72.46,6.49,6.49,0,0,1-1.73-.46,6.44,6.44,0,0,0-2.53-.69,6.49,6.49,0,0,0-2.53.69,4.79,4.79,0,0,1-1.72.46,6.49,6.49,0,0,1-1.73-.46,6.44,6.44,0,0,0-2.53-.69,6.49,6.49,0,0,0-2.53.69,4.79,4.79,0,0,1-1.72.46,6.49,6.49,0,0,1-1.73-.46,6.44,6.44,0,0,0-2.53-.69,6.49,6.49,0,0,0-2.53.69,4.79,4.79,0,0,1-1.72.46,6.49,6.49,0,0,1-1.73-.46,6.44,6.44,0,0,0-2.53-.69Z"/></g></g></svg>