<svg xmlns="http://www.w3.org/2000/svg" viewBox="0 0 72 72"><defs><style>.cls-1{fill:#333;}.cls-2{fill:#fff;}</style></defs><g id="Layer_2" data-name="Layer 2"><g id="Layer_5" data-name="Layer 5"><circle class="cls-1" cx="36" cy="36" r="36"/><path class="cls-2" d="M59.39,48a1.76,1.76,0,0,0-1.75-1.75H25.32L22,19.29a1.74,1.74,0,0,0-1.76-1.59H11.31a1.75,1.75,0,1,0,0,3.5h7.32L22,48.11a1.73,1.73,0,0,0,1.75,1.59H57.64A1.76,1.76,0,0,0,59.39,48Z"/><circle class="cls-2" cx="29.14" cy="56.87" r="4.56"/><circle class="cls-2" cx="50.48" cy="56.87" r="4.56"/><path class="cls-2" d="M29.14,41.11a1.87,1.87,0,0,0,1.75,1.43H57.64a1.76,1.76,0,0,0,1.75-1.75V19.45a1.76,1.76,0,0,0-1.75-1.75H27.39a1.54,1.54,0,0,0-1.43.64,1.52,1.52,0,0,0-.32,1.43Z"/></g></g></svg>