<svg xmlns="http://www.w3.org/2000/svg" viewBox="0 0 72 72"><defs><style>.cls-1{fill:#333;}.cls-2{fill:#fff;}</style></defs><g id="Layer_2" data-name="Layer 2"><g id="Layer_5" data-name="Layer 5"><circle class="cls-1" cx="36" cy="36" r="36"/><rect class="cls-2" x="10.56" y="26.05" width="51.06" height="2.77"/><path class="cls-2" d="M57.29,17.57v.17H14.54A4.56,4.56,0,0,0,11.59,19a4.18,4.18,0,0,0-1.21,2.94V23.1H61.44V21.72a4.46,4.46,0,0,0-1.21-2.94A4.14,4.14,0,0,0,57.29,17.57Z"/><path class="cls-2" d="M21.81,38.86H19a1.39,1.39,0,1,0,0,2.77h2.77a1.39,1.39,0,0,0,0-2.77Z"/><path class="cls-2" d="M10.73,50.28a4.51,4.51,0,0,0,1.21,2.94,4.14,4.14,0,0,0,2.94,1.21H57.46a4.05,4.05,0,0,0,2.95-1.21,4.18,4.18,0,0,0,1.21-2.94V31.76H10.73ZM53,37.64h4.33a1.39,1.39,0,1,1,0,2.77H53A1.48,1.48,0,0,1,51.58,39,1.37,1.37,0,0,1,53,37.64Zm-4.15,7.1h8.48a1.39,1.39,0,1,1,0,2.77H48.81a1.39,1.39,0,1,1,0-2.77ZM15.23,38.16a4.22,4.22,0,0,1,3.63-2.07h2.77a4.07,4.07,0,0,1,3.64,2.07c.05.11.07.23.12.34a3.79,3.79,0,0,1,.23.62c0,.05,0,.1,0,.15a3.85,3.85,0,0,1,.13,1s0,0,0,0,0,.28,0,.42,0,.26,0,.39a5.08,5.08,0,0,1-.43,1.39,4.23,4.23,0,0,1-3.64,2.08H18.86a4.45,4.45,0,0,1-3.63-2.08A4.79,4.79,0,0,1,15.23,38.16Z"/></g></g></svg>