<svg xmlns="http://www.w3.org/2000/svg" viewBox="0 0 72 72"><defs><style>.cls-1{fill:#333;}.cls-2{fill:#fff;}</style></defs><g id="Layer_2" data-name="Layer 2"><g id="Layer_5" data-name="Layer 5"><circle class="cls-1" cx="36" cy="36" r="36"/><path class="cls-2" d="M36.46,21.68c13,0,20.25-2.43,20.25-4.11s-7.21-4.12-20.25-4.12S16.2,15.88,16.2,17.57,23.41,21.68,36.46,21.68Z"/><path class="cls-2" d="M56.63,43.7V34.55C51.79,36.58,43,37.31,36,37.31c-8.39,0-15.82-1-20.67-2.84v9.11c2,1.34,9,3.27,20.67,3.27h0C47.86,46.85,55.47,44.87,56.63,43.7Z"/><path class="cls-2" d="M56.63,47.33C51.79,49.36,43,50.1,36,50.1c-8.39,0-15.82-1-20.67-2.84v6.61h0l.2.44c.91,2,7.72,4.11,20.87,4.11,12.19,0,18.82-1.76,20.28-3.55h0Z"/><path class="cls-2" d="M56.63,21.89c-4.08,2-13,2.92-20.67,2.92-8.82,0-16.52-1.14-20.67-3v9c2,1.34,9,3.27,20.67,3.27,11.9,0,19.51-2,20.67-3.15Z"/></g></g></svg>