<svg xmlns="http://www.w3.org/2000/svg" viewBox="0 0 72 72"><defs><style>.cls-1{fill:#333;}.cls-2{fill:#fff;}</style></defs><g id="Layer_2" data-name="Layer 2"><g id="Layer_5" data-name="Layer 5"><circle class="cls-1" cx="36" cy="36" r="36"/><path class="cls-2" d="M21,35h29.7V17.88H21Zm17.9-14.5a1.22,1.22,0,0,1,0,1.6l-10.3,10.3a1.13,1.13,0,1,1-1.6-1.6l10.3-10.3a1,1,0,0,1,1.6,0Zm-15.3,1.1,1.1-1.1h0a1.13,1.13,0,0,1,1.6,1.6l-1.1,1.1a1.13,1.13,0,0,1-1.6-1.6Zm0,5.7,6.8-6.8h0a1.13,1.13,0,0,1,1.6,1.6l-6.8,6.8a1.13,1.13,0,0,1-1.6-1.6Z"/><polygon class="cls-2" points="42.03 47.48 29.63 47.48 29.63 47.48 29.63 47.48 27.63 50.88 44.13 50.88 44.13 50.88 44.13 50.88 42.03 47.48"/><path class="cls-2" d="M27.73,46.28a2.31,2.31,0,0,1,2-1.1h12.4a2.43,2.43,0,0,1,2,1.1l2.8,4.6h14.4l-5.5-9.1H16.23l-5.5,9.1h14.4Z"/><path class="cls-2" d="M35.83,53.18H9.63v1.1a1,1,0,0,0,1.1,1.1h50.1a1,1,0,0,0,1.1-1.1v-1.1Z"/><path class="cls-2" d="M55.23,39.08V14.48a1,1,0,0,0-1.1-1.1H17.63a1.11,1.11,0,0,0-1.1,1.1v25.1h37.4a6.94,6.94,0,0,1,1.3-.5ZM52.93,35a2,2,0,0,1-.7,1.6,2.36,2.36,0,0,1-1.6.7H20.93a2,2,0,0,1-1.6-.7,2.57,2.57,0,0,1-.7-1.6V17.88a2,2,0,0,1,.7-1.6,2.36,2.36,0,0,1,1.6-.7h29.7a2,2,0,0,1,1.6.7,2.36,2.36,0,0,1,.7,1.6Z"/></g></g></svg>