<svg xmlns="http://www.w3.org/2000/svg" viewBox="0 0 72 72"><defs><style>.cls-1{fill:#333;}.cls-2{fill:#fff;}</style></defs><g id="Layer_2" data-name="Layer 2"><g id="Layer_5" data-name="Layer 5"><circle class="cls-1" cx="36" cy="36" r="36"/><path class="cls-2" d="M33.47,52.28a6.65,6.65,0,0,1-1.5,4.1h9.7a6.88,6.88,0,0,1-1.5-4.1Z"/><path class="cls-2" d="M26.07,59.78v.8h21.4v-.8a1.85,1.85,0,0,0-.5-1.2,1.66,1.66,0,0,0-1.2-.5H27.67a1.85,1.85,0,0,0-1.2.5,1.59,1.59,0,0,0-.4,1.2Z"/><path class="cls-2" d="M58.17,14.38H15.37a1.85,1.85,0,0,0-1.2.5,1.66,1.66,0,0,0-.5,1.2v29.7h46.1V16.08a1.85,1.85,0,0,0-.5-1.2,1.43,1.43,0,0,0-1.1-.5Zm0,28.1a1.85,1.85,0,0,1-.5,1.2,1.66,1.66,0,0,1-1.2.5H17a1.85,1.85,0,0,1-1.2-.5,1.66,1.66,0,0,1-.5-1.2V17.78a1.85,1.85,0,0,1,.5-1.2,1.66,1.66,0,0,1,1.2-.5h39.5a1.85,1.85,0,0,1,1.2.5,1.66,1.66,0,0,1,.5,1.2Z"/><path class="cls-2" d="M13.67,49a1.85,1.85,0,0,0,.5,1.2,1.66,1.66,0,0,0,1.2.5h42.8a1.85,1.85,0,0,0,1.2-.5,1.66,1.66,0,0,0,.5-1.2v-1.6H13.77Z"/><path class="cls-2" d="M17,42.48h39.5V17.78H17Zm1.9-20.4,2.5-2.5a.85.85,0,0,1,1.2,1.2l-2.5,2.5a.85.85,0,1,1-1.2-1.2Zm0,8.2,10.7-10.7a.85.85,0,1,1,1.2,1.2l-10.7,10.7a.85.85,0,1,1-1.2-1.2Zm0,8.3,19-19h0a.85.85,0,0,1,1.2,1.2l-19,19a.85.85,0,1,1-1.2-1.2Z"/></g></g></svg>