<svg xmlns="http://www.w3.org/2000/svg" viewBox="0 0 72 72"><defs><style>.cls-1{fill:#333;}.cls-2{fill:#fff;}</style></defs><g id="Layer_2" data-name="Layer 2"><g id="Layer_5" data-name="Layer 5"><circle class="cls-1" cx="36" cy="36" r="36"/><path class="cls-2" d="M25.66,59.28h22.5a2.1,2.1,0,0,0,1.1-.4,1.37,1.37,0,0,0,.4-1.1v-43a2.1,2.1,0,0,0-.4-1.1,1.5,1.5,0,0,0-1.1-.4H25.66a2.1,2.1,0,0,0-1.1.4,1.5,1.5,0,0,0-.4,1.1v43a2.1,2.1,0,0,0,.4,1.1,2.1,2.1,0,0,0,1.1.4Zm9.7-44.6h2.3a.8.8,0,0,1,0,1.6h-2.3a.79.79,0,0,1-.8-.8C34.66,15.08,35,14.68,35.36,14.68ZM25.66,17a2.1,2.1,0,0,1,.4-1.1,1.5,1.5,0,0,1,1.1-.4h2.2a2.1,2.1,0,0,1,1.1.4,1.37,1.37,0,0,1,.4,1.1v.8H43V17a2.1,2.1,0,0,1,.4-1.1,1.5,1.5,0,0,1,1.1-.4h2.2a2.1,2.1,0,0,1,1.1.4,1.5,1.5,0,0,1,.4,1.1v39.2a2.1,2.1,0,0,1-.4,1.1,1.37,1.37,0,0,1-1.1.4H27.16a2.1,2.1,0,0,1-1.1-.4,1.5,1.5,0,0,1-.4-1.1V17Z"/><path class="cls-2" d="M46.66,17h-2.2v.8a2.1,2.1,0,0,1-.4,1.1,1.5,1.5,0,0,1-1.1.4H30.86a2.1,2.1,0,0,1-1.1-.4,1.5,1.5,0,0,1-.4-1.1V17h-2.2v39.2h19.5V17Zm-17,6.3L32,21a.78.78,0,1,1,1.1,1.1l-2.3,2.3a.78.78,0,0,1-1.1,0,.78.78,0,0,1,0-1.1Zm0,4.5,6.8-6.8a.78.78,0,1,1,1.1,1.1l-6.8,6.8a.78.78,0,0,1-1.1-1.1Zm.5,5.8a.75.75,0,0,1-.7-.5.63.63,0,0,1,.2-.8L41,21a.78.78,0,1,1,1.1,1.1l-11.3,11.3a1.42,1.42,0,0,1-.6.2Z"/></g></g></svg>