<svg xmlns="http://www.w3.org/2000/svg" viewBox="0 0 72 72"><defs><style>.cls-1{fill:#333;}.cls-2{fill:#fff;}</style></defs><g id="Layer_2" data-name="Layer 2"><g id="Layer_5" data-name="Layer 5"><circle class="cls-1" cx="36" cy="36" r="36"/><path class="cls-2" d="M20.76,63.18h32.4a1.61,1.61,0,0,0,1.3-.6,1.76,1.76,0,0,0,.6-1.3V11.68a1.61,1.61,0,0,0-.6-1.3,2.23,2.23,0,0,0-1.3-.6H20.76a1.61,1.61,0,0,0-1.3.6,1.76,1.76,0,0,0-.6,1.3v49.6a1.61,1.61,0,0,0,.6,1.3,1.61,1.61,0,0,0,1.3.6ZM38,11.68h2.9a1,1,0,0,1,0,2H38a1,1,0,0,1-1-1A1.08,1.08,0,0,1,38,11.68Zm-4.8,0h1a1,1,0,0,1,0,2h-1a1,1,0,0,1-1-1A1.17,1.17,0,0,1,33.16,11.68Zm-12.4,2.9a1.61,1.61,0,0,1,.6-1.3,1.76,1.76,0,0,1,1.3-.6h4.8a1.61,1.61,0,0,1,1.3.6,1.76,1.76,0,0,1,.6,1.3v1h15.3v-1a1.61,1.61,0,0,1,.6-1.3,1.76,1.76,0,0,1,1.3-.6h4.8a1.61,1.61,0,0,1,1.3.6,1.76,1.76,0,0,1,.6,1.3v44.8a1.61,1.61,0,0,1-.6,1.3,1.76,1.76,0,0,1-1.3.6H22.66a1.61,1.61,0,0,1-1.3-.6,1.76,1.76,0,0,1-.6-1.3Z"/><path class="cls-2" d="M51.36,14.58h-4.8v1a1.61,1.61,0,0,1-.6,1.3,1.76,1.76,0,0,1-1.3.6H29.36a1.61,1.61,0,0,1-1.3-.6,1.76,1.76,0,0,1-.6-1.3v-1h-4.8v44.8h28.6Zm-26.5,7.9,2.9-2.9a.92.92,0,1,1,1.3,1.3l-2.9,2.9a.85.85,0,0,1-1.3,0,1,1,0,0,1,0-1.3Zm0,5.7,8.6-8.6a.92.92,0,1,1,1.3,1.3l-8.6,8.6a.85.85,0,0,1-1.3,0,1,1,0,0,1,0-1.3Zm.7,7.4a1,1,0,0,1-.9-.6c-.1-.4-.1-.8.2-1l14.3-14.3a.92.92,0,1,1,1.3,1.3l-14.3,14.3a.6.6,0,0,1-.6.3Zm17.2,21.9H31.36a1,1,0,0,1-1-1,.94.94,0,0,1,1-1h11.4a1,1,0,0,1,0,2Z"/></g></g></svg>