<svg xmlns="http://www.w3.org/2000/svg" viewBox="0 0 72 72"><defs><style>.cls-1{fill:#333;}.cls-2{fill:none;stroke:#fff;stroke-miterlimit:10;}.cls-3{fill:#fff;}</style></defs><g id="Layer_2" data-name="Layer 2"><g id="Layer_5" data-name="Layer 5"><circle class="cls-1" cx="36" cy="36" r="36"/><path class="cls-2" d="M55.8,51.9H15.7a9.94,9.94,0,0,1-3.6-19.1A12,12,0,0,1,24,21.2a11.31,11.31,0,0,1,7,2.3,14.28,14.28,0,0,1,13.6-8.9c7.9,0,14.7,6,14.7,13.9v2.9c4.3,1.3,6.7,5.9,6.7,10.4A10.16,10.16,0,0,1,55.8,51.9Z"/><path class="cls-3" d="M21.26,41.67a.82.82,0,1,1-1.64,0,.75.75,0,0,1,.82-.82.81.81,0,0,1,.82.82"/><path class="cls-3" d="M54.85,37.77H17.36a.81.81,0,0,0-.82.82v6.27h0a.79.79,0,0,0,.2.51.75.75,0,0,0,.51.21h37.5a.75.75,0,0,0,.51-.21.79.79,0,0,0,.2-.51V38.59a.79.79,0,0,0-.2-.51c-.1-.1-.21-.31-.41-.31ZM20.44,43.93a2,2,0,0,1-1.64-.71,2.41,2.41,0,0,1-.72-1.65,2,2,0,0,1,.72-1.64,2.41,2.41,0,0,1,1.64-.72,2,2,0,0,1,1.64.72,2.43,2.43,0,0,1,.72,1.64,2,2,0,0,1-.72,1.65A2,2,0,0,1,20.44,43.93Zm6.26,0a2,2,0,0,1-1.64-.71,2.46,2.46,0,0,1-.72-1.65,2.06,2.06,0,0,1,.72-1.64,2.43,2.43,0,0,1,1.64-.72,2,2,0,0,1,1.65.72,2.43,2.43,0,0,1,.72,1.64,2.08,2.08,0,0,1-.72,1.65A2.05,2.05,0,0,1,26.7,43.93Zm25.79-1.54H44.68a.8.8,0,0,1-.82-.82.76.76,0,0,1,.82-.82h7.81a.82.82,0,0,1,0,1.64Z"/><path class="cls-3" d="M19.62,46.09H52.49v1.54H19.62Z"/><path class="cls-3" d="M27.42,41.67a.82.82,0,1,1-1.64,0,.82.82,0,0,1,1.64,0"/><path class="cls-3" d="M21.26,31.3a.82.82,0,1,1-.82-.82.81.81,0,0,1,.82.82"/><path class="cls-3" d="M54.85,27.4H17.36a.81.81,0,0,0-.82.82v6.26h0a.69.69,0,0,0,.71.72h37.5a.69.69,0,0,0,.71-.72V28.22a.77.77,0,0,0-.2-.51c-.1-.11-.21-.31-.41-.31ZM20.44,33.56a2,2,0,0,1-1.64-.72,2.39,2.39,0,0,1-.72-1.64,2,2,0,0,1,.72-1.65,2.4,2.4,0,0,1,1.64-.71,2,2,0,0,1,1.64.71,2.44,2.44,0,0,1,.72,1.65,2,2,0,0,1-.72,1.64A2.06,2.06,0,0,1,20.44,33.56Zm6.26,0a2.06,2.06,0,0,1-1.64-.72,2.43,2.43,0,0,1-.72-1.64,2.06,2.06,0,0,1,.72-1.65,2.42,2.42,0,0,1,1.64-.71,2.05,2.05,0,0,1,1.65.71,2.44,2.44,0,0,1,.72,1.65,2.46,2.46,0,0,1-2.37,2.36ZM52.49,32H44.68a.81.81,0,0,1-.82-.82.75.75,0,0,1,.82-.82h7.81a.82.82,0,0,1,0,1.64Z"/><path class="cls-3" d="M19.62,35.72H52.49v1.54H19.62Z"/><path class="cls-3" d="M27.42,31.3a.82.82,0,1,1-.82-.82.75.75,0,0,1,.82.82"/></g></g></svg>