<svg xmlns="http://www.w3.org/2000/svg" viewBox="0 0 72 72"><defs><style>.cls-1{fill:#333;}.cls-2{fill:#fff;}</style></defs><g id="Layer_2" data-name="Layer 2"><g id="Layer_5" data-name="Layer 5"><circle class="cls-1" cx="36" cy="36" r="36"/><path class="cls-2" d="M22.62,56.18a.8.8,0,1,1-.8-.8c.4.1.8.4.8.8"/><path class="cls-2" d="M28.62,56.18a.8.8,0,1,1-.8-.8c.5.1.8.4.8.8"/><path class="cls-2" d="M55.32,52.38H18.82a.79.79,0,0,0-.8.8v6.1a.68.68,0,0,0,.7.7h36.5a.68.68,0,0,0,.7-.7v-6.1a.76.76,0,0,0-.2-.5c0-.2-.2-.3-.4-.3Zm-33.5,6.1a2,2,0,0,1-1.6-.7,2.36,2.36,0,0,1-.7-1.6,2,2,0,0,1,.7-1.6,2.36,2.36,0,0,1,1.6-.7,2,2,0,0,1,1.6.7,2.36,2.36,0,0,1,.7,1.6,2,2,0,0,1-.7,1.6A2,2,0,0,1,21.82,58.48Zm6.1,0a2,2,0,0,1-1.6-.7,2.36,2.36,0,0,1-.7-1.6,2,2,0,0,1,.7-1.6,2.36,2.36,0,0,1,1.6-.7,2,2,0,0,1,1.6.7,2.36,2.36,0,0,1,.7,1.6,2.4,2.4,0,0,1-2.3,2.3ZM53,57h-7.6a.8.8,0,1,1,0-1.6H53A.8.8,0,0,1,53,57Z"/><path class="cls-2" d="M21,61.38a.68.68,0,0,0,.7.7h30.4a.68.68,0,0,0,.7-.7v-.8h-32Z"/><path class="cls-2" d="M22.62,45.78a.8.8,0,1,1-1.6,0,.74.74,0,0,1,.8-.8.79.79,0,0,1,.8.8"/><path class="cls-2" d="M55.32,42H18.82a.79.79,0,0,0-.8.8v6.1h0a.68.68,0,0,0,.7.7h36.5a.68.68,0,0,0,.7-.7v-6.1a.76.76,0,0,0-.2-.5c-.1-.1-.2-.3-.4-.3Zm-33.5,6a2,2,0,0,1-1.6-.7,2.36,2.36,0,0,1-.7-1.6,2,2,0,0,1,.7-1.6,2.36,2.36,0,0,1,1.6-.7,2,2,0,0,1,1.6.7,2.36,2.36,0,0,1,.7,1.6,2,2,0,0,1-.7,1.6A2,2,0,0,1,21.82,48Zm6.1,0a2,2,0,0,1-1.6-.7,2.36,2.36,0,0,1-.7-1.6,2,2,0,0,1,.7-1.6,2.36,2.36,0,0,1,1.6-.7,2,2,0,0,1,1.6.7,2.36,2.36,0,0,1,.7,1.6,2.4,2.4,0,0,1-2.3,2.3ZM53,46.48h-7.6a.79.79,0,0,1-.8-.8.74.74,0,0,1,.8-.8H53a.8.8,0,0,1,0,1.6Z"/><path class="cls-2" d="M21,50.08H53v1.5H21Z"/><path class="cls-2" d="M28.62,45.78a.8.8,0,1,1-1.6,0,.8.8,0,1,1,1.6,0"/><path class="cls-2" d="M22.62,35.68a.8.8,0,1,1-.8-.8.79.79,0,0,1,.8.8"/><path class="cls-2" d="M55.32,31.88H18.82a.79.79,0,0,0-.8.8v6.1h0a.68.68,0,0,0,.7.7h36.5a.68.68,0,0,0,.7-.7v-6.1a.76.76,0,0,0-.2-.5c-.1-.1-.2-.3-.4-.3Zm-33.5,6a2,2,0,0,1-1.6-.7,2.36,2.36,0,0,1-.7-1.6,2,2,0,0,1,.7-1.6,2.36,2.36,0,0,1,1.6-.7,2,2,0,0,1,1.6.7,2.36,2.36,0,0,1,.7,1.6,2,2,0,0,1-.7,1.6A2,2,0,0,1,21.82,37.88Zm6.1,0a2,2,0,0,1-1.6-.7,2.36,2.36,0,0,1-.7-1.6,2,2,0,0,1,.7-1.6,2.36,2.36,0,0,1,1.6-.7,2,2,0,0,1,1.6.7,2.36,2.36,0,0,1,.7,1.6,2.4,2.4,0,0,1-2.3,2.3ZM53,36.38h-7.6a.79.79,0,0,1-.8-.8.74.74,0,0,1,.8-.8H53a.8.8,0,0,1,0,1.6Z"/><path class="cls-2" d="M21,40H53v1.5H21Z"/><path class="cls-2" d="M28.62,35.68a.8.8,0,1,1-.8-.8.74.74,0,0,1,.8.8"/><path class="cls-2" d="M22.62,25.58a.8.8,0,1,1-.8-.8.79.79,0,0,1,.8.8"/><path class="cls-2" d="M28.62,25.58a.8.8,0,1,1-.8-.8.74.74,0,0,1,.8.8"/><path class="cls-2" d="M55.32,21.78H18.82a.79.79,0,0,0-.8.8v6.1a.68.68,0,0,0,.7.7h36.5a.68.68,0,0,0,.7-.7v-6.1a.76.76,0,0,0-.2-.5c0-.3-.2-.3-.4-.3Zm-33.5,6a2,2,0,0,1-1.6-.7,2.36,2.36,0,0,1-.7-1.6,2,2,0,0,1,.7-1.6,2.36,2.36,0,0,1,1.6-.7,2,2,0,0,1,1.6.7,2.36,2.36,0,0,1,.7,1.6,2,2,0,0,1-.7,1.6A2,2,0,0,1,21.82,27.78Zm6.1,0a2,2,0,0,1-1.6-.7,2.36,2.36,0,0,1-.7-1.6,2,2,0,0,1,.7-1.6,2.36,2.36,0,0,1,1.6-.7,2,2,0,0,1,1.6.7,2.36,2.36,0,0,1,.7,1.6,2.4,2.4,0,0,1-2.3,2.3ZM53,26.28h-7.6a.8.8,0,0,1,0-1.6H53a.8.8,0,0,1,0,1.6Z"/><path class="cls-2" d="M21,30.68a.68.68,0,0,0,.7.7h30.4a.68.68,0,0,0,.7-.7v-.8h-32Z"/><path class="cls-2" d="M22.62,15.08a.8.8,0,1,1-1.6,0,.74.74,0,0,1,.8-.8.86.86,0,0,1,.8.8"/><path class="cls-2" d="M55.32,11.28H18.82a.79.79,0,0,0-.8.8v6.1h0a.68.68,0,0,0,.7.7h36.5a.68.68,0,0,0,.7-.7v-6.1a.76.76,0,0,0-.2-.5c0-.2-.2-.3-.4-.3Zm-33.5,6.1a2,2,0,0,1-1.6-.7,2.36,2.36,0,0,1-.7-1.6,2,2,0,0,1,.7-1.6,2.36,2.36,0,0,1,1.6-.7,2,2,0,0,1,1.6.7,2.36,2.36,0,0,1,.7,1.6,2,2,0,0,1-.7,1.6A2.36,2.36,0,0,1,21.82,17.38Zm6.1,0a2,2,0,0,1-1.6-.7,2.36,2.36,0,0,1-.7-1.6,2,2,0,0,1,.7-1.6,2.36,2.36,0,0,1,1.6-.7,2,2,0,0,1,1.6.7,2.36,2.36,0,0,1,.7,1.6,2,2,0,0,1-.7,1.6A2.36,2.36,0,0,1,27.92,17.38ZM53,15.78h-7.6a.79.79,0,0,1-.8-.8.74.74,0,0,1,.8-.8H53a.8.8,0,0,1,0,1.6Z"/><path class="cls-2" d="M21,19.38H53v1.5H21Z"/><path class="cls-2" d="M28.62,15.08a.8.8,0,1,1-1.6,0,.74.74,0,0,1,.8-.8.79.79,0,0,1,.8.8"/></g></g></svg>