<svg xmlns="http://www.w3.org/2000/svg" viewBox="0 0 72 72"><defs><style>.cls-1{fill:#333;}.cls-2{fill:#fff;}</style></defs><g id="Layer_2" data-name="Layer 2"><g id="Layer_5" data-name="Layer 5"><circle class="cls-1" cx="36" cy="36" r="36"/><path class="cls-2" d="M67,32.35a4.29,4.29,0,0,0-3.11-1.43,4.47,4.47,0,0,0-3.11,1.43A5,5,0,0,0,59.66,34H55.83l-6-4.43a1.93,1.93,0,0,0-1.07-.36c-.36,0-.84.12-1,.36l-6,4.43H36V31.4a1.59,1.59,0,0,0-1.56-1.56H25.33a1.59,1.59,0,0,0-1.55,1.56V34H17.32a4.07,4.07,0,0,0-1.08-1.68,4.05,4.05,0,0,0-3.11-1.43H7a4.51,4.51,0,0,0-3.11,1.43,4.08,4.08,0,0,0-1.43,3.11,4.49,4.49,0,0,0,1.43,3.11A4.06,4.06,0,0,0,7,40h6.1a4.44,4.44,0,0,0,3.11-1.44,5,5,0,0,0,1.08-1.67h6.46v2.63a1.58,1.58,0,0,0,1.55,1.55h3V51A1.62,1.62,0,0,0,30,52.57H48.66A1.61,1.61,0,0,0,50.33,51V41l5.5-4.06h3.83a4.1,4.1,0,0,0,1.08,1.67A4.22,4.22,0,0,0,63.85,40,4.48,4.48,0,0,0,67,38.57a4.07,4.07,0,0,0,1.43-3.11A5.08,5.08,0,0,0,67,32.35ZM46.86,49.58H31.55V41.2H34.3a1.58,1.58,0,0,0,1.56-1.55V37h5.86l5.14,3.82Z"/></g></g></svg>