<svg xmlns="http://www.w3.org/2000/svg" viewBox="0 0 72 72"><defs><style>.cls-1{fill:#333;}.cls-2{fill:#fff;}</style></defs><g id="Layer_2" data-name="Layer 2"><g id="Layer_5" data-name="Layer 5"><circle class="cls-1" cx="36" cy="36" r="36"/><path class="cls-2" d="M61.39,28.58H58.91a.62.62,0,0,1-.62-.62V22.4a2.47,2.47,0,0,0-2.47-2.48H30.07a.62.62,0,0,1-.39-.14l-2.85-2.37a2.45,2.45,0,0,0-1.58-.58h-9a2.48,2.48,0,0,0-2.48,2.47V52.7a2.48,2.48,0,0,0,2.48,2.47H56.33a2.47,2.47,0,0,0,2.41-1.91l5-21.67a2.57,2.57,0,0,0,.06-.55A2.46,2.46,0,0,0,61.39,28.58Zm-45,17.32a.18.18,0,0,1-.18-.19V19.92a.61.61,0,0,1,.62-.61H25a.63.63,0,0,1,.4.14l2.85,2.37a2.46,2.46,0,0,0,1.58.58H55.2a.61.61,0,0,1,.62.61V28h0a.62.62,0,0,1-.62.62H22.54a2.47,2.47,0,0,0-2.41,1.92L16.61,45.76A.18.18,0,0,1,16.43,45.9ZM61.19,31.81,56.44,52.22a.61.61,0,0,1-.6.48H18.26l-.14,0a.62.62,0,0,1-.46-.74L22.26,32a1.24,1.24,0,0,1,1.2-1H60.58l.14,0A.62.62,0,0,1,61.19,31.81Z"/></g></g></svg>