<svg xmlns="http://www.w3.org/2000/svg" viewBox="0 0 72 72"><defs><style>.cls-1{fill:#333;}.cls-2{fill:#fff;}</style></defs><g id="Layer_2" data-name="Layer 2"><g id="Layer_5" data-name="Layer 5"><circle class="cls-1" cx="36" cy="36" r="36"/><path class="cls-2" d="M40.64,32.67a10.06,10.06,0,0,0-1.23-1.48l.89-2.49a15.4,15.4,0,0,0-1.16-1L36.74,29a16.4,16.4,0,0,0-1.69-1l0-2.65a12.61,12.61,0,0,0-1.5-.56l-1.76,1.93a10.61,10.61,0,0,0-1.91-.33l-1-2.46a11.47,11.47,0,0,0-1.55,0l-1,2.48a3,3,0,0,0-1,.07c-.34.06-.63.13-.92.19l-1.75-2c-.52.18-1,.36-1.49.53l-.09,2.66a14.2,14.2,0,0,0-1.66.94l-2.31-1.3a9.57,9.57,0,0,0-1.2,1L16.77,31a17.48,17.48,0,0,0-1.25,1.46L12.87,32c-.28.46-.57.93-.79,1.33l1.63,2.06A9.84,9.84,0,0,0,13,37.19l-2.7.61L10,39.36l2.27,1.41a10.05,10.05,0,0,0,0,1.9L10,44.08c.06.29.06.52.13.8s.06.52.12.81l2.6.54A14.9,14.9,0,0,0,13.51,48l-1.7,2.1a6.63,6.63,0,0,0,.82,1.37l2.64-.38a10.14,10.14,0,0,0,1.23,1.49l-.89,2.48c.4.34.75.74,1.16,1l2.35-1.24a15.26,15.26,0,0,0,1.68,1l0,2.65a12.61,12.61,0,0,0,1.5.56l1.77-2a10.48,10.48,0,0,0,1.9.32L27,59.84c.52,0,1,0,1.61,0l1-2.49c.35-.06.63-.06,1-.13l.92-.18,1.75,2,1.49-.54.09-2.65A14.7,14.7,0,0,0,36.45,55l2.32,1.3a9.57,9.57,0,0,0,1.2-1l-.83-2.53a15.87,15.87,0,0,0,1.25-1.45l2.65.43c.28-.47.57-.93.79-1.34l-1.63-2a10.12,10.12,0,0,0,.67-1.79L45.51,46l.33-1.56L43.58,43a10,10,0,0,0,0-1.9L45.9,39.7c-.06-.29-.06-.52-.13-.81s-.06-.52-.12-.8l-2.6-.55a16.29,16.29,0,0,0-.65-1.78l1.7-2.09a6.14,6.14,0,0,0-.82-1.37Zm-11.19,18a9,9,0,1,1,7.31-10.3A9,9,0,0,1,29.45,50.71Z"/><path class="cls-2" d="M59.85,24.28h0L62,23.54l0-.29a8.86,8.86,0,0,0-.31-1.76l-2.2-.13a13.42,13.42,0,0,0-.85-2.07l1.5-1.67A12.75,12.75,0,0,0,58.83,16l-2,1.07a10.73,10.73,0,0,0-1.77-1.37l.41-2.22a11,11,0,0,0-1.91-.79l-1.24,1.94a9.58,9.58,0,0,0-2.22-.3l-.74-2.19-.28,0a9.91,9.91,0,0,0-1.77.3l-.12,2.26a13.14,13.14,0,0,0-2.08.85l-1.67-1.49a12.59,12.59,0,0,0-1.63,1.27l1,2a10.21,10.21,0,0,0-1.37,1.77l-2.22-.41a11.21,11.21,0,0,0-.79,1.9l1.94,1.25a9.5,9.5,0,0,0-.3,2.21l-2.19.74,0,.29a8.39,8.39,0,0,0,.3,1.77l2.26.12a13,13,0,0,0,.85,2.07l-1.5,1.67a13,13,0,0,0,1.28,1.64l2-1a10.4,10.4,0,0,0,1.78,1.37l-.41,2.22a10.88,10.88,0,0,0,1.9.79l1.25-1.94a9,9,0,0,0,2.21.29l.74,2.2.29,0a9.91,9.91,0,0,0,1.77-.3l.12-2.26a13,13,0,0,0,2.07-.85l1.67,1.49a12.71,12.71,0,0,0,1.64-1.27l-1-2a11.3,11.3,0,0,0,1.37-1.77l2.22.41a11.82,11.82,0,0,0,.79-1.91l-1.94-1.24A16.21,16.21,0,0,0,59.85,24.28Zm-9.52,4.83a5,5,0,1,1,4.6-5.33A5,5,0,0,1,50.33,29.11Z"/></g></g></svg>