<svg xmlns="http://www.w3.org/2000/svg" viewBox="0 0 72 72"><defs><style>.cls-1{fill:#333;}.cls-2{fill:#fff;}</style></defs><g id="Layer_2" data-name="Layer 2"><g id="Layer_5" data-name="Layer 5"><circle class="cls-1" cx="36" cy="36" r="36"/><path class="cls-2" d="M57.58,34.24v-.52l-.39-.26a13.91,13.91,0,0,0-3.9-1.69c-.13-.39-.13-.65-.26-1a13.08,13.08,0,0,0,2.6-3.38l.26-.39-.26-.39a14.07,14.07,0,0,0-1.69-3l-.26-.38h-1a14.83,14.83,0,0,0-3.77.51l-.78-.78a13.32,13.32,0,0,0,.52-4.16v-.52L48.22,18a22.23,22.23,0,0,0-3-1.69L44.84,16l-.39.26a17.26,17.26,0,0,0-3.38,2.6c-.39-.13-.65-.13-1-.26a11,11,0,0,0-1.56-3.9l-.26-.38H36c-.52,0-1.17.13-1.82.13h-.52l-.26.38a20.29,20.29,0,0,0-1.56,3.9c-.26.13-.65.13-.91.27a17,17,0,0,0-3.38-2.61l-.39-.26-.39.26a23.37,23.37,0,0,0-3,1.69l-.39.26v.52a13.26,13.26,0,0,0,.52,4.16l-.78.79a15.18,15.18,0,0,0-3.77-.52h-1l-.26.38a22.86,22.86,0,0,0-1.69,3l-.26.39.26.39A13.08,13.08,0,0,0,19,30.86c-.13.39-.13.65-.26,1a11,11,0,0,0-3.9,1.56l-.39.27v.51a15.84,15.84,0,0,0,0,3.51v.52l.39.27a20,20,0,0,0,3.9,1.56c.13.39.13.65.26,1a13.25,13.25,0,0,0-2.6,3.38l-.26.39.26.39a13.6,13.6,0,0,0,1.69,3l.26.39h1a14.45,14.45,0,0,0,3.77-.52l.78.78a13.32,13.32,0,0,0-.52,4.16v.52l.39.26a22.23,22.23,0,0,0,3,1.69l.39.26.39-.26A16.87,16.87,0,0,0,30.93,53c.39.13.65.13,1,.27a11.06,11.06,0,0,0,1.56,3.89l.26.39h.52a8.58,8.58,0,0,0,1.82.13,5.36,5.36,0,0,0,1.56-.13h.52l.26-.39A20.15,20.15,0,0,0,40,53.23c.39-.14.65-.14,1-.27a13.08,13.08,0,0,0,3.38,2.6l.39.26.39-.26a13.6,13.6,0,0,0,3-1.69l.39-.26v-.52a13.32,13.32,0,0,0-.52-4.16l.78-.78a14.45,14.45,0,0,0,3.77.52h.91l.26-.39a19.39,19.39,0,0,0,1.82-3.12l.26-.39-.26-.39A13.88,13.88,0,0,0,53,41c.13-.26.13-.64.26-.91a11,11,0,0,0,3.9-1.56l.39-.26v-.52A15.84,15.84,0,0,0,57.58,34.24Zm-16.12,4a5.87,5.87,0,0,1-5.33,3.38,5.72,5.72,0,1,1,5.33-3.38Z"/></g></g></svg>