<svg xmlns="http://www.w3.org/2000/svg" viewBox="0 0 72 72"><defs><style>.cls-1{fill:#333;}.cls-2,.cls-3{fill:#fff;}.cls-3{fill-rule:evenodd;}</style></defs><g id="Layer_2" data-name="Layer 2"><g id="Layer_5" data-name="Layer 5"><circle class="cls-1" cx="36" cy="36" r="36"/><path class="cls-2" d="M39.34,16.78a3.5,3.5,0,1,1-3.5-3.5,3.54,3.54,0,0,1,3.5,3.5"/><path class="cls-2" d="M29.34,13.48a.83.83,0,0,0-1.2.2,5.17,5.17,0,0,0-1.1,3.2,5.62,5.62,0,0,0,1.1,3.2.91.91,0,0,0,.7.3.76.76,0,0,0,.5-.2.83.83,0,0,0,.2-1.2,3.14,3.14,0,0,1-.7-2.1,3.14,3.14,0,0,1,.7-2.1,1.42,1.42,0,0,0,.2-.6c-.1-.4-.2-.6-.4-.7Z"/><path class="cls-2" d="M25.44,11a9.39,9.39,0,0,0-1.9,5.8,10.05,10.05,0,0,0,1.9,5.8.91.91,0,0,0,.7.3.76.76,0,0,0,.5-.2.83.83,0,0,0,.2-1.2,8.07,8.07,0,0,1-1.6-4.7,7.84,7.84,0,0,1,1.6-4.7.89.89,0,0,0-1.4-1.1Z"/><path class="cls-2" d="M22.84,8.38a14,14,0,0,0,0,16.8.91.91,0,0,0,.7.3.76.76,0,0,0,.5-.2.83.83,0,0,0,.2-1.2,12.14,12.14,0,0,1-2.4-7.4,13.06,13.06,0,0,1,2.4-7.4.83.83,0,0,0-.2-1.2,1.1,1.1,0,0,0-1.2.3Z"/><path class="cls-2" d="M42.24,20.08c.2.1.3.2.5.2a.91.91,0,0,0,.7-.3,5.17,5.17,0,0,0,1.1-3.2,5.39,5.39,0,0,0-1.1-3.2.92.92,0,0,0-.6-.4,1,1,0,0,0-.7.2.71.71,0,0,0-.3.6,1,1,0,0,0,.2.7,3.14,3.14,0,0,1,.7,2.1,3.14,3.14,0,0,1-.7,2.1,1.42,1.42,0,0,0-.2.6,1.54,1.54,0,0,0,.4.6Z"/><path class="cls-2" d="M44.94,10.88a.83.83,0,0,0-.2,1.2,8.07,8.07,0,0,1,1.6,4.7,7.84,7.84,0,0,1-1.6,4.7.83.83,0,0,0,.2,1.2c.2.1.3.2.5.2a.91.91,0,0,0,.7-.3,9.39,9.39,0,0,0,1.9-5.8,10.05,10.05,0,0,0-1.9-5.8.71.71,0,0,0-.6-.3.73.73,0,0,0-.6.2Z"/><path class="cls-2" d="M47.34,24.18a.83.83,0,0,0,.2,1.2c.2.1.3.2.5.2a.91.91,0,0,0,.7-.3,14,14,0,0,0,0-16.8.82.82,0,0,0-1.2-.1.83.83,0,0,0-.2,1.2,12.14,12.14,0,0,1,2.4,7.4,11.56,11.56,0,0,1-2.4,7.2Z"/><path class="cls-3" d="M30.49,28.66a.39.39,0,1,1-.7.35l-.87-1.4a.42.42,0,0,1,.17-.52.43.43,0,0,1,.53.17Zm6.65,9.09L44,33.82a.39.39,0,1,1,.35.7l-6.9,4c0,.17.08.26.08.44a1.57,1.57,0,1,1-2.71-1.14A1.69,1.69,0,0,1,36,37.4a1,1,0,0,1,1.14.35Zm-2.8,10.32a1.63,1.63,0,0,1,.44-1.14,1.61,1.61,0,0,1,2.27,2.27,1.58,1.58,0,0,1-2.71-1.13Zm-3,4.8v1.67a.38.38,0,0,0,.35.35h2.09v7.27a.38.38,0,0,0,.35.34h3.41a.37.37,0,0,0,.35-.34V54.89H40a.38.38,0,0,0,.35-.35V52.87a14.36,14.36,0,0,0,5.86-3.58,14.71,14.71,0,0,0-20.81-20.8,14.81,14.81,0,0,0-4.28,10.4,14.65,14.65,0,0,0,4.28,10.4,15.39,15.39,0,0,0,5.95,3.58Zm14.42-7.95a.39.39,0,1,1,.35-.7l1.4.88a.39.39,0,1,1-.35.69Zm.35-11.54a.39.39,0,1,1-.35-.7l1.4-.87a.41.41,0,0,1,.52.17.43.43,0,0,1-.17.53ZM42,29a.39.39,0,1,1-.7-.35l.88-1.4a.41.41,0,0,1,.52-.17.42.42,0,0,1,.18.52ZM26.12,32.77a.42.42,0,0,1,.18.53.43.43,0,0,1-.53.17l-1.4-.87a.43.43,0,0,1-.17-.53.42.42,0,0,1,.52-.17Zm-.35,11.54a.43.43,0,0,1,.53.17.42.42,0,0,1-.18.53l-1.4.87a.42.42,0,0,1-.52-.17.43.43,0,0,1,.17-.53Zm10.58-17a.35.35,0,1,1-.7,0V25.6a.35.35,0,1,1,.7,0Zm11.19,12a.38.38,0,0,1-.35-.35.37.37,0,0,1,.35-.35H49.2a.38.38,0,0,1,.35.35.38.38,0,0,1-.35.35Zm-23.17-.79a.38.38,0,0,1,.35.35.37.37,0,0,1-.35.35H22.71a.38.38,0,0,1-.35-.35.38.38,0,0,1,.35-.35Z"/><path class="cls-3" d="M35.3,47.46a.8.8,0,0,0-.26.61.89.89,0,0,0,.87.87.8.8,0,0,0,.61-.26.79.79,0,0,0,.27-.61.93.93,0,0,0-.88-.88A1,1,0,0,0,35.3,47.46Z"/><path class="cls-3" d="M35.3,39.5a.78.78,0,0,0,.61.26.77.77,0,0,0,.61-.26.82.82,0,0,0,0-1.22.77.77,0,0,0-.61-.26.78.78,0,0,0-.61.26.8.8,0,0,0-.26.61A1.78,1.78,0,0,0,35.3,39.5Z"/><rect class="cls-2" x="21.8" y="60.55" width="27.18" height="3.59"/><rect class="cls-2" x="20.88" y="59.93" width="3.59" height="4.82"/><rect class="cls-2" x="47.19" y="59.93" width="3.59" height="4.82"/></g></g></svg>