<svg xmlns="http://www.w3.org/2000/svg" viewBox="0 0 72 72"><defs><style>.cls-1{fill:#333;}.cls-2{fill:#fff;}</style></defs><g id="Layer_2" data-name="Layer 2"><g id="Layer_5" data-name="Layer 5"><circle class="cls-1" cx="36" cy="36" r="36"/><path class="cls-2" d="M39.34,16.78a3.5,3.5,0,1,1-3.5-3.5,3.54,3.54,0,0,1,3.5,3.5"/><path class="cls-2" d="M29.34,13.48a.83.83,0,0,0-1.2.2,5.17,5.17,0,0,0-1.1,3.2,5.62,5.62,0,0,0,1.1,3.2.91.91,0,0,0,.7.3.76.76,0,0,0,.5-.2.83.83,0,0,0,.2-1.2,3.14,3.14,0,0,1-.7-2.1,3.14,3.14,0,0,1,.7-2.1,1.42,1.42,0,0,0,.2-.6c-.1-.4-.2-.6-.4-.7Z"/><path class="cls-2" d="M25.44,11a9.39,9.39,0,0,0-1.9,5.8,10.05,10.05,0,0,0,1.9,5.8.91.91,0,0,0,.7.3.76.76,0,0,0,.5-.2.83.83,0,0,0,.2-1.2,8.07,8.07,0,0,1-1.6-4.7,7.84,7.84,0,0,1,1.6-4.7.89.89,0,0,0-1.4-1.1Z"/><path class="cls-2" d="M22.84,8.38a14,14,0,0,0,0,16.8.91.91,0,0,0,.7.3.76.76,0,0,0,.5-.2.83.83,0,0,0,.2-1.2,12.14,12.14,0,0,1-2.4-7.4,13.06,13.06,0,0,1,2.4-7.4.83.83,0,0,0-.2-1.2,1.1,1.1,0,0,0-1.2.3Z"/><path class="cls-2" d="M42.24,20.08c.2.1.3.2.5.2a.91.91,0,0,0,.7-.3,5.17,5.17,0,0,0,1.1-3.2,5.39,5.39,0,0,0-1.1-3.2.92.92,0,0,0-.6-.4,1,1,0,0,0-.7.2.71.71,0,0,0-.3.6,1,1,0,0,0,.2.7,3.14,3.14,0,0,1,.7,2.1,3.14,3.14,0,0,1-.7,2.1,1.42,1.42,0,0,0-.2.6,1.54,1.54,0,0,0,.4.6Z"/><path class="cls-2" d="M44.94,10.88a.83.83,0,0,0-.2,1.2,8.07,8.07,0,0,1,1.6,4.7,7.84,7.84,0,0,1-1.6,4.7.83.83,0,0,0,.2,1.2c.2.1.3.2.5.2a.91.91,0,0,0,.7-.3,9.39,9.39,0,0,0,1.9-5.8,10.05,10.05,0,0,0-1.9-5.8.71.71,0,0,0-.6-.3.73.73,0,0,0-.6.2Z"/><path class="cls-2" d="M47.34,24.18a.83.83,0,0,0,.2,1.2c.2.1.3.2.5.2a.91.91,0,0,0,.7-.3,14,14,0,0,0,0-16.8.82.82,0,0,0-1.2-.1.83.83,0,0,0-.2,1.2,12.14,12.14,0,0,1,2.4,7.4,11.56,11.56,0,0,1-2.4,7.2Z"/><path class="cls-2" d="M16.8,54.29H51.3L56.4,45H29.5l-4-3.5H12.6ZM47.5,48a1.64,1.64,0,1,1-2,1.6A2.06,2.06,0,0,1,47.5,48Zm-6.4,0a1.64,1.64,0,1,1-2,1.6A1.9,1.9,0,0,1,41.1,48Zm-6.5,0a1.64,1.64,0,1,1,0,3.2,1.83,1.83,0,0,1-2-1.6A1.9,1.9,0,0,1,34.6,48Zm-6.5,0a1.64,1.64,0,1,1,0,3.2,1.83,1.83,0,0,1-2-1.6A1.9,1.9,0,0,1,28.1,48Z"/><path class="cls-2" d="M24.3,40.79v-4.5H13.8v4.5ZM20,37.59h2.3v1.9H20Zm-4.3,0H18v1.9H15.7Z"/><path class="cls-2" d="M18.6,35.59v-6.4H16.1v6.4Z"/><path class="cls-2" d="M55.4,44.29v-2H46.6v2Z"/><path class="cls-2" d="M45.8,44.29v-2H37v2Z"/><path class="cls-2" d="M36.2,44.29v-2H30v2Z"/><path class="cls-2" d="M40.1,39.59H31.3v2h8.8Z"/><path class="cls-2" d="M49.8,41.59v-2H41v2Z"/><path class="cls-2" d="M55.4,41.59v-2H50.6v2Z"/><path class="cls-2" d="M48.2,38.89v-2H38.6v2Z"/><path class="cls-2" d="M37.7,38.89v-2H32.4v2Z"/><path class="cls-2" d="M54.7,38.89v-2H49v2Z"/><path class="cls-2" d="M10.6,55.49a.72.72,0,1,0,0,1.4,5.62,5.62,0,0,1,1.5.4,5.55,5.55,0,0,0,2.2.6,5.55,5.55,0,0,0,2.2-.6,4.19,4.19,0,0,1,1.5-.4,4.8,4.8,0,0,1,1.5.4,5.55,5.55,0,0,0,2.2.6,5.55,5.55,0,0,0,2.2-.6,4.19,4.19,0,0,1,1.5-.4,5.62,5.62,0,0,1,1.5.4,5.55,5.55,0,0,0,2.2.6,5.55,5.55,0,0,0,2.2-.6,4.19,4.19,0,0,1,1.5-.4,5.62,5.62,0,0,1,1.5.4,5.55,5.55,0,0,0,2.2.6,5.55,5.55,0,0,0,2.2-.6,4.19,4.19,0,0,1,1.5-.4,5.62,5.62,0,0,1,1.5.4,5.55,5.55,0,0,0,2.2.6,5.55,5.55,0,0,0,2.2-.6,4.19,4.19,0,0,1,1.5-.4,5.62,5.62,0,0,1,1.5.4,5.55,5.55,0,0,0,2.2.6,5.55,5.55,0,0,0,2.2-.6,4.19,4.19,0,0,1,1.5-.4,5.62,5.62,0,0,1,1.5.4,5.55,5.55,0,0,0,2.2.6.72.72,0,1,0,0-1.4,5.62,5.62,0,0,1-1.5-.4,5.55,5.55,0,0,0-2.2-.6,5.55,5.55,0,0,0-2.2.6,4.19,4.19,0,0,1-1.5.4,5.62,5.62,0,0,1-1.5-.4,5.55,5.55,0,0,0-2.2-.6,5.55,5.55,0,0,0-2.2.6,4.19,4.19,0,0,1-1.5.4,5.62,5.62,0,0,1-1.5-.4,5.55,5.55,0,0,0-2.2-.6,5.55,5.55,0,0,0-2.2.6,4.19,4.19,0,0,1-1.5.4,5.62,5.62,0,0,1-1.5-.4,5.55,5.55,0,0,0-2.2-.6,5.55,5.55,0,0,0-2.2.6,4.19,4.19,0,0,1-1.5.4,5.62,5.62,0,0,1-1.5-.4,5.55,5.55,0,0,0-2.2-.6,5.55,5.55,0,0,0-2.2.6,4.19,4.19,0,0,1-1.5.4,5.62,5.62,0,0,1-1.5-.4,5.55,5.55,0,0,0-2.2-.6,5.55,5.55,0,0,0-2.2.6,4.19,4.19,0,0,1-1.5.4,5.62,5.62,0,0,1-1.5-.4,5.55,5.55,0,0,0-2.2-.6Z"/></g></g></svg>