<svg xmlns="http://www.w3.org/2000/svg" viewBox="0 0 72 72"><defs><style>.cls-1{fill:#333;}.cls-2{fill:#fff;}</style></defs><g id="Layer_2" data-name="Layer 2"><g id="Layer_5" data-name="Layer 5"><circle class="cls-1" cx="36" cy="36" r="36"/><path class="cls-2" d="M39.34,16.78a3.5,3.5,0,1,1-3.5-3.5,3.54,3.54,0,0,1,3.5,3.5"/><path class="cls-2" d="M29.34,13.48a.83.83,0,0,0-1.2.2,5.17,5.17,0,0,0-1.1,3.2,5.62,5.62,0,0,0,1.1,3.2.91.91,0,0,0,.7.3.76.76,0,0,0,.5-.2.83.83,0,0,0,.2-1.2,3.14,3.14,0,0,1-.7-2.1,3.14,3.14,0,0,1,.7-2.1,1.42,1.42,0,0,0,.2-.6c-.1-.4-.2-.6-.4-.7Z"/><path class="cls-2" d="M25.44,11a9.39,9.39,0,0,0-1.9,5.8,10.05,10.05,0,0,0,1.9,5.8.91.91,0,0,0,.7.3.76.76,0,0,0,.5-.2.83.83,0,0,0,.2-1.2,8.07,8.07,0,0,1-1.6-4.7,7.84,7.84,0,0,1,1.6-4.7.89.89,0,0,0-1.4-1.1Z"/><path class="cls-2" d="M22.84,8.38a14,14,0,0,0,0,16.8.91.91,0,0,0,.7.3.76.76,0,0,0,.5-.2.83.83,0,0,0,.2-1.2,12.14,12.14,0,0,1-2.4-7.4,13.06,13.06,0,0,1,2.4-7.4.83.83,0,0,0-.2-1.2,1.1,1.1,0,0,0-1.2.3Z"/><path class="cls-2" d="M42.24,20.08c.2.1.3.2.5.2a.91.91,0,0,0,.7-.3,5.17,5.17,0,0,0,1.1-3.2,5.39,5.39,0,0,0-1.1-3.2.92.92,0,0,0-.6-.4,1,1,0,0,0-.7.2.71.71,0,0,0-.3.6,1,1,0,0,0,.2.7,3.14,3.14,0,0,1,.7,2.1,3.14,3.14,0,0,1-.7,2.1,1.42,1.42,0,0,0-.2.6,1.54,1.54,0,0,0,.4.6Z"/><path class="cls-2" d="M44.94,10.88a.83.83,0,0,0-.2,1.2,8.07,8.07,0,0,1,1.6,4.7,7.84,7.84,0,0,1-1.6,4.7.83.83,0,0,0,.2,1.2c.2.1.3.2.5.2a.91.91,0,0,0,.7-.3,9.39,9.39,0,0,0,1.9-5.8,10.05,10.05,0,0,0-1.9-5.8.71.71,0,0,0-.6-.3.73.73,0,0,0-.6.2Z"/><path class="cls-2" d="M47.34,24.18a.83.83,0,0,0,.2,1.2c.2.1.3.2.5.2a.91.91,0,0,0,.7-.3,14,14,0,0,0,0-16.8.82.82,0,0,0-1.2-.1.83.83,0,0,0-.2,1.2,12.14,12.14,0,0,1,2.4,7.4,11.56,11.56,0,0,1-2.4,7.2Z"/><path class="cls-2" d="M28.2,38.9c-9.9.4-10,14.5-.2,15.1l1.3,1.7a1.75,1.75,0,0,0-1.4.7,1.8,1.8,0,0,0-.2,1.6,1.66,1.66,0,0,0-1.3.5,1.9,1.9,0,0,0-.5,1.3v.6a1.66,1.66,0,0,0,.5,1.2,1.85,1.85,0,0,0,1.2.5H46.1a1.66,1.66,0,0,0,1.2-.5,1.85,1.85,0,0,0,.5-1.2v-.6a1.66,1.66,0,0,0-.5-1.2,1.85,1.85,0,0,0-1.2-.5c.1-2.3-3.6-2.3-3.5,0H41.3a1.84,1.84,0,0,0-.2-1.6,1.62,1.62,0,0,0-1.4-.7H36.2a6.12,6.12,0,0,0-.5-1.2l-2.1-2.9a8.1,8.1,0,0,0,2-3.9,7.39,7.39,0,0,0-.5-4.4h0a7.8,7.8,0,0,0,2.7-8.1.37.37,0,0,0,.3-.1l4,3.1a3.08,3.08,0,0,0-.3,1.3,1.66,1.66,0,0,0,.5,1.2h0l1.4,3.3a.66.66,0,0,0,.5.4h0l4.5-.1a.63.63,0,0,0,.6-.5.49.49,0,0,0-.3-.6h0L46.5,42l-.4-1.4a2.66,2.66,0,0,0,.3-1.2,1.72,1.72,0,0,0,1.2-.2l1.3.6,1,2.7a.55.55,0,0,0,.6.4.47.47,0,0,0,.5-.5h0l.7-4.5a.71.71,0,0,0-.3-.6l-3.1-1.8a2.39,2.39,0,0,0-1.3-.7,2.06,2.06,0,0,0-1.5.3l-4.7-3.6a4.32,4.32,0,0,0-1.4-3.3,4.15,4.15,0,0,0-3.4-.9,3.8,3.8,0,0,0-2.8,2.1,3.63,3.63,0,0,0,0,3.5l-3.4,6a8.55,8.55,0,0,1-1.6,0ZM34,34.2a3.74,3.74,0,0,0,2,1.2l-3,5.3a8.17,8.17,0,0,0-2-1.2Zm9.4,4.4a1.09,1.09,0,0,1,1.1-.2,1.22,1.22,0,0,1,.8.9,1.19,1.19,0,0,1-.4,1.1,1.09,1.09,0,0,1-1.1.2,1.22,1.22,0,0,1-.8-.9,1.19,1.19,0,0,1,.4-1.1Zm3.3-.3a1.33,1.33,0,0,1-1-.6,1.08,1.08,0,0,1,0-1.1,1.33,1.33,0,0,1,1-.6.91.91,0,0,1,.8.4,1.14,1.14,0,0,1,.3.8.91.91,0,0,1-.4.8.78.78,0,0,1-.7.3Zm-7.4-3.6a4.89,4.89,0,0,0,1.4-1.8L44.8,36a2.66,2.66,0,0,0-.3,1.2,2,2,0,0,0-1.5.3h0Zm-2.4,3.5a6.67,6.67,0,0,1-2.4,4.1,3.92,3.92,0,0,0-.8-1h0L36.8,36a5.52,5.52,0,0,1,.1,2.2Zm-2.1,17a1.75,1.75,0,0,1,.2,1.7,1.5,1.5,0,0,1-1.4,1,1.73,1.73,0,0,1-1.6-.7h0l-2.6-3.5a8.06,8.06,0,0,0,3.3-1.4h0l2.1,2.9Zm5.6,2.2a.65.65,0,0,1-.6.6H35.7a2.2,2.2,0,0,0,.5-1.2h3.5c.4.1.7.3.7.6Zm-10.2-.5.9,1.2H29.4a.6.6,0,1,1,0-1.2Zm-2-4.1a6.49,6.49,0,1,1,4.4-1.9,6,6,0,0,1-4.4,1.9Z"/><path class="cls-2" d="M24.9,43.2a4.53,4.53,0,0,0-1.4,3.3,4.65,4.65,0,0,0,9.3,0,4.71,4.71,0,0,0-1.4-3.3,4.53,4.53,0,0,0-3.3-1.4A4.66,4.66,0,0,0,24.9,43.2Z"/></g></g></svg>