<svg xmlns="http://www.w3.org/2000/svg" viewBox="0 0 72 72"><defs><style>.cls-1{fill:#333;}.cls-2{fill:#fff;}</style></defs><g id="Layer_2" data-name="Layer 2"><g id="Layer_5" data-name="Layer 5"><circle class="cls-1" cx="36" cy="36" r="36"/><path class="cls-2" d="M39.34,16.78a3.5,3.5,0,1,1-3.5-3.5,3.54,3.54,0,0,1,3.5,3.5"/><path class="cls-2" d="M29.34,13.48a.83.83,0,0,0-1.2.2,5.17,5.17,0,0,0-1.1,3.2,5.62,5.62,0,0,0,1.1,3.2.91.91,0,0,0,.7.3.76.76,0,0,0,.5-.2.83.83,0,0,0,.2-1.2,3.14,3.14,0,0,1-.7-2.1,3.14,3.14,0,0,1,.7-2.1,1.42,1.42,0,0,0,.2-.6c-.1-.4-.2-.6-.4-.7Z"/><path class="cls-2" d="M25.44,11a9.39,9.39,0,0,0-1.9,5.8,10.05,10.05,0,0,0,1.9,5.8.91.91,0,0,0,.7.3.76.76,0,0,0,.5-.2.83.83,0,0,0,.2-1.2,8.07,8.07,0,0,1-1.6-4.7,7.84,7.84,0,0,1,1.6-4.7.89.89,0,0,0-1.4-1.1Z"/><path class="cls-2" d="M22.84,8.38a14,14,0,0,0,0,16.8.91.91,0,0,0,.7.3.76.76,0,0,0,.5-.2.83.83,0,0,0,.2-1.2,12.14,12.14,0,0,1-2.4-7.4,13.06,13.06,0,0,1,2.4-7.4.83.83,0,0,0-.2-1.2,1.1,1.1,0,0,0-1.2.3Z"/><path class="cls-2" d="M42.24,20.08c.2.1.3.2.5.2a.91.91,0,0,0,.7-.3,5.17,5.17,0,0,0,1.1-3.2,5.39,5.39,0,0,0-1.1-3.2.92.92,0,0,0-.6-.4,1,1,0,0,0-.7.2.71.71,0,0,0-.3.6,1,1,0,0,0,.2.7,3.14,3.14,0,0,1,.7,2.1,3.14,3.14,0,0,1-.7,2.1,1.42,1.42,0,0,0-.2.6,1.54,1.54,0,0,0,.4.6Z"/><path class="cls-2" d="M44.94,10.88a.83.83,0,0,0-.2,1.2,8.07,8.07,0,0,1,1.6,4.7,7.84,7.84,0,0,1-1.6,4.7.83.83,0,0,0,.2,1.2c.2.1.3.2.5.2a.91.91,0,0,0,.7-.3,9.39,9.39,0,0,0,1.9-5.8,10.05,10.05,0,0,0-1.9-5.8.71.71,0,0,0-.6-.3.73.73,0,0,0-.6.2Z"/><path class="cls-2" d="M47.34,24.18a.83.83,0,0,0,.2,1.2c.2.1.3.2.5.2a.91.91,0,0,0,.7-.3,14,14,0,0,0,0-16.8.82.82,0,0,0-1.2-.1.83.83,0,0,0-.2,1.2,12.14,12.14,0,0,1,2.4,7.4,11.56,11.56,0,0,1-2.4,7.2Z"/><path class="cls-2" d="M49.18,38.7s-7.9-7.3-12.4-7.3H26.58c-8.5,0-17.5,7.3-17.5,9.6V51.2l3.7,1a7,7,0,0,1,7-7,7.13,7.13,0,0,1,7.1,7.1h19.7a7.13,7.13,0,0,1,7.1-7.1,7,7,0,0,1,7,7l3.7-1V45c0-2.4-5.7-5.2-15.2-6.3Zm-19.8.5-13.8-.5c2.8-2,7-4,11-4h2.8Zm3.4.1V34.7h3.9c1.6,0,5.4,2.4,8.5,5Z"/><path class="cls-2" d="M24.58,52.2a4.8,4.8,0,1,1-4.8-4.8,4.74,4.74,0,0,1,4.8,4.8"/><path class="cls-2" d="M58.48,52.2a4.8,4.8,0,1,1-4.8-4.8,4.8,4.8,0,0,1,4.8,4.8"/></g></g></svg>