<svg xmlns="http://www.w3.org/2000/svg" viewBox="0 0 72 72"><defs><style>.cls-1{fill:#333;}.cls-2{fill:#fff;}</style></defs><g id="Layer_2" data-name="Layer 2"><g id="Layer_5" data-name="Layer 5"><circle class="cls-1" cx="36" cy="36" r="36"/><path class="cls-2" d="M39.34,16.78a3.5,3.5,0,1,1-3.5-3.5,3.54,3.54,0,0,1,3.5,3.5"/><path class="cls-2" d="M29.34,13.48a.83.83,0,0,0-1.2.2,5.17,5.17,0,0,0-1.1,3.2,5.62,5.62,0,0,0,1.1,3.2.91.91,0,0,0,.7.3.76.76,0,0,0,.5-.2.83.83,0,0,0,.2-1.2,3.14,3.14,0,0,1-.7-2.1,3.14,3.14,0,0,1,.7-2.1,1.42,1.42,0,0,0,.2-.6c-.1-.4-.2-.6-.4-.7Z"/><path class="cls-2" d="M25.44,11a9.39,9.39,0,0,0-1.9,5.8,10.05,10.05,0,0,0,1.9,5.8.91.91,0,0,0,.7.3.76.76,0,0,0,.5-.2.83.83,0,0,0,.2-1.2,8.07,8.07,0,0,1-1.6-4.7,7.84,7.84,0,0,1,1.6-4.7.89.89,0,0,0-1.4-1.1Z"/><path class="cls-2" d="M22.84,8.38a14,14,0,0,0,0,16.8.91.91,0,0,0,.7.3.76.76,0,0,0,.5-.2.83.83,0,0,0,.2-1.2,12.14,12.14,0,0,1-2.4-7.4,13.06,13.06,0,0,1,2.4-7.4.83.83,0,0,0-.2-1.2,1.1,1.1,0,0,0-1.2.3Z"/><path class="cls-2" d="M42.24,20.08c.2.1.3.2.5.2a.91.91,0,0,0,.7-.3,5.17,5.17,0,0,0,1.1-3.2,5.39,5.39,0,0,0-1.1-3.2.92.92,0,0,0-.6-.4,1,1,0,0,0-.7.2.71.71,0,0,0-.3.6,1,1,0,0,0,.2.7,3.14,3.14,0,0,1,.7,2.1,3.14,3.14,0,0,1-.7,2.1,1.42,1.42,0,0,0-.2.6,1.54,1.54,0,0,0,.4.6Z"/><path class="cls-2" d="M44.94,10.88a.83.83,0,0,0-.2,1.2,8.07,8.07,0,0,1,1.6,4.7,7.84,7.84,0,0,1-1.6,4.7.83.83,0,0,0,.2,1.2c.2.1.3.2.5.2a.91.91,0,0,0,.7-.3,9.39,9.39,0,0,0,1.9-5.8,10.05,10.05,0,0,0-1.9-5.8.71.71,0,0,0-.6-.3.73.73,0,0,0-.6.2Z"/><path class="cls-2" d="M47.34,24.18a.83.83,0,0,0,.2,1.2c.2.1.3.2.5.2a.91.91,0,0,0,.7-.3,14,14,0,0,0,0-16.8.82.82,0,0,0-1.2-.1.83.83,0,0,0-.2,1.2,12.14,12.14,0,0,1,2.4,7.4,11.56,11.56,0,0,1-2.4,7.2Z"/><path class="cls-2" d="M47.33,32.6H23.73A4.48,4.48,0,0,0,19,36.83V58.07a4.48,4.48,0,0,0,4.7,4.23h23.6A4.48,4.48,0,0,0,52,58.07V36.83a4.48,4.48,0,0,0-4.7-4.23Zm1.2,17h-3.8l-3.3,9.81a1.17,1.17,0,0,1-1.1.72h-.1a1.14,1.14,0,0,1-1.1-.9l-2.6-17.46L33.23,55.1a1.15,1.15,0,0,1-1.1.81,1.25,1.25,0,0,1-1.2-.81l-2.6-8.64-1.1,2.34a1.24,1.24,0,0,1-1.1.63h-3.5a1.09,1.09,0,1,1,0-2.16h2.7l2.1-4.59a1.11,1.11,0,0,1,1.2-.63,1.25,1.25,0,0,1,1.1.81L32,50.42l3.7-14.94a1,1,0,0,1,1.2-.81,1.14,1.14,0,0,1,1.1.9L40.83,54l2-5.94a1.08,1.08,0,0,1,1.1-.72h4.7a1.1,1.1,0,0,1,1.2,1.08,1.52,1.52,0,0,1-1.3,1.17Z"/></g></g></svg>