<svg xmlns="http://www.w3.org/2000/svg" viewBox="0 0 72 72"><defs><style>.cls-1{fill:#333;}.cls-2{fill:#fff;}</style></defs><g id="Layer_2" data-name="Layer 2"><g id="Layer_5" data-name="Layer 5"><circle class="cls-1" cx="36" cy="36" r="36"/><path class="cls-2" d="M39.34,16.78a3.5,3.5,0,1,1-3.5-3.5,3.54,3.54,0,0,1,3.5,3.5"/><path class="cls-2" d="M29.34,13.48a.83.83,0,0,0-1.2.2,5.17,5.17,0,0,0-1.1,3.2,5.62,5.62,0,0,0,1.1,3.2.91.91,0,0,0,.7.3.76.76,0,0,0,.5-.2.83.83,0,0,0,.2-1.2,3.14,3.14,0,0,1-.7-2.1,3.14,3.14,0,0,1,.7-2.1,1.42,1.42,0,0,0,.2-.6c-.1-.4-.2-.6-.4-.7Z"/><path class="cls-2" d="M25.44,11a9.39,9.39,0,0,0-1.9,5.8,10.05,10.05,0,0,0,1.9,5.8.91.91,0,0,0,.7.3.76.76,0,0,0,.5-.2.83.83,0,0,0,.2-1.2,8.07,8.07,0,0,1-1.6-4.7,7.84,7.84,0,0,1,1.6-4.7.89.89,0,0,0-1.4-1.1Z"/><path class="cls-2" d="M22.84,8.38a14,14,0,0,0,0,16.8.91.91,0,0,0,.7.3.76.76,0,0,0,.5-.2.83.83,0,0,0,.2-1.2,12.14,12.14,0,0,1-2.4-7.4,13.06,13.06,0,0,1,2.4-7.4.83.83,0,0,0-.2-1.2,1.1,1.1,0,0,0-1.2.3Z"/><path class="cls-2" d="M42.24,20.08c.2.1.3.2.5.2a.91.91,0,0,0,.7-.3,5.17,5.17,0,0,0,1.1-3.2,5.39,5.39,0,0,0-1.1-3.2.92.92,0,0,0-.6-.4,1,1,0,0,0-.7.2.71.71,0,0,0-.3.6,1,1,0,0,0,.2.7,3.14,3.14,0,0,1,.7,2.1,3.14,3.14,0,0,1-.7,2.1,1.42,1.42,0,0,0-.2.6,1.54,1.54,0,0,0,.4.6Z"/><path class="cls-2" d="M44.94,10.88a.83.83,0,0,0-.2,1.2,8.07,8.07,0,0,1,1.6,4.7,7.84,7.84,0,0,1-1.6,4.7.83.83,0,0,0,.2,1.2c.2.1.3.2.5.2a.91.91,0,0,0,.7-.3,9.39,9.39,0,0,0,1.9-5.8,10.05,10.05,0,0,0-1.9-5.8.71.71,0,0,0-.6-.3.73.73,0,0,0-.6.2Z"/><path class="cls-2" d="M47.34,24.18a.83.83,0,0,0,.2,1.2c.2.1.3.2.5.2a.91.91,0,0,0,.7-.3,14,14,0,0,0,0-16.8.82.82,0,0,0-1.2-.1.83.83,0,0,0-.2,1.2,12.14,12.14,0,0,1,2.4,7.4,11.56,11.56,0,0,1-2.4,7.2Z"/><path class="cls-2" d="M6.15,37.4c0,3.8.1,7.7.1,11.5,0,.3.1.4.4.5,3.9.7,7.7,1.5,11.6,2.3h0a3.72,3.72,0,0,0,1.8,3,3.63,3.63,0,0,0,3.5,0,3.37,3.37,0,0,0,1.8-3h23.1a3.53,3.53,0,0,0,1.8,3.1,3.82,3.82,0,0,0,3.6,0,3.53,3.53,0,0,0,1.8-3.1H64c1.1,0,1.4-.4,1.4-1.4V44.2c0-.3,0-.5-.3-.6h0a.88.88,0,0,1-.5-1l-.3-6.3h0a.82.82,0,0,0,.8-.9v-.1a.9.9,0,0,0-.9-.9h-8.6a.76.76,0,0,0-.5.2H9.25a3.25,3.25,0,0,0-2.4,1,2.67,2.67,0,0,0-.7,1.8ZM58,38.5h0a1,1,0,0,1,1.1-1.1h1.7c.9,0,1.2.3,1.2,1.2V48.7c0,.8-.3,1.1-1.1,1.1h-1.8A1,1,0,0,1,58,48.7V38.5Zm-7.9,13.2a2.35,2.35,0,0,1,.2-.8A2.18,2.18,0,0,1,51,50a2,2,0,0,1,1.1-.3,2.35,2.35,0,0,1,.8.2c.1,0,.2.1.3.2l.2.1h0a2.65,2.65,0,0,1,.5.6,2.12,2.12,0,0,1,0,1.9,2.65,2.65,0,0,1-.5.6l-.2.1h0c-.1.1-.2.1-.3.2a1.88,1.88,0,0,1-.8.2,2,2,0,0,1-1.4-.6,2,2,0,0,1-.6-1.5Zm-4.9-13.3a1,1,0,0,1,1.1-1.1h8.4a1,1,0,0,1,1.1,1.1v3.2h0a1,1,0,0,1-1.1,1.1h-8.4c-.8,0-1.1-.3-1.1-1.1V38.4Zm-12.5,0a1,1,0,0,1,1.1-1.1h8.3a1,1,0,0,1,1.1,1.1v3.1a1,1,0,0,1-1.1,1.1h-8.4c-.7,0-1.1-.3-1.1-1,.1-1,.1-2.1.1-3.2Zm-11.2,4.3c-.8,0-1.1-.3-1.1-1.1V38.4a1,1,0,0,1,1.1-1.1h8.4A1,1,0,0,1,31,38.4v3.1c0,.8-.3,1.1-1.1,1.1Zm-1.7,9a2,2,0,0,1,.9-1.7,2.15,2.15,0,0,1,1.9-.2,2,2,0,0,1,1.1,1.1,1.88,1.88,0,0,1,.2.8,2,2,0,0,1-.3,1.1,1.6,1.6,0,0,1-.9.7,2,2,0,0,1-1.5,0,2,2,0,0,1-1.1-1.1c-.3-.1-.3-.4-.3-.7ZM9,37.9a4.8,4.8,0,0,1,1.7-.5c2.3-.1,4.6,0,6.9,0a1,1,0,0,1,1.1,1.1v3.1c0,.8-.3,1.1-1.1,1.1H9.15a1.88,1.88,0,0,1-.8-.2,1.08,1.08,0,0,1-.3-.7V39.5a1.49,1.49,0,0,1,.2-.9,1,1,0,0,1,.7-.7Z"/></g></g></svg>