<svg xmlns="http://www.w3.org/2000/svg" viewBox="0 0 72 72"><defs><style>.cls-1{fill:#333;}.cls-2{fill:#fff;}</style></defs><g id="Layer_2" data-name="Layer 2"><g id="Layer_5" data-name="Layer 5"><circle class="cls-1" cx="36" cy="36" r="36"/><path class="cls-2" d="M39.34,16.78a3.5,3.5,0,1,1-3.5-3.5,3.54,3.54,0,0,1,3.5,3.5"/><path class="cls-2" d="M29.34,13.48a.83.83,0,0,0-1.2.2,5.17,5.17,0,0,0-1.1,3.2,5.62,5.62,0,0,0,1.1,3.2.91.91,0,0,0,.7.3.76.76,0,0,0,.5-.2.83.83,0,0,0,.2-1.2,3.14,3.14,0,0,1-.7-2.1,3.14,3.14,0,0,1,.7-2.1,1.42,1.42,0,0,0,.2-.6c-.1-.4-.2-.6-.4-.7Z"/><path class="cls-2" d="M25.44,11a9.39,9.39,0,0,0-1.9,5.8,10.05,10.05,0,0,0,1.9,5.8.91.91,0,0,0,.7.3.76.76,0,0,0,.5-.2.83.83,0,0,0,.2-1.2,8.07,8.07,0,0,1-1.6-4.7,7.84,7.84,0,0,1,1.6-4.7.89.89,0,0,0-1.4-1.1Z"/><path class="cls-2" d="M22.84,8.38a14,14,0,0,0,0,16.8.91.91,0,0,0,.7.3.76.76,0,0,0,.5-.2.83.83,0,0,0,.2-1.2,12.14,12.14,0,0,1-2.4-7.4,13.06,13.06,0,0,1,2.4-7.4.83.83,0,0,0-.2-1.2,1.1,1.1,0,0,0-1.2.3Z"/><path class="cls-2" d="M42.24,20.08c.2.1.3.2.5.2a.91.91,0,0,0,.7-.3,5.17,5.17,0,0,0,1.1-3.2,5.39,5.39,0,0,0-1.1-3.2.92.92,0,0,0-.6-.4,1,1,0,0,0-.7.2.71.71,0,0,0-.3.6,1,1,0,0,0,.2.7,3.14,3.14,0,0,1,.7,2.1,3.14,3.14,0,0,1-.7,2.1,1.42,1.42,0,0,0-.2.6,1.54,1.54,0,0,0,.4.6Z"/><path class="cls-2" d="M44.94,10.88a.83.83,0,0,0-.2,1.2,8.07,8.07,0,0,1,1.6,4.7,7.84,7.84,0,0,1-1.6,4.7.83.83,0,0,0,.2,1.2c.2.1.3.2.5.2a.91.91,0,0,0,.7-.3,9.39,9.39,0,0,0,1.9-5.8,10.05,10.05,0,0,0-1.9-5.8.71.71,0,0,0-.6-.3.73.73,0,0,0-.6.2Z"/><path class="cls-2" d="M47.34,24.18a.83.83,0,0,0,.2,1.2c.2.1.3.2.5.2a.91.91,0,0,0,.7-.3,14,14,0,0,0,0-16.8.82.82,0,0,0-1.2-.1.83.83,0,0,0-.2,1.2,12.14,12.14,0,0,1,2.4,7.4,11.56,11.56,0,0,1-2.4,7.2Z"/><path class="cls-2" d="M12.55,54.29a.46.46,0,0,0,.5.4h45.8a.41.41,0,1,0,0-.8H13.05C12.75,53.89,12.55,54,12.55,54.29Z"/><path class="cls-2" d="M32.75,49.79v-3.9h16.6c6.1,0,4.6,6.8,4.6,6.8h4.1s2.8-.2,2.8-1.8-2.8-4.5-2.8-4.5a1.27,1.27,0,0,0-.1-.6h.1v-5.7c0-3.2-.2-5.7-3.4-5.7H7.25v1.3s2,1.2,2,2.3a12.67,12.67,0,0,0,.9,3.4v4.3h.9v3.9h21.7v.2Zm-8-11.2a.9.9,0,1,1,0-1.8h25.7a.9.9,0,0,1,0,1.8Zm-12.5.1c0-1.2.6-2.2,1.2-2.2h5.9c.7,0,1.2,1,1.2,2.2s-.6,2.2-1.2,2.2h-5.9C12.75,40.79,12.25,39.89,12.25,38.69Z"/><path class="cls-2" d="M39.35,49.79a3.3,3.3,0,1,0-3.3,3.3,3.27,3.27,0,0,0,3.3-3.3Zm-3.3,1.6a1.6,1.6,0,1,1,1.6-1.6A1.58,1.58,0,0,1,36.05,51.39Z"/><path class="cls-2" d="M42.65,46.49a3.33,3.33,0,0,0-3.3,3.3h0a3.3,3.3,0,0,0,6.6,0A3.2,3.2,0,0,0,42.65,46.49Zm0,4.9a1.6,1.6,0,1,1,1.6-1.6A1.58,1.58,0,0,1,42.65,51.39Z"/><path class="cls-2" d="M49.35,46.49a3.3,3.3,0,1,0,3.3,3.3A3.33,3.33,0,0,0,49.35,46.49Zm0,4.9a1.6,1.6,0,1,1,1.6-1.6A1.58,1.58,0,0,1,49.35,51.39Z"/><path class="cls-2" d="M29.45,46.49a3.3,3.3,0,1,0,3.3,3.3A3.33,3.33,0,0,0,29.45,46.49Zm.2,4.9a1.6,1.6,0,1,1,1.6-1.6A1.64,1.64,0,0,1,29.65,51.39Z"/><path class="cls-2" d="M22.65,46.49a3.3,3.3,0,1,0,3.3,3.3A3.33,3.33,0,0,0,22.65,46.49Zm.2,4.9a1.6,1.6,0,1,1,1.6-1.6A1.64,1.64,0,0,1,22.85,51.39Z"/><path class="cls-2" d="M15.85,46.49a3.3,3.3,0,1,0,3.3,3.3A3.33,3.33,0,0,0,15.85,46.49Zm.1,4.9a1.6,1.6,0,1,1,1.6-1.6A1.58,1.58,0,0,1,16,51.39Z"/></g></g></svg>