<svg xmlns="http://www.w3.org/2000/svg" viewBox="0 0 72 72"><defs><style>.cls-1{fill:#333;}.cls-2{fill:none;}.cls-3{fill:#fff;}</style></defs><g id="Layer_2" data-name="Layer 2"><g id="Layer_5" data-name="Layer 5"><circle class="cls-1" cx="36" cy="36" r="36"/><rect class="cls-2" x="17.05" y="23.45" width="37.9" height="25.1"/><path class="cls-3" d="M7.61,46.52a1.19,1.19,0,0,0,1.2,1.19H10V52.5a1.2,1.2,0,0,0,2.4,0V47.71h1.19a1.19,1.19,0,0,0,1.2-1.19V39.75l6-7.69V37A1.19,1.19,0,0,0,22,38.15h1.2v4.78a1.2,1.2,0,1,0,2.39,0V38.15h1.2A1.19,1.19,0,0,0,27.94,37V33.19l7.18,9v6.75a1.19,1.19,0,0,0,1.19,1.2h1.2v4.78a1.2,1.2,0,0,0,2.39,0V50.11h1.2a1.19,1.19,0,0,0,1.19-1.2V43.4l12-13v4.12a1.2,1.2,0,0,0,1.2,1.2h1.19v4.78a1.2,1.2,0,0,0,2.39,0V35.76h1.2a1.2,1.2,0,0,0,1.2-1.2V20.21a1.2,1.2,0,0,0-1.2-1.2H59V14.23a1.2,1.2,0,1,0-2.39,0V19H55.45a1.2,1.2,0,0,0-1.2,1.2v6.71l-12,12.95V34.56a1.19,1.19,0,0,0-1.19-1.2H39.9V28.58a1.2,1.2,0,1,0-2.39,0v4.78h-1.2a1.19,1.19,0,0,0-1.19,1.2v3.76l-7.18-9V22.6a1.19,1.19,0,0,0-1.19-1.2h-1.2V16.62a1.2,1.2,0,0,0-2.39,0V21.4H22a1.19,1.19,0,0,0-1.19,1.2v5.57l-6,7.69V32.17a1.2,1.2,0,0,0-1.2-1.2H12.4V26.19a1.2,1.2,0,1,0-2.4,0V31H8.81a1.2,1.2,0,0,0-1.2,1.2Zm49-25.12H59v12H56.64ZM37.51,35.76H39.9v12H37.51Zm-14.35-12h2.39v12H23.16ZM10,33.36h2.4v12H10Z"/></g></g></svg>