<svg xmlns="http://www.w3.org/2000/svg" viewBox="0 0 72 72"><defs><style>.cls-1{fill:#333;}.cls-2{fill:#fff;}</style></defs><g id="Layer_2" data-name="Layer 2"><g id="Layer_5" data-name="Layer 5"><circle class="cls-1" cx="36" cy="36" r="36"/><path class="cls-2" d="M52.74,35.21a2.67,2.67,0,0,0-.32-1.55c-.08-.13-.16-.25-.25-.37a2.82,2.82,0,0,0-.64-.6,3,3,0,0,0-1.64-.49h-3V24.92a11.77,11.77,0,0,0-2.74-7.53,11.87,11.87,0,0,0-21,7.53V32.2h-3a3,3,0,0,0-1.65.53,3.11,3.11,0,0,0-1.36,2.48V56a2.9,2.9,0,0,0,.54,1.65,3.2,3.2,0,0,0,.82.82,2.9,2.9,0,0,0,1.65.54H49.74a2.74,2.74,0,0,0,1.13-.25,3.22,3.22,0,0,0,1-.66,3,3,0,0,0,.91-2.1ZM41,32.2H29.15V24.92a6.16,6.16,0,0,1,.13-1.22,5.48,5.48,0,0,1,.35-1.13,6.25,6.25,0,0,1,.55-1,6,6,0,0,1,5-2.65h0a6,6,0,0,1,5,2.65,5.57,5.57,0,0,1,.55,1,6,6,0,0,1,.48,2.35Z"/></g></g></svg>