<svg xmlns="http://www.w3.org/2000/svg" viewBox="0 0 72 72"><defs><style>.cls-1{fill:#333;}.cls-2{fill:#fff;}</style></defs><g id="Layer_2" data-name="Layer 2"><g id="Layer_5" data-name="Layer 5"><circle class="cls-1" cx="36" cy="36" r="36"/><path class="cls-2" d="M51.1,16H20.9a6,6,0,0,0-6,6v30.2a6,6,0,0,0,6,6H51.1a6,6,0,0,0,6-6V22a6,6,0,0,0-6-6Zm1.54,24.19H47.77L43.55,54.08a1.51,1.51,0,0,1-1.41,1H42a1.5,1.5,0,0,1-1.4-1.28L37.28,29,33.06,47.94a1.5,1.5,0,0,1-1.41,1.15,1.61,1.61,0,0,1-1.54-1.15L26.79,35.66,25.38,39a1.57,1.57,0,0,1-1.41.9H19.49a1.54,1.54,0,0,1,0-3.07H23l2.68-6.53a1.39,1.39,0,0,1,1.54-.89,1.63,1.63,0,0,1,1.41,1.15l2.94,10.75L36.26,20a1.31,1.31,0,0,1,1.53-1.15,1.51,1.51,0,0,1,1.41,1.28l3.58,26.24L45.34,38a1.39,1.39,0,0,1,1.41-1h6a1.48,1.48,0,0,1,1.54,1.53c-.26.9-.9,1.67-1.66,1.67Z"/></g></g></svg>