<svg xmlns="http://www.w3.org/2000/svg" viewBox="0 0 72 72"><defs><style>.cls-1{fill:#333;}.cls-2{fill:#fff;}</style></defs><g id="Layer_2" data-name="Layer 2"><g id="Layer_5" data-name="Layer 5"><circle class="cls-1" cx="36" cy="36" r="36"/><path class="cls-2" d="M57,44.6V41.13a3.38,3.38,0,0,0-3.33-3.33H37.11V28.09H49.46a2.63,2.63,0,0,0,2.63-2.63v-8a2.63,2.63,0,0,0-2.63-2.63H22.54a2.63,2.63,0,0,0-2.63,2.63v8.05a2.63,2.63,0,0,0,2.63,2.63H34.89V37.8H18.38a3.38,3.38,0,0,0-3.33,3.33V44.6a6.28,6.28,0,0,0-5.27,6.24,6.38,6.38,0,1,0,7.49-6.24V41.13A1.2,1.2,0,0,1,18.38,40H34.89V44.6a6.28,6.28,0,0,0-5.27,6.24,6.38,6.38,0,1,0,7.49-6.24V40H53.62a1.2,1.2,0,0,1,1.11,1.11V44.6a6.28,6.28,0,0,0-5.27,6.24A6.38,6.38,0,1,0,57,44.6Z"/></g></g></svg>