<svg xmlns="http://www.w3.org/2000/svg" viewBox="0 0 72 72"><defs><style>.cls-1{fill:#333;}.cls-2{fill:#fff;}</style></defs><g id="Layer_2" data-name="Layer 2"><g id="Layer_5" data-name="Layer 5"><circle class="cls-1" cx="36" cy="36" r="36"/><path class="cls-2" d="M34.74,35.93V12.28a22.91,22.91,0,0,0-14.28,6.09,23.58,23.58,0,0,0-7.73,13.39A22.82,22.82,0,0,0,15,47.08a24.33,24.33,0,0,0,11.3,10.56,24,24,0,0,0,9.67,2.08,25.61,25.61,0,0,0,5.8-.74A24.46,24.46,0,0,0,54.67,50.5L35.34,37A1.13,1.13,0,0,1,34.74,35.93Z"/><path class="cls-2" d="M47.09,15a23.08,23.08,0,0,0-9.82-2.67V33.55l17.55-12A25.26,25.26,0,0,0,47.09,15Z"/><path class="cls-2" d="M56.16,23.58l-18,12.49,18,12.5a23.65,23.65,0,0,0,0-25Z"/></g></g></svg>