<svg xmlns="http://www.w3.org/2000/svg" viewBox="0 0 72 72"><defs><style>.cls-1{fill:#333;}.cls-2,.cls-3{fill:#fff;}.cls-2{fill-rule:evenodd;}</style></defs><g id="Layer_2" data-name="Layer 2"><g id="Layer_5" data-name="Layer 5"><circle class="cls-1" cx="36" cy="36" r="36"/><path class="cls-2" d="M29,13.3a.55.55,0,0,1-.23.69.56.56,0,0,1-.69-.23l-1.15-1.84a.56.56,0,0,1,.23-.69.55.55,0,0,1,.69.23Zm8.74,12,9.09-5.18a.51.51,0,1,1,.46.92l-9.09,5.29c0,.23.12.35.12.58a2,2,0,0,1-2.07,2.07,2,2,0,0,1-2.07-2.07,2,2,0,0,1,2.07-2.07,1.25,1.25,0,0,1,1.49.46ZM34,38.83a2,2,0,0,1,2.07-2.07,2.22,2.22,0,0,1,1.5.57,2.18,2.18,0,0,1,.58,1.5,2.15,2.15,0,0,1-.58,1.49,2.18,2.18,0,0,1-1.5.58A2,2,0,0,1,34,38.83Zm-3.91,6.32v2.19a.49.49,0,0,0,.46.46h2.76v9.56a.49.49,0,0,0,.46.46H38.3a.49.49,0,0,0,.46-.46V47.8h2.76a.49.49,0,0,0,.46-.46V45.15a18.89,18.89,0,0,0,7.71-4.71A19.36,19.36,0,0,0,22.31,13.07a19.45,19.45,0,0,0,0,27.37,20.48,20.48,0,0,0,7.82,4.71Zm19-10.46a.51.51,0,0,1,.46-.92l1.84,1.15a.51.51,0,0,1-.46.92Zm.46-15.18a.56.56,0,0,1-.69-.23.55.55,0,0,1,.23-.69L51,17.44a.55.55,0,0,1,.69.23.56.56,0,0,1-.23.69Zm-5.41-5.75a.51.51,0,1,1-.92-.46l1.15-1.84a.51.51,0,0,1,.92.46ZM23.23,18.7a.51.51,0,1,1-.46.92l-1.84-1.15a.51.51,0,1,1,.46-.92Zm-.46,15.18a.56.56,0,0,1,.69.23.55.55,0,0,1-.23.69L21.39,36a.55.55,0,0,1-.69-.23.56.56,0,0,1,.23-.69ZM36.69,11.46a.46.46,0,1,1-.92,0V9.27a.46.46,0,1,1,.92,0ZM51.41,27.21a.46.46,0,1,1,0-.92h2.18a.46.46,0,0,1,0,.92Zm-30.48-1a.46.46,0,0,1,0,.92H18.75a.46.46,0,0,1,0-.92Z"/><path class="cls-2" d="M35.31,38a1.14,1.14,0,1,0,1.61,1.61,1.15,1.15,0,0,0-.81-2A1.22,1.22,0,0,0,35.31,38Z"/><path class="cls-2" d="M35.31,27.56A1.14,1.14,0,1,0,36.92,26a1.16,1.16,0,0,0-2,.8A2.37,2.37,0,0,0,35.31,27.56Z"/><rect class="cls-3" x="17.54" y="55.25" width="35.77" height="4.72"/><rect class="cls-3" x="16.33" y="54.44" width="4.72" height="6.35"/><rect class="cls-3" x="50.95" y="54.44" width="4.72" height="6.35"/></g></g></svg>