<svg xmlns="http://www.w3.org/2000/svg" viewBox="0 0 72 72"><defs><style>.cls-1{fill:#333;}.cls-2{fill:#fff;}</style></defs><g id="Layer_2" data-name="Layer 2"><g id="Layer_5" data-name="Layer 5"><circle class="cls-1" cx="36" cy="36" r="36"/><path class="cls-2" d="M23.83,25.11c-15,.61-15.2,22-.3,23l2,2.59a2.66,2.66,0,0,0-2.13,1.06,2.76,2.76,0,0,0-.3,2.43,2.56,2.56,0,0,0-2,.76,2.94,2.94,0,0,0-.76,2v.91a2.56,2.56,0,0,0,.76,1.83,2.85,2.85,0,0,0,1.83.76H51a2.52,2.52,0,0,0,1.82-.76,2.8,2.8,0,0,0,.76-1.83v-.91a2.48,2.48,0,0,0-.76-1.82A2.76,2.76,0,0,0,51,54.3c.15-3.5-5.47-3.5-5.32,0h-2a2.78,2.78,0,0,0-.3-2.44,2.47,2.47,0,0,0-2.13-1.06H36A9.14,9.14,0,0,0,35.23,49L32,44.57a12.35,12.35,0,0,0,3-5.93A11.22,11.22,0,0,0,34.32,32h0c3-2.28,5.62-7.45,4.1-12.31a.57.57,0,0,0,.46-.15L45,24.2a4.76,4.76,0,0,0-.46,2A2.56,2.56,0,0,0,45.26,28h0l2.13,5a1,1,0,0,0,.76.6h0L55,33.47a1,1,0,0,0,.91-.76.73.73,0,0,0-.45-.91h0l-3.8-2L51,27.69a4.06,4.06,0,0,0,.46-1.82,2.64,2.64,0,0,0,1.82-.3l2,.91,1.52,4.1a.83.83,0,0,0,.91.61.72.72,0,0,0,.76-.76h0l1.06-6.84a1.09,1.09,0,0,0-.45-.91l-4.72-2.74a3.56,3.56,0,0,0-2-1.06,3.16,3.16,0,0,0-2.28.45L43,13.86a6.52,6.52,0,0,0-2.13-5,6.25,6.25,0,0,0-5.16-1.37,5.76,5.76,0,0,0-4.26,3.19,5.52,5.52,0,0,0,0,5.32l-5.17,9.12a13.15,13.15,0,0,1-2.43,0ZM32.65,18a5.65,5.65,0,0,0,3,1.82l-4.56,8.06a12.81,12.81,0,0,0-3-1.83Zm14.29,6.68a1.67,1.67,0,0,1,1.67-.3,1.84,1.84,0,0,1,1.21,1.37,1.8,1.8,0,0,1-.6,1.67,1.64,1.64,0,0,1-1.68.3,1.86,1.86,0,0,1-1.21-1.36,1.82,1.82,0,0,1,.61-1.68Zm5-.45a2,2,0,0,1-1.52-.91,1.68,1.68,0,0,1,0-1.68A2,2,0,0,1,52,20.7a1.38,1.38,0,0,1,1.22.61,1.74,1.74,0,0,1,.45,1.22,1.38,1.38,0,0,1-.6,1.21A1.19,1.19,0,0,1,52,24.2ZM40.7,18.73A7.33,7.33,0,0,0,42.83,16l6.23,4.71a4.11,4.11,0,0,0-.45,1.83,3,3,0,0,0-2.28.45h0Zm-3.64,5.32a10.19,10.19,0,0,1-3.65,6.23,6,6,0,0,0-1.22-1.52h0L36.9,20.7a8.36,8.36,0,0,1,.16,3.35Zm-3.2,25.84a2.66,2.66,0,0,1,.31,2.58A2.3,2.3,0,0,1,32,54a2.62,2.62,0,0,1-2.43-1.06h0l-4-5.32a12.37,12.37,0,0,0,5-2.13h0l3.19,4.41Zm8.52,3.34a1,1,0,0,1-.92.91H35.23A3.26,3.26,0,0,0,36,52.32h5.32c.61.15,1.07.46,1.07.91Zm-15.51-.76,1.37,1.83H25.65a.92.92,0,0,1,0-1.83Zm-3-6.23a9.87,9.87,0,0,1-9.73-9.73c.46-12.92,18.85-12.92,19.31,0a9.67,9.67,0,0,1-2.89,6.84,9.06,9.06,0,0,1-6.69,2.89Z"/><path class="cls-2" d="M18.81,31.65a6.92,6.92,0,0,0-2.12,5c.45,9.28,13.68,9.28,14.13,0a7.14,7.14,0,0,0-2.13-5,6.87,6.87,0,0,0-5-2.13A7.1,7.1,0,0,0,18.81,31.65Z"/></g></g></svg>