<svg xmlns="http://www.w3.org/2000/svg" viewBox="0 0 72 72"><defs><style>.cls-1{fill:#333;}.cls-2{fill:#fff;}</style></defs><g id="Layer_2" data-name="Layer 2"><g id="Layer_5" data-name="Layer 5"><circle class="cls-1" cx="36" cy="36" r="36"/><path class="cls-2" d="M11.28,46.25a.52.52,0,0,0,.57.46H64.52a.47.47,0,1,0,0-.92H11.85C11.51,45.79,11.28,45.91,11.28,46.25Z"/><path class="cls-2" d="M34.51,41.08V36.59H53.59c7,0,5.29,7.82,5.29,7.82H63.6s3.22-.23,3.22-2.07-3.22-5.17-3.22-5.17a1.4,1.4,0,0,0-.12-.69h.12V29.92c0-3.68-.23-6.55-3.91-6.55H5.18v1.49s2.3,1.38,2.3,2.65a14.52,14.52,0,0,0,1,3.91v4.94h1v4.49h25v.23ZM25.31,28.2a1,1,0,1,1,0-2.07H54.86a1,1,0,0,1,0,2.07Zm-14.38.11c0-1.38.69-2.53,1.38-2.53h6.78c.81,0,1.38,1.15,1.38,2.53s-.69,2.53-1.38,2.53H12.31C11.51,30.73,10.93,29.69,10.93,28.31Z"/><path class="cls-2" d="M42.09,41.08a3.8,3.8,0,1,0-3.79,3.79,3.75,3.75,0,0,0,3.79-3.79ZM38.3,42.92a1.84,1.84,0,1,1,1.84-1.84A1.82,1.82,0,0,1,38.3,42.92Z"/><path class="cls-2" d="M45.89,37.28a3.84,3.84,0,0,0-3.8,3.8h0a3.8,3.8,0,0,0,7.6,0A3.69,3.69,0,0,0,45.89,37.28Zm0,5.64a1.84,1.84,0,1,1,1.84-1.84A1.82,1.82,0,0,1,45.89,42.92Z"/><path class="cls-2" d="M53.59,37.28a3.8,3.8,0,1,0,3.8,3.8A3.83,3.83,0,0,0,53.59,37.28Zm0,5.64a1.84,1.84,0,1,1,1.84-1.84A1.81,1.81,0,0,1,53.59,42.92Z"/><path class="cls-2" d="M30.71,37.28a3.8,3.8,0,1,0,3.8,3.8A3.83,3.83,0,0,0,30.71,37.28Zm.23,5.64a1.84,1.84,0,1,1,1.84-1.84A1.89,1.89,0,0,1,30.94,42.92Z"/><path class="cls-2" d="M22.89,37.28a3.8,3.8,0,1,0,3.8,3.8A3.84,3.84,0,0,0,22.89,37.28Zm.23,5.64A1.84,1.84,0,1,1,25,41.08,1.89,1.89,0,0,1,23.12,42.92Z"/><path class="cls-2" d="M15.07,37.28a3.8,3.8,0,1,0,3.8,3.8A3.84,3.84,0,0,0,15.07,37.28Zm.12,5.64A1.84,1.84,0,1,1,17,41.08,1.82,1.82,0,0,1,15.19,42.92Z"/></g></g></svg>