<svg xmlns="http://www.w3.org/2000/svg" viewBox="0 0 72 72"><defs><style>.cls-1{fill:#333;}.cls-2{fill:#fff;}</style></defs><g id="Layer_2" data-name="Layer 2"><g id="Layer_5" data-name="Layer 5"><circle class="cls-1" cx="36" cy="36" r="36"/><path class="cls-2" d="M62,46.25,61.75,36h0v-.23L58,25a1.41,1.41,0,0,0-1.27-.8h-9.2a1.27,1.27,0,0,0-1.26,1.26V45.67H10.46a1.66,1.66,0,0,0,0,3.22h9.09a4.88,4.88,0,0,1,8.28,0h18.4a4.88,4.88,0,0,1,8.28,0h6.55a1.46,1.46,0,0,0,1.27-1.61l-.35-1ZM48.64,35V26.7h7l3,8.28Z"/><path class="cls-2" d="M9.54,21.52c0-.57.23-.8.81-.8H44c.58,0,1.27.23,1.27.8V43.6A1.46,1.46,0,0,1,44,44.87H10.35c-.58,0-.81-.69-.81-1.27Z"/><path class="cls-2" d="M50.25,47.05a4.37,4.37,0,1,0,4.37,4.37,4.44,4.44,0,0,0-4.37-4.37Zm0,5.87a1.5,1.5,0,1,1,1.5-1.5A1.52,1.52,0,0,1,50.25,52.92Z"/><path class="cls-2" d="M23.57,47.05a4.37,4.37,0,1,0,4.37,4.37,4.44,4.44,0,0,0-4.37-4.37Zm0,5.87a1.5,1.5,0,1,1,1.5-1.5A1.52,1.52,0,0,1,23.57,52.92Z"/></g></g></svg>