<svg xmlns="http://www.w3.org/2000/svg" viewBox="0 0 69.6 69.6"><defs><style>.cls-1{fill:#333;}.cls-2{fill:#fff;}</style></defs><g id="Layer_2" data-name="Layer 2"><g id="Layer_5" data-name="Layer 5"><circle class="cls-1" cx="34.8" cy="34.8" r="34.8"/><path class="cls-2" d="M41.92,34.8a6.62,6.62,0,1,1-6.62-6.62,6.71,6.71,0,0,1,6.62,6.62"/><path class="cls-2" d="M23,28.56a1.57,1.57,0,0,0-2.27.37A9.83,9.83,0,0,0,18.65,35a10.2,10.2,0,0,0,2.08,6,1.72,1.72,0,0,0,1.33.57,1.45,1.45,0,0,0,.94-.38A1.57,1.57,0,0,0,23.38,39a5.9,5.9,0,0,1-1.32-4,5.9,5.9,0,0,1,1.32-4,2.7,2.7,0,0,0,.38-1.14A1.9,1.9,0,0,0,23,28.56Z"/><path class="cls-2" d="M15.81,23.83a17.73,17.73,0,0,0-3.59,11,19,19,0,0,0,3.59,11,1.72,1.72,0,0,0,1.33.57,1.42,1.42,0,0,0,.94-.38,1.57,1.57,0,0,0,.38-2.27,15.27,15.27,0,0,1-3-8.89,14.84,14.84,0,0,1,3-8.89,1.57,1.57,0,0,0-.38-2.27,1.42,1.42,0,0,0-2.27.19Z"/><path class="cls-2" d="M10.7,18.91a26.51,26.51,0,0,0,0,31.78,1.72,1.72,0,0,0,1.33.57,1.4,1.4,0,0,0,.94-.38,1.57,1.57,0,0,0,.38-2.27,23,23,0,0,1-4.54-14,24.75,24.75,0,0,1,4.54-14A1.57,1.57,0,0,0,13,18.34a1.85,1.85,0,0,0-2.27.57Z"/><path class="cls-2" d="M47.6,41c.38.19.57.38.94.38a1.72,1.72,0,0,0,1.33-.57A9.78,9.78,0,0,0,52,34.8a10.2,10.2,0,0,0-2.08-6A1.74,1.74,0,0,0,48.73,28a1.79,1.79,0,0,0-1.32.38,1.34,1.34,0,0,0-.57,1.13,1.81,1.81,0,0,0,.38,1.33,5.9,5.9,0,0,1,1.32,4,5.9,5.9,0,0,1-1.32,4,2.7,2.7,0,0,0-.38,1.14A1.72,1.72,0,0,0,47.6,41Z"/><path class="cls-2" d="M52.52,23.45a1.57,1.57,0,0,0-.38,2.27,15.27,15.27,0,0,1,3,8.89,14.84,14.84,0,0,1-3,8.89,1.57,1.57,0,0,0,.38,2.27c.38.19.56.38.94.38a1.72,1.72,0,0,0,1.33-.57,17.73,17.73,0,0,0,3.59-11,19,19,0,0,0-3.59-11,1.35,1.35,0,0,0-1.14-.57,2.66,2.66,0,0,0-1.13.38Z"/><path class="cls-2" d="M57.25,48.8a1.57,1.57,0,0,0,.38,2.27c.37.19.56.38.94.38a1.72,1.72,0,0,0,1.33-.57,26.51,26.51,0,0,0,0-31.78,1.54,1.54,0,0,0-2.27-.19,1.57,1.57,0,0,0-.38,2.27,23,23,0,0,1,4.54,14A23.55,23.55,0,0,1,57.25,48.8Z"/></g></g></svg>