<svg xmlns="http://www.w3.org/2000/svg" viewBox="0 0 72 72"><defs><style>.cls-1{fill:#333;}.cls-2{fill:#fff;}</style></defs><g id="Layer_2" data-name="Layer 2"><g id="Layer_5" data-name="Layer 5"><circle class="cls-1" cx="36" cy="36" r="36"/><path class="cls-2" d="M38.94,21.08a4.81,4.81,0,0,1-1.6.8l3.2,8.1h-9.4l3.2-8.1h0a4.81,4.81,0,0,1-1.6-.8l-14.4,36.6a.85.85,0,0,0,0,.7,1.21,1.21,0,0,0,.5.5.85.85,0,0,0,.7,0,1.21,1.21,0,0,0,.5-.5l1.2-2.9h29.4l1.2,2.9a1,1,0,0,0,.8.6.37.37,0,0,0,.3-.1,1.21,1.21,0,0,0,.5-.5.85.85,0,0,0,0-.7Zm7.8,24.6h-4.5l-4.8-3.1,4.8-3.1h2.1Zm-7.8-6.1-3.2,2-3.2-2Zm-4.7-1.8,1.6-1.7,1.6,1.7Zm4.7,7.9h-6.3l3.1-2Zm1,1.8-4.2,2.1-4.2-2.1Zm1.3-15.8,2.4,6.1h-3.9L37,34.68l2.7-3.1Zm-3.9,0-1.6,1.8-1.6-1.8Zm-6.9,0h1.5l2.7,3.1-2.7,3.1H28Zm-3.1,7.9h2.1l4.8,3.1-4.8,3.1h-4.5Zm-5.5,14,2.4-6.1h3.5l6.1,3.1-6.1,3.1Zm9.8,0,4.2-2.1,4.2,2.1Zm12.3,0-6.1-3.1,6.1-3.1h3.5l2.4,6.1Z"/><path class="cls-2" d="M39.34,16.78a3.5,3.5,0,1,1-3.5-3.5,3.54,3.54,0,0,1,3.5,3.5"/><path class="cls-2" d="M29.34,13.48a.83.83,0,0,0-1.2.2,5.17,5.17,0,0,0-1.1,3.2,5.62,5.62,0,0,0,1.1,3.2.91.91,0,0,0,.7.3.76.76,0,0,0,.5-.2.83.83,0,0,0,.2-1.2,3.14,3.14,0,0,1-.7-2.1,3.14,3.14,0,0,1,.7-2.1,1.42,1.42,0,0,0,.2-.6c-.1-.4-.2-.6-.4-.7Z"/><path class="cls-2" d="M25.44,11a9.39,9.39,0,0,0-1.9,5.8,10.05,10.05,0,0,0,1.9,5.8.91.91,0,0,0,.7.3.76.76,0,0,0,.5-.2.83.83,0,0,0,.2-1.2,8.07,8.07,0,0,1-1.6-4.7,7.84,7.84,0,0,1,1.6-4.7.89.89,0,0,0-1.4-1.1Z"/><path class="cls-2" d="M22.84,8.38a14,14,0,0,0,0,16.8.91.91,0,0,0,.7.3.76.76,0,0,0,.5-.2.83.83,0,0,0,.2-1.2,12.14,12.14,0,0,1-2.4-7.4,13.06,13.06,0,0,1,2.4-7.4.83.83,0,0,0-.2-1.2,1.1,1.1,0,0,0-1.2.3Z"/><path class="cls-2" d="M42.24,20.08c.2.1.3.2.5.2a.91.91,0,0,0,.7-.3,5.17,5.17,0,0,0,1.1-3.2,5.39,5.39,0,0,0-1.1-3.2.92.92,0,0,0-.6-.4,1,1,0,0,0-.7.2.71.71,0,0,0-.3.6,1,1,0,0,0,.2.7,3.14,3.14,0,0,1,.7,2.1,3.14,3.14,0,0,1-.7,2.1,1.42,1.42,0,0,0-.2.6,1.54,1.54,0,0,0,.4.6Z"/><path class="cls-2" d="M44.94,10.88a.83.83,0,0,0-.2,1.2,8.07,8.07,0,0,1,1.6,4.7,7.84,7.84,0,0,1-1.6,4.7.83.83,0,0,0,.2,1.2c.2.1.3.2.5.2a.91.91,0,0,0,.7-.3,9.39,9.39,0,0,0,1.9-5.8,10.05,10.05,0,0,0-1.9-5.8.71.71,0,0,0-.6-.3.73.73,0,0,0-.6.2Z"/><path class="cls-2" d="M47.34,24.18a.83.83,0,0,0,.2,1.2c.2.1.3.2.5.2a.91.91,0,0,0,.7-.3,14,14,0,0,0,0-16.8.82.82,0,0,0-1.2-.1.83.83,0,0,0-.2,1.2,12.14,12.14,0,0,1,2.4,7.4,11.56,11.56,0,0,1-2.4,7.2Z"/></g></g></svg>