<svg xmlns="http://www.w3.org/2000/svg" viewBox="0 0 72 72"><defs><style>.cls-1{fill:#333;}.cls-2{fill:#fff;}</style></defs><g id="Layer_2" data-name="Layer 2"><g id="Layer_5" data-name="Layer 5"><circle class="cls-1" cx="36" cy="36" r="36"/><path class="cls-2" d="M28.81,40.36c-2.22-2.54-3.88-4.52-5.61-6.41-2.91-3.17-6.7-3.51-9.5-.92-2.62,2.42-2.75,6.19-.1,9.22C17,46.13,20.48,49.94,24,53.68c2.91,3,6.76,3.41,9.45.4Q46.37,39.65,58.81,24.83c2.36-2.8,1.86-6-.73-8.51-2.41-2.34-6.27-2-8.87.66-1.6,1.63-3.06,3.41-4.57,5.14C39.49,28,34.35,34,28.81,40.36Z"/></g></g></svg>