<svg xmlns="http://www.w3.org/2000/svg" viewBox="0 0 72 72"><defs><style>.cls-1{fill:#333;}.cls-2{fill:#fff;}</style></defs><g id="Layer_2" data-name="Layer 2"><g id="Layer_5" data-name="Layer 5"><circle class="cls-1" cx="36" cy="36" r="36"/><path class="cls-2" d="M15.5,59a5.51,5.51,0,0,1-5.4-5.4V36.77H3v-1.6H2.8v1.7H9.9v16.8a5.51,5.51,0,0,0,5.4,5.4H53.6a5.37,5.37,0,0,0,3.83-1.66A5.36,5.36,0,0,1,53.7,59Z"/><rect class="cls-2" x="59.1" y="36.77" width="2.8" height="0.1"/><polygon class="cls-2" points="69.2 36.07 69.11 36.02 61.9 40.17 61.9 40.27 69.2 36.07"/><path class="cls-2" d="M47.1,41a2.51,2.51,0,0,0,2.8-2,2.61,2.61,0,0,0-2.5-2.5v-.1c.8-1.3.6-2.8-.5-3.4a2.52,2.52,0,0,0-3.3,1.2,3,3,0,0,0-.2,2.6l-8,4.7-7.7-4.2a2.44,2.44,0,0,0,0-2.6,2.58,2.58,0,0,0-3.2-1.4,2.62,2.62,0,0,0-.8,3.4h-.1a2.49,2.49,0,0,0-2.7,2.2,2.57,2.57,0,0,0,2.7,2.2,2.79,2.79,0,0,0,2.3-1.2l6.3,3.4-5.3,3A2.5,2.5,0,0,0,24.7,45a2.51,2.51,0,0,0-2.8,2,2.61,2.61,0,0,0,2.5,2.5v.1c-.8,1.3-.6,2.8.5,3.4a2.52,2.52,0,0,0,3.3-1.2,2.43,2.43,0,0,0,.1-2.7l7-4.1,7.2,3.9a2.5,2.5,0,0,0,.1,2.5,2.58,2.58,0,0,0,3.2,1.4,2.65,2.65,0,0,0,.8-3.4,2.49,2.49,0,0,0,2.7-2.2A2.57,2.57,0,0,0,46.6,45a2.53,2.53,0,0,0-2.3,1.3l-5.6-3.1,6.2-3.6A2.25,2.25,0,0,0,47.1,41Z"/><path class="cls-2" d="M25.1,31.07,30.5,34l.9,2.3h8.4l.9-2.3,5.4-2.9a6.78,6.78,0,0,1,1.6-5.3c2-2.6,4.5-12.2,0-16.3a22.29,22.29,0,0,0-12.2-5.2c-1.3,0-7.9,1.2-12.2,5.2-4.4,4.2-2,13.8.2,16.3A6.78,6.78,0,0,1,25.1,31.07Zm16.8-11.4c1.82,0,3.3,1.75,3.3,3.9s-1.48,3.9-3.3,3.9-3.3-1.74-3.3-3.9S40.08,19.67,41.9,19.67Zm-6.6,8.4c.9,1,2.2,4.8,1.6,4.8s-1.6-1.2-1.6-1.2-.9,1.2-1.6,1.2S34.4,29.07,35.3,28.07Zm-5.7-8.4c1.8,0,3.3,1.8,3.3,3.9-.1,2.3-1.5,3.9-3.3,3.9s-3.3-1.8-3.3-3.9S27.7,19.67,29.6,19.67Z"/><path class="cls-2" d="M11.6,36.87v16.8a3.86,3.86,0,0,0,3.8,3.8H53.6a3.86,3.86,0,0,0,3.8-3.8V35.17h4.5v-3.3L69.11,36,69.2,36l-7.3-4.2v3.3H57.4v18.5a3.86,3.86,0,0,1-3.8,3.8h-38a3.86,3.86,0,0,1-3.8-3.8V35.07H3v.1h8.6Z"/><path class="cls-2" d="M59,53.67a5.38,5.38,0,0,1-1.57,3.74,5.38,5.38,0,0,0,1.67-3.84V36.87H59Z"/><rect class="cls-2" x="61.9" y="36.87" height="3.3"/><path class="cls-2" d="M61.9,31.87v3.3H57.4v18.5a3.86,3.86,0,0,1-3.8,3.8H15.4a3.86,3.86,0,0,1-3.8-3.8V35.17H3v1.6h7.1v16.8A5.51,5.51,0,0,0,15.5,59H53.7a5.34,5.34,0,0,0,5.3-5.3V36.87h.1v-.1h2.8v.1h0v3.3L69.11,36Z"/></g></g></svg>