<svg xmlns="http://www.w3.org/2000/svg" viewBox="0 0 72 72"><defs><style>.cls-1{fill:#333;}.cls-2{fill:#fff;}</style></defs><g id="Layer_2" data-name="Layer 2"><g id="Layer_5" data-name="Layer 5"><circle class="cls-1" cx="36" cy="36" r="36"/><path class="cls-2" d="M29.78,18.74a2.75,2.75,0,0,1,.2.38A2.75,2.75,0,0,0,29.78,18.74Z"/><path class="cls-2" d="M30,19.19a2.59,2.59,0,0,1,.14.45A2.35,2.35,0,0,0,30,19.19Z"/><path class="cls-2" d="M29.21,18.08l.17.14Z"/><path class="cls-2" d="M23.22,18.74a.73.73,0,0,1,.05-.09A.73.73,0,0,0,23.22,18.74Z"/><path class="cls-2" d="M23.48,18.38l.14-.16Z"/><path class="cls-2" d="M23.78,18.08c.09-.07.17-.15.26-.21C24,17.93,23.87,18,23.78,18.08Z"/><path class="cls-2" d="M23,19.19a.64.64,0,0,0,0-.07A.64.64,0,0,1,23,19.19Z"/><path class="cls-2" d="M22.8,20.17a3.07,3.07,0,0,1,.05-.53A3.07,3.07,0,0,0,22.8,20.17Z"/><path class="cls-2" d="M27.4,17.4h0a3.21,3.21,0,0,1,.55.05A3.31,3.31,0,0,0,27.4,17.4Z"/><path class="cls-2" d="M28.86,17.82l.09.05Z"/><path class="cls-2" d="M28.39,17.59l.08,0Z"/><path class="cls-2" d="M24.14,17.82a2.82,2.82,0,0,1,.38-.21A2.82,2.82,0,0,0,24.14,17.82Z"/><path class="cls-2" d="M24.6,17.59a3.73,3.73,0,0,1,.44-.14A3.22,3.22,0,0,0,24.6,17.59Z"/><path class="cls-2" d="M29.51,18.38a2.88,2.88,0,0,1,.22.27A2.88,2.88,0,0,0,29.51,18.38Z"/><path class="cls-2" d="M24.52,17.61l.08,0Z"/><path class="cls-2" d="M23.62,18.22l.16-.14Z"/><path class="cls-2" d="M25.6,17.4a3.43,3.43,0,0,0-.56.05,3.43,3.43,0,0,1,.56-.05Z"/><path class="cls-2" d="M28,17.45a2.83,2.83,0,0,1,.44.14A2.83,2.83,0,0,0,28,17.45Z"/><path class="cls-2" d="M24,17.87l.1-.05Z"/><path class="cls-2" d="M23.27,18.65a2.78,2.78,0,0,1,.21-.27A2.78,2.78,0,0,0,23.27,18.65Z"/><path class="cls-2" d="M51.8,45.1h1.8a2.8,2.8,0,0,0,2.8-2.8V20.2a2.8,2.8,0,0,0-2.8-2.8H51.7a2.8,2.8,0,0,0-2.8,2.8L49,42.3A2.8,2.8,0,0,0,51.8,45.1ZM50,20.2a1.79,1.79,0,0,1,1.8-1.8h1.8a1.79,1.79,0,0,1,1.8,1.8V42.3a1.79,1.79,0,0,1-1.8,1.8H51.7A1.65,1.65,0,0,1,50,42.3Z"/><path class="cls-2" d="M22.85,19.64a3.88,3.88,0,0,1,.14-.45C22.94,19.34,22.89,19.48,22.85,19.64Z"/><path class="cls-2" d="M23,19.12a2.82,2.82,0,0,1,.21-.38A2.82,2.82,0,0,0,23,19.12Z"/><path class="cls-2" d="M30,19.12a.25.25,0,0,1,0,.07A.25.25,0,0,0,30,19.12Z"/><path class="cls-2" d="M30.14,19.64a2.32,2.32,0,0,1,.05.53A2.32,2.32,0,0,0,30.14,19.64Z"/><path class="cls-2" d="M29,17.87a2.65,2.65,0,0,1,.26.21A2.65,2.65,0,0,0,29,17.87Z"/><path class="cls-2" d="M28.47,17.61a2.93,2.93,0,0,1,.39.21A2.93,2.93,0,0,0,28.47,17.61Z"/><path class="cls-2" d="M29.73,18.65a.73.73,0,0,1,.05.09A.73.73,0,0,0,29.73,18.65Z"/><path class="cls-2" d="M29.38,18.22a1.83,1.83,0,0,1,.13.16A1.83,1.83,0,0,0,29.38,18.22Z"/><path class="cls-2" d="M14.1,20.2V42.3a2.68,2.68,0,0,0,2.8,2.8h1.7a2.8,2.8,0,0,0,2.8-2.8V20.2a2.8,2.8,0,0,0-2.8-2.8H16.9A2.8,2.8,0,0,0,14.1,20.2Zm1,0a1.79,1.79,0,0,1,1.8-1.8h1.8a1.79,1.79,0,0,1,1.8,1.8V42.3a1.79,1.79,0,0,1-1.8,1.8H16.9a1.73,1.73,0,0,1-1.8-1.8Z"/><path class="cls-2" d="M22.8,42.3h0a2.8,2.8,0,0,0,2.79,2.79H27.4A2.44,2.44,0,0,0,28,45a3.33,3.33,0,0,0,.45-.13l.07,0a2.05,2.05,0,0,0,.39-.2l.09,0a2.65,2.65,0,0,0,.26-.21l.17-.14c.05-.05.09-.11.14-.17a3,3,0,0,0,.21-.26l.05-.09a2.05,2.05,0,0,0,.2-.39l0-.07a3.66,3.66,0,0,0,.13-.44,2.6,2.6,0,0,0,.06-.56V20.17a2.32,2.32,0,0,0-.05-.53,2.59,2.59,0,0,0-.14-.45.25.25,0,0,0,0-.07,2.75,2.75,0,0,0-.2-.38.73.73,0,0,0-.05-.09,2.88,2.88,0,0,0-.22-.27,1.83,1.83,0,0,0-.13-.16l-.17-.14a2.65,2.65,0,0,0-.26-.21l-.09-.05a2.93,2.93,0,0,0-.39-.21l-.08,0a2.83,2.83,0,0,0-.44-.14,3.21,3.21,0,0,0-.55-.05H25.6a3.43,3.43,0,0,0-.56.05,3.73,3.73,0,0,0-.44.14l-.08,0a2.82,2.82,0,0,0-.38.21l-.1.05c-.09.06-.17.14-.26.21l-.16.14-.14.16a2.78,2.78,0,0,0-.21.27.73.73,0,0,0-.05.09,2.82,2.82,0,0,0-.21.38.64.64,0,0,1,0,.07,3.88,3.88,0,0,0-.14.45,3.07,3.07,0,0,0-.05.53V42.3Zm1-22.1a1.79,1.79,0,0,1,1.8-1.8h1.8a1.79,1.79,0,0,1,1.8,1.8V42.3a1.79,1.79,0,0,1-1.8,1.8H25.6a1.79,1.79,0,0,1-1.8-1.8Z"/><path class="cls-2" d="M40.2,20.2V42.3A2.68,2.68,0,0,0,43,45.1h1.7a2.8,2.8,0,0,0,2.8-2.8V20.2a2.8,2.8,0,0,0-2.8-2.8H43A2.8,2.8,0,0,0,40.2,20.2Zm1,0A1.79,1.79,0,0,1,43,18.4h1.8a1.79,1.79,0,0,1,1.8,1.8V42.3a1.79,1.79,0,0,1-1.8,1.8H43a1.73,1.73,0,0,1-1.8-1.8Z"/><path class="cls-2" d="M31.5,20.2V42.3a2.68,2.68,0,0,0,2.8,2.8H36a2.8,2.8,0,0,0,2.8-2.8V20.2A2.8,2.8,0,0,0,36,17.4H34.3A2.8,2.8,0,0,0,31.5,20.2Zm1,0a1.79,1.79,0,0,1,1.8-1.8h1.8a1.79,1.79,0,0,1,1.8,1.8V42.3a1.79,1.79,0,0,1-1.8,1.8H34.3a1.73,1.73,0,0,1-1.8-1.8Z"/><path class="cls-2" d="M62.8,31.86V35.1H58.3V53.6a3.86,3.86,0,0,1-3.8,3.8H16.2a3.86,3.86,0,0,1-3.8-3.8V35.1H3.7v1.7h7.1V53.6A5.51,5.51,0,0,0,16.2,59H54.3a5.51,5.51,0,0,0,5.4-5.4V36.8h3.1v3.28L70,36Z"/><path class="cls-2" d="M23.62,49.32a.09.09,0,0,0,.06,0,.21.21,0,0,0,0-.07l0-.14c0-.06,0-.13,0-.21s0-.16,0-.22,0-.1,0-.14a.29.29,0,0,0,0-.08l-.06,0H21.31a.25.25,0,0,0-.19.09.36.36,0,0,0-.08.28v4.95a.36.36,0,0,0,.08.28.25.25,0,0,0,.19.09h2.33a.05.05,0,0,0,.05,0,.13.13,0,0,0,0-.07s0-.08,0-.14v-.43l0-.14a.13.13,0,0,0,0-.07.05.05,0,0,0-.05,0H22v-1.6h1.4l.06,0a.29.29,0,0,0,0-.08.86.86,0,0,0,0-.13c0-.06,0-.13,0-.21s0-.15,0-.21,0-.1,0-.14a.43.43,0,0,0,0-.07.07.07,0,0,0-.06,0H22V49.32Z"/><path class="cls-2" d="M24.22,54a.09.09,0,0,0,0,.08.23.23,0,0,0,.14,0h.49l.14,0a.16.16,0,0,0,.08-.05.16.16,0,0,0,0-.07l.59-1.39L26.33,54a.16.16,0,0,0,0,.07.16.16,0,0,0,.08.05l.15,0h.54a.27.27,0,0,0,.15,0,.08.08,0,0,0,.05-.08.19.19,0,0,0,0-.12l-.88-2,.79-1.78a.82.82,0,0,0,.05-.14.13.13,0,0,0,0-.09.39.39,0,0,0-.14,0h-.47l-.13,0-.07,0,0,.06-.56,1.31L25.27,50a.43.43,0,0,0,0-.07.15.15,0,0,0-.08,0l-.15,0h-.25l-.28,0a.33.33,0,0,0-.15,0,.1.1,0,0,0,0,.09.39.39,0,0,0,0,.13l.82,1.81-.88,1.93A.21.21,0,0,0,24.22,54Z"/><path class="cls-2" d="M29.19,50.68a.75.75,0,0,1,.31.06,1.18,1.18,0,0,1,.22.14l.16.13a.22.22,0,0,0,.13.06s.07,0,.09-.1a1,1,0,0,0,0-.36,1,1,0,0,0,0-.18s0-.1,0-.13a.46.46,0,0,0,0-.09L30,50.13A.61.61,0,0,0,29.9,50a.72.72,0,0,0-.21-.12,1.14,1.14,0,0,0-.26-.09,1.27,1.27,0,0,0-.28,0,1.5,1.5,0,0,0-.64.14,1.28,1.28,0,0,0-.51.42,2,2,0,0,0-.33.71,3.73,3.73,0,0,0-.12,1,3.57,3.57,0,0,0,.1.91,1.86,1.86,0,0,0,.29.67,1.23,1.23,0,0,0,.47.41,1.39,1.39,0,0,0,.66.14,1.73,1.73,0,0,0,.32,0,1.15,1.15,0,0,0,.28-.09,1.36,1.36,0,0,0,.24-.13.69.69,0,0,0,.15-.13l.05-.08a.19.19,0,0,0,0-.08s0-.08,0-.13v-.2a1.55,1.55,0,0,0,0-.23.61.61,0,0,0,0-.15.19.19,0,0,0,0-.09l-.05,0a.26.26,0,0,0-.12.07,1.17,1.17,0,0,1-.16.15,1,1,0,0,1-.24.15.63.63,0,0,1-.32.07.57.57,0,0,1-.32-.08.59.59,0,0,1-.23-.24,1.41,1.41,0,0,1-.13-.41,2.33,2.33,0,0,1-.05-.56,2,2,0,0,1,.19-1A.58.58,0,0,1,29.19,50.68Z"/><path class="cls-2" d="M30.9,54.08a.25.25,0,0,0,.13,0h.44a.29.29,0,0,0,.14,0,.13.13,0,0,0,.07,0,.24.24,0,0,0,0-.08V48.17a.19.19,0,0,0,0-.08.22.22,0,0,0-.07-.06l-.14,0H31l-.13,0a.28.28,0,0,0-.08.06.19.19,0,0,0,0,.08V54a.24.24,0,0,0,0,.08A.16.16,0,0,0,30.9,54.08Z"/><path class="cls-2" d="M34.87,54a.1.1,0,0,0,.06,0,.21.21,0,0,0,.12,0h.37a.21.21,0,0,0,.12,0,.1.1,0,0,0,.06,0,.24.24,0,0,0,0-.08V50a.19.19,0,0,0,0-.08.18.18,0,0,0-.07-.05l-.14,0H35a.4.4,0,0,0-.13,0,.1.1,0,0,0-.07.05.11.11,0,0,0,0,.08v2.6a2.33,2.33,0,0,1-.37.45.51.51,0,0,1-.35.16.4.4,0,0,1-.24-.07.47.47,0,0,1-.16-.18.71.71,0,0,1-.1-.28,2.67,2.67,0,0,1,0-.47V50a.11.11,0,0,0,0-.08.1.1,0,0,0-.07-.05.39.39,0,0,0-.14,0h-.43l-.14,0a.13.13,0,0,0-.07.05.19.19,0,0,0,0,.08v2.4a3.92,3.92,0,0,0,.06.75,1.53,1.53,0,0,0,.2.53,1,1,0,0,0,.36.36,1,1,0,0,0,.55.13,1,1,0,0,0,.56-.18,2,2,0,0,0,.54-.52V54A.24.24,0,0,0,34.87,54Z"/><path class="cls-2" d="M37.75,53.28a.67.67,0,0,1-.38.11,1,1,0,0,1-.35,0,1.26,1.26,0,0,1-.26-.13,1,1,0,0,1-.19-.12.33.33,0,0,0-.12-.05H36.4s0,0,0,.07a.37.37,0,0,0,0,.12,1.15,1.15,0,0,0,0,.2,2.11,2.11,0,0,0,0,.3.64.64,0,0,0,.06.14l.13.1.21.1a2.46,2.46,0,0,0,.29.09,2,2,0,0,0,.35,0,1.67,1.67,0,0,0,.55-.09,1.14,1.14,0,0,0,.72-.68A1.39,1.39,0,0,0,38.52,52a1.88,1.88,0,0,0-.25-.24,2.09,2.09,0,0,0-.29-.16l-.29-.14-.25-.13a.93.93,0,0,1-.18-.16A.44.44,0,0,1,37.2,51a.88.88,0,0,1,0-.17.38.38,0,0,1,.09-.13.38.38,0,0,1,.15-.09.66.66,0,0,1,.21,0,.94.94,0,0,1,.3,0,1.33,1.33,0,0,1,.24.1l.17.09a.15.15,0,0,0,.1.05h.05l0-.06a.37.37,0,0,0,0-.12s0-.12,0-.2,0-.12,0-.17,0-.08,0-.11,0-.06,0-.08l0-.06L38.39,50l-.2-.09a1.49,1.49,0,0,0-.25-.07l-.29,0a1.63,1.63,0,0,0-.55.09,1.11,1.11,0,0,0-.4.26,1.07,1.07,0,0,0-.26.4,1.46,1.46,0,0,0-.09.52,1.33,1.33,0,0,0,.07.47,1.08,1.08,0,0,0,.17.34,1.13,1.13,0,0,0,.25.24,2.61,2.61,0,0,0,.28.17l.28.14a1.46,1.46,0,0,1,.25.13.52.52,0,0,1,.17.16.37.37,0,0,1,.07.23.42.42,0,0,1,0,.2A.4.4,0,0,1,37.75,53.28Z"/><path class="cls-2" d="M39.89,49.29a.53.53,0,0,0,.41-.13.73.73,0,0,0,.11-.46.69.69,0,0,0-.11-.44.71.71,0,0,0-.82,0,.75.75,0,0,0-.11.46.7.7,0,0,0,.11.45A.53.53,0,0,0,39.89,49.29Z"/><path class="cls-2" d="M40.11,49.87l-.22,0-.22,0a.49.49,0,0,0-.14,0,.22.22,0,0,0-.07.06.19.19,0,0,0,0,.08V54a.24.24,0,0,0,0,.08.13.13,0,0,0,.07,0,.29.29,0,0,0,.14,0h.44a.25.25,0,0,0,.13,0,.16.16,0,0,0,.08,0,.24.24,0,0,0,0-.08V50a.19.19,0,0,0,0-.08l-.08-.06A.42.42,0,0,0,40.11,49.87Z"/><path class="cls-2" d="M44,49.86h-.43l-.14,0-.07.06a.32.32,0,0,0,0,.09l-.72,2.88,0,.11,0-.11L41.8,50l0-.09a.22.22,0,0,0-.07-.06l-.14,0h-.46l-.14,0-.07.06a.19.19,0,0,0,0,.07v.06a.87.87,0,0,1,0,.1l0,.16,1,3.55a.37.37,0,0,0,.05.11.21.21,0,0,0,.1.08.66.66,0,0,0,.18,0h.63a.69.69,0,0,0,.18,0,.2.2,0,0,0,.1-.07.33.33,0,0,0,0-.12l1-3.55a.52.52,0,0,0,0-.11s0-.06,0-.09v-.06a.13.13,0,0,0,0-.06.19.19,0,0,0,0-.07.22.22,0,0,0-.07-.06Z"/><path class="cls-2" d="M47.5,52.17a.55.55,0,0,0,.07-.3V51.7a3.13,3.13,0,0,0-.09-.77,1.63,1.63,0,0,0-.26-.6,1.32,1.32,0,0,0-.47-.41,1.59,1.59,0,0,0-.68-.14,1.48,1.48,0,0,0-.68.15,1.32,1.32,0,0,0-.52.45,2.22,2.22,0,0,0-.32.71,4.16,4.16,0,0,0,0,1.9,1.72,1.72,0,0,0,.32.68,1.31,1.31,0,0,0,.53.4,1.88,1.88,0,0,0,.74.13,2.15,2.15,0,0,0,.45,0,2,2,0,0,0,.37-.09,1.28,1.28,0,0,0,.26-.1.42.42,0,0,0,.13-.08l0-.07a.19.19,0,0,0,0-.08s0-.07,0-.11v-.17a1,1,0,0,0,0-.18.27.27,0,0,0,0-.11.09.09,0,0,0,0-.06h0a.27.27,0,0,0-.14,0l-.22.09-.31.09a1.73,1.73,0,0,1-.41,0,1,1,0,0,1-.4-.07.64.64,0,0,1-.27-.22,1.07,1.07,0,0,1-.16-.34,2.19,2.19,0,0,1,0-.46h1.93A.24.24,0,0,0,47.5,52.17Zm-2.14-.61a1.6,1.6,0,0,1,0-.39,1,1,0,0,1,.13-.32.53.53,0,0,1,.21-.21.55.55,0,0,1,.29-.08.56.56,0,0,1,.51.27,1.37,1.37,0,0,1,.15.73Z"/></g></g></svg>