<svg xmlns="http://www.w3.org/2000/svg" viewBox="0 0 72 72"><defs><style>.cls-1{fill:#333;}.cls-2{fill:#fff;}</style></defs><g id="Layer_2" data-name="Layer 2"><g id="Layer_5" data-name="Layer 5"><circle class="cls-1" cx="36" cy="36" r="36"/><path class="cls-2" d="M12,25.39A14.23,14.23,0,0,0,32.13,45.52a15.63,15.63,0,0,0,3.11-4.6H45l2.42-2.53c.69.69,2.3,2.41,2.41,2.41a2.27,2.27,0,0,0,1.73-.11c.11-.12,1.72-1.84,2.3-2.3.69.69,2.41,2.3,2.53,2.41s.46.12.69.12h.46c.11,0,.46.11,3-2.53.69.69,2.18,2.18,2.41,2.3a1.24,1.24,0,0,0,1.38.11.43.43,0,0,1,.23-.11c.69-.69,3.68-4.37,3.8-4.6a1.74,1.74,0,0,0,.23-.92v-.12c-.12-.69-5.64-5.17-5.64-5.17-.23-.12-2.18-.23-19.89-.12H35.24a13.61,13.61,0,0,0-3-4.25A14.33,14.33,0,0,0,12,25.39Zm32.31,9.32a.81.81,0,0,1,0-1.61H59.16a.78.78,0,0,1,.8.8,1.57,1.57,0,0,1-.23.69,1.18,1.18,0,0,1-.69.23l-14.72-.11Zm-6.78,0a.81.81,0,1,1,0-1.61h3.91a.78.78,0,0,1,.8.8,1.57,1.57,0,0,1-.23.69,1.18,1.18,0,0,1-.69.23l-3.79-.11ZM18.45,38.27a4,4,0,1,1,0-5.63,3.9,3.9,0,0,1,0,5.63Z"/></g></g></svg>