<svg xmlns="http://www.w3.org/2000/svg" viewBox="0 0 72 72"><defs><style>.cls-1{fill:#333;}.cls-2{fill:#fff;}</style></defs><g id="Layer_2" data-name="Layer 2"><g id="Layer_5" data-name="Layer 5"><circle class="cls-1" cx="36" cy="36" r="36"/><path class="cls-2" d="M52.08,31.32H48.8V23.39a12.94,12.94,0,0,0-25.88,0v7.93H19.65a3.4,3.4,0,0,0-3.28,3.28V57.2a3.4,3.4,0,0,0,3.28,3.28H51.9a3.4,3.4,0,0,0,3.28-3.28V34.6a3,3,0,0,0-3.1-3.28Zm-9.66,0H29.48V23.39a6.56,6.56,0,1,1,13.11,0l-.17,7.93Z"/></g></g></svg>