<svg xmlns="http://www.w3.org/2000/svg" viewBox="0 0 72 72"><defs><style>.cls-1{fill:#333;}.cls-2{fill:#fff;}</style></defs><g id="Layer_2" data-name="Layer 2"><g id="Layer_5" data-name="Layer 5"><circle class="cls-1" cx="36" cy="36" r="36"/><path class="cls-2" d="M59,28.1a7.19,7.19,0,0,0-7.2,7.16l-9.9-4.06,1.81,3.1H24.8a7.2,7.2,0,1,0,0,2H43.68l-1.8,3,9.9-4A7.2,7.2,0,1,0,59,28.1Z"/><path class="cls-2" d="M26.48,23.4a7.19,7.19,0,0,0,5.93-3.13l12.91,7.91L42.18,29.9l10.6,1.7-6.3-8.7-.08,3.59-13.1-8a7.11,7.11,0,0,0,.38-2.27,7.2,7.2,0,1,0-7.2,7.2Z"/><path class="cls-2" d="M45.38,42.37,32.06,50.44l0,.06A7.19,7.19,0,1,0,33.68,55a7.24,7.24,0,0,0-.6-2.88v0L46.4,44.09l.08,3.51,6.3-8.6-10.6,1.7Z"/></g></g></svg>