<svg xmlns="http://www.w3.org/2000/svg" viewBox="0 0 72 72"><defs><style>.cls-1{fill:#333;}.cls-2{fill:#fff;}</style></defs><g id="Layer_2" data-name="Layer 2"><g id="Layer_5" data-name="Layer 5"><circle class="cls-1" cx="36" cy="36" r="36"/><path class="cls-2" d="M41.92,38.21l.14.16a2.1,2.1,0,0,0,1.47.61h1.3L61.46,52.15V19.59h0a1.87,1.87,0,0,0-.11-.77l-10.88,8.6v-1.3a2.12,2.12,0,0,0-.21-.9l9.33-7.39H12.29l11.49,9.09A4.34,4.34,0,0,0,23,28.57l0,.13L10.64,18.93a1.78,1.78,0,0,0-.1.77V52.37L24.88,41a4.24,4.24,0,0,0,.88.1h1.86L16.91,49.62,12.4,53.25H59.59l-4.51-3.63L41.44,38.73l-.06,0a2.17,2.17,0,0,0,.44-.36Zm7.55-12.09V36.9a1.07,1.07,0,0,1-.32.76,1,1,0,0,1-.76.32H43.53a1.07,1.07,0,0,1-.76-.32,1,1,0,0,1-.27-.53,1,1,0,0,1,0-.23V26.12a1.07,1.07,0,0,1,.32-.76,1,1,0,0,1,.76-.32h4.86a1.07,1.07,0,0,1,.76.32,1.11,1.11,0,0,1,.28.52A1.72,1.72,0,0,1,49.47,26.12Zm-8.08,10.8a1,1,0,0,1-.3.72,1,1,0,0,1-.63.32l-.1,0c-.27,0-.69.35-1.28,1s-1.15,1.31-1.7,2a25.36,25.36,0,0,1-1.7,2,2.68,2.68,0,0,0-.51.82,5.74,5.74,0,0,0-.3.81c-.06.21-.13.55-.23,1s-.15.78-.22,1a4,4,0,0,1-.33.87,3.11,3.11,0,0,1-.57.83,1,1,0,0,1-.76.32,4.59,4.59,0,0,1-1.39-.18,3.79,3.79,0,0,1-1-.44,2.67,2.67,0,0,1-.67-.67,4.93,4.93,0,0,1-.41-.77,2.91,2.91,0,0,1-.19-.83c-.06-.34-.07-.58-.09-.76v-.66a5,5,0,0,1,.16-1.27,5.52,5.52,0,0,1,.32-1,9.74,9.74,0,0,1,.46-.94c0-.07.09-.16.16-.3a6.82,6.82,0,0,0,.32-.78H25.76a3.28,3.28,0,0,1-3.23-3.23,3.72,3.72,0,0,1,.92-2.52,4.28,4.28,0,0,1-.25-1.27,3.56,3.56,0,0,1,.73-2.31,3.32,3.32,0,0,1-.12-1.37,4.25,4.25,0,0,1,.12-.6,3.23,3.23,0,0,1,.63-1.27,2.61,2.61,0,0,1,.27-.3,4,4,0,0,1,.84-3A4.14,4.14,0,0,1,29,22.88h2.16a12.83,12.83,0,0,1,2.43.26,19.67,19.67,0,0,1,2,.5c.5.16,1.17.37,2,.67a13.41,13.41,0,0,0,2.66.75,1.17,1.17,0,0,1,.76.33.88.88,0,0,1,.34.73v10.8Z"/><path class="cls-2" d="M47,27.5a1,1,0,0,0-.76-.32,1.05,1.05,0,0,0-.76.32,1,1,0,0,0-.32.77,1,1,0,0,0,.31.75h0a1,1,0,0,0,.76.32A1,1,0,0,0,47,29a1.05,1.05,0,0,0,.32-.76,1,1,0,0,0-.18-.57A1.43,1.43,0,0,0,47,27.5Z"/></g></g></svg>