<svg xmlns="http://www.w3.org/2000/svg" viewBox="0 0 69.6 69.6"><defs><style>.cls-1{fill:#333;}.cls-2{fill:#fff;}</style></defs><g id="Layer_2" data-name="Layer 2"><g id="Layer_5" data-name="Layer 5"><circle class="cls-1" cx="34.8" cy="34.8" r="34.8"/><path class="cls-2" d="M57.2,24.1,53.9,22v5l3.5-2.8h0a.35.35,0,0,1-.2-.1Z"/><path class="cls-2" d="M32.5,39.8a4,4,0,0,1,4.8,0l.2.2L52.2,28.3V9a1.42,1.42,0,0,0-.2-.6.73.73,0,0,0-.6-.2H18.3a.79.79,0,0,0-.8.8V28.3L32.2,40Z"/><path class="cls-2" d="M30.9,41.1,11.7,25.9V55.6a1.7,1.7,0,0,0,.1.7Z"/><path class="cls-2" d="M15.8,22l-3.3,2.1-.1.1L15.9,27l-.1-5Z"/><path class="cls-2" d="M58,25.8,38.8,41,57.9,56.1a1.48,1.48,0,0,0,.1-.7V25.8Z"/><path class="cls-2" d="M33.5,41.1,13.4,57.2h43L36.3,41.1a2.35,2.35,0,0,0-1.3-.5,2.46,2.46,0,0,0-1.5.5Z"/><polygon class="cls-2" points="32.48 18.11 37.78 21.26 32.48 24.5 32.48 18.11"/><path class="cls-1" d="M33.1,19.19l3.42,2.07L33.1,23.42V19.19M31.84,17v8.55l1.89-1.17,3.42-2.16L39,21.17l-1.8-1.08L33.73,18l-1.89-1Z"/><path class="cls-2" d="M24.1,30.89a2.55,2.55,0,0,1-1.88-.81,2.6,2.6,0,0,1-.82-1.89V14.42a2.79,2.79,0,0,1,2.7-2.7H44.72a2.57,2.57,0,0,1,1.88.81,2.6,2.6,0,0,1,.82,1.89V28.19a2.43,2.43,0,0,1-.82,1.89,2.57,2.57,0,0,1-1.88.81Zm20-3.51h0L44,28.1h.08v-.72Zm-2.7,0c-.09,0-.09.09,0,0l-.08.72h.08v-.72Zm-2.79,0h0l-.09.72h.09v-.72Zm-2.79,0h0l-.08.72h.08v-.72Zm-2.7,0c-.09,0-.09.09,0,0L33,28.1h.08v-.72Zm-2.79,0h0l-.09.72h.09v-.72Zm-2.7,0c-.09,0-.09.09,0,0l-.09.72h.09v-.72Zm-2.79,0h0l-.09.72h.09v-.72Zm8.28-8.91a.55.55,0,0,0-.36.09l-.27.27a.54.54,0,0,0-.09.36v4.23a.54.54,0,0,0,.09.36l.27.27a.54.54,0,0,0,.36.09c.18,0,.27,0,.37-.09L36.88,22a.74.74,0,0,0,.37-.63.67.67,0,0,0-.37-.63l-3.51-2.07c0-.09-.18-.18-.27-.18v0Zm11-4.14h0l-.08.72h.08v-.72Zm-2.7,0h0l-.08.72h.08v-.72Zm-2.79,0h0l-.09.72h.09v-.72Zm-2.79,0h0l-.08.72h.08v-.72Zm-2.7,0h0l-.08.72h.08v-.72Zm-2.79,0h0l-.09.72h.09v-.72Zm-2.7,0h0l-.09.72h.09v-.72Zm-2.79,0h0l-.09.72h.09v-.72Z"/><path class="cls-1" d="M44.8,12.35a1.79,1.79,0,0,1,1.44.63,2.12,2.12,0,0,1,.63,1.44V28.19a1.79,1.79,0,0,1-.63,1.44,2.12,2.12,0,0,1-1.44.63H24.19a1.79,1.79,0,0,1-1.44-.63,2.12,2.12,0,0,1-.63-1.44V14.42A1.79,1.79,0,0,1,22.75,13a2.14,2.14,0,0,1,1.44-.63H44.8m-.72,3.42a.7.7,0,0,0,.72-.72v-.72a.71.71,0,0,0-.72-.72.7.7,0,0,0-.71.72v.72c.08.45.35.72.71.72m-2.7,0a.7.7,0,0,0,.72-.72v-.72a.71.71,0,0,0-.72-.72.7.7,0,0,0-.71.72v.72a.65.65,0,0,0,.71.72m-2.79,0a.71.71,0,0,0,.72-.72v-.72a.72.72,0,1,0-1.44,0v.72a.71.71,0,0,0,.72.72m-8.28,0a.71.71,0,0,0,.72-.72h0v-.72a.72.72,0,0,0-1.44,0v.72c.09.45.36.72.72.72m-2.7,0a.71.71,0,0,0,.72-.72v-.72a.71.71,0,0,0-.72-.72.66.66,0,0,0-.72.72v.72a.66.66,0,0,0,.72.72m-2.79,0a.71.71,0,0,0,.72-.72v-.72a.72.72,0,1,0-1.44,0v.72a.71.71,0,0,0,.72.72m11,0a.7.7,0,0,0,.72-.72v-.72a.72.72,0,1,0-1.44,0v.72c.09.45.36.72.72.72m-3.42-1.35h0v.72a.72.72,0,0,0,1.44,0v-.72a.71.71,0,0,0-.72-.72.77.77,0,0,0-.72.72m.72,10.35h0a1.7,1.7,0,0,0,.72-.18h0l3.42-2.07h0a1.4,1.4,0,0,0,0-2.34h0l-3.42-2.07a1.7,1.7,0,0,0-.72-.18h0a2.12,2.12,0,0,0-.72.18,2.15,2.15,0,0,0-.53.45,1.7,1.7,0,0,0-.18.72v4.23a1.91,1.91,0,0,0,.18.72.9.9,0,0,0,.53.45c.18,0,.45.09.72.09m11,4.05a.7.7,0,0,0,.72-.72v-.72a.71.71,0,0,0-.72-.72.7.7,0,0,0-.71.72v.72c.08.45.35.72.71.72m-2.7,0a.7.7,0,0,0,.72-.72v-.72a.71.71,0,0,0-.72-.72.7.7,0,0,0-.71.72v.72a.65.65,0,0,0,.71.72m-2.79,0a.71.71,0,0,0,.72-.72v-.72a.72.72,0,0,0-1.44,0v.72a.71.71,0,0,0,.72.72m-2.79,0a.7.7,0,0,0,.72-.72h0v-.72a.72.72,0,0,0-1.44,0v.72c.09.45.36.72.72.72m-2.7,0a.7.7,0,0,0,.72-.72h0v-.72a.72.72,0,0,0-1.44,0v.72a.71.71,0,0,0,.72.72m-2.79,0A.71.71,0,0,0,31,28.1h0v-.72a.72.72,0,1,0-1.44,0v.72c.09.45.36.72.72.72m-2.7,0a.71.71,0,0,0,.72-.72v-.72a.71.71,0,0,0-.72-.72.66.66,0,0,0-.72.72v.72a.66.66,0,0,0,.72.72m-2.79,0a.71.71,0,0,0,.72-.72v-.72a.72.72,0,0,0-1.44,0v.72a.71.71,0,0,0,.72.72m20-17.73H24.19a3.36,3.36,0,0,0-3.32,3.33V28.19a3.36,3.36,0,0,0,3.32,3.33H44.8a3.38,3.38,0,0,0,3.33-3.33V14.42a3.38,3.38,0,0,0-3.33-3.33Z"/></g></g></svg>