<svg xmlns="http://www.w3.org/2000/svg" viewBox="0 0 72 72"><defs><style>.cls-1{fill:#333;}.cls-2{fill:#fff;}</style></defs><g id="Layer_2" data-name="Layer 2"><g id="Layer_5" data-name="Layer 5"><circle class="cls-1" cx="36" cy="36" r="36"/><path class="cls-2" d="M61.46,19.59h0a1.87,1.87,0,0,0-.11-.77L50.52,27.39a6,6,0,0,0,.07-.84,5.57,5.57,0,0,0-.19-1.44l9.19-7.28H12.29l10.17,8.05c0,.17-.05.34-.05.51A5.12,5.12,0,0,0,23,28.75L10.64,18.93a1.78,1.78,0,0,0-.1.77V52.37l12-9.52A5.56,5.56,0,0,0,22.41,44a5.24,5.24,0,0,0,.13,1.14l-5.63,4.48L12.4,53.25H59.59l-4.51-3.63-4.84-3.87a5.2,5.2,0,0,0,.35-1.9v-.12l0-.13s0-.06,0-.09l10.9,8.64ZM49.09,43.85a3.68,3.68,0,0,1-.11.89,4.86,4.86,0,0,1-1,1.89,3.93,3.93,0,0,1-5.41,0l-6.17-6.18-6.18,6.18a4.39,4.39,0,0,1-2.63,1.08A4,4,0,0,1,25,46.63a3.6,3.6,0,0,1-1.07-2.58.43.43,0,0,1,0,0A3.71,3.71,0,0,1,25,41.38l2.19-2.19,4-4,0,0L25,29a3.57,3.57,0,0,1-1-1.94,4,4,0,0,1-.06-.69A3.69,3.69,0,0,1,25,23.77a4.4,4.4,0,0,1,2.63-1.09,4,4,0,0,1,2.63,1.09l6.18,6.17,6.17-6.17a3.61,3.61,0,0,1,2.63-1.09A4.43,4.43,0,0,1,48,23.77a3.55,3.55,0,0,1,1.05,2.4c0,.12,0,.25,0,.38a3.29,3.29,0,0,1-1.23,2.62l-1.51,1.51-4.67,4.67,6.18,5.87a3.55,3.55,0,0,1,.35.44A4.77,4.77,0,0,1,49.09,43.85Z"/></g></g></svg>