<svg xmlns="http://www.w3.org/2000/svg" viewBox="0 0 69.6 69.6"><defs><style>.cls-1{fill:#333;}.cls-2,.cls-3{fill:#fff;}.cls-3{stroke:#333;stroke-miterlimit:10;stroke-width:1.2px;}</style></defs><g id="Layer_2" data-name="Layer 2"><g id="Layer_5" data-name="Layer 5"><circle class="cls-1" cx="34.8" cy="34.8" r="34.8"/><path class="cls-2" d="M57.2,24.1,53.9,22v5l3.5-2.8h0a.35.35,0,0,1-.2-.1Z"/><path class="cls-2" d="M32.5,39.8a4,4,0,0,1,4.8,0l.2.2L52.2,28.3V9a1.42,1.42,0,0,0-.2-.6.73.73,0,0,0-.6-.2H18.3a.79.79,0,0,0-.8.8V28.3L32.2,40Z"/><path class="cls-2" d="M30.9,41.1,11.7,25.9V55.6a1.7,1.7,0,0,0,.1.7Z"/><path class="cls-2" d="M15.8,22l-3.3,2.1-.1.1L15.9,27l-.1-5Z"/><path class="cls-2" d="M58,25.8,38.8,41,57.9,56.1a1.48,1.48,0,0,0,.1-.7V25.8Z"/><path class="cls-2" d="M33.5,41.1,13.4,57.2h43L36.3,41.1a2.35,2.35,0,0,0-1.3-.5,2.46,2.46,0,0,0-1.5.5Z"/><path class="cls-2" d="M34.17,32.65a3.77,3.77,0,0,1-1.44-.36,3,3,0,0,1-1.44-2.52v-.54h5.85v.54a2.87,2.87,0,0,1-1.44,2.52A3,3,0,0,1,34.17,32.65Z"/><path class="cls-1" d="M36.6,29.77a2.49,2.49,0,0,1-1.17,2.07,2.93,2.93,0,0,1-1.17.36,2,2,0,0,1-1.17-.36,2.38,2.38,0,0,1-1.17-2.07H36.6m1.08-1.08H30.75v1.08a3.37,3.37,0,0,0,1.71,3,3.47,3.47,0,0,0,3.42,0,3.47,3.47,0,0,0,1.71-3l.09-1.08Z"/><path class="cls-3" d="M34.8,10.15a.63.63,0,1,1-.63-.63.76.76,0,0,1,.63.63"/><path class="cls-2" d="M25.35,29.14a1.14,1.14,0,0,1-.81-.36c-.18-.27-.36-.54-.27-.81a1.24,1.24,0,0,1,1.17-1.08h0a.88.88,0,0,0,.81-.36,1.34,1.34,0,0,0,.36-.81V19.33a8.11,8.11,0,0,1,2.07-5.4,8.22,8.22,0,0,1,5.22-2.52h.36a7.68,7.68,0,0,1,7.65,7.65v6.57a1,1,0,0,0,.36.81,1.34,1.34,0,0,0,.81.36h.09A1.12,1.12,0,0,1,44.25,28a1.24,1.24,0,0,1-1.17,1.08Zm8.82-15.48a5,5,0,0,0-3.78,1.62,5.39,5.39,0,0,0-1.62,3.78h.09a5.46,5.46,0,0,1,1.53-3.78,5.8,5.8,0,0,1,3.78-1.62Z"/><path class="cls-1" d="M34.17,12a7.07,7.07,0,0,1,7.11,7.11v6.57a1.45,1.45,0,0,0,.54,1.17,1.58,1.58,0,0,0,1.17.54h.09a.62.62,0,0,1,.63.63h0a.77.77,0,0,1-.63.54H25.35a.62.62,0,0,1-.63-.63.77.77,0,0,1,.63-.54h0a1.45,1.45,0,0,0,1.17-.54,1.58,1.58,0,0,0,.54-1.17V19.24a7.31,7.31,0,0,1,1.89-5,7.55,7.55,0,0,1,4.86-2.34.68.68,0,0,0,.36.09m-5.31,7.74a.62.62,0,0,0,.63-.63,5,5,0,0,1,1.35-3.33,4.62,4.62,0,0,1,3.33-1.35.63.63,0,0,0,0-1.26,6.32,6.32,0,0,0-4.23,1.71,6,6,0,0,0-1.71,4.23c.09.36.27.63.63.63m5.31-8.82h-.45A8.15,8.15,0,0,0,26,19.24v6.39a.62.62,0,0,1-.63.63h0a1.82,1.82,0,0,0-1.71,1.44v.18a1.68,1.68,0,0,0,.45,1.26,1.45,1.45,0,0,0,1.17.54H43a1.67,1.67,0,0,0,1.71-1.44v-.18a1.69,1.69,0,0,0-1.62-1.71H43a.62.62,0,0,1-.63-.63V19.15a7.82,7.82,0,0,0-2.43-5.76,7.62,7.62,0,0,0-5.76-2.52Z"/></g></g></svg>