<svg xmlns="http://www.w3.org/2000/svg" viewBox="0 0 72 72"><defs><style>.cls-1{fill:#333;}.cls-2{fill:#fff;}</style></defs><g id="Layer_2" data-name="Layer 2"><g id="Layer_5" data-name="Layer 5"><circle class="cls-1" cx="36" cy="36" r="36"/><path class="cls-2" d="M58.35,24.1,55.05,22v5l3.5-2.8A.35.35,0,0,1,58.35,24.1Z"/><path class="cls-2" d="M33.65,39.8a4,4,0,0,1,4.8,0l.2.2,14.7-11.7V9a1.42,1.42,0,0,0-.2-.6.73.73,0,0,0-.6-.2H19.45a.79.79,0,0,0-.8.8V28.3L33.35,40ZM46.67,17a1.14,1.14,0,0,1-.31-.34.72.72,0,0,1-.08-.38.88.88,0,0,1,.14-.49.43.43,0,0,1,.35-.21.79.79,0,0,1,.37.2l4.66,3.69-4.66,3.69a.79.79,0,0,1-.37.2.43.43,0,0,1-.35-.21.92.92,0,0,1-.14-.5.72.72,0,0,1,.08-.38,1.14,1.14,0,0,1,.31-.34l3.12-2.46Zm-5.33,5.2a.56.56,0,0,1,.49-.19H43V16h-.78a.6.6,0,0,1-.49-.19.8.8,0,0,1-.15-.5.78.78,0,0,1,.15-.5.57.57,0,0,1,.49-.19H44V22h1.15a.58.58,0,0,1,.5.19.78.78,0,0,1,.15.5.75.75,0,0,1-.15.49.58.58,0,0,1-.5.19H41.83a.56.56,0,0,1-.49-.19.76.76,0,0,1-.15-.5A.77.77,0,0,1,41.34,22.18Zm-6.56-3.73a.77.77,0,0,1-.14-.49.85.85,0,0,1,.14-.5.63.63,0,0,1,.5-.19h.92v.39a1.87,1.87,0,0,1,.42-.45.76.76,0,0,1,.44-.13.68.68,0,0,1,.42.15,1.76,1.76,0,0,1,.41.44,2.19,2.19,0,0,1,.5-.44,1.17,1.17,0,0,1,.53-.14,1.07,1.07,0,0,1,.87.41,2.13,2.13,0,0,1,.44,1.41V22a.53.53,0,0,1,.45.19.8.8,0,0,1,.15.5.75.75,0,0,1-.15.49.58.58,0,0,1-.5.19h-.91V19a.85.85,0,0,0-.08-.43.29.29,0,0,0-.25-.12.44.44,0,0,0-.29.12,2.63,2.63,0,0,0-.43.63V22a.53.53,0,0,1,.45.19.8.8,0,0,1,.15.5.75.75,0,0,1-.15.49.57.57,0,0,1-.49.19h-.92V19a.88.88,0,0,0-.08-.43.29.29,0,0,0-.25-.12.52.52,0,0,0-.34.15,2.19,2.19,0,0,0-.39.6V22a.53.53,0,0,1,.45.19.8.8,0,0,1,.15.5.75.75,0,0,1-.15.49.59.59,0,0,1-.5.19h-.87a.59.59,0,0,1-.5-.19.82.82,0,0,1-.14-.5.77.77,0,0,1,.14-.49.53.53,0,0,1,.45-.19V18.65A.54.54,0,0,1,34.78,18.45Zm-10,3.46a1.2,1.2,0,0,1,.32.34.82.82,0,0,1,.08.38.84.84,0,0,1-.15.5.42.42,0,0,1-.34.21.81.81,0,0,1-.38-.2l-4.65-3.69,4.65-3.69a.76.76,0,0,1,.38-.2.42.42,0,0,1,.34.21.81.81,0,0,1,.15.49.82.82,0,0,1-.08.38,1.2,1.2,0,0,1-.32.34l-3.12,2.47Zm1.39,2.9a.38.38,0,0,1-.29.14.42.42,0,0,1-.34-.2.77.77,0,0,1-.15-.46,1.79,1.79,0,0,1,.12-.53l3.1-9.49a1.71,1.71,0,0,1,.2-.47.42.42,0,0,1,.3-.14.42.42,0,0,1,.34.2.77.77,0,0,1,.14.45,2.06,2.06,0,0,1-.11.53l-3.09,9.5A1.36,1.36,0,0,1,26.15,24.81Zm6.13-1.64a.76.76,0,0,1-.14-.5.85.85,0,0,1,.1-.43.54.54,0,0,1,.29-.25l-.72-.89-.73.89a.52.52,0,0,1,.31.25.78.78,0,0,1,.1.43.76.76,0,0,1-.15.5.56.56,0,0,1-.49.19H29.76a.56.56,0,0,1-.49-.19.76.76,0,0,1-.15-.5.81.81,0,0,1,.13-.47.48.48,0,0,1,.39-.21l1.44-1.8-1.27-1.54a.5.5,0,0,1-.38-.22A.81.81,0,0,1,29.3,18a.78.78,0,0,1,.15-.5.61.61,0,0,1,.5-.19h.9a.63.63,0,0,1,.5.19.77.77,0,0,1,.14.49.82.82,0,0,1-.26.64l.58.69.58-.7a.84.84,0,0,1-.26-.6.82.82,0,0,1,.15-.52.6.6,0,0,1,.49-.19h.9a.63.63,0,0,1,.5.19.87.87,0,0,1,.14.5.79.79,0,0,1-.13.47.48.48,0,0,1-.38.22L32.53,20.2,34,22a.49.49,0,0,1,.4.21.82.82,0,0,1,.13.48.75.75,0,0,1-.15.49.57.57,0,0,1-.49.19h-1.1A.59.59,0,0,1,32.28,23.17Z"/><path class="cls-2" d="M12.85,25.9V55.6a1.7,1.7,0,0,0,.1.7l19.1-15.2Z"/><polygon class="cls-2" points="16.95 22 13.65 24.1 13.55 24.2 17.05 27 16.95 22"/><path class="cls-2" d="M59.05,56.1a1.48,1.48,0,0,0,.1-.7V25.8L40,41Z"/><polygon class="cls-2" points="59.15 25.8 59.15 25.8 59.15 25.8 59.15 25.8"/><path class="cls-2" d="M36.15,40.6a2.46,2.46,0,0,0-1.5.5L14.55,57.2h43L37.45,41.1A2.35,2.35,0,0,0,36.15,40.6Z"/></g></g></svg>