<svg xmlns="http://www.w3.org/2000/svg" viewBox="0 0 72 72"><defs><style>.cls-1{fill:#333;}.cls-2{fill:#fff;}</style></defs><g id="Layer_2" data-name="Layer 2"><g id="Layer_5" data-name="Layer 5"><circle class="cls-1" cx="36" cy="36" r="36"/><path class="cls-2" d="M44.75,38.92,61.46,52.15V19.59a1.87,1.87,0,0,0-.11-.77l-15,11.89-2.51-.37L59.59,17.83H12.29L28.23,30.45l-2.62.38-15-11.9a1.78,1.78,0,0,0-.1.77V52.37L27.39,39l.6.59v.1L27.77,41,16.91,49.62,12.4,53.25H59.59l-4.51-3.63L44.27,41l-.22-1.26v-.1Zm-1.84,1.22,1.46,8.66-7.52-4.07a1.4,1.4,0,0,0-.73-.21,1.88,1.88,0,0,0-.73.21L27.88,48.8l1.46-8.66a.94.94,0,0,0,0-.41,1.6,1.6,0,0,0-.42-.84l-.61-.6-5.55-5.46,4.51-.66,2.63-.39,1.31-.2a1.42,1.42,0,0,0,1-.83l4-7.93L40,30.64a1.68,1.68,0,0,0,1.05.84l1.12.16,2.51.38,4.82.71-5.54,5.54-.62.62a1.52,1.52,0,0,0-.43,1A1.1,1.1,0,0,0,42.91,40.14Z"/></g></g></svg>