<svg xmlns="http://www.w3.org/2000/svg" viewBox="0 0 69.6 69.6"><defs><style>.cls-1{fill:#333;}.cls-2{fill:#fff;}</style></defs><g id="Layer_2" data-name="Layer 2"><g id="Layer_5" data-name="Layer 5"><circle class="cls-1" cx="34.8" cy="34.8" r="34.8"/><path class="cls-2" d="M9.44,18.19a1.63,1.63,0,0,0-.11.77V51.63L30.46,34.91Z"/><path class="cls-2" d="M60.26,18.85a1.87,1.87,0,0,0-.11-.77l-21,16.61L60.26,51.41V18.85Z"/><path class="cls-2" d="M36.11,41.27a2.2,2.2,0,0,1,.32.21,1.21,1.21,0,0,1,.2.14,2.27,2.27,0,0,1,.44.49l.06.09a4,4,0,0,1,.41,1c0,.05,0,.1,0,.15l0,.1,1-1.48a2.21,2.21,0,0,0,.27-1.85,2.26,2.26,0,0,0-1.19-1.38,6.89,6.89,0,0,0-1.55-.52,1.1,1.1,0,0,1,0,.18Z"/><path class="cls-2" d="M34.53,43.19a.38.38,0,0,0,.39.37.39.39,0,0,0,.4-.37V38.42a.38.38,0,0,0-.11-.25l-.07,0a.42.42,0,0,0-.21-.08h0a.36.36,0,0,0-.21.08s-.06,0-.08,0a.33.33,0,0,0-.1.24V41h0Z"/><path class="cls-2" d="M40.24,38l-2.53-2,0,0V33.49l20.7-16.4H37.3V37.82a5.18,5.18,0,0,1,.7.29h0a3,3,0,0,1,1.58,1.83,2.92,2.92,0,0,1,.12.83,3,3,0,0,1-.47,1.6l-1.52,2.35a4.7,4.7,0,0,0,.48,2.35h0a2.4,2.4,0,0,1,.29,1.09,2.11,2.11,0,0,1,0,.25,3.42,3.42,0,0,1-3.55,3.22,3.31,3.31,0,0,1-3.49-3.22,2.21,2.21,0,0,1,.27-1.34,4.72,4.72,0,0,0,.49-2.25L30.6,42.37a2.91,2.91,0,0,1-.35-2.43,3,3,0,0,1,1.59-1.83,4.81,4.81,0,0,1,.71-.29V17.09H11.09L31.94,33.6v2.45l-2.81,2.16L15.71,48.88,11.2,52.51H58.39l-4.51-3.63Z"/><path class="cls-2" d="M34.53,17.27a.39.39,0,0,1-.4.37h-.79v.73h.79a.37.37,0,1,1,0,.73h-.79v.74h.79a.37.37,0,1,1,0,.73h-.79v.74h.79a.37.37,0,1,1,0,.73h-.79v.73h.79a.37.37,0,1,1,0,.74h-.79v.73h.79a.37.37,0,1,1,0,.74h-.79v.73h.79a.37.37,0,1,1,0,.73h-.79v.74h.79a.37.37,0,1,1,0,.73h-.79v.74h.79a.37.37,0,1,1,0,.73h-.79V30h.79a.37.37,0,1,1,0,.73h-.79v.73h.79a.37.37,0,1,1,0,.74h-.79v.73h.79a.37.37,0,1,1,0,.74h-.79v.73h.79a.37.37,0,1,1,0,.73h-.79v.74h.79a.37.37,0,1,1,0,.73h-.79v1a11,11,0,0,1,1.38-.25h.4a11.41,11.41,0,0,1,1.39.25V35.85h-.8a.37.37,0,1,1,0-.74h.8v-.73h-.8a.37.37,0,1,1,0-.73h.8v-.74h-.8a.37.37,0,1,1,0-.73h.8v-.74h-.8a.37.37,0,1,1,0-.73h.8v-.66h-.8a.37.37,0,1,1,0-.74h.8v-.66h-.8a.37.37,0,1,1,0-.74h.8v-.73h-.8a.37.37,0,1,1,0-.74h.8v-.73h-.8a.37.37,0,1,1,0-.73h.8v-.74h-.8a.37.37,0,1,1,0-.73h.8v-.74h-.8a.37.37,0,1,1,0-.73h.8v-.73h-.8a.37.37,0,1,1,0-.74h.8v-.73h-.8a.37.37,0,1,1,0-.74h.8v-.73h-.8a.37.37,0,1,1,0-.73h.8v-.55H34.16C34.37,17.11,34.53,17.08,34.53,17.27Z"/><path class="cls-2" d="M31,40.14A2.21,2.21,0,0,0,31.28,42l1,1.54c0-.05,0-.09,0-.14a1.21,1.21,0,0,1,0-.18,4.09,4.09,0,0,1,.4-1,2.33,2.33,0,0,1,.47-.56l.2-.14a3.06,3.06,0,0,1,.29-.21V38.42a1.1,1.1,0,0,1,0-.18,6.66,6.66,0,0,0-1.54.52A2.27,2.27,0,0,0,31,40.14Z"/><path class="cls-2" d="M33.34,47.79v1.08a1,1,0,0,0,1,.92H35.5a1,1,0,0,0,1-.92V47.79a1,1,0,0,0-1-.93H34.34A1,1,0,0,0,33.34,47.79Zm.79,0a.2.2,0,0,1,.21-.2H35.5a.2.2,0,0,1,.21.2v1.08a.2.2,0,0,1-.21.19H34.34a.2.2,0,0,1-.21-.19Z"/></g></g></svg>