<svg xmlns="http://www.w3.org/2000/svg" viewBox="0 0 72 72"><defs><style>.cls-1{fill:#333;}.cls-2{fill:#fff;}</style></defs><g id="Layer_2" data-name="Layer 2"><g id="Layer_5" data-name="Layer 5"><circle class="cls-1" cx="36" cy="36" r="36"/><path class="cls-2" d="M58.65,25l-3.34-2.06V27.8l3.54-2.75A.35.35,0,0,1,58.65,25Z"/><path class="cls-2" d="M26.38,15.4a1.33,1.33,0,0,0-.81-.26,1.36,1.36,0,0,0-1.19.68,1.61,1.61,0,0,0-.3.89,1.33,1.33,0,0,0,.43.93,1.4,1.4,0,0,0,1.06.45,1.42,1.42,0,0,0,1.07-.45,1.37,1.37,0,0,0,.42-.95,1.75,1.75,0,0,0-.68-1.29Z"/><path class="cls-2" d="M36.39,18.41A1.62,1.62,0,0,0,38,16.86a1.73,1.73,0,0,0-.35-1.06,1.46,1.46,0,0,0-1.25-.66,1.49,1.49,0,0,0-1.14.52,1.8,1.8,0,0,0-.45,1.21,1.49,1.49,0,0,0,.46,1.05A1.48,1.48,0,0,0,36.39,18.41Z"/><path class="cls-2" d="M31.09,25.14a1.35,1.35,0,0,0-1.07.52,1.84,1.84,0,0,0-.43,1.24A1.57,1.57,0,0,0,30,28a1.68,1.68,0,0,0,2.22,0,1.54,1.54,0,0,0,.4-1.07,1.88,1.88,0,0,0-.44-1.26A1.34,1.34,0,0,0,31.09,25.14Z"/><path class="cls-2" d="M47.45,18.41a1.62,1.62,0,0,0,1.6-1.55,1.8,1.8,0,0,0-.35-1.06,1.47,1.47,0,0,0-1.25-.66,1.49,1.49,0,0,0-1.14.52,1.8,1.8,0,0,0-.45,1.21,1.49,1.49,0,0,0,.46,1.05A1.46,1.46,0,0,0,47.45,18.41Z"/><path class="cls-2" d="M33.62,40.36a4.13,4.13,0,0,1,4.86,0l.21.19L53.58,29.07V10.13a1.38,1.38,0,0,0-.2-.59.77.77,0,0,0-.61-.19H19.23a.78.78,0,0,0-.81.78V29.07L33.31,40.55ZM44.51,23a.42.42,0,0,1-.34.18l-.28,0A4.8,4.8,0,0,0,42.78,23a1,1,0,0,0-.68.18.58.58,0,0,0-.19.44v.46h1.55a.63.63,0,0,1,.51.17.66.66,0,0,1,0,.86.66.66,0,0,1-.51.17H41.91v2.92h1.43a.7.7,0,0,1,.52.16.65.65,0,0,1,.15.44.61.61,0,0,1-.15.43.71.71,0,0,1-.52.17h-3a.71.71,0,0,1-.52-.17.63.63,0,0,1-.15-.43.65.65,0,0,1,.15-.44.7.7,0,0,1,.52-.16h.6V25.3h-.48a.69.69,0,0,1-.52-.17.69.69,0,0,1,0-.86.65.65,0,0,1,.52-.17h.48v-.46a1.8,1.8,0,0,1,.49-1.3,1.87,1.87,0,0,1,1.43-.52,6.13,6.13,0,0,1,1,.09,1.42,1.42,0,0,1,.7.25.61.61,0,0,1,.15.43A.68.68,0,0,1,44.51,23Zm.67-7.6a2.68,2.68,0,0,1,1-1.09,2.34,2.34,0,0,1,2.63,0,2.47,2.47,0,0,1,1,1.09,3.25,3.25,0,0,1,.33,1.42,2.92,2.92,0,0,1-.33,1.34,2.48,2.48,0,0,1-.95,1,2.61,2.61,0,0,1-1.33.38,2.4,2.4,0,0,1-1.31-.38,2.48,2.48,0,0,1-1-1,3,3,0,0,1-.33-1.36A3.28,3.28,0,0,1,45.18,15.43Zm-5.4-1.16a.64.64,0,0,1,.52-.17h.36V13a1.05,1.05,0,0,1,.14-.61.41.41,0,0,1,.36-.19.44.44,0,0,1,.37.19,1.05,1.05,0,0,1,.14.61V14.1h1.86a.63.63,0,0,1,.51.17.66.66,0,0,1,0,.86.66.66,0,0,1-.51.17H41.67v2.41a.7.7,0,0,0,.13.51,1.07,1.07,0,0,0,.73.19A2.74,2.74,0,0,0,44,18a.8.8,0,0,1,.39-.15.42.42,0,0,1,.34.17.64.64,0,0,1,.15.43.58.58,0,0,1-.16.4,2.1,2.1,0,0,1-1,.51,4.09,4.09,0,0,1-1.2.23,1.87,1.87,0,0,1-1.4-.48,1.65,1.65,0,0,1-.47-1.19V15.3H40.3a.67.67,0,0,1-.52-.17.66.66,0,0,1,0-.86Zm-5.65,1.16a2.59,2.59,0,0,1,.95-1.09,2.39,2.39,0,0,1,1.31-.4,2.47,2.47,0,0,1,1.33.41,2.51,2.51,0,0,1,1,1.09A3.25,3.25,0,0,1,39,16.86a3,3,0,0,1-.32,1.34,2.61,2.61,0,0,1-2.29,1.41,2.43,2.43,0,0,1-1.31-.38,2.48,2.48,0,0,1-1-1,3,3,0,0,1-.33-1.36A3.15,3.15,0,0,1,34.13,15.43Zm.06,8.67h1.18v3.57a.85.85,0,0,0,.15.56.58.58,0,0,0,.47.18,1.82,1.82,0,0,0,.66-.14,5,5,0,0,0,.87-.52V25.3h-.37a.71.71,0,0,1-.52-.17.69.69,0,0,1,0-.86.67.67,0,0,1,.52-.17h1.37v4.12a.58.58,0,0,1,.47.17.63.63,0,0,1,.15.43.61.61,0,0,1-.15.43.69.69,0,0,1-.52.17h-.95v-.28a3.8,3.8,0,0,1-.83.35,2.54,2.54,0,0,1-.74.12,1.43,1.43,0,0,1-.86-.25,1.59,1.59,0,0,1-.58-.69,1.82,1.82,0,0,1-.15-.79V25.3h-.17a.69.69,0,0,1-.52-.17.69.69,0,0,1,0-.86A.65.65,0,0,1,34.19,24.1Zm-5.66-5.72a.66.66,0,0,1,.51-.16h.6V15.3h-.36a.69.69,0,0,1-.52-.17.69.69,0,0,1,0-.86.65.65,0,0,1,.52-.17h1.37v.75a5.32,5.32,0,0,1,1-.73,1.54,1.54,0,0,1,.68-.18,1.36,1.36,0,0,1,1,.43.86.86,0,0,1,.32.6.67.67,0,0,1-.15.44.45.45,0,0,1-.36.18.58.58,0,0,1-.4-.23.57.57,0,0,0-.36-.22,1.26,1.26,0,0,0-.63.32,10.65,10.65,0,0,0-1.05.95v1.81h1.43a.7.7,0,0,1,.52.16.65.65,0,0,1,.15.44.61.61,0,0,1-.15.43.71.71,0,0,1-.52.17H29a.66.66,0,0,1-.51-.17.59.59,0,0,1-.16-.43A.61.61,0,0,1,28.53,18.38Zm-2.93.92a2.28,2.28,0,0,1-.77-.14,3,3,0,0,1-.75-.4v2h.6a.69.69,0,0,1,.52.16.63.63,0,0,1,.15.44.63.63,0,0,1-.15.43.69.69,0,0,1-.52.17H22.9a.71.71,0,0,1-.52-.17.63.63,0,0,1-.15-.43.6.6,0,0,1,.16-.44.66.66,0,0,1,.51-.16h.17V15.3H22.9a.71.71,0,0,1-.52-.17.69.69,0,0,1,0-.86.67.67,0,0,1,.52-.17h1.18v.41a2.5,2.5,0,0,1,.73-.43,2.29,2.29,0,0,1,.78-.14,2.23,2.23,0,0,1,1.75.84,2.79,2.79,0,0,1,.73,1.91,2.53,2.53,0,0,1-.86,2A2.37,2.37,0,0,1,25.6,19.3Zm5.48,10.31a2.53,2.53,0,0,1-.77-.12,2.7,2.7,0,0,1-.72-.36v.29H28.41a.69.69,0,0,1-.52-.17.63.63,0,0,1-.15-.43.65.65,0,0,1,.15-.44.7.7,0,0,1,.52-.16h.17V23h-.17a.69.69,0,0,1-.52-.17.69.69,0,0,1,0-.86.65.65,0,0,1,.52-.17h1.18v2.69a2.85,2.85,0,0,1,.75-.43,2.23,2.23,0,0,1,2.54.72,3.15,3.15,0,0,1,.72,2.08,2.84,2.84,0,0,1-.69,1.95A2.32,2.32,0,0,1,31.08,29.61Z"/><path class="cls-2" d="M12.54,26.72V55.86a1.66,1.66,0,0,0,.1.69L32,41.63Z"/><polygon class="cls-2" points="16.69 22.89 13.35 24.95 13.25 25.05 16.79 27.8 16.69 22.89"/><polygon class="cls-2" points="59.46 26.62 59.46 26.62 59.46 26.62 59.46 26.62"/><path class="cls-2" d="M59.36,56.35a1.4,1.4,0,0,0,.1-.68v-29L40,41.54Z"/><path class="cls-2" d="M36.15,41.14a2.58,2.58,0,0,0-1.52.49L14.26,57.43H57.84L37.47,41.63A2.47,2.47,0,0,0,36.15,41.14Z"/></g></g></svg>