<svg xmlns="http://www.w3.org/2000/svg" viewBox="0 0 69.6 69.6"><defs><style>.cls-1{fill:#333;}.cls-2{fill:#fff;}</style></defs><g id="Layer_2" data-name="Layer 2"><g id="Layer_5" data-name="Layer 5"><circle class="cls-1" cx="34.8" cy="34.8" r="34.8"/><path class="cls-2" d="M57.2,24.1,53.9,22v5l3.5-2.8h0a.35.35,0,0,1-.2-.1Z"/><path class="cls-2" d="M32.5,39.8a4,4,0,0,1,4.8,0l.2.2L52.2,28.3V9a1.42,1.42,0,0,0-.2-.6.73.73,0,0,0-.6-.2H18.3a.79.79,0,0,0-.8.8V28.3L32.2,40Z"/><path class="cls-2" d="M30.9,41.1,11.7,25.9V55.6a1.7,1.7,0,0,0,.1.7Z"/><path class="cls-2" d="M15.8,22l-3.3,2.1-.1.1L15.9,27l-.1-5Z"/><path class="cls-2" d="M58,25.8,38.8,41,57.9,56.1a1.48,1.48,0,0,0,.1-.7V25.8Z"/><path class="cls-2" d="M33.5,41.1,13.4,57.2h43L36.3,41.1a2.35,2.35,0,0,0-1.3-.5,2.46,2.46,0,0,0-1.5.5Z"/><rect class="cls-2" x="21.83" y="14.36" width="25.16" height="2.52"/><path class="cls-1" d="M46.42,15v1.3H22.48V15H46.42m1.22-1.22H21.26v3.73H47.64V13.79Z"/><path class="cls-2" d="M21.83,14.28V13a2.75,2.75,0,0,1,.73-1.87,2.61,2.61,0,0,1,1.87-.73h20A2.5,2.5,0,0,1,47,13v1.3Z"/><path class="cls-1" d="M44.39,11a2,2,0,0,1,1.38.57A1.89,1.89,0,0,1,46.34,13v.65H22.4V13A1.93,1.93,0,0,1,23,11.6,1.87,1.87,0,0,1,24.35,11h20m0-1.21h-20a2.93,2.93,0,0,0-2.27,1,3.25,3.25,0,0,0-1,2.27v1.87H47.56V13.06a3,3,0,0,0-1-2.27,2.78,2.78,0,0,0-2.19-1Z"/><path class="cls-2" d="M26.38,23a1.3,1.3,0,0,1,0-2.6h1.29a1.3,1.3,0,0,1,0,2.6Z"/><path class="cls-1" d="M27.76,21a.65.65,0,0,1,0,1.3h-1.3a.65.65,0,1,1,0-1.3h1.3m0-1.21h-1.3a1.87,1.87,0,1,0,0,3.73h1.3a1.87,1.87,0,0,0,0-3.73Z"/><path class="cls-2" d="M24.43,28.88a2.5,2.5,0,0,1-2.6-2.59V17H47v9.25a2.71,2.71,0,0,1-.73,1.86,2.57,2.57,0,0,1-1.87.73Zm16-4.62h0l4,.08a.08.08,0,0,0,.08-.08c0-.08,0-.08-.08-.08l-4,.08Zm-14-4a1.35,1.35,0,0,0-1.22.73,1.41,1.41,0,0,0,0,1.38,1.49,1.49,0,0,0,1.22.73h1.29a1.33,1.33,0,0,0,1.22-.73,1.41,1.41,0,0,0,0-1.38,1.52,1.52,0,0,0-1.22-.73Zm16,.65h0l2,.08a.08.08,0,0,0,.08-.08c0-.08,0-.08-.08-.08h-2Z"/><path class="cls-1" d="M46.42,17.69v8.68a1.94,1.94,0,0,1-.57,1.38,2.13,2.13,0,0,1-1.38.57h-20a2,2,0,0,1-1.38-.57,1.89,1.89,0,0,1-.57-1.38V17.69H46.42m-20,5.92h1.29a2,2,0,0,0,1.71-1,2.27,2.27,0,0,0,0-2,1.93,1.93,0,0,0-1.71-1H26.38a2,2,0,0,0-1.71,1,2.27,2.27,0,0,0,0,2,1.92,1.92,0,0,0,1.71,1m16-1.95h2a.65.65,0,0,0,0-1.3h-2a.65.65,0,0,0-.65.65.7.7,0,0,0,.65.65m-2,3.33h4a.65.65,0,0,0,0-1.3h-4a.64.64,0,0,0-.64.65c-.09.32.24.65.64.65m7.23-8.52H21.26v9.9a3,3,0,0,0,1,2.27,3.25,3.25,0,0,0,2.27,1h20a2.93,2.93,0,0,0,2.27-1,3.25,3.25,0,0,0,1-2.27V17.69l-.08-1.22ZM26.38,22.39a.72.72,0,0,1-.65-.4.71.71,0,0,1,0-.81.81.81,0,0,1,.65-.41h1.29A.82.82,0,0,1,28.32,22a.82.82,0,0,1-.65.4Z"/></g></g></svg>