<svg xmlns="http://www.w3.org/2000/svg" viewBox="0 0 72 72"><defs><style>.cls-1{fill:#333;}.cls-2{fill:#fff;}</style></defs><g id="Layer_2" data-name="Layer 2"><g id="Layer_5" data-name="Layer 5"><circle class="cls-1" cx="36" cy="36" r="36"/><path class="cls-2" d="M9.61,46.36a1.7,1.7,0,0,1,1.5-.59c2.28,0,4.56,0,6.84,0a8.24,8.24,0,0,0,4.52-1.12,10.59,10.59,0,0,0,2.8-2.74A47.78,47.78,0,0,0,29,35.45a49.91,49.91,0,0,1,4.64-7.93A17.76,17.76,0,0,1,39.91,22,15.07,15.07,0,0,1,46,20.35c2.76-.11-.07-.08,2.7-.11.54,0,1.08,0,1.61,0,.38,0,.49-.09.49-.41,0-1.55,0-3.1,0-4.65v-.29a.91.91,0,0,1,.63-1,1.25,1.25,0,0,1,1.26.26L56,17.06l6.85,5.88c.23.2.42.43.63.65v.57c-1,.86-1.9,1.74-2.88,2.58-2.53,2.19-5.08,4.37-7.62,6.55l-.41.34a1.15,1.15,0,0,1-1.14.21.9.9,0,0,1-.67-.9c0-.69,0-1.39,0-2.08,0-1,0-2,0-2.94,0-.29-.07-.41-.44-.41-2.74,0,.12,0-2.62,0a7.87,7.87,0,0,0-6.28,2.94,32.72,32.72,0,0,0-3.7,5.95C36.36,39,35,41.56,33.54,44.08a20.52,20.52,0,0,1-5.94,6.33,14.57,14.57,0,0,1-4.22,1.91,20,20,0,0,1-6,.75H11a1.35,1.35,0,0,1-1.38-.67Z"/><path class="cls-2" d="M63.49,49.71c-1,.86-1.9,1.73-2.88,2.58-2.54,2.2-5.1,4.38-7.65,6.58-.42.36-.84.75-1.52.52s-.69-.75-.68-1.27c0-1.54,0-3.08,0-4.61,0-.37-.13-.45-.54-.45a17.19,17.19,0,0,1-2.38,0,25.94,25.94,0,0,1-4.82-.6,12.76,12.76,0,0,1-5.77-2.85c-1-.86-1.85-1.77-2.76-2.67a.45.45,0,0,1,0-.46,65.63,65.63,0,0,0,4.22-7.29c0-.06.07-.11.13-.21.55.88,1,1.74,1.61,2.56a9.56,9.56,0,0,0,3.39,3.29,8,8,0,0,0,3.58,1l3,0c.38,0,.4-.17.39-.42V40.48a.94.94,0,0,1,.42-.91,1.25,1.25,0,0,1,1.5.19c.77.63,1.51,1.28,2.26,1.92l7.92,6.81c.23.2.42.43.63.65Z"/><path class="cls-2" d="M9.61,20.9a1.31,1.31,0,0,1,1.29-.67c2.55,0,5.09,0,7.64,0a16.21,16.21,0,0,1,10.57,3.82c.85.72,1.6,1.54,2.37,2.32a.46.46,0,0,1,.07.46,55.92,55.92,0,0,0-4.25,7.32,2.34,2.34,0,0,1-.15.2c-.32-.53-.6-1-.89-1.48a13.57,13.57,0,0,0-3-3.62,7.74,7.74,0,0,0-4.83-1.73c-2.46-.05-4.91,0-7.36,0a1.68,1.68,0,0,1-1.5-.59Z"/></g></g></svg>