<svg xmlns="http://www.w3.org/2000/svg" viewBox="0 0 72 72"><defs><style>.cls-1{fill:#333;}.cls-2{fill:#fff;}</style></defs><g id="Layer_2" data-name="Layer 2"><g id="Layer_5" data-name="Layer 5"><circle class="cls-1" cx="36" cy="36" r="36"/><path class="cls-2" d="M58.35,24.1,55.05,22v5l3.5-2.8A.35.35,0,0,1,58.35,24.1Z"/><path class="cls-2" d="M33.65,39.8a4,4,0,0,1,4.8,0l.2.2,14.7-11.7V9a1.42,1.42,0,0,0-.2-.6.73.73,0,0,0-.6-.2H19.45a.79.79,0,0,0-.8.8V28.3L33.35,40ZM50.7,19.28a3.11,3.11,0,0,1-.07-.76V16.19a.73.73,0,0,0-.09-.42.46.46,0,0,0-.34-.16.57.57,0,0,1-.4-.23.85.85,0,0,1-.16-.5.79.79,0,0,1,.18-.53.55.55,0,0,1,.45-.22,1.29,1.29,0,0,1,.75.26,2,2,0,0,1,.63.82,2.13,2.13,0,0,1,.17.86v2.45a.76.76,0,0,0,.08.43.46.46,0,0,0,.35.15.59.59,0,0,1,.41.23.89.89,0,0,1,.14.52.85.85,0,0,1-.14.5.64.64,0,0,1-.42.24.46.46,0,0,0-.33.13.83.83,0,0,0-.09.44v2.59a2.13,2.13,0,0,1-.47,1.37,1.38,1.38,0,0,1-1.07.58.58.58,0,0,1-.46-.22.79.79,0,0,1-.18-.53.85.85,0,0,1,.16-.5.59.59,0,0,1,.41-.24c.16,0,.27-.06.31-.13a.75.75,0,0,0,.11-.44V21.31a3.79,3.79,0,0,1,.07-.89,1.71,1.71,0,0,1,.29-.57A2.19,2.19,0,0,1,50.7,19.28ZM43,18.16a.77.77,0,0,1-.18-.53.75.75,0,0,1,.18-.52.79.79,0,0,1,.62-.21H44.7v.5a2.07,2.07,0,0,1,1.57-.69,2,2,0,0,1,1.67.81,2.76,2.76,0,0,1,.49,1.69v2.73a.68.68,0,0,1,.55.2.87.87,0,0,1,0,1.06.76.76,0,0,1-.61.2H47.29a.77.77,0,0,1-.61-1.26.69.69,0,0,1,.56-.2V19.16a1,1,0,0,0-.21-.7,1.1,1.1,0,0,0-.82-.28,1.29,1.29,0,0,0-.72.19,3.63,3.63,0,0,0-.79.84v2.73a1.1,1.1,0,0,1,.59.1.75.75,0,0,1,.28.63.77.77,0,0,1-.18.53.76.76,0,0,1-.61.2H43.43a.8.8,0,0,1-.62-.2.77.77,0,0,1-.18-.53.75.75,0,0,1,.28-.63,1.12,1.12,0,0,1,.6-.1V18.37A.7.7,0,0,1,43,18.16Zm-6.26.37a3.13,3.13,0,0,1,1.13-1.33,2.76,2.76,0,0,1,1.55-.49,2.72,2.72,0,0,1,1.56.5,3,3,0,0,1,1.14,1.34,4.17,4.17,0,0,1,.38,1.72,3.65,3.65,0,0,1-.38,1.64,2.94,2.94,0,0,1-4.26,1.27,3.06,3.06,0,0,1-1.13-1.26,3.71,3.71,0,0,1-.39-1.66A4,4,0,0,1,36.69,18.53ZM26.05,14.12h1.43v1.55H26.05Zm-4.6,6.29a3.94,3.94,0,0,1,.07.9v2.33a.65.65,0,0,0,.1.42.45.45,0,0,0,.33.15.57.57,0,0,1,.4.23.86.86,0,0,1,.16.51.79.79,0,0,1-.18.53.58.58,0,0,1-.45.22,1.29,1.29,0,0,1-.75-.26,2,2,0,0,1-.63-.83,2.06,2.06,0,0,1-.17-.86V21.16a.74.74,0,0,0-.08-.42.46.46,0,0,0-.35-.15.64.64,0,0,1-.41-.24.85.85,0,0,1-.14-.5.89.89,0,0,1,.14-.52.59.59,0,0,1,.42-.23c.18,0,.29-.07.33-.14a.83.83,0,0,0,.09-.44V16.07a2.1,2.1,0,0,1,.47-1.36,1.35,1.35,0,0,1,1.07-.58.55.55,0,0,1,.46.22.79.79,0,0,1,.18.53.85.85,0,0,1-.16.5.57.57,0,0,1-.41.23.45.45,0,0,0-.31.13.78.78,0,0,0-.11.45v2.33a3,3,0,0,1-.07.76,2.19,2.19,0,0,1-.29.57A1.77,1.77,0,0,1,21.45,20.41Zm6.73,3.3a3.13,3.13,0,0,1-.27,1.35,2.41,2.41,0,0,1-.81,1,2,2,0,0,1-1.23.42H24.53a.79.79,0,0,1-.62-.21.75.75,0,0,1-.18-.52.8.8,0,0,1,.18-.54.82.82,0,0,1,.62-.2h1.31a1.07,1.07,0,0,0,.85-.36,1.44,1.44,0,0,0,.3-.93V18.37H24.56a.8.8,0,0,1-.61-.2.81.81,0,0,1-.19-.54.75.75,0,0,1,.19-.52.76.76,0,0,1,.61-.21h3.62Zm3.75-.18a2.7,2.7,0,0,1-.8-.33.66.66,0,0,1-.19.15.49.49,0,0,1-.2,0,.53.53,0,0,1-.45-.23,1.31,1.31,0,0,1-.16-.75v-.5a1.31,1.31,0,0,1,.16-.75.52.52,0,0,1,.43-.23.46.46,0,0,1,.36.15,1,1,0,0,1,.23.5A1.78,1.78,0,0,0,32,22a2.62,2.62,0,0,0,.88.14,2.19,2.19,0,0,0,1.27-.31.43.43,0,0,0,.22-.33.55.55,0,0,0-.31-.47,3.79,3.79,0,0,0-1.27-.32A3.1,3.1,0,0,1,30.84,20a1.8,1.8,0,0,1-.48-1.28,1.76,1.76,0,0,1,.54-1.32,2.66,2.66,0,0,1,1.92-.71,3.14,3.14,0,0,1,1.52.39l.2-.15a.49.49,0,0,1,.18-.05.5.5,0,0,1,.41.23,1.31,1.31,0,0,1,.16.75v.36a1.56,1.56,0,0,1-.09.65.58.58,0,0,1-.51.33.52.52,0,0,1-.38-.16.86.86,0,0,1-.21-.44,1.91,1.91,0,0,0-.61-.33,1.83,1.83,0,0,0-.66-.11,1.89,1.89,0,0,0-1.1.28.33.33,0,0,0-.18.26c0,.11.08.22.24.32a2.91,2.91,0,0,0,.83.23,7.52,7.52,0,0,1,1.65.4,2,2,0,0,1,.94.78,2.05,2.05,0,0,1,.33,1.11A1.7,1.7,0,0,1,35,22.87a2.94,2.94,0,0,1-2.1.77A4.06,4.06,0,0,1,31.93,23.53Z"/><path class="cls-2" d="M39.37,22.17a1.77,1.77,0,0,0,1.35-.6,1.88,1.88,0,0,0,.54-1.29,2.28,2.28,0,0,0-.41-1.3,1.72,1.72,0,0,0-1.48-.8,1.71,1.71,0,0,0-1.35.63,2.23,2.23,0,0,0-.54,1.48A1.83,1.83,0,0,0,38,21.57,1.73,1.73,0,0,0,39.37,22.17Z"/><path class="cls-2" d="M12.85,25.9V55.6a1.7,1.7,0,0,0,.1.7l19.1-15.2Z"/><polygon class="cls-2" points="16.95 22 13.65 24.1 13.55 24.2 17.05 27 16.95 22"/><path class="cls-2" d="M59.05,56.1a1.48,1.48,0,0,0,.1-.7V25.8L40,41Z"/><polygon class="cls-2" points="59.15 25.8 59.15 25.8 59.15 25.8 59.15 25.8"/><path class="cls-2" d="M36.15,40.6a2.46,2.46,0,0,0-1.5.5L14.55,57.2h43L37.45,41.1A2.35,2.35,0,0,0,36.15,40.6Z"/></g></g></svg>