<svg xmlns="http://www.w3.org/2000/svg" viewBox="0 0 69.6 69.6"><defs><style>.cls-1{fill:#333;}.cls-2{fill:#fff;}</style></defs><g id="Layer_2" data-name="Layer 2"><g id="Layer_5" data-name="Layer 5"><circle class="cls-1" cx="34.8" cy="34.8" r="34.8"/><path class="cls-2" d="M57.2,24.1,53.9,22v5l3.5-2.8h0a.35.35,0,0,1-.2-.1Z"/><path class="cls-2" d="M32.5,39.8a4,4,0,0,1,4.8,0l.2.2L52.2,28.3V9a1.42,1.42,0,0,0-.2-.6.73.73,0,0,0-.6-.2H18.3a.79.79,0,0,0-.8.8V28.3L32.2,40Z"/><path class="cls-2" d="M30.9,41.1,11.7,25.9V55.6a1.7,1.7,0,0,0,.1.7Z"/><path class="cls-2" d="M15.8,22l-3.3,2.1-.1.1L15.9,27l-.1-5Z"/><path class="cls-2" d="M58,25.8,38.8,41,57.9,56.1a1.48,1.48,0,0,0,.1-.7V25.8Z"/><path class="cls-2" d="M33.5,41.1,13.4,57.2h43L36.3,41.1a2.35,2.35,0,0,0-1.3-.5,2.46,2.46,0,0,0-1.5.5Z"/><path class="cls-1" d="M28.13,25.3a4.79,4.79,0,0,1-2.34.49c-2.89,0-4.64-2.21-4.64-5.61,0-3.67,2.08-5.89,4.85-5.89a4.45,4.45,0,0,1,2.21.49l-.36,1.63A3.76,3.76,0,0,0,26.07,16c-1.85,0-3.18,1.42-3.18,4.1,0,2.45,1.17,4,3.17,4a3.86,3.86,0,0,0,1.8-.42Z"/><path class="cls-1" d="M37.21,21.08c-.05-1.44-.12-3.18-.11-4.69h0c-.29,1.36-.67,2.86-1.07,4.27L34.67,25.5H33.39l-1.22-4.77c-.35-1.43-.67-2.95-.91-4.34h0c0,1.46-.09,3.23-.16,4.75l-.2,4.49H29.32l.6-11.16h2.19L33.29,19c.32,1.3.61,2.63.84,3.87h0c.24-1.21.55-2.58.9-3.89l1.25-4.47h2.16L39,25.63H37.39Z"/><path class="cls-1" d="M40.69,14.62a13.58,13.58,0,0,1,2.64-.23A4.82,4.82,0,0,1,47,15.68a5.54,5.54,0,0,1,1.42,4.1A6.48,6.48,0,0,1,47,24.22a5.33,5.33,0,0,1-4.11,1.52,15.29,15.29,0,0,1-2.23-.14Zm1.65,9.45a5,5,0,0,0,.92.05c2.16,0,3.44-1.44,3.44-4.27,0-2.47-1.15-3.87-3.22-3.87a4.77,4.77,0,0,0-1.14.11Z"/></g></g></svg>