<svg xmlns="http://www.w3.org/2000/svg" viewBox="0 0 69.6 69.6"><defs><style>.cls-1{fill:#333;}.cls-2{fill:#fff;}</style></defs><g id="Layer_2" data-name="Layer 2"><g id="Layer_5" data-name="Layer 5"><circle class="cls-1" cx="34.8" cy="34.8" r="34.8"/><path class="cls-2" d="M57.2,24.1,53.9,22v5l3.5-2.8h0a.35.35,0,0,1-.2-.1Z"/><path class="cls-2" d="M32.5,39.8a4,4,0,0,1,4.8,0l.2.2L52.2,28.3V9a1.42,1.42,0,0,0-.2-.6.73.73,0,0,0-.6-.2H18.3a.79.79,0,0,0-.8.8V28.3L32.2,40Z"/><path class="cls-2" d="M30.9,41.1,11.7,25.9V55.6a1.7,1.7,0,0,0,.1.7Z"/><path class="cls-2" d="M15.8,22l-3.3,2.1-.1.1L15.9,27l-.1-5Z"/><path class="cls-2" d="M58,25.8,38.8,41,57.9,56.1a1.48,1.48,0,0,0,.1-.7V25.8Z"/><path class="cls-2" d="M33.5,41.1,13.4,57.2h43L36.3,41.1a2.35,2.35,0,0,0-1.3-.5,2.46,2.46,0,0,0-1.5.5Z"/><path class="cls-1" d="M24.87,20.77c0,2.77-1,4.3-2.84,4.3-1.6,0-2.68-1.49-2.7-4.19s1.18-4.25,2.84-4.25S24.87,18.17,24.87,20.77Zm-4.44.12c0,2.12.66,3.33,1.66,3.33s1.67-1.32,1.67-3.4-.51-3.33-1.66-3.33C21.14,17.49,20.43,18.67,20.43,20.89Z"/><path class="cls-1" d="M27,17.8h0l-1.42.77-.21-.84,1.78-1H28v8.16H27Z"/><path class="cls-1" d="M34.94,20.77c0,2.77-1,4.3-2.84,4.3-1.6,0-2.68-1.49-2.7-4.19s1.18-4.25,2.84-4.25S34.94,18.17,34.94,20.77Zm-4.44.12c0,2.12.66,3.33,1.66,3.33s1.67-1.32,1.67-3.4-.51-3.33-1.66-3.33C31.21,17.49,30.5,18.67,30.5,20.89Z"/><path class="cls-1" d="M37,17.8h0l-1.42.77-.21-.84,1.78-1h.94v8.16H37Z"/><path class="cls-1" d="M44.92,20.77c0,2.77-1,4.3-2.84,4.3-1.59,0-2.67-1.49-2.7-4.19s1.18-4.25,2.84-4.25S44.92,18.17,44.92,20.77Zm-4.43.12c0,2.12.65,3.33,1.65,3.33s1.67-1.32,1.67-3.4-.51-3.33-1.65-3.33C41.19,17.49,40.49,18.67,40.49,20.89Z"/><path class="cls-1" d="M50.58,20.77c0,2.77-1,4.3-2.83,4.3-1.6,0-2.68-1.49-2.7-4.19s1.18-4.25,2.83-4.25S50.58,18.17,50.58,20.77Zm-4.43.12c0,2.12.65,3.33,1.66,3.33s1.67-1.32,1.67-3.4-.52-3.33-1.66-3.33C46.85,17.49,46.15,18.67,46.15,20.89Z"/><path class="cls-2" d="M45.34,31.66c0-2-.5-3.33-1.61-3.33-.94,0-1.62,1.18-1.62,3.41s.63,3.32,1.61,3.32h.05l1.18-1A6.27,6.27,0,0,0,45.34,31.66Z"/><path class="cls-2" d="M32.73,28.33c-.94,0-1.62,1.18-1.62,3.41s.63,3.32,1.61,3.32,1.62-1.31,1.62-3.4S33.84,28.33,32.73,28.33Z"/><path class="cls-2" d="M28,35.78H27V28.65h0l-1.38.76-.21-.84,1.74-.95H28Zm4.65.14c-1.55,0-2.6-1.5-2.63-4.2s1.15-4.24,2.76-4.24,2.62,1.53,2.62,4.13C35.41,34.39,34.41,35.92,32.66,35.92ZM39,35.78H38V28.65h0l-1.38.76-.21-.84,1.74-.95H39Z"/><polygon class="cls-1" points="21.59 27.62 19.86 28.57 20.07 29.41 21.45 28.65 21.47 28.65 21.47 31.49 22.51 32.31 22.51 27.62 21.59 27.62"/><polygon class="cls-1" points="25.36 28.57 25.57 29.41 26.95 28.65 26.97 28.65 26.97 35.78 28.01 35.78 28.01 27.62 27.09 27.62 25.36 28.57"/><path class="cls-1" d="M32.79,27.48C31.18,27.48,30,29,30,31.72s1.08,4.2,2.63,4.2c1.75,0,2.75-1.53,2.75-4.31C35.41,29,34.46,27.48,32.79,27.48Zm-.07,7.58c-1,0-1.61-1.2-1.61-3.32s.68-3.41,1.62-3.41c1.11,0,1.61,1.32,1.61,3.33S33.81,35.06,32.72,35.06Z"/><polygon class="cls-1" points="36.37 28.57 36.57 29.41 37.95 28.65 37.97 28.65 37.97 35.78 39.01 35.78 39.01 27.62 38.1 27.62 36.37 28.57"/><path class="cls-1" d="M43.79,27.48C42.18,27.48,41,29,41,31.72c0,2.22.73,3.61,1.84,4l.89-.7h-.05c-1,0-1.61-1.2-1.61-3.32s.68-3.41,1.62-3.41c1.11,0,1.61,1.32,1.61,3.33A6.27,6.27,0,0,1,45,34.11L46.29,33a7.79,7.79,0,0,0,.12-1.43C46.41,29,45.46,27.48,43.79,27.48Z"/><polygon class="cls-1" points="49.1 27.62 47.37 28.57 47.57 29.41 48.95 28.65 48.98 28.65 48.98 30.91 50.01 30.09 50.01 27.62 49.1 27.62"/></g></g></svg>