<svg xmlns="http://www.w3.org/2000/svg" viewBox="0 0 72 72"><defs><style>.cls-1{fill:#333;}.cls-2{fill:#fff;}</style></defs><g id="Layer_2" data-name="Layer 2"><g id="Layer_5" data-name="Layer 5"><circle class="cls-1" cx="36" cy="36" r="36"/><path class="cls-2" d="M44.5,39.87a1,1,0,0,0-.76.32.81.81,0,0,0-.17.24,1,1,0,0,0-.15.52,1,1,0,0,0,.32.76,1.07,1.07,0,0,0,.76.32,1,1,0,0,0,.72-.29l0,0a1,1,0,0,0,.32-.76,1,1,0,0,0-.32-.76A1,1,0,0,0,44.5,39.87Z"/><path class="cls-2" d="M48.74,42.08,61.46,52.15V19.59h0a1.87,1.87,0,0,0-.11-.77L46.89,30.26l-.23,0H43.93L59.59,17.83H12.29l13,10.28H24a4.11,4.11,0,0,0-1.49.28l-11.9-9.46a1.78,1.78,0,0,0-.1.77V52.37l11.59-9.18A4.7,4.7,0,0,0,22.72,45l-5.81,4.61L12.4,53.25H59.59l-4.51-3.63-6.7-5.36a2,2,0,0,0,.36-1.17Zm-25.64.34a3.23,3.23,0,0,1,0-.44,3.24,3.24,0,0,1-.91-1.58,3.47,3.47,0,0,1,0-2,3.52,3.52,0,0,1-.73-2.3,4.34,4.34,0,0,1,.25-1.28,3.72,3.72,0,0,1-.92-2.52,3.09,3.09,0,0,1,1-2.26,3.26,3.26,0,0,1,2.27-1h4.66a3.85,3.85,0,0,0-.14-.41,4.05,4.05,0,0,0-.18-.37l-.16-.3c-.19-.38-.35-.69-.46-.94a7.2,7.2,0,0,1-.32-1,5.1,5.1,0,0,1-.16-1.28v-.65c0-.18,0-.43.09-.77a3.39,3.39,0,0,1,.19-.83,4.47,4.47,0,0,1,.41-.76,2.45,2.45,0,0,1,.68-.68,4.18,4.18,0,0,1,1-.44A4.81,4.81,0,0,1,31,20.49a1,1,0,0,1,.76.32,3.17,3.17,0,0,1,.57.84,4,4,0,0,1,.33.86,7.36,7.36,0,0,1,.22,1c.1.46.17.8.23,1a5.79,5.79,0,0,0,.3.82,2.51,2.51,0,0,0,.51.81,25.06,25.06,0,0,1,1.7,2c.55.73,1.12,1.4,1.71,2s1,1,1.27,1a1,1,0,0,1,.73.33,1,1,0,0,1,.3.73V43.09a.88.88,0,0,1-.34.73,1.18,1.18,0,0,1-.76.34,12.59,12.59,0,0,0-2.66.74c-.85.3-1.52.52-2,.67a19.67,19.67,0,0,1-2,.5,12.1,12.1,0,0,1-2.42.27H27.25A4.19,4.19,0,0,1,23.94,45a3.85,3.85,0,0,1-.43-.65A4.22,4.22,0,0,1,23.1,42.42Zm24.32,1.44a1,1,0,0,1-.76.31H41.8a1,1,0,0,1-.76-.31,1.09,1.09,0,0,1-.32-.77V32.32a1.08,1.08,0,0,1,1.08-1.08h4.86a1,1,0,0,1,.76.31,1.05,1.05,0,0,1,.32.77V43.09a1,1,0,0,1-.16.54A1.6,1.6,0,0,1,47.42,43.86Z"/></g></g></svg>