<svg xmlns="http://www.w3.org/2000/svg" viewBox="0 0 69.6 69.6"><defs><style>.cls-1{fill:#333;}.cls-2{fill:#fff;}.cls-3{isolation:isolate;}</style></defs><g id="Layer_2" data-name="Layer 2"><g id="Layer_5" data-name="Layer 5"><circle class="cls-1" cx="34.8" cy="34.8" r="34.8"/><path class="cls-2" d="M12.5,25.9a1.48,1.48,0,0,0-.1.7V56.3L31.6,41.1Z"/><path class="cls-2" d="M58.7,26.5a1.7,1.7,0,0,0-.1-.7L39.5,40.9,58.7,56.1V26.5Z"/><path class="cls-2" d="M34.2,40.9a2.35,2.35,0,0,0,1.3.5,1.9,1.9,0,0,0,1.3-.5L57,24.9H14l20.2,16Z"/><path class="cls-2" d="M52.9,53.8,40.5,43.9l-2.3-1.8-.2.2a4,4,0,0,1-4.8,0l-.2-.2-2.6,2L18.2,53.8l-4.1,3.3H57Z"/><g class="cls-3"><path class="cls-2" d="M21.2,18.9c0,.1,0,.1-.1.2s-.1.1-.2.1h-.8c-.1,0-.2,0-.2-.1s-.1-.1-.1-.2v-.8a3.45,3.45,0,0,1-1.2.9,3.19,3.19,0,0,1-1.4.3,5,5,0,0,1-1.2-.2,4.05,4.05,0,0,1-.9-.5,5.55,5.55,0,0,1-.6-.8,3.55,3.55,0,0,1-.2-1,2.13,2.13,0,0,1,.3-1.2,3,3,0,0,1,.8-.8,3.92,3.92,0,0,1,1.3-.5,8.81,8.81,0,0,1,1.7-.2h1.1v-.6a2,2,0,0,0-.1-.8l-.3-.6a.92.92,0,0,0-.6-.4,2.22,2.22,0,0,0-.9-.1,3.08,3.08,0,0,0-1,.1c-.3.1-.5.2-.8.3a2.19,2.19,0,0,0-.5.3.49.49,0,0,1-.3.1h-.1l-.1-.1a.31.31,0,0,0-.1-.2v-.6a.22.22,0,0,1,.2-.2,1.38,1.38,0,0,1,.4-.3,4.88,4.88,0,0,1,.7-.3,2.35,2.35,0,0,1,.8-.2,2.77,2.77,0,0,1,.9-.1,6.05,6.05,0,0,1,1.5.2,2.07,2.07,0,0,1,1,.6,2,2,0,0,1,.5.9,5.07,5.07,0,0,1,.2,1.3v5.5Zm-1.5-3.7H18.4a3.75,3.75,0,0,0-1.1.1,4.88,4.88,0,0,0-.7.3,1,1,0,0,0-.4.5,1.48,1.48,0,0,0-.1.7,1.16,1.16,0,0,0,.4,1,1.82,1.82,0,0,0,1.1.4,2,2,0,0,0,1.1-.3,4.06,4.06,0,0,0,1-.9Z"/><path class="cls-2" d="M24,21.3c0,.1-.1.1-.1.2a.1.1,0,0,1-.1.1c-.1,0-.1,0-.2.1s-.2,0-.3,0h-.4a.35.35,0,0,1-.2-.1.1.1,0,0,1-.1-.1v-.2L28,6.4c0-.1.1-.1.1-.2a.1.1,0,0,1,.1-.1c.1,0,.1,0,.2-.1s.2,0,.3,0h.4c.1,0,.2,0,.2.1a.1.1,0,0,1,.1.1v.2Z"/><path class="cls-2" d="M38.5,14.8a11.08,11.08,0,0,1-.2,1.9,4.58,4.58,0,0,1-.7,1.4,3.13,3.13,0,0,1-1.1.9,3.34,3.34,0,0,1-1.5.3,1.48,1.48,0,0,1-.7-.1c-.2-.1-.4-.1-.6-.2s-.4-.3-.6-.4-.4-.4-.7-.6v1.1l-.1.1h-1c-.1,0-.1,0-.1-.1V6.9l.1-.1c.1,0,.1,0,.2-.1s.2,0,.4,0h.4c.1,0,.2,0,.2.1a.1.1,0,0,1,.1.1v4.9a3.74,3.74,0,0,1,.7-.6,1.61,1.61,0,0,1,.7-.4,1.42,1.42,0,0,1,.6-.2c.2,0,.4-.1.7-.1a2.41,2.41,0,0,1,1.5.4,2.19,2.19,0,0,1,1,.9,3.51,3.51,0,0,1,.6,1.4C38.4,13.6,38.5,14.2,38.5,14.8Zm-1.6.2a4.87,4.87,0,0,0-.1-1.2c-.1-.4-.2-.7-.3-1a4.35,4.35,0,0,0-.6-.7,1.69,1.69,0,0,0-1-.3,1.27,1.27,0,0,0-.6.1c-.2.1-.4.1-.6.3a2.65,2.65,0,0,0-.6.5l-.7.7v3.2a4,4,0,0,0,1.2,1.1,1.92,1.92,0,0,0,1.2.4,1.69,1.69,0,0,0,1-.3,1.34,1.34,0,0,0,.6-.7,3,3,0,0,0,.4-1A4.48,4.48,0,0,0,36.9,15Z"/><path class="cls-2" d="M40.8,21.3c0,.1-.1.1-.1.2a.1.1,0,0,1-.1.1c-.1,0-.1,0-.2.1s-.2,0-.3,0h-.4a.35.35,0,0,1-.2-.1.1.1,0,0,1-.1-.1v-.2L44.8,6.4c0-.1.1-.1.1-.2a.1.1,0,0,1,.1-.1c.1,0,.1,0,.2-.1s.2,0,.3,0h.4c.1,0,.2,0,.2.1a.1.1,0,0,1,.1.1v.2Z"/><path class="cls-2" d="M53.3,17.7v.5c0,.1,0,.1-.1.1a.35.35,0,0,0-.1.2,1.38,1.38,0,0,1-.4.3l-.6.3a1.85,1.85,0,0,1-.7.2,2.2,2.2,0,0,1-.8.1,3.34,3.34,0,0,1-1.5-.3,4.44,4.44,0,0,1-1.1-.8,4.58,4.58,0,0,1-.7-1.4,5.84,5.84,0,0,1-.2-1.9,6.65,6.65,0,0,1,.3-2.1,4.68,4.68,0,0,1,.8-1.4,2.55,2.55,0,0,1,1.2-.8,4,4,0,0,1,1.5-.3,2.2,2.2,0,0,1,.8.1,1.85,1.85,0,0,1,.7.2,2.19,2.19,0,0,1,.5.3c.1.1.3.2.3.3s.1.1.1.2,0,.1.1.1v.5a.75.75,0,0,1-.1.5c-.1.1-.1.1-.2.1a.37.37,0,0,1-.3-.1c-.1-.1-.3-.2-.4-.3a2.39,2.39,0,0,0-.7-.3,2.77,2.77,0,0,0-.9-.1,1.82,1.82,0,0,0-1.6.8,4.65,4.65,0,0,0-.6,2.4,6.15,6.15,0,0,0,.1,1.4,3,3,0,0,0,.4,1,1.34,1.34,0,0,0,.7.6,3,3,0,0,0,1,.2,2.92,2.92,0,0,0,.9-.2,1.61,1.61,0,0,0,.7-.4,1.76,1.76,0,0,0,.5-.4c.1-.1.2-.2.3-.2h.1l.1.1v.2A.37.37,0,0,0,53.3,17.7Z"/></g></g></g></svg>