<svg xmlns="http://www.w3.org/2000/svg" viewBox="0 0 72 72"><defs><style>.cls-1{fill:#333;}.cls-2{fill:#fff;}</style></defs><g id="Layer_2" data-name="Layer 2"><g id="Layer_5" data-name="Layer 5"><circle class="cls-1" cx="36" cy="36" r="36"/><path class="cls-2" d="M61.46,52.15V19.59h0a1.87,1.87,0,0,0-.11-.77l-10,7.9a4.38,4.38,0,0,0,.79-3l7.44-5.89H12.29L34,35.05l-1.86,2.48-1.18.9-1.26-1.26,1.92-1.52-21-16.72a1.78,1.78,0,0,0-.1.77V52.37l12.23-9.69L24,44l-7.13,5.67L12.4,53.25H59.59l-4.51-3.63L42,39.17l1.15-1.53ZM42,36.71l-1.15,1.53L32.06,49.85,25.22,43,24,41.74,22.41,40.2a2.93,2.93,0,0,1,0-4.12,3,3,0,0,1,1.38-.76,3.17,3.17,0,0,1,.68-.09,2.89,2.89,0,0,1,2.06.85l2,2,1.26,1.26L31.44,41l2.71-3.59,1.17-1.55L45.45,22.41a2.51,2.51,0,0,1,.45-.47l.16-.12.36-.23.21-.09a1.63,1.63,0,0,1,.37-.13l.23-.06a2.58,2.58,0,0,1,.39,0,1,1,0,0,1,.24,0H48l.34.05.18.05a2.42,2.42,0,0,1,.35.12l.15.06a2.59,2.59,0,0,1,.47.29,2.91,2.91,0,0,1,1,3.14,2.79,2.79,0,0,1-.46.93l-3.36,4.46Z"/></g></g></svg>