<svg xmlns="http://www.w3.org/2000/svg" viewBox="0 0 72 72"><defs><style>.cls-1{fill:#333;}.cls-2{fill:#fff;}</style></defs><g id="Layer_2" data-name="Layer 2"><g id="Layer_5" data-name="Layer 5"><circle class="cls-1" cx="36" cy="36" r="36"/><path class="cls-2" d="M58.35,24.1,55.05,22v5l3.5-2.8A.35.35,0,0,1,58.35,24.1Z"/><path class="cls-2" d="M45.85,22.17a1.74,1.74,0,0,0,1.35-.6,1.85,1.85,0,0,0,.55-1.29,2.21,2.21,0,0,0-.42-1.3,1.76,1.76,0,0,0-2.82-.17A2.23,2.23,0,0,0,44,20.29a1.86,1.86,0,0,0,.54,1.28A1.75,1.75,0,0,0,45.85,22.17Z"/><path class="cls-2" d="M33.65,39.8a4,4,0,0,1,4.8,0l.2.2,14.7-11.7V9a1.42,1.42,0,0,0-.2-.6.73.73,0,0,0-.6-.2H19.45a.79.79,0,0,0-.8.8V28.3L33.35,40Zm16.4-20.52a3,3,0,0,1-.08-.76V16.19a.73.73,0,0,0-.09-.42.43.43,0,0,0-.33-.16.55.55,0,0,1-.4-.23.87.87,0,0,1,0-1,.55.55,0,0,1,.45-.22,1.29,1.29,0,0,1,.75.26,1.89,1.89,0,0,1,.62.82,2,2,0,0,1,.17.86v2.45a.85.85,0,0,0,.08.43.48.48,0,0,0,.35.15.55.55,0,0,1,.41.23.82.82,0,0,1,.15.52.78.78,0,0,1-.15.5.59.59,0,0,1-.41.24.46.46,0,0,0-.33.13.82.82,0,0,0-.1.44v2.59a2.12,2.12,0,0,1-.46,1.37,1.38,1.38,0,0,1-1.08.58.58.58,0,0,1-.45-.22.87.87,0,0,1,0-1,.57.57,0,0,1,.41-.24c.16,0,.27-.06.31-.13a.75.75,0,0,0,.1-.44V21.31a3.66,3.66,0,0,1,.08-.89,1.67,1.67,0,0,1,.28-.57A2.14,2.14,0,0,1,50.05,19.28Zm-6.88-.75a3.09,3.09,0,0,1,1.14-1.33,2.69,2.69,0,0,1,3.11,0,3,3,0,0,1,1.13,1.34,4,4,0,0,1,.39,1.72,3.79,3.79,0,0,1-.38,1.64,3.1,3.1,0,0,1-2.71,1.73,2.86,2.86,0,0,1-1.55-.46,2.93,2.93,0,0,1-1.13-1.26,3.71,3.71,0,0,1-.39-1.66A4.11,4.11,0,0,1,43.17,18.53Zm-5.73-.16a.84.84,0,0,1-.62-.2.8.8,0,0,1-.18-.54.75.75,0,0,1,.18-.52.8.8,0,0,1,.62-.21h1.62v.92a6.26,6.26,0,0,1,1.18-.89,1.77,1.77,0,0,1,.81-.22,1.63,1.63,0,0,1,1.12.53,1,1,0,0,1,.38.73.79.79,0,0,1-.18.53.53.53,0,0,1-.43.22.65.65,0,0,1-.46-.27.67.67,0,0,0-.44-.27,1.49,1.49,0,0,0-.74.38,11.83,11.83,0,0,0-1.24,1.16v2.22h1.69a.76.76,0,0,1,.61.2.83.83,0,0,1,0,1.06.76.76,0,0,1-.61.2H37.16a.8.8,0,0,1-.62-.2.87.87,0,0,1,0-1.06.8.8,0,0,1,.62-.2h.71V18.37Zm-16,2a3.82,3.82,0,0,1,.08.9v2.33a.73.73,0,0,0,.09.42.47.47,0,0,0,.33.15.55.55,0,0,1,.4.23.88.88,0,0,1,0,1,.58.58,0,0,1-.45.22,1.29,1.29,0,0,1-.75-.26,2.16,2.16,0,0,1-.79-1.69V21.16a.83.83,0,0,0-.08-.42.48.48,0,0,0-.35-.15.59.59,0,0,1-.41-.24.78.78,0,0,1-.14-.5.82.82,0,0,1,.14-.52.55.55,0,0,1,.41-.23c.18,0,.29-.07.33-.14a.82.82,0,0,0,.1-.44V16.07a2.09,2.09,0,0,1,.46-1.36,1.35,1.35,0,0,1,1.08-.58.55.55,0,0,1,.45.22.87.87,0,0,1,0,1,.55.55,0,0,1-.4.23.46.46,0,0,0-.32.13.79.79,0,0,0-.1.45v2.33a2.93,2.93,0,0,1-.08.76,2.14,2.14,0,0,1-.28.57A1.73,1.73,0,0,1,21.39,20.41ZM29.3,23.2a.8.8,0,0,1-.62.2H27.29v-.34a3.4,3.4,0,0,1-1,.44,3.66,3.66,0,0,1-1,.15A2,2,0,0,1,23.77,23a2,2,0,0,1-.6-1.38,2.43,2.43,0,0,1,.76-1.72A2.78,2.78,0,0,1,26,19.13a6.81,6.81,0,0,1,1.25.14v-.35a.71.71,0,0,0-.23-.54,1.38,1.38,0,0,0-.87-.2,4.87,4.87,0,0,0-1.37.25,1.68,1.68,0,0,1-.49.1.52.52,0,0,1-.41-.21.85.85,0,0,1-.16-.54.81.81,0,0,1,.06-.33.49.49,0,0,1,.16-.21,1.41,1.41,0,0,1,.44-.2,6.61,6.61,0,0,1,.9-.24,4.28,4.28,0,0,1,.83-.09,2.39,2.39,0,0,1,1.72.59,2.12,2.12,0,0,1,.61,1.61v3h.2a.8.8,0,0,1,.62.2.87.87,0,0,1,0,1.06Zm.86-4.83H30a.84.84,0,0,1-.62-.2.8.8,0,0,1-.18-.54.75.75,0,0,1,.18-.52A.8.8,0,0,1,30,16.9h1.59a.68.68,0,0,1,.79.74.74.74,0,0,1-.27.62,1.2,1.2,0,0,1-.63.11l1.3,3.25,1.28-3.25a1.16,1.16,0,0,1-.61-.1.77.77,0,0,1-.29-.64.71.71,0,0,1,.19-.52A.76.76,0,0,1,34,16.9h1.63a.7.7,0,0,1,.8.74.69.69,0,0,1-.8.73h-.2l-2,5H32.15Z"/><path class="cls-2" d="M24.72,21a.8.8,0,0,0-.32.57.4.4,0,0,0,.15.33,1.23,1.23,0,0,0,.8.24,2.7,2.7,0,0,0,1-.21,3.42,3.42,0,0,0,1-.56v-.63A5.48,5.48,0,0,0,26,20.6,1.91,1.91,0,0,0,24.72,21Z"/><path class="cls-2" d="M12.85,25.9V55.6a1.7,1.7,0,0,0,.1.7l19.1-15.2Z"/><polygon class="cls-2" points="16.95 22 13.65 24.1 13.55 24.2 17.05 27 16.95 22"/><polygon class="cls-2" points="59.15 25.8 59.15 25.8 59.15 25.8 59.15 25.8"/><path class="cls-2" d="M59.05,56.1a1.48,1.48,0,0,0,.1-.7V25.8L40,41Z"/><path class="cls-2" d="M36.15,40.6a2.46,2.46,0,0,0-1.5.5L14.55,57.2h43L37.45,41.1A2.35,2.35,0,0,0,36.15,40.6Z"/></g></g></svg>