<svg xmlns="http://www.w3.org/2000/svg" viewBox="0 0 69.6 69.6"><defs><style>.cls-1{fill:#333;}.cls-2{fill:#fff;}</style></defs><g id="Layer_2" data-name="Layer 2"><g id="Layer_5" data-name="Layer 5"><circle class="cls-1" cx="34.8" cy="34.8" r="34.8"/><path class="cls-2" d="M12.5,19.7a1.48,1.48,0,0,0-.1.7V50.1L31.6,34.9Z"/><path class="cls-2" d="M58.6,20.4a1.7,1.7,0,0,0-.1-.7L39.4,34.8,58.6,50Z"/><path class="cls-2" d="M34.1,34.8a2.35,2.35,0,0,0,1.3.5,1.9,1.9,0,0,0,1.3-.5L56.8,18.7h-43L34.1,34.8Z"/><path class="cls-2" d="M52.8,47.7,40.4,37.8,38,35.9l-.2.2a4,4,0,0,1-4.8,0l-.2-.2-2.6,2L18,47.6l-4.1,3.3H56.8Z"/></g></g></svg>