<svg xmlns="http://www.w3.org/2000/svg" viewBox="0 0 69.6 69.6"><defs><style>.cls-1{fill:#333;}.cls-2{fill:#fff;}</style></defs><g id="Layer_2" data-name="Layer 2"><g id="Layer_5" data-name="Layer 5"><circle class="cls-1" cx="34.8" cy="34.8" r="34.8"/><path class="cls-2" d="M57.2,24.1,53.9,22v5l3.5-2.8h0a.35.35,0,0,1-.2-.1Z"/><path class="cls-2" d="M32.5,39.8a4,4,0,0,1,4.8,0l.2.2L52.2,28.3V9a1.42,1.42,0,0,0-.2-.6.73.73,0,0,0-.6-.2H18.3a.79.79,0,0,0-.8.8V28.3L32.2,40ZM21.6,11.5H48a.8.8,0,1,1,0,1.6H21.6a.79.79,0,0,1-.8-.8.86.86,0,0,1,.8-.8Zm0,5.19H48a.8.8,0,0,1,0,1.6H21.6a.79.79,0,0,1-.8-.8.86.86,0,0,1,.8-.8Zm0,5.81H48a.8.8,0,0,1,0,1.6H21.6a.8.8,0,0,1,0-1.6Zm-.8,5.7h0a.79.79,0,0,1,.8-.8H48A.8.8,0,0,1,48,29H21.6c-.4.1-.8-.3-.8-.8Zm5.8,5h0a.79.79,0,0,1,.8-.8H42.3a.8.8,0,1,1,0,1.6H27.4a.74.74,0,0,1-.8-.8Z"/><path class="cls-2" d="M30.9,41.1,11.7,25.9V55.6a1.7,1.7,0,0,0,.1.7Z"/><path class="cls-2" d="M15.8,22l-3.3,2.1-.1.1L15.9,27l-.1-5Z"/><path class="cls-2" d="M58,25.8,38.8,41,57.9,56.1a1.48,1.48,0,0,0,.1-.7V25.8Z"/><path class="cls-2" d="M33.5,41.1,13.4,57.2h43L36.3,41.1a2.35,2.35,0,0,0-1.3-.5,2.46,2.46,0,0,0-1.5.5Z"/></g></g></svg>