<svg xmlns="http://www.w3.org/2000/svg" viewBox="0 0 72 72"><defs><style>.cls-1{fill:#333;}.cls-2{fill:#fff;}</style></defs><g id="Layer_2" data-name="Layer 2"><g id="Layer_5" data-name="Layer 5"><circle class="cls-1" cx="36" cy="36" r="36"/><path class="cls-2" d="M61.46,52.15V19.59h0a1.87,1.87,0,0,0-.11-.77l-11.51,9.1A12.07,12.07,0,0,0,49,26.24l10.61-8.41H12.29L24,27.13a14.67,14.67,0,0,0-1,1.67L10.64,18.93a1.78,1.78,0,0,0-.1.77V52.37L22.38,43a14.42,14.42,0,0,0,.84,1.61l-6.31,5L12.4,53.25H59.59l-4.51-3.63-8.57-6.85A8.21,8.21,0,0,0,48,41.48ZM23.54,42.07c-.14-.35-.28-.71-.39-1.08a15.31,15.31,0,0,1-.57-4.08,16.71,16.71,0,0,1,.27-3c.09-.49.2-1,.33-1.45a14.81,14.81,0,0,1,1-2.72,15.71,15.71,0,0,1,1-1.69,14.34,14.34,0,0,1,12.29-6.5,13.16,13.16,0,0,1,5.09,1,11.51,11.51,0,0,1,1.45.72,9.91,9.91,0,0,1,1,.68,8.61,8.61,0,0,1,1.08.92,10.65,10.65,0,0,1,1.76,2.29,10.51,10.51,0,0,1,.81,1.73,12.54,12.54,0,0,1,.75,4.31,10.64,10.64,0,0,1-2.55,7.44,6.84,6.84,0,0,1-1.53,1.23,6.52,6.52,0,0,1-3.32.91,3.9,3.9,0,0,1-1.1-.16,3.08,3.08,0,0,1-.82-.37A2.83,2.83,0,0,1,39,40.72a4.2,4.2,0,0,1-.22-1.19s0-.06,0-.09h-.12a6,6,0,0,1-5.4,3.3A4.18,4.18,0,0,1,30,41.26a4.87,4.87,0,0,1-.33-.43,4.81,4.81,0,0,1-.49-1,6.26,6.26,0,0,1-.38-2c0-.11,0-.21,0-.32a9.75,9.75,0,0,1,1.66-5.4A9.54,9.54,0,0,1,32,30.38a7.72,7.72,0,0,1,.72-.56,9.3,9.3,0,0,1,3.46-1.49,10.56,10.56,0,0,1,2.05-.2,11.82,11.82,0,0,1,4.17.74,4.08,4.08,0,0,1,.42.19l-.41,2.35L42,34.14l-.39,2.26v0a13.16,13.16,0,0,0-.2,1.76c0,.18,0,.34,0,.5a4.77,4.77,0,0,0,.1.73,2,2,0,0,0,.18.42,1.05,1.05,0,0,0,.47.42,1.31,1.31,0,0,0,.5.11h.26l.17,0,.19,0,.14,0,0,0,.19-.06.17-.07L44,40a1,1,0,0,0,.17-.1l.18-.12.17-.12.18-.16.16-.15.17-.19,0,0,.11-.12.16-.22c.05-.06.09-.13.14-.2l.15-.25c0-.07.09-.14.13-.22s.09-.18.14-.28l.12-.24.12-.31.1-.27c0-.11.07-.22.11-.34l.09-.29c0-.12.05-.25.08-.37s.05-.2.07-.31.05-.28.07-.41,0-.22.05-.33,0-.31,0-.47a3,3,0,0,0,0-.31c0-.23,0-.47,0-.71,0,0,0-.08,0-.13a11.73,11.73,0,0,0-.32-2.76v0c0-.15-.07-.3-.11-.44a9.36,9.36,0,0,0-.52-1.4c-.07-.15-.15-.29-.22-.43s-.28-.5-.44-.73a8.51,8.51,0,0,0-.87-1.11,8.34,8.34,0,0,0-2.17-1.61A9.41,9.41,0,0,0,39.82,24a11.7,11.7,0,0,0-1.38-.22c-.43,0-.87-.07-1.33-.07a11.41,11.41,0,0,0-10,5.81c-.16.28-.31.57-.46.87s-.27.6-.39.92-.27.75-.38,1.15a13.6,13.6,0,0,0-.41,2,16.64,16.64,0,0,0-.14,2.15h0a13.65,13.65,0,0,0,.25,2.63c.07.35.15.7.25,1,.05.17.11.34.17.51a9.58,9.58,0,0,0,.5,1.23s0,0,0,.06c.16.3.32.59.5.87a9.16,9.16,0,0,0,1.23,1.53,9.32,9.32,0,0,0,1.51,1.21,9.55,9.55,0,0,0,1.75.88,10.59,10.59,0,0,0,2,.54,12.59,12.59,0,0,0,2.16.18c.54,0,1.08,0,1.62-.08a14.42,14.42,0,0,0,2.32-.44,9.81,9.81,0,0,0,2-.81L42.26,48a15.11,15.11,0,0,1-4.38,1.34c-.6.08-1.23.14-1.89.17H35c-.41,0-.82,0-1.23,0a12.65,12.65,0,0,1-2.38-.44,12.25,12.25,0,0,1-2.2-.86,11.34,11.34,0,0,1-1-.57,12.31,12.31,0,0,1-1.85-1.45,11.7,11.7,0,0,1-1.53-1.82c-.14-.2-.27-.43-.4-.65A11.78,11.78,0,0,1,23.54,42.07Z"/><path class="cls-2" d="M37.71,30.83a5.44,5.44,0,0,0-4.79,3.34,6.94,6.94,0,0,0-.68,3.06h0c0,.08,0,.16,0,.24A2.93,2.93,0,0,0,33,39.4a2,2,0,0,0,.4.31A1.81,1.81,0,0,0,34,40a2.12,2.12,0,0,0,.52.06c1.27,0,2.49-1.1,3.29-2.54a7.34,7.34,0,0,0,.82-2.25l.15-.88.57-3.27-.4-.11A5.82,5.82,0,0,0,37.71,30.83Z"/></g></g></svg>