<svg xmlns="http://www.w3.org/2000/svg" viewBox="0 0 72 72"><defs><style>.cls-1{fill:#333;}.cls-2{fill:#fff;}</style></defs><g id="Layer_2" data-name="Layer 2"><g id="Layer_5" data-name="Layer 5"><circle class="cls-1" cx="36" cy="36" r="36"/><path class="cls-2" d="M55.55,30.57a2.72,2.72,0,0,0-5.2,1.59A15.83,15.83,0,0,1,51.06,37,16.68,16.68,0,1,1,34.38,20.29H44l-3.12,3.12a2.74,2.74,0,0,0,0,3.83,2.65,2.65,0,0,0,3.83,0l7.77-7.77a2.79,2.79,0,0,0,.82-1.92,2.54,2.54,0,0,0-.82-1.91L44.66,7.93a2.71,2.71,0,1,0-3.83,3.83L44,14.87H34.38A22.1,22.1,0,1,0,56.48,37,23,23,0,0,0,55.55,30.57Z"/><path class="cls-2" d="M32,29.15a1.65,1.65,0,0,0-2.51,1.42V43.43A1.65,1.65,0,0,0,32,44.85l10.45-6.4a1.64,1.64,0,0,0,0-2.79Z"/></g></g></svg>