<svg xmlns="http://www.w3.org/2000/svg" viewBox="0 0 69.6 69.6"><defs><style>.cls-1{fill:#333;}.cls-2{fill:#fff;}</style></defs><g id="Layer_2" data-name="Layer 2"><g id="Layer_5" data-name="Layer 5"><circle class="cls-1" cx="34.8" cy="34.8" r="34.8"/><path class="cls-2" d="M57.2,24.1,53.9,22v5l3.5-2.8h0a.35.35,0,0,1-.2-.1Z"/><path class="cls-2" d="M32.5,39.8a4,4,0,0,1,4.8,0l.2.2L52.2,28.3V9a1.42,1.42,0,0,0-.2-.6.73.73,0,0,0-.6-.2H18.3a.79.79,0,0,0-.8.8V28.3L32.2,40Z"/><path class="cls-2" d="M30.9,41.1,11.7,25.9V55.6a1.7,1.7,0,0,0,.1.7Z"/><path class="cls-2" d="M15.8,22l-3.3,2.1-.1.1L15.9,27l-.1-5Z"/><path class="cls-2" d="M58,25.8,38.8,41,57.9,56.1a1.48,1.48,0,0,0,.1-.7V25.8Z"/><path class="cls-2" d="M33.5,41.1,13.4,57.2h43L36.3,41.1a2.35,2.35,0,0,0-1.3-.5,2.46,2.46,0,0,0-1.5.5Z"/><path class="cls-1" d="M33.2,26.16l-.07-.84A7.24,7.24,0,0,1,35.08,20c1.23-1.46,2-2.59,2-3.86s-.84-2.27-2.66-2.3a5.76,5.76,0,0,0-3.24,1l-1-2.85a9.86,9.86,0,0,1,5.1-1.33c4,0,5.87,2.33,5.87,4.93,0,2.34-1.43,4-2.82,5.55a6,6,0,0,0-1.72,4.38l0,.68Zm-.82,4.51a2.47,2.47,0,1,1,2.47,2.53A2.41,2.41,0,0,1,32.38,30.67Z"/></g></g></svg>