<svg xmlns="http://www.w3.org/2000/svg" viewBox="0 0 69.6 69.6"><defs><style>.cls-1{fill:#333;}.cls-2{fill:#fff;}</style></defs><g id="Layer_2" data-name="Layer 2"><g id="Layer_5" data-name="Layer 5"><circle class="cls-1" cx="34.8" cy="34.8" r="34.8"/><path class="cls-2" d="M57.2,24.1,53.9,22v5l3.5-2.8h0a.35.35,0,0,1-.2-.1Z"/><path class="cls-2" d="M32.5,39.8a4,4,0,0,1,4.8,0l.2.2L52.2,28.3V9a1.42,1.42,0,0,0-.2-.6.73.73,0,0,0-.6-.2H18.3a.79.79,0,0,0-.8.8V28.3L32.2,40Z"/><path class="cls-2" d="M30.9,41.1,11.7,25.9V55.6a1.7,1.7,0,0,0,.1.7Z"/><path class="cls-2" d="M15.8,22l-3.3,2.1-.1.1L15.9,27l-.1-5Z"/><path class="cls-2" d="M58,25.8,38.8,41,57.9,56.1a1.48,1.48,0,0,0,.1-.7V25.8Z"/><path class="cls-2" d="M33.5,41.1,13.4,57.2h43L36.3,41.1a2.35,2.35,0,0,0-1.3-.5,2.46,2.46,0,0,0-1.5.5Z"/><path class="cls-1" d="M41.87,27.19a5.75,5.75,0,0,1-.46,2.32,5.26,5.26,0,0,1-1.3,1.79,6.41,6.41,0,0,1-2,1.2,9.23,9.23,0,0,1-2.62.56l-.32,3.21a.48.48,0,0,1-.07.21.38.38,0,0,1-.19.15,2.18,2.18,0,0,1-.39.1,4.94,4.94,0,0,1-.62,0,5.1,5.1,0,0,1-.77-.05,1.42,1.42,0,0,1-.46-.13.41.41,0,0,1-.22-.21.6.6,0,0,1,0-.3l.31-3a10.36,10.36,0,0,1-1.21-.24,9.8,9.8,0,0,1-1-.31,8.15,8.15,0,0,1-.81-.35,2.24,2.24,0,0,1-.51-.36,1,1,0,0,1-.24-.51,4.75,4.75,0,0,1-.08-1q0-.51,0-.84a1.78,1.78,0,0,1,.11-.51.56.56,0,0,1,.18-.25.6.6,0,0,1,.27-.07,1.3,1.3,0,0,1,.57.23,10.4,10.4,0,0,0,1,.49,8.73,8.73,0,0,0,1.41.5,7.62,7.62,0,0,0,2,.22,4.2,4.2,0,0,0,2.6-.65,2,2,0,0,0,.86-1.73,1.81,1.81,0,0,0-.37-1.18,3.22,3.22,0,0,0-1-.82A7.77,7.77,0,0,0,35.05,25l-1.58-.59a14.13,14.13,0,0,1-1.58-.74,6.06,6.06,0,0,1-1.38-1,4.73,4.73,0,0,1-1-1.49,5.59,5.59,0,0,1-.36-2.12A5.42,5.42,0,0,1,29.53,17a4.76,4.76,0,0,1,1.08-1.61,5.56,5.56,0,0,1,1.73-1.12,8.84,8.84,0,0,1,2.33-.57l.3-3A.48.48,0,0,1,35,10.5a.52.52,0,0,1,.19-.15,1.61,1.61,0,0,1,.39-.09,5.29,5.29,0,0,1,.63,0,5.69,5.69,0,0,1,.77,0,1.49,1.49,0,0,1,.47.13.38.38,0,0,1,.21.22,1,1,0,0,1,0,.3l-.3,2.83c.28,0,.58.09.89.16a6.85,6.85,0,0,1,.87.25,5.54,5.54,0,0,1,.73.3,1.87,1.87,0,0,1,.46.28,1.07,1.07,0,0,1,.19.26,1.12,1.12,0,0,1,.11.31c0,.13,0,.28.05.45s0,.38,0,.61,0,.56,0,.76a1.53,1.53,0,0,1-.08.46.4.4,0,0,1-.13.21.27.27,0,0,1-.18.05,1.37,1.37,0,0,1-.57-.19c-.25-.13-.56-.27-.92-.42a11.6,11.6,0,0,0-1.26-.42,6,6,0,0,0-1.57-.2,5.13,5.13,0,0,0-1.33.15,2.51,2.51,0,0,0-.9.42,1.68,1.68,0,0,0-.51.65,2,2,0,0,0-.17.82,1.88,1.88,0,0,0,.38,1.19,3.24,3.24,0,0,0,1,.82,10.28,10.28,0,0,0,1.41.63l1.61.6a14.33,14.33,0,0,1,1.6.73,5.48,5.48,0,0,1,1.4,1,4.59,4.59,0,0,1,1,1.46A5.22,5.22,0,0,1,41.87,27.19Z"/></g></g></svg>