<svg xmlns="http://www.w3.org/2000/svg" viewBox="0 0 72 72"><defs><style>.cls-1{fill:#333;}.cls-2{fill:#fff;}</style></defs><g id="Layer_2" data-name="Layer 2"><g id="Layer_5" data-name="Layer 5"><circle class="cls-1" cx="36" cy="36" r="36"/><path class="cls-2" d="M58.35,24.1,55.05,22v5l3.5-2.8A.35.35,0,0,1,58.35,24.1Z"/><path class="cls-2" d="M33.65,39.8a4,4,0,0,1,4.8,0l.2.2,14.7-11.7V9a1.42,1.42,0,0,0-.2-.6.73.73,0,0,0-.6-.2H19.45a.79.79,0,0,0-.8.8V28.3L33.35,40ZM45.33,12.14l.24.31,0,.05.22.3.35.47.25.31.26.34.51.68.39.53.76,1L49,17l.15.18.22.28.2.28a3.71,3.71,0,0,0,.23.32l.61.8.35.45.09.13a2.19,2.19,0,0,0,.2.25.78.78,0,0,1,.22.47c0,.08,0,.16,0,.24v.1a.83.83,0,0,1-.22.44c-.33.45-.67.89-1,1.33-.17.21-.33.43-.5.65l-1.27,1.68-.07.1v0l0,0-.43-.57-.35-.46-.61-.81,0,0-1.34-1.77-.4-.51-.27-.33v0l0-.1-.16-.22-.06-.09-.36-.47-.8-1.06-1.08-1.43L41.57,16l-.51-.68L40,13.89l-.6-.79-.58-.75-.16-.21Zm-6.6,16.22L39.78,27l.54-.71.57-.74.34-.45c.09-.13.18-.25.28-.37l.29-.39.36-.47.36-.48.41-.54.89-1.17.34-.45L44.3,21l.25-.33.18.21.39.5c.45.58.9,1.18,1.34,1.76l0,0,.61.81.35.47.49.65,0,0-.29.4-.63.82-.32.43-.28.37c-.34.44-.69.9-1,1.36a.08.08,0,0,1-.07,0H38.57C38.62,28.49,38.68,28.43,38.73,28.36Zm-13.9-12.8.29-.39.63-.83.33-.43.27-.36,1-1.36s0,0,.06,0h6.72l-.16.21-1,1.38-.54.71-.57.73-.34.46-.28.37c-.09.13-.19.25-.29.38l-.36.47-.36.48-.41.54c-.29.39-.59.79-.89,1.17l-.34.45-.14.18c-.08.11-.17.22-.25.34L28,19.81c-.14-.16-.27-.33-.4-.49l-1.34-1.77,0,0-.6-.8-.36-.47c-.16-.23-.32-.44-.49-.66Zm2.58,13-.24-.32,0-.05-.22-.3-.35-.46a3.92,3.92,0,0,0-.25-.32l-.26-.34c-.17-.22-.34-.45-.5-.68l-.4-.52c-.24-.32-.48-.65-.76-1l-.68-.88-.15-.19-.22-.28-.2-.28-.23-.32-.61-.8L22,21.39l-.09-.13a2.19,2.19,0,0,0-.2-.25.78.78,0,0,1-.22-.47,1.85,1.85,0,0,1,0-.24v-.1a.86.86,0,0,1,.22-.44l1-1.32.5-.66,1.27-1.68a.61.61,0,0,0,.07-.1l0,0,0,0,.42.57c.12.15.24.31.35.47l.61.81,0,0,1.34,1.77.4.51.27.34,0,0a.28.28,0,0,0,.05.09l.15.23.06.08.36.47c.26.36.53.71.8,1.06l1.08,1.43.72.94c.17.23.34.46.52.68l1,1.38.61.79c.18.25.38.5.57.75l.16.21Z"/><path class="cls-2" d="M12.85,25.9V55.6a1.7,1.7,0,0,0,.1.7l19.1-15.2Z"/><polygon class="cls-2" points="16.95 22 13.65 24.1 13.55 24.2 17.05 27 16.95 22"/><path class="cls-2" d="M40,41l19.1,15.1a1.48,1.48,0,0,0,.1-.7V25.8Z"/><polygon class="cls-2" points="59.15 25.8 59.15 25.8 59.15 25.8 59.15 25.8"/><path class="cls-2" d="M36.15,40.6a2.46,2.46,0,0,0-1.5.5L14.55,57.2h43L37.45,41.1A2.35,2.35,0,0,0,36.15,40.6Z"/></g></g></svg>