<svg xmlns="http://www.w3.org/2000/svg" viewBox="0 0 72 72"><defs><style>.cls-1{fill:#333;}.cls-2{fill:#fff;}</style></defs><g id="Layer_2" data-name="Layer 2"><g id="Layer_5" data-name="Layer 5"><circle class="cls-1" cx="36" cy="36" r="36"/><path class="cls-2" d="M61.46,52.15V19.59h0a2,2,0,0,0-.1-.77L45.91,31a3.8,3.8,0,0,0-.46-.05h-.9V29.75L59.6,17.83H12.29L27.55,29.91V31h-.9a2.85,2.85,0,0,0-.72.11L10.64,18.93a1.78,1.78,0,0,0-.1.77V52.37L23.75,41.91v2.28l-6.84,5.43L12.4,53.25H59.59l-4.51-3.63-6.83-5.46V41.68ZM47.25,43.36V47a2,2,0,0,1-1.9,1.9H26.65a2,2,0,0,1-1.9-1.9V33.88a2,2,0,0,1,1.9-1.9h1.9v-4.6a7.55,7.55,0,0,1,7.5-7.5,7.4,7.4,0,0,1,2.21.34A7.63,7.63,0,0,1,42,22.91a8.07,8.07,0,0,1,.64,1,7.41,7.41,0,0,1,.87,3.47v3.16h0V32h1.9a1.88,1.88,0,0,1,1.43.67,2,2,0,0,1,.27.47,1.9,1.9,0,0,1,.1.76v9.48Z"/><path class="cls-2" d="M36.15,23.58a3.8,3.8,0,0,0-3.8,3.8V32h7.5l.1-4.6A3.8,3.8,0,0,0,36.15,23.58Z"/><path class="cls-2" d="M36.7,35.84a2,2,0,0,0-.7-.13,2.08,2.08,0,0,0-.71.13,2,2,0,0,0-1.22,1.52c0,.1,0,.2,0,.3a2,2,0,0,0,.85,1.61v5.12h2.22V39.27A2,2,0,0,0,38,37.66a2.13,2.13,0,0,0,0-.25A1.93,1.93,0,0,0,36.7,35.84Z"/></g></g></svg>