<svg xmlns="http://www.w3.org/2000/svg" viewBox="0 0 72 72"><defs><style>.cls-1{fill:#333;}.cls-2{fill:#fff;}</style></defs><g id="Layer_2" data-name="Layer 2"><g id="Layer_5" data-name="Layer 5"><circle class="cls-1" cx="36" cy="36" r="36"/><path class="cls-2" d="M50.71,45.1h1.8a2.8,2.8,0,0,0,2.8-2.8V20.2a2.8,2.8,0,0,0-2.8-2.8h-1.9a2.8,2.8,0,0,0-2.8,2.8l.1,22.1A2.8,2.8,0,0,0,50.71,45.1Zm-1.8-24.9a1.79,1.79,0,0,1,1.8-1.8h1.8a1.79,1.79,0,0,1,1.8,1.8V42.3a1.79,1.79,0,0,1-1.8,1.8h-1.9a1.65,1.65,0,0,1-1.7-1.8Z"/><path class="cls-2" d="M13,20.2V42.3a2.68,2.68,0,0,0,2.8,2.8h1.7a2.8,2.8,0,0,0,2.8-2.8V20.2a2.8,2.8,0,0,0-2.8-2.8h-1.7A2.8,2.8,0,0,0,13,20.2Zm1,0a1.79,1.79,0,0,1,1.8-1.8h1.8a1.79,1.79,0,0,1,1.8,1.8V42.3a1.79,1.79,0,0,1-1.8,1.8h-1.8A1.73,1.73,0,0,1,14,42.3Z"/><path class="cls-2" d="M21.71,42.3h0A2.8,2.8,0,0,0,24.5,45.1h1.81a2.6,2.6,0,0,0,.56-.06,3.19,3.19,0,0,0,.44-.13l.08,0a2,2,0,0,0,.38-.2l.1,0c.09-.06.17-.14.26-.21l.16-.14c.05-.05.09-.11.14-.17a1.83,1.83,0,0,0,.21-.26.41.41,0,0,0,.05-.09,2.93,2.93,0,0,0,.21-.39s0,0,0-.07a2.49,2.49,0,0,0,.14-.44,3.43,3.43,0,0,0,.05-.56V20.17a3.07,3.07,0,0,0-.05-.53,3.88,3.88,0,0,0-.14-.45.64.64,0,0,1,0-.07,2.82,2.82,0,0,0-.21-.38.73.73,0,0,0-.05-.09,2.78,2.78,0,0,0-.21-.27l-.14-.16-.16-.14c-.09-.07-.17-.15-.26-.21l-.1-.05a2.82,2.82,0,0,0-.38-.21l-.08,0a3.73,3.73,0,0,0-.44-.14,3.43,3.43,0,0,0-.56-.05h-1.8a3.21,3.21,0,0,0-.55.05,2.83,2.83,0,0,0-.44.14l-.08,0a2.93,2.93,0,0,0-.39.21l-.09.05a2.65,2.65,0,0,0-.26.21l-.17.14-.14.16-.21.27a.73.73,0,0,0-.05.09,2.75,2.75,0,0,0-.2.38.25.25,0,0,0,0,.07,2.59,2.59,0,0,0-.14.45,3.07,3.07,0,0,0-.05.53V42.3Zm1-22.1a1.79,1.79,0,0,1,1.8-1.8h1.8a1.79,1.79,0,0,1,1.8,1.8V42.3a1.79,1.79,0,0,1-1.8,1.8h-1.8a1.79,1.79,0,0,1-1.8-1.8Z"/><path class="cls-2" d="M39.11,20.2V42.3a2.68,2.68,0,0,0,2.8,2.8h1.7a2.8,2.8,0,0,0,2.8-2.8V20.2a2.8,2.8,0,0,0-2.8-2.8h-1.7A2.8,2.8,0,0,0,39.11,20.2Zm1,0a1.79,1.79,0,0,1,1.8-1.8h1.8a1.79,1.79,0,0,1,1.8,1.8V42.3a1.79,1.79,0,0,1-1.8,1.8h-1.8a1.73,1.73,0,0,1-1.8-1.8Z"/><path class="cls-2" d="M30.41,20.2V42.3a2.68,2.68,0,0,0,2.8,2.8h1.7a2.8,2.8,0,0,0,2.8-2.8V20.2a2.8,2.8,0,0,0-2.8-2.8h-1.7A2.8,2.8,0,0,0,30.41,20.2Zm1,0a1.79,1.79,0,0,1,1.8-1.8H35a1.79,1.79,0,0,1,1.8,1.8V42.3A1.79,1.79,0,0,1,35,44.1h-1.8a1.73,1.73,0,0,1-1.8-1.8Z"/><path class="cls-2" d="M61.71,31.86V35.1h-4.5V53.6a3.86,3.86,0,0,1-3.8,3.8H15.11a3.86,3.86,0,0,1-3.8-3.8V35.1H2.61v1.7h7.1V53.6a5.51,5.51,0,0,0,5.4,5.4h38.1a5.51,5.51,0,0,0,5.4-5.4V36.8h3.1v3.28L68.91,36Z"/><path class="cls-2" d="M14.51,50a5.15,5.15,0,0,0,.2.52l1.15,2.66c.06.14.11.26.16.35a.83.83,0,0,0,.15.22.48.48,0,0,0,.17.12.66.66,0,0,0,.21,0H17a.35.35,0,0,0,.14,0,.21.21,0,0,0,.11-.08.32.32,0,0,0,.08-.13.48.48,0,0,0,0-.18V48.39a.24.24,0,0,0,0-.08.22.22,0,0,0-.07-.06.28.28,0,0,0-.12,0h-.42a.4.4,0,0,0-.13,0,.22.22,0,0,0-.07.06.24.24,0,0,0,0,.08V51.7c0,.22,0,.43,0,.64h0c-.05-.12-.09-.24-.14-.35l-.13-.36-.15-.37c0-.12-.11-.24-.16-.37L15,48.81a1.87,1.87,0,0,0-.13-.28.72.72,0,0,0-.14-.19.51.51,0,0,0-.16-.09.8.8,0,0,0-.23,0h-.51a.37.37,0,0,0-.24.1.48.48,0,0,0-.09.31v5.11a.19.19,0,0,0,0,.08.13.13,0,0,0,.07.06.33.33,0,0,0,.13,0h.41a.33.33,0,0,0,.13,0,.09.09,0,0,0,.07-.06.19.19,0,0,0,0-.08v-3c0-.22,0-.44,0-.65s0-.42,0-.63h0C14.37,49.66,14.44,49.84,14.51,50Z"/><path class="cls-2" d="M19.05,49.75a1.53,1.53,0,0,0-.55.46,2.33,2.33,0,0,0-.33.71,3.76,3.76,0,0,0-.1.92,3.71,3.71,0,0,0,.1.92,1.7,1.7,0,0,0,.3.68,1.25,1.25,0,0,0,.52.42,1.72,1.72,0,0,0,.74.15,1.82,1.82,0,0,0,.77-.16,1.55,1.55,0,0,0,.55-.47,2,2,0,0,0,.32-.71,3.66,3.66,0,0,0,.11-.91,3.73,3.73,0,0,0-.1-.93,1.86,1.86,0,0,0-.31-.68,1.34,1.34,0,0,0-.52-.42,1.84,1.84,0,0,0-.74-.14A1.64,1.64,0,0,0,19.05,49.75Zm1.34,1.09a1.67,1.67,0,0,1,.13.43,4.33,4.33,0,0,1,0,.53,3.13,3.13,0,0,1,0,.56,1.17,1.17,0,0,1-.15.41.64.64,0,0,1-.24.27.67.67,0,0,1-.35.08.74.74,0,0,1-.38-.09.63.63,0,0,1-.23-.28,1.56,1.56,0,0,1-.13-.43,2.93,2.93,0,0,1,0-.53,3.15,3.15,0,0,1,.05-.56,1.41,1.41,0,0,1,.14-.41.73.73,0,0,1,.25-.27.68.68,0,0,1,.35-.09.7.7,0,0,1,.37.1A.73.73,0,0,1,20.39,50.84Z"/><path class="cls-2" d="M24.36,53.83s0,0,.07.06l.14,0H25l.14,0s.06,0,.07-.06a.14.14,0,0,0,0-.07V51.34a3.77,3.77,0,0,0-.06-.73,1.4,1.4,0,0,0-.2-.53,1,1,0,0,0-.91-.49,1.14,1.14,0,0,0-.57.17,2.21,2.21,0,0,0-.53.53v-.45a.19.19,0,0,0,0-.08.1.1,0,0,0-.06,0,.28.28,0,0,0-.12,0h-.37a.34.34,0,0,0-.12,0,.1.1,0,0,0-.06,0,.19.19,0,0,0,0,.08v3.92a.14.14,0,0,0,0,.07.2.2,0,0,0,.07.06l.14,0h.44l.13,0a.17.17,0,0,0,.08-.06.14.14,0,0,0,0-.07V51.15a3.2,3.2,0,0,1,.36-.45.56.56,0,0,1,.35-.15.48.48,0,0,1,.24.06.55.55,0,0,1,.16.18.77.77,0,0,1,.1.28,2.48,2.48,0,0,1,0,.45v2.24A.08.08,0,0,0,24.36,53.83Z"/><path class="cls-2" d="M27.6,51.27l-.07,0H26a.13.13,0,0,0-.13.1,1.27,1.27,0,0,0,0,.35,1.33,1.33,0,0,0,0,.35.13.13,0,0,0,.13.1h1.49a.12.12,0,0,0,.12-.1.94.94,0,0,0,0-.35,1.22,1.22,0,0,0,0-.21.26.26,0,0,0,0-.14A.16.16,0,0,0,27.6,51.27Z"/><path class="cls-2" d="M31,49.13l.06,0s0,0,0-.08a1.3,1.3,0,0,0,0-.13c0-.06,0-.13,0-.21s0-.16,0-.22,0-.1,0-.14a.15.15,0,0,0,0-.08l-.06,0h-2.3a.25.25,0,0,0-.2.09.36.36,0,0,0-.08.28v4.95a.38.38,0,0,0,.08.28.25.25,0,0,0,.2.09H31l.06,0a.21.21,0,0,0,0-.07l0-.14c0-.06,0-.13,0-.22s0-.15,0-.21,0-.1,0-.14a.21.21,0,0,0,0-.07A.09.09,0,0,0,31,53H29.34V51.4h1.4l.06,0a.15.15,0,0,0,0-.08.86.86,0,0,0,0-.13c0-.06,0-.13,0-.21s0-.15,0-.21,0-.1,0-.14a.16.16,0,0,0,0-.07l-.06,0h-1.4V49.13Z"/><path class="cls-2" d="M31.59,53.8a.09.09,0,0,0,0,.08.34.34,0,0,0,.14,0h.49l.14,0a.16.16,0,0,0,.08,0,.16.16,0,0,0,0-.07l.59-1.39.59,1.39a.16.16,0,0,0,0,.07.16.16,0,0,0,.08,0l.15,0h.54a.39.39,0,0,0,.15,0,.08.08,0,0,0,.05-.08.3.3,0,0,0,0-.12l-.88-2,.79-1.78a.82.82,0,0,0,0-.14.13.13,0,0,0,0-.09.39.39,0,0,0-.14,0H34l-.13,0-.07,0,0,.06-.56,1.31-.57-1.31a.43.43,0,0,0,0-.07l-.08,0-.15,0h-.25l-.28,0a.33.33,0,0,0-.15,0,.09.09,0,0,0,0,.08.39.39,0,0,0,0,.14l.82,1.81-.88,1.93A.15.15,0,0,0,31.59,53.8Z"/><path class="cls-2" d="M36.56,50.49a.75.75,0,0,1,.31.06,1.18,1.18,0,0,1,.22.14l.16.13a.22.22,0,0,0,.13.06s.07,0,.09-.1a1,1,0,0,0,0-.36,1,1,0,0,0,0-.18c0-.06,0-.1,0-.13l0-.09-.05-.08a1,1,0,0,0-.14-.12,1,1,0,0,0-.21-.11,1.14,1.14,0,0,0-.26-.09,1.27,1.27,0,0,0-.28,0,1.5,1.5,0,0,0-.64.14,1.35,1.35,0,0,0-.51.42,2,2,0,0,0-.33.71,3.73,3.73,0,0,0-.12,1,3.62,3.62,0,0,0,.1.91,1.86,1.86,0,0,0,.29.67,1.31,1.31,0,0,0,.47.41,1.39,1.39,0,0,0,.66.14,1.73,1.73,0,0,0,.32,0,1.84,1.84,0,0,0,.28-.09l.24-.13a.69.69,0,0,0,.15-.13l0-.08a.2.2,0,0,0,0-.09s0-.07,0-.12v-.2a1.55,1.55,0,0,0,0-.23.49.49,0,0,0,0-.15.12.12,0,0,0,0-.09l-.05,0a.19.19,0,0,0-.12.07,1.17,1.17,0,0,1-.16.15,1,1,0,0,1-.24.15.63.63,0,0,1-.32.07.6.6,0,0,1-.55-.32,1.41,1.41,0,0,1-.13-.41,3.06,3.06,0,0,1,0-.56,2,2,0,0,1,.19-1A.58.58,0,0,1,36.56,50.49Z"/><path class="cls-2" d="M38.27,53.89l.13,0h.44l.14,0s.06,0,.07-.06a.14.14,0,0,0,0-.07V48a.19.19,0,0,0,0-.08.22.22,0,0,0-.07-.06l-.14,0H38.4a.4.4,0,0,0-.13,0,.28.28,0,0,0-.08.06.19.19,0,0,0,0,.08v5.78a.14.14,0,0,0,0,.07A.17.17,0,0,0,38.27,53.89Z"/><path class="cls-2" d="M42.24,53.83s0,0,.06.06l.11,0h.38l.12,0s.05,0,.06-.06a.14.14,0,0,0,0-.07V49.84a.19.19,0,0,0,0-.08.18.18,0,0,0-.07,0l-.14,0h-.44a.4.4,0,0,0-.13,0,.16.16,0,0,0-.08,0,.19.19,0,0,0,0,.08v2.6a2.77,2.77,0,0,1-.37.45.56.56,0,0,1-.35.16.48.48,0,0,1-.24-.07A.47.47,0,0,1,41,52.8a.77.77,0,0,1-.1-.28,2.74,2.74,0,0,1,0-.47V49.84a.11.11,0,0,0,0-.08.1.1,0,0,0-.07,0,.39.39,0,0,0-.14,0h-.43a.39.39,0,0,0-.14,0,.13.13,0,0,0-.07,0,.19.19,0,0,0,0,.08v2.4A3.92,3.92,0,0,0,40,53a1.75,1.75,0,0,0,.19.53,1.16,1.16,0,0,0,.37.36,1.12,1.12,0,0,0,.55.13,1,1,0,0,0,.56-.18,2.17,2.17,0,0,0,.54-.52v.45A.14.14,0,0,0,42.24,53.83Z"/><path class="cls-2" d="M45.12,53.09a.67.67,0,0,1-.38.11,1,1,0,0,1-.35-.05,1.26,1.26,0,0,1-.26-.13,1,1,0,0,1-.19-.12.28.28,0,0,0-.12,0h0a.09.09,0,0,0,0,.06.51.51,0,0,0,0,.13,1.15,1.15,0,0,0,0,.2,1.85,1.85,0,0,0,0,.29.57.57,0,0,0,.06.15l.13.1.21.1a2.46,2.46,0,0,0,.29.09,2,2,0,0,0,.35,0,1.67,1.67,0,0,0,.55-.09,1.09,1.09,0,0,0,.43-.25,1.17,1.17,0,0,0,.29-.43,1.79,1.79,0,0,0,0-1.05,1.36,1.36,0,0,0-.18-.34,1.88,1.88,0,0,0-.25-.24l-.29-.17-.28-.13a1.58,1.58,0,0,1-.26-.13.93.93,0,0,1-.18-.16.44.44,0,0,1-.06-.23.47.47,0,0,1,0-.17.26.26,0,0,1,.08-.13.38.38,0,0,1,.15-.09.66.66,0,0,1,.21,0,.73.73,0,0,1,.3.05l.24.09.17.1a.23.23,0,0,0,.1,0l0,0a.16.16,0,0,0,0-.06.27.27,0,0,0,0-.11s0-.12,0-.2,0-.12,0-.17,0-.08,0-.11,0-.06,0-.08l-.05-.07-.11-.07a.93.93,0,0,0-.2-.09,1.49,1.49,0,0,0-.25-.07l-.29,0a1.53,1.53,0,0,0-.54.09,1.15,1.15,0,0,0-.41.26,1,1,0,0,0-.26.4,1.46,1.46,0,0,0-.09.52,1.33,1.33,0,0,0,.07.47,1.08,1.08,0,0,0,.17.34,1.42,1.42,0,0,0,.25.24,2.61,2.61,0,0,0,.28.17l.28.14a1.46,1.46,0,0,1,.25.13.52.52,0,0,1,.17.16.37.37,0,0,1,.07.23.45.45,0,0,1,0,.2A.4.4,0,0,1,45.12,53.09Z"/><path class="cls-2" d="M47.48,49.68l-.22,0-.22,0a.49.49,0,0,0-.14,0,.22.22,0,0,0-.07.06.19.19,0,0,0,0,.08v3.91a.14.14,0,0,0,0,.07s0,0,.07.06l.14,0h.44l.13,0a.17.17,0,0,0,.08-.06.14.14,0,0,0,0-.07V49.85a.19.19,0,0,0,0-.08.28.28,0,0,0-.08-.06A.42.42,0,0,0,47.48,49.68Z"/><path class="cls-2" d="M47.26,49.1a.53.53,0,0,0,.41-.13,1,1,0,0,0,0-.91.54.54,0,0,0-.41-.12.5.5,0,0,0-.41.13.75.75,0,0,0-.11.46.72.72,0,0,0,.11.45A.53.53,0,0,0,47.26,49.1Z"/><path class="cls-2" d="M51.32,49.67h-.43l-.14,0-.07.06a.32.32,0,0,0,0,.09l-.72,2.88,0,.11,0-.11-.72-2.88,0-.09a.22.22,0,0,0-.07-.06l-.14,0h-.46l-.14,0a.2.2,0,0,0-.07.06.14.14,0,0,0,0,.07.13.13,0,0,0,0,.06.46.46,0,0,0,0,.1l0,.16,1,3.55a.37.37,0,0,0,0,.11.21.21,0,0,0,.1.08l.18,0h.63a.42.42,0,0,0,.18,0,.3.3,0,0,0,.11-.07.83.83,0,0,0,0-.12l1-3.55a.52.52,0,0,0,0-.11s0-.06,0-.09v-.06a.13.13,0,0,0,0-.06.14.14,0,0,0,0-.07s0,0-.07-.06Z"/><path class="cls-2" d="M54.86,52a.47.47,0,0,0,.08-.3v-.17a3.13,3.13,0,0,0-.09-.77,1.61,1.61,0,0,0-.27-.61,1.27,1.27,0,0,0-.46-.4,1.59,1.59,0,0,0-.68-.14,1.48,1.48,0,0,0-.68.15,1.32,1.32,0,0,0-.52.45,2,2,0,0,0-.32.71,4.16,4.16,0,0,0,0,1.9,1.72,1.72,0,0,0,.32.68,1.31,1.31,0,0,0,.53.4,2.08,2.08,0,0,0,.74.13A2.15,2.15,0,0,0,54,54a1.72,1.72,0,0,0,.36-.09,2,2,0,0,0,.27-.1l.13-.08,0-.07a.19.19,0,0,0,0-.08.41.41,0,0,0,0-.12.76.76,0,0,0,0-.16,1,1,0,0,0,0-.18.27.27,0,0,0,0-.11.16.16,0,0,0,0-.06h-.06a.33.33,0,0,0-.14,0l-.21.09-.31.09a1.73,1.73,0,0,1-.41,0,1,1,0,0,1-.4-.07.64.64,0,0,1-.27-.22,1,1,0,0,1-.16-.35,2,2,0,0,1,0-.45h1.93A.21.21,0,0,0,54.86,52Zm-2.13-.61a1.6,1.6,0,0,1,.05-.39,1.33,1.33,0,0,1,.12-.32.63.63,0,0,1,.22-.21.55.55,0,0,1,.29-.08.56.56,0,0,1,.51.27,1.47,1.47,0,0,1,.15.73Z"/></g></g></svg>