<svg xmlns="http://www.w3.org/2000/svg" viewBox="0 0 72 72"><defs><style>.cls-1{fill:#333;}.cls-2{fill:#fff;}</style></defs><g id="Layer_2" data-name="Layer 2"><g id="Layer_5" data-name="Layer 5"><circle class="cls-1" cx="36" cy="36" r="36"/><circle class="cls-2" cx="53.49" cy="35.9" r="7.2"/><path class="cls-2" d="M38.1,34.9H19.31a7.38,7.38,0,0,0-.5-1.83l13.3-8.17.08,3.6,6.28-8.68a7.19,7.19,0,1,0-1-3.62,7.1,7.1,0,0,0,1,3.6L27.89,21.6,31,23.23,17.77,31.36a7.2,7.2,0,1,0,0,9.08L31,48.56,27.89,50.2l10.33,1.65A7.08,7.08,0,0,0,37.49,55a7.2,7.2,0,1,0,.82-3.34L32.19,43.3l-.08,3.59-13.3-8.16a7.5,7.5,0,0,0,.5-1.83H38.1L36.29,40l10-4.1-10-4.1Z"/></g></g></svg>