<svg xmlns="http://www.w3.org/2000/svg" viewBox="0 0 72 72"><defs><style>.cls-1{fill:#333;}.cls-2{fill:#fff;}</style></defs><g id="Layer_2" data-name="Layer 2"><g id="Layer_5" data-name="Layer 5"><circle class="cls-1" cx="36" cy="36" r="36"/><path class="cls-2" d="M16.35,33.67h.1a2.76,2.76,0,0,1-2.6-2.8V18.77a2.69,2.69,0,0,1,2.6-2.8h-.1a2.76,2.76,0,0,0-2.6,2.8v12.1A2.76,2.76,0,0,0,16.35,33.67Z"/><path class="cls-2" d="M29.65,30.88a2.62,2.62,0,0,0,2.6,2.79A2.75,2.75,0,0,1,29.65,30.88Z"/><polygon class="cls-2" points="33.95 33.67 33.95 33.67 33.95 33.67 33.95 33.67"/><path class="cls-2" d="M36.55,18.77v0A2.69,2.69,0,0,0,34,16h0A2.76,2.76,0,0,1,36.55,18.77Z"/><path class="cls-2" d="M28.55,18.77h0A2.69,2.69,0,0,0,26,16,2.76,2.76,0,0,1,28.55,18.77Z"/><path class="cls-2" d="M24.35,16h-.1a2.76,2.76,0,0,0-2.6,2.8h.1A2.69,2.69,0,0,1,24.35,16Z"/><path class="cls-2" d="M52.35,18.77h0a2.69,2.69,0,0,0-2.6-2.8A2.76,2.76,0,0,1,52.35,18.77Z"/><polygon class="cls-2" points="45.45 18.77 45.45 18.77 45.45 18.77 45.45 18.77"/><path class="cls-2" d="M48.05,33.67a2.76,2.76,0,0,1-2.6-2.8A2.69,2.69,0,0,0,48.05,33.67Z"/><path class="cls-2" d="M44.45,18.77h0a2.69,2.69,0,0,0-2.6-2.8A2.76,2.76,0,0,1,44.45,18.77Z"/><path class="cls-2" d="M40.15,33.67a2.76,2.76,0,0,1-2.6-2.8A2.69,2.69,0,0,0,40.15,33.67Z"/><polygon class="cls-2" points="37.55 18.77 37.55 18.77 37.55 18.77 37.55 18.77"/><polygon class="cls-2" points="61.25 25.57 61.25 28.97 61.35 28.92 61.35 25.57 61.25 25.57"/><polygon class="cls-2" points="12.15 33.67 12.15 33.57 3.35 33.57 3.35 35.27 3.45 35.27 3.45 33.67 12.15 33.67"/><path class="cls-2" d="M16.05,56h35.2a3.86,3.86,0,0,0,3.8-3.8V24h6.3v-3.3l7.16,4.13,0,0-7.3-4.2v3.3H55v28.2a3.86,3.86,0,0,1-3.8,3.8H16a3.8,3.8,0,0,1-2.62-1.08A3.76,3.76,0,0,0,16.05,56Z"/><polygon class="cls-2" points="61.35 40.69 61.15 40.57 61.24 43.87 61.35 43.87 61.35 40.69"/><path class="cls-2" d="M10.55,35.37h-.1v16.7a5.41,5.41,0,0,0,1.66,3.84,5.37,5.37,0,0,1-1.56-3.74Z"/><polygon class="cls-2" points="61.15 45.57 61.15 48.97 61.25 48.92 61.25 45.57 61.15 45.57"/><path class="cls-2" d="M40.15,53.67h1.7a2.69,2.69,0,0,0,2.6-2.8V38.77a2.76,2.76,0,0,0-2.6-2.8h-1.7a2.69,2.69,0,0,0-2.6,2.8v12.1A2.76,2.76,0,0,0,40.15,53.67Z"/><rect class="cls-2" x="3.45" y="35.27" width="7" height="0.1"/><path class="cls-2" d="M40.15,16a2.69,2.69,0,0,0-2.6,2.8A2.76,2.76,0,0,1,40.15,16Z"/><path class="cls-2" d="M12.15,52.07a3.76,3.76,0,0,0,1.18,2.72,3.8,3.8,0,0,1-1.08-2.62V33.67h-.1v18.4Z"/><path class="cls-2" d="M41.85,33.67a2.69,2.69,0,0,0,2.6-2.8A2.76,2.76,0,0,1,41.85,33.67Z"/><polygon class="cls-2" points="32.25 33.67 32.25 33.67 32.25 33.67 32.25 33.67"/><polygon class="cls-2" points="61.35 29.07 68.65 24.87 68.51 24.8 61.35 28.92 61.35 29.07"/><path class="cls-2" d="M16.45,36a2.69,2.69,0,0,0-2.6,2.8v12.1a2.76,2.76,0,0,0,2.6,2.8h1.7a2.69,2.69,0,0,0,2.6-2.8V38.77a2.76,2.76,0,0,0-2.6-2.8Zm3.3,2.8v12.1a1.71,1.71,0,0,1-1.7,1.8h-1.7a1.77,1.77,0,0,1-1.7-1.8V38.77a1.71,1.71,0,0,1,1.7-1.8h1.7A1.77,1.77,0,0,1,19.75,38.77Z"/><path class="cls-2" d="M48.05,16a2.69,2.69,0,0,0-2.6,2.8A2.76,2.76,0,0,1,48.05,16Z"/><path class="cls-2" d="M56.45,52.07a5.51,5.51,0,0,1-5.4,5.4H15.85a5.38,5.38,0,0,1-3.74-1.56A5.37,5.37,0,0,0,16,57.57h35.2a5.51,5.51,0,0,0,5.4-5.4v-6.6h-.1Z"/><polygon class="cls-2" points="61.35 40.69 68.45 44.77 61.25 48.92 61.25 49.07 68.65 44.77 61.35 40.57 61.35 40.69"/><path class="cls-2" d="M49.75,33.67a2.69,2.69,0,0,0,2.6-2.8A2.76,2.76,0,0,1,49.75,33.67Z"/><path class="cls-2" d="M34,33.67a2.69,2.69,0,0,0,2.6-2.78A2.76,2.76,0,0,1,34,33.67Z"/><path class="cls-2" d="M48.05,53.67h1.7a2.69,2.69,0,0,0,2.6-2.8V38.77a2.76,2.76,0,0,0-2.6-2.8h-1.7a2.69,2.69,0,0,0-2.6,2.8v12.1A2.76,2.76,0,0,0,48.05,53.67Z"/><path class="cls-2" d="M20.65,18.77v12.1a2.76,2.76,0,0,1-2.6,2.8h.1a2.69,2.69,0,0,0,2.6-2.8V18.77a2.76,2.76,0,0,0-2.6-2.8h-.1A2.69,2.69,0,0,1,20.65,18.77Z"/><path class="cls-2" d="M26,33.67a2.69,2.69,0,0,0,2.6-2.8A2.76,2.76,0,0,1,26,33.67Z"/><path class="cls-2" d="M24.25,53.67H26a2.69,2.69,0,0,0,2.6-2.8V38.77A2.76,2.76,0,0,0,26,36h-1.6a2.69,2.69,0,0,0-2.6,2.8h-.1v12.1A2.76,2.76,0,0,0,24.25,53.67Zm-1.7-14.9a1.77,1.77,0,0,1,1.7-1.8H26a1.71,1.71,0,0,1,1.7,1.8v12.1a1.77,1.77,0,0,1-1.7,1.8h-1.6a1.86,1.86,0,0,1-1.8-1.8Z"/><path class="cls-2" d="M24.25,33.67h.1a2.78,2.78,0,0,1-2.7-2.8A2.76,2.76,0,0,0,24.25,33.67Z"/><polygon class="cls-2" points="56.55 43.97 61.25 43.97 61.24 43.87 56.65 43.87 56.65 25.57 56.55 25.57 56.55 43.97"/><path class="cls-2" d="M29.65,30.87V18.77a2.76,2.76,0,0,1,2.6-2.8h0a2.69,2.69,0,0,0-2.6,2.8v12.1h0Z"/><path class="cls-2" d="M32.25,53.67H34a2.69,2.69,0,0,0,2.6-2.8V38.77A2.76,2.76,0,0,0,34,36h-1.7a2.69,2.69,0,0,0-2.6,2.8v12.1A2.76,2.76,0,0,0,32.25,53.67Z"/><path class="cls-2" d="M13.85,18.77v12.1a2.76,2.76,0,0,0,2.6,2.8h1.6a2.76,2.76,0,0,0,2.6-2.8V18.77a2.69,2.69,0,0,0-2.6-2.8h-1.6A2.69,2.69,0,0,0,13.85,18.77Zm.8,0a1.77,1.77,0,0,1,1.7-1.8h1.7a1.71,1.71,0,0,1,1.7,1.8v12.1a1.77,1.77,0,0,1-1.7,1.8h-1.7a1.85,1.85,0,0,1-1.7-1.8Z"/><path class="cls-2" d="M29.65,18.77v12.1h0a2.75,2.75,0,0,0,2.6,2.79H34a2.76,2.76,0,0,0,2.6-2.78V18.77A2.76,2.76,0,0,0,34,16h-1.7A2.76,2.76,0,0,0,29.65,18.77Zm.9,0a1.77,1.77,0,0,1,1.7-1.8H34a1.71,1.71,0,0,1,1.7,1.8v12.1a1.77,1.77,0,0,1-1.7,1.8h-1.7a1.77,1.77,0,0,1-1.7-1.8Z"/><path class="cls-2" d="M24.35,33.67H26a2.76,2.76,0,0,0,2.6-2.8V18.77A2.76,2.76,0,0,0,26,16h-1.6a2.69,2.69,0,0,0-2.6,2.8h-.1v12.1A2.78,2.78,0,0,0,24.35,33.67Zm-1.8-14.9a1.77,1.77,0,0,1,1.7-1.8H26a1.71,1.71,0,0,1,1.7,1.8v12.1a1.77,1.77,0,0,1-1.7,1.8h-1.6a1.86,1.86,0,0,1-1.8-1.8Z"/><path class="cls-2" d="M48.05,33.67h1.7a2.76,2.76,0,0,0,2.6-2.8V18.77a2.76,2.76,0,0,0-2.6-2.8h-1.7a2.76,2.76,0,0,0-2.6,2.8h0v12.1A2.76,2.76,0,0,0,48.05,33.67Z"/><path class="cls-2" d="M40.15,33.67h1.7a2.76,2.76,0,0,0,2.6-2.8V18.77a2.76,2.76,0,0,0-2.6-2.8h-1.7a2.76,2.76,0,0,0-2.6,2.8h0v12.1A2.76,2.76,0,0,0,40.15,33.67Z"/><path class="cls-2" d="M61.35,40.69v3.18h-.1V44h-4.7V25.57h4.8v3.35l7.16-4.12-7.16-4.13V24h-6.3v28.2a3.86,3.86,0,0,1-3.8,3.8H16.05a4,4,0,0,1-3.9-3.9V33.67H3.45v1.6h7v.1h.1v16.8a5.33,5.33,0,0,0,5.3,5.3h35.2a5.51,5.51,0,0,0,5.4-5.4v-6.5h4.8v3.35l7.2-4.15Z"/></g></g></svg>