<svg xmlns="http://www.w3.org/2000/svg" viewBox="0 0 72 72"><defs><style>.cls-1{fill:#333;}.cls-2{fill:#fff;}</style></defs><g id="Layer_2" data-name="Layer 2"><g id="Layer_5" data-name="Layer 5"><circle class="cls-1" cx="36" cy="36" r="36"/><path class="cls-2" d="M33.35,52.33h1.8a2.8,2.8,0,0,0,2.8-2.8V17.43a2.8,2.8,0,0,0-2.8-2.8h-1.8a2.8,2.8,0,0,0-2.8,2.8v32.1A2.8,2.8,0,0,0,33.35,52.33Z"/><path class="cls-2" d="M24.65,52.33h1.8a2.8,2.8,0,0,0,2.8-2.8V17.43a2.8,2.8,0,0,0-2.8-2.8h-1.8a2.8,2.8,0,0,0-2.8,2.8v32.1A2.8,2.8,0,0,0,24.65,52.33Zm-1.8-34.9a1.79,1.79,0,0,1,1.8-1.8h1.8a1.79,1.79,0,0,1,1.8,1.8v32.1a1.79,1.79,0,0,1-1.8,1.8h-1.8a1.79,1.79,0,0,1-1.8-1.8Z"/><path class="cls-2" d="M50.75,52.33h1.8a2.8,2.8,0,0,0,2.8-2.8V17.43a2.8,2.8,0,0,0-2.8-2.8h-1.8a2.8,2.8,0,0,0-2.8,2.8v32.1A2.8,2.8,0,0,0,50.75,52.33Z"/><path class="cls-2" d="M42.05,52.33h1.8a2.8,2.8,0,0,0,2.8-2.8V17.43a2.8,2.8,0,0,0-2.8-2.8h-1.8a2.8,2.8,0,0,0-2.8,2.8v32.1A2.8,2.8,0,0,0,42.05,52.33Z"/><path class="cls-2" d="M16,52.33h1.8a2.8,2.8,0,0,0,2.8-2.8V17.43a2.8,2.8,0,0,0-2.8-2.8H16a2.8,2.8,0,0,0-2.8,2.8v32.1A2.8,2.8,0,0,0,16,52.33Zm-1.7-34.9a1.79,1.79,0,0,1,1.8-1.8h1.8a1.79,1.79,0,0,1,1.8,1.8v32.1a1.79,1.79,0,0,1-1.8,1.8h-1.8a1.73,1.73,0,0,1-1.8-1.8Z"/><path class="cls-2" d="M69.15,33.23,61.85,29l.1,3.3h-4.5v18.5a3.86,3.86,0,0,1-3.8,3.8H15.45a3.86,3.86,0,0,1-3.8-3.8V32.33H2.85V34H10v16.8a5.51,5.51,0,0,0,5.4,5.4h38.2a5.51,5.51,0,0,0,5.4-5.4V34h2.9v3.4Z"/></g></g></svg>