<svg xmlns="http://www.w3.org/2000/svg" viewBox="0 0 72 72"><defs><style>.cls-1{fill:#333;}.cls-2{fill:#fff;}</style></defs><g id="Layer_2" data-name="Layer 2"><g id="Layer_5" data-name="Layer 5"><circle class="cls-1" cx="36" cy="36" r="36"/><path class="cls-2" d="M16.05,52.33h1.8a2.8,2.8,0,0,0,2.8-2.8V17.43a2.8,2.8,0,0,0-2.8-2.8h-1.8a2.8,2.8,0,0,0-2.8,2.8v32.1A2.68,2.68,0,0,0,16.05,52.33Zm-1.8-34.9a1.79,1.79,0,0,1,1.8-1.8h1.8a1.79,1.79,0,0,1,1.8,1.8v32.1a1.79,1.79,0,0,1-1.8,1.8h-1.8a1.73,1.73,0,0,1-1.8-1.8Z"/><path class="cls-2" d="M29.16,50.53l0,.07Z"/><path class="cls-2" d="M28.93,51l-.05.09Z"/><path class="cls-2" d="M27.55,52.14a3.66,3.66,0,0,1-.44.13A3.66,3.66,0,0,0,27.55,52.14Z"/><path class="cls-2" d="M28.67,51.35l-.14.16Z"/><path class="cls-2" d="M28,51.91a2.93,2.93,0,0,1-.39.21A2.93,2.93,0,0,0,28,51.91Z"/><path class="cls-2" d="M22,49.54a2.74,2.74,0,0,0,2.79,2.79A2.8,2.8,0,0,1,22,49.54Z"/><path class="cls-2" d="M28.36,51.65a2.65,2.65,0,0,1-.26.21A1.83,1.83,0,0,0,28.36,51.65Z"/><path class="cls-2" d="M24.75,52.33h1.8a2.67,2.67,0,0,0,.56-.06,2.6,2.6,0,0,1-.56.06Z"/><path class="cls-2" d="M69.25,33.23,62,29v3.3h-4.5v18.5a3.86,3.86,0,0,1-3.8,3.8H15.45a3.86,3.86,0,0,1-3.8-3.8V32.33H2.85V34H10v16.8a5.51,5.51,0,0,0,5.4,5.4h38.3a5.51,5.51,0,0,0,5.4-5.4V34H62v3.4Z"/><path class="cls-2" d="M28.53,51.51l-.17.14Z"/><path class="cls-2" d="M28.1,51.86l-.09,0Z"/><path class="cls-2" d="M28.88,51.08a2.78,2.78,0,0,1-.21.27Z"/><path class="cls-2" d="M29.29,50.09a3.66,3.66,0,0,1-.13.44A3.19,3.19,0,0,0,29.29,50.09Z"/><path class="cls-2" d="M27.62,52.12l-.07,0Z"/><path class="cls-2" d="M29.13,50.6a1.79,1.79,0,0,1-.2.39A1.79,1.79,0,0,0,29.13,50.6Z"/><path class="cls-2" d="M22,49.53h0a2.8,2.8,0,0,0,2.79,2.79h1.81a2.6,2.6,0,0,0,.56-.06,3.66,3.66,0,0,0,.44-.13l.07,0a2.93,2.93,0,0,0,.39-.21l.09,0a2.65,2.65,0,0,0,.26-.21l.17-.14.14-.16a2.78,2.78,0,0,0,.21-.27l.05-.09a1.79,1.79,0,0,0,.2-.39l0-.07a3.66,3.66,0,0,0,.13-.44,2.6,2.6,0,0,0,.06-.56V17.4a3.07,3.07,0,0,0-.06-.53,2.59,2.59,0,0,0-.14-.45.14.14,0,0,0,0-.06,2.38,2.38,0,0,0-.2-.39l-.05-.09a2.78,2.78,0,0,0-.21-.27l-.14-.16-.17-.14a2.65,2.65,0,0,0-.26-.21l-.09,0a2.93,2.93,0,0,0-.39-.21l-.08,0a3.06,3.06,0,0,0-.43-.13,2.6,2.6,0,0,0-.56-.06h-1.8a2.6,2.6,0,0,0-.56.06,3.66,3.66,0,0,0-.44.13l-.08,0a2.82,2.82,0,0,0-.38.21l-.1,0c-.09.06-.17.14-.26.21l-.16.14-.14.16a2.78,2.78,0,0,0-.21.27l-.05.09a2.42,2.42,0,0,0-.21.39s0,0,0,.06-.1.3-.14.45a3.07,3.07,0,0,0-.05.53V49.53Zm1-32.1a1.79,1.79,0,0,1,1.8-1.8h1.8a1.79,1.79,0,0,1,1.8,1.8v32.1a1.79,1.79,0,0,1-1.8,1.8h-1.8a1.79,1.79,0,0,1-1.8-1.8Z"/><path class="cls-2" d="M39.35,17.43v32.1a2.68,2.68,0,0,0,2.8,2.8h1.7a2.8,2.8,0,0,0,2.8-2.8V17.43a2.8,2.8,0,0,0-2.8-2.8h-1.7A2.8,2.8,0,0,0,39.35,17.43Zm1,0a1.79,1.79,0,0,1,1.8-1.8H44a1.79,1.79,0,0,1,1.8,1.8v32.1a1.79,1.79,0,0,1-1.8,1.8h-1.8a1.73,1.73,0,0,1-1.8-1.8Z"/><path class="cls-2" d="M30.65,17.43v32.1a2.68,2.68,0,0,0,2.8,2.8h1.7a2.8,2.8,0,0,0,2.8-2.8V17.43a2.8,2.8,0,0,0-2.8-2.8h-1.7A2.8,2.8,0,0,0,30.65,17.43Zm.9,0a1.79,1.79,0,0,1,1.8-1.8h1.8a1.79,1.79,0,0,1,1.8,1.8v32.1a1.79,1.79,0,0,1-1.8,1.8h-1.8a1.73,1.73,0,0,1-1.8-1.8Z"/><path class="cls-2" d="M51.45,52.33h1.8a2.8,2.8,0,0,0,2.8-2.8V17.43a2.8,2.8,0,0,0-2.8-2.8h-1.8a2.8,2.8,0,0,0-2.8,2.8v32.1A2.8,2.8,0,0,0,51.45,52.33Z"/></g></g></svg>