<svg xmlns="http://www.w3.org/2000/svg" viewBox="0 0 72 72"><defs><style>.cls-1{fill:#333;}.cls-2{fill:#fff;}</style></defs><g id="Layer_2" data-name="Layer 2"><g id="Layer_5" data-name="Layer 5"><circle class="cls-1" cx="36" cy="36" r="36"/><path class="cls-2" d="M40.85,51.13h1.8a2.8,2.8,0,0,0,2.8-2.8V16.23a2.8,2.8,0,0,0-2.8-2.8h-1.8a2.8,2.8,0,0,0-2.8,2.8v32.1A2.8,2.8,0,0,0,40.85,51.13Z"/><path class="cls-2" d="M32.25,51.13h1.8a2.8,2.8,0,0,0,2.8-2.8V16.23a2.8,2.8,0,0,0-2.8-2.8h-1.8a2.8,2.8,0,0,0-2.8,2.8v32.1A2.8,2.8,0,0,0,32.25,51.13Z"/><path class="cls-2" d="M49.55,51.13h1.8a2.8,2.8,0,0,0,2.8-2.8V16.23a2.8,2.8,0,0,0-2.8-2.8h-1.8a2.8,2.8,0,0,0-2.8,2.8v32.1A2.8,2.8,0,0,0,49.55,51.13Z"/><path class="cls-2" d="M14.85,51.13h1.8a2.8,2.8,0,0,0,2.8-2.8V16.23a2.8,2.8,0,0,0-2.8-2.8h-1.8a2.8,2.8,0,0,0-2.8,2.8v32.1A2.8,2.8,0,0,0,14.85,51.13Zm-1.8-34.9a1.79,1.79,0,0,1,1.8-1.8h1.8a1.79,1.79,0,0,1,1.8,1.8v32.1a1.79,1.79,0,0,1-1.8,1.8h-1.8a1.79,1.79,0,0,1-1.8-1.8Z"/><path class="cls-2" d="M23.55,51.13h1.8a2.8,2.8,0,0,0,2.8-2.8V16.23a2.8,2.8,0,0,0-2.8-2.8h-1.8a2.8,2.8,0,0,0-2.8,2.8v32.1A2.8,2.8,0,0,0,23.55,51.13Z"/><path class="cls-2" d="M68,32l-7.3-4.2h0v3.3h-4.5v18.5a3.86,3.86,0,0,1-3.8,3.8H14.25a3.86,3.86,0,0,1-3.8-3.8V31.13H1.65v1.7h7.1v16.8a5.51,5.51,0,0,0,5.4,5.4h38.2a5.51,5.51,0,0,0,5.4-5.4V32.83h2.9v3.4Z"/></g></g></svg>