<svg xmlns="http://www.w3.org/2000/svg" viewBox="0 0 72 72"><defs><style>.cls-1{fill:#333;}.cls-2{fill:#fff;}</style></defs><g id="Layer_2" data-name="Layer 2"><g id="Layer_5" data-name="Layer 5"><circle class="cls-1" cx="36" cy="36" r="36"/><path class="cls-2" d="M42,52.33h1.8a2.8,2.8,0,0,0,2.8-2.8V17.43a2.8,2.8,0,0,0-2.8-2.8H42a2.8,2.8,0,0,0-2.8,2.8v32.1A2.8,2.8,0,0,0,42,52.33Z"/><path class="cls-2" d="M30.7,17.43v32.1a2.68,2.68,0,0,0,2.8,2.8h1.7a2.8,2.8,0,0,0,2.8-2.8V17.43a2.8,2.8,0,0,0-2.8-2.8H33.5A2.8,2.8,0,0,0,30.7,17.43Zm1,0a1.79,1.79,0,0,1,1.8-1.8h1.8a1.79,1.79,0,0,1,1.8,1.8v32.1a1.79,1.79,0,0,1-1.8,1.8H33.5a1.73,1.73,0,0,1-1.8-1.8Z"/><path class="cls-2" d="M22,17.43v32.1h0a2.79,2.79,0,0,0,2.79,2.8H26.5a2.8,2.8,0,0,0,2.8-2.8V17.43a2.8,2.8,0,0,0-2.8-2.8H24.8A2.8,2.8,0,0,0,22,17.43Zm1,0a1.79,1.79,0,0,1,1.8-1.8h1.8a1.79,1.79,0,0,1,1.8,1.8v32.1a1.79,1.79,0,0,1-1.8,1.8H24.8a1.68,1.68,0,0,1-1.8-1.8Z"/><path class="cls-2" d="M13.3,17.43v32.1a2.68,2.68,0,0,0,2.8,2.8h1.7a2.8,2.8,0,0,0,2.8-2.8V17.43a2.8,2.8,0,0,0-2.8-2.8H16.1A2.8,2.8,0,0,0,13.3,17.43Zm1,0a1.79,1.79,0,0,1,1.8-1.8h1.8a1.79,1.79,0,0,1,1.8,1.8v32.1a1.79,1.79,0,0,1-1.8,1.8H16.1a1.73,1.73,0,0,1-1.8-1.8Z"/><path class="cls-2" d="M69.2,33.23,61.9,29v3.3H57.4v18.5a3.65,3.65,0,0,1-.08.74,4.47,4.47,0,0,1-.2.65s0,0,0,.05a3.55,3.55,0,0,1-.3.54.39.39,0,0,1-.06.11,3.26,3.26,0,0,1-.29.36l-.18.22-.22.18c-.12.1-.23.21-.36.3l-.1.05a4.21,4.21,0,0,1-.55.3l0,0a4.47,4.47,0,0,1-.65.2,3.65,3.65,0,0,1-.74.08H15.39a3.55,3.55,0,0,1-.73-.08,4.6,4.6,0,0,1-.66-.2l0,0a4.21,4.21,0,0,1-.55-.3l-.1-.05a3.58,3.58,0,0,1-.36-.3l-.22-.18c-.07-.07-.12-.15-.18-.22a3.37,3.37,0,0,1-.3-.36s0-.07-.06-.11a3.5,3.5,0,0,1-.29-.54s0,0,0-.05a3.5,3.5,0,0,1-.2-.65,3.65,3.65,0,0,1-.08-.74V32.33H2.8V34H10v16.8a5.51,5.51,0,0,0,5.4,5.4H53.5a5.51,5.51,0,0,0,5.4-5.4V34h3v3.34l7.29-4.14Z"/><path class="cls-2" d="M48,49.53h0a2.8,2.8,0,0,0,2.79,2.79H52.6a2.6,2.6,0,0,0,.56-.06,3.66,3.66,0,0,0,.44-.13l.07,0a2.93,2.93,0,0,0,.39-.21l.09,0a2.65,2.65,0,0,0,.26-.21l.17-.14.14-.16a2.78,2.78,0,0,0,.21-.27L55,51a1.79,1.79,0,0,0,.2-.39l0-.07a3.66,3.66,0,0,0,.13-.44,2.6,2.6,0,0,0,.06-.56V17.4a3.07,3.07,0,0,0-.06-.53,3.81,3.81,0,0,0-.13-.45l0-.06A2.38,2.38,0,0,0,55,16l0-.09a2.78,2.78,0,0,0-.21-.27l-.14-.16-.17-.14a1.83,1.83,0,0,0-.26-.21l-.09,0a2.93,2.93,0,0,0-.39-.21l-.08,0a3.06,3.06,0,0,0-.43-.13,2.6,2.6,0,0,0-.56-.06H50.8a2.6,2.6,0,0,0-.56.06,3.66,3.66,0,0,0-.44.13l-.08,0a2.82,2.82,0,0,0-.38.21l-.09,0a2.78,2.78,0,0,0-.27.21l-.16.14-.14.16a2.78,2.78,0,0,0-.21.27l0,.09a2.42,2.42,0,0,0-.21.39s0,0,0,.06-.1.3-.14.45a3.07,3.07,0,0,0,0,.53V49.53Z"/></g></g></svg>