<svg xmlns="http://www.w3.org/2000/svg" viewBox="0 0 72 72"><defs><style>.cls-1{fill:#333;}.cls-2{fill:#fff;}</style></defs><g id="Layer_2" data-name="Layer 2"><g id="Layer_5" data-name="Layer 5"><circle class="cls-1" cx="36" cy="36" r="36"/><path class="cls-2" d="M48,17.43a2.8,2.8,0,0,1,2.8-2.8h1.8a2.8,2.8,0,0,1,2.8,2.8v32.1a2.8,2.8,0,0,1-2.8,2.8h-1.8a2.8,2.8,0,0,1-2.8-2.8Zm-8.7,0a2.8,2.8,0,0,1,2.8-2.8h1.8a2.8,2.8,0,0,1,2.8,2.8v32.1a2.8,2.8,0,0,1-2.8,2.8h-1.8a2.8,2.8,0,0,1-2.8-2.8Zm-8.7,0a2.8,2.8,0,0,1,2.8-2.8h1.8a2.8,2.8,0,0,1,2.8,2.8v32.1a2.8,2.8,0,0,1-2.8,2.8h-1.8a2.8,2.8,0,0,1-2.8-2.8Zm-8.7,0a2.8,2.8,0,0,1,2.8-2.8h1.8a2.8,2.8,0,0,1,2.8,2.8v32.1a2.8,2.8,0,0,1-2.8,2.8h-1.8a2.8,2.8,0,0,1-2.8-2.8Zm-8.6,0a2.8,2.8,0,0,1,2.8-2.8h1.8a2.8,2.8,0,0,1,2.8,2.8v32.1a2.8,2.8,0,0,1-2.8,2.8h-1.8a2.8,2.8,0,0,1-2.8-2.8ZM59,34v16.8a5.51,5.51,0,0,1-5.4,5.4H15.35a5.51,5.51,0,0,1-5.4-5.4V34H2.85v-1.7h8.8V34h0v16.8a3.86,3.86,0,0,0,3.8,3.8h38.1a3.86,3.86,0,0,0,3.8-3.8V32.33h4.5V29l7.3,4.2-7.3,4.2V34Z"/></g></g></svg>