<svg xmlns="http://www.w3.org/2000/svg" viewBox="0 0 72 72"><defs><style>.cls-1{fill:#333;}.cls-2{fill:#fff;}</style></defs><g id="Layer_2" data-name="Layer 2"><g id="Layer_5" data-name="Layer 5"><circle class="cls-1" cx="36" cy="36" r="36"/><circle class="cls-2" cx="13.9" cy="35.62" r="7.2"/><circle class="cls-2" cx="55.2" cy="35.62" r="7.2"/><rect class="cls-2" x="16.3" y="29.92" width="26.6" height="2"/><polygon class="cls-2" points="50 30.92 40 35.02 42.4 30.92 40 26.82 50 30.92"/><path class="cls-2" d="M34.7,49.62c-1.25,0-2.51-.1-3.59-.2l.18-2c1.09.1,2.24.19,3.41.19,7.94,0,15.07-2.69,18.62-7l1.55,1.27C51,46.65,43.22,49.62,34.7,49.62Z"/><polygon class="cls-2" points="24.2 47.02 34.8 45.02 31.7 48.52 33.2 52.92 24.2 47.02"/></g></g></svg>