<svg xmlns="http://www.w3.org/2000/svg" viewBox="0 0 72 72"><defs><style>.cls-1{fill:#333;}.cls-2{fill:#fff;}</style></defs><g id="Layer_2" data-name="Layer 2"><g id="Layer_5" data-name="Layer 5"><circle class="cls-1" cx="36" cy="36" r="36"/><path class="cls-2" d="M35.92,43.68c3.88,3.61,7.53,7,11.21,10.43,3.46,3.2,6.8,3.48,9.45.86,2.83-2.82,2.42-6.07-1.34-9.66-3.42-3.26-6.91-6.45-10.55-9.85,3.65-3.38,7.13-6.58,10.58-9.82C59,22.16,59.41,18.85,56.6,16c-2.57-2.63-6-2.34-9.45.85-3.76,3.45-7.49,6.94-11.26,10.43-4.11-3.85-7.81-7.46-11.66-10.89-3.19-2.86-6.74-2.84-9.15-.21s-1.94,6,1.18,9c3.48,3.39,7,6.73,10.77,10.32-3.61,3.42-7,6.65-10.44,9.9s-3.93,6.67-1.54,9.37,6.13,2.6,9.78-.72S32,47.39,35.92,43.68Z"/></g></g></svg>