<svg width="239" height="238" xmlns="http://www.w3.org/2000/svg" xmlns:xlink="http://www.w3.org/1999/xlink" xml:space="preserve" overflow="hidden"><g transform="translate(-572 -884)"><g><path d="M810 1004C810 1068.62 757.617 1121 693 1121 628.383 1121 576 1068.62 576 1004 576 939.383 628.383 887 693 887 757.617 887 810 939.383 810 1004Z" fill="#0A3B5E" fill-rule="evenodd" fill-opacity="1"/><path d="M693.226 1091C713.262 1091 729 1074.69 729 1054.96 729 1042.53 722.602 1031.36 712.39 1024.49L712.39 1024.49 712.39 926.606C712.39 915.017 703.018 906 691.934 906 680.849 906 671.478 915.441 671.478 926.606L671.478 1026.15C662.526 1033.02 657 1043.77 657 1054.9 657.42 1074.63 673.61 1090.94 693.226 1090.94ZM678.749 926.216C678.749 918.924 684.727 912.901 691.966 912.901 699.205 912.901 705.183 918.924 705.183 925.76L696.652 925.76 696.652 928.332 705.183 928.332 705.183 937.772 693.679 937.772 693.679 940.344 705.183 940.344 705.183 950.207 696.652 950.207 696.652 952.779 705.183 952.779 705.183 965.638 693.679 965.638 693.679 968.209 705.183 968.209 705.183 979.375 696.652 979.375 696.652 981.947 705.183 981.947 705.183 993.536 693.679 993.536 693.679 996.108 705.183 996.108 705.183 1008.12 696.652 1008.12 696.652 1010.69 705.183 1010.69 705.183 987.09 678.781 987.09 678.781 926.183Z" fill="#FFFFFF" fill-rule="evenodd" fill-opacity="1"/></g></g></svg>