<svg width="238" height="238" xmlns="http://www.w3.org/2000/svg" xmlns:xlink="http://www.w3.org/1999/xlink" xml:space="preserve" overflow="hidden"><g transform="translate(-3602 -898)"><g><path d="M3837 1017C3837 1081.62 3784.62 1134 3720 1134 3655.38 1134 3603 1081.62 3603 1017 3603 952.383 3655.38 900 3720 900 3784.62 900 3837 952.383 3837 1017Z" fill="#0A3B5E" fill-rule="evenodd" fill-opacity="1"/><path d="M3653.69 1050 3782.04 1050 3801 1015.84 3700.9 1015.84 3686.01 1003 3638 1003 3653.63 1050ZM3767.9 1026.85C3771.98 1026.85 3775.34 1029.41 3775.34 1032.73 3775.34 1036.05 3771.98 1038.6 3767.9 1038.6 3763.83 1038.6 3760.46 1036.05 3760.46 1032.73 3760.82 1029.79 3764.18 1026.85 3767.9 1026.85ZM3744.09 1026.85C3748.17 1026.85 3751.53 1029.41 3751.53 1032.73 3751.53 1036.05 3748.17 1038.6 3744.09 1038.6 3740.01 1038.6 3736.65 1036.05 3736.65 1032.73 3736.65 1029.79 3740.01 1026.85 3744.09 1026.85ZM3719.89 1026.85C3723.96 1026.85 3727.33 1029.41 3727.33 1032.73 3727.33 1036.05 3723.96 1038.6 3719.89 1038.6 3715.81 1038.6 3712.45 1036.05 3712.45 1032.73 3712.45 1029.79 3715.81 1026.85 3719.89 1026.85ZM3695.72 1026.85C3699.8 1026.85 3703.16 1029.41 3703.16 1032.73 3703.16 1036.05 3699.8 1038.6 3695.72 1038.6 3691.64 1038.6 3688.28 1036.05 3688.28 1032.73 3688.28 1029.79 3691.64 1026.85 3695.72 1026.85Z" fill="#FFFFFF" fill-rule="evenodd" fill-opacity="1"/><path d="M3682 1000 3682 983 3642 983 3642 1000 3682 1000ZM3665.61 987.923 3674.38 987.923 3674.38 995.11 3665.61 995.11 3665.61 987.923ZM3649.22 987.923 3657.99 987.923 3657.99 995.11 3649.22 995.11 3649.22 987.923Z" fill="#FFFFFF" fill-rule="evenodd" fill-opacity="1"/><path d="M3660 981 3660 957 3651 957 3651 981 3660 981Z" fill="#FFFFFF" fill-rule="evenodd" fill-opacity="1"/><path d="M3798 1013 3798 1006 3765 1006 3765 1013 3798 1013Z" fill="#FFFFFF" fill-rule="evenodd" fill-opacity="1"/><path d="M3762 1013 3762 1006 3729 1006 3729 1013 3762 1013Z" fill="#FFFFFF" fill-rule="evenodd" fill-opacity="1"/><path d="M3726 1013 3726 1006 3703 1006 3703 1013 3726 1013Z" fill="#FFFFFF" fill-rule="evenodd" fill-opacity="1"/><path d="M3741 996 3708 996 3708 1003 3741 1003 3741 996Z" fill="#FFFFFF" fill-rule="evenodd" fill-opacity="1"/><path d="M3777 1003 3777 996 3744 996 3744 1003 3777 1003Z" fill="#FFFFFF" fill-rule="evenodd" fill-opacity="1"/><path d="M3798 1003 3798 996 3780 996 3780 1003 3798 1003Z" fill="#FFFFFF" fill-rule="evenodd" fill-opacity="1"/><path d="M3771 993 3771 985 3735 985 3735 993 3771 993Z" fill="#FFFFFF" fill-rule="evenodd" fill-opacity="1"/><path d="M3732 993 3732 985 3712 985 3712 993 3732 993Z" fill="#FFFFFF" fill-rule="evenodd" fill-opacity="1"/><path d="M3795 993 3795 985 3774 985 3774 993 3795 993Z" fill="#FFFFFF" fill-rule="evenodd" fill-opacity="1"/><path d="M3630.39 1055C3628.5 1055 3627 1056.15 3627 1057.62 3627 1059.09 3628.5 1060.24 3630.39 1060.24 3631.88 1060.24 3633.77 1060.99 3635.99 1061.74 3638.59 1062.89 3641.23 1064 3644.22 1064 3647.22 1064 3649.85 1062.85 3652.46 1061.74 3654.35 1060.99 3656.2 1060.24 3658.09 1060.24 3659.98 1060.24 3661.48 1060.99 3663.72 1061.74 3666.33 1062.89 3668.96 1064 3671.96 1064 3674.95 1064 3677.59 1062.85 3680.2 1061.74 3682.08 1060.99 3683.94 1060.24 3685.83 1060.24 3687.33 1060.24 3689.21 1060.99 3691.46 1061.74 3694.06 1062.89 3696.7 1064 3699.7 1064 3702.69 1064 3705.33 1062.85 3707.93 1061.74 3709.82 1060.99 3711.68 1060.24 3713.57 1060.24 3715.06 1060.24 3716.95 1060.99 3719.2 1061.74 3721.8 1062.89 3724.44 1064 3727.43 1064 3730.43 1064 3733.07 1062.85 3735.67 1061.74 3737.53 1060.99 3739.42 1060.24 3741.3 1060.24 3742.8 1060.24 3744.69 1060.99 3746.9 1061.74 3749.51 1062.89 3752.14 1064 3755.14 1064 3758.13 1064 3760.77 1062.85 3763.38 1061.74 3765.26 1060.99 3767.12 1060.24 3769.01 1060.24 3770.51 1060.24 3772.39 1060.99 3774.64 1061.74 3777.24 1062.89 3779.88 1064 3782.88 1064 3785.87 1064 3788.51 1062.85 3791.11 1061.74 3793 1060.99 3794.86 1060.24 3796.75 1060.24 3798.24 1060.24 3800.13 1060.99 3802.38 1061.74 3804.98 1062.89 3807.62 1064 3810.61 1064 3812.5 1064 3814 1062.85 3814 1061.38 3814 1059.91 3812.5 1058.76 3810.61 1058.76 3809.12 1058.76 3807.23 1058.01 3805.01 1057.26 3802.41 1056.11 3799.77 1055 3796.78 1055 3793.78 1055 3791.15 1056.15 3788.54 1057.26 3786.65 1058.01 3784.8 1058.76 3782.91 1058.76 3781.41 1058.76 3779.52 1058.01 3777.28 1057.26 3774.67 1056.11 3772.04 1055 3769.04 1055 3766.05 1055 3763.41 1056.15 3760.8 1057.26 3758.92 1058.01 3757.06 1058.76 3755.17 1058.76 3753.67 1058.76 3751.79 1058.01 3749.54 1057.26 3746.94 1056.11 3744.3 1055 3741.3 1055 3738.31 1055 3735.67 1056.15 3733.07 1057.26 3731.21 1058.01 3729.32 1058.76 3727.43 1058.76 3725.94 1058.76 3724.05 1058.01 3721.83 1057.26 3719.23 1056.11 3716.59 1055 3713.6 1055 3710.6 1055 3707.97 1056.15 3705.36 1057.26 3703.51 1058.01 3701.62 1058.76 3699.73 1058.76 3698.23 1058.76 3696.34 1058.01 3694.13 1057.26 3691.53 1056.11 3688.89 1055 3685.89 1055 3682.9 1055 3680.26 1056.15 3677.66 1057.26 3675.77 1058.01 3673.91 1058.76 3672.02 1058.76 3670.53 1058.76 3668.64 1058.01 3666.39 1057.26 3663.79 1056.11 3661.15 1055 3658.16 1055 3655.16 1055 3652.52 1056.15 3649.92 1057.26 3648.03 1058.01 3646.18 1058.76 3644.29 1058.76 3642.79 1058.76 3640.9 1058.01 3638.66 1057.26 3636.05 1056.15 3633.41 1055 3630.42 1055L3630.42 1055Z" fill="#FFFFFF" fill-rule="evenodd" fill-opacity="1"/></g></g></svg>