<svg width="238" height="238" xmlns="http://www.w3.org/2000/svg" xmlns:xlink="http://www.w3.org/1999/xlink" xml:space="preserve" overflow="hidden"><g transform="translate(-2250 -898)"><g><path d="M2486 1017C2486 1081.62 2433.62 1134 2369 1134 2304.38 1134 2252 1081.62 2252 1017 2252 952.383 2304.38 900 2369 900 2433.62 900 2486 952.383 2486 1017Z" fill="#0A3B5E" fill-rule="evenodd" fill-opacity="1"/><path d="M2269 992.257C2269 1005.19 2269.36 1018.45 2269.36 1031.38 2269.36 1032.41 2269.71 1032.74 2270.72 1033.09 2284.08 1035.48 2297.11 1038.19 2310.5 1040.93L2310.5 1040.93C2310.85 1045.03 2312.9 1049.09 2316.67 1051.15 2320.44 1053.19 2324.89 1053.19 2328.66 1051.15 2332.43 1049.12 2334.84 1045.38 2334.84 1040.93L2414.03 1040.93C2414.03 1045.35 2416.43 1049.44 2420.2 1051.48 2423.97 1053.51 2428.78 1053.51 2432.55 1051.48 2436.32 1049.44 2438.72 1045.35 2438.72 1040.93L2467.19 1040.93C2470.96 1040.93 2472 1039.57 2472 1036.16L2472 1015.38C2472 1014.35 2472 1013.67 2470.96 1013.35 2469.6 1012.67 2468.91 1011.32 2469.24 1009.93 2468.88 1002.77 2468.56 995.644 2468.2 988.483 2469.92 988.483 2470.93 987.129 2470.93 985.419L2470.93 985.064C2470.93 983.355 2469.56 982 2467.84 982L2438.37 982C2437.68 982 2437 982.355 2436.65 982.677L2279.63 982.677C2276.54 982.677 2273.81 983.71 2271.4 986.096 2270.04 987.451 2269 989.838 2269 992.225ZM2446.59 995.999C2446.59 994.966 2446.95 993.966 2447.63 993.289 2448.31 992.612 2449.35 992.257 2450.36 992.257L2456.17 992.257C2459.26 992.257 2460.3 993.289 2460.3 996.353L2460.3 1030.74C2460.3 1033.45 2459.26 1034.48 2456.53 1034.48L2450.36 1034.48C2449.32 1034.48 2448.31 1034.12 2447.63 1033.45 2446.95 1032.77 2446.59 1031.74 2446.59 1030.74 2446.59 1019.51 2446.59 1007.61 2446.59 996.031ZM2419.52 1040.93C2419.52 1039.9 2419.88 1039.22 2420.2 1038.22 2420.88 1036.86 2421.57 1035.83 2422.61 1035.16 2423.65 1034.48 2425.01 1034.12 2426.38 1034.12 2427.42 1034.12 2428.1 1034.48 2429.11 1034.8 2429.46 1034.8 2429.79 1035.16 2430.15 1035.48L2430.83 1035.83C2431.51 1036.51 2432.19 1037.19 2432.55 1037.86 2433.59 1039.9 2433.59 1042.28 2432.55 1044.32 2432.19 1044.99 2431.51 1045.67 2430.83 1046.35L2430.15 1046.7C2429.79 1047.06 2429.46 1047.06 2429.11 1047.38 2428.42 1047.73 2427.38 1048.06 2426.38 1048.06 2424.65 1048.06 2422.93 1047.38 2421.57 1046.03 2420.2 1044.67 2419.52 1042.96 2419.52 1040.93ZM2402.72 995.676C2402.72 994.644 2403.08 993.644 2403.76 992.967 2404.44 992.289 2405.48 991.934 2406.49 991.934L2435.28 991.934C2436.32 991.934 2437.33 992.289 2438.01 992.967 2438.69 993.644 2439.05 994.676 2439.05 995.676L2439.05 1006.58C2439.05 1007.61 2438.69 1008.61 2438.01 1009.29 2437.33 1009.96 2436.29 1010.32 2435.28 1010.32L2406.49 1010.32C2403.76 1010.32 2402.72 1009.29 2402.72 1006.58 2402.72 1002.84 2402.72 999.417 2402.72 995.676ZM2359.86 995.676C2359.86 993.289 2361.22 991.934 2363.63 991.934L2392.09 991.934C2393.13 991.934 2394.14 992.289 2394.82 992.967 2395.51 993.644 2395.86 994.676 2395.86 995.676L2395.86 1006.22C2395.86 1007.26 2395.51 1008.26 2394.82 1008.93 2394.14 1009.61 2393.1 1009.96 2392.09 1009.96L2363.3 1009.96C2360.9 1009.96 2359.53 1008.93 2359.53 1006.55 2359.89 1003.13 2359.89 999.385 2359.89 995.644ZM2321.45 1010.32C2318.72 1010.32 2317.68 1009.29 2317.68 1006.58L2317.68 995.676C2317.68 993.289 2318.72 991.934 2321.45 991.934L2350.24 991.934C2351.28 991.934 2352.29 992.289 2352.97 992.967 2353.65 993.644 2354.01 994.676 2354.01 995.676L2354.01 1006.22C2354.01 1008.93 2352.97 1009.96 2350.24 1009.96L2321.45 1010.32ZM2315.63 1040.96C2315.63 1038.57 2316.67 1036.54 2318.72 1035.19 2320.77 1033.83 2323.17 1033.83 2325.22 1034.51 2326.94 1035.19 2328.3 1036.54 2328.99 1038.25 2329.34 1038.93 2329.67 1039.96 2329.67 1040.96 2329.67 1042.32 2329.31 1043.67 2328.63 1044.7 2327.95 1045.73 2326.91 1046.73 2325.54 1047.09 2323.82 1047.77 2322.1 1047.77 2320.41 1047.09 2318.72 1046.41 2317.32 1045.06 2316.64 1043.35 2315.6 1042.99 2315.6 1041.99 2315.6 1040.96ZM2278.62 993.999C2280.34 992.967 2282.39 992.644 2284.44 992.289 2292.33 991.934 2300.2 992.289 2308.09 992.289 2309.13 992.289 2310.14 992.644 2310.82 993.321 2311.5 993.999 2311.86 995.031 2311.86 996.031L2311.86 1006.58C2311.86 1009.29 2310.82 1010.32 2308.09 1010.32L2279.3 1010.32C2278.26 1010.32 2277.25 1009.96 2276.57 1009.64 2275.89 1008.96 2275.53 1007.93 2275.53 1007.26L2275.53 999.417C2275.53 998.385 2275.53 997.385 2276.21 996.353 2276.57 994.999 2277.58 994.321 2278.62 993.966Z" fill="#FFFFFF" fill-rule="evenodd" fill-opacity="1"/></g></g></svg>