<svg width="238" height="238" xmlns="http://www.w3.org/2000/svg" xmlns:xlink="http://www.w3.org/1999/xlink" xml:space="preserve" overflow="hidden"><g transform="translate(-2250 -1416)"><g><path d="M2486 1536C2486 1600.62 2433.62 1653 2369 1653 2304.38 1653 2252 1600.62 2252 1536 2252 1471.38 2304.38 1419 2369 1419 2433.62 1419 2486 1471.38 2486 1536Z" fill="#0A3B5E" fill-rule="evenodd" fill-opacity="1"/><path d="M2448 1507.1C2448 1506.03 2447.42 1505.02 2446.48 1504.51L2419.66 1489.79C2418.75 1489.3 2417.62 1489.3 2416.74 1489.85 2415.84 1490.37 2415.29 1491.34 2415.29 1492.38L2415.29 1502.11 2392.84 1489.79C2391.93 1489.3 2390.8 1489.3 2389.92 1489.85 2389.02 1490.37 2388.47 1491.34 2388.47 1492.38L2388.47 1502.11 2367.83 1490.79C2366.93 1490.31 2365.79 1490.31 2364.92 1490.86 2364.01 1491.38 2363.46 1492.35 2363.46 1493.39L2363.46 1529.4 2355.66 1529.4 2353.81 1476.69 2354.42 1476.69C2356.04 1476.69 2357.37 1475.36 2357.37 1473.74L2357.37 1463.95C2357.37 1462.33 2356.04 1461 2354.42 1461L2331.82 1461C2330.2 1461 2328.87 1462.33 2328.87 1463.95L2328.87 1473.74C2328.87 1475.36 2330.2 1476.69 2331.82 1476.69L2332.4 1476.69 2330.55 1529.4 2324.07 1529.4 2322.23 1476.69 2322.84 1476.69C2324.46 1476.69 2325.79 1475.36 2325.79 1473.74L2325.79 1463.95C2325.79 1462.33 2324.46 1461 2322.84 1461L2300.24 1461C2298.62 1461 2297.29 1462.33 2297.29 1463.95L2297.29 1473.74C2297.29 1475.36 2298.62 1476.69 2300.24 1476.69L2300.85 1476.69 2299 1529.4 2292.95 1529.4C2291.33 1529.4 2290 1530.73 2290 1532.35L2290 1601.05C2290 1602.67 2291.33 1604 2292.95 1604L2445.05 1604C2446.67 1604 2448 1602.67 2448 1601.05L2448 1585.2C2448 1555.53 2448 1532.58 2447.97 1507.07ZM2334.76 1466.9 2351.44 1466.9 2351.44 1470.79 2334.76 1470.79 2334.76 1466.9ZM2338.33 1476.69 2347.91 1476.69 2349.76 1529.4 2336.51 1529.4 2338.36 1476.69ZM2303.22 1466.9 2319.9 1466.9 2319.9 1470.79 2303.22 1470.79 2303.22 1466.9ZM2306.78 1476.69 2316.37 1476.69 2318.21 1529.4 2304.96 1529.4 2306.81 1476.69ZM2295.96 1535.34 2363.46 1535.34 2363.46 1598.1 2295.93 1598.1 2295.93 1535.34ZM2425.55 1598.1 2387.59 1598.1 2387.59 1574.69 2425.55 1574.69 2425.55 1598.1ZM2442.14 1585.23 2442.14 1598.1 2431.45 1598.1 2431.45 1571.74C2431.45 1570.12 2430.12 1568.79 2428.5 1568.79L2384.64 1568.79C2383.02 1568.79 2381.7 1570.12 2381.7 1571.74L2381.7 1598.1 2369.36 1598.1 2369.36 1498.38 2389.99 1509.69C2390.9 1510.18 2392.03 1510.18 2392.9 1509.63 2393.81 1509.11 2394.36 1508.14 2394.36 1507.1L2394.36 1497.37 2416.81 1509.69C2417.71 1510.18 2418.85 1510.18 2419.72 1509.63 2420.63 1509.11 2421.18 1508.14 2421.18 1507.1L2421.18 1497.37 2442.1 1508.85C2442.14 1534.27 2442.14 1556.25 2442.14 1585.23Z" fill="#FFFFFF" fill-rule="evenodd" fill-opacity="1"/><path d="M2351.07 1547 2307.93 1547C2306.32 1547 2305 1548.36 2305 1550.01L2305 1559.99C2305 1561.64 2306.32 1563 2307.93 1563L2351.07 1563C2352.68 1563 2354 1561.64 2354 1559.99L2354 1550.01C2354 1548.36 2352.68 1547 2351.07 1547ZM2348.14 1556.98 2310.86 1556.98 2310.86 1553.02 2348.14 1553.02 2348.14 1556.98Z" fill="#FFFFFF" fill-rule="evenodd" fill-opacity="1"/><path d="M2351.07 1569 2307.93 1569C2306.32 1569 2305 1570.27 2305 1571.82L2305 1581.18C2305 1582.73 2306.32 1584 2307.93 1584L2351.07 1584C2352.68 1584 2354 1582.73 2354 1581.18L2354 1571.82C2354 1570.27 2352.68 1569 2351.07 1569ZM2348.14 1578.36 2310.86 1578.36 2310.86 1574.64 2348.14 1574.64 2348.14 1578.36Z" fill="#FFFFFF" fill-rule="evenodd" fill-opacity="1"/><path d="M2428.89 1547 2417.11 1547C2415.4 1547 2414 1548.36 2414 1550.01L2414 1559.99C2414 1561.64 2415.4 1563 2417.11 1563L2428.89 1563C2430.6 1563 2432 1561.64 2432 1559.99L2432 1550.01C2432 1548.36 2430.6 1547 2428.89 1547ZM2425.78 1556.98 2420.22 1556.98 2420.22 1553.02 2425.78 1553.02 2425.78 1556.98Z" fill="#FFFFFF" fill-rule="evenodd" fill-opacity="1"/><path d="M2417.11 1542 2428.89 1542C2430.6 1542 2432 1540.64 2432 1538.99L2432 1529.01C2432 1527.36 2430.6 1526 2428.89 1526L2417.11 1526C2415.4 1526 2414 1527.36 2414 1529.01L2414 1538.99C2414 1540.64 2415.4 1542 2417.11 1542ZM2420.22 1532.02 2425.78 1532.02 2425.78 1535.98 2420.22 1535.98 2420.22 1532.02Z" fill="#FFFFFF" fill-rule="evenodd" fill-opacity="1"/></g></g></svg>