<svg width="239" height="238" xmlns="http://www.w3.org/2000/svg" xmlns:xlink="http://www.w3.org/1999/xlink" xml:space="preserve" overflow="hidden"><g transform="translate(-572 -1416)"><g><path d="M810 1536C810 1600.62 757.617 1653 693 1653 628.383 1653 576 1600.62 576 1536 576 1471.38 628.383 1419 693 1419 757.617 1419 810 1471.38 810 1536Z" fill="#0A3B5E" fill-rule="evenodd" fill-opacity="1"/><path d="M659.882 1612 733.118 1612C734.42 1612 735.722 1611.35 736.698 1610.7 737.674 1610.06 738 1608.44 738 1607.14L738 1467.86C738 1466.56 737.349 1465.27 736.698 1464.3 735.722 1463.32 734.42 1463 733.118 1463L659.882 1463C658.58 1463 657.278 1463.65 656.302 1464.3 655.325 1465.27 655 1466.56 655 1467.86L655 1607.14C655 1608.44 655.651 1609.73 656.302 1610.7 657.278 1611.35 658.58 1612 659.882 1612ZM691.455 1467.53 698.941 1467.53C700.243 1467.53 701.545 1468.51 701.545 1470.13 701.545 1471.42 700.569 1472.72 698.941 1472.72L691.455 1472.72C690.153 1472.72 688.851 1471.75 688.851 1470.13 689.176 1468.83 690.153 1467.53 691.455 1467.53ZM659.882 1474.98C659.882 1473.69 660.533 1472.39 661.184 1471.42 662.161 1470.45 663.463 1470.13 664.765 1470.13L671.925 1470.13C673.227 1470.13 674.529 1470.77 675.506 1471.42 676.482 1472.07 676.808 1473.69 676.808 1474.98L676.808 1477.58 716.192 1477.58 716.192 1474.98C716.192 1473.69 716.843 1472.39 717.494 1471.42 718.471 1470.45 719.773 1470.13 721.074 1470.13L728.235 1470.13C729.537 1470.13 730.839 1470.77 731.816 1471.42 732.792 1472.39 733.118 1473.69 733.118 1474.98L733.118 1601.96C733.118 1603.25 732.467 1604.55 731.816 1605.52 731.165 1606.49 729.537 1606.82 728.235 1606.82L664.765 1606.82C663.463 1606.82 662.161 1606.17 661.184 1605.52 660.208 1604.55 659.882 1603.25 659.882 1601.96L659.882 1474.98Z" fill="#FFFFFF" fill-rule="evenodd" fill-opacity="1"/><path d="M728 1475 720.78 1475 720.78 1477.59C720.78 1478.89 720.123 1480.18 719.467 1481.16 718.482 1482.13 717.169 1482.45 715.857 1482.45L676.144 1482.45C674.831 1482.45 673.518 1481.8 672.533 1481.16 671.549 1480.18 671.221 1478.89 671.221 1477.59L671.221 1475 664 1475 664 1602 728 1602 728 1475ZM672.205 1495.41 679.754 1487.96C680.739 1486.99 682.38 1486.99 683.364 1487.96 684.349 1488.93 684.349 1490.55 683.364 1491.52L675.815 1498.97C674.831 1499.95 673.19 1499.95 672.205 1498.97 671.221 1497.68 671.221 1496.06 672.205 1495.41ZM672.205 1509.99 694.523 1487.96C695.508 1486.99 697.149 1486.99 698.133 1487.96 699.118 1488.93 699.118 1490.55 698.133 1491.52L675.815 1513.55C674.831 1514.53 673.19 1514.53 672.205 1513.55 671.221 1512.26 671.221 1510.96 672.205 1509.99ZM673.846 1528.78C672.862 1528.78 671.877 1528.13 671.549 1527.16 671.221 1526.19 671.221 1525.22 672.205 1524.57L709.292 1487.96C710.277 1486.99 711.918 1486.99 712.903 1487.96 713.887 1488.93 713.887 1490.55 712.903 1491.52L675.815 1528.13C675.159 1528.46 674.503 1528.78 673.846 1528.78Z" fill="#FFFFFF" fill-rule="evenodd" fill-opacity="1"/></g></g></svg>