<svg width="238" height="238" xmlns="http://www.w3.org/2000/svg" xmlns:xlink="http://www.w3.org/1999/xlink" xml:space="preserve" overflow="hidden"><g transform="translate(-3937 -898)"><g><path d="M4175 1017C4175 1081.62 4122.62 1134 4058 1134 3993.38 1134 3941 1081.62 3941 1017 3941 952.383 3993.38 900 4058 900 4122.62 900 4175 952.383 4175 1017Z" fill="#0A3B5E" fill-rule="evenodd" fill-opacity="1"/><path d="M4073 998 4033.52 960.033 4019 960 4039.46 997.736 4064.49 997.934 4073 998Z" fill="#FFFFFF" fill-rule="evenodd" fill-opacity="1"/><path d="M4020 1083.97 4034.32 1084 4084 1036.3 4076.34 1036.23 4045.55 1036 4020 1083.97Z" fill="#FFFFFF" fill-rule="evenodd" fill-opacity="1"/><path d="M4134.34 1003.05 4117.7 1002.95C4117.7 1002.95 4079.03 1002.59 4079.03 1002.59L4060.11 1002.43 4011.42 1002.04C4010.87 1002.04 4010.32 1001.84 4009.9 1001.49L3970.51 970.163 3959 970 3971.68 1000.09C3971.94 1000.71 3971.94 1001.36 3971.68 1001.97 3971.42 1002.56 3970.93 1003.05 3970.34 1003.28L3965.11 1005.33C3962.8 1006.11 3961.41 1008.06 3961.28 1010.63 3961.28 1012.81 3962.64 1014.73 3964.92 1015.57L3998.07 1028.22C4002.65 1029.92 4007.72 1030.89 4013.15 1031.12L4044.22 1031.35C4044.22 1031.35 4044.22 1031.35 4044.22 1031.35L4090.27 1031.67 4134.57 1032C4141.79 1032.06 4160.93 1030.76 4162 1023.87 4152.58 1004.64 4134.31 1003.05 4134.31 1003.05ZM4021.66 1015.34C4021.66 1016.58 4020.65 1017.56 4019.45 1017.56 4018.25 1017.56 4017.24 1016.55 4017.24 1015.34L4017.24 1011.38C4017.24 1010.14 4018.25 1009.16 4019.45 1009.16 4020.65 1009.16 4021.66 1010.17 4021.66 1011.38L4021.66 1015.34ZM4030.37 1015.34C4030.37 1016.58 4029.36 1017.56 4028.16 1017.56 4026.96 1017.56 4025.95 1016.55 4025.95 1015.34L4025.95 1011.38C4025.95 1010.14 4026.96 1009.16 4028.16 1009.16 4029.36 1009.16 4030.37 1010.17 4030.37 1011.38L4030.37 1015.34ZM4039.08 1015.34C4039.08 1016.58 4038.07 1017.56 4036.87 1017.56 4035.67 1017.56 4034.66 1016.55 4034.66 1015.34L4034.66 1011.38C4034.66 1010.14 4035.67 1009.16 4036.87 1009.16 4038.07 1009.16 4039.08 1010.17 4039.08 1011.38L4039.08 1015.34ZM4047.79 1015.34C4047.79 1016.58 4046.78 1017.56 4045.58 1017.56 4044.38 1017.56 4043.37 1016.55 4043.37 1015.34L4043.37 1011.38C4043.37 1010.14 4044.38 1009.16 4045.58 1009.16 4046.78 1009.16 4047.79 1010.17 4047.79 1011.38L4047.79 1015.34ZM4056.5 1015.34C4056.5 1016.58 4055.5 1017.56 4054.29 1017.56 4053.09 1017.56 4052.08 1016.55 4052.08 1015.34L4052.08 1011.38C4052.08 1010.14 4053.09 1009.16 4054.29 1009.16 4055.5 1009.16 4056.5 1010.17 4056.5 1011.38L4056.5 1015.34ZM4065.21 1015.34C4065.21 1016.58 4064.21 1017.56 4063 1017.56 4061.8 1017.56 4060.79 1016.55 4060.79 1015.34L4060.79 1011.38C4060.79 1010.14 4061.8 1009.16 4063 1009.16 4064.21 1009.16 4065.21 1010.17 4065.21 1011.38L4065.21 1015.34ZM4073.92 1015.34C4073.92 1016.58 4072.92 1017.56 4071.71 1017.56 4070.51 1017.56 4069.5 1016.55 4069.5 1015.34L4069.5 1011.38C4069.5 1010.14 4070.51 1009.16 4071.71 1009.16 4072.92 1009.16 4073.92 1010.17 4073.92 1011.38L4073.92 1015.34ZM4082.63 1015.34C4082.63 1016.58 4081.63 1017.56 4080.42 1017.56 4079.22 1017.56 4078.21 1016.55 4078.21 1015.34L4078.21 1011.38C4078.21 1010.14 4079.22 1009.16 4080.42 1009.16 4081.63 1009.16 4082.63 1010.17 4082.63 1011.38L4082.63 1015.34ZM4091.34 1015.34C4091.34 1016.58 4090.34 1017.56 4089.13 1017.56 4087.93 1017.56 4086.92 1016.55 4086.92 1015.34L4086.92 1011.38C4086.92 1010.14 4087.93 1009.16 4089.13 1009.16 4090.34 1009.16 4091.34 1010.17 4091.34 1011.38L4091.34 1015.34ZM4100.05 1015.34C4100.05 1016.58 4099.05 1017.56 4097.84 1017.56 4096.64 1017.56 4095.63 1016.55 4095.63 1015.34L4095.63 1011.38C4095.63 1010.14 4096.64 1009.16 4097.84 1009.16 4099.05 1009.16 4100.05 1010.17 4100.05 1011.38L4100.05 1015.34ZM4108.76 1015.34C4108.76 1016.58 4107.76 1017.56 4106.55 1017.56 4105.35 1017.56 4104.34 1016.55 4104.34 1015.34L4104.34 1011.38C4104.34 1010.14 4105.35 1009.16 4106.55 1009.16 4107.76 1009.16 4108.76 1010.17 4108.76 1011.38L4108.76 1015.34ZM4117.47 1015.34C4117.47 1016.58 4116.47 1017.56 4115.26 1017.56 4114.06 1017.56 4113.05 1016.55 4113.05 1015.34L4113.05 1011.38C4113.05 1010.14 4114.06 1009.16 4115.26 1009.16 4116.47 1009.16 4117.47 1010.17 4117.47 1011.38L4117.47 1015.34ZM4143.96 1012.74C4143.96 1012.74 4135.64 1012.61 4135.64 1012.61 4135.64 1012.61 4135.64 1012.61 4135.64 1012.61 4134.44 1012.61 4133.4 1011.47 4133.33 1010.14L4133.33 1006.69C4133.33 1006.69 4138.24 1006.72 4138.24 1006.72L4139.22 1006.72C4139.22 1006.72 4139.44 1006.76 4139.57 1006.76 4139.57 1006.76 4139.71 1006.76 4139.77 1006.76 4140.06 1006.76 4140.35 1006.79 4140.65 1006.85 4140.78 1006.85 4140.88 1006.92 4141 1006.95 4141.33 1007.05 4141.65 1007.11 4141.98 1007.24 4142.11 1007.31 4142.24 1007.37 4142.34 1007.41 4142.44 1007.44 4142.53 1007.5 4142.6 1007.54 4144.29 1008.25 4146.6 1009.36 4149.39 1012.68L4144.06 1012.68Z" fill="#FFFFFF" fill-rule="evenodd" fill-opacity="1"/></g></g></svg>