<svg width="239" height="238" xmlns="http://www.w3.org/2000/svg" xmlns:xlink="http://www.w3.org/1999/xlink" xml:space="preserve" overflow="hidden"><g transform="translate(-1915 -907)"><g><path d="M2151 1027C2151 1091.62 2098.84 1144 2034.5 1144 1970.16 1144 1918 1091.62 1918 1027 1918 962.383 1970.16 910 2034.5 910 2098.84 910 2151 962.383 2151 1027Z" fill="#0A3B5E" fill-rule="evenodd" fill-opacity="1"/><path d="M2119.99 1009.5C2119.99 1008.76 2119.93 1008.05 2119.76 1007.34 2119.47 1005.95 2118.92 1004.62 2118.15 1003.46 2117.76 1002.87 2117.31 1002.32 2116.82 1001.84 2114.88 999.835 2112.13 998.606 2109.06 998.606L2084.73 998.606 2084.73 982.921C2085.38 982.727 2085.99 982.468 2086.61 982.177 2089 981.013 2090.97 979.137 2092.2 976.808 2092.82 975.644 2093.27 974.383 2093.5 973.025 2093.63 972.345 2093.66 971.666 2093.66 970.955 2093.66 966.621 2091.46 962.773 2088.13 960.541 2086.12 959.183 2083.7 958.407 2081.11 958.407 2079.36 958.407 2077.71 958.763 2076.22 959.409 2071.7 961.317 2068.56 965.78 2068.56 970.987 2068.56 972.41 2068.78 973.768 2069.24 975.03 2069.69 976.291 2070.3 977.455 2071.11 978.522 2072.31 980.075 2073.86 981.368 2075.64 982.242 2076.22 982.533 2076.87 982.791 2077.52 982.985L2077.52 998.67 2038.12 998.67 2038.12 962.579C2039.41 962.191 2040.61 961.608 2041.71 960.832 2044.94 958.568 2047.08 954.849 2047.08 950.58 2047.08 943.627 2041.45 938 2034.5 938 2033.62 938 2032.78 938.097 2031.97 938.259 2029.51 938.776 2027.31 939.973 2025.6 941.687 2023.34 943.951 2021.91 947.12 2021.91 950.58 2021.91 952.715 2022.43 954.72 2023.37 956.466 2023.98 957.631 2024.79 958.698 2025.73 959.603 2027.15 960.962 2028.9 961.997 2030.84 962.579L2030.84 998.67 1991.44 998.67 1991.44 982.985C1992.73 982.597 1993.93 982.015 1995.03 981.239 1996.1 980.495 1997.07 979.557 1997.88 978.522 1998.69 977.487 1999.3 976.291 1999.75 975.03 2000.21 973.768 2000.43 972.41 2000.43 970.987 2000.43 969.241 2000.08 967.591 1999.43 966.104 1998.78 964.584 1997.88 963.258 1996.75 962.094 1995.61 960.962 1994.25 960.024 1992.73 959.409 1991.21 958.763 1989.56 958.407 1987.85 958.407 1986.14 958.407 1984.45 958.763 1982.97 959.409 1982.22 959.733 1981.51 960.121 1980.83 960.574 1979.5 961.479 1978.34 962.643 1977.43 963.969 1976.08 965.974 1975.3 968.4 1975.3 970.987 1975.3 971.699 1975.36 972.378 1975.46 973.057 1975.69 974.415 1976.14 975.676 1976.75 976.841 1978.02 979.169 1979.96 981.045 1982.35 982.209 1982.93 982.5 1983.58 982.759 1984.23 982.953L1984.23 998.638 1959.9 998.638C1956.25 998.638 1952.88 1000.48 1950.91 1003.39 1949.71 1005.14 1949 1007.24 1949 1009.54L1949 1044.76C1949 1046.95 1949.68 1049.02 1950.84 1050.77 1952.78 1053.68 1956.08 1055.65 1959.93 1055.65L1984.26 1055.65 1984.26 1071.05C1983.61 1071.24 1983 1071.5 1982.38 1071.79 1979.99 1072.96 1978.02 1074.83 1976.79 1077.16 1976.17 1078.32 1975.72 1079.59 1975.49 1080.94 1975.36 1081.62 1975.33 1082.3 1975.33 1083.01 1975.33 1085.63 1976.11 1088.03 1977.47 1090.03 1978.37 1091.36 1979.54 1092.52 1980.86 1093.43 1981.54 1093.88 1982.25 1094.27 1983 1094.59 1984.52 1095.24 1986.17 1095.59 1987.88 1095.59 1989.6 1095.59 1991.28 1095.24 1992.77 1094.59 1994.29 1093.94 1995.61 1093.04 1996.78 1091.91 1997.91 1090.78 1998.85 1089.42 1999.46 1087.9 2000.11 1086.38 2000.47 1084.73 2000.47 1083.01 2000.47 1081.59 2000.24 1080.23 1999.79 1078.97 1999.37 1077.71 1998.72 1076.55 1997.91 1075.48 1997.1 1074.44 1996.16 1073.51 1995.06 1072.76 1993.96 1072.02 1992.77 1071.4 1991.47 1071.02L1991.47 1055.62 2030.87 1055.62 2030.87 1091.42C2028.93 1092 2027.18 1093.04 2025.76 1094.4 2024.82 1095.3 2024.01 1096.37 2023.4 1097.53 2022.46 1099.28 2021.94 1101.29 2021.94 1103.42 2021.94 1106.88 2023.37 1110.05 2025.63 1112.31 2027.35 1114.03 2029.55 1115.22 2032 1115.74 2032.81 1115.9 2033.69 1116 2034.53 1116 2041.48 1116 2047.11 1110.37 2047.11 1103.42 2047.11 1099.15 2044.98 1095.43 2041.74 1093.17 2040.67 1092.42 2039.44 1091.81 2038.15 1091.42L2038.15 1055.62 2077.55 1055.62 2077.55 1071.02C2076.9 1071.21 2076.29 1071.47 2075.67 1071.76 2073.89 1072.63 2072.31 1073.89 2071.15 1075.48 2070.34 1076.51 2069.72 1077.71 2069.27 1078.97 2068.85 1080.23 2068.59 1081.59 2068.59 1083.01 2068.59 1088.22 2071.76 1092.68 2076.26 1094.59 2077.78 1095.24 2079.43 1095.59 2081.14 1095.59 2083.76 1095.59 2086.15 1094.82 2088.16 1093.46 2091.49 1091.2 2093.69 1087.38 2093.69 1083.05 2093.69 1082.33 2093.63 1081.66 2093.53 1080.98 2093.3 1079.62 2092.85 1078.36 2092.24 1077.19 2090.97 1074.86 2089 1072.99 2086.64 1071.82 2086.06 1071.53 2085.41 1071.27 2084.76 1071.08L2084.76 1055.69 2109.09 1055.69C2112.16 1055.69 2114.94 1054.42 2116.95 1052.45 2117.95 1051.45 2118.73 1050.29 2119.28 1048.99 2119.8 1047.7 2120.05 1046.28 2119.99 1044.82L2119.99 1009.6Z" fill="#FFFFFF" fill-rule="evenodd" fill-opacity="1"/></g></g></svg>