<svg xmlns="http://www.w3.org/2000/svg" viewBox="0 0 72 72"><defs><style>.cls-1{fill:#333;}.cls-2{fill:#fff;}</style></defs><g id="Layer_2" data-name="Layer 2"><g id="Layer_5" data-name="Layer 5"><circle class="cls-1" cx="36" cy="36" r="36"/><path class="cls-2" d="M16.86,24.17c0-8.12,8.58-14.62,19.14-14.62s19.14,6.61,19.14,14.62v.11H50.85v-.11c0-5.69-6.73-10.44-15-10.44S21,18.37,21,24.17v.11H16.74l.12-.11Zm14.38,6.49,2.44-3.48.12.12L53.4,41.45,51,44.93l-.12-.11Zm9.63,10.79-2.43,3.48-.12-.11L18.71,30.66l2.44-3.48.12.12Zm14.27,6.38C55.14,56,46.56,62.45,36,62.45S16.86,55.84,16.86,47.83v-.11h4.29v.11c0,5.69,6.73,10.44,14.85,10.44s15-4.64,15-10.44v-.11h4.29Z"/></g></g></svg>