<svg xmlns="http://www.w3.org/2000/svg" viewBox="0 0 72 72"><defs><style>.cls-1{fill:#333;}.cls-2{fill:#fff;}</style></defs><g id="Layer_2" data-name="Layer 2"><g id="Layer_5" data-name="Layer 5"><circle class="cls-1" cx="36" cy="36" r="36"/><path class="cls-2" d="M9.56,48.49A12.13,12.13,0,0,1,9,32.19a11.64,11.64,0,0,1,14.8-2.6L21.06,33a7.54,7.54,0,0,0-6.4.1,8.48,8.48,0,0,0-3.4,3.1,7.85,7.85,0,0,0,.9,9,7.53,7.53,0,0,0,8.8,1.9l2.7,3.4A11.52,11.52,0,0,1,9.56,48.49Zm37.8-6.3a.27.27,0,0,1-.3.3H35.26v-3.9c0-.5.1-.5.5-.5h7c-.1-.2-.1-.3-.2-.5a7.46,7.46,0,0,0-6-4.8,7.49,7.49,0,0,0-7.3,2.6,7.81,7.81,0,0,0,1.8,11.4,8.32,8.32,0,0,0,4.3,1.3h11.8v4.3h-12a12.24,12.24,0,0,1-1.9-24.3,11.83,11.83,0,0,1,12.1,5.4A12.42,12.42,0,0,1,47.36,42.19Zm11.9,8a17.68,17.68,0,0,1-8.7,2.3v-4.3c4.5,0,9.4-3,10.5-7.3a9.78,9.78,0,0,0-6.6-11.7,9.25,9.25,0,0,0-2.9-.4h-4.4a10.47,10.47,0,0,0-4.1-9,9.93,9.93,0,0,0-13.1,1,9.9,9.9,0,0,0-3,6.8l-4.1-1.4a14.34,14.34,0,0,1,28.2-1.6,13.33,13.33,0,0,1,2,0,13.55,13.55,0,0,1,11.5,8.5A14.32,14.32,0,0,1,59.26,50.19Z"/></g></g></svg>