<svg xmlns="http://www.w3.org/2000/svg" viewBox="0 0 72 72"><defs><style>.cls-1{fill:#333;}.cls-2{fill:#fff;}</style></defs><g id="Layer_2" data-name="Layer 2"><g id="Layer_5" data-name="Layer 5"><circle class="cls-1" cx="36" cy="36" r="36"/><path class="cls-2" d="M16.41,57.71a2.24,2.24,0,0,1-2.23-2.23V38.92h.11A19.14,19.14,0,0,1,33.5,57.82l-17.09-.11Zm23.68,0a25.84,25.84,0,0,0-25.8-25.48V25.12h.1a33,33,0,0,1,33,32.59Zm17.73-2.12a2.32,2.32,0,0,1-2.23,2.23H53.78a39.67,39.67,0,0,0-39.6-39.29V16.41a2.24,2.24,0,0,1,2.23-2.23H30.32a47,47,0,0,1,27.5,26.33Zm0-28.46a70.62,70.62,0,0,0-5.74-6.79h0a51.56,51.56,0,0,0-7.53-6.05h11a2.12,2.12,0,0,1,2.12,2.12l.11,10.72Z"/></g></g></svg>