<svg xmlns="http://www.w3.org/2000/svg" viewBox="0 0 72 72"><defs><style>.cls-1{fill:#333;}.cls-2{fill:#fff;}</style></defs><g id="Layer_2" data-name="Layer 2"><g id="Layer_5" data-name="Layer 5"><circle class="cls-1" cx="36" cy="36" r="36"/><path class="cls-2" d="M36,9.55a26.67,26.67,0,0,1,25.6,19.3,10.05,10.05,0,0,0-7.2-3A10.21,10.21,0,0,0,45.5,31a19.44,19.44,0,0,0-18.7-14.3,18.66,18.66,0,0,0-13.3,5.4A26.51,26.51,0,0,1,36,9.55ZM14.5,23.65a17.39,17.39,0,0,1,27.7,4.2,10.3,10.3,0,0,0-6.2-2.1A10.18,10.18,0,0,0,25.8,36,8.2,8.2,0,0,1,9.4,36,17.16,17.16,0,0,1,14.5,23.65Zm21.4,38.8a26.67,26.67,0,0,1-25.6-19.3,10.05,10.05,0,0,0,7.2,3,10.21,10.21,0,0,0,8.9-5.1,19.44,19.44,0,0,0,18.7,14.3A18.66,18.66,0,0,0,58.4,50,26.51,26.51,0,0,1,35.9,62.45Zm21.6-14.2a17.39,17.39,0,0,1-27.7-4.2,10.3,10.3,0,0,0,6.2,2.1A10.18,10.18,0,0,0,46.2,36a8.2,8.2,0,0,1,16.4,0A17.16,17.16,0,0,1,57.5,48.25Z"/></g></g></svg>