<svg xmlns="http://www.w3.org/2000/svg" viewBox="0 0 72 72"><defs><style>.cls-1{fill:#333;}.cls-2{fill:#fff;}</style></defs><g id="Layer_2" data-name="Layer 2"><g id="Layer_5" data-name="Layer 5"><circle class="cls-1" cx="36" cy="36" r="36"/><path class="cls-2" d="M64.23,29.65a19.58,19.58,0,0,0-3.1-6.5,22.66,22.66,0,0,0-4.4-4.8,36.57,36.57,0,0,0-4.7-3,37.48,37.48,0,0,0-6.7-2.2,48.09,48.09,0,0,0-9.8-1.1,33.2,33.2,0,0,0-7.2.7,24,24,0,0,0-6.2,2.2,36.89,36.89,0,0,0-3.2,2,34.92,34.92,0,0,0-3.6,3.3,16.16,16.16,0,0,0-2.8,4.6,12.78,12.78,0,0,0-1.3,5.9,19.5,19.5,0,0,0,2.9,10.1,25.13,25.13,0,0,0,6.1,6.5L16.33,58l13.6-5.6c.4.1.7.2,1,.3a36.5,36.5,0,0,0,10,1.6,34.62,34.62,0,0,0,11.5-2,23.69,23.69,0,0,0,8.1-5.5,15.64,15.64,0,0,0,4-8.6A23.76,23.76,0,0,0,64.23,29.65Zm-3.1,9a12.8,12.8,0,0,1-3.8,5.2,20.58,20.58,0,0,1-5.4,3,42,42,0,0,1-5.4,1.3c-1.6.2-2.9.4-3.7.4a32.88,32.88,0,0,1-8.8-1.3,30.35,30.35,0,0,1-8.2-3.7,21.19,21.19,0,0,1-6-6.3,18.27,18.27,0,0,1-2-4.3,13.36,13.36,0,0,1-.7-3.9,12.75,12.75,0,0,1,2.5-7.1,15.07,15.07,0,0,1,6.9-5.3A23.19,23.19,0,0,1,37,14.55a37.17,37.17,0,0,1,8.7,1,27.35,27.35,0,0,1,5.9,2.2,28.64,28.64,0,0,1,4.1,2.9,18.89,18.89,0,0,1,3.7,4.2,13.12,13.12,0,0,1,2.3,5.8A14.76,14.76,0,0,1,61.13,38.65Z"/></g></g></svg>