<svg xmlns="http://www.w3.org/2000/svg" viewBox="0 0 72 72"><defs><style>.cls-1{fill:#333;}.cls-2{fill:#fff;}</style></defs><g id="Layer_2" data-name="Layer 2"><g id="Layer_5" data-name="Layer 5"><circle class="cls-1" cx="36" cy="36" r="36"/><path class="cls-2" d="M47,54h0l-.3.8.1.1v.5l-.1-.1-.2-.2-.1-.1c-.1-.1-.1-.2-.2-.3a4.23,4.23,0,0,1-.5-.7h0l-.1-.1v-.1h0c-.1-.1-.1-.3-.2-.4s0-.1-.1-.2-.1-.2-.1-.3V51.7l.2-.6-.3.4h0v.1h0c0,.1-.1.1-.1.2h0a5.16,5.16,0,0,0-.2,1.1,4.16,4.16,0,0,1-.6-2.6v-.1H44l-.1.3-.1.2h0c-.1.2-.1.5-.2.7a10.59,10.59,0,0,1-1-1.2c-.4-.5-.7-1-1-1.4a7.1,7.1,0,0,1-.8-1.8,6.47,6.47,0,0,1,0-3.9l.2-.4h0l.1-.3c.3.4.7.8,1,1.2v.1c.3.4.7.8,1,1.2a11.32,11.32,0,0,1,1,1.3l.9,1.2.1.1c.4.5.7.9,1,1.3a6.07,6.07,0,0,1,.7,1c.1.1.2.2.2.3a2.09,2.09,0,0,1,.4.6l.4.6.1.2-1,2.2h0v-.2l-.2.6C47.05,53.9,47.05,54,47,54Zm-7-8.1a.35.35,0,0,0-.1-.2,4.18,4.18,0,0,1-.5-2.8h0a1.92,1.92,0,0,0-.4,1.2c-.7-1.3-.1-2.8.6-3.9v-.1l.1.1c.2.2.3.4.5.6l.1.1h0c.3.3.6.7.9,1l.1.1h0l-.3.8A3.48,3.48,0,0,0,40,45.9Zm.5-6.5a2,2,0,0,1,.9-.5c-.3.3-.6.6-.6.9v.1h.1a5.73,5.73,0,0,0,2.8.4,2.84,2.84,0,0,1-1.3.4h-.2l.3.2c.5.4,1,.7,1.6,1.2l-2.2-.1c0-.1-.1-.1-.1-.2l-.3-.4a4.35,4.35,0,0,0-.6-.7.1.1,0,0,0-.1-.1l-.2-.3c-2.6-3.1-4.7-5.3-5.3-5.9a.76.76,0,0,1-.2-.4c2,2.1,3.6,3.9,4.9,5.5l.1.1.1-.1a2.59,2.59,0,0,0,.6-1.4,2.55,2.55,0,0,1-.2,1.3l-.2.5Zm8.1,11.7h0l-.6-.9-.1-.1c-.1-.1-.2-.3-.3-.4a8.51,8.51,0,0,1-.9-1.4c-.3-.5-.7-.9-1-1.4s-.7-.9-1-1.3-.6-.8-1-1.3-.7-.9-1-1.3h0l-.1-.1-.1-.1c-.2-.3-.5-.6-.7-.9l2.3.1c.4.4.9.8,1.3,1.2a2.65,2.65,0,0,1,.5.6c.3.3.4.5.6.7a14.7,14.7,0,0,1,1,1.3,14.63,14.63,0,0,1,.9,1.3l.2.2c.2.4.5.7.7,1.1s.6.9.8,1.3.5.8.7,1.3Zm2.4.3h0l.6,1.2c.2.4.4.9.7,1.4a5.34,5.34,0,0,1,.6,1.4c.2.4.3.8.5,1.2,0,.1,0,.1.1.2l-1.7-.1a8.26,8.26,0,0,0-.7-1.3h0c-.3-.5-.5-1-.8-1.4a10,10,0,0,1-.8-1.4c-.3-.4-.5-.8-.8-1.2Zm-1,8.2c-.2-.2-.3-.4-.5-.6l-.9-1.2c-.3-.5-.6-1-.8-1.4-.1-.2-.2-.3-.2-.5a3.44,3.44,0,0,1-.3-1.9l1.1-2.5c.3.5.6.9.8,1.2.3.5.6.9.9,1.4s.6,1,.8,1.4v.1c.3.5.5.9.7,1.3-.4.8-.9,2-1.3,3Zm2.9,1.4a3.71,3.71,0,0,1-2.4-1c.4-1.1.9-2.2,1.2-2.9.7,1.5,1,2.3,1.1,2.5v.1h.1v-.1a17.15,17.15,0,0,0-1-2.6l1.7.1a12.5,12.5,0,0,1,.8,2.8V60C54.35,61,52.85,61,52.85,61Zm2.7-24.7a24.23,24.23,0,0,1-5.4,11,3.36,3.36,0,0,1-.6.9l-.6-.9-.2-.2a14.63,14.63,0,0,0-.9-1.3,14.7,14.7,0,0,0-1-1.3c-.2-.2-.3-.4-.5-.6l.2-.2a20.75,20.75,0,0,0,3-5,15.67,15.67,0,0,0,1.2-6.5,15.67,15.67,0,0,0-1.2-6.5,18.33,18.33,0,0,0-13.3-11.1,21.75,21.75,0,0,0-7.2,0,18.34,18.34,0,0,0-14.2,14.1,20.57,20.57,0,0,0,0,7,18.3,18.3,0,0,0,16,14.3,28.31,28.31,0,0,0,5.7-.4h-.1A18.29,18.29,0,0,0,41,48a4.05,4.05,0,0,0,.5.9,13,13,0,0,0,1,1.5,10.59,10.59,0,0,0,1,1.2l.5.6v.1a24.16,24.16,0,0,1-8.6,2.8,27.85,27.85,0,0,1-7.6-.3A23.36,23.36,0,0,1,9.65,36.7a28.4,28.4,0,0,1,0-9.2A23.38,23.38,0,0,1,29.85,9.1a29,29,0,0,1,7.2.3,23.41,23.41,0,0,1,18.5,18.2A31.68,31.68,0,0,1,55.55,36.3Z"/></g></g></svg>