<svg xmlns="http://www.w3.org/2000/svg" viewBox="0 0 72 72"><defs><style>.cls-1{fill:#46c795;}.cls-2{fill:#fff;}.cls-3{fill:none;}</style></defs><g id="Layer_2" data-name="Layer 2"><g id="Layer_5" data-name="Layer 5"><circle class="cls-1" cx="36" cy="36" r="36"/><path class="cls-2" d="M41.11,5.84h0m-.13,0,1.45,7.6.16.86.82.28.27.09a15.12,15.12,0,0,1,1.43.54c.46.21.89.45,1.34.71l.25.14.75.43.75-.44,6.66-4,5.37,6.11-4.32,5.91-.53.73.39.81a22.08,22.08,0,0,1,1.39,3.68l.25.87.88.19L65.42,32l0,8.14-7.59,1.46-.84.16-.29.81,0,.1c-.19.55-.38,1.07-.61,1.57s-.5,1-.79,1.54l-.05.07-.41.76.44.73L59.18,54l-6.11,5.36L47.18,55l-.72-.54-.82.4A21.65,21.65,0,0,1,42,56.27l-.87.24-.2.88-1.57,7.15-8.13,0-1.47-7.62-.16-.84-.81-.29-.13,0c-.54-.2-1.06-.38-1.55-.6s-1-.48-1.47-.76l-.12-.07-.75-.42-.74.44L17.32,58.3,12,52.19l4.32-5.91.53-.73-.39-.81A22.08,22.08,0,0,1,15,41.06l-.25-.87L13.89,40,6.76,38.44l0-8.13,7.59-1.47.84-.16.29-.81,0-.08c.2-.56.39-1.1.62-1.61s.5-1,.78-1.49l.05-.1.42-.75-.44-.74L13,16.44l6.11-5.36,5.9,4.3.72.54.81-.4a22.08,22.08,0,0,1,3.68-1.39l.87-.24.19-.88,1.58-7.15,8.13,0m.13-1.5h0l-8.33,0h0a1.37,1.37,0,0,0-1.34,1.07l-1.6,7.26a23,23,0,0,0-3.93,1.48l-6-4.37a1.37,1.37,0,0,0-1.72.09l-6.26,5.49a1.39,1.39,0,0,0-.28,1.72l4,6.76c-.31.56-.62,1.11-.88,1.7s-.49,1.2-.7,1.81L6.34,28.85a1.38,1.38,0,0,0-1.1,1.35l0,8.32a1.39,1.39,0,0,0,1.07,1.36l7.24,1.59a23.78,23.78,0,0,0,1.49,3.92l-4.39,6a1.39,1.39,0,0,0,.1,1.72l5.49,6.25a1.35,1.35,0,0,0,1,.46,1.32,1.32,0,0,0,.69-.18l6.78-4c.56.31,1.11.62,1.71.89s1.18.47,1.79.69L29.75,65a1.37,1.37,0,0,0,1.34,1.1l8.33,0h0A1.37,1.37,0,0,0,40.77,65l1.6-7.26a23,23,0,0,0,3.93-1.48l6,4.37A1.37,1.37,0,0,0,54,60.51L60.26,55a1.39,1.39,0,0,0,.28-1.71l-4-6.76c.31-.57.62-1.12.89-1.72s.48-1.19.69-1.79l7.71-1.48a1.38,1.38,0,0,0,1.1-1.35l0-8.32a1.39,1.39,0,0,0-1.07-1.36l-7.24-1.59A24.13,24.13,0,0,0,57.12,25l4.39-6a1.39,1.39,0,0,0-.1-1.72L55.92,11a1.35,1.35,0,0,0-1-.46,1.42,1.42,0,0,0-.69.18l-6.76,4c-.56-.32-1.1-.64-1.72-.92s-1.21-.47-1.82-.68L42.43,5.44a1.4,1.4,0,0,0-.84-1h0a1.56,1.56,0,0,0-.48-.08Z"/><path class="cls-3" d="M36.09,40.74a5.56,5.56,0,1,1,4.74-8.46l4.82-2.76a11.11,11.11,0,1,0,.1,11.15L40.88,38A5.55,5.55,0,0,1,36.09,40.74Z"/><rect class="cls-2" x="45.22" y="34.53" width="1.3" height="1.3"/><path class="cls-2" d="M51.17,28a3.37,3.37,0,0,0-.07-.82,1.19,1.19,0,0,0-.29-.54l-.05-.06h0a1.68,1.68,0,0,0-.53-.46L37,18.74a2,2,0,0,0-.4-.16,2,2,0,0,0-.49-.07,1.85,1.85,0,0,0-.92.23L21.88,26.18A1.68,1.68,0,0,0,21,27.64v15a1.69,1.69,0,0,0,.87,1.47l13.34,7.48a1.74,1.74,0,0,0,1.74,0L50.3,44.14a1.7,1.7,0,0,0,.87-1.47v-.05C51.14,39.61,51.17,31,51.17,28ZM36.09,46.29a11.11,11.11,0,1,1,9.56-16.77l-4.82,2.76A5.56,5.56,0,1,0,40.88,38l4.87,2.67A11.09,11.09,0,0,1,36.09,46.29ZM49.18,34.53H47.85v1.3h1.33v1.34H47.85v1.37H46.51V37.17H45.22v1.37H43.88V37.17H42.47V35.83h1.41v-1.3H42.47V33.2h1.41V31.83h1.34V33.2h1.29V31.83h1.34V33.2h1.33Z"/></g></g></svg>