<svg xmlns="http://www.w3.org/2000/svg" viewBox="0 0 72 72"><defs><style>.cls-1{fill:#46c795;}.cls-2{fill:#fff;}</style></defs><g id="Layer_2" data-name="Layer 2"><g id="Layer_5" data-name="Layer 5"><circle class="cls-1" cx="36" cy="36" r="36"/><path class="cls-2" d="M55.82,51.4V34.47c2.25,4,6.1,8.48,12,8.48h0c.73,0,1.33-.86,1.33-1.92s-.6-1.91-1.33-1.91c-7.94,0-11.43-9.84-12-11.75V20.58c0-1.06-.59-1.92-1.33-1.92H49.18c-.73,0-1.32.86-1.32,1.92v6.87C47.26,29.34,43.82,39,36,39S24.73,29.34,24.14,27.45V20.58c0-1.06-.6-1.92-1.33-1.92H17.5c-.73,0-1.33.86-1.33,1.92v6.78c-.58,1.83-4.13,11.76-12,11.76-.73,0-1.32.85-1.32,1.91S3.41,43,4.14,43c5.94,0,9.79-4.5,12-8.48V51.4h8V34.54c2.22,3.92,6,8.33,11.86,8.33h0c5.84,0,9.63-4.41,11.86-8.33V51.4Zm-37-28.9h2.65V50.78H18.83ZM50.51,50.78V22.5h2.66V50.78Z"/></g></g></svg>