<svg xmlns="http://www.w3.org/2000/svg" viewBox="0 0 72 72"><defs><style>.cls-1{fill:#46c795;}.cls-2{fill:#fff;}</style></defs><g id="Layer_2" data-name="Layer 2"><g id="Layer_5" data-name="Layer 5"><circle class="cls-1" cx="36" cy="36" r="36"/><path class="cls-2" d="M41,6.32h0m-.13,0,1.45,7.61.16.85.82.29.27.09A14.92,14.92,0,0,1,45,15.7a14.61,14.61,0,0,1,1.35.71l.24.14.76.43.75-.45,6.66-3.94,5.37,6.11-4.32,5.91-.53.72.39.82A21.65,21.65,0,0,1,57,29.82l.24.87.88.2,7.13,1.56,0,8.13L57.7,42l-.84.16-.29.81,0,.11c-.2.55-.38,1.06-.61,1.57s-.51,1-.8,1.54l0,.07-.41.75.43.74L59,54.45l-6.11,5.36L47,55.5,46.31,55l-.81.39a21.75,21.75,0,0,1-3.68,1.39L41,57l-.2.88L39.19,65l-8.13,0-1.47-7.62-.17-.84-.8-.29-.14,0c-.54-.19-1.05-.37-1.54-.59s-1-.49-1.47-.77l-.12-.07-.75-.41-.74.44-6.69,3.94-5.36-6.11,4.31-5.92.54-.72-.4-.81a22.08,22.08,0,0,1-1.39-3.68l-.24-.87-.88-.19L6.62,38.92l0-8.13,7.59-1.46.84-.16.29-.81,0-.08c.2-.57.39-1.1.62-1.62s.49-1,.77-1.48l.06-.11.42-.75-.44-.74-3.93-6.66L19,11.56l5.89,4.31.73.53.81-.39a22.08,22.08,0,0,1,3.68-1.39l.87-.25.19-.88,1.58-7.14,8.13,0M41,4.82h0l-8.32,0h0a1.37,1.37,0,0,0-1.34,1.06l-1.6,7.26a23.89,23.89,0,0,0-3.93,1.49l-6-4.38A1.37,1.37,0,0,0,19,10a1.4,1.4,0,0,0-.93.35l-6.25,5.49a1.37,1.37,0,0,0-.28,1.72l4,6.75c-.31.56-.62,1.11-.89,1.71s-.48,1.2-.69,1.81L6.2,29.34a1.37,1.37,0,0,0-1.1,1.34l0,8.33a1.38,1.38,0,0,0,1.07,1.35L13.43,42a23,23,0,0,0,1.48,3.93l-4.38,6a1.37,1.37,0,0,0,.1,1.72l5.49,6.26a1.38,1.38,0,0,0,1.71.28l6.79-4c.56.31,1.11.62,1.7.88s1.19.48,1.79.69l1.5,7.74A1.37,1.37,0,0,0,31,66.55l8.32,0h0a1.39,1.39,0,0,0,1.34-1.07l1.6-7.26a23.78,23.78,0,0,0,3.92-1.49l6,4.38a1.38,1.38,0,0,0,.8.25,1.34,1.34,0,0,0,.92-.35l6.25-5.49a1.37,1.37,0,0,0,.28-1.72L56.4,47c.32-.57.63-1.13.9-1.73s.47-1.18.69-1.79L65.69,42a1.39,1.39,0,0,0,1.11-1.34l0-8.33A1.38,1.38,0,0,0,65.71,31l-7.24-1.59A23.89,23.89,0,0,0,57,25.49l4.38-6a1.37,1.37,0,0,0-.09-1.72l-5.49-6.26a1.39,1.39,0,0,0-1.72-.28l-6.77,4c-.56-.31-1.1-.64-1.71-.91a19.2,19.2,0,0,0-1.82-.68L42.29,5.92A1.35,1.35,0,0,0,41,4.82Z"/><path class="cls-2" d="M31.27,34.64s-1.18.68.84.92a17.54,17.54,0,0,0,6.41-.28,11.13,11.13,0,0,0,1.7.84c-6.06,2.59-13.7-.15-8.95-1.48"/><path class="cls-2" d="M30.53,31.25s-1.32,1,.7,1.19a25.19,25.19,0,0,0,8.26-.39,3.7,3.7,0,0,0,1.27.77C33.45,35,25.29,33,30.53,31.25"/><path class="cls-2" d="M36.77,25.51c1.49,1.72-.4,3.26-.4,3.26s3.79-1.95,2.05-4.4C36.8,22.08,35.55,21,42.3,17c0,0-10.59,2.64-5.53,8.47"/><path class="cls-2" d="M44.77,37.14s.88.72-1,1.28c-3.5,1.06-14.54,1.38-17.61,0-1.11-.48,1-1.15,1.61-1.28a4.07,4.07,0,0,1,1.07-.12c-1.23-.87-7.93,1.69-3.41,2.43,12.35,2,22.5-.91,19.3-2.35"/><path class="cls-2" d="M31.84,27.74s-5.62,1.34-2,1.82a41.56,41.56,0,0,0,7.43-.08c2.33-.19,4.66-.61,4.66-.61a9.4,9.4,0,0,0-1.41.76c-5.71,1.5-16.73.8-13.56-.74a10.77,10.77,0,0,1,4.87-1.15"/><path class="cls-2" d="M41.92,33.38c5.8-3,3.12-5.91,1.25-5.52a3.69,3.69,0,0,0-.67.18,1.07,1.07,0,0,1,.5-.39c3.7-1.3,6.55,3.84-1.2,5.88a.56.56,0,0,0,.12-.15"/><path class="cls-2" d="M38.42,10.72s3.21,3.22-3,8.16c-5,4-1.15,6.23,0,8.81-2.93-2.65-5.08-5-3.63-7.14,2.11-3.18,8-4.72,6.68-9.83"/><path class="cls-2" d="M32.41,41.55c5.57.35,14.12-.2,14.32-2.83,0,0-.39,1-4.6,1.79A45.68,45.68,0,0,1,28,40.72s.71.59,4.37.83"/><path class="cls-2" d="M22.67,50.71a3.73,3.73,0,0,1-.1.93,1.66,1.66,0,0,1-.33.71,1.42,1.42,0,0,1-.6.44,2.52,2.52,0,0,1-.93.15l-.35,0-.31-.07-.25-.09a.33.33,0,0,1-.14-.09.19.19,0,0,1-.06-.07.36.36,0,0,1,0-.11c0-.05,0-.1,0-.17v-.25c0-.13,0-.25,0-.34a.69.69,0,0,1,0-.22.17.17,0,0,1,.06-.11.12.12,0,0,1,.09,0,.24.24,0,0,1,.13,0l.15.08.21.08a1.1,1.1,0,0,0,.27,0,.78.78,0,0,0,.28,0,.43.43,0,0,0,.2-.15.87.87,0,0,0,.12-.29,2.05,2.05,0,0,0,0-.47V45.44a.18.18,0,0,1,0-.1.35.35,0,0,1,.12-.07,1.11,1.11,0,0,1,.24-.05h.74a1.11,1.11,0,0,1,.24.05.26.26,0,0,1,.13.07.13.13,0,0,1,0,.1Z"/><path class="cls-2" d="M29.55,51.68v.24q0,.11,0,.18a.5.5,0,0,1-.05.13l-.09.12a1.45,1.45,0,0,1-.25.17,2.4,2.4,0,0,1-.45.2,3.18,3.18,0,0,1-.61.16,3.51,3.51,0,0,1-.74.07,3.93,3.93,0,0,1-1.41-.24A2.81,2.81,0,0,1,24.85,52a3.36,3.36,0,0,1-.67-1.19,6.07,6.07,0,0,1,0-3.38,3.7,3.7,0,0,1,.73-1.26A2.94,2.94,0,0,1,26,45.38a3.82,3.82,0,0,1,1.42-.26,4,4,0,0,1,.61.05,3.53,3.53,0,0,1,.54.14,2.34,2.34,0,0,1,.45.2,1,1,0,0,1,.28.19.58.58,0,0,1,.11.13.89.89,0,0,1,.05.13,1.12,1.12,0,0,1,0,.2,2.1,2.1,0,0,1,0,.27,2.63,2.63,0,0,1,0,.3.88.88,0,0,1,0,.2.35.35,0,0,1-.07.11.18.18,0,0,1-.1,0,.44.44,0,0,1-.22-.11,3.75,3.75,0,0,0-.35-.22,2,2,0,0,0-.51-.23,2.06,2.06,0,0,0-.7-.11,1.79,1.79,0,0,0-.81.19,1.6,1.6,0,0,0-.6.53,2.36,2.36,0,0,0-.38.83,4,4,0,0,0-.13,1.09,4.39,4.39,0,0,0,.14,1.16,2.21,2.21,0,0,0,.39.8,1.7,1.7,0,0,0,.62.48,2.09,2.09,0,0,0,.81.15,2.17,2.17,0,0,0,.71-.1,2.45,2.45,0,0,0,.51-.21l.35-.21a.43.43,0,0,1,.21-.09.15.15,0,0,1,.1,0,.23.23,0,0,1,.06.09s0,.11,0,.2A3.23,3.23,0,0,1,29.55,51.68Z"/><path class="cls-2" d="M35.16,50.55a2.32,2.32,0,0,1-.23,1.05,2.21,2.21,0,0,1-.6.75,2.59,2.59,0,0,1-.89.46,3.83,3.83,0,0,1-1.09.15,3.35,3.35,0,0,1-.73-.07,4,4,0,0,1-.6-.15,2.5,2.5,0,0,1-.43-.19,1.47,1.47,0,0,1-.24-.18.36.36,0,0,1-.11-.22,1.93,1.93,0,0,1,0-.41,2.36,2.36,0,0,1,0-.3.85.85,0,0,1,0-.2.35.35,0,0,1,.07-.11.2.2,0,0,1,.11,0,.52.52,0,0,1,.23.09,3.9,3.9,0,0,0,.38.22,4.42,4.42,0,0,0,.56.21,2.84,2.84,0,0,0,.75.1,2,2,0,0,0,.51-.07,1.35,1.35,0,0,0,.38-.19.72.72,0,0,0,.23-.31.87.87,0,0,0,.09-.4.72.72,0,0,0-.14-.44,1.48,1.48,0,0,0-.37-.33,3.05,3.05,0,0,0-.51-.27l-.6-.27a4.83,4.83,0,0,1-.59-.32,2.59,2.59,0,0,1-.51-.42,2.36,2.36,0,0,1-.37-.59,2.23,2.23,0,0,1-.14-.82,2.12,2.12,0,0,1,.21-1,1.9,1.9,0,0,1,.54-.68,2.38,2.38,0,0,1,.81-.41,3.54,3.54,0,0,1,1-.13,3.27,3.27,0,0,1,.54,0,3.67,3.67,0,0,1,.5.11,3.36,3.36,0,0,1,.42.16,1.7,1.7,0,0,1,.24.14l.07.1a.36.36,0,0,1,0,.11.79.79,0,0,1,0,.17c0,.07,0,.16,0,.26s0,.21,0,.28,0,.15,0,.2a.36.36,0,0,1-.06.11.17.17,0,0,1-.1,0,.43.43,0,0,1-.21-.08L34,46.56a3.79,3.79,0,0,0-.48-.17,1.87,1.87,0,0,0-.59-.08,1.46,1.46,0,0,0-.44.06.92.92,0,0,0-.31.17.61.61,0,0,0-.19.26.87.87,0,0,0-.06.32.66.66,0,0,0,.14.44,1.45,1.45,0,0,0,.36.33c.16.09.33.18.53.27l.6.26c.2.1.4.2.59.32a2.44,2.44,0,0,1,.53.43,2,2,0,0,1,.36.59A1.92,1.92,0,0,1,35.16,50.55Z"/><path class="cls-2" d="M45.17,52.61a.2.2,0,0,1,0,.11.18.18,0,0,1-.12.07,1,1,0,0,1-.23.05l-.35,0-.35,0a1,1,0,0,1-.23-.05.18.18,0,0,1-.11-.07.15.15,0,0,1,0-.11V46.44h0l-2.2,6.17a.24.24,0,0,1-.07.12.36.36,0,0,1-.15.08l-.23,0h-.34l-.34,0-.23,0a.37.37,0,0,1-.14-.08.19.19,0,0,1-.07-.11L37.8,46.44h0v6.17a.2.2,0,0,1,0,.11.18.18,0,0,1-.12.07,1,1,0,0,1-.23.05l-.35,0-.35,0a1,1,0,0,1-.23-.05.18.18,0,0,1-.11-.07.15.15,0,0,1,0-.11V45.86a.66.66,0,0,1,.16-.46.57.57,0,0,1,.42-.16h1a2,2,0,0,1,.46,0,.94.94,0,0,1,.34.14.87.87,0,0,1,.23.27,2.14,2.14,0,0,1,.17.42l1.64,4.51h0l1.7-4.5a2.14,2.14,0,0,1,.17-.42,1,1,0,0,1,.21-.27.69.69,0,0,1,.28-.15,1.46,1.46,0,0,1,.38,0h1a1,1,0,0,1,.27,0,.52.52,0,0,1,.19.12.49.49,0,0,1,.11.2.68.68,0,0,1,0,.26Z"/><path class="cls-2" d="M52,47.54a2.9,2.9,0,0,1-.2,1.14,2.08,2.08,0,0,1-.58.82,2.47,2.47,0,0,1-.93.52,4.55,4.55,0,0,1-1.3.17h-.64v2.42a.15.15,0,0,1,0,.11.18.18,0,0,1-.12.07,1.11,1.11,0,0,1-.24.05l-.37,0-.37,0a1.11,1.11,0,0,1-.24-.05.18.18,0,0,1-.12-.07.15.15,0,0,1,0-.11V45.79a.53.53,0,0,1,.15-.41.51.51,0,0,1,.37-.14h1.79l.51,0,.59.09a2.82,2.82,0,0,1,.68.25,1.85,1.85,0,0,1,.6.46,1.9,1.9,0,0,1,.37.65A2.45,2.45,0,0,1,52,47.54Zm-1.61.12a1.4,1.4,0,0,0-.14-.66,1,1,0,0,0-.34-.38,1.37,1.37,0,0,0-.44-.16,3.44,3.44,0,0,0-.46,0h-.66V49h.69a1.58,1.58,0,0,0,.62-.1,1,1,0,0,0,.41-.27,1.49,1.49,0,0,0,.24-.43A1.91,1.91,0,0,0,50.4,47.66Z"/></g></g></svg>