<svg xmlns="http://www.w3.org/2000/svg" viewBox="0 0 72 72"><defs><style>.cls-1{fill:#46c795;}.cls-2{fill:#fff;}.cls-3{fill:none;}</style></defs><g id="Layer_2" data-name="Layer 2"><g id="Layer_5" data-name="Layer 5"><path class="cls-1" d="M41.74.48A36,36,0,1,0,71.52,41.74,35.95,35.95,0,0,0,41.74.48Z"/><path class="cls-2" d="M25.14,33.25a5.48,5.48,0,0,0,1-2.6,3.4,3.4,0,0,0-.08-1.23v-.08c0-.07-.08-.07,0-.07s.08,0,.08.07.23.31.23.46A6.61,6.61,0,0,1,26.6,32a4.41,4.41,0,0,1-.92,2.3,8.29,8.29,0,0,1-.77.84c-.76.69-1.45,1.38-2.22,2.07a6.92,6.92,0,0,0-1.23,1.38,3.4,3.4,0,0,0-.53.91,2.34,2.34,0,0,0-.16,1.61,9.7,9.7,0,0,0,.62,1.54,12.57,12.57,0,0,0,1.38,2.14c.07.08.07.08.07.23v0c-.15-.15-.3-.23-.46-.38l-1.84-2.07a13.1,13.1,0,0,1-1.07-1.69c-.07-.23-.23-.38-.23-.69a1.34,1.34,0,0,1,.08-.91,4.72,4.72,0,0,1,.61-1.08,14.06,14.06,0,0,1,1.46-1.53c.84-.77,1.68-1.38,2.53-2.07A9.39,9.39,0,0,0,25.14,33.25ZM19,52.32c.23.08.39.23.54.23a1.44,1.44,0,0,0,.54.08,15,15,0,0,0,2.68,0,16.12,16.12,0,0,0,1.83-.15,6,6,0,0,0,1.08-.23c.15-.08.23,0,.38.07.38.23.92.54,1.38.77a.08.08,0,0,1-.08.08c-.38.07-.69.23-1.07.3a12.21,12.21,0,0,1-2.22.46A17.91,17.91,0,0,1,22,54a13.54,13.54,0,0,1-2.45-.23,6.32,6.32,0,0,1-1.23-.38,2.35,2.35,0,0,1-.38-.23.6.6,0,0,1-.08-.77.08.08,0,0,1,.08-.08A2,2,0,0,1,19,51.87c0,.07-.07.07-.07.15A.18.18,0,0,0,19,52.32Zm8.28-2.06c-.85.23-1.69.38-2.53.53a15,15,0,0,1-2.68.08,4.52,4.52,0,0,1-1-.08c-.92-.07-1.91-.15-2.83-.3a4.53,4.53,0,0,1-.92-.31c-.08-.08-.16-.08-.23-.15a.48.48,0,0,1-.16-.54.79.79,0,0,1,.39-.46,1.59,1.59,0,0,1,1-.38h.08c-.08.07-.08.07-.08.15s-.07.15-.15.23-.08.23.08.38.23.16.3.23a2.65,2.65,0,0,0,.77.16c.76.07,1.53.07,2.37.07s1.38-.07,2.15-.07l2.22-.23a1.61,1.61,0,0,1,.61-.08c.16-.08.23,0,.39.08s.38.23.53.38a1.67,1.67,0,0,1,.39.23A1,1,0,0,0,27.29,50.26Zm.53-3.3c-.84.08-1.68.23-2.53.39l-2.06.23c-1.08.07-2.07.07-3.15.07-.84,0-1.6-.07-2.37-.07a19.25,19.25,0,0,1-2-.23,4.84,4.84,0,0,1-.77-.23c-.07-.08-.23-.08-.3-.16-.08.08-.08-.07-.08-.15a.42.42,0,0,1,.31-.23A7.67,7.67,0,0,1,16,46a12.87,12.87,0,0,1,2.91-.69.51.51,0,0,0,.31-.07h.15l-.92.23a7.48,7.48,0,0,0-1.3.46c-.16.07-.23.15-.39.23s-.15.3.08.38a2.14,2.14,0,0,0,.69.15,22.22,22.22,0,0,0,2.3.16h1.76c.54,0,1.15-.08,1.69-.08a7.93,7.93,0,0,1,1.37-.08c.46-.07.92-.07,1.38-.15s.92-.08,1.46-.15l1.45-.23H29c0,.07,0,.07-.08.07l-1.07.62C28,47,28,47,27.82,47Zm-.23-10.49A12.15,12.15,0,0,0,25.75,38a5,5,0,0,0-.76.92,1.51,1.51,0,0,0,0,1.61,8.35,8.35,0,0,1,.53.92,3.33,3.33,0,0,1,.54.92,2.76,2.76,0,0,1,.23.76,2,2,0,0,1-.23,1.3,3.73,3.73,0,0,1-.77.92l-1.14.92h-.08c.08-.07.08-.07.08-.15a3.15,3.15,0,0,0,.53-.84,1.46,1.46,0,0,0,0-1.38,1.51,1.51,0,0,0-.38-.54l-.69-.92A3.4,3.4,0,0,1,23,40.76a3.23,3.23,0,0,1,.23-1.53,3.32,3.32,0,0,1,1.15-1.38,9.51,9.51,0,0,1,2.06-1.38,15,15,0,0,1,2.61-1c.15-.15.23-.15.23-.15s-.08.07-.08.07C28.74,35.7,28.13,36.08,27.59,36.47Zm-14,19.84a4.34,4.34,0,0,1-.92-.31c-.07-.07-.15-.07-.23-.15a.34.34,0,0,1-.07-.38.67.67,0,0,1,.3-.46,1.77,1.77,0,0,1,.85-.46,7,7,0,0,1,1.76-.46,3.58,3.58,0,0,1,.92-.08,1.06,1.06,0,0,1,.53.08l-.76.15a6.32,6.32,0,0,0-1.23.38,1.11,1.11,0,0,0-.38.23c-.08.08-.23.16-.23.23a.19.19,0,0,0,.08.31.53.53,0,0,0,.3.15,4,4,0,0,0,.92.23A12.25,12.25,0,0,0,17.1,56l2.22.23a14.09,14.09,0,0,0,1.84.08c1,0,1.91-.08,2.91-.08.76-.07,1.53-.07,2.22-.07a21.32,21.32,0,0,0,2.22-.23,17.12,17.12,0,0,0,2.15-.39,4.72,4.72,0,0,0,.92-.38c.07-.08.15-.08.23-.15a.35.35,0,0,0,.07-.39c-.07-.07-.07-.07-.07-.23h.07c.08.08.23.16.23.31a.33.33,0,0,1,0,.38l-.3.31c-.39.23-.77.38-1.08.54a13.31,13.31,0,0,1-1.91.53c-.84.15-1.69.31-2.53.38-.69.08-1.3.08-2,.16-1.23.07-2.38.07-3.6.07-.92,0-1.84,0-2.84-.07-.76-.08-1.45-.08-2.22-.16A8.63,8.63,0,0,0,13.57,56.31ZM33.8,55.7h0c-.08.15-.08.3-.23.38a3,3,0,0,1-.92.76,7.9,7.9,0,0,1-2.22.85c-.69.15-1.38.23-2,.38-1.08.15-2.23.23-3.3.31s-2,.07-3.06.07c-.69,0-1.31-.07-2-.07a15.35,15.35,0,0,1-3.6-.69c-.07,0-.07-.08-.15-.08h.08l1.22.08a9.12,9.12,0,0,0,1.38.07c.92.08,1.84.08,2.84.08h2.37c.46,0,.92-.08,1.38-.08s1.15-.07,1.76-.15l1.69-.23a15.62,15.62,0,0,0,2.6-.69,5.74,5.74,0,0,0,1.92-1Zm-.16-7.89a3,3,0,0,1-.84,1.07,5.37,5.37,0,0,1-1.53,1,18,18,0,0,1-1.84.77h-.15l.23-.15a7.36,7.36,0,0,0,1.38-.92,4.91,4.91,0,0,0,1.22-1.31,2.26,2.26,0,0,0,.46-1A1.7,1.7,0,0,0,32.34,46a1.55,1.55,0,0,0-.92-.61,6.26,6.26,0,0,0-1.22-.08H30c0-.07.08-.07.08-.07.23-.08.38-.23.61-.23a2.54,2.54,0,0,1,1.69.15,2.06,2.06,0,0,1,.92.69A1.63,1.63,0,0,1,33.64,47.81Z"/><path class="cls-2" d="M39.72,50a5.42,5.42,0,0,1-.12,1.18,2.3,2.3,0,0,1-.39.9,1.9,1.9,0,0,1-.75.58,2.91,2.91,0,0,1-1.14.2,2.38,2.38,0,0,1-.46,0,2.58,2.58,0,0,1-.42-.1,1.75,1.75,0,0,1-.33-.13.78.78,0,0,1-.19-.12.61.61,0,0,1-.07-.1.33.33,0,0,1-.05-.12.43.43,0,0,1,0-.17,2,2,0,0,1,0-.26,2.63,2.63,0,0,1,0-.3.74.74,0,0,1,0-.19.21.21,0,0,1,.08-.1.2.2,0,0,1,.11,0,.38.38,0,0,1,.17.06l.25.14a2.52,2.52,0,0,0,.33.14,1.53,1.53,0,0,0,.45.06,1.35,1.35,0,0,0,.48-.07.73.73,0,0,0,.34-.26,1.55,1.55,0,0,0,.2-.53,5.18,5.18,0,0,0,.06-.88V42.2a.15.15,0,0,1,0-.11.24.24,0,0,1,.11-.08.65.65,0,0,1,.22,0l.35,0,.34,0a.65.65,0,0,1,.22,0,.24.24,0,0,1,.11.08.15.15,0,0,1,0,.11Z"/><path class="cls-2" d="M54.23,52.52a.15.15,0,0,1,0,.11.24.24,0,0,1-.11.08,1,1,0,0,1-.22,0l-.35,0-.34,0a1,1,0,0,1-.22,0,.24.24,0,0,1-.11-.08.15.15,0,0,1,0-.11V43.16h0L49,52.56a.36.36,0,0,1-.07.1l-.13.07-.21,0H48.3l-.3,0a.88.88,0,0,1-.2,0,.32.32,0,0,1-.13-.07l-.07-.09L44,43.16h0v9.36a.15.15,0,0,1,0,.11.23.23,0,0,1-.12.08.9.9,0,0,1-.22,0l-.35,0-.34,0a1,1,0,0,1-.22,0,.24.24,0,0,1-.11-.08.2.2,0,0,1,0-.11V42.64a.58.58,0,0,1,.19-.5.63.63,0,0,1,.41-.15H44a2.21,2.21,0,0,1,.48,0,1,1,0,0,1,.35.16.81.81,0,0,1,.25.27,1.76,1.76,0,0,1,.18.39l3.07,7.78h0l3.2-7.75a2.48,2.48,0,0,1,.2-.43,1.74,1.74,0,0,1,.24-.28,1.11,1.11,0,0,1,.29-.14,1.38,1.38,0,0,1,.37,0h.92a.61.61,0,0,1,.24,0,.49.49,0,0,1,.2.11,1,1,0,0,1,.13.2.85.85,0,0,1,0,.3Z"/><path class="cls-2" d="M62.85,49.72a3.18,3.18,0,0,1-.27,1.34,2.85,2.85,0,0,1-.78,1,3.24,3.24,0,0,1-1.16.62,4.73,4.73,0,0,1-1.44.21,5.24,5.24,0,0,1-1-.09,5.05,5.05,0,0,1-.82-.23,5.21,5.21,0,0,1-.61-.27,1.59,1.59,0,0,1-.34-.24.68.68,0,0,1-.14-.25,1.61,1.61,0,0,1,0-.42,2.63,2.63,0,0,1,0-.3.74.74,0,0,1,.05-.19s0-.09.09-.11a.2.2,0,0,1,.11,0,.71.71,0,0,1,.33.14,4.12,4.12,0,0,0,.54.31,5.15,5.15,0,0,0,.8.31,3.64,3.64,0,0,0,1.09.15,2.57,2.57,0,0,0,.85-.13,1.89,1.89,0,0,0,.66-.35,1.48,1.48,0,0,0,.43-.56,1.79,1.79,0,0,0,.15-.75,1.38,1.38,0,0,0-.21-.78,2,2,0,0,0-.55-.57,3.8,3.8,0,0,0-.77-.45l-.89-.42a7.56,7.56,0,0,1-.89-.47,3.53,3.53,0,0,1-.77-.6,3,3,0,0,1-.56-.82,3,3,0,0,1,0-2.32,2.49,2.49,0,0,1,.68-.89,2.86,2.86,0,0,1,1-.54,4.15,4.15,0,0,1,1.29-.19,4.37,4.37,0,0,1,.72.06,6.14,6.14,0,0,1,.68.17,4,4,0,0,1,.57.23,1.58,1.58,0,0,1,.33.21.44.44,0,0,1,.1.12.73.73,0,0,1,0,.12s0,.1,0,.17a1.93,1.93,0,0,1,0,.26c0,.1,0,.19,0,.26a.88.88,0,0,1,0,.2.35.35,0,0,1-.07.12.2.2,0,0,1-.11,0,.73.73,0,0,1-.28-.11l-.48-.27a5,5,0,0,0-.67-.26,2.86,2.86,0,0,0-.87-.12,2.37,2.37,0,0,0-.78.12,1.58,1.58,0,0,0-.54.32,1.18,1.18,0,0,0-.33.47,1.61,1.61,0,0,0-.1.58,1.42,1.42,0,0,0,.2.78,2.46,2.46,0,0,0,.55.57,5,5,0,0,0,.79.45l.9.42c.3.14.6.3.89.47a3.92,3.92,0,0,1,.79.6,2.59,2.59,0,0,1,.76,1.92Z"/><polygon class="cls-3" points="42.58 23.59 42.58 12.07 42.16 12.07 35.68 12.07 35.68 23.59 42.16 23.59 42.58 23.59"/><path class="cls-2" d="M28.08,9.63h-9a.57.57,0,0,0-.57.57v5.62H9.3a22.41,22.41,0,0,0-3,4H18.55v5.62a.57.57,0,0,0,.57.57h9a.58.58,0,0,0,.57-.57V10.2A.58.58,0,0,0,28.08,9.63Z"/><rect class="cls-3" x="35.68" y="23.59" width="6.49" height="0.01"/><path class="cls-2" d="M35.11,24.73h7v.74a.58.58,0,0,0,.57.57h4.71a.41.41,0,0,0,.16,0l9.4-2.8a.56.56,0,0,0,.4-.54V19.85h8.33a22,22,0,0,0-2.59-4H57.4V13a.56.56,0,0,0-.4-.54l-9.4-2.8a.41.41,0,0,0-.16,0H42.73a.58.58,0,0,0-.57.57v.74h-7a.57.57,0,0,0-.57.56V24.16A.57.57,0,0,0,35.11,24.73Zm.57-1.14V12.07h6.9V23.59h-6.9Z"/></g></g></svg>