<svg xmlns="http://www.w3.org/2000/svg" viewBox="0 0 72 72"><defs><style>.cls-1{fill:#46c795;}.cls-2{fill:#fff;}.cls-3{fill:#333;}</style></defs><g id="Layer_2" data-name="Layer 2"><g id="Layer_5" data-name="Layer 5"><path class="cls-1" d="M41.74.48A36,36,0,1,0,71.52,41.74,35.95,35.95,0,0,0,41.74.48Z"/><path id="Path" class="cls-2" d="M47,56.88l-6.46-3.73A1.91,1.91,0,0,0,37.67,55v7.29a1.9,1.9,0,0,0,3.79,0V58.08l3.61,2.09A1.9,1.9,0,1,0,47,56.88"/><path id="Path2" class="cls-2" d="M30.9,48.89A1.84,1.84,0,0,0,30,47.25l-6.46-3.73a1.88,1.88,0,0,0-.93-.25,1.85,1.85,0,0,0-.93,3.46l3.73,2.15L21.66,51a1.83,1.83,0,0,0-.86,1.12,1.85,1.85,0,0,0,2.72,2.09L30,50.51a1.84,1.84,0,0,0,.92-1.62"/><path id="Path3" class="cls-2" d="M25,40.87l6.46,3.73a1.9,1.9,0,0,0,2.28-.28,1.87,1.87,0,0,0,.61-1.39V35.45a1.89,1.89,0,0,0-3.78,0v4.26l-3.67-2.12A1.9,1.9,0,1,0,25,40.87"/><path id="Combined-Shape" class="cls-2" d="M39.51,49.19a.72.72,0,0,1-.18.44l-2.56,2.56a.72.72,0,0,1-.45.19h-.65a.7.7,0,0,1-.45-.19l-2.56-2.56a.72.72,0,0,1-.18-.44v-.65a.72.72,0,0,1,.18-.45l2.56-2.56a.76.76,0,0,1,.45-.19h.65a.79.79,0,0,1,.45.19l2.56,2.56a.72.72,0,0,1,.18.45Zm-2.28-.31v0a.58.58,0,0,0-.14-.33l-.76-.75a.49.49,0,0,0-.32-.14h0a.52.52,0,0,0-.33.14l-.75.75a.5.5,0,0,0-.14.33v0a.49.49,0,0,0,.14.32l.75.76a.57.57,0,0,0,.33.13h0a.54.54,0,0,0,.32-.13l.76-.76A.55.55,0,0,0,37.23,48.88Z"/><path id="Path4" class="cls-2" d="M40.51,44.6,47,40.87a1.9,1.9,0,1,0-1.9-3.28l-3.61,2.09V35.45a1.9,1.9,0,0,0-3.79,0v7.33a1.91,1.91,0,0,0,.25,1.13,1.88,1.88,0,0,0,2.59.69"/><path id="Path5" class="cls-2" d="M32.74,52.93a1.93,1.93,0,0,0-1.3.22L25,56.88a1.9,1.9,0,0,0,1.9,3.29l3.67-2.12v4.22a1.89,1.89,0,1,0,3.78,0V54.8a1.89,1.89,0,0,0-1.59-1.87"/><path id="Path6" class="cls-2" d="M51,44.17a1.89,1.89,0,0,0-2.59-.69L42,47.21a1.9,1.9,0,0,0-1,1.68,1.87,1.87,0,0,0,1,1.66l6.46,3.73A1.9,1.9,0,0,0,50.31,51l-3.65-2.11,3.65-2.11a1.9,1.9,0,0,0,.7-2.6"/><path class="cls-2" d="M28.49,10.08H20a.54.54,0,0,0-.54.54v5.31H9.2a33.5,33.5,0,0,0-2.34,3.81H19.47v5.31a.54.54,0,0,0,.54.54h8.48a.54.54,0,0,0,.53-.54V10.62A.54.54,0,0,0,28.49,10.08Z"/><rect class="cls-3" x="35.67" y="23.28" width="6.13" height="0.01"/><path class="cls-2" d="M56.22,15.93V13.26a.53.53,0,0,0-.39-.51L47,10.1l-.15,0H42.34a.54.54,0,0,0-.54.54v.69H35.14a.54.54,0,0,0-.54.54v12a.54.54,0,0,0,.54.54H41.8v.69a.54.54,0,0,0,.54.54H46.8l.15,0,8.88-2.65a.54.54,0,0,0,.39-.51V19.74h9a31.63,31.63,0,0,0-2.34-3.81Zm-14,7.35H35.67V12.38H42.2Z"/></g></g></svg>