<svg xmlns="http://www.w3.org/2000/svg" xmlns:xlink="http://www.w3.org/1999/xlink" viewBox="0 0 72 72"><defs><style>.cls-1{fill:#46c795;}.cls-2{fill:url(#linear-gradient);}.cls-3{fill:#bdbdbd;}.cls-4,.cls-5{fill:#fff;}.cls-4{isolation:isolate;opacity:0.6;}.cls-6{fill:#fde800;}.cls-7{fill:#767676;stroke:#767676;stroke-miterlimit:10;stroke-width:0.3px;}.cls-8{fill:none;}.cls-9{fill:#333;}</style><linearGradient id="linear-gradient" x1="23.42" y1="3245.36" x2="40.32" y2="3245.36" gradientTransform="matrix(1, 0, 0, -1, 0, 3289.56)" gradientUnits="userSpaceOnUse"><stop offset="0" stop-color="#f6eb16" stop-opacity="0.7"/><stop offset="0.13" stop-color="#faed26" stop-opacity="0.66"/><stop offset="0.31" stop-color="#fcee15" stop-opacity="0.63"/><stop offset="0.55" stop-color="#fde900" stop-opacity="0.61"/><stop offset="1" stop-color="#fde800" stop-opacity="0.6"/></linearGradient></defs><g id="Layer_2" data-name="Layer 2"><g id="Layer_5" data-name="Layer 5"><path class="cls-1" d="M41.74.48A36,36,0,1,0,71.52,41.74,35.95,35.95,0,0,0,41.74.48Z"/><path class="cls-2" d="M31.65,47l8.7-5.5Z"/><polygon class="cls-3" points="44.45 37.16 27.55 31.86 27.55 41.86 27.55 51.86 27.55 51.86 27.55 62.06 44.45 56.86 44.45 52.56 35.55 46.96 44.45 41.46 44.45 37.16"/><polygon class="cls-4" points="27.55 53.76 27.55 55.56 44.45 57.06 44.45 52.26 27.55 53.76"/><path class="cls-5" d="M35.05,54.66a1.9,1.9,0,0,0,1.9,1.9h0v-3.9A2.06,2.06,0,0,0,35.05,54.66Z"/><polygon class="cls-6" points="27.55 31.86 44.45 37.16 44.45 37.16 27.55 31.86"/><polygon class="cls-4" points="27.5 38.46 27.5 40.36 44.5 41.86 44.5 36.96 27.5 38.46"/><path class="cls-5" d="M35.05,39.36a1.9,1.9,0,0,0,1.9,1.9h0v-3.9A2.14,2.14,0,0,0,35.05,39.36Z"/><path class="cls-7" d="M47.35,51.36a8.75,8.75,0,0,0-1-2.2,9.12,9.12,0,0,0-1.7-1.7,7.07,7.07,0,0,0-2.5-1.1,7.67,7.67,0,0,0,3.5-2.8,7.21,7.21,0,0,0,1.2-4,9.24,9.24,0,0,0-.8-4,7.29,7.29,0,0,0-2.2-2.7,9.71,9.71,0,0,0-3.6-1.6,18.8,18.8,0,0,0-4.7-.5H24.35v1.3l16.5,5.2c.2.1.3.2.3.4v3.7a.52.52,0,0,1-.2.4l-8.5,5.4,8.5,5.4a.52.52,0,0,1,.2.4v3.7c0,.2-.1.4-.3.4l-16.5,5.2v1.3h12a18.35,18.35,0,0,0,4.7-.6,12.16,12.16,0,0,0,3.6-1.8,7.33,7.33,0,0,0,2.2-3,11.5,11.5,0,0,0,.8-4.1A10.59,10.59,0,0,0,47.35,51.36Z"/><path class="cls-5" d="M28.49,10.08H20a.54.54,0,0,0-.54.54v5.31H9.2a33.5,33.5,0,0,0-2.34,3.81H19.47v5.31a.54.54,0,0,0,.54.54h8.48a.54.54,0,0,0,.53-.54V10.62A.54.54,0,0,0,28.49,10.08Z"/><polygon class="cls-8" points="35.67 12.38 35.67 23.28 41.8 23.28 42.2 23.28 42.2 12.38 41.8 12.38 35.67 12.38"/><rect class="cls-9" x="35.67" y="23.28" width="6.13" height="0.01"/><path class="cls-5" d="M56.22,15.93V13.26a.53.53,0,0,0-.39-.51L47,10.1l-.15,0H42.34a.54.54,0,0,0-.54.54v.69H35.14a.54.54,0,0,0-.54.54v12a.54.54,0,0,0,.54.54H41.8v.69a.54.54,0,0,0,.54.54H46.8l.15,0,8.88-2.65a.54.54,0,0,0,.39-.51V19.74h9a31.63,31.63,0,0,0-2.34-3.81Zm-14,7.35H35.67V12.38H42.2Z"/></g></g></svg>