<svg xmlns="http://www.w3.org/2000/svg" viewBox="0 0 72 72"><defs><style>.cls-1{fill:#46c795;}.cls-2{fill:#fff;}.cls-3{fill:#333;}</style></defs><g id="Layer_2" data-name="Layer 2"><g id="Layer_5" data-name="Layer 5"><path class="cls-1" d="M41.74.48A36,36,0,1,0,71.52,41.74,35.95,35.95,0,0,0,41.74.48Z"/><path class="cls-2" d="M53.63,42.14a.49.49,0,0,0-.2-.11.61.61,0,0,0-.24,0h-.92a1.38,1.38,0,0,0-.37,0,.84.84,0,0,0-.53.42,2.48,2.48,0,0,0-.2.43L48,50.64h0l-3.07-7.78a1.76,1.76,0,0,0-.18-.39.81.81,0,0,0-.25-.27,1,1,0,0,0-.35-.16,2.28,2.28,0,0,0-.48,0h-.87a.68.68,0,0,0-.42.15.61.61,0,0,0-.18.5v9.88a.2.2,0,0,0,0,.11.24.24,0,0,0,.11.08.9.9,0,0,0,.22,0l.34,0,.35,0a.9.9,0,0,0,.22,0,.23.23,0,0,0,.12-.08.15.15,0,0,0,0-.11V43.16h0l3.62,9.4.07.09a.32.32,0,0,0,.13.07.88.88,0,0,0,.2,0l.3,0h.29l.21,0,.13-.07a.36.36,0,0,0,.07-.1l3.78-9.4h0v9.36a.2.2,0,0,0,0,.11.36.36,0,0,0,.12.08.9.9,0,0,0,.22,0l.34,0,.35,0,.21,0a.23.23,0,0,0,.12-.08.15.15,0,0,0,0-.11V42.64a.85.85,0,0,0-.05-.3A1,1,0,0,0,53.63,42.14Z"/><path class="cls-2" d="M61.66,47.8a3.85,3.85,0,0,0-.78-.6,9.59,9.59,0,0,0-.9-.47l-.89-.42a4.54,4.54,0,0,1-.79-.45,2.27,2.27,0,0,1-.55-.57,1.42,1.42,0,0,1-.21-.78,1.62,1.62,0,0,1,.11-.58,1.27,1.27,0,0,1,.32-.47,1.73,1.73,0,0,1,.55-.32A2.28,2.28,0,0,1,59.3,43a3,3,0,0,1,.87.12,5,5,0,0,1,.67.26l.48.27a.73.73,0,0,0,.28.11.2.2,0,0,0,.11,0,.35.35,0,0,0,.07-.12.94.94,0,0,0,0-.2,1.84,1.84,0,0,0,0-.26c0-.11,0-.19,0-.26s0-.12,0-.17a.34.34,0,0,0,0-.12.44.44,0,0,0-.1-.12,1.92,1.92,0,0,0-.33-.21,5.19,5.19,0,0,0-.57-.23,6.14,6.14,0,0,0-.68-.17,4.37,4.37,0,0,0-.72-.06,4.26,4.26,0,0,0-1.3.19,2.89,2.89,0,0,0-1,.54,2.49,2.49,0,0,0-.68.89,3,3,0,0,0,0,2.32,3,3,0,0,0,.55.82,3.85,3.85,0,0,0,.78.6,7.43,7.43,0,0,0,.88.47l.9.42a3.8,3.8,0,0,1,.77.45,2,2,0,0,1,.55.57,1.38,1.38,0,0,1,.21.78,1.79,1.79,0,0,1-.15.75,1.48,1.48,0,0,1-.43.56,2,2,0,0,1-.66.35,2.57,2.57,0,0,1-.85.13,3.64,3.64,0,0,1-1.09-.15,4.78,4.78,0,0,1-.8-.31,4.12,4.12,0,0,1-.54-.31.71.71,0,0,0-.33-.14l-.12,0a.24.24,0,0,0-.08.11.74.74,0,0,0,0,.19,2.63,2.63,0,0,0,0,.3,1.61,1.61,0,0,0,0,.42.68.68,0,0,0,.14.25,1.59,1.59,0,0,0,.34.24,4.56,4.56,0,0,0,.61.27,5.05,5.05,0,0,0,.82.23,5.24,5.24,0,0,0,1,.09,4.82,4.82,0,0,0,1.44-.21,3.24,3.24,0,0,0,1.16-.62,2.72,2.72,0,0,0,.77-1,3,3,0,0,0,.28-1.34,2.68,2.68,0,0,0-.21-1.11A2.73,2.73,0,0,0,61.66,47.8Z"/><path class="cls-2" d="M39.73,51.68a.24.24,0,0,0-.1-.1.21.21,0,0,0-.12,0H35.26V47.7h3.6l.12,0a.26.26,0,0,0,.09-.09.78.78,0,0,0,0-.18,1.84,1.84,0,0,0,0-.26,2.13,2.13,0,0,0,0-.27.56.56,0,0,0,0-.18.33.33,0,0,0-.09-.11l-.12,0h-3.6V43.18h4.2a.19.19,0,0,0,.12,0,.21.21,0,0,0,.08-.1.76.76,0,0,0,.06-.18,2,2,0,0,0,0-.26,1.91,1.91,0,0,0,0-.28.71.71,0,0,0-.06-.19.31.31,0,0,0-.08-.11.27.27,0,0,0-.12,0h-5.1a.55.55,0,0,0-.36.13.5.5,0,0,0-.17.45v9.58a.5.5,0,0,0,.17.45.55.55,0,0,0,.36.13h5.15a.21.21,0,0,0,.12,0,.27.27,0,0,0,.1-.11.47.47,0,0,0,.06-.19,2,2,0,0,0,0-.26,2.35,2.35,0,0,0,0-.28A.48.48,0,0,0,39.73,51.68Z"/><path class="cls-2" d="M24.61,37.87c-.33-.22-.6-.33-.88-.49l-.05,0a34.3,34.3,0,0,1-5.05,7,28.6,28.6,0,0,1-4.87,4.33,26.42,26.42,0,0,1-3.07,1.86c-.11.06-.11.17-.06.28.33.54.66,1.09,1,1.59.05.11.16.16.22.27A39.18,39.18,0,0,0,24.61,37.87Z"/><path class="cls-2" d="M23.51,37.38a9,9,0,0,0-2.9-.77,4.46,4.46,0,0,1-.82,0h-.88c-.33,0-.71,0-1,.11a9.33,9.33,0,0,0-8.23,9.1A10.61,10.61,0,0,0,9.75,48a3.41,3.41,0,0,0,.17.93,27.34,27.34,0,0,0,7.73-4.77A31.47,31.47,0,0,0,23.51,37.38Z"/><path class="cls-2" d="M26.8,39.79a9.82,9.82,0,0,0-2-1.75,44.86,44.86,0,0,1-11.3,16.23l1.32.65A9,9,0,0,0,18,55.8a3.09,3.09,0,0,1,.77.06h.88a2.84,2.84,0,0,0,.71-.06,9.21,9.21,0,0,0,8.33-7.4,7.59,7.59,0,0,0,.17-2.91A9.6,9.6,0,0,0,26.8,39.79Z"/><path class="cls-2" d="M28.49,10.08H20a.54.54,0,0,0-.54.54v5.31H9.2a33.5,33.5,0,0,0-2.34,3.81H19.47v5.31a.54.54,0,0,0,.54.54h8.48a.54.54,0,0,0,.53-.54V10.62A.54.54,0,0,0,28.49,10.08Z"/><rect class="cls-3" x="35.67" y="23.28" width="6.13" height="0.01"/><path class="cls-2" d="M56.22,15.93V13.26a.53.53,0,0,0-.39-.51L47,10.1l-.15,0H42.34a.54.54,0,0,0-.54.54v.69H35.14a.54.54,0,0,0-.54.54v12a.54.54,0,0,0,.54.54H41.8v.69a.54.54,0,0,0,.54.54H46.8l.15,0,8.88-2.65a.54.54,0,0,0,.39-.51V19.74h9a31.63,31.63,0,0,0-2.34-3.81Zm-14,7.35H35.67V12.38H42.2Z"/></g></g></svg>