<svg xmlns="http://www.w3.org/2000/svg" viewBox="0 0 72 72"><defs><style>.cls-1{fill:#46c795;}.cls-2{fill:#fff;}.cls-3{fill:none;}</style></defs><g id="Layer_2" data-name="Layer 2"><g id="Layer_5" data-name="Layer 5"><path class="cls-1" d="M41.74.48A36,36,0,1,0,71.52,41.74,35.95,35.95,0,0,0,41.74.48Z"/><path class="cls-2" d="M47.37,49.07a3.48,3.48,0,0,1-.13.93,3.2,3.2,0,0,1-.36.77,3.13,3.13,0,0,1-.56.59,3.22,3.22,0,0,1-.74.44,5,5,0,0,1-.88.26,5.81,5.81,0,0,1-1.08.09h-2.8a.61.61,0,0,1-.36-.13.53.53,0,0,1-.17-.46V42a.53.53,0,0,1,.17-.46.61.61,0,0,1,.36-.13h2.44a5.25,5.25,0,0,1,1.57.19,2.79,2.79,0,0,1,1,.53,2.28,2.28,0,0,1,.62.85,3,3,0,0,1,.21,1.15,2.92,2.92,0,0,1-.1.73,2.28,2.28,0,0,1-.27.64,2,2,0,0,1-.44.53,2.58,2.58,0,0,1-.62.38,3,3,0,0,1,.82.3,2.77,2.77,0,0,1,.67.56,2.72,2.72,0,0,1,.45.8A3,3,0,0,1,47.37,49.07Zm-2.15-4.81a2.25,2.25,0,0,0-.11-.71,1.28,1.28,0,0,0-.34-.53,1.57,1.57,0,0,0-.61-.34,3.62,3.62,0,0,0-1-.11H41.71V46h1.62a2.21,2.21,0,0,0,.89-.14,1.48,1.48,0,0,0,.89-1A2.25,2.25,0,0,0,45.22,44.26Zm.64,4.89a2.26,2.26,0,0,0-.15-.85,1.52,1.52,0,0,0-.45-.61,2,2,0,0,0-.73-.38,4,4,0,0,0-1.12-.13h-1.7V51h2.07a2.72,2.72,0,0,0,.85-.12,2,2,0,0,0,.64-.34,1.75,1.75,0,0,0,.44-.57A2,2,0,0,0,45.86,49.15Z"/><path class="cls-2" d="M55.87,42a2.13,2.13,0,0,1,0,.27.74.74,0,0,1-.05.19.24.24,0,0,1-.1.1.16.16,0,0,1-.12,0h-3v9.31a.27.27,0,0,1,0,.12.18.18,0,0,1-.12.07.9.9,0,0,1-.22.05,1.67,1.67,0,0,1-.34,0,1.72,1.72,0,0,1-.34,0,1,1,0,0,1-.23-.05.18.18,0,0,1-.11-.07.28.28,0,0,1,0-.12V42.62h-3a.19.19,0,0,1-.12,0,.21.21,0,0,1-.08-.1.71.71,0,0,1-.06-.19,2.13,2.13,0,0,1,0-.27,2.16,2.16,0,0,1,0-.28.61.61,0,0,1,.06-.19.2.2,0,0,1,.08-.11.19.19,0,0,1,.12,0h7.47a.16.16,0,0,1,.12,0,.22.22,0,0,1,.1.11.64.64,0,0,1,.05.19A2.16,2.16,0,0,1,55.87,42Z"/><path class="cls-2" d="M64,44.55A3.71,3.71,0,0,1,63.75,46,3.18,3.18,0,0,1,63,47.11a3.35,3.35,0,0,1-1.21.7,5.14,5.14,0,0,1-1.71.25H58.85v3.87a.28.28,0,0,1,0,.12.2.2,0,0,1-.12.07.81.81,0,0,1-.21.05,1.83,1.83,0,0,1-.35,0,1.67,1.67,0,0,1-.34,0,.9.9,0,0,1-.22-.05.18.18,0,0,1-.12-.07.27.27,0,0,1,0-.12V42a.58.58,0,0,1,.17-.47A.6.6,0,0,1,58,41.4h2.3c.23,0,.46,0,.67,0a5.5,5.5,0,0,1,.76.13,3,3,0,0,1,.88.35,2.72,2.72,0,0,1,.77.65,2.9,2.9,0,0,1,.49.88A3.59,3.59,0,0,1,64,44.55Zm-1.51.12a2.27,2.27,0,0,0-.24-1.1,1.78,1.78,0,0,0-.61-.66,2.14,2.14,0,0,0-.74-.27,4.93,4.93,0,0,0-.75-.06H58.85v4.31h1.28a3.08,3.08,0,0,0,1.08-.16,2.25,2.25,0,0,0,.72-.47,1.94,1.94,0,0,0,.44-.7A2.6,2.6,0,0,0,62.51,44.67Z"/><path class="cls-2" d="M26.54,43.86h-.61v2.21h.61c.8,0,1.45-.27,1.45-1.12S27.34,43.86,26.54,43.86Z"/><path class="cls-2" d="M9.83,39.35v13.8H23.92l13.79-13.8Zm17,8.61h-.89v2.43H21.75l-.29-1.06a4.61,4.61,0,0,1-1.43.22,4.47,4.47,0,0,1-1.46-.23l-.42,1.07H15.83l.1-.53-.1.08a3.75,3.75,0,0,1-2.37.75h-.25a5.88,5.88,0,0,1-3-.78l.85-1.68a3.83,3.83,0,0,0,2.27.65,1.24,1.24,0,0,0,.88-.28.6.6,0,0,0,.18-.43c0-.44-.61-.64-1.37-.88a6.43,6.43,0,0,1-1.87-.85,2.15,2.15,0,0,1-.94-1.92,2.3,2.3,0,0,1,.65-1.6,3.81,3.81,0,0,1,2.75-1h0a7.35,7.35,0,0,1,3.1.73l-1,1.66a4.61,4.61,0,0,0-2-.54c-.82,0-1.23.25-1.24.57s.78.73,1.52,1c1.12.36,2.54.83,2.76,2.21l2-5.41h2.38l2.4,6.48V42.11h2.76c2.62,0,3.85.89,3.85,2.93C30.23,46.87,29,48,26.82,48Z"/><path class="cls-2" d="M20,44.75l-.87,2.74a2.46,2.46,0,0,0,.88.16,2.58,2.58,0,0,0,.86-.15L20,44.75Z"/><polygon class="cls-3" points="35.68 12.07 35.68 23.59 42.16 23.59 42.58 23.59 42.58 12.07 42.16 12.07 35.68 12.07"/><path class="cls-2" d="M28.08,9.63h-9a.57.57,0,0,0-.57.57v5.62H9.3a22.41,22.41,0,0,0-3,4H18.55v5.62a.57.57,0,0,0,.57.57h9a.58.58,0,0,0,.57-.57V10.2A.58.58,0,0,0,28.08,9.63Z"/><rect class="cls-3" x="35.68" y="23.59" width="6.49" height="0.01"/><path class="cls-2" d="M57.4,15.82V13a.56.56,0,0,0-.4-.54l-9.4-2.8a.41.41,0,0,0-.16,0H42.73a.58.58,0,0,0-.57.57v.74h-7a.57.57,0,0,0-.57.56V24.16a.57.57,0,0,0,.57.57h7v.74a.58.58,0,0,0,.57.57h4.71a.41.41,0,0,0,.16,0l9.4-2.8a.56.56,0,0,0,.4-.54V19.85h8.33a22,22,0,0,0-2.59-4ZM42.58,23.59h-6.9V12.07h6.9Z"/></g></g></svg>