<svg xmlns="http://www.w3.org/2000/svg" viewBox="0 0 72 72"><defs><style>.cls-1{fill:#46c795;}.cls-2{fill:#fff;}</style></defs><g id="Layer_2" data-name="Layer 2"><g id="Layer_5" data-name="Layer 5"><path class="cls-1" d="M41.74.48A36,36,0,1,0,71.52,41.74,35.95,35.95,0,0,0,41.74.48Z"/><path class="cls-2" d="M24.12,26.58H12.62a.72.72,0,0,0-.72.73v7.2H2.35v5.17H11.9v7.21a.73.73,0,0,0,.72.73h11.5a.73.73,0,0,0,.73-.73V27.31A.73.73,0,0,0,24.12,26.58Z"/><path class="cls-2" d="M61.51,34.51V30.9a.73.73,0,0,0-.51-.7L49.17,26.61a.76.76,0,0,0-.21,0H42.91a.72.72,0,0,0-.72.73v1l-9.07.19a.72.72,0,0,0-.71.72v16a.73.73,0,0,0,.73.73h9v.94a.73.73,0,0,0,.72.73H49l.21,0L61,44a.74.74,0,0,0,.51-.7V39.68h7.58V34.51ZM33.87,29.92l8.32-.17V44.49H33.87Z"/></g></g></svg>