<svg xmlns="http://www.w3.org/2000/svg" viewBox="0 0 72 72"><defs><style>.cls-1{fill:#46c795;}.cls-2{fill:#fff;}</style></defs><g id="Layer_2" data-name="Layer 2"><g id="Layer_5" data-name="Layer 5"><circle class="cls-1" cx="36" cy="36" r="36"/><path class="cls-2" d="M41.16,6.32h0m-.13,0,1.45,7.61.16.85.82.29.27.09a14,14,0,0,1,1.42.54,14.61,14.61,0,0,1,1.35.71l.24.14.76.43.75-.45,6.66-3.94,5.37,6.11L56,24.61l-.53.72.39.82a21.65,21.65,0,0,1,1.39,3.67l.24.87.88.2,7.13,1.56,0,8.13L57.9,42l-.85.16-.28.81-.05.12c-.19.54-.37,1.06-.6,1.56s-.51,1-.8,1.54l0,.07-.41.75.43.74,3.93,6.66-6.11,5.36L47.23,55.5,46.5,55l-.81.39A21.75,21.75,0,0,1,42,56.75l-.86.25-.2.88L39.38,65l-8.13,0-1.47-7.62-.17-.84-.8-.29-.13,0c-.55-.19-1.06-.37-1.55-.59s-1-.49-1.47-.77l-.12-.07-.75-.41-.74.44-6.69,3.94L12,52.68l4.32-5.92.53-.72-.4-.81a22.08,22.08,0,0,1-1.39-3.68l-.24-.87-.88-.19L6.81,38.92l0-8.13,7.59-1.46.84-.16.29-.81,0-.08c.2-.57.39-1.1.62-1.62s.49-1,.78-1.49l0-.1.42-.75L17,23.58,13,16.92l6.11-5.36L25,15.87l.73.53.81-.39a22.08,22.08,0,0,1,3.68-1.39l.87-.25.19-.88L32.9,6.35l8.13,0m.13-1.5h0l-8.32,0h0a1.37,1.37,0,0,0-1.34,1.06l-1.6,7.26a23.89,23.89,0,0,0-3.93,1.49l-6-4.38a1.37,1.37,0,0,0-.79-.25,1.4,1.4,0,0,0-.93.35L12,15.87a1.39,1.39,0,0,0-.28,1.72l4,6.75c-.31.56-.62,1.11-.89,1.71s-.48,1.2-.69,1.81L6.39,29.34a1.37,1.37,0,0,0-1.1,1.34l0,8.33a1.38,1.38,0,0,0,1.07,1.35L13.62,42a23,23,0,0,0,1.48,3.93l-4.38,6a1.38,1.38,0,0,0,.1,1.72l5.49,6.26a1.38,1.38,0,0,0,1.71.28l6.79-4c.56.31,1.11.62,1.7.88s1.19.48,1.79.69l1.5,7.74a1.37,1.37,0,0,0,1.34,1.1l8.32,0h0a1.39,1.39,0,0,0,1.34-1.07l1.6-7.26a24.24,24.24,0,0,0,3.93-1.49l6,4.38a1.38,1.38,0,0,0,.8.25,1.34,1.34,0,0,0,.92-.35l6.26-5.49a1.38,1.38,0,0,0,.27-1.72l-4-6.75c.32-.57.63-1.13.9-1.73s.47-1.18.69-1.79L65.88,42A1.39,1.39,0,0,0,67,40.69l0-8.33A1.37,1.37,0,0,0,65.9,31l-7.24-1.59a23.89,23.89,0,0,0-1.49-3.93l4.38-6a1.37,1.37,0,0,0-.09-1.72L56,11.51a1.39,1.39,0,0,0-1-.46,1.42,1.42,0,0,0-.69.18l-6.77,4c-.55-.31-1.1-.64-1.71-.91A19.2,19.2,0,0,0,44,13.65L42.48,5.92a1.37,1.37,0,0,0-.84-1h0a1.36,1.36,0,0,0-.48-.09Z"/><path class="cls-2" d="M29.75,38.94c-.29-.59-.52-1-.69-1.3a9.38,9.38,0,0,0-.78-1.07,3.14,3.14,0,0,0,.95-1,2.75,2.75,0,0,0,.31-1.28,2.86,2.86,0,0,0-.67-1.92A2.32,2.32,0,0,0,27,31.57H24.41a.73.73,0,0,0-.59.21.8.8,0,0,0-.18.54.81.81,0,0,0,.18.55.73.73,0,0,0,.59.21h.18v5.87h-.18a.74.74,0,0,0-.59.21.9.9,0,0,0,0,1.08.73.73,0,0,0,.59.21h1.73a.73.73,0,0,0,.59-.21.9.9,0,0,0,0-1.08.73.73,0,0,0-.59-.21h-.41V37.05h1.13c.61.38,1.38,1.51,2.3,3.39h.66a.71.71,0,0,0,.58-.21.9.9,0,0,0-.08-1.17A.92.92,0,0,0,29.75,38.94Zm-2.24-3.59a2,2,0,0,1-.89.2h-.89V33.07H27a1.34,1.34,0,0,1,1,.36,1.06,1.06,0,0,1,.16,1.37A1.67,1.67,0,0,1,27.51,35.35Z"/><path class="cls-2" d="M36.28,37.12a.49.49,0,0,0-.41.23,1.42,1.42,0,0,0-.16.78v.81H32.79v-2.2h1a2.35,2.35,0,0,0,.08.76.51.51,0,0,0,1,0,1.58,1.58,0,0,0,.09-.66V35.13a1.4,1.4,0,0,0-.16-.78.48.48,0,0,0-.41-.23.54.54,0,0,0-.49.36,2.23,2.23,0,0,0-.08.75h-1V33.07h2.67v.78a1.36,1.36,0,0,0,.16.77.48.48,0,0,0,.41.23.51.51,0,0,0,.42-.23,1.49,1.49,0,0,0,.15-.77V31.57H31.47a.74.74,0,0,0-.59.21.85.85,0,0,0-.17.54.86.86,0,0,0,.17.55.74.74,0,0,0,.59.21h.18v5.87h-.18a.72.72,0,0,0-.58.21.8.8,0,0,0-.18.54.85.85,0,0,0,.17.54.74.74,0,0,0,.59.21h5.38V38.13a1.42,1.42,0,0,0-.16-.78A.48.48,0,0,0,36.28,37.12Z"/><path class="cls-2" d="M41.48,35.78a5.44,5.44,0,0,0-1.35-.5A6.16,6.16,0,0,1,39.07,35a1,1,0,0,1-.44-.41,1.06,1.06,0,0,1,.22-1.32,1.28,1.28,0,0,1,1-.38,1.39,1.39,0,0,1,.75.19,1.31,1.31,0,0,1,.49.47,1.81,1.81,0,0,1,.15.53,1,1,0,0,0,.19.5.48.48,0,0,0,.37.17.5.5,0,0,0,.41-.23,1.46,1.46,0,0,0,.15-.77V32.57a1.42,1.42,0,0,0-.15-.76.49.49,0,0,0-.41-.24.62.62,0,0,0-.45.29,1.94,1.94,0,0,0-.68-.39,2.43,2.43,0,0,0-.82-.13,2.25,2.25,0,0,0-1.79.81,3,3,0,0,0-.4,3.15,2.2,2.2,0,0,0,.76.91,4.59,4.59,0,0,0,1.41.55,5,5,0,0,1,1,.3,1.12,1.12,0,0,1,.49.4,1,1,0,0,1,.15.53.9.9,0,0,1-.31.7,1.88,1.88,0,0,1-2.16.23,1.67,1.67,0,0,1-.57-.46,1.19,1.19,0,0,1-.15-.44.94.94,0,0,0-.21-.46.44.44,0,0,0-.34-.14.48.48,0,0,0-.42.23,1.36,1.36,0,0,0-.16.77v1a1.32,1.32,0,0,0,.16.76.49.49,0,0,0,.42.24.45.45,0,0,0,.23-.07,1.07,1.07,0,0,0,.24-.3,3.28,3.28,0,0,0,.87.45,2.91,2.91,0,0,0,.92.15,2.59,2.59,0,0,0,2-.88,2.56,2.56,0,0,0,.6-1.78,2.8,2.8,0,0,0-.31-1.37A2,2,0,0,0,41.48,35.78Z"/><path class="cls-2" d="M47.14,38.94h-.77V33.07h1.25v1.42a1.36,1.36,0,0,0,.16.77.49.49,0,0,0,.41.23.51.51,0,0,0,.42-.23,1.46,1.46,0,0,0,.15-.77V31.57H42.84v2.93a1.45,1.45,0,0,0,.16.77.49.49,0,0,0,.41.23.51.51,0,0,0,.42-.23,1.45,1.45,0,0,0,.16-.77V33.07h1.23v5.87h-.76a.73.73,0,0,0-.59.21.94.94,0,0,0,0,1.08.73.73,0,0,0,.59.21h2.68a.71.71,0,0,0,.58-.21.9.9,0,0,0,0-1.08A.71.71,0,0,0,47.14,38.94Z"/><path class="cls-2" d="M52.85,35.46a.86.86,0,0,0-.45-.23,1.65,1.65,0,0,1-1-.61A2.23,2.23,0,0,1,51,33.27V28.11a3.61,3.61,0,0,0-.84-2.41A2,2,0,0,0,48.59,25a.57.57,0,0,0-.45.17.64.64,0,0,0-.17.45.68.68,0,0,0,.17.45,2.59,2.59,0,0,0,.51.16,1.51,1.51,0,0,1,1,.62A2,2,0,0,1,50,28.17v5.16a4.23,4.23,0,0,0,.28,1.51,3,3,0,0,0,.79,1A3.92,3.92,0,0,0,50.22,37,3.43,3.43,0,0,0,50,38.49v5.16A2,2,0,0,1,49.6,45a1.19,1.19,0,0,1-1,.61c-.28,0-.45.06-.51.17a.62.62,0,0,0,.45,1.07,2,2,0,0,0,1.68-.9A3.36,3.36,0,0,0,51,43.71V38.54a2,2,0,0,1,.39-1.34,1.46,1.46,0,0,1,1-.62.79.79,0,0,0,.45-.22,1,1,0,0,0,.12-.45C53,35.68,53,35.57,52.85,35.46Z"/><path class="cls-2" d="M23.63,45.5a1.56,1.56,0,0,1-1-.62,2,2,0,0,1-.39-1.34V38.38A4.28,4.28,0,0,0,22,36.86a3.47,3.47,0,0,0-.78-1,2.86,2.86,0,0,0,.84-1.18,3.57,3.57,0,0,0,.22-1.45V28.05a2,2,0,0,1,.39-1.34,1.26,1.26,0,0,1,1-.62c.28,0,.45-.05.5-.17a.6.6,0,0,0,.17-.45.6.6,0,0,0-.17-.44.6.6,0,0,0-.45-.17,2,2,0,0,0-1.68.89A3.42,3.42,0,0,0,21.27,28v5.16a2,2,0,0,1-.39,1.35,1.4,1.4,0,0,1-1,.61.83.83,0,0,0-.45.23,1.14,1.14,0,0,0-.11.45.6.6,0,0,0,.11.44c.06.12.23.17.45.23a1.49,1.49,0,0,1,1,.62,2.22,2.22,0,0,1,.39,1.34v5.16A3.59,3.59,0,0,0,22.11,46a2,2,0,0,0,1.57.73.55.55,0,0,0,.45-.16.62.62,0,0,0,.17-.45.6.6,0,0,0-.17-.45A2.57,2.57,0,0,0,23.63,45.5Z"/></g></g></svg>