<svg xmlns="http://www.w3.org/2000/svg" viewBox="0 0 72 72"><defs><style>.cls-1{fill:#46c795;}.cls-2{fill:#fff;}</style></defs><g id="Layer_2" data-name="Layer 2"><g id="Layer_5" data-name="Layer 5"><circle class="cls-1" cx="36" cy="36" r="36"/><path class="cls-2" d="M41.21,5.84h0m-.14,0,1.46,7.6.16.86.82.28.27.09c.49.17,1,.33,1.42.54s.89.45,1.34.71l.25.14.76.43.75-.44,6.66-4,5.36,6.11L56,24.12l-.54.73.4.81a22.08,22.08,0,0,1,1.39,3.68l.24.87.88.19L65.51,32l0,8.14-7.59,1.46-.84.16-.29.81,0,.11c-.19.55-.37,1.06-.6,1.56s-.51,1-.8,1.54l0,.07-.42.75.44.74L59.28,54l-6.11,5.36L47.28,55l-.73-.54-.81.4a22.08,22.08,0,0,1-3.68,1.39l-.87.24-.19.88-1.57,7.15-8.13,0-1.48-7.62-.16-.84-.81-.29-.13,0c-.54-.2-1-.38-1.54-.6s-1-.48-1.47-.76l-.13-.07-.75-.41-.73.43L17.41,58.3l-5.36-6.11,4.31-5.91.53-.73-.39-.81a22.08,22.08,0,0,1-1.39-3.68l-.24-.87L14,40,6.86,38.44l0-8.13,7.59-1.47.84-.16.29-.81,0-.07c.21-.57.4-1.11.63-1.62s.49-1,.77-1.49l.06-.1.42-.75L17,23.1l-3.93-6.66,6.11-5.36,5.89,4.3.73.54.81-.4a22.08,22.08,0,0,1,3.68-1.39l.87-.24.19-.88,1.57-7.15,8.13,0m.14-1.5h0l-8.32,0h0A1.39,1.39,0,0,0,31.5,5.43l-1.59,7.26A23,23,0,0,0,26,14.17L20,9.8a1.37,1.37,0,0,0-1.72.09L12,15.38a1.38,1.38,0,0,0-.28,1.72l4,6.76c-.31.56-.62,1.11-.89,1.7s-.48,1.2-.7,1.81l-7.7,1.48a1.38,1.38,0,0,0-1.1,1.35l0,8.32a1.38,1.38,0,0,0,1.06,1.36l7.25,1.59a22.88,22.88,0,0,0,1.48,3.92l-4.38,6a1.36,1.36,0,0,0,.1,1.72l5.49,6.25a1.33,1.33,0,0,0,1,.46,1.29,1.29,0,0,0,.68-.18l6.79-4c.56.31,1.11.62,1.7.89s1.19.47,1.79.69L29.84,65a1.39,1.39,0,0,0,1.35,1.1l8.32,0h0A1.39,1.39,0,0,0,40.87,65l1.59-7.26a23,23,0,0,0,3.93-1.48l6,4.37a1.37,1.37,0,0,0,1.72-.09L60.35,55a1.36,1.36,0,0,0,.28-1.71l-4-6.76c.32-.57.63-1.12.9-1.72s.47-1.19.69-1.79l7.7-1.48A1.38,1.38,0,0,0,67,40.2l0-8.32a1.38,1.38,0,0,0-1.07-1.36L58.7,28.93A23.2,23.2,0,0,0,57.22,25l4.38-6a1.36,1.36,0,0,0-.1-1.72L56,11a1.34,1.34,0,0,0-1-.46,1.38,1.38,0,0,0-.68.18l-6.77,4c-.56-.32-1.1-.64-1.71-.92s-1.21-.47-1.82-.68L42.53,5.44a1.4,1.4,0,0,0-.85-1,1.5,1.5,0,0,0-.47-.08Z"/><path id="path1948" class="cls-2" d="M36,18.49a22.3,22.3,0,0,0-3.81.32c-3.38.6-4,1.85-4,4.15v3h8v1h-11a5,5,0,0,0-5,4,15,15,0,0,0,0,8.11c.57,2.36,1.92,4,4.24,4h2.74V39.56a5.07,5.07,0,0,1,5-5h8a4,4,0,0,0,4-4.06V23a4.45,4.45,0,0,0-4-4.15A24.26,24.26,0,0,0,36,18.49Zm-4.32,2.44a1.52,1.52,0,1,1-1.49,1.53A1.51,1.51,0,0,1,31.67,20.93Z"/><path id="path1950" class="cls-2" d="M45.13,27v3.54a5.12,5.12,0,0,1-5,5.06h-8a4.07,4.07,0,0,0-4,4v7.6c0,2.16,1.88,3.43,4,4.05a13.31,13.31,0,0,0,8,0c2-.58,4-1.75,4-4.05v-3h-8v-1h12c2.32,0,3.18-1.61,4-4a13.78,13.78,0,0,0,0-8.11c-.58-2.3-1.67-4-4-4ZM40.65,46.24a1.52,1.52,0,1,1-1.5,1.52A1.51,1.51,0,0,1,40.65,46.24Z"/></g></g></svg>