<svg xmlns="http://www.w3.org/2000/svg" viewBox="0 0 72 72"><defs><style>.cls-1{fill:#46c795;}.cls-2{fill:#fff;}</style></defs><g id="Layer_2" data-name="Layer 2"><g id="Layer_5" data-name="Layer 5"><circle class="cls-1" cx="36" cy="36" r="36"/><path class="cls-2" d="M41.06,5.84h0m-.13,0,1.45,7.6.17.86.82.28.26.09a15.12,15.12,0,0,1,1.43.54c.46.21.89.45,1.35.71l.24.14.76.43.74-.44,6.67-4,5.36,6.11-4.32,5.91-.53.73.39.81a22.12,22.12,0,0,1,1.4,3.68l.24.87.88.19L65.37,32l0,8.14L57.8,41.56l-.84.16-.29.81,0,.11c-.19.54-.38,1.06-.6,1.56s-.51,1-.8,1.54l0,.07-.42.75.44.74L59.14,54,53,59.32,47.14,55l-.73-.54-.81.4a22.08,22.08,0,0,1-3.68,1.39l-.87.24-.19.88-1.58,7.15-8.13,0-1.47-7.62-.16-.84-.81-.29-.13,0c-.54-.2-1-.38-1.55-.6s-1-.48-1.47-.76l-.12-.07-.75-.42-.74.44L17.27,58.3,11.9,52.19l4.32-5.91.53-.73-.39-.81A22.08,22.08,0,0,1,15,41.06l-.25-.87L13.84,40,6.72,38.44l0-8.13,7.59-1.47.85-.16.28-.81,0-.07a17.07,17.07,0,0,1,.63-1.62c.22-.5.49-1,.77-1.49l.06-.1.41-.75-.43-.74L13,16.44l6.11-5.36L25,15.38l.73.54.81-.4a21.75,21.75,0,0,1,3.68-1.39l.86-.24.2-.88L32.8,5.86l8.13,0m.13-1.5h0l-8.32,0h0a1.38,1.38,0,0,0-1.34,1.07l-1.6,7.26a23,23,0,0,0-3.93,1.48l-6-4.37a1.37,1.37,0,0,0-1.72.09l-6.26,5.49a1.39,1.39,0,0,0-.27,1.72l4,6.76c-.3.56-.61,1.11-.88,1.7s-.48,1.2-.7,1.81L6.29,28.85a1.38,1.38,0,0,0-1.1,1.35l0,8.32a1.37,1.37,0,0,0,1.06,1.36l7.24,1.59A23.78,23.78,0,0,0,15,45.39l-4.39,6a1.39,1.39,0,0,0,.1,1.72l5.49,6.25a1.35,1.35,0,0,0,1,.46,1.32,1.32,0,0,0,.69-.18l6.79-4c.56.31,1.11.62,1.7.89s1.19.47,1.79.69L29.7,65a1.37,1.37,0,0,0,1.35,1.1l8.32,0h0A1.37,1.37,0,0,0,40.72,65l1.6-7.26a23,23,0,0,0,3.93-1.48l6,4.37a1.39,1.39,0,0,0,.8.26,1.44,1.44,0,0,0,.93-.35L60.21,55a1.37,1.37,0,0,0,.28-1.71l-4-6.76c.31-.57.62-1.12.89-1.72s.48-1.19.69-1.79l7.71-1.48a1.38,1.38,0,0,0,1.1-1.35l0-8.32a1.39,1.39,0,0,0-1.07-1.36l-7.24-1.59A23.24,23.24,0,0,0,57.07,25l4.39-6a1.39,1.39,0,0,0-.1-1.72L55.87,11a1.35,1.35,0,0,0-1-.46,1.45,1.45,0,0,0-.69.18l-6.76,4c-.56-.32-1.1-.64-1.71-.92s-1.22-.47-1.82-.68L42.38,5.44a1.38,1.38,0,0,0-.84-1,1.51,1.51,0,0,0-.48-.08Z"/><path class="cls-2" d="M51.12,28.05a3.37,3.37,0,0,0-.07-.82,1.22,1.22,0,0,0-.28-.54l-.05-.06h0a1.68,1.68,0,0,0-.53-.46l-13.26-7.4a1.88,1.88,0,0,0-.39-.16,1.73,1.73,0,0,0-.5-.07,1.84,1.84,0,0,0-.92.22L21.83,26.21A1.66,1.66,0,0,0,21,27.66v15a1.7,1.7,0,0,0,.87,1.47l13.34,7.49a1.79,1.79,0,0,0,1.74,0l13.34-7.49a1.68,1.68,0,0,0,.87-1.47v0C51.09,39.63,51.12,31.07,51.12,28.05ZM36,46.32a11.12,11.12,0,1,1,9.57-16.77L40.78,32.3a5.56,5.56,0,1,0,0,5.72L45.7,40.7A11.12,11.12,0,0,1,36,46.32ZM40,36v-1.6h1.54V32.86h1.6v1.55h1.54V36H43.09v1.54h-1.6V36Zm10.2,0H48.61v1.54H47V36H45.47v-1.6H47V32.86h1.6v1.55h1.54Z"/></g></g></svg>