<svg xmlns="http://www.w3.org/2000/svg" viewBox="0 0 72 72"><defs><style>.cls-1{fill:#46c795;}.cls-2{fill:#fff;}</style></defs><g id="Layer_2" data-name="Layer 2"><g id="Layer_5" data-name="Layer 5"><circle class="cls-1" cx="36" cy="36" r="36"/><path class="cls-2" d="M41,5.84h0m-.13,0,1.45,7.6.16.86.82.28.27.09a14.92,14.92,0,0,1,1.42.54c.46.21.89.45,1.35.71l.24.14.76.43.75-.44,6.66-4,5.37,6.11-4.32,5.91-.53.73.39.81A22.08,22.08,0,0,1,57,29.34l.24.87.88.19L65.27,32l0,8.14-7.6,1.46-.84.16-.29.81,0,.11c-.2.54-.38,1.06-.61,1.56s-.51,1-.8,1.54l0,.07-.41.75.43.74L59,54l-6.11,5.36L47,55l-.73-.54-.81.4a21.75,21.75,0,0,1-3.68,1.39l-.86.24-.2.88-1.57,7.15-8.13,0-1.47-7.62-.17-.84-.8-.29-.14,0c-.54-.2-1.05-.38-1.54-.6s-1-.48-1.47-.76l-.12-.07-.75-.42-.74.44L17.17,58.3l-5.36-6.11,4.31-5.91.54-.73-.4-.81a22.08,22.08,0,0,1-1.39-3.68l-.24-.87L13.75,40,6.62,38.44l0-8.13,7.59-1.47.84-.16.29-.81,0-.07c.2-.57.39-1.11.62-1.62s.49-1,.78-1.49l.05-.1.42-.75-.44-.74-3.93-6.66L19,11.08l5.89,4.3.73.54.81-.4a22.08,22.08,0,0,1,3.68-1.39l.87-.24.19-.88,1.58-7.15,8.13,0M41,4.34h0l-8.32,0h0a1.37,1.37,0,0,0-1.34,1.07l-1.6,7.26a23,23,0,0,0-3.93,1.48l-6-4.37A1.38,1.38,0,0,0,19,9.54a1.4,1.4,0,0,0-.93.35l-6.25,5.49a1.38,1.38,0,0,0-.28,1.72l4,6.76c-.31.56-.62,1.11-.89,1.7s-.48,1.2-.7,1.81L6.2,28.85A1.38,1.38,0,0,0,5.1,30.2l0,8.32a1.39,1.39,0,0,0,1.07,1.36l7.24,1.59a22.88,22.88,0,0,0,1.48,3.92l-4.38,6a1.37,1.37,0,0,0,.1,1.72l5.49,6.25a1.34,1.34,0,0,0,1,.46,1.29,1.29,0,0,0,.68-.18l6.79-4c.56.31,1.11.62,1.7.89s1.19.47,1.79.69L29.61,65A1.37,1.37,0,0,0,31,66.06l8.32,0h0A1.38,1.38,0,0,0,40.63,65l1.6-7.26a22.88,22.88,0,0,0,3.92-1.48l6,4.37a1.37,1.37,0,0,0,1.72-.09L60.11,55a1.36,1.36,0,0,0,.28-1.71l-4-6.76c.32-.57.63-1.12.9-1.72s.47-1.19.69-1.79l7.7-1.48A1.4,1.4,0,0,0,66.8,40.2l0-8.32a1.38,1.38,0,0,0-1.06-1.36l-7.24-1.59A24.13,24.13,0,0,0,57,25l4.38-6a1.37,1.37,0,0,0-.09-1.72L55.78,11a1.35,1.35,0,0,0-1-.46,1.39,1.39,0,0,0-.69.18l-6.77,4c-.56-.32-1.1-.64-1.71-.92s-1.21-.47-1.82-.68L42.29,5.44a1.4,1.4,0,0,0-.84-1A1.61,1.61,0,0,0,41,4.34Z"/><path class="cls-2" d="M36,51.88a2.54,2.54,0,0,1-1.28-.35l-4.08-2.41c-.61-.34-.31-.46-.11-.53a8.34,8.34,0,0,0,1.85-.85.3.3,0,0,1,.3,0l3.13,1.86a.42.42,0,0,0,.38,0l12.23-7.06a.39.39,0,0,0,.18-.33V28.13a.39.39,0,0,0-.18-.33l-12.22-7a.37.37,0,0,0-.38,0L23.55,27.8a.37.37,0,0,0-.19.33V42.24a.36.36,0,0,0,.19.32L26.9,44.5c1.81.91,2.92-.16,2.92-1.24V29.34a.36.36,0,0,1,.36-.36h1.55a.36.36,0,0,1,.35.36V43.26c0,2.43-1.32,3.82-3.62,3.82a5.28,5.28,0,0,1-2.82-.76l-3.21-1.85a2.59,2.59,0,0,1-1.28-2.23V28.13a2.58,2.58,0,0,1,1.28-2.23l12.24-7.06a2.72,2.72,0,0,1,2.57,0l12.22,7.07a2.56,2.56,0,0,1,1.29,2.22V42.24a2.6,2.6,0,0,1-1.29,2.23L37.24,51.53a2.62,2.62,0,0,1-1.29.34"/><path class="cls-2" d="M39.73,42.16c-5.35,0-6.47-2.46-6.47-4.52a.35.35,0,0,1,.35-.35h1.58a.35.35,0,0,1,.35.3c.24,1.61,1,2.42,4.19,2.42,2.57,0,3.67-.58,3.67-1.95,0-.79-.31-1.37-4.32-1.76-3.35-.33-5.41-1.07-5.41-3.75,0-2.46,2.08-3.93,5.56-3.93,3.92,0,5.86,1.36,6.1,4.27a.39.39,0,0,1-.09.28.38.38,0,0,1-.26.11H43.39a.35.35,0,0,1-.34-.27c-.39-1.7-1.31-2.24-3.82-2.24-2.82,0-3.14,1-3.14,1.71,0,.9.38,1.16,4.18,1.66s5.54,1.2,5.54,3.84-2.22,4.19-6.1,4.19"/></g></g></svg>