<svg xmlns="http://www.w3.org/2000/svg" viewBox="0 0 72 72"><defs><style>.cls-1{fill:#46c795;}.cls-2{fill:#fff;}.cls-3{fill:none;}.cls-4{fill:#333;}</style></defs><g id="Layer_2" data-name="Layer 2"><g id="Layer_5" data-name="Layer 5"><path class="cls-1" d="M41.74.48A36,36,0,1,0,71.52,41.74,35.95,35.95,0,0,0,41.74.48Z"/><path class="cls-2" d="M44.27,49.94l-.06-.06a4.33,4.33,0,0,0-3.34-.43,4.67,4.67,0,0,0-2.13,1.34l-2.06-1.22A6,6,0,0,0,37,47.51a4.07,4.07,0,0,0-.36-1.82l2.06-1.22a4.27,4.27,0,0,0,5.16,1l.31-.18a4.61,4.61,0,0,0,2.06-2.73,4.5,4.5,0,0,0-.43-3.4,4.34,4.34,0,0,0-2.67-2.12,4.25,4.25,0,0,0-3.33.42h-.07a4.63,4.63,0,0,0-2.06,2.73,4.13,4.13,0,0,0,.06,2.55L35.71,44c-.12-.12-.25-.31-.37-.43a5.57,5.57,0,0,0-3.09-1.64V39.5a4.35,4.35,0,0,0,2.18-1.22,4.53,4.53,0,0,0,0-6.31,4.4,4.4,0,0,0-3.15-1.34A4.55,4.55,0,0,0,28.12,32a4.55,4.55,0,0,0,0,6.31,4.18,4.18,0,0,0,2.19,1.22v2.42a5.75,5.75,0,0,0-4.74,5.71,5.76,5.76,0,0,0,1.64,4.07,5.56,5.56,0,0,0,3.1,1.64v2.42A4.42,4.42,0,0,0,28.12,57a4.55,4.55,0,0,0,0,6.31,4.41,4.41,0,0,0,3.16,1.34,4.55,4.55,0,0,0,3.15-1.34,4.53,4.53,0,0,0,0-6.31,4.11,4.11,0,0,0-2.18-1.22V53.34a6,6,0,0,0,3.09-1.64c.12-.13.25-.31.37-.43l2.06,1.22A4.57,4.57,0,0,0,37.71,55a4.36,4.36,0,0,0,5.4,3.16,4.46,4.46,0,0,0,2.67-2.06l.06-.06a4.48,4.48,0,0,0,.43-3.4A4.32,4.32,0,0,0,44.27,49.94ZM40,40.77a2,2,0,0,1,1-1.27,2.36,2.36,0,0,1,1.58-.19,2.43,2.43,0,0,1,1.21,1A2.39,2.39,0,0,1,44,41.86a2,2,0,0,1-.91,1.28,2.42,2.42,0,0,1-1.58.18,2.11,2.11,0,0,1-1.21-1A2.17,2.17,0,0,1,40,40.77ZM29.94,36.52a2,2,0,0,1-.61-1.46A2.08,2.08,0,0,1,31.4,33a2.08,2.08,0,0,1,1.45.61,2,2,0,0,1,.61,1.45,2.09,2.09,0,0,1-.61,1.46,2.13,2.13,0,0,1-1.45.61A2,2,0,0,1,29.94,36.52Zm2.91,22A2,2,0,0,1,33.46,60a2.08,2.08,0,0,1-2.06,2.07,2,2,0,0,1-1.46-.61A2.15,2.15,0,0,1,29.33,60a2.13,2.13,0,0,1,.61-1.45A2,2,0,0,1,31.4,58,2.08,2.08,0,0,1,32.85,58.56Zm.67-8.93a2.94,2.94,0,0,1-2.12.91,3,3,0,0,1-2.13-.91,2.93,2.93,0,0,1-.85-2.12,3,3,0,0,1,.85-2.13,3,3,0,0,1,2.13-.91,3.21,3.21,0,0,1,2.12.91,2.93,2.93,0,0,1,.85,2.13A3,3,0,0,1,33.52,49.63ZM43.9,54.79l-.06.06a2.18,2.18,0,0,1-1.27,1A1.76,1.76,0,0,1,41,55.64a1.78,1.78,0,0,1-.85-1.27,1.85,1.85,0,0,1,.18-1.58,2.17,2.17,0,0,1,1.28-1,2.22,2.22,0,0,1,1.51.18,2,2,0,0,1,1,1.27A2.13,2.13,0,0,1,43.9,54.79Z"/><path class="cls-2" d="M28.49,10.08H20a.54.54,0,0,0-.54.54v5.31H9.2a33.5,33.5,0,0,0-2.34,3.81H19.47v5.31a.54.54,0,0,0,.54.54h8.48a.54.54,0,0,0,.53-.54V10.62A.54.54,0,0,0,28.49,10.08Z"/><polygon class="cls-3" points="35.67 12.38 35.67 23.28 41.8 23.28 42.2 23.28 42.2 12.38 41.8 12.38 35.67 12.38"/><rect class="cls-4" x="35.67" y="23.28" width="6.13" height="0.01"/><path class="cls-2" d="M56.22,15.93V13.26a.53.53,0,0,0-.39-.51L47,10.1l-.15,0H42.34a.54.54,0,0,0-.54.54v.69H35.14a.54.54,0,0,0-.54.54v12a.54.54,0,0,0,.54.54H41.8v.69a.54.54,0,0,0,.54.54H46.8l.15,0,8.88-2.65a.54.54,0,0,0,.39-.51V19.74h9a31.63,31.63,0,0,0-2.34-3.81Zm-14,7.35H35.67V12.38H42.2Z"/></g></g></svg>