<svg xmlns="http://www.w3.org/2000/svg" viewBox="0 0 72 72"><defs><style>.cls-1{fill:#46c795;}.cls-2{fill:#fff;}</style></defs><g id="Layer_2" data-name="Layer 2"><g id="Layer_5" data-name="Layer 5"><circle class="cls-1" cx="36" cy="36" r="36"/><path class="cls-2" d="M41,6.32h0m-.14,0,1.46,7.61.16.85.82.29.27.09c.49.17,1,.33,1.42.54a13.3,13.3,0,0,1,1.34.71l.25.14.76.43.75-.45,6.66-3.94,5.36,6.11-4.31,5.91-.54.72.4.82a21.65,21.65,0,0,1,1.39,3.67l.24.87.88.2,7.13,1.56,0,8.13L57.75,42l-.84.16-.29.81,0,.12c-.19.54-.38,1.06-.6,1.56s-.51,1-.8,1.54l0,.07-.42.75.44.74,3.93,6.66L53,59.81,47.09,55.5,46.36,55l-.81.39a22.08,22.08,0,0,1-3.68,1.39L41,57l-.19.88L39.24,65l-8.14,0-1.47-7.62-.16-.84-.81-.29-.13,0c-.54-.19-1.05-.37-1.54-.59s-1-.49-1.47-.77l-.13-.07-.75-.41-.73.44-6.69,3.94-5.36-6.11,4.31-5.92L16.7,46l-.39-.81a22.08,22.08,0,0,1-1.39-3.68l-.24-.87-.88-.19L6.67,38.92l0-8.13,7.6-1.46.84-.16.29-.81,0-.08c.21-.57.4-1.1.63-1.62s.49-1,.77-1.48l.06-.11.41-.75-.43-.74L12.9,16.92,19,11.56l5.89,4.31.73.53.81-.39a22.08,22.08,0,0,1,3.68-1.39l.87-.25.19-.88,1.57-7.14,8.13,0M41,4.82h0l-8.32,0h0a1.39,1.39,0,0,0-1.35,1.06l-1.6,7.26a24.13,24.13,0,0,0-3.92,1.49l-6-4.38A1.38,1.38,0,0,0,19,10a1.39,1.39,0,0,0-.92.35l-6.25,5.49a1.37,1.37,0,0,0-.28,1.72l4,6.75c-.31.56-.62,1.11-.89,1.71s-.48,1.2-.7,1.81l-7.7,1.48a1.39,1.39,0,0,0-1.11,1.34l0,8.33a1.37,1.37,0,0,0,1.06,1.35L13.48,42A23,23,0,0,0,15,45.88l-4.38,6a1.37,1.37,0,0,0,.09,1.72l5.5,6.26a1.36,1.36,0,0,0,1,.46,1.38,1.38,0,0,0,.68-.18l6.79-4c.56.31,1.11.62,1.7.88s1.19.48,1.79.69l1.49,7.74A1.38,1.38,0,0,0,31,66.55l8.32,0h0a1.4,1.4,0,0,0,1.35-1.07l1.59-7.26a23.89,23.89,0,0,0,3.93-1.49l6,4.38a1.38,1.38,0,0,0,.8.25,1.34,1.34,0,0,0,.92-.35l6.25-5.49a1.37,1.37,0,0,0,.28-1.72l-4-6.75c.31-.57.63-1.13.9-1.73s.47-1.18.69-1.79L65.74,42a1.37,1.37,0,0,0,1.1-1.34l0-8.33A1.38,1.38,0,0,0,65.75,31l-7.24-1.59A23,23,0,0,0,57,25.49l4.38-6a1.36,1.36,0,0,0-.1-1.72l-5.49-6.26a1.38,1.38,0,0,0-1.71-.28l-6.77,4c-.56-.31-1.1-.64-1.71-.91s-1.22-.47-1.82-.68L42.33,5.92a1.33,1.33,0,0,0-.84-1A1.27,1.27,0,0,0,41,4.82Z"/><path class="cls-2" d="M31.32,34.64s-1.18.68.84.92a17.48,17.48,0,0,0,6.4-.28,11.13,11.13,0,0,0,1.7.84c-6,2.59-13.7-.15-8.94-1.48"/><path class="cls-2" d="M30.58,31.25s-1.33,1,.7,1.19a25.19,25.19,0,0,0,8.26-.39,3.58,3.58,0,0,0,1.27.77C33.49,35,25.34,33,30.58,31.25"/><path class="cls-2" d="M36.81,25.51c1.49,1.72-.39,3.26-.39,3.26s3.79-1.95,2-4.4C36.85,22.08,35.6,21,42.34,17c0,0-10.58,2.64-5.53,8.47"/><path class="cls-2" d="M44.82,37.14s.87.72-1,1.28c-3.5,1.06-14.55,1.38-17.62,0-1.1-.48,1-1.15,1.62-1.28a4.07,4.07,0,0,1,1.07-.12c-1.23-.87-7.93,1.69-3.41,2.43,12.34,2,22.5-.91,19.3-2.35"/><path class="cls-2" d="M31.89,27.74s-5.62,1.34-2,1.82a41.56,41.56,0,0,0,7.43-.08c2.32-.19,4.66-.61,4.66-.61a9.4,9.4,0,0,0-1.41.76c-5.71,1.5-16.73.8-13.56-.74a10.75,10.75,0,0,1,4.87-1.15"/><path class="cls-2" d="M42,33.38c5.8-3,3.12-5.91,1.24-5.52a3.71,3.71,0,0,0-.66.18,1.07,1.07,0,0,1,.5-.39c3.7-1.3,6.55,3.84-1.2,5.88a.56.56,0,0,0,.12-.15"/><path class="cls-2" d="M38.47,10.72s3.21,3.22-3,8.16c-5,4-1.14,6.23,0,8.81-2.93-2.65-5.08-5-3.64-7.14,2.12-3.18,8-4.72,6.69-9.83"/><path class="cls-2" d="M32.46,41.55c5.57.35,14.12-.2,14.32-2.83,0,0-.39,1-4.6,1.79a45.74,45.74,0,0,1-14.1.21s.72.59,4.38.83"/><path class="cls-2" d="M32.26,52.63a.3.3,0,0,1,0,.1.2.2,0,0,1-.11.08,1.3,1.3,0,0,1-.26,0H31a.71.71,0,0,1-.23-.05.36.36,0,0,1-.12-.08l-.06-.12-.68-1.69q-.12-.28-.24-.51a1.29,1.29,0,0,0-.26-.37.86.86,0,0,0-.33-.23,1.14,1.14,0,0,0-.43-.08h-.48v2.89a.21.21,0,0,1,0,.11.23.23,0,0,1-.13.07,1,1,0,0,1-.23.05l-.38,0-.37,0a1.11,1.11,0,0,1-.24-.05.24.24,0,0,1-.12-.07.2.2,0,0,1,0-.11V45.73a.43.43,0,0,1,.45-.49h2.46l.35,0a3.28,3.28,0,0,1,.82.23,1.81,1.81,0,0,1,.62.41,1.73,1.73,0,0,1,.39.6,2.42,2.42,0,0,1,0,1.5,1.84,1.84,0,0,1-.28.56A2.06,2.06,0,0,1,31,49a2.61,2.61,0,0,1-.63.3,1.55,1.55,0,0,1,.32.2,1.48,1.48,0,0,1,.28.28,2.78,2.78,0,0,1,.25.38c.08.14.15.3.23.48l.64,1.5.11.32A.67.67,0,0,1,32.26,52.63Zm-2-5.15a1.14,1.14,0,0,0-.17-.63,1,1,0,0,0-.56-.37l-.27,0-.41,0h-.69v2.15H29a2,2,0,0,0,.58-.08,1.23,1.23,0,0,0,.41-.22.88.88,0,0,0,.24-.34A1.13,1.13,0,0,0,30.28,47.48Z"/><path class="cls-2" d="M38.32,45.88a2.62,2.62,0,0,1,0,.29.74.74,0,0,1-.05.19.3.3,0,0,1-.07.11.17.17,0,0,1-.1,0h-1.9v6.11a.2.2,0,0,1,0,.11.23.23,0,0,1-.13.07,1.11,1.11,0,0,1-.24.05l-.37,0-.37,0a1.11,1.11,0,0,1-.24-.05.23.23,0,0,1-.13-.07.2.2,0,0,1,0-.11V46.5h-1.9a.17.17,0,0,1-.1,0,.3.3,0,0,1-.07-.11.74.74,0,0,1,0-.19,4.36,4.36,0,0,1,0-.59.72.72,0,0,1,0-.2.3.3,0,0,1,.07-.11.17.17,0,0,1,.1,0h5.34a.17.17,0,0,1,.1,0,.3.3,0,0,1,.07.11.72.72,0,0,1,.05.2A2.63,2.63,0,0,1,38.32,45.88Z"/><path class="cls-2" d="M45.71,49a5.46,5.46,0,0,1-.23,1.68,3.48,3.48,0,0,1-.7,1.27,3.2,3.2,0,0,1-1.14.79,4.29,4.29,0,0,1-1.58.27,4.82,4.82,0,0,1-1.55-.23A2.65,2.65,0,0,1,39.42,52a2.83,2.83,0,0,1-.66-1.21,5.87,5.87,0,0,1-.22-1.73,5.74,5.74,0,0,1,.23-1.66,3.47,3.47,0,0,1,.7-1.25,3.2,3.2,0,0,1,1.14-.79,4.34,4.34,0,0,1,1.59-.27,4.46,4.46,0,0,1,1.52.23,2.57,2.57,0,0,1,1.1.7,3,3,0,0,1,.67,1.2A5.77,5.77,0,0,1,45.71,49ZM44.1,49a5.25,5.25,0,0,0-.1-1.09,2.27,2.27,0,0,0-.32-.84,1.56,1.56,0,0,0-.6-.54,2.14,2.14,0,0,0-.93-.19,1.83,1.83,0,0,0-.95.22,1.7,1.7,0,0,0-.62.57,2.58,2.58,0,0,0-.33.83,5.49,5.49,0,0,0-.1,1,6.21,6.21,0,0,0,.1,1.12,2.59,2.59,0,0,0,.31.85,1.47,1.47,0,0,0,.6.53,2.06,2.06,0,0,0,1,.19,1.92,1.92,0,0,0,.94-.21,1.73,1.73,0,0,0,.62-.58,2.24,2.24,0,0,0,.33-.84A4.93,4.93,0,0,0,44.1,49Z"/></g></g></svg>