<svg xmlns="http://www.w3.org/2000/svg" viewBox="0 0 72 72"><defs><style>.cls-1{fill:#46c795;}.cls-2{fill:#fff;}.cls-3{fill:#333;}</style></defs><g id="Layer_2" data-name="Layer 2"><g id="Layer_5" data-name="Layer 5"><path class="cls-1" d="M41.74.48A36,36,0,1,0,71.52,41.74,35.95,35.95,0,0,0,41.74.48Z"/><path class="cls-2" d="M25.59,47.8V37.54l1.49.82q4.64,2.6,9.26,5.21a.89.89,0,0,0,1,0L47.42,37.6l.36-.19V47.78C47.47,47.89,26.14,47.92,25.59,47.8Z"/><path class="cls-2" d="M36.73,51.46H22.82c-.72,0-.67,0-.67-.7v-18c0-.72.05-.69-.68-.69H19.14c-.47,0-.48,0-.49-.47v-.81c0-.4,0-.42.45-.42.93,0,1.85,0,2.78,0,.55,0,1.1.05,1.66.07.22,0,.33.1.32.33V49a1.08,1.08,0,0,0,0,.18c0,.53,0,.53.51.53H49.1c.51,0,.51,0,.51-.58V31.08c0-.91-.09-.81.83-.81h3.9c.46,0,.47,0,.48.48v.81c0,.38,0,.41-.42.41-.82,0-1.64,0-2.46,0-.62,0-.63,0-.62.61V50.72c0,.79,0,.74-.72.74Z"/><path class="cls-2" d="M25.56,35.51H47.78c0,.15,0,.28,0,.41a.56.56,0,0,1-.34.61c-1.27.73-2.52,1.48-3.79,2.22-2.13,1.26-4.28,2.51-6.41,3.79a.81.81,0,0,1-.94,0Q31.13,39.6,25.9,36.69a.57.57,0,0,1-.34-.61C25.57,35.91,25.56,35.73,25.56,35.51Z"/><path class="cls-2" d="M40.52,57.87v5.05H39V55.29l.62,0h1.3c.43,0,.43,0,.57.42.49,1.42,1,2.85,1.46,4.28.05.16.11.31.2.55.07-.18.13-.29.16-.4.48-1.47.94-2.93,1.42-4.4.14-.45.15-.45.62-.45H46.7l.47,0v7.63H45.68c-.08-.88,0-1.75,0-2.63s0-1.72-.08-2.6c-.06.15-.12.3-.17.45l-1.53,4.4c-.14.41-.15.42-.56.42-1.08,0-.82.15-1.17-.82L40.8,58.33c0-.16-.11-.31-.17-.46Z"/><path class="cls-2" d="M54.73,62l.91.86-.77.8-1.11-1a4.09,4.09,0,0,1-1.94.44,3.63,3.63,0,0,1-3.63-3.39,4.56,4.56,0,0,1,.39-2.62,3.58,3.58,0,0,1,3.59-2A3.46,3.46,0,0,1,55,56.75a4.44,4.44,0,0,1,.63,2.74,4.24,4.24,0,0,1-.85,2.32S54.77,61.92,54.73,62Zm-1.2-1.11a4,4,0,0,0,.24-.44,3.63,3.63,0,0,0-.08-2.8,2,2,0,0,0-3.61.12,3.77,3.77,0,0,0-.08,2.5,1.9,1.9,0,0,0,1.27,1.35,2.14,2.14,0,0,0,1.3,0L51.89,61l.78-.8Z"/><path class="cls-2" d="M34.94,62.93h-.73c0-.7,0-1.4,0-2.09V56.61l-.1,0c-.09.23-.19.46-.28.7q-1.05,2.64-2.09,5.29a.48.48,0,0,1-.51.39c-.31,0-.4-.17-.5-.41-.58-1.49-1.17-3-1.76-4.46l-.61-1.51-.11,0v6.31h-.74c0-.16,0-.3,0-.45V55.79c0-.53,0-.53.57-.53s.52,0,.71.48L31,61.32c.08.19.15.38.26.65.09-.19.14-.29.18-.39q1.15-2.94,2.32-5.88c.06-.15.17-.38.29-.4a2.63,2.63,0,0,1,.84,0s.1.13.12.21a2.17,2.17,0,0,1,0,.36c0,2.17,0,4.33,0,6.5C35,62.56,35,62.73,34.94,62.93Z"/><path class="cls-2" d="M20.37,55.3a1.86,1.86,0,0,1,.26,0l3.59.07a1.93,1.93,0,0,1,.52.11A1.61,1.61,0,0,1,26,56.88a1.73,1.73,0,0,1-1,1.89l-.21.1.28.13a1.74,1.74,0,0,1,1.23,1.7,1.8,1.8,0,0,1-.95,1.84,3.43,3.43,0,0,1-1.36.39c-1.15.06-2.3,0-3.45,0a1.15,1.15,0,0,1-.2-.05Zm.72,7,.23,0c.85,0,1.7,0,2.55,0a3,3,0,0,0,.74-.14,1.34,1.34,0,0,0,1-1.43,1.28,1.28,0,0,0-1-1.33,3.44,3.44,0,0,0-.79-.14H21.44a2.45,2.45,0,0,0-.35,0Zm0-3.69a2.88,2.88,0,0,0,.35,0h2.24a2.78,2.78,0,0,0,.7-.12,1.22,1.22,0,0,0,.92-1.32A1.18,1.18,0,0,0,24.17,56c-1-.08-2,0-3-.06,0,0-.05,0-.09.07Z"/><path class="cls-2" d="M18.68,62.93h-.63V55.3h.61C18.77,55.64,18.79,62.43,18.68,62.93Z"/><path class="cls-2" d="M28.49,10.08H20a.54.54,0,0,0-.54.54v5.31H9.2a33.5,33.5,0,0,0-2.34,3.81H19.47v5.31a.54.54,0,0,0,.54.54h8.48a.54.54,0,0,0,.53-.54V10.62A.54.54,0,0,0,28.49,10.08Z"/><rect class="cls-3" x="35.67" y="23.28" width="6.13" height="0.01"/><path class="cls-2" d="M56.22,15.93V13.26a.53.53,0,0,0-.39-.51L47,10.1l-.15,0H42.34a.54.54,0,0,0-.54.54v.69H35.14a.54.54,0,0,0-.54.54v12a.54.54,0,0,0,.54.54H41.8v.69a.54.54,0,0,0,.54.54H46.8l.15,0,8.88-2.65a.54.54,0,0,0,.39-.51V19.74h9a31.63,31.63,0,0,0-2.34-3.81Zm-14,7.35H35.67V12.38H42.2Z"/></g></g></svg>