<svg xmlns="http://www.w3.org/2000/svg" viewBox="0 0 72 72"><defs><style>.cls-1{fill:#46c795;}.cls-2{fill:#fff;}.cls-3{fill:#333;}</style></defs><g id="Layer_2" data-name="Layer 2"><g id="Layer_5" data-name="Layer 5"><path class="cls-1" d="M41.74.48A36,36,0,1,0,71.52,41.74,35.95,35.95,0,0,0,41.74.48Z"/><path class="cls-2" d="M36.66,42.37a10.43,10.43,0,0,0-7.31,2.74V31.48a.45.45,0,0,0-.66-.41L25.36,33a.28.28,0,0,0-.08.16V62.05a.4.4,0,0,0,.42.42h3.15a.4.4,0,0,0,.42-.42V60.14a10.79,10.79,0,0,0,7.31,2.75,10.27,10.27,0,1,0,.08-20.52Zm-.08,16.69A6.48,6.48,0,1,1,43,52.58,6.44,6.44,0,0,1,36.58,59.06Z"/><path class="cls-2" d="M47.13,37.22a2.58,2.58,0,1,0,2.57,2.57A2.59,2.59,0,0,0,47.13,37.22Z"/><path class="cls-2" d="M28.49,10.08H20a.54.54,0,0,0-.54.54v5.31H9.2a33.5,33.5,0,0,0-2.34,3.81H19.47v5.31a.54.54,0,0,0,.54.54h8.48a.54.54,0,0,0,.53-.54V10.62A.54.54,0,0,0,28.49,10.08Z"/><rect class="cls-3" x="35.67" y="23.28" width="6.13" height="0.01"/><path class="cls-2" d="M56.22,15.93V13.26a.53.53,0,0,0-.39-.51L47,10.1l-.15,0H42.34a.54.54,0,0,0-.54.54v.69H35.14a.54.54,0,0,0-.54.54v12a.54.54,0,0,0,.54.54H41.8v.69a.54.54,0,0,0,.54.54H46.8l.15,0,8.88-2.65a.54.54,0,0,0,.39-.51V19.74h9a31.63,31.63,0,0,0-2.34-3.81Zm-14,7.35H35.67V12.38H42.2Z"/></g></g></svg>