<svg xmlns="http://www.w3.org/2000/svg" viewBox="0 0 72 72"><defs><style>.cls-1{fill:#46c795;}.cls-2{fill:#fff;}</style></defs><g id="Layer_2" data-name="Layer 2"><g id="Layer_5" data-name="Layer 5"><circle class="cls-1" cx="36" cy="36" r="36"/><path class="cls-2" d="M41,5.84h0m-.14,0,1.46,7.6.16.86.82.28.27.09c.49.17,1,.33,1.42.54s.89.45,1.35.71l.24.14.76.43.75-.44,6.66-4,5.36,6.11-4.31,5.91-.54.73.4.81a22.08,22.08,0,0,1,1.39,3.68l.24.87.88.19L65.32,32l0,8.14-7.59,1.46-.84.16-.29.81,0,.11c-.19.54-.37,1.06-.6,1.56s-.51,1-.8,1.54l0,.07-.42.75.44.74L59.09,54,53,59.32,47.09,55l-.73-.54-.81.4a22.08,22.08,0,0,1-3.68,1.39l-.87.24-.19.88-1.57,7.15-8.14,0-1.47-7.62-.16-.84-.81-.29-.13,0c-.54-.2-1.05-.38-1.54-.6s-1-.48-1.47-.76l-.13-.07-.75-.42-.73.44L17.22,58.3l-5.36-6.11,4.31-5.91.53-.73-.39-.81a22.08,22.08,0,0,1-1.39-3.68l-.24-.87L13.8,40,6.67,38.44l0-8.13,7.6-1.47.84-.16.29-.81,0-.07c.2-.57.4-1.11.63-1.62s.49-1,.77-1.49l.06-.1.41-.75-.43-.74L12.9,16.44,19,11.08l5.89,4.3.73.54.81-.4a22.08,22.08,0,0,1,3.68-1.39l.87-.24.19-.88,1.57-7.15,8.13,0M41,4.34h0l-8.32,0h0a1.39,1.39,0,0,0-1.35,1.07l-1.6,7.26a23.2,23.2,0,0,0-3.92,1.48l-6-4.37a1.37,1.37,0,0,0-1.72.09l-6.25,5.49a1.38,1.38,0,0,0-.28,1.72l4,6.76c-.31.56-.62,1.11-.89,1.7s-.48,1.2-.7,1.81l-7.7,1.48A1.4,1.4,0,0,0,5.14,30.2l0,8.32a1.38,1.38,0,0,0,1.06,1.36l7.24,1.59A23.78,23.78,0,0,0,15,45.39l-4.38,6a1.37,1.37,0,0,0,.09,1.72l5.5,6.25a1.33,1.33,0,0,0,1,.46,1.29,1.29,0,0,0,.68-.18l6.79-4c.56.31,1.11.62,1.7.89s1.19.47,1.79.69L29.65,65A1.38,1.38,0,0,0,31,66.06l8.32,0h0A1.39,1.39,0,0,0,40.68,65l1.59-7.26a23,23,0,0,0,3.93-1.48l6,4.37a1.37,1.37,0,0,0,1.72-.09L60.16,55a1.36,1.36,0,0,0,.28-1.71l-4-6.76c.31-.57.63-1.12.9-1.72s.47-1.19.69-1.79l7.7-1.48a1.38,1.38,0,0,0,1.1-1.35l0-8.32a1.38,1.38,0,0,0-1.07-1.36l-7.24-1.59A23.2,23.2,0,0,0,57,25l4.38-6a1.36,1.36,0,0,0-.1-1.72L55.82,11a1.34,1.34,0,0,0-1-.46,1.38,1.38,0,0,0-.68.18l-6.77,4c-.56-.32-1.1-.64-1.71-.92s-1.22-.47-1.82-.68L42.33,5.44a1.36,1.36,0,0,0-.84-1A1.5,1.5,0,0,0,41,4.34Z"/><path class="cls-2" d="M52.32,27.48a3.41,3.41,0,0,0-.07-.89,1.35,1.35,0,0,0-.31-.59l0-.06h0a1.72,1.72,0,0,0-.57-.5L37,17.44a1.54,1.54,0,0,0-.42-.17,1.89,1.89,0,0,0-.53-.08,2.07,2.07,0,0,0-1,.24L20.67,25.48a1.8,1.8,0,0,0-.94,1.57V43.3a1.83,1.83,0,0,0,.94,1.59L35.09,53A1.91,1.91,0,0,0,37,53l14.42-8.09a1.83,1.83,0,0,0,.94-1.59v0C52.3,40,52.32,30.73,52.32,27.48ZM36,47.22A12,12,0,1,1,46.36,29.09l-5.21,3a6,6,0,1,0,.06,6.18l5.26,2.9A12,12,0,0,1,36,47.22Z"/></g></g></svg>