<svg xmlns="http://www.w3.org/2000/svg" viewBox="0 0 72 72"><defs><style>.cls-1{fill:#46c795;}.cls-2{fill:#fff;}.cls-3{fill:#333;}</style></defs><g id="Layer_2" data-name="Layer 2"><g id="Layer_5" data-name="Layer 5"><path class="cls-1" d="M41.74.48A36,36,0,1,0,71.52,41.74,35.95,35.95,0,0,0,41.74.48Z"/><path class="cls-2" d="M42.49,39.37l-5.72,8.78-5.66-8.84a11.19,11.19,0,0,0,1,19.81l.94-3.6a7.08,7.08,0,0,1-2.65-10.2l4.89,7.31h2.95l4.89-7.31a7.12,7.12,0,0,1-2.18,10l.94,3.65A11.54,11.54,0,0,0,48,49,11.15,11.15,0,0,0,42.49,39.37Z"/><path class="cls-2" d="M36.65,34a14.86,14.86,0,1,0,15,14.86A14.92,14.92,0,0,0,36.65,34Zm0,28.6a13.64,13.64,0,1,1,3.07-26.94A13.28,13.28,0,0,1,50,45.85,13.71,13.71,0,0,1,36.65,62.6Z"/><path class="cls-2" d="M28.49,10.08H20a.54.54,0,0,0-.54.54v5.31H9.2a33.5,33.5,0,0,0-2.34,3.81H19.47v5.31a.54.54,0,0,0,.54.54h8.48a.54.54,0,0,0,.53-.54V10.62A.54.54,0,0,0,28.49,10.08Z"/><rect class="cls-3" x="35.67" y="23.28" width="6.13" height="0.01"/><path class="cls-2" d="M56.22,15.93V13.26a.53.53,0,0,0-.39-.51L47,10.1l-.15,0H42.34a.54.54,0,0,0-.54.54v.69H35.14a.54.54,0,0,0-.54.54v12a.54.54,0,0,0,.54.54H41.8v.69a.54.54,0,0,0,.54.54H46.8l.15,0,8.88-2.65a.54.54,0,0,0,.39-.51V19.74h9a31.63,31.63,0,0,0-2.34-3.81Zm-14,7.35H35.67V12.38H42.2Z"/></g></g></svg>