<svg xmlns="http://www.w3.org/2000/svg" viewBox="0 0 72 72"><defs><style>.cls-1{fill:#46c795;}.cls-2{fill:#fff;}</style></defs><g id="Layer_2" data-name="Layer 2"><g id="Layer_5" data-name="Layer 5"><circle class="cls-1" cx="36" cy="36" r="36"/><path class="cls-2" d="M40.92,6.32h0m-.13,0,1.45,7.61.16.85.82.29.27.09a15.12,15.12,0,0,1,1.43.54c.45.2.88.45,1.34.71l.25.14.75.43.75-.45,6.66-3.94L60,18.7l-4.32,5.91-.53.72.39.82A21.65,21.65,0,0,1,57,29.82l.25.87.88.2,7.12,1.56,0,8.13L57.66,42l-.85.16-.28.81,0,.11c-.2.55-.38,1.07-.61,1.57s-.5,1-.79,1.53L55,46.3l-.41.75.43.74L59,54.45l-6.11,5.36L47,55.5,46.26,55l-.81.39a21.44,21.44,0,0,1-3.68,1.39l-.86.25-.2.88L39.14,65l-8.13,0-1.47-7.62-.16-.84-.81-.29-.14,0c-.54-.19-1.05-.37-1.54-.59s-1-.49-1.47-.77l-.12-.07-.75-.41-.74.44-6.69,3.94-5.36-6.11,4.32-5.92.53-.72-.39-.81a22.12,22.12,0,0,1-1.4-3.68l-.24-.87-.88-.19L6.57,38.92l0-8.13,7.59-1.46.84-.16.29-.81,0-.08c.2-.56.39-1.1.62-1.62s.5-1,.78-1.49l.05-.1.42-.75-.44-.74L12.8,16.92l6.11-5.36,5.9,4.31.72.53.81-.39A22.08,22.08,0,0,1,30,14.62l.87-.25.19-.88,1.58-7.14,8.13,0m.13-1.5h0l-8.33,0h0a1.37,1.37,0,0,0-1.34,1.06l-1.6,7.26a23.89,23.89,0,0,0-3.93,1.49l-6-4.38a1.38,1.38,0,0,0-.8-.25,1.39,1.39,0,0,0-.92.35l-6.26,5.49a1.39,1.39,0,0,0-.28,1.72l4,6.75c-.31.56-.62,1.11-.88,1.71s-.49,1.2-.7,1.81L6.15,29.34a1.37,1.37,0,0,0-1.1,1.34l0,8.33a1.38,1.38,0,0,0,1.07,1.35L13.38,42a23.89,23.89,0,0,0,1.49,3.93l-4.39,6a1.38,1.38,0,0,0,.1,1.72l5.49,6.26a1.39,1.39,0,0,0,1,.46,1.45,1.45,0,0,0,.69-.18l6.78-4c.56.31,1.11.62,1.7.88s1.19.48,1.79.69l1.5,7.74a1.37,1.37,0,0,0,1.34,1.1l8.33,0h0a1.38,1.38,0,0,0,1.34-1.07l1.6-7.26a23.89,23.89,0,0,0,3.93-1.49l6,4.38a1.38,1.38,0,0,0,.8.25,1.34,1.34,0,0,0,.92-.35l6.26-5.49a1.4,1.4,0,0,0,.28-1.72l-4-6.75c.31-.57.62-1.13.89-1.73s.48-1.18.69-1.79L65.65,42a1.37,1.37,0,0,0,1.1-1.34l0-8.33A1.37,1.37,0,0,0,65.66,31l-7.24-1.59a23.89,23.89,0,0,0-1.49-3.93l4.39-6a1.38,1.38,0,0,0-.1-1.72l-5.49-6.26a1.39,1.39,0,0,0-1-.46,1.42,1.42,0,0,0-.69.18l-6.76,4c-.56-.31-1.11-.64-1.72-.91a19.2,19.2,0,0,0-1.82-.68L42.24,5.92a1.37,1.37,0,0,0-.84-1h0a1.32,1.32,0,0,0-.48-.09Z"/><path class="cls-2" d="M31.22,34.64s-1.18.68.84.92a17.54,17.54,0,0,0,6.41-.28,11.13,11.13,0,0,0,1.7.84c-6.05,2.59-13.7-.15-9-1.48"/><path class="cls-2" d="M30.48,31.25s-1.32,1,.7,1.19a25.18,25.18,0,0,0,8.26-.39,3.69,3.69,0,0,0,1.28.77C33.4,35,25.25,33,30.48,31.25"/><path class="cls-2" d="M36.72,25.51c1.49,1.72-.39,3.26-.39,3.26s3.78-1.95,2-4.4C36.75,22.08,35.5,21,42.25,17c0,0-10.59,2.64-5.53,8.47"/><path class="cls-2" d="M44.72,37.14s.88.72-1,1.28c-3.49,1.06-14.54,1.38-17.61,0-1.11-.48,1-1.15,1.61-1.28a4.07,4.07,0,0,1,1.07-.12c-1.23-.87-7.93,1.69-3.4,2.43,12.34,2,22.49-.91,19.29-2.35"/><path class="cls-2" d="M31.79,27.74s-5.62,1.34-2,1.82a41.56,41.56,0,0,0,7.43-.08c2.33-.19,4.67-.61,4.67-.61a9.8,9.8,0,0,0-1.42.76c-5.7,1.5-16.73.8-13.56-.74a10.77,10.77,0,0,1,4.87-1.15"/><path class="cls-2" d="M41.87,33.38c5.8-3,3.12-5.91,1.25-5.52a3.37,3.37,0,0,0-.66.18,1.08,1.08,0,0,1,.49-.39c3.71-1.3,6.55,3.84-1.19,5.88a.43.43,0,0,0,.11-.15"/><path class="cls-2" d="M38.37,10.72s3.22,3.22-3,8.16c-5,4-1.15,6.23,0,8.81-2.93-2.65-5.09-5-3.64-7.14,2.12-3.18,8-4.72,6.68-9.83"/><path class="cls-2" d="M32.36,41.55c5.57.35,14.12-.2,14.32-2.83,0,0-.39,1-4.6,1.79A45.68,45.68,0,0,1,28,40.72s.71.59,4.37.83"/><path class="cls-2" d="M28.48,50.71a3.73,3.73,0,0,1-.1.93,1.78,1.78,0,0,1-.32.71,1.52,1.52,0,0,1-.61.44,2.52,2.52,0,0,1-.93.15l-.35,0-.31-.07-.25-.09a.33.33,0,0,1-.14-.09l-.06-.07a.36.36,0,0,1,0-.11.79.79,0,0,1,0-.17,1.85,1.85,0,0,1,0-.25c0-.13,0-.25,0-.34a.69.69,0,0,1,0-.22.17.17,0,0,1,.06-.11.12.12,0,0,1,.09,0,.24.24,0,0,1,.13,0l.15.08.21.08a1.11,1.11,0,0,0,.28,0,.76.76,0,0,0,.27,0,.43.43,0,0,0,.2-.15.59.59,0,0,0,.12-.29,2.05,2.05,0,0,0,0-.47V45.44a.18.18,0,0,1,0-.1.35.35,0,0,1,.12-.07,1.11,1.11,0,0,1,.24-.05h.75l.23.05a.26.26,0,0,1,.13.07.13.13,0,0,1,0,.1Z"/><path class="cls-2" d="M34.49,52.64a.15.15,0,0,1-.06.13.38.38,0,0,1-.19.07l-.37,0-.38,0a.3.3,0,0,1-.17-.07.14.14,0,0,1,0-.13v-.41a2.43,2.43,0,0,1-.74.54,2.24,2.24,0,0,1-.91.19,2.65,2.65,0,0,1-.77-.11,1.73,1.73,0,0,1-.6-.32,1.52,1.52,0,0,1-.4-.53,1.88,1.88,0,0,1-.14-.74,1.65,1.65,0,0,1,.18-.79,1.49,1.49,0,0,1,.53-.56,2.61,2.61,0,0,1,.88-.33,6.44,6.44,0,0,1,1.23-.1H33v-.32a1.81,1.81,0,0,0,0-.43.83.83,0,0,0-.16-.31.73.73,0,0,0-.31-.18,1.58,1.58,0,0,0-.47-.06,2.19,2.19,0,0,0-.66.09,3,3,0,0,0-.51.18,2.13,2.13,0,0,0-.37.18.64.64,0,0,1-.25.08.15.15,0,0,1-.11,0,.25.25,0,0,1-.08-.12.48.48,0,0,1-.05-.18,1,1,0,0,1,0-.25,1.12,1.12,0,0,1,0-.29.41.41,0,0,1,.11-.19,1,1,0,0,1,.29-.19,4,4,0,0,1,.48-.19c.18,0,.38-.1.6-.14a3.63,3.63,0,0,1,.67-.06,4,4,0,0,1,1,.12,1.89,1.89,0,0,1,.72.37,1.54,1.54,0,0,1,.41.65,3.16,3.16,0,0,1,.13.93ZM33,50.4h-.56a2.68,2.68,0,0,0-.61.06.9.9,0,0,0-.41.16.55.55,0,0,0-.23.25.74.74,0,0,0-.08.34.67.67,0,0,0,.21.52.86.86,0,0,0,.58.19,1.14,1.14,0,0,0,.57-.16,2.45,2.45,0,0,0,.53-.47Z"/><path class="cls-2" d="M40.6,47.39a.17.17,0,0,1,0,.07.28.28,0,0,1,0,.09.5.5,0,0,1,0,.12,1,1,0,0,1,0,.14L39,52.54a.34.34,0,0,1-.08.16.26.26,0,0,1-.16.1,1.82,1.82,0,0,1-.31.05h-.52l-.5,0a1.11,1.11,0,0,1-.31-.05.31.31,0,0,1-.16-.09.48.48,0,0,1-.08-.16l-1.57-4.73-.06-.21a1.05,1.05,0,0,1,0-.13v-.08a.17.17,0,0,1,0-.1.23.23,0,0,1,.11-.07.68.68,0,0,1,.23,0l.36,0,.39,0,.23,0a.18.18,0,0,1,.12.08.67.67,0,0,1,.06.12l1.19,3.83,0,.15,0-.15,1.17-3.83a.33.33,0,0,1,0-.12.25.25,0,0,1,.12-.08l.22,0,.36,0,.36,0a.56.56,0,0,1,.21,0,.23.23,0,0,1,.11.07A.17.17,0,0,1,40.6,47.39Z"/><path class="cls-2" d="M45.74,52.64a.15.15,0,0,1-.06.13.38.38,0,0,1-.18.07l-.37,0-.39,0a.34.34,0,0,1-.17-.07.17.17,0,0,1,0-.13v-.41a2.39,2.39,0,0,1-.73.54,2.29,2.29,0,0,1-.92.19,2.58,2.58,0,0,1-.76-.11,1.69,1.69,0,0,1-.61-.32,1.38,1.38,0,0,1-.39-.53,1.72,1.72,0,0,1-.14-.74,1.65,1.65,0,0,1,.18-.79,1.35,1.35,0,0,1,.53-.56,2.61,2.61,0,0,1,.88-.33,6.37,6.37,0,0,1,1.23-.1h.51v-.32a1.81,1.81,0,0,0,0-.43.85.85,0,0,0-.17-.31.69.69,0,0,0-.3-.18,1.65,1.65,0,0,0-.48-.06,2.17,2.17,0,0,0-.65.09,2.86,2.86,0,0,0-.52.18,2.57,2.57,0,0,0-.37.18.6.6,0,0,1-.24.08.17.17,0,0,1-.12,0,.36.36,0,0,1-.08-.12.78.78,0,0,1,0-.18,2,2,0,0,1,0-.25,1.12,1.12,0,0,1,0-.29.52.52,0,0,1,.11-.19,1.32,1.32,0,0,1,.29-.19c.14-.06.3-.13.48-.19l.6-.14a3.71,3.71,0,0,1,.67-.06,4.13,4.13,0,0,1,1.06.12,1.77,1.77,0,0,1,.71.37,1.37,1.37,0,0,1,.41.65,2.86,2.86,0,0,1,.13.93ZM44.3,50.4h-.57a2.68,2.68,0,0,0-.61.06,1,1,0,0,0-.41.16.68.68,0,0,0-.23.25.74.74,0,0,0-.07.34.67.67,0,0,0,.21.52.85.85,0,0,0,.57.19,1.11,1.11,0,0,0,.57-.16,2.27,2.27,0,0,0,.54-.47Z"/></g></g></svg>