<svg xmlns="http://www.w3.org/2000/svg" viewBox="0 0 72 72"><defs><style>.cls-1{fill:#46c795;}.cls-2{fill:#fff;}</style></defs><g id="Layer_2" data-name="Layer 2"><g id="Layer_5" data-name="Layer 5"><circle class="cls-1" cx="36" cy="36" r="36"/><path class="cls-2" d="M41,6.64h0m-.13,0,1.45,7.61.16.85.83.28.26.09A15.12,15.12,0,0,1,45,16c.46.21.89.45,1.34.71l.25.14.75.43.75-.44,6.66-4L60.14,19l-4.32,5.91-.53.73.39.81a22.08,22.08,0,0,1,1.39,3.68l.25.87.88.19,7.13,1.56,0,8.14-7.59,1.46-.84.16-.29.81,0,.1C56.4,44,56.21,44.5,56,45s-.5,1-.79,1.54l0,.07-.41.76.44.73,3.93,6.66L53,60.12l-5.89-4.3-.72-.54-.82.4a21.65,21.65,0,0,1-3.67,1.39l-.87.24-.2.88-1.57,7.15-8.13,0-1.47-7.62-.16-.84-.81-.29-.13,0c-.54-.2-1.06-.38-1.55-.6s-1-.48-1.47-.76l-.12-.07-.75-.41-.74.43L17.23,59.1,11.86,53l4.32-5.91.53-.73-.39-.81a22.08,22.08,0,0,1-1.39-3.68L14.68,41l-.88-.19L6.67,39.24l0-8.13,7.59-1.47.84-.16.29-.81,0-.08c.2-.56.39-1.1.62-1.61s.5-1,.78-1.49l.05-.1.42-.75-.44-.74L12.9,17.24,19,11.88l5.9,4.3.72.54.82-.4a21.65,21.65,0,0,1,3.67-1.39l.87-.24.2-.88,1.57-7.15,8.13,0M41,5.14h0l-8.33,0h0a1.37,1.37,0,0,0-1.34,1.07l-1.6,7.26A23,23,0,0,0,25.79,15l-6-4.37a1.37,1.37,0,0,0-1.72.09l-6.26,5.49a1.39,1.39,0,0,0-.28,1.72l4,6.76c-.31.56-.61,1.11-.88,1.7s-.48,1.2-.7,1.81L6.25,29.65A1.38,1.38,0,0,0,5.15,31l0,8.32a1.39,1.39,0,0,0,1.07,1.36l7.24,1.59A23.78,23.78,0,0,0,15,46.19l-4.39,6a1.39,1.39,0,0,0,.1,1.72l5.49,6.25a1.36,1.36,0,0,0,1,.47,1.33,1.33,0,0,0,.69-.19l6.78-4c.56.31,1.11.62,1.71.89s1.18.47,1.79.69l1.49,7.73A1.37,1.37,0,0,0,31,66.86l8.33,0h0a1.37,1.37,0,0,0,1.34-1.07l1.6-7.26A23,23,0,0,0,46.21,57l6,4.37a1.37,1.37,0,0,0,1.72-.09l6.26-5.49a1.39,1.39,0,0,0,.28-1.72l-4-6.76c.31-.56.62-1.12.89-1.72s.48-1.19.69-1.79l7.71-1.48A1.38,1.38,0,0,0,66.85,41l0-8.32a1.39,1.39,0,0,0-1.07-1.36l-7.24-1.59A24.13,24.13,0,0,0,57,25.81l4.39-6a1.39,1.39,0,0,0-.1-1.72l-5.49-6.25a1.35,1.35,0,0,0-1-.46,1.42,1.42,0,0,0-.69.18l-6.76,4c-.56-.32-1.1-.64-1.72-.92s-1.21-.47-1.82-.68L42.34,6.24a1.4,1.4,0,0,0-.84-1A1.56,1.56,0,0,0,41,5.14Z"/></g></g></svg>