<svg xmlns="http://www.w3.org/2000/svg" viewBox="0 0 72 72"><defs><style>.cls-1{fill:#46c795;}.cls-2{fill:#fff;}</style></defs><g id="Layer_2" data-name="Layer 2"><g id="Layer_5" data-name="Layer 5"><circle class="cls-1" cx="36" cy="36" r="36"/><path class="cls-2" d="M41.11,6.32h0m-.13,0,1.45,7.61.16.85.82.29.27.09a15.12,15.12,0,0,1,1.43.54c.45.2.88.45,1.34.71l.25.14.75.43.75-.45,6.66-3.94,5.37,6.11-4.32,5.91-.53.72.39.82a21.65,21.65,0,0,1,1.39,3.67l.25.87.88.2,7.13,1.56,0,8.13L57.85,42,57,42.2l-.29.81,0,.11c-.2.55-.38,1.07-.61,1.57s-.5,1-.79,1.53l-.05.08-.41.75.44.74,3.92,6.66-6.11,5.36L47.18,55.5,46.46,55l-.82.39A21.65,21.65,0,0,1,42,56.75L41.1,57l-.2.88L39.33,65l-8.13,0-1.47-7.62-.16-.84-.81-.29-.13,0c-.54-.19-1.06-.37-1.55-.59s-1-.49-1.47-.77l-.12-.07-.75-.41-.74.44-6.68,3.94L12,52.68l4.32-5.92L16.8,46l-.39-.81A22.08,22.08,0,0,1,15,41.55l-.25-.87-.88-.19L6.76,38.92l0-8.13,7.59-1.46.84-.16.29-.81,0-.08c.2-.57.39-1.1.62-1.62s.5-1,.78-1.48l.05-.11.42-.75-.44-.74L13,16.92l6.11-5.36L25,15.87l.72.53.81-.39a22.08,22.08,0,0,1,3.68-1.39l.87-.25.19-.88,1.58-7.14,8.13,0m.13-1.5h0l-8.33,0h0a1.37,1.37,0,0,0-1.34,1.06l-1.6,7.26a23.89,23.89,0,0,0-3.93,1.49l-6-4.38a1.38,1.38,0,0,0-.8-.25,1.39,1.39,0,0,0-.92.35l-6.26,5.49a1.39,1.39,0,0,0-.28,1.72l4,6.75c-.31.56-.62,1.11-.88,1.71s-.49,1.2-.7,1.81L6.34,29.34a1.37,1.37,0,0,0-1.1,1.34l0,8.33a1.38,1.38,0,0,0,1.07,1.35L13.57,42a23.89,23.89,0,0,0,1.49,3.93l-4.39,6a1.38,1.38,0,0,0,.1,1.72l5.49,6.26a1.39,1.39,0,0,0,1,.46,1.42,1.42,0,0,0,.69-.18l6.78-4c.56.31,1.11.62,1.71.88s1.18.48,1.79.69l1.49,7.74a1.37,1.37,0,0,0,1.34,1.1l8.33,0h0a1.38,1.38,0,0,0,1.34-1.07l1.6-7.26a23.89,23.89,0,0,0,3.93-1.49l6,4.38a1.38,1.38,0,0,0,.8.25A1.34,1.34,0,0,0,54,61l6.26-5.49a1.4,1.4,0,0,0,.28-1.72l-4-6.75c.31-.57.62-1.13.89-1.73s.48-1.18.69-1.79L65.84,42a1.37,1.37,0,0,0,1.1-1.34l0-8.33A1.39,1.39,0,0,0,65.85,31l-7.24-1.59a23.89,23.89,0,0,0-1.49-3.93l4.39-6a1.38,1.38,0,0,0-.1-1.72l-5.49-6.26a1.39,1.39,0,0,0-1-.46,1.42,1.42,0,0,0-.69.18l-6.76,4c-.56-.31-1.1-.64-1.72-.91a19.2,19.2,0,0,0-1.82-.68L42.43,5.92a1.37,1.37,0,0,0-.84-1h0a1.32,1.32,0,0,0-.48-.09Z"/><path class="cls-2" d="M24,32.72H16.82a.29.29,0,0,0-.22.1l-.43.54c0,.06,0,.1.06.1l7.26,0a.3.3,0,0,0,.2-.12l.34-.52C24.07,32.78,24.05,32.72,24,32.72Z"/><path class="cls-2" d="M22.93,34.56H13.79a.29.29,0,0,0-.22.1l-.42.55c0,.06,0,.1.06.1l9.48,0a.17.17,0,0,0,.18-.12l.16-.49A.09.09,0,0,0,22.93,34.56Z"/><path class="cls-2" d="M22.49,36.41h-4a.27.27,0,0,0-.2.12L18,37c0,.06,0,.12.06.12l4.37,0a.15.15,0,0,0,.14-.14l0-.48C22.61,36.47,22.57,36.41,22.49,36.41Z"/><path class="cls-2" d="M54.2,34.64a6.23,6.23,0,0,0-2.82-4.46,7.41,7.41,0,0,0-5.71-1,8.89,8.89,0,0,0-7,6H32.22a.54.54,0,0,0-.5.32c-.28.52-.76,1.56-1,2.18-.14.34,0,.6.38.6H35c-.2.28-.36.52-.54.74A3.71,3.71,0,0,1,31,40.27a3.14,3.14,0,0,1-2.7-3.14,4.27,4.27,0,0,1,2-3.81A3.49,3.49,0,0,1,34,33a2.68,2.68,0,0,1,.94.76c.26.3.28.28.58.2,1.24-.32,2.1-.56,3.37-.88.24-.06.32-.16.2-.34a6.36,6.36,0,0,0-2.33-2.82,6.87,6.87,0,0,0-5.31-1,8.91,8.91,0,0,0-5.61,3.47,7.87,7.87,0,0,0-1.7,5.87,6.3,6.3,0,0,0,2.54,4.45A7.12,7.12,0,0,0,32,44.06a8.33,8.33,0,0,0,5.71-3.4,9.31,9.31,0,0,0,.85-1.36,6.2,6.2,0,0,0,2,3.12,7.51,7.51,0,0,0,4.89,1.76c.52-.06,1.06-.08,1.6-.18a9.19,9.19,0,0,0,4.81-2.56A7.76,7.76,0,0,0,54.2,34.64Zm-6.49,5.27a3.67,3.67,0,0,1-3.26.12,3.29,3.29,0,0,1-1.85-3.78,4.38,4.38,0,0,1,3.51-3.49,3.3,3.3,0,0,1,4.09,2.67,5.76,5.76,0,0,1,.06.66A4.39,4.39,0,0,1,47.71,39.91Z"/></g></g></svg>