<svg xmlns="http://www.w3.org/2000/svg" viewBox="0 0 72 72"><defs><style>.cls-1{fill:#46c795;}.cls-2{fill:#fff;}</style></defs><g id="Layer_2" data-name="Layer 2"><g id="Layer_5" data-name="Layer 5"><circle class="cls-1" cx="36" cy="36" r="36"/><path class="cls-2" d="M41.16,5.84h0m-.13,0,1.45,7.6.16.86.82.28.27.09a14,14,0,0,1,1.42.54c.46.21.89.45,1.35.71l.24.14.76.43.75-.44,6.66-4,5.37,6.11L56,24.12l-.53.73.39.81a22.08,22.08,0,0,1,1.39,3.68l.24.87.88.19L65.46,32l0,8.14L57.9,41.56l-.85.16-.28.81,0,.1c-.2.55-.38,1.07-.61,1.57s-.5,1-.8,1.54l0,.07-.41.76.43.73L59.23,54l-6.11,5.36L47.23,55l-.73-.54-.81.4A21.75,21.75,0,0,1,42,56.27l-.86.24-.2.88-1.57,7.15-8.13,0-1.47-7.62-.17-.84-.8-.29-.13,0c-.55-.2-1.06-.38-1.55-.6s-1-.48-1.47-.76l-.12-.07-.75-.42-.74.44L17.36,58.3,12,52.19l4.32-5.91.53-.73-.4-.81a22.08,22.08,0,0,1-1.39-3.68l-.24-.87L13.94,40,6.81,38.44l0-8.13,7.59-1.47.84-.16.29-.81,0-.08c.2-.56.39-1.1.62-1.61s.49-1,.77-1.49l.06-.1.42-.75L17,23.1,13,16.44l6.11-5.36L25,15.38l.73.54.81-.4a22.08,22.08,0,0,1,3.68-1.39l.87-.24.19-.88L32.9,5.86l8.13,0m.13-1.5h0l-8.32,0h0a1.37,1.37,0,0,0-1.34,1.07l-1.6,7.26a23,23,0,0,0-3.93,1.48l-6-4.37a1.38,1.38,0,0,0-.79-.26,1.4,1.4,0,0,0-.93.35L12,15.38a1.39,1.39,0,0,0-.28,1.72l4,6.76c-.31.56-.62,1.11-.89,1.7s-.48,1.2-.69,1.81L6.39,28.85a1.38,1.38,0,0,0-1.1,1.35l0,8.32a1.39,1.39,0,0,0,1.07,1.36l7.24,1.59a22.88,22.88,0,0,0,1.48,3.92l-4.38,6a1.39,1.39,0,0,0,.1,1.72l5.49,6.25a1.34,1.34,0,0,0,1,.46,1.29,1.29,0,0,0,.68-.18l6.79-4c.56.31,1.11.62,1.7.89s1.19.47,1.79.69L29.8,65a1.37,1.37,0,0,0,1.34,1.1l8.32,0h0A1.38,1.38,0,0,0,40.82,65l1.6-7.26a23.3,23.3,0,0,0,3.93-1.48l6,4.37a1.37,1.37,0,0,0,1.72-.09L60.31,55a1.37,1.37,0,0,0,.27-1.71l-4-6.76c.32-.57.63-1.12.9-1.72s.47-1.19.69-1.79l7.7-1.48A1.4,1.4,0,0,0,67,40.2l0-8.32a1.37,1.37,0,0,0-1.06-1.36l-7.24-1.59A24.13,24.13,0,0,0,57.17,25l4.38-6a1.37,1.37,0,0,0-.09-1.72L56,11a1.35,1.35,0,0,0-1-.46,1.42,1.42,0,0,0-.69.18l-6.77,4c-.55-.32-1.1-.64-1.71-.92s-1.21-.47-1.82-.68L42.48,5.44a1.4,1.4,0,0,0-.84-1h0a1.61,1.61,0,0,0-.48-.08Z"/><rect class="cls-2" x="21.32" y="33.09" width="1.71" height="10.2"/><path class="cls-2" d="M22.18,29.24a1.06,1.06,0,0,0-1.06,1.06,1.08,1.08,0,0,0,1.06,1.07,1.09,1.09,0,0,0,1.08-1.07A1.08,1.08,0,0,0,22.18,29.24Z"/><path class="cls-2" d="M32.44,26.86c-4.51,0-7.35,3.23-7.35,8.35s2.84,8.33,7.35,8.33,7.34-3.21,7.34-8.33S36.94,26.86,32.44,26.86Zm0,15.26c-3.55,0-5.77-2.68-5.77-6.91s2.22-6.93,5.77-6.93,5.78,2.68,5.78,6.93S36,42.12,32.44,42.12Z"/><path class="cls-2" d="M48.54,34.52l-1.75-.44c-2.38-.61-3.38-1.42-3.38-2.81,0-1.78,1.66-3,3.9-3s3.91,1.22,4.06,3H52.9c-.1-2.57-2.39-4.43-5.55-4.43s-5.54,1.86-5.54,4.47c0,2.14,1.34,3.4,4.34,4.16l2,.52c2.4.6,3.45,1.5,3.45,3,0,1.82-1.74,3.14-4.16,3.14s-4.36-1.32-4.54-3.25H41.37c.16,2.78,2.54,4.64,5.92,4.64h0c3.59,0,5.87-1.86,5.87-4.7C53.16,36.59,51.8,35.34,48.54,34.52Z"/></g></g></svg>