<svg xmlns="http://www.w3.org/2000/svg" viewBox="0 0 72 72"><defs><style>.cls-1{fill:#46c795;}.cls-2{fill:#fff;}</style></defs><g id="Layer_2" data-name="Layer 2"><g id="Layer_5" data-name="Layer 5"><circle class="cls-1" cx="36" cy="36" r="36"/><path class="cls-2" d="M41.06,6.32h0m-.13,0,1.45,7.61.17.85.82.29.27.09c.49.17,1,.33,1.42.54a13.3,13.3,0,0,1,1.34.71l.25.14.76.43.74-.45,6.67-3.94,5.36,6.11-4.32,5.91-.53.72.39.82a21.69,21.69,0,0,1,1.4,3.67l.24.87.88.2,7.13,1.56,0,8.13L57.8,42,57,42.2l-.29.81,0,.11c-.19.55-.38,1.06-.6,1.57s-.51,1-.8,1.53l0,.08-.42.75.44.74,3.93,6.66L53,59.81,47.14,55.5,46.41,55l-.81.39a22.08,22.08,0,0,1-3.68,1.39l-.87.25-.19.88L39.28,65l-8.13,0-1.47-7.62-.16-.84-.81-.29-.13,0c-.54-.19-1-.37-1.55-.59s-1-.49-1.47-.77l-.12-.07-.75-.41-.74.44-6.68,3.94L11.9,52.68l4.32-5.92.53-.72-.39-.81A22.08,22.08,0,0,1,15,41.55l-.25-.87-.88-.19L6.72,38.92l0-8.13,7.59-1.46.85-.16.28-.81,0-.08c.2-.57.39-1.1.63-1.62s.49-1,.77-1.48l.06-.11.41-.75-.43-.74L13,16.92l6.11-5.36L25,15.87l.73.53.81-.39a21.75,21.75,0,0,1,3.68-1.39l.86-.25.2-.88L32.8,6.35l8.13,0m.13-1.5h0l-8.33,0h0a1.38,1.38,0,0,0-1.34,1.06l-1.6,7.26a23.89,23.89,0,0,0-3.93,1.49l-6-4.38a1.38,1.38,0,0,0-.8-.25,1.39,1.39,0,0,0-.92.35l-6.26,5.49a1.38,1.38,0,0,0-.27,1.72l4,6.75c-.3.56-.61,1.11-.88,1.71s-.48,1.2-.7,1.81L6.29,29.34a1.37,1.37,0,0,0-1.1,1.34l0,8.33a1.36,1.36,0,0,0,1.06,1.35L13.52,42A23.89,23.89,0,0,0,15,45.88l-4.39,6a1.38,1.38,0,0,0,.1,1.72l5.49,6.26a1.39,1.39,0,0,0,1,.46,1.42,1.42,0,0,0,.69-.18l6.79-4c.56.31,1.11.62,1.7.88s1.19.48,1.79.69l1.49,7.74a1.37,1.37,0,0,0,1.35,1.1l8.32,0h0a1.38,1.38,0,0,0,1.34-1.07l1.6-7.26a23.89,23.89,0,0,0,3.93-1.49l6,4.38A1.41,1.41,0,0,0,54,61l6.25-5.49a1.39,1.39,0,0,0,.28-1.72L56.5,47c.31-.57.62-1.13.89-1.73s.48-1.18.69-1.79L65.79,42a1.37,1.37,0,0,0,1.1-1.34l0-8.33A1.39,1.39,0,0,0,65.8,31l-7.24-1.59a23,23,0,0,0-1.49-3.93l4.39-6a1.38,1.38,0,0,0-.1-1.72l-5.49-6.26a1.39,1.39,0,0,0-1-.46,1.45,1.45,0,0,0-.69.18l-6.76,4c-.56-.31-1.1-.64-1.71-.91s-1.22-.47-1.82-.68L42.38,5.92a1.35,1.35,0,0,0-.84-1h0a1.28,1.28,0,0,0-.48-.09Z"/><path class="cls-2" d="M22.27,21.91V49.46H49.82V21.91Zm15,21.48c0,2.68-1.57,3.9-3.87,3.9a4,4,0,0,1-3.88-2.36l2.11-1.28c.41.72.78,1.33,1.66,1.33s1.39-.33,1.39-1.62v-8.8h2.59Zm6.12,3.91a5,5,0,0,1-4.72-2.65l2.1-1.22A2.84,2.84,0,0,0,43.33,45c1.07,0,1.75-.54,1.75-1.28s-.7-1.2-1.88-1.71l-.65-.28c-1.86-.8-3.11-1.8-3.11-3.9,0-1.94,1.48-3.42,3.8-3.42a3.83,3.83,0,0,1,3.68,2.07l-2,1.29a1.75,1.75,0,0,0-1.66-1.1A1.12,1.12,0,0,0,42,37.77c0,.78.48,1.1,1.59,1.58l.65.27c2.19,1,3.44,1.91,3.44,4.07C47.68,46,45.85,47.3,43.39,47.3Z"/></g></g></svg>