<svg xmlns="http://www.w3.org/2000/svg" viewBox="0 0 72.6 72.6"><defs><style>.cls-1{fill:#fff;}.cls-2{fill:#46c795;}</style></defs><g id="Layer_2" data-name="Layer 2"><g id="Layer_5" data-name="Layer 5"><circle class="cls-1" cx="36.3" cy="36.3" r="36"/><path class="cls-2" d="M36.3,1.5A34.8,34.8,0,1,1,1.5,36.3,34.8,34.8,0,0,1,36.3,1.5m0-1.5A36.3,36.3,0,1,0,72.6,36.3,36.34,36.34,0,0,0,36.3,0Z"/><path class="cls-2" d="M33.19,69.13h6.23a1,1,0,0,1,.8.46h0l.66,1.15.49-.07-.76-1.32v0a1,1,0,0,1,0-.9v0L43.74,63v0a1,1,0,0,1,.73-.44h6.38a1,1,0,0,1,.73.45h0l2,3.44.39-.24-2-3.4a1,1,0,0,1,0-1l3.09-5.36a1,1,0,0,1,.78-.49h6.32a1,1,0,0,1,.78.47l.7,1.23c.11-.13.21-.26.31-.4l-.6-1v0a.94.94,0,0,1,0-.92h0L66.5,49.9a1,1,0,0,1,.84-.48h1.15c.07-.15.13-.3.19-.45H67.34a1,1,0,0,1-.85-.49l-3.1-5.38a1,1,0,0,1,0-1l3.1-5.37a1,1,0,0,1,.78-.49h3.79v-.46H67.25a1,1,0,0,1-.74-.46h0L63.4,30a1,1,0,0,1,0-1l3.1-5.37a1,1,0,0,1,.59-.45,1.1,1.1,0,0,0,.31,0h1.12c-.07-.17-.14-.35-.22-.52h-1a.9.9,0,0,0-.23,0,1.08,1.08,0,0,1-.56-.45l-3.1-5.38v0a1,1,0,0,1,0-.94l.45-.77-.37-.47-.56,1a1,1,0,0,1-.84.47H56a1,1,0,0,1-.74-.33l0-.06L51.71,9.82l2.07-3.59L53.39,6,51.62,9.06a1,1,0,0,1-.85.5H44.55a1,1,0,0,1-.81-.47h0l-3.11-5.4v0a1,1,0,0,1,0-.9v0l.51-.88-.48-.06-.41.7v0a1,1,0,0,1-.81.47H33.2a1,1,0,0,1-.84-.49L32,1.8l-.49.06.5.87a1,1,0,0,1,0,1L28.87,9.06a1,1,0,0,1-.83.5H21.8a1,1,0,0,1-.8-.47h0L19.21,6l-.39.22,1.79,3.09v0a1,1,0,0,1,0,.89v0l-3.12,5.4a1,1,0,0,1-.84.47h-6.2a1,1,0,0,1-.78-.38l0-.05-.58-1-.31.39.46.79a1,1,0,0,1,0,1L6.11,22.2a1,1,0,0,1-.82.49h-1l-.19.46H5.27a1,1,0,0,1,.74.34l0,.06L9.21,29a1,1,0,0,1,0,1L6.1,35.36a1,1,0,0,1-.71.46H1.54v.46H5.3a1,1,0,0,1,.81.48L9.2,42.14a1,1,0,0,1,0,1l-3.1,5.38a1,1,0,0,1-.84.48H3.92c.06.15.12.3.19.45H5.29a1,1,0,0,1,.81.47l3.1,5.38,0,.07a.93.93,0,0,1,0,.86v0L8.61,57.3l.3.39.7-1.21a1,1,0,0,1,.74-.48H16.7a1,1,0,0,1,.79.48l3.11,5.39v0a1,1,0,0,1,0,.89v0l-2,3.42.39.24L21,63a1,1,0,0,1,.75-.48H28a1,1,0,0,1,.82.46L32,68.4a1,1,0,0,1,0,1l-.75,1.29.49.07.65-1.13A1,1,0,0,1,33.19,69.13ZM54.71,56.25l-3.09,5.36a1,1,0,0,1-.78.49h-6.3a1,1,0,0,1-.81-.49l-3.1-5.38,0,0a1,1,0,0,1,0-.88l0,0,3.1-5.38,0,0a1,1,0,0,1,.8-.47h6.22a1,1,0,0,1,.68.27l.09.08,3.17,5.5A1,1,0,0,1,54.71,56.25Zm.07-14a1,1,0,0,1,0,.75l0,0-3.12,5.4a1,1,0,0,1-.85.5H44.55a1,1,0,0,1-.82-.48l-3.11-5.39,0,0a1,1,0,0,1,0-.87l0,0,3.12-5.4a1,1,0,0,1,.77-.47h6.3a1,1,0,0,1,.78.44v0l3.08,5.33,0,0,0,.08,0,.05v0Zm-14.54-.36v0a1,1,0,0,1-.81.47H33.2a1,1,0,0,1-.84-.49l0,0-3.06-5.32a1,1,0,0,1,0-1l3.1-5.36a1,1,0,0,1,.75-.49h6.37a1,1,0,0,1,.75.47l3.12,5.4v0a1,1,0,0,1,0,.91h0Zm10.63-6.08H44.52a1,1,0,0,1-.79-.49L40.63,30l0,0a1,1,0,0,1,0-.88l0,0,3.11-5.39a1,1,0,0,1,.84-.48h6.19a1,1,0,0,1,.81.44l0,0L54.72,29a1,1,0,0,1,0,1l-3.1,5.37A1,1,0,0,1,50.87,35.83ZM43.36,23.38v0l-3.12,5.4,0,0a1,1,0,0,1-.72.43h-6.3a1,1,0,0,1-.66-.26h0l-3.27-5.59a1,1,0,0,1,0-1l.07-.11,3-5.19h0l0-.06a1,1,0,0,1,.82-.48h6.27a1,1,0,0,1,.78.48l3.11,5.38h0v0A1,1,0,0,1,43.36,23.38Zm-11.1,6.09-3.4,5.88a1,1,0,0,1-.75.48H21.74a1,1,0,0,1-.74-.46h0L17.88,30v0a1,1,0,0,1,0-.92h0L21,23.65a1,1,0,0,1,.84-.5H28a1,1,0,0,1,.72.32l.06.07Zm-10.5,6.82h6.3a1,1,0,0,1,.8.48L32,42.13a1,1,0,0,1,0,1l-3.09,5.36A1,1,0,0,1,28,49H21.8a1,1,0,0,1-.82-.48l-3.11-5.39v0a1,1,0,0,1,0-.87v0L21,36.78A1,1,0,0,1,21.76,36.29Zm7.49,12.44,3.1-5.37a1,1,0,0,1,.85-.5h6.25a1,1,0,0,1,.79.49l3.11,5.38v0a1,1,0,0,1,0,.91h0l-3.12,5.4,0,0a1,1,0,0,1-.69.42H33.17a1,1,0,0,1-.81-.47v0l0,0-3.08-5.32A1,1,0,0,1,29.25,48.73Zm36.84,0a1,1,0,0,1,0,1L63,55.06a1,1,0,0,1-.72.47H55.92a1,1,0,0,1-.8-.47L52,49.69l0-.07a1,1,0,0,1,0-.87v0l3.11-5.38a1,1,0,0,1,.85-.49h6.19a1,1,0,0,1,.84.49Zm0-13.14v0a.94.94,0,0,1,0,.92h0L63,41.93a1,1,0,0,1-.84.47H56a1,1,0,0,1-.73-.32L55.17,42,52,36.55a1,1,0,0,1,0-1l3.09-5.36a1,1,0,0,1,.78-.49h6.32a1,1,0,0,1,.78.47Zm-10.17-19h6.25a1,1,0,0,1,.83.5l3.1,5.37v0a1,1,0,0,1,0,.94L63,28.78a1,1,0,0,1-.75.48H55.92a1,1,0,0,1-.79-.46L52,23.4a.94.94,0,0,1,0-1l3.09-5.37A1,1,0,0,1,55.92,16.58ZM44.52,10h6.27a1,1,0,0,1,.65.27h0l3.28,5.57,0,.05v0a1,1,0,0,1,0,.8l-.09.12-3.06,5.3a.47.47,0,0,1,0,.1l0,.06a1,1,0,0,1-.78.39H44.52a1,1,0,0,1-.76-.44.43.43,0,0,1,0-.07l-3.08-5.33-.06-.09-.23-.4,3.37-5.85A1,1,0,0,1,44.52,10ZM32.35,3.94a1,1,0,0,1,.84-.49h6.23a1,1,0,0,1,.8.46h0l3.1,5.38v0a1,1,0,0,1,0,.93h0l-3.11,5.39a1,1,0,0,1-.84.47H33.2a1,1,0,0,1-.84-.49l0,0L29,9.81Zm-14.48,12v0L21,10.51a1,1,0,0,1,.79-.5H28a1,1,0,0,1,.67.27h0L32,15.86a1,1,0,0,1,0,1L28.87,22.2a1,1,0,0,1-.83.49H21.78a1,1,0,0,1-.8-.49l-3.11-5.38h0A1,1,0,0,1,17.87,15.9ZM6.52,23.43h0v0l0-.08v0a1,1,0,0,1,0-.74l0,0,0,0,3.06-5.31v0l0-.05a1,1,0,0,1,.82-.48H16.7a1,1,0,0,1,.74.41h0l3.15,5.44a.21.21,0,0,0,0,.06v0a1,1,0,0,1-.05.87l-3.12,5.4,0,0a1,1,0,0,1-.74.43H10.35a1,1,0,0,1-.67-.38l0,0Zm0,13.11a1,1,0,0,1,0-1l3.11-5.37a1,1,0,0,1,.75-.49H16.7a1,1,0,0,1,.79.49L20.6,35.6v0a1,1,0,0,1,0,.88v0l-3.11,5.39,0,0a1,1,0,0,1-.8.47H10.45A1,1,0,0,1,9.64,42l0,0Zm11,18.54,0,0a1,1,0,0,1-.74.43h-6.3a1,1,0,0,1-.64-.27l-.09-.08L6.5,49.69a1,1,0,0,1,0-1l3.09-5.35a1,1,0,0,1,.85-.5H16.7a1,1,0,0,1,.8.5l3.1,5.38v0a1,1,0,0,1,0,.87v0Zm10.61,7H21.76a1,1,0,0,1-.77-.47l-3.11-5.38v0a1,1,0,0,1,0-.92h0L21,49.89v0a1,1,0,0,1,.77-.45h6.28a1,1,0,0,1,.8.47L32,55.27a1,1,0,0,1,0,1l-3.09,5.36A1,1,0,0,1,28.08,62.1Zm1.19.72a1,1,0,0,1,0-1l3.1-5.36a1,1,0,0,1,.75-.49h6.35a1,1,0,0,1,.77.47l3.11,5.38v0a.94.94,0,0,1,0,.92h0l-3.11,5.38v0a1,1,0,0,1-.81.47H33.2a1,1,0,0,1-.84-.49Z"/><path d="M24.15,33a1.84,1.84,0,0,1,0,.26.47.47,0,0,1-.06.19.25.25,0,0,1-.09.11l-.12,0H18.7a.55.55,0,0,1-.36-.13.53.53,0,0,1-.17-.45V23.43a.54.54,0,0,1,.17-.45.55.55,0,0,1,.36-.13h5.1l.12,0A.33.33,0,0,1,24,23a.74.74,0,0,1,0,.19,2,2,0,0,1,0,.28,2,2,0,0,1,0,.26.78.78,0,0,1,0,.18.22.22,0,0,1-.09.1.19.19,0,0,1-.12,0H19.6v3.37h3.6a.16.16,0,0,1,.12,0,.18.18,0,0,1,.09.1.38.38,0,0,1,.06.18,2.35,2.35,0,0,1,0,.28,1.93,1.93,0,0,1,0,.25.48.48,0,0,1-.06.18.2.2,0,0,1-.09.09.21.21,0,0,1-.12,0H19.6V32.4h4.26a.28.28,0,0,1,.12,0,.22.22,0,0,1,.09.1.48.48,0,0,1,.06.18A2.16,2.16,0,0,1,24.15,33Z"/><path d="M32,25.9V26s0,.05,0,.08a.51.51,0,0,1,0,.09.26.26,0,0,1,0,.11l-2.54,7.09a.54.54,0,0,1-.09.15.35.35,0,0,1-.16.09,1,1,0,0,1-.28.05h-.41a2.56,2.56,0,0,1-.42,0l-.27,0a.49.49,0,0,1-.16-.1.28.28,0,0,1-.09-.14L25,26.25c0-.07,0-.13-.05-.18a.36.36,0,0,1,0-.11V25.9a.21.21,0,0,1,0-.12.24.24,0,0,1,.11-.08l.21,0H26a1,1,0,0,1,.22,0,.38.38,0,0,1,.12.09.63.63,0,0,1,.07.12l2.11,6.16,0,.1,0-.1,2.09-6.16a.23.23,0,0,1,.06-.12s.06-.06.12-.09a.87.87,0,0,1,.21,0h.68a.43.43,0,0,1,.19.05.16.16,0,0,1,.1.08A.18.18,0,0,1,32,25.9Z"/><path d="M39.8,29.33a.59.59,0,0,1-.16.46.56.56,0,0,1-.37.13H34.35A4.75,4.75,0,0,0,34.47,31a2.31,2.31,0,0,0,.42.86,1.94,1.94,0,0,0,.76.55,3.16,3.16,0,0,0,1.14.19,4.44,4.44,0,0,0,1-.09,5,5,0,0,0,.73-.2c.2-.07.37-.13.5-.19a.81.81,0,0,1,.29-.09.2.2,0,0,1,.11,0,.22.22,0,0,1,.07.09.57.57,0,0,1,0,.16,1.69,1.69,0,0,1,0,.25c0,.08,0,.14,0,.19s0,.1,0,.14a.36.36,0,0,1,0,.11.39.39,0,0,1-.08.1,1.25,1.25,0,0,1-.27.15,3.21,3.21,0,0,1-.58.2,6.79,6.79,0,0,1-.82.18,6.43,6.43,0,0,1-1,.08,4.66,4.66,0,0,1-1.62-.26,3,3,0,0,1-1.17-.76,3.33,3.33,0,0,1-.71-1.27,5.94,5.94,0,0,1-.24-1.78A5.48,5.48,0,0,1,33.18,28a3.42,3.42,0,0,1,.72-1.3A3.08,3.08,0,0,1,35,25.83a3.74,3.74,0,0,1,1.49-.29,3.54,3.54,0,0,1,1.49.28,2.82,2.82,0,0,1,1,.76,3.08,3.08,0,0,1,.59,1.12,5.11,5.11,0,0,1,.18,1.38Zm-1.38-.41a2.44,2.44,0,0,0-.48-1.69,1.81,1.81,0,0,0-1.49-.62,2,2,0,0,0-.9.19,2,2,0,0,0-.64.51,2.24,2.24,0,0,0-.4.73,2.86,2.86,0,0,0-.16.88Z"/><path d="M48.32,33.38a.21.21,0,0,1,0,.12l-.11.08a.87.87,0,0,1-.21,0,1.62,1.62,0,0,1-.33,0,1.67,1.67,0,0,1-.34,0,.87.87,0,0,1-.21,0L47,33.5a.21.21,0,0,1,0-.12V29a4.11,4.11,0,0,0-.1-1,2.16,2.16,0,0,0-.29-.67,1.27,1.27,0,0,0-.49-.43,1.61,1.61,0,0,0-.71-.15,1.76,1.76,0,0,0-1,.36,5.41,5.41,0,0,0-1.08,1.07v5.22a.21.21,0,0,1,0,.12.35.35,0,0,1-.11.08.77.77,0,0,1-.2,0,2.9,2.9,0,0,1-.68,0l-.21,0c-.05,0-.09,0-.1-.08a.21.21,0,0,1,0-.12V25.91a.2.2,0,0,1,0-.11.21.21,0,0,1,.1-.08.48.48,0,0,1,.19,0h.61a.48.48,0,0,1,.19,0,.24.24,0,0,1,.09.08.2.2,0,0,1,0,.11v1a4.57,4.57,0,0,1,1.26-1,2.7,2.7,0,0,1,1.27-.33,2.79,2.79,0,0,1,1.25.25,2.32,2.32,0,0,1,.83.68,2.64,2.64,0,0,1,.45,1,6,6,0,0,1,.14,1.37Z"/><path d="M54.55,32.84a1.84,1.84,0,0,1,0,.38.41.41,0,0,1-.1.21.7.7,0,0,1-.2.12,2.11,2.11,0,0,1-.3.1l-.36.06-.38,0a3,3,0,0,1-1-.15,1.57,1.57,0,0,1-.68-.47,1.85,1.85,0,0,1-.39-.78A4.72,4.72,0,0,1,51,31.2V26.83h-1a.21.21,0,0,1-.2-.13.91.91,0,0,1-.08-.43,2.13,2.13,0,0,1,0-.27,1.07,1.07,0,0,1,.06-.17.18.18,0,0,1,.09-.1.21.21,0,0,1,.12,0h1V23.92a.23.23,0,0,1,0-.11.24.24,0,0,1,.11-.08.53.53,0,0,1,.21-.06H52a.52.52,0,0,1,.2.06.24.24,0,0,1,.11.08.23.23,0,0,1,0,.11V25.7h1.92a.24.24,0,0,1,.12,0,.21.21,0,0,1,.08.1.38.38,0,0,1,.06.17,2.13,2.13,0,0,1,0,.27.91.91,0,0,1-.08.43.22.22,0,0,1-.2.13H52.35V31a2.39,2.39,0,0,0,.23,1.17.87.87,0,0,0,.82.39,1.72,1.72,0,0,0,.34,0l.27-.08.19-.08a.34.34,0,0,1,.15,0l.08,0a.1.1,0,0,1,.06.08.53.53,0,0,1,0,.16A1.57,1.57,0,0,1,54.55,32.84Z"/><path d="M29.73,49.38a.2.2,0,0,1,0,.11.18.18,0,0,1-.12.08,1,1,0,0,1-.22,0l-.34,0-.34,0a.8.8,0,0,1-.22,0,.18.18,0,0,1-.12-.08.2.2,0,0,1,0-.11V40h0l-3.79,9.4a.23.23,0,0,1-.07.1.5.5,0,0,1-.13.07l-.21,0h-.28a1.32,1.32,0,0,1-.3,0l-.21,0a.4.4,0,0,1-.13-.07.24.24,0,0,1-.06-.09L19.49,40h0v9.36a.2.2,0,0,1,0,.11.21.21,0,0,1-.12.08,1,1,0,0,1-.22,0l-.35,0-.35,0a.81.81,0,0,1-.21,0,.18.18,0,0,1-.12-.08.2.2,0,0,1,0-.11V39.5a.59.59,0,0,1,.6-.65h.88a2.12,2.12,0,0,1,.47,0,1.07,1.07,0,0,1,.36.16.93.93,0,0,1,.25.27,2.38,2.38,0,0,1,.18.39l3.07,7.78h0l3.19-7.75a2.46,2.46,0,0,1,.21-.43.91.91,0,0,1,.24-.27.73.73,0,0,1,.29-.15,1.32,1.32,0,0,1,.37,0h.92a.67.67,0,0,1,.24,0,.45.45,0,0,1,.19.11.53.53,0,0,1,.13.2.67.67,0,0,1,.05.3Z"/><path d="M38.81,45.33a.59.59,0,0,1-.17.46.54.54,0,0,1-.37.13H33.35A4.25,4.25,0,0,0,33.48,47a2.15,2.15,0,0,0,.41.86,1.94,1.94,0,0,0,.76.55,3.25,3.25,0,0,0,1.15.19,4.83,4.83,0,0,0,1.67-.29c.2-.07.37-.13.5-.19a.79.79,0,0,1,.3-.09.19.19,0,0,1,.1,0,.22.22,0,0,1,.07.09.53.53,0,0,1,0,.16,1.85,1.85,0,0,1,0,.25,1,1,0,0,1,0,.19.59.59,0,0,1,0,.14.46.46,0,0,1-.11.21,1.25,1.25,0,0,1-.27.15,3.51,3.51,0,0,1-.58.2,7,7,0,0,1-.83.18,6.33,6.33,0,0,1-1,.08,4.7,4.7,0,0,1-1.62-.26,2.9,2.9,0,0,1-1.16-.76,3.35,3.35,0,0,1-.72-1.27,5.94,5.94,0,0,1-.24-1.78A5.78,5.78,0,0,1,32.18,44a3.71,3.71,0,0,1,.72-1.3A3.08,3.08,0,0,1,34,41.83a3.77,3.77,0,0,1,1.49-.29,3.56,3.56,0,0,1,1.5.28,2.78,2.78,0,0,1,1,.76,2.94,2.94,0,0,1,.59,1.12,5.11,5.11,0,0,1,.19,1.38Zm-1.38-.41A2.44,2.44,0,0,0,37,43.23a1.84,1.84,0,0,0-1.5-.62,1.91,1.91,0,0,0-.89.19,2,2,0,0,0-.65.51,2.45,2.45,0,0,0-.4.73,3.19,3.19,0,0,0-.16.88Z"/><path d="M45.58,47.35a2.38,2.38,0,0,1-.21,1,2.11,2.11,0,0,1-.6.76,2.7,2.7,0,0,1-.93.46,4.08,4.08,0,0,1-1.19.16,4.59,4.59,0,0,1-.76-.06,4.76,4.76,0,0,1-.65-.16,2.78,2.78,0,0,1-.48-.2,1.11,1.11,0,0,1-.29-.19.48.48,0,0,1-.14-.23,2,2,0,0,1,0-.41,1.84,1.84,0,0,1,0-.26.8.8,0,0,1,0-.18.22.22,0,0,1,.07-.09.19.19,0,0,1,.1,0,.63.63,0,0,1,.28.11,3.81,3.81,0,0,0,.43.25,4,4,0,0,0,.62.24,2.58,2.58,0,0,0,.82.11,2.51,2.51,0,0,0,.64-.07,1.56,1.56,0,0,0,.49-.22,1.14,1.14,0,0,0,.32-.37,1.25,1.25,0,0,0,.11-.53.9.9,0,0,0-.16-.53,1.59,1.59,0,0,0-.43-.38,3.36,3.36,0,0,0-.6-.3L42.36,46a5.42,5.42,0,0,1-.69-.32,2.68,2.68,0,0,1-.61-.43,2.26,2.26,0,0,1-.42-.62,2,2,0,0,1-.17-.85,2.06,2.06,0,0,1,.18-.85,1.91,1.91,0,0,1,.51-.7,2.5,2.5,0,0,1,.85-.49,3.55,3.55,0,0,1,1.19-.18,4,4,0,0,1,.6.05,4.28,4.28,0,0,1,.54.12,2.67,2.67,0,0,1,.41.17A1.25,1.25,0,0,1,45,42a.34.34,0,0,1,.12.12.36.36,0,0,1,0,.11s0,.09,0,.15,0,.14,0,.23,0,.17,0,.24a.58.58,0,0,1,0,.17.15.15,0,0,1-.07.1.12.12,0,0,1-.09,0,.48.48,0,0,1-.21-.1l-.37-.19a3.49,3.49,0,0,0-.53-.2,2.4,2.4,0,0,0-.69-.09,2.2,2.2,0,0,0-.61.08,1.08,1.08,0,0,0-.44.23,1,1,0,0,0-.26.34,1.22,1.22,0,0,0-.08.43.9.9,0,0,0,.16.55,1.77,1.77,0,0,0,.43.38,3.85,3.85,0,0,0,.61.3l.69.27c.24.1.47.2.7.32a3,3,0,0,1,.61.42,2,2,0,0,1,.43.6A1.92,1.92,0,0,1,45.58,47.35Z"/><path d="M54,49.38a.21.21,0,0,1,0,.12.35.35,0,0,1-.11.08.87.87,0,0,1-.21,0,1.57,1.57,0,0,1-.33,0,1.67,1.67,0,0,1-.34,0,.87.87,0,0,1-.21,0,.29.29,0,0,1-.1-.08.16.16,0,0,1,0-.12V45a4.11,4.11,0,0,0-.1-1,1.94,1.94,0,0,0-.29-.67,1.2,1.2,0,0,0-.49-.43,1.57,1.57,0,0,0-.7-.15,1.77,1.77,0,0,0-1,.36,5.68,5.68,0,0,0-1.08,1.07v5.22a.21.21,0,0,1,0,.12l-.11.08a.87.87,0,0,1-.21,0,1.67,1.67,0,0,1-.34,0,1.62,1.62,0,0,1-.33,0,.87.87,0,0,1-.21,0,.26.26,0,0,1-.11-.08.21.21,0,0,1,0-.12V38.29a.2.2,0,0,1,0-.11.16.16,0,0,1,.11-.08.54.54,0,0,1,.21-.05,1.62,1.62,0,0,1,.33,0,1.67,1.67,0,0,1,.34,0,.54.54,0,0,1,.21.05.23.23,0,0,1,.11.08.2.2,0,0,1,0,.11v4.48a4.25,4.25,0,0,1,1.19-.93,2.63,2.63,0,0,1,1.2-.3,2.8,2.8,0,0,1,1.26.25,2.29,2.29,0,0,1,.82.68,2.82,2.82,0,0,1,.46,1A6.1,6.1,0,0,1,54,44.84Z"/></g></g></svg>