<svg xmlns="http://www.w3.org/2000/svg" viewBox="0 0 72 72"><defs><style>.cls-1{fill:#46c795;}.cls-2{fill:#fff;}</style></defs><g id="Layer_2" data-name="Layer 2"><g id="Layer_5" data-name="Layer 5"><g id="Circles"><g id="PubSub_Broker_Manager" data-name="PubSub+ Broker Manager"><path class="cls-1" d="M72,36A36,36,0,1,1,36,0,36,36,0,0,1,72,36Z"/></g></g><g id="Icons"><g id="PubSub_Broker_Manager-2" data-name="PubSub+ Broker Manager"><path class="cls-2" d="M38.81,62.47H33.19a4.35,4.35,0,0,1-4.35-4.35V55a20.47,20.47,0,0,1-5.74-3.32l-2.68,1.54a4.32,4.32,0,0,1-5.93-1.59L11.67,46.8a4.36,4.36,0,0,1,1.59-5.94l2.68-1.54a19.82,19.82,0,0,1,0-6.64l-2.68-1.54a4.36,4.36,0,0,1-1.59-5.94l2.81-4.87a4.34,4.34,0,0,1,5.94-1.59l2.68,1.54A20.47,20.47,0,0,1,28.84,17V13.88a4.35,4.35,0,0,1,4.35-4.35h5.63a4.35,4.35,0,0,1,4.34,4.35V17a20.53,20.53,0,0,1,5.75,3.32l2.67-1.54a4.36,4.36,0,0,1,5.94,1.59l2.81,4.87a4.35,4.35,0,0,1-1.59,5.94l-2.68,1.54a19.82,19.82,0,0,1,0,6.64l2.68,1.54a4.35,4.35,0,0,1,1.59,5.94l-2.81,4.87a4.35,4.35,0,0,1-5.94,1.59L48.9,51.72A20.47,20.47,0,0,1,43.16,55v3.08A4.35,4.35,0,0,1,38.81,62.47ZM23.3,48a1.64,1.64,0,0,1,1.14.45A17.08,17.08,0,0,0,31,52.23a1.69,1.69,0,0,1,1.18,1.61v4.29a1,1,0,0,0,1,1h5.62a1,1,0,0,0,1-1V53.84A1.69,1.69,0,0,1,41,52.23a17.08,17.08,0,0,0,6.58-3.8,1.67,1.67,0,0,1,2-.22l3.72,2.14A1,1,0,0,0,54.61,50l2.81-4.87a1,1,0,0,0,.1-.75,1,1,0,0,0-.46-.59h0l-3.72-2.15a1.69,1.69,0,0,1-.8-1.83,16.59,16.59,0,0,0,0-7.59,1.68,1.68,0,0,1,.8-1.83l3.72-2.15a1,1,0,0,0,.46-.6,1,1,0,0,0-.1-.74L54.6,22a1,1,0,0,0-1.34-.36L49.54,23.8a1.67,1.67,0,0,1-2-.22A17.1,17.1,0,0,0,41,19.77a1.67,1.67,0,0,1-1.18-1.6V13.88a1,1,0,0,0-1-1H33.19a1,1,0,0,0-1,1v4.28A1.68,1.68,0,0,1,31,19.77a17.12,17.12,0,0,0-6.57,3.8,1.68,1.68,0,0,1-2,.23l-3.72-2.15a1,1,0,0,0-.75-.1,1,1,0,0,0-.6.46l-2.81,4.87a1,1,0,0,0-.1.75,1,1,0,0,0,.46.6l3.72,2.14a1.68,1.68,0,0,1,.79,1.83,17,17,0,0,0,0,7.6,1.68,1.68,0,0,1-.79,1.83l-3.72,2.14a1,1,0,0,0-.36,1.35L17.39,50a1,1,0,0,0,1.35.36l3.72-2.15A1.67,1.67,0,0,1,23.3,48Z"/><path class="cls-2" d="M36,46.69A10.69,10.69,0,1,1,46.69,36,10.7,10.7,0,0,1,36,46.69Zm0-18A7.33,7.33,0,1,0,43.33,36,7.34,7.34,0,0,0,36,28.67Z"/></g></g></g></g></svg>