<svg xmlns="http://www.w3.org/2000/svg" viewBox="0 0 72 72"><defs><style>.cls-1{fill:#46c795;}.cls-2{fill:#fff;}</style></defs><g id="Layer_2" data-name="Layer 2"><g id="Layer_5" data-name="Layer 5"><g id="Circles"><g id="PubSub_Mission_Control" data-name="PubSub+ Mission Control"><path id="PubSub_Mission_Control-2" data-name="PubSub+ Mission Control" class="cls-1" d="M36,72A36,36,0,1,1,72,36,36,36,0,0,1,36,72Z"/></g></g><g id="Icons"><g id="PubSub_Mission_Control-3" data-name="PubSub+ Mission Control"><path class="cls-2" d="M63.87,35.21l-9.53-5.5A.91.91,0,0,0,53,30.5v3.64H42.77a7,7,0,0,0-4.91-4.92V19H41.5a.91.91,0,0,0,.79-1.37l-5.5-9.52a.91.91,0,0,0-1.58,0l-5.5,9.52A.91.91,0,0,0,30.5,19h3.64v10.2a7.06,7.06,0,0,0-4.91,4.92H19V30.5a.91.91,0,0,0-1.36-.79l-9.53,5.5a.91.91,0,0,0,0,1.58l9.53,5.5A.91.91,0,0,0,19,41.5V37.86H29.23a7,7,0,0,0,4.91,4.92V53H30.5a.91.91,0,0,0-.79,1.37l5.5,9.52a.91.91,0,0,0,1.58,0l5.5-9.52A.91.91,0,0,0,41.5,53H37.86V42.78a7,7,0,0,0,4.92-4.92H53V41.5a.91.91,0,0,0,1.36.79l9.53-5.5A.91.91,0,0,0,63.87,35.21ZM36,39.19A3.19,3.19,0,1,1,39.18,36,3.19,3.19,0,0,1,36,39.19Z"/></g></g></g></g></svg>