<svg xmlns="http://www.w3.org/2000/svg" viewBox="0 0 72 72"><defs><style>.cls-1{fill:#46c795;}.cls-2{fill:#fff;}</style></defs><g id="Layer_2" data-name="Layer 2"><g id="Layer_5" data-name="Layer 5"><g id="Circles"><g id="PubSub_Monitor" data-name="PubSub+ Monitor"><path class="cls-1" d="M72,36A36,36,0,1,1,36,0,36,36,0,0,1,72,36Z"/></g></g><g id="Icons"><g id="PubSub_Monitor-2" data-name="PubSub+ Monitor"><path class="cls-2" d="M51.88,53.81H20.12a5.43,5.43,0,0,1-4.19-8.89A25.4,25.4,0,0,1,18.86,42c1.85-1.62,2.6-2.35,2.38-4-2.07-12.21,5.48-17.65,8.36-19.24V17.49a6.4,6.4,0,0,1,12.8,0v1.33c2.88,1.59,10.43,7,8.36,19.24-.22,1.62.53,2.34,2.38,4a25.4,25.4,0,0,1,2.93,2.89h0a5.43,5.43,0,0,1-4.19,8.89ZM36,14.45a3,3,0,0,0-3,3v2.37a1.67,1.67,0,0,1-1.07,1.56c-.38.15-9.41,3.92-7.33,16.1v.06c.48,3.49-1.54,5.26-3.49,7a22.39,22.39,0,0,0-2.56,2.52,2.07,2.07,0,0,0,1.6,3.38H51.88a2.06,2.06,0,0,0,1.88-1.19,2,2,0,0,0-.28-2.19h0a22.39,22.39,0,0,0-2.56-2.52c-2-1.71-4-3.48-3.49-7v-.06c2.1-12.28-7.24-16.06-7.33-16.1A1.67,1.67,0,0,1,39,19.86V17.49A3,3,0,0,0,36,14.45Z"/><path class="cls-2" d="M42.49,60.91H29.71a1.68,1.68,0,0,1,0-3.36H42.49a1.68,1.68,0,0,1,0,3.36Z"/><path class="cls-2" d="M55.36,31.94a.93.93,0,0,1-.23,0A1.68,1.68,0,0,1,53.7,30a10.2,10.2,0,0,0-1.35-5.4,10.16,10.16,0,0,0-3.75-4.13,1.7,1.7,0,0,1-.76-2.25,1.68,1.68,0,0,1,2.23-.77A13.11,13.11,0,0,1,55.31,23,13.23,13.23,0,0,1,57,30.5,1.68,1.68,0,0,1,55.36,31.94Z"/><path class="cls-2" d="M16.57,31.93a1.67,1.67,0,0,1-1.66-1.43A13.13,13.13,0,0,1,16.63,23a13.11,13.11,0,0,1,5.24-5.57,1.68,1.68,0,0,1,1.47,3,10.15,10.15,0,0,0-3.75,4.13A10.11,10.11,0,0,0,18.24,30a1.69,1.69,0,0,1-1.44,1.88Z"/></g></g></g></g></svg>