<svg xmlns="http://www.w3.org/2000/svg" viewBox="0 0 72 72"><defs><style>.cls-1{fill:#46c795;}.cls-2{fill:#fff;}</style></defs><g id="Layer_2" data-name="Layer 2"><g id="Layer_5" data-name="Layer 5"><circle class="cls-1" cx="36" cy="36" r="36"/><path class="cls-2" d="M61.37,28.2H53.9v-8a4.5,4.5,0,1,0-2.6.06V28.2H37.1V12.94a4.5,4.5,0,1,0-2.6,0V28.2H20.4v-8a4.5,4.5,0,1,0-2.6,0v8h-7a4.39,4.39,0,0,0-4.39,4.39v9.22a4.39,4.39,0,0,0,4.39,4.39H17.8v5.56a4.5,4.5,0,1,0,2.6,0V46.2H34.5V59.06a4.5,4.5,0,1,0,2.6,0V46.2H51.3v5.53a4.5,4.5,0,1,0,2.6.06V46.2h7.47a4.38,4.38,0,0,0,4.39-4.39V32.59A4.38,4.38,0,0,0,61.37,28.2Z"/></g></g></svg>