<svg xmlns="http://www.w3.org/2000/svg" viewBox="0 0 72 72"><defs><style>.cls-1{fill:#46c795;}.cls-2{fill:#fff;}</style></defs><g id="Layer_2" data-name="Layer 2"><g id="Layer_5" data-name="Layer 5"><g id="Circles"><g id="PubSub_Cache" data-name="PubSub+ Cache"><path class="cls-1" d="M72,36A36,36,0,1,1,36,0,36,36,0,0,1,72,36Z"/></g></g><g id="Icons"><g id="PubSub_Cache-2" data-name="PubSub+ Cache"><path class="cls-2" d="M53.28,15.44H22.49a5.17,5.17,0,0,0-5.16,5.16V31.45h3.25V20.6a1.92,1.92,0,0,1,1.91-1.91H53.28a1.91,1.91,0,0,1,1.91,1.91V51.4a1.92,1.92,0,0,1-1.91,1.91H22.49a1.92,1.92,0,0,1-1.91-1.91V40.55H17.33V51.4a5.17,5.17,0,0,0,5.16,5.16H53.28a5.17,5.17,0,0,0,5.17-5.16V20.6A5.17,5.17,0,0,0,53.28,15.44Z"/><path class="cls-2" d="M36.36,41.64a1,1,0,0,0,1.44.83l9.77-5.64a1,1,0,0,0,0-1.66L37.8,29.53a1,1,0,0,0-1.44.83v4H15.18a1.63,1.63,0,1,0,0,3.26H36.36Z"/></g></g></g></g></svg>