<svg xmlns="http://www.w3.org/2000/svg" viewBox="0 0 72 72"><defs><style>.cls-1{fill:#46c795;}.cls-2{fill:#fff;}</style></defs><g id="Layer_2" data-name="Layer 2"><g id="Layer_5" data-name="Layer 5"><g id="Circles"><g id="PubSub_Insights" data-name="PubSub+ Insights"><path class="cls-1" d="M72,36A36,36,0,1,1,36,0,36,36,0,0,1,72,36Z"/></g></g><g id="Icons"><g id="PubSub_Insights-2" data-name="PubSub+ Insights"><path class="cls-2" d="M57.15,46.37H52.38V43h4.4a.71.71,0,0,0,0-.23V29.16a.75.75,0,0,0,0-.23h-4.4V25.57h4.77c1.69,0,3,1.58,3,3.59V42.77C60.17,44.79,58.84,46.37,57.15,46.37Z"/><path class="cls-2" d="M14.2,46.37H9.43c-1.7,0-3-1.58-3-3.6V29.16c0-2,1.33-3.59,3-3.59H14.2v3.36H9.8a.75.75,0,0,0,0,.23V42.77a.71.71,0,0,0,0,.23h4.4Z"/><path class="cls-2" d="M44.32,52.19h-22A5.2,5.2,0,0,1,17.13,47V25a5.2,5.2,0,0,1,5.19-5.19h22A5.2,5.2,0,0,1,49.51,25V47A5.2,5.2,0,0,1,44.32,52.19Zm-22-29A1.84,1.84,0,0,0,20.5,25V47a1.84,1.84,0,0,0,1.82,1.83h22A1.84,1.84,0,0,0,46.15,47V25a1.84,1.84,0,0,0-1.83-1.83Z"/></g></g></g></g></svg>