<svg xmlns="http://www.w3.org/2000/svg" viewBox="0 0 72 72"><defs><style>.cls-1{fill:#46c795;}.cls-2{fill:#fff;}</style></defs><g id="Layer_2" data-name="Layer 2"><g id="Layer_5" data-name="Layer 5"><g id="Circles"><g id="PubSub_Cloud" data-name="PubSub+ Cloud"><path class="cls-1" d="M72,36A36,36,0,1,1,36,0,36,36,0,0,1,72,36Z"/></g></g><g id="Icons"><g id="PubSub_Cloud-2" data-name="PubSub+ Cloud"><path class="cls-2" d="M20.27,47.94v8.69H29a1,1,0,0,0,1-1V46.94H21.27A1,1,0,0,0,20.27,47.94Z"/><path class="cls-2" d="M54.67,28.28A14,14,0,0,0,40.86,15.37a13.68,13.68,0,0,0-11.59,6.35,9.59,9.59,0,0,0-7.79.86,10,10,0,0,0-4.6,7.71A10.94,10.94,0,0,0,9.45,40.7a10.66,10.66,0,0,0,7.79,10.13l.56.18V47.56l-.28-.11a7.13,7.13,0,0,1-4.78-6.79,7.57,7.57,0,0,1,5.92-7.49A1.64,1.64,0,0,0,20,31.55a6.86,6.86,0,0,1,3.15-6.2,6.23,6.23,0,0,1,6-.23,1.65,1.65,0,0,0,2.21-.75A10.58,10.58,0,0,1,48.3,21.72a10.87,10.87,0,0,1,3.18,7.7A1.64,1.64,0,0,0,52.71,31a8.81,8.81,0,0,1,5.82,4.91A9.28,9.28,0,0,1,58,44.17a8.48,8.48,0,0,1-6.72,4H42.7a1.66,1.66,0,0,0,0,3.32h8.6a11,11,0,0,0,9.79-6A12.51,12.51,0,0,0,61.66,35,12,12,0,0,0,54.67,28.28Z"/><path class="cls-2" d="M37.74,38.36H25.46v3.73h9.38v9.37h3.72V39.19A.83.83,0,0,0,37.74,38.36Z"/><path class="cls-2" d="M47.26,43V30.69a.82.82,0,0,0-.82-.82H34.16v3.72h9.37V43Z"/></g></g></g></g></svg>