<svg xmlns="http://www.w3.org/2000/svg" viewBox="0 0 72 72"><defs><style>.cls-1{fill:#46c795;}.cls-2{fill:#fff;}</style></defs><g id="Layer_2" data-name="Layer 2"><g id="Layer_5" data-name="Layer 5"><g id="Circles"><g id="PubSub_Event_Portal" data-name="PubSub+ Event Portal"><path class="cls-1" d="M72,36A36,36,0,1,1,36,0,36,36,0,0,1,72,36Z"/></g></g><g id="Icons"><g id="PubSub_Event_Portal-2" data-name="PubSub+ Event Portal"><path class="cls-2" d="M42.12,18.33v3.82h0l-16.24,4V21.58H13.56a4.89,4.89,0,0,0-4.89,4.88V38.81H21a5,5,0,0,0,1.85-.36l9.89,9.9a5,5,0,0,0-.36,1.85V62.55H44.7a4.88,4.88,0,0,0,4.89-4.88V45.32H45.51l4.43-14.64h4.5a4.88,4.88,0,0,0,4.89-4.88V13.45H47A4.88,4.88,0,0,0,42.12,18.33ZM12,35.45v-9a1.53,1.53,0,0,1,1.53-1.52h9v9A1.52,1.52,0,0,1,21,35.45Zm34.2,22.22a1.53,1.53,0,0,1-1.53,1.52h-9v-9a1.52,1.52,0,0,1,1.52-1.52h9ZM41.61,45.32H37.26a4.8,4.8,0,0,0-1.89.38L25.5,35.81a4.71,4.71,0,0,0,.38-1.88v-4l.05,0,16.19-4v4.68h4.16ZM56,25.8a1.52,1.52,0,0,1-1.52,1.52h-9v-9A1.52,1.52,0,0,1,47,16.81h9Z"/></g></g></g></g></svg>