<svg xmlns="http://www.w3.org/2000/svg" viewBox="0 0 72 72"><defs><style>.cls-1{fill:#46c795;}.cls-2{fill:#fff;}</style></defs><g id="Layer_2" data-name="Layer 2"><g id="Layer_5" data-name="Layer 5"><g id="Circles"><g id="PubSub_Platform" data-name="PubSub+ Platform"><path class="cls-1" d="M72,36A36,36,0,1,1,36,0,36,36,0,0,1,72,36Z"/></g></g><g id="Icons"><g id="PubSub_Platform-2" data-name="PubSub+ Platform"><path class="cls-2" d="M61.42,42.93,36,54.86,10.58,42.93a1.63,1.63,0,0,0-1.38,3L35.31,58.13a1.66,1.66,0,0,0,1.38,0L62.8,45.88a1.63,1.63,0,0,0-1.38-3Z"/><path class="cls-2" d="M61.42,34.76,36,46.69,10.58,34.76a1.63,1.63,0,0,0-1.38,3L35.31,50a1.66,1.66,0,0,0,1.38,0L62.8,37.71a1.63,1.63,0,0,0-1.38-3Z"/><path class="cls-2" d="M63.73,27.52a11523909982481.57,11523909982481.57,0,0,1,0-.16s0-.06,0-.08a.64.64,0,0,0,0-.07.35.35,0,0,0,0-.11v0a1.65,1.65,0,0,0-.84-.94L36.69,13.87a1.66,1.66,0,0,0-1.38,0L9.2,26.12h0l-.14.07-.05,0-.09.06-.06.05-.06.05-.06.06-.05.05-.06.08a.1.1,0,0,0,0,.05.61.61,0,0,0-.07.1l0,0-.08.14h0s0,0,0,0l-.05.11s0,.05,0,.08a.19.19,0,0,0,0,.07s0,.06,0,.09v.07a.19.19,0,0,0,0,.08.22.22,0,0,0,0,.08v.16a.2.2,0,0,0,0,.07.28.28,0,0,0,0,.09s0,0,0,.06,0,.06,0,.09a.14.14,0,0,0,0,.07s0,.06,0,.08a1.17,1.17,0,0,0,.05.11s0,0,0,0h0v0l.06.11,0,0,.06.09,0,0,.09.11h0l.09.1,0,0,.09.08,0,0,.12.08h0l.12.06h0L35.31,41.32a1.57,1.57,0,0,0,1.38,0L62.8,29.07a1.63,1.63,0,0,0,.84-.93.09.09,0,0,0,0-.05.42.42,0,0,0,0-.1s0,0,0-.07,0-.06,0-.09a.25.25,0,0,1,0-.08v-.23ZM36,38.05,13.72,27.6,36,17.14,58.28,27.6Z"/></g></g></g></g></svg>