<svg xmlns="http://www.w3.org/2000/svg" viewBox="0 0 72 72"><defs><style>.cls-1{fill:#46c795;}.cls-2{fill:#fff;}.cls-3{fill:#020202;}</style></defs><g id="Layer_2" data-name="Layer 2"><g id="Layer_5" data-name="Layer 5"><circle class="cls-1" cx="36" cy="36" r="36"/><path class="cls-2" d="M61.37,28.2H53.9v-8a4.5,4.5,0,1,0-2.6.06V28.2H37.1V12.94a4.5,4.5,0,1,0-2.6,0V28.2H20.4v-8a4.5,4.5,0,1,0-2.6,0v8h-7a4.39,4.39,0,0,0-4.39,4.39v9.22a4.39,4.39,0,0,0,4.39,4.39H17.8v5.56a4.5,4.5,0,1,0,2.6,0V46.2H34.5V59.06a4.5,4.5,0,1,0,2.6,0V46.2H51.3v5.53a4.5,4.5,0,1,0,2.6.06V46.2h7.47a4.38,4.38,0,0,0,4.39-4.39V32.59A4.38,4.38,0,0,0,61.37,28.2Z"/><path class="cls-3" d="M17.22,35.48A3.54,3.54,0,0,1,17,36.83a2.53,2.53,0,0,1-.69,1,3.1,3.1,0,0,1-1.12.61,5,5,0,0,1-1.57.22h-.76v2.9a.2.2,0,0,1,0,.13.49.49,0,0,1-.15.09l-.28,0a3.39,3.39,0,0,1-.9,0,1.55,1.55,0,0,1-.29,0,.33.33,0,0,1-.14-.09.21.21,0,0,1,0-.13V33.38a.65.65,0,0,1,.18-.5.61.61,0,0,1,.45-.17h2.14a6,6,0,0,1,.62,0c.19,0,.43,0,.7.1a3.62,3.62,0,0,1,.83.3,2.59,2.59,0,0,1,.71.56,2.16,2.16,0,0,1,.45.78A3.09,3.09,0,0,1,17.22,35.48Zm-1.93.13a1.68,1.68,0,0,0-.17-.79,1.2,1.2,0,0,0-.41-.45,1.49,1.49,0,0,0-.52-.19,3.43,3.43,0,0,0-.56,0h-.79v3.09h.83a2,2,0,0,0,.75-.12,1.2,1.2,0,0,0,.48-.34,1.28,1.28,0,0,0,.29-.51A1.93,1.93,0,0,0,15.29,35.61Z"/><path class="cls-3" d="M24.5,41.57a.28.28,0,0,1,0,.13.32.32,0,0,1-.13.08.64.64,0,0,1-.23.06l-.36,0-.38,0a.7.7,0,0,1-.23-.06A.36.36,0,0,1,23,41.7a.28.28,0,0,1,0-.13v-.72a4,4,0,0,1-1.06.84,2.34,2.34,0,0,1-1.11.28,2.52,2.52,0,0,1-1.09-.21,1.91,1.91,0,0,1-.71-.57,2.45,2.45,0,0,1-.39-.85,5.7,5.7,0,0,1-.11-1.2V35.3a.17.17,0,0,1,0-.12.21.21,0,0,1,.14-.09A1.46,1.46,0,0,1,19,35l.43,0,.43,0a1.46,1.46,0,0,1,.27.05.28.28,0,0,1,.14.09.17.17,0,0,1,0,.12v3.55a3,3,0,0,0,.07.75,1.18,1.18,0,0,0,.19.44.91.91,0,0,0,.33.29,1,1,0,0,0,.47.1,1.2,1.2,0,0,0,.68-.24,4.05,4.05,0,0,0,.72-.72V35.3a.22.22,0,0,1,.18-.21,1.46,1.46,0,0,1,.27-.05l.43,0,.43,0a1.46,1.46,0,0,1,.27.05.28.28,0,0,1,.14.09.17.17,0,0,1,0,.12Z"/><path class="cls-3" d="M32.59,38.35a5.84,5.84,0,0,1-.18,1.51A3.53,3.53,0,0,1,31.88,41a2.41,2.41,0,0,1-.84.72,2.52,2.52,0,0,1-1.15.25,2.81,2.81,0,0,1-.59-.06,1.72,1.72,0,0,1-.52-.19,2.54,2.54,0,0,1-.49-.34,4.55,4.55,0,0,1-.5-.49v.68a.17.17,0,0,1,0,.13.19.19,0,0,1-.12.09.72.72,0,0,1-.24.05l-.36,0-.36,0a.66.66,0,0,1-.23-.05.19.19,0,0,1-.12-.09.17.17,0,0,1,0-.13V32.33a.2.2,0,0,1,0-.13.27.27,0,0,1,.15-.09.77.77,0,0,1,.27-.06,2.62,2.62,0,0,1,.43,0,2.75,2.75,0,0,1,.43,0,.9.9,0,0,1,.27.06.28.28,0,0,1,.14.09.2.2,0,0,1,0,.13v3.46a3.39,3.39,0,0,1,.48-.4,2.39,2.39,0,0,1,.48-.28A2.16,2.16,0,0,1,29.5,35,3.07,3.07,0,0,1,30,34.9a2.33,2.33,0,0,1,1.19.28,2.26,2.26,0,0,1,.79.75,3.29,3.29,0,0,1,.44,1.1A5.68,5.68,0,0,1,32.59,38.35Zm-1.83.13a4.81,4.81,0,0,0-.06-.77,2.13,2.13,0,0,0-.21-.66,1.16,1.16,0,0,0-.38-.46,1,1,0,0,0-.6-.18,1.33,1.33,0,0,0-.34.05,1.25,1.25,0,0,0-.35.17,2.43,2.43,0,0,0-.37.31,5.34,5.34,0,0,0-.4.47v2.08a3.83,3.83,0,0,0,.72.73,1.14,1.14,0,0,0,.71.25.93.93,0,0,0,.58-.18,1.46,1.46,0,0,0,.4-.45,2.11,2.11,0,0,0,.23-.64A3.51,3.51,0,0,0,30.76,38.48Z"/><path class="cls-3" d="M39.51,39.08a2.78,2.78,0,0,1-.27,1.26,2.6,2.6,0,0,1-.73.91,3.12,3.12,0,0,1-1.06.54,4.66,4.66,0,0,1-1.31.18,4.83,4.83,0,0,1-.88-.07,5.16,5.16,0,0,1-.71-.19,2.87,2.87,0,0,1-.52-.23,1.48,1.48,0,0,1-.3-.21A.58.58,0,0,1,33.6,41a3,3,0,0,1,0-.5,3.36,3.36,0,0,1,0-.36,1.19,1.19,0,0,1,0-.24c0-.06.05-.11.09-.13a.16.16,0,0,1,.12,0,.63.63,0,0,1,.28.11,3.59,3.59,0,0,0,.46.26,3.91,3.91,0,0,0,.67.26,3.11,3.11,0,0,0,.91.11,1.9,1.9,0,0,0,.6-.08,1.2,1.2,0,0,0,.45-.23.93.93,0,0,0,.29-.36,1.3,1.3,0,0,0,.1-.49.88.88,0,0,0-.17-.53A1.68,1.68,0,0,0,37,38.4a4,4,0,0,0-.62-.32l-.71-.32a7,7,0,0,1-.71-.39,2.71,2.71,0,0,1-.61-.51,2.43,2.43,0,0,1-.44-.71,2.55,2.55,0,0,1-.17-1A2.6,2.6,0,0,1,34,34a2.34,2.34,0,0,1,.66-.83,2.86,2.86,0,0,1,1-.49,4.48,4.48,0,0,1,1.18-.16,4.74,4.74,0,0,1,.65.05,3.75,3.75,0,0,1,.6.14,2.61,2.61,0,0,1,.5.19,1.09,1.09,0,0,1,.29.17.36.36,0,0,1,.09.12.39.39,0,0,1,.05.13,1,1,0,0,1,0,.2,2.91,2.91,0,0,1,0,.31c0,.14,0,.25,0,.35a1.2,1.2,0,0,1,0,.23.23.23,0,0,1-.07.13.16.16,0,0,1-.12,0,.59.59,0,0,1-.25-.1l-.41-.21a3.77,3.77,0,0,0-.57-.21,2.65,2.65,0,0,0-.71-.1,1.69,1.69,0,0,0-.53.08,1.18,1.18,0,0,0-.37.2.76.76,0,0,0-.23.31,1.07,1.07,0,0,0-.07.39.88.88,0,0,0,.16.53,1.88,1.88,0,0,0,.44.39,6.16,6.16,0,0,0,.63.32l.72.32a5.6,5.6,0,0,1,.72.39,2.77,2.77,0,0,1,.62.51,2.4,2.4,0,0,1,.45.7A2.52,2.52,0,0,1,39.51,39.08Z"/><path class="cls-3" d="M46.76,41.57a.28.28,0,0,1,0,.13.32.32,0,0,1-.13.08.58.58,0,0,1-.23.06l-.36,0-.38,0a.58.58,0,0,1-.22-.06.23.23,0,0,1-.12-.08.2.2,0,0,1,0-.13v-.72a4,4,0,0,1-1.06.84,2.34,2.34,0,0,1-1.11.28A2.52,2.52,0,0,1,42,41.76a1.91,1.91,0,0,1-.71-.57,2.45,2.45,0,0,1-.39-.85,5.7,5.7,0,0,1-.11-1.2V35.3a.17.17,0,0,1,0-.12.21.21,0,0,1,.14-.09,1.46,1.46,0,0,1,.27-.05l.43,0,.43,0a1.46,1.46,0,0,1,.27.05.24.24,0,0,1,.14.09.17.17,0,0,1,0,.12v3.55a3,3,0,0,0,.07.75,1.18,1.18,0,0,0,.19.44.91.91,0,0,0,.33.29,1,1,0,0,0,.47.1,1.2,1.2,0,0,0,.68-.24,4.05,4.05,0,0,0,.72-.72V35.3a.25.25,0,0,1,0-.12.28.28,0,0,1,.14-.09,1.46,1.46,0,0,1,.27-.05l.43,0,.43,0a1.46,1.46,0,0,1,.27.05.24.24,0,0,1,.14.09.17.17,0,0,1,0,.12Z"/><path class="cls-3" d="M54.86,38.35a5.83,5.83,0,0,1-.19,1.51A3.74,3.74,0,0,1,54.15,41a2.44,2.44,0,0,1-.85.72,2.51,2.51,0,0,1-1.14.25,2.84,2.84,0,0,1-.6-.06,1.72,1.72,0,0,1-.52-.19,2.54,2.54,0,0,1-.49-.34,4.55,4.55,0,0,1-.5-.49v.68a.17.17,0,0,1,0,.13.19.19,0,0,1-.12.09.72.72,0,0,1-.24.05l-.36,0-.36,0a.71.71,0,0,1-.23-.05.19.19,0,0,1-.12-.09.17.17,0,0,1,0-.13V32.33a.28.28,0,0,1,0-.13.27.27,0,0,1,.15-.09.9.9,0,0,1,.27-.06,2.62,2.62,0,0,1,.43,0,2.75,2.75,0,0,1,.43,0,.9.9,0,0,1,.27.06.28.28,0,0,1,.14.09.2.2,0,0,1,0,.13v3.46a3.39,3.39,0,0,1,.48-.4,2.39,2.39,0,0,1,.48-.28,2.16,2.16,0,0,1,.49-.16,3.1,3.1,0,0,1,.54-.05,2.32,2.32,0,0,1,1.18.28,2.26,2.26,0,0,1,.79.75,3.29,3.29,0,0,1,.44,1.1A5.68,5.68,0,0,1,54.86,38.35ZM53,38.48a4.81,4.81,0,0,0-.06-.77,2.13,2.13,0,0,0-.21-.66,1.16,1.16,0,0,0-.38-.46,1,1,0,0,0-.59-.18,1.34,1.34,0,0,0-.35.05,1.25,1.25,0,0,0-.35.17,2.43,2.43,0,0,0-.37.31,5.34,5.34,0,0,0-.4.47v2.08a3.83,3.83,0,0,0,.72.73,1.14,1.14,0,0,0,.71.25.93.93,0,0,0,.58-.18,1.34,1.34,0,0,0,.4-.45A2.11,2.11,0,0,0,53,39.2,3.51,3.51,0,0,0,53,38.48Z"/><path class="cls-3" d="M62.19,37.77a2.92,2.92,0,0,1,0,.33.73.73,0,0,1-.07.21.24.24,0,0,1-.09.12.28.28,0,0,1-.12,0H59.7v2.38a.16.16,0,0,1,0,.12.2.2,0,0,1-.11.09.7.7,0,0,1-.23.06,3.07,3.07,0,0,1-.7,0,.64.64,0,0,1-.23-.06.23.23,0,0,1-.12-.09.16.16,0,0,1,0-.12V38.47H56.05a.28.28,0,0,1-.12,0,.31.31,0,0,1-.09-.12.73.73,0,0,1-.07-.21,2.73,2.73,0,0,1,0-.66.53.53,0,0,1,.06-.21.19.19,0,0,1,.09-.12.21.21,0,0,1,.11,0h2.2V34.7a.2.2,0,0,1,0-.13.24.24,0,0,1,.12-.1.64.64,0,0,1,.23-.06,3.07,3.07,0,0,1,.7,0,.7.7,0,0,1,.23.06.22.22,0,0,1,.11.1.2.2,0,0,1,0,.13v2.37h2.21a.25.25,0,0,1,.11,0,.31.31,0,0,1,.09.12,1.42,1.42,0,0,1,.06.21A2.92,2.92,0,0,1,62.19,37.77Z"/></g></g></svg>