<svg xmlns="http://www.w3.org/2000/svg" viewBox="0 0 72 72"><defs><style>.cls-1{fill:#46c795;}.cls-2{fill:#fff;}.cls-3{fill:#020202;}</style></defs><g id="Layer_2" data-name="Layer 2"><g id="Layer_5" data-name="Layer 5"><circle class="cls-1" cx="36" cy="36" r="36"/><path class="cls-2" d="M61.21,28H53.9V20a4.5,4.5,0,1,0-2.6,0v8H37.2V12.66a4.5,4.5,0,1,0-2.6.06V28H20.4V20a4.5,4.5,0,1,0-2.6,0v8H10.59A4.38,4.38,0,0,0,6.2,32.34v9.22A4.38,4.38,0,0,0,10.59,46H17.8v5.56a4.5,4.5,0,1,0,2.6,0V46H34.6V58.78a4.5,4.5,0,1,0,2.6.06V46H51.3v5.56a4.5,4.5,0,1,0,2.6,0V46h7.31a4.38,4.38,0,0,0,4.39-4.39V32.34A4.38,4.38,0,0,0,61.21,28Z"/><path class="cls-3" d="M13.17,39.93a2,2,0,0,1,0,.26,1.46,1.46,0,0,1,0,.17.22.22,0,0,1-.07.09l-.09,0H9.47A.39.39,0,0,1,9.05,40V34a.43.43,0,0,1,.12-.34.44.44,0,0,1,.3-.11h3.47a.11.11,0,0,1,.08,0,.22.22,0,0,1,.07.09.8.8,0,0,1,0,.18,1.86,1.86,0,0,1,0,.26,2,2,0,0,1,0,.26.71.71,0,0,1,0,.17.22.22,0,0,1-.07.09.11.11,0,0,1-.08,0H10.46v1.7h2.1l.09,0a.23.23,0,0,1,.06.09.53.53,0,0,1,0,.16,1.7,1.7,0,0,1,0,.52.62.62,0,0,1,0,.16.35.35,0,0,1-.06.09l-.09,0h-2.1v2H13l.09,0s0,.05.07.09a1.46,1.46,0,0,1,0,.17A2,2,0,0,1,13.17,39.93Z"/><path class="cls-3" d="M20.15,40a.54.54,0,0,1,0,.22.46.46,0,0,1-.11.16.56.56,0,0,1-.17.09l-.21,0H19a1.51,1.51,0,0,1-.32,0,.77.77,0,0,1-.25-.14,1.25,1.25,0,0,1-.23-.27c-.07-.11-.15-.26-.24-.44l-1.73-3.25c-.1-.19-.2-.4-.3-.62s-.2-.44-.28-.66h0l0,.78c0,.25,0,.52,0,.79v3.63a.17.17,0,0,1,0,.1.2.2,0,0,1-.1.07l-.2,0h-.63a.74.74,0,0,1-.19,0,.2.2,0,0,1-.1-.07.16.16,0,0,1,0-.1V34a.46.46,0,0,1,.14-.38.52.52,0,0,1,.37-.13h.75a1.2,1.2,0,0,1,.35,0,.8.8,0,0,1,.25.11.92.92,0,0,1,.2.23,2.17,2.17,0,0,1,.2.35L18,36.8c.07.15.15.3.23.45s.15.3.22.45l.21.43c.07.15.14.29.2.43h0c0-.25,0-.51,0-.78s0-.53,0-.78V33.74a.14.14,0,0,1,0-.1.29.29,0,0,1,.1-.07l.2,0h.62a.72.72,0,0,1,.2,0,.35.35,0,0,1,.09.07.19.19,0,0,1,0,.1Z"/><path class="cls-3" d="M26.29,34.11a2,2,0,0,1,0,.27.8.8,0,0,1,0,.18.22.22,0,0,1-.07.09.09.09,0,0,1-.08,0H24.34v5.6a.18.18,0,0,1,0,.1.35.35,0,0,1-.11.07l-.22,0h-.68l-.22,0a.42.42,0,0,1-.12-.07.17.17,0,0,1,0-.1v-5.6H21.18a.1.1,0,0,1-.09,0,.22.22,0,0,1-.07-.09.8.8,0,0,1,0-.18,3.65,3.65,0,0,1,0-.54.6.6,0,0,1,0-.18.2.2,0,0,1,.07-.1.12.12,0,0,1,.09,0h4.9a.11.11,0,0,1,.08,0,.2.2,0,0,1,.07.1.6.6,0,0,1,0,.18A2,2,0,0,1,26.29,34.11Z"/><path class="cls-3" d="M31.23,39.93a1.84,1.84,0,0,1,0,.26.61.61,0,0,1,0,.17.2.2,0,0,1-.06.09l-.09,0H27.53a.39.39,0,0,1-.42-.44V34a.43.43,0,0,1,.12-.34.44.44,0,0,1,.3-.11H31a.11.11,0,0,1,.08,0,.22.22,0,0,1,.07.09c0,.05,0,.11,0,.18a1.86,1.86,0,0,1,0,.26,2,2,0,0,1,0,.26c0,.07,0,.12,0,.17a.22.22,0,0,1-.07.09.11.11,0,0,1-.08,0H28.51v1.7h2.1a.12.12,0,0,1,.09,0s.05.05.07.09a.53.53,0,0,1,0,.16,3.39,3.39,0,0,1,0,.52.62.62,0,0,1,0,.16.22.22,0,0,1-.07.09.12.12,0,0,1-.09,0h-2.1v2H31l.09,0a.16.16,0,0,1,.06.09.61.61,0,0,1,0,.17A1.84,1.84,0,0,1,31.23,39.93Z"/><path class="cls-3" d="M37.63,40.3a.3.3,0,0,1,0,.1.2.2,0,0,1-.1.07,1.29,1.29,0,0,1-.24,0h-.78a.67.67,0,0,1-.22,0,.23.23,0,0,1-.11-.07.37.37,0,0,1,0-.11l-.62-1.55c-.08-.18-.15-.34-.22-.47a2,2,0,0,0-.24-.34.93.93,0,0,0-.7-.28h-.44v2.65a.18.18,0,0,1,0,.1.35.35,0,0,1-.11.07l-.22,0h-.68l-.22,0a.26.26,0,0,1-.11-.07.13.13,0,0,1,0-.1V34a.43.43,0,0,1,.12-.34.44.44,0,0,1,.3-.11h2.25l.32,0a3.24,3.24,0,0,1,.76.2,2.1,2.1,0,0,1,.57.38,1.8,1.8,0,0,1,.36.56,2,2,0,0,1,.12.73,2.2,2.2,0,0,1-.09.64,1.54,1.54,0,0,1-.26.51,1.74,1.74,0,0,1-.42.39,2.39,2.39,0,0,1-.58.27,1.41,1.41,0,0,1,.29.18,1.28,1.28,0,0,1,.26.26,2.36,2.36,0,0,1,.23.35c.07.13.14.28.21.44l.59,1.37.1.3A.56.56,0,0,1,37.63,40.3Zm-1.82-4.72a1,1,0,0,0-.16-.58.88.88,0,0,0-.51-.33l-.24,0-.38,0h-.63v2h.72a1.64,1.64,0,0,0,.52-.07,1.24,1.24,0,0,0,.38-.2.87.87,0,0,0,.22-.32A1.07,1.07,0,0,0,35.81,35.58Z"/><path class="cls-3" d="M43.42,35.64a2.8,2.8,0,0,1-.18,1,2,2,0,0,1-.53.76,2.3,2.3,0,0,1-.86.47,3.81,3.81,0,0,1-1.19.16h-.58v2.22a.13.13,0,0,1,0,.1.35.35,0,0,1-.11.07l-.22,0H39l-.22,0a.35.35,0,0,1-.11-.07.17.17,0,0,1,0-.1V34a.49.49,0,0,1,.13-.38.45.45,0,0,1,.34-.13h1.64l.47,0a4.72,4.72,0,0,1,.54.08,2.55,2.55,0,0,1,.63.23,1.87,1.87,0,0,1,.54.42,1.79,1.79,0,0,1,.35.6A2.29,2.29,0,0,1,43.42,35.64ZM42,35.75a1.35,1.35,0,0,0-.13-.61.88.88,0,0,0-.32-.34.93.93,0,0,0-.39-.15,3,3,0,0,0-.43,0h-.6V37h.63a1.55,1.55,0,0,0,.57-.09.92.92,0,0,0,.37-.26,1.07,1.07,0,0,0,.22-.39A1.57,1.57,0,0,0,42,35.75Z"/><path class="cls-3" d="M49.68,40.3a.3.3,0,0,1,0,.1.19.19,0,0,1-.11.07,1.07,1.07,0,0,1-.23,0h-.79a.56.56,0,0,1-.21,0,.23.23,0,0,1-.11-.07.37.37,0,0,1-.05-.11l-.63-1.55a3,3,0,0,0-.22-.47,1.28,1.28,0,0,0-.24-.34.81.81,0,0,0-.3-.21,1,1,0,0,0-.4-.07h-.44v2.65a.17.17,0,0,1,0,.1.42.42,0,0,1-.12.07l-.21,0h-.69l-.21,0a.31.31,0,0,1-.12-.07.17.17,0,0,1,0-.1V34a.43.43,0,0,1,.12-.34.44.44,0,0,1,.3-.11h2.25l.32,0a3.38,3.38,0,0,1,.76.2,2.1,2.1,0,0,1,.57.38,1.61,1.61,0,0,1,.35.56,1.83,1.83,0,0,1,.13.73,2.2,2.2,0,0,1-.09.64,1.75,1.75,0,0,1-.26.51,1.79,1.79,0,0,1-.43.39,2.5,2.5,0,0,1-.57.27,1.75,1.75,0,0,1,.29.18,1.6,1.6,0,0,1,.26.26,2.36,2.36,0,0,1,.23.35c.07.13.14.28.21.44l.58,1.37c.06.14.09.24.11.3A.56.56,0,0,1,49.68,40.3Zm-1.82-4.72A1.07,1.07,0,0,0,47.7,35a.88.88,0,0,0-.51-.33l-.24,0-.38,0h-.64v2h.72a1.7,1.7,0,0,0,.53-.07,1.24,1.24,0,0,0,.38-.2.87.87,0,0,0,.22-.32A1.07,1.07,0,0,0,47.86,35.58Z"/><path class="cls-3" d="M52.13,40.29a.17.17,0,0,1,0,.1l-.12.07-.21,0h-.69l-.22,0a.35.35,0,0,1-.11-.07.18.18,0,0,1,0-.1V33.73a.18.18,0,0,1,0-.1.22.22,0,0,1,.12-.07.87.87,0,0,1,.21,0l.34,0,.35,0a.87.87,0,0,1,.21,0,.35.35,0,0,1,.12.07.17.17,0,0,1,0,.1Z"/><path class="cls-3" d="M57.77,38.4a2.12,2.12,0,0,1-.21,1,1.87,1.87,0,0,1-.55.69,2.65,2.65,0,0,1-.82.42,3.69,3.69,0,0,1-1.67.08A3.49,3.49,0,0,1,54,40.4a2.18,2.18,0,0,1-.4-.17.89.89,0,0,1-.22-.16.38.38,0,0,1-.1-.2,1.87,1.87,0,0,1,0-.38,2.35,2.35,0,0,1,0-.28,1.64,1.64,0,0,1,0-.18.2.2,0,0,1,.07-.1.14.14,0,0,1,.09,0,.43.43,0,0,1,.21.09,2.85,2.85,0,0,0,.36.19,3.19,3.19,0,0,0,.51.2,2.4,2.4,0,0,0,.69.09,1.65,1.65,0,0,0,.46-.06,1.15,1.15,0,0,0,.35-.18.74.74,0,0,0,.21-.28.87.87,0,0,0,.08-.37.6.6,0,0,0-.13-.4,1.1,1.1,0,0,0-.34-.3,2.92,2.92,0,0,0-.47-.25l-.54-.25a4.74,4.74,0,0,1-.54-.29,2.22,2.22,0,0,1-.47-.39,1.84,1.84,0,0,1-.34-.54,2.11,2.11,0,0,1-.12-.75,2.07,2.07,0,0,1,.18-.88,1.69,1.69,0,0,1,.5-.62,2.08,2.08,0,0,1,.74-.38,3.39,3.39,0,0,1,.91-.12,2.7,2.7,0,0,1,.49,0,3.11,3.11,0,0,1,.46.1,2.35,2.35,0,0,1,.38.14.83.83,0,0,1,.22.14.32.32,0,0,1,.08.09.62.62,0,0,1,0,.1s0,.09,0,.15v.24a2,2,0,0,1,0,.26.9.9,0,0,1,0,.18.17.17,0,0,1-.06.1.12.12,0,0,1-.09,0,.44.44,0,0,1-.19-.07l-.31-.17a3.72,3.72,0,0,0-.44-.16,1.86,1.86,0,0,0-.54-.07,1.27,1.27,0,0,0-.41.06.75.75,0,0,0-.28.15.56.56,0,0,0-.17.24.73.73,0,0,0-.06.3.64.64,0,0,0,.13.4,1.21,1.21,0,0,0,.33.3,3.58,3.58,0,0,0,.48.24l.55.25a5.77,5.77,0,0,1,.55.29,2.28,2.28,0,0,1,.48.39,2.15,2.15,0,0,1,.34.54A2,2,0,0,1,57.77,38.4Z"/><path class="cls-3" d="M63,39.93a2,2,0,0,1,0,.26.61.61,0,0,1,0,.17.22.22,0,0,1-.07.09.11.11,0,0,1-.08,0h-3.5a.43.43,0,0,1-.29-.1.44.44,0,0,1-.12-.34V34a.43.43,0,0,1,.12-.34.44.44,0,0,1,.29-.11h3.47a.14.14,0,0,1,.09,0,.2.2,0,0,1,.06.09.48.48,0,0,1,0,.18,1.61,1.61,0,0,1,0,.26,1.84,1.84,0,0,1,0,.26.43.43,0,0,1,0,.17.2.2,0,0,1-.06.09.14.14,0,0,1-.09,0H60.25v1.7h2.1l.09,0s.05.05.07.09a.53.53,0,0,1,0,.16,3.38,3.38,0,0,1,0,.52.62.62,0,0,1,0,.16.22.22,0,0,1-.07.09l-.09,0h-2.1v2h2.51a.11.11,0,0,1,.08,0s0,.05.07.09a.61.61,0,0,1,0,.17A2,2,0,0,1,63,39.93Z"/></g></g></svg>