<svg xmlns="http://www.w3.org/2000/svg" viewBox="0 0 66.24 66.24"><defs><style>.cls-1{fill:#46c795;}.cls-2{fill:#fff;}.cls-3{fill:#020202;}</style></defs><g id="Layer_2" data-name="Layer 2"><g id="Layer_5" data-name="Layer 5"><rect class="cls-1" width="66.24" height="66.24" rx="7.63"/><path class="cls-2" d="M58.23,24.74H50.92V17.53a4.5,4.5,0,1,0-2.6,0v7.21H34.22V10.23a4.5,4.5,0,1,0-2.6,0V24.74H19.73a21.33,21.33,0,0,1,2,9,21.36,21.36,0,0,1-2,9H18.51a19.36,19.36,0,0,0,2.22-9,19.33,19.33,0,0,0-2.22-9h-1V17.5a4.5,4.5,0,1,0-2.6.06v7.18H7.61a4.38,4.38,0,0,0-4.39,4.39v9.22a4.39,4.39,0,0,0,4.39,4.39h7.31v6.18a4.52,4.52,0,1,0,2.6.07V42.74h14.1V56.26a4.5,4.5,0,1,0,2.6,0V42.74h14.1V49a4.5,4.5,0,1,0,2.6,0V42.74h7.31a4.4,4.4,0,0,0,4.39-4.39V29.13A4.39,4.39,0,0,0,58.23,24.74ZM13.35,37a3.28,3.28,0,1,1,3.27-3.27A3.28,3.28,0,0,1,13.35,37Z"/><circle class="cls-2" cx="13.35" cy="33.74" r="2.27"/><rect class="cls-1" x="18.51" y="24.74" width="1.22"/><path class="cls-3" d="M34.07,35.31a2.58,2.58,0,0,1-.25,1.17,2.47,2.47,0,0,1-.71.86,3,3,0,0,1-1.08.53,4.94,4.94,0,0,1-1.37.18,5.77,5.77,0,0,1-.85-.06c-.26-.05-.5-.1-.7-.16a3.69,3.69,0,0,1-.5-.2,1.37,1.37,0,0,1-.26-.16.27.27,0,0,1-.09-.12l-.06-.16a1.29,1.29,0,0,1,0-.23c0-.1,0-.21,0-.34a1.28,1.28,0,0,1,.05-.46.18.18,0,0,1,.17-.12.63.63,0,0,1,.23.09l.43.2a6.26,6.26,0,0,0,.61.2,3.12,3.12,0,0,0,.79.09,2.19,2.19,0,0,0,.66-.09,1.42,1.42,0,0,0,.49-.25.94.94,0,0,0,.3-.39,1.19,1.19,0,0,0,.1-.51,1.23,1.23,0,0,0-.12-.55,1.1,1.1,0,0,0-.35-.42,1.66,1.66,0,0,0-.6-.27,3,3,0,0,0-.84-.1h-.77l-.15,0a.24.24,0,0,1-.1-.1.53.53,0,0,1-.06-.21,3,3,0,0,1,0-.35A2.58,2.58,0,0,1,29,33a.38.38,0,0,1,.06-.19.18.18,0,0,1,.09-.1.32.32,0,0,1,.14,0h.77a2.55,2.55,0,0,0,.71-.09,1.44,1.44,0,0,0,.51-.26A1.18,1.18,0,0,0,31.6,32a1.32,1.32,0,0,0,.11-.53,1.21,1.21,0,0,0-.07-.43.93.93,0,0,0-.23-.35.94.94,0,0,0-.38-.23,1.45,1.45,0,0,0-.54-.09,2.09,2.09,0,0,0-.67.11,5.19,5.19,0,0,0-.57.23,3.92,3.92,0,0,0-.42.24.62.62,0,0,1-.26.11.16.16,0,0,1-.09,0s-.05,0-.07-.09a.77.77,0,0,1,0-.2,2.92,2.92,0,0,1,0-.33c0-.12,0-.21,0-.29s0-.14,0-.19a.43.43,0,0,1,.05-.12.5.5,0,0,1,.1-.13,2.43,2.43,0,0,1,.28-.19,2.93,2.93,0,0,1,.53-.25,5.53,5.53,0,0,1,.74-.21,4.42,4.42,0,0,1,.92-.09,3.94,3.94,0,0,1,1.14.15,2.35,2.35,0,0,1,.83.44,1.79,1.79,0,0,1,.51.7,2.27,2.27,0,0,1,.18.93,2.56,2.56,0,0,1-.11.75A1.93,1.93,0,0,1,32.77,33a2.13,2.13,0,0,1-.69.28v0a2.36,2.36,0,0,1,.83.23,2,2,0,0,1,.63.46,1.87,1.87,0,0,1,.39.61A2,2,0,0,1,34.07,35.31Z"/><path class="cls-3" d="M41.12,35a3.11,3.11,0,0,1-.25,1.28,2.64,2.64,0,0,1-.7.95,3.35,3.35,0,0,1-1.09.59,4.56,4.56,0,0,1-1.42.2,5,5,0,0,1-.78,0,3.67,3.67,0,0,1-.66-.13,4.23,4.23,0,0,1-.49-.15l-.24-.13a.47.47,0,0,1-.09-.12.57.57,0,0,1,0-.14c0-.06,0-.13,0-.22V36.8a3,3,0,0,1,0-.32.65.65,0,0,1,0-.22.23.23,0,0,1,.07-.11.11.11,0,0,1,.09,0,.51.51,0,0,1,.21.08l.37.18a3.8,3.8,0,0,0,.56.17,3.53,3.53,0,0,0,.78.08,3.11,3.11,0,0,0,.72-.08,1.54,1.54,0,0,0,.56-.27,1.17,1.17,0,0,0,.34-.45,1.47,1.47,0,0,0,.13-.66,1.5,1.5,0,0,0-.11-.58,1,1,0,0,0-.32-.44,1.39,1.39,0,0,0-.56-.26,3.52,3.52,0,0,0-.85-.09,5.2,5.2,0,0,0-.72,0,4.45,4.45,0,0,1-.61,0,.35.35,0,0,1-.29-.1.56.56,0,0,1-.08-.37V29.56a.59.59,0,0,1,.1-.39.44.44,0,0,1,.34-.12h4.19a.19.19,0,0,1,.12,0,.48.48,0,0,1,.09.13,1.11,1.11,0,0,1,0,.24,1.83,1.83,0,0,1,0,.35,1.7,1.7,0,0,1-.07.59c-.05.13-.12.19-.21.19H37.17v1.89a3.71,3.71,0,0,1,.47,0h.5a4.44,4.44,0,0,1,1.27.17,2.62,2.62,0,0,1,.94.49,2.27,2.27,0,0,1,.58.81A3,3,0,0,1,41.12,35Z"/><path class="cls-3" d="M48.26,35.31A2.58,2.58,0,0,1,48,36.48a2.47,2.47,0,0,1-.71.86,3,3,0,0,1-1.08.53,4.94,4.94,0,0,1-1.37.18A5.77,5.77,0,0,1,44,38c-.26-.05-.5-.1-.7-.16a3.69,3.69,0,0,1-.5-.2,1.37,1.37,0,0,1-.26-.16.27.27,0,0,1-.09-.12l-.06-.16a1.29,1.29,0,0,1,0-.23c0-.1,0-.21,0-.34a1.57,1.57,0,0,1,0-.46.18.18,0,0,1,.17-.12.63.63,0,0,1,.23.09l.43.2c.17.07.38.13.61.2a3.12,3.12,0,0,0,.79.09,2.19,2.19,0,0,0,.66-.09,1.33,1.33,0,0,0,.49-.25.94.94,0,0,0,.3-.39,1.19,1.19,0,0,0,.1-.51,1.23,1.23,0,0,0-.12-.55,1.1,1.1,0,0,0-.35-.42,1.66,1.66,0,0,0-.6-.27,3,3,0,0,0-.84-.1H43.5l-.15,0a.24.24,0,0,1-.1-.1.53.53,0,0,1-.06-.21,3.44,3.44,0,0,1,0-.35,2.92,2.92,0,0,1,0-.32.38.38,0,0,1,.06-.19.18.18,0,0,1,.09-.1.32.32,0,0,1,.14,0h.78a2.53,2.53,0,0,0,.7-.09,1.59,1.59,0,0,0,.52-.26,1.27,1.27,0,0,0,.31-.42,1.17,1.17,0,0,0,.11-.53,1.21,1.21,0,0,0-.07-.43,1,1,0,0,0-.22-.35,1.1,1.1,0,0,0-.38-.23,1.55,1.55,0,0,0-.55-.09,2.09,2.09,0,0,0-.67.11,5.19,5.19,0,0,0-.57.23,3.92,3.92,0,0,0-.42.24.58.58,0,0,1-.26.11.16.16,0,0,1-.09,0s-.05,0-.07-.09a.77.77,0,0,1,0-.2,3.22,3.22,0,0,1,0-.33v-.29c0-.07,0-.14,0-.19a.43.43,0,0,1,.05-.12.91.91,0,0,1,.1-.13l.28-.19a2.93,2.93,0,0,1,.53-.25,5.7,5.7,0,0,1,.75-.21,4.32,4.32,0,0,1,.91-.09,3.94,3.94,0,0,1,1.14.15,2.35,2.35,0,0,1,.83.44,1.7,1.7,0,0,1,.51.7,2.27,2.27,0,0,1,.18.93,3,3,0,0,1-.1.75,1.9,1.9,0,0,1-.31.62A1.69,1.69,0,0,1,47,33a2.13,2.13,0,0,1-.69.28v0a2.48,2.48,0,0,1,.84.23,2,2,0,0,1,.62.46,1.95,1.95,0,0,1,.53,1.36Z"/><path class="cls-3" d="M55.58,33.44a9.25,9.25,0,0,1-.18,1.91,4.08,4.08,0,0,1-.55,1.46,2.62,2.62,0,0,1-1,.92,3.15,3.15,0,0,1-1.51.32,3.22,3.22,0,0,1-1.51-.31,2.37,2.37,0,0,1-.94-.89,4.3,4.3,0,0,1-.49-1.43,12.12,12.12,0,0,1-.14-1.91,9.32,9.32,0,0,1,.18-1.91A4.08,4.08,0,0,1,50,30.14a2.63,2.63,0,0,1,1-.93,3.3,3.3,0,0,1,1.51-.32A3.35,3.35,0,0,1,54,29.2a2.33,2.33,0,0,1,.94.9,3.89,3.89,0,0,1,.49,1.43A12.12,12.12,0,0,1,55.58,33.44Zm-1.82.09q0-.63,0-1.11a5.94,5.94,0,0,0-.11-.84,2.55,2.55,0,0,0-.17-.6,1.06,1.06,0,0,0-.26-.39.81.81,0,0,0-.34-.21,1.43,1.43,0,0,0-.43-.07,1.08,1.08,0,0,0-.66.2,1.22,1.22,0,0,0-.42.59,3.71,3.71,0,0,0-.21,1,10.88,10.88,0,0,0-.07,1.36A13.16,13.16,0,0,0,51.14,35a4,4,0,0,0,.23,1,1.09,1.09,0,0,0,.42.51,1.17,1.17,0,0,0,.61.15,1.19,1.19,0,0,0,.47-.09,1,1,0,0,0,.36-.26,1.19,1.19,0,0,0,.25-.43,2.87,2.87,0,0,0,.17-.6,7.45,7.45,0,0,0,.09-.77C53.76,34.19,53.76,33.87,53.76,33.53Z"/></g></g></svg>