<svg xmlns="http://www.w3.org/2000/svg" viewBox="0 0 72 72"><defs><style>.cls-1{fill:#46c795;}.cls-2{fill:#fff;}.cls-3{fill:#020202;}</style></defs><g id="Layer_2" data-name="Layer 2"><g id="Layer_5" data-name="Layer 5"><circle class="cls-1" cx="36" cy="36" r="36"/><path class="cls-2" d="M61.37,28.2H53.9v-8a4.5,4.5,0,1,0-2.6.06V28.2H37.1V12.94a4.5,4.5,0,1,0-2.6,0V28.2H20.4v-8a4.5,4.5,0,1,0-2.6,0v8h-7a4.39,4.39,0,0,0-4.39,4.39v9.22a4.39,4.39,0,0,0,4.39,4.39H17.8v5.56a4.5,4.5,0,1,0,2.6,0V46.2H34.5V59.06a4.5,4.5,0,1,0,2.6,0V46.2H51.3v5.53a4.5,4.5,0,1,0,2.6.06V46.2h7.47a4.38,4.38,0,0,0,4.39-4.39V32.59A4.38,4.38,0,0,0,61.37,28.2Z"/><path class="cls-3" d="M19.7,38.82a2.78,2.78,0,0,1-.27,1.26,2.54,2.54,0,0,1-.72.9,3.19,3.19,0,0,1-1.07.55,4.61,4.61,0,0,1-1.31.18,4,4,0,0,1-.87-.08,5.4,5.4,0,0,1-.72-.18,4.21,4.21,0,0,1-.51-.23,1.48,1.48,0,0,1-.3-.21.49.49,0,0,1-.13-.27,2.08,2.08,0,0,1,0-.49c0-.15,0-.27,0-.37a1.11,1.11,0,0,1,.05-.24.32.32,0,0,1,.08-.13.28.28,0,0,1,.13,0,.53.53,0,0,1,.27.11c.12.08.28.16.46.26a4.07,4.07,0,0,0,.68.25,3.06,3.06,0,0,0,.9.12,2.18,2.18,0,0,0,.6-.08,1.33,1.33,0,0,0,.46-.23,1,1,0,0,0,.28-.36,1.13,1.13,0,0,0,.1-.49.86.86,0,0,0-.17-.53,1.52,1.52,0,0,0-.44-.39,3.88,3.88,0,0,0-.61-.33l-.71-.32a6,6,0,0,1-.71-.38,3.07,3.07,0,0,1-.62-.51,2.66,2.66,0,0,1-.44-.71,2.61,2.61,0,0,1-.17-1,2.5,2.5,0,0,1,.25-1.15,2.39,2.39,0,0,1,.65-.82,2.77,2.77,0,0,1,1-.49A4.17,4.17,0,0,1,17,32.29a4.6,4.6,0,0,1,.64.05,5,5,0,0,1,.61.13,4.77,4.77,0,0,1,.5.19,1,1,0,0,1,.28.18.35.35,0,0,1,.1.12.33.33,0,0,1,0,.13s0,.12,0,.2v.31c0,.13,0,.25,0,.34a1.17,1.17,0,0,1,0,.23.37.37,0,0,1-.07.14.17.17,0,0,1-.13,0,.52.52,0,0,1-.24-.1,4.08,4.08,0,0,0-.42-.21,3.11,3.11,0,0,0-.57-.21,2.26,2.26,0,0,0-.71-.1,2,2,0,0,0-.52.07,1.07,1.07,0,0,0-.38.21.68.68,0,0,0-.22.31,1,1,0,0,0-.08.39.85.85,0,0,0,.17.52,1.56,1.56,0,0,0,.44.4A4.61,4.61,0,0,0,17,36l.72.32a6.94,6.94,0,0,1,.71.38,2.65,2.65,0,0,1,.63.52,2.25,2.25,0,0,1,.44.7A2.52,2.52,0,0,1,19.7,38.82Z"/><path class="cls-3" d="M29.3,36.89a7,7,0,0,1-.28,2,4.11,4.11,0,0,1-.84,1.51,3.49,3.49,0,0,1-1.37,1,5.08,5.08,0,0,1-1.9.33,5.45,5.45,0,0,1-1.85-.28,3.12,3.12,0,0,1-1.32-.84A3.62,3.62,0,0,1,21,39.14a7.14,7.14,0,0,1-.27-2.08,6.46,6.46,0,0,1,.29-2,3.91,3.91,0,0,1,.83-1.5,3.67,3.67,0,0,1,1.38-1,5,5,0,0,1,1.9-.33,5.58,5.58,0,0,1,1.82.27,3.35,3.35,0,0,1,1.33.85,3.75,3.75,0,0,1,.8,1.43A7,7,0,0,1,29.3,36.89Zm-1.94.1a7.33,7.33,0,0,0-.11-1.3,3,3,0,0,0-.39-1,1.78,1.78,0,0,0-.72-.64A2.35,2.35,0,0,0,25,33.81a2.29,2.29,0,0,0-1.14.25,2.13,2.13,0,0,0-.74.69,2.88,2.88,0,0,0-.4,1A5.92,5.92,0,0,0,22.63,37a6.79,6.79,0,0,0,.11,1.34,2.74,2.74,0,0,0,.38,1,1.69,1.69,0,0,0,.71.64,2.54,2.54,0,0,0,1.14.23,2.34,2.34,0,0,0,1.14-.26,2,2,0,0,0,.73-.69,2.93,2.93,0,0,0,.4-1A6.14,6.14,0,0,0,27.36,37Z"/><path class="cls-3" d="M35.85,40.78a1.83,1.83,0,0,1,0,.35,1.11,1.11,0,0,1,0,.24.28.28,0,0,1-.09.14.16.16,0,0,1-.12,0H31.4a.6.6,0,0,1-.39-.14.54.54,0,0,1-.16-.44V32.7a.18.18,0,0,1,0-.12.27.27,0,0,1,.15-.09.9.9,0,0,1,.28-.06l.45,0,.45,0a.9.9,0,0,1,.28.06.27.27,0,0,1,.15.09.18.18,0,0,1,.05.12V40h2.86a.21.21,0,0,1,.12,0,.25.25,0,0,1,.09.13,1,1,0,0,1,0,.23A1.94,1.94,0,0,1,35.85,40.78Z"/><path class="cls-3" d="M44.39,40.86a1.9,1.9,0,0,1,.11.4.23.23,0,0,1-.06.22.43.43,0,0,1-.27.09,4,4,0,0,1-.54,0h-.56a1.82,1.82,0,0,1-.31,0,.21.21,0,0,1-.14-.09.35.35,0,0,1-.07-.15l-.62-1.82H38.52l-.58,1.77a.67.67,0,0,1-.07.17.28.28,0,0,1-.15.1,1,1,0,0,1-.29.06h-.49l-.51,0a.39.39,0,0,1-.25-.1.29.29,0,0,1,0-.23,2.43,2.43,0,0,1,.11-.39L39,32.77a.67.67,0,0,1,.1-.19.33.33,0,0,1,.18-.11,1.37,1.37,0,0,1,.34,0H40.9a1.67,1.67,0,0,1,.38,0,.35.35,0,0,1,.2.11.9.9,0,0,1,.1.22Zm-4.17-6.67h0l-1.29,3.86H41.5Z"/><path class="cls-3" d="M51.79,40.17a2.63,2.63,0,0,1,0,.3q0,.12,0,.21a.52.52,0,0,1-.06.15.92.92,0,0,1-.11.15,1.37,1.37,0,0,1-.3.2,3.44,3.44,0,0,1-.54.25,5.49,5.49,0,0,1-.73.19,5,5,0,0,1-.89.08,4.75,4.75,0,0,1-1.69-.29,3.33,3.33,0,0,1-1.28-.86,3.9,3.9,0,0,1-.81-1.43,6.71,6.71,0,0,1-.28-2,6.51,6.51,0,0,1,.31-2.06,4.37,4.37,0,0,1,.87-1.51,3.56,3.56,0,0,1,1.33-.93,4.53,4.53,0,0,1,1.71-.32,3.48,3.48,0,0,1,.73.07,3.86,3.86,0,0,1,.65.16,3.37,3.37,0,0,1,.54.24,1.29,1.29,0,0,1,.33.23.52.52,0,0,1,.13.15.43.43,0,0,1,.06.17,1.29,1.29,0,0,1,0,.23,3.22,3.22,0,0,1,0,.33c0,.14,0,.26,0,.36a1.25,1.25,0,0,1,0,.24.32.32,0,0,1-.08.13.17.17,0,0,1-.12,0,.46.46,0,0,1-.26-.12l-.42-.28a3.48,3.48,0,0,0-.61-.27,2.68,2.68,0,0,0-.85-.12,2.07,2.07,0,0,0-1,.22,2.16,2.16,0,0,0-.72.63,3.18,3.18,0,0,0-.46,1A5.24,5.24,0,0,0,47.06,37a5.16,5.16,0,0,0,.16,1.39,2.67,2.67,0,0,0,.48,1,1.89,1.89,0,0,0,.73.56,2.38,2.38,0,0,0,1,.19,2.68,2.68,0,0,0,.85-.12,3.21,3.21,0,0,0,.61-.25c.17-.1.32-.18.43-.26a.55.55,0,0,1,.25-.11.16.16,0,0,1,.11,0,.18.18,0,0,1,.07.11,1.11,1.11,0,0,1,.05.24C51.79,39.87,51.79,40,51.79,40.17Z"/><path class="cls-3" d="M58.51,40.82c0,.14,0,.25,0,.35a1,1,0,0,1-.06.22.27.27,0,0,1-.09.12.15.15,0,0,1-.11,0H53.67a.56.56,0,0,1-.39-.14.54.54,0,0,1-.16-.44V33a.54.54,0,0,1,.16-.44.56.56,0,0,1,.39-.14h4.54a.15.15,0,0,1,.11,0s.06.06.09.12a1,1,0,0,1,.05.22,3.32,3.32,0,0,1,0,.35,3.28,3.28,0,0,1,0,.34,1,1,0,0,1-.05.22.38.38,0,0,1-.09.12.15.15,0,0,1-.11,0H55v2.22h2.75a.19.19,0,0,1,.12,0,.62.62,0,0,1,.09.12.9.9,0,0,1,0,.22,2.92,2.92,0,0,1,0,.33,3,3,0,0,1,0,.34.81.81,0,0,1,0,.21.31.31,0,0,1-.09.12.27.27,0,0,1-.12,0H55V40.1h3.28a.15.15,0,0,1,.11,0,.27.27,0,0,1,.09.12,1,1,0,0,1,.06.22C58.51,40.58,58.51,40.69,58.51,40.82Z"/></g></g></svg>