<svg xmlns="http://www.w3.org/2000/svg" viewBox="0 0 72 72"><defs><style>.cls-1{fill:#46c795;}.cls-2{fill:#fff;}.cls-3{fill:#020202;}</style></defs><g id="Layer_2" data-name="Layer 2"><g id="Layer_5" data-name="Layer 5"><circle class="cls-1" cx="36" cy="36" r="36"/><path class="cls-2" d="M61.11,28H53.9V20a4.5,4.5,0,1,0-2.6.06V28H37.1V12.69a4.5,4.5,0,1,0-2.6,0V28H20.4V20a4.5,4.5,0,1,0-2.6,0v8H10.49A4.38,4.38,0,0,0,6.1,32.34v9.22A4.38,4.38,0,0,0,10.49,46H17.8v5.56a4.5,4.5,0,1,0,2.6,0V46H34.5V58.81a4.5,4.5,0,1,0,2.6,0V46H51.3v5.53a4.5,4.5,0,1,0,2.6.06V46h7.21a4.39,4.39,0,0,0,4.39-4.39V32.34A4.39,4.39,0,0,0,61.11,28Z"/><path class="cls-3" d="M15.65,38.4a2.26,2.26,0,0,1-.2,1,1.9,1.9,0,0,1-.56.69,2.59,2.59,0,0,1-.81.42,3.61,3.61,0,0,1-1,.14,3.48,3.48,0,0,1-.67-.06,3.33,3.33,0,0,1-.55-.15,2.06,2.06,0,0,1-.39-.17,1,1,0,0,1-.23-.16.38.38,0,0,1-.1-.2,1.87,1.87,0,0,1,0-.38c0-.11,0-.2,0-.28a.6.6,0,0,1,0-.18.19.19,0,0,1,.06-.1.17.17,0,0,1,.1,0,.43.43,0,0,1,.21.09,3.48,3.48,0,0,0,.35.19,3.19,3.19,0,0,0,.51.2,2.4,2.4,0,0,0,.69.09,1.6,1.6,0,0,0,.46-.06,1,1,0,0,0,.35-.18.67.67,0,0,0,.22-.28.87.87,0,0,0,.07-.37.65.65,0,0,0-.12-.4,1.1,1.1,0,0,0-.34-.3,4.12,4.12,0,0,0-.47-.25l-.54-.25a4.14,4.14,0,0,1-.55-.29,2.5,2.5,0,0,1-.47-.39,1.82,1.82,0,0,1-.33-.54,1.9,1.9,0,0,1-.13-.75,1.93,1.93,0,0,1,.19-.88,1.69,1.69,0,0,1,.5-.62,1.92,1.92,0,0,1,.74-.38,3.26,3.26,0,0,1,.9-.12,2.81,2.81,0,0,1,.5,0,3.41,3.41,0,0,1,.46.1,2.77,2.77,0,0,1,.38.14,1.05,1.05,0,0,1,.22.14.28.28,0,0,1,.07.09.62.62,0,0,1,0,.1.61.61,0,0,1,0,.15,1.7,1.7,0,0,1,0,.24,2,2,0,0,1,0,.26.84.84,0,0,1,0,.18.23.23,0,0,1-.05.1.15.15,0,0,1-.1,0,.42.42,0,0,1-.18-.07l-.32-.17a3.16,3.16,0,0,0-.44-.16,1.81,1.81,0,0,0-.54-.07,1.2,1.2,0,0,0-.4.06.8.8,0,0,0-.29.15.81.81,0,0,0-.17.24.73.73,0,0,0-.06.3.71.71,0,0,0,.13.4,1.26,1.26,0,0,0,.34.3,2.69,2.69,0,0,0,.48.24l.55.25c.18.09.37.18.55.29a2.5,2.5,0,0,1,.47.39,1.9,1.9,0,0,1,.34.54A1.83,1.83,0,0,1,15.65,38.4Z"/><path class="cls-3" d="M21.25,34.11a2,2,0,0,1,0,.27.8.8,0,0,1,0,.18.2.2,0,0,1-.06.09.12.12,0,0,1-.09,0H19.3v5.6a.13.13,0,0,1,0,.1.35.35,0,0,1-.11.07l-.22,0h-.68l-.22,0-.12-.07a.17.17,0,0,1,0-.1v-5.6H16.14a.1.1,0,0,1-.09,0,.22.22,0,0,1-.07-.09c0-.05,0-.11,0-.18a3.65,3.65,0,0,1,0-.54,1.27,1.27,0,0,1,0-.18.2.2,0,0,1,.07-.1.12.12,0,0,1,.09,0H21a.16.16,0,0,1,.09,0,.19.19,0,0,1,.06.1.6.6,0,0,1,0,.18A2,2,0,0,1,21.25,34.11Z"/><path class="cls-3" d="M26.9,40a2.32,2.32,0,0,1,.08.3.22.22,0,0,1,0,.17.34.34,0,0,1-.21.07h-.84a1.07,1.07,0,0,1-.24,0,.17.17,0,0,1-.11-.06l-.06-.11L25,38.9H22.41L22,40.26a.67.67,0,0,1-.06.12.19.19,0,0,1-.11.08.62.62,0,0,1-.22,0h-.76a.31.31,0,0,1-.2-.08.23.23,0,0,1,0-.17,1.12,1.12,0,0,1,.08-.3l2.14-6.17a.53.53,0,0,1,.08-.15s.07-.06.13-.08a.83.83,0,0,1,.26,0h.95a1.06,1.06,0,0,1,.29,0,.27.27,0,0,1,.15.08.54.54,0,0,1,.08.17Zm-3.19-5.1h0l-1,3h2Z"/><path class="cls-3" d="M33.6,40a.54.54,0,0,1,0,.22.48.48,0,0,1-.12.16.46.46,0,0,1-.17.09.69.69,0,0,1-.2,0h-.6a1.55,1.55,0,0,1-.33,0,.89.89,0,0,1-.25-.14,1.23,1.23,0,0,1-.22-.27,3.36,3.36,0,0,1-.24-.44L29.7,36.36c-.1-.19-.21-.4-.31-.62s-.2-.44-.28-.66h0l0,.78c0,.25,0,.52,0,.79v3.63a.17.17,0,0,1,0,.1.2.2,0,0,1-.1.07.72.72,0,0,1-.2,0h-.62a.72.72,0,0,1-.2,0s-.08,0-.09-.07a.17.17,0,0,1,0-.1V34a.46.46,0,0,1,.15-.38.52.52,0,0,1,.36-.13h.76a1.13,1.13,0,0,1,.34,0,.71.71,0,0,1,.25.11,1.2,1.2,0,0,1,.21.23,3.34,3.34,0,0,1,.2.35l1.35,2.54c.08.15.16.3.23.45l.23.45.21.43c.06.15.13.29.19.43h0c0-.25,0-.51,0-.78s0-.53,0-.78V33.74a.19.19,0,0,1,0-.1.35.35,0,0,1,.11-.07.72.72,0,0,1,.2,0h.62a.64.64,0,0,1,.19,0,.23.23,0,0,1,.09.07.19.19,0,0,1,0,.1Z"/><path class="cls-3" d="M40.89,36.91a4.66,4.66,0,0,1-.25,1.63,2.89,2.89,0,0,1-.72,1.11,2.78,2.78,0,0,1-1.13.63,5.42,5.42,0,0,1-1.6.2H35.53a.43.43,0,0,1-.29-.1.44.44,0,0,1-.12-.34V34a.43.43,0,0,1,.12-.34.44.44,0,0,1,.29-.11h1.79a4.79,4.79,0,0,1,1.57.22,2.74,2.74,0,0,1,1.09.64,2.85,2.85,0,0,1,.68,1.06A4.3,4.3,0,0,1,40.89,36.91Zm-1.46,0a3.28,3.28,0,0,0-.12-.91,1.84,1.84,0,0,0-.37-.74,1.78,1.78,0,0,0-.65-.49,2.81,2.81,0,0,0-1-.17h-.72v4.73h.74a2.84,2.84,0,0,0,1-.15,1.83,1.83,0,0,0,.66-.46,1.92,1.92,0,0,0,.4-.75A4.15,4.15,0,0,0,39.43,37Z"/><path class="cls-3" d="M47.48,40a2.78,2.78,0,0,1,.09.3.19.19,0,0,1,0,.17.34.34,0,0,1-.21.07h-.84a1,1,0,0,1-.23,0,.17.17,0,0,1-.11-.06.39.39,0,0,1-.06-.11l-.47-1.4H43l-.44,1.36a.33.33,0,0,1,0,.12.21.21,0,0,1-.12.08.56.56,0,0,1-.21,0H41.4a.31.31,0,0,1-.19-.08.23.23,0,0,1,0-.17,1.7,1.7,0,0,1,.08-.3l2.15-6.17a.52.52,0,0,1,.07-.15.27.27,0,0,1,.14-.08.83.83,0,0,1,.26,0h1a1.06,1.06,0,0,1,.29,0,.27.27,0,0,1,.15.08.91.91,0,0,1,.08.17Zm-3.19-5.1h0l-1,3h2Z"/><path class="cls-3" d="M53.61,40.3a.16.16,0,0,1,0,.1s-.05.05-.1.07a1.09,1.09,0,0,1-.24,0h-.78a.56.56,0,0,1-.21,0,.23.23,0,0,1-.11-.07l-.06-.11-.62-1.55c-.08-.18-.15-.34-.22-.47a1.28,1.28,0,0,0-.24-.34.89.89,0,0,0-.7-.28h-.44v2.65a.13.13,0,0,1,0,.1.35.35,0,0,1-.11.07l-.22,0h-.68l-.22,0a.35.35,0,0,1-.11-.07.17.17,0,0,1,0-.1V34a.43.43,0,0,1,.12-.34.44.44,0,0,1,.3-.11h2.25l.32,0a3.16,3.16,0,0,1,.75.2,1.83,1.83,0,0,1,.57.38,1.5,1.5,0,0,1,.36.56,2,2,0,0,1,.12.73,2.2,2.2,0,0,1-.09.64,1.37,1.37,0,0,1-.26.51,1.57,1.57,0,0,1-.42.39,2.5,2.5,0,0,1-.57.27,1.75,1.75,0,0,1,.29.18,1.6,1.6,0,0,1,.26.26,2.33,2.33,0,0,1,.22.35,2.56,2.56,0,0,1,.21.44l.59,1.37.11.3A1.25,1.25,0,0,1,53.61,40.3Zm-1.82-4.72a1.06,1.06,0,0,0-.15-.58,1,1,0,0,0-.51-.33l-.25,0-.38,0h-.63v2h.72a1.7,1.7,0,0,0,.53-.07,1.18,1.18,0,0,0,.37-.2.9.9,0,0,0,.23-.32A1.07,1.07,0,0,0,51.79,35.58Z"/><path class="cls-3" d="M60.42,36.91a4.66,4.66,0,0,1-.25,1.63,2.66,2.66,0,0,1-1.85,1.74,5.39,5.39,0,0,1-1.59.2H55.07a.39.39,0,0,1-.42-.44V34a.43.43,0,0,1,.12-.34.44.44,0,0,1,.3-.11h1.78a4.86,4.86,0,0,1,1.58.22,2.89,2.89,0,0,1,1.09.64,2.83,2.83,0,0,1,.67,1.06A4.07,4.07,0,0,1,60.42,36.91ZM59,37a3.72,3.72,0,0,0-.11-.91,2,2,0,0,0-.37-.74,1.73,1.73,0,0,0-.66-.49,2.81,2.81,0,0,0-1-.17h-.71v4.73h.73a2.77,2.77,0,0,0,1-.15,1.67,1.67,0,0,0,.66-.46,1.92,1.92,0,0,0,.4-.75A3.75,3.75,0,0,0,59,37Z"/></g></g></svg>