<svg xmlns="http://www.w3.org/2000/svg" viewBox="0 0 76.37 56.04"><defs><style>.cls-1{fill:#46c795;}.cls-2{fill:#fff;}</style></defs><g id="Layer_2" data-name="Layer 2"><g id="Layer_5" data-name="Layer 5"><path class="cls-1" d="M14.41,56l-3.21-1A16.39,16.39,0,0,1,0,39.34C0,32,4.47,25.24,10.69,23.18c.51-5.22,2.91-9.57,6.62-12a12.73,12.73,0,0,1,7-2.06,13.1,13.1,0,0,1,4.24.71A19.42,19.42,0,0,1,45.17,0C56.74,0,64.28,10.12,65,20.05a17.93,17.93,0,0,1,10,10.37,20.9,20.9,0,0,1-.82,16.28A15.72,15.72,0,0,1,60.19,56H14.41Z"/><path class="cls-2" d="M59.74,22.7H52V19.35a3.27,3.27,0,1,0-1.88,0V22.7H39.9V14a3.25,3.25,0,1,0-1.89.05V22.7H27.7V19.35a3.27,3.27,0,1,0-1.89,0V22.7h-7.7a4.39,4.39,0,0,0-4.39,4.39v7.42a4.4,4.4,0,0,0,4.39,4.39h7.7v3.35a3.27,3.27,0,1,0,1.89,0V38.9H38v8.53a3.26,3.26,0,1,0,1.89,0V38.9H50.15v3.25a3.24,3.24,0,0,0-2.33,3.11,3.27,3.27,0,1,0,6.54,0A3.24,3.24,0,0,0,52,42.15V38.9h7.71a4.39,4.39,0,0,0,4.38-4.39V27.09A4.38,4.38,0,0,0,59.74,22.7Z"/><path d="M28.84,34.65a2.92,2.92,0,0,1,0,.33.65.65,0,0,1-.06.21.24.24,0,0,1-.08.11.23.23,0,0,1-.11,0H23.69a.23.23,0,0,1-.11,0,.24.24,0,0,1-.08-.11.65.65,0,0,1-.06-.21,2.73,2.73,0,0,1,0-.66,1,1,0,0,1,0-.22l.09-.12a.2.2,0,0,1,.11,0h1.64V28.19L23.91,29a1,1,0,0,1-.25.09.17.17,0,0,1-.16,0,.34.34,0,0,1-.08-.2,4,4,0,0,1,0-.41,2.1,2.1,0,0,1,0-.27.48.48,0,0,1,0-.18.25.25,0,0,1,.08-.12.49.49,0,0,1,.13-.1l1.9-1.23.08-.05.13,0h1a1.29,1.29,0,0,1,.24,0,.23.23,0,0,1,.11.07.15.15,0,0,1,0,.1V34h1.45a.2.2,0,0,1,.11,0,.62.62,0,0,1,.09.12,1,1,0,0,1,.05.22A2.92,2.92,0,0,1,28.84,34.65Z"/><path d="M32.37,34.08a3.68,3.68,0,0,1,0,.49,2.59,2.59,0,0,1-.09.42,2.14,2.14,0,0,1-.16.39,3.21,3.21,0,0,1-.23.38l-.92,1.32-.11.11a.32.32,0,0,1-.14.08l-.2,0-.29,0-.32,0a.56.56,0,0,1-.18-.05.15.15,0,0,1-.06-.09.39.39,0,0,1,0-.13l.84-1.88V34.08a1.3,1.3,0,0,1,0-.38.48.48,0,0,1,.17-.22.81.81,0,0,1,.3-.1l.43,0,.41,0a.71.71,0,0,1,.28.1.43.43,0,0,1,.17.22A1.3,1.3,0,0,1,32.37,34.08Z"/><path d="M39.81,30.88a9.32,9.32,0,0,1-.18,1.91,4.27,4.27,0,0,1-.55,1.46,2.62,2.62,0,0,1-1,.92,3.27,3.27,0,0,1-1.51.32,3.22,3.22,0,0,1-1.51-.31,2.39,2.39,0,0,1-.94-.9,4.24,4.24,0,0,1-.49-1.42A12.21,12.21,0,0,1,33.48,31,9.42,9.42,0,0,1,33.66,29a4,4,0,0,1,.56-1.45,2.55,2.55,0,0,1,1-.93,3.3,3.3,0,0,1,1.51-.32,3.22,3.22,0,0,1,1.51.31,2.33,2.33,0,0,1,.94.9A3.83,3.83,0,0,1,39.67,29,12.12,12.12,0,0,1,39.81,30.88ZM38,31c0-.42,0-.79,0-1.12a5.6,5.6,0,0,0-.11-.83,2.55,2.55,0,0,0-.17-.6,1.21,1.21,0,0,0-.26-.4.92.92,0,0,0-.34-.21,1.44,1.44,0,0,0-.43-.06A1.06,1.06,0,0,0,36,28a1.23,1.23,0,0,0-.42.58,3.9,3.9,0,0,0-.21,1,10.88,10.88,0,0,0-.07,1.36,13.16,13.16,0,0,0,.08,1.56,3.83,3.83,0,0,0,.23,1,1.08,1.08,0,0,0,.42.52,1.28,1.28,0,0,0,.61.14A1.4,1.4,0,0,0,37.1,34a1.27,1.27,0,0,0,.36-.26,1.28,1.28,0,0,0,.25-.43,2.87,2.87,0,0,0,.17-.6c0-.23.07-.49.09-.77S38,31.31,38,31Z"/><path d="M46.9,30.88a10.12,10.12,0,0,1-.17,1.91,4.08,4.08,0,0,1-.56,1.46,2.53,2.53,0,0,1-1,.92,3.32,3.32,0,0,1-1.52.32,3.21,3.21,0,0,1-1.5-.31,2.33,2.33,0,0,1-.94-.9,3.84,3.84,0,0,1-.49-1.42A11.11,11.11,0,0,1,40.58,31,10.23,10.23,0,0,1,40.75,29a4.43,4.43,0,0,1,.56-1.45,2.58,2.58,0,0,1,1-.93,3.26,3.26,0,0,1,1.5-.32,3.22,3.22,0,0,1,1.51.31,2.35,2.35,0,0,1,1,.9A4,4,0,0,1,46.76,29,11,11,0,0,1,46.9,30.88ZM45.09,31c0-.42,0-.79,0-1.12A7.34,7.34,0,0,0,45,29a3.09,3.09,0,0,0-.18-.6,1.19,1.19,0,0,0-.25-.4,1,1,0,0,0-.35-.21,1.37,1.37,0,0,0-.42-.06,1.11,1.11,0,0,0-.67.2,1.29,1.29,0,0,0-.41.58,3.48,3.48,0,0,0-.22,1,16.44,16.44,0,0,0,0,2.92,3.41,3.41,0,0,0,.24,1,1.12,1.12,0,0,0,.41.52,1.41,1.41,0,0,0,1.08.06,1,1,0,0,0,.36-.26,1.3,1.3,0,0,0,.26-.43,3.63,3.63,0,0,0,.17-.6c0-.23.07-.49.09-.77S45.09,31.31,45.09,31Z"/><path d="M54,30.88a10.12,10.12,0,0,1-.17,1.91,4.28,4.28,0,0,1-.56,1.46,2.55,2.55,0,0,1-1,.92,3.27,3.27,0,0,1-1.51.32,3.15,3.15,0,0,1-1.5-.31,2.35,2.35,0,0,1-1-.9,4.24,4.24,0,0,1-.49-1.42A12.21,12.21,0,0,1,47.67,31,9.42,9.42,0,0,1,47.85,29a4,4,0,0,1,.56-1.45,2.62,2.62,0,0,1,1-.93,3.33,3.33,0,0,1,1.51-.32,3.22,3.22,0,0,1,1.51.31,2.33,2.33,0,0,1,.94.9A3.83,3.83,0,0,1,53.86,29,12.12,12.12,0,0,1,54,30.88ZM52.19,31c0-.42,0-.79,0-1.12a7.57,7.57,0,0,0-.1-.83,3.09,3.09,0,0,0-.18-.6,1.21,1.21,0,0,0-.26-.4.92.92,0,0,0-.34-.21,1.42,1.42,0,0,0-.42-.06,1.09,1.09,0,0,0-.67.2,1.23,1.23,0,0,0-.42.58,3.9,3.9,0,0,0-.21,1,14.25,14.25,0,0,0,0,2.92,3.41,3.41,0,0,0,.24,1,1,1,0,0,0,.41.52,1.28,1.28,0,0,0,.61.14,1.36,1.36,0,0,0,.47-.08,1,1,0,0,0,.36-.26,1.28,1.28,0,0,0,.25-.43,2.87,2.87,0,0,0,.17-.6,4.4,4.4,0,0,0,.09-.77C52.18,31.63,52.19,31.31,52.19,31Z"/></g></g></svg>