<svg xmlns="http://www.w3.org/2000/svg" viewBox="0 0 66.24 66.24"><defs><style>.cls-1{fill:#46c795;}.cls-2{fill:#fff;}</style></defs><g id="Layer_2" data-name="Layer 2"><g id="Layer_5" data-name="Layer 5"><rect class="cls-1" width="66.24" height="66.24" rx="7.63"/><path class="cls-2" d="M58.43,24.74H51.12V17.53a4.5,4.5,0,1,0-2.6,0v7.21H34.42V10.23a4.5,4.5,0,1,0-2.6,0V24.74H19.93a21.33,21.33,0,0,1,2,9,21.36,21.36,0,0,1-2,9H18.71a19.36,19.36,0,0,0,2.22-9,19.33,19.33,0,0,0-2.22-9h-1V17.5a4.5,4.5,0,1,0-2.6.06v7.18H7.81a4.38,4.38,0,0,0-4.39,4.39v9.22a4.39,4.39,0,0,0,4.39,4.39h7.31v6.18a4.52,4.52,0,1,0,2.6.07V42.74h14.1V56.26a4.5,4.5,0,1,0,2.6,0V42.74h14.1V49a4.5,4.5,0,1,0,2.6,0V42.74h7.31a4.39,4.39,0,0,0,4.39-4.39V29.13A4.38,4.38,0,0,0,58.43,24.74ZM13.55,37a3.28,3.28,0,1,1,3.27-3.27A3.28,3.28,0,0,1,13.55,37Z"/><circle class="cls-2" cx="13.55" cy="33.74" r="2.27"/><rect class="cls-1" x="18.71" y="24.74" width="1.22"/><path d="M36.08,35.3a2.58,2.58,0,0,1-.26,1.17,2.37,2.37,0,0,1-.7.87,3.4,3.4,0,0,1-1.08.53,5,5,0,0,1-1.37.18,5.51,5.51,0,0,1-.85-.07,4.88,4.88,0,0,1-.7-.16,2.86,2.86,0,0,1-.51-.2l-.26-.15a.38.38,0,0,1-.09-.13.6.6,0,0,1-.05-.16,1.2,1.2,0,0,1,0-.23c0-.09,0-.21,0-.34a1.14,1.14,0,0,1,.06-.45.17.17,0,0,1,.16-.13.6.6,0,0,1,.24.09,3.63,3.63,0,0,0,.43.2,4.67,4.67,0,0,0,.6.2,3.26,3.26,0,0,0,.8.09,2.19,2.19,0,0,0,.66-.09,1.51,1.51,0,0,0,.49-.25,1,1,0,0,0,.3-.39,1.19,1.19,0,0,0,.1-.51,1.23,1.23,0,0,0-.12-.55,1.19,1.19,0,0,0-.36-.42,1.54,1.54,0,0,0-.59-.27,3.48,3.48,0,0,0-.85-.1h-.76a.34.34,0,0,1-.15,0,.19.19,0,0,1-.1-.1A.53.53,0,0,1,31,33.7a3,3,0,0,1,0-.34A2.77,2.77,0,0,1,31,33a.64.64,0,0,1,0-.19.24.24,0,0,1,.1-.1.29.29,0,0,1,.14,0h.77a2.48,2.48,0,0,0,.7-.09,1.49,1.49,0,0,0,.52-.26,1.14,1.14,0,0,0,.32-.41,1.41,1.41,0,0,0,.11-.54,1.26,1.26,0,0,0-.08-.43,1,1,0,0,0-.22-.35A1,1,0,0,0,33,30.4a1.51,1.51,0,0,0-.55-.09,2.14,2.14,0,0,0-.67.11,5.92,5.92,0,0,0-.56.23l-.42.24a.62.62,0,0,1-.26.11.17.17,0,0,1-.1,0,.13.13,0,0,1-.06-.09.46.46,0,0,1,0-.2,2.63,2.63,0,0,1,0-.33,2.44,2.44,0,0,1,0-.29.48.48,0,0,1,0-.18.39.39,0,0,1,.05-.13.35.35,0,0,1,.1-.12,1.47,1.47,0,0,1,.28-.2,3.81,3.81,0,0,1,.53-.25A5.13,5.13,0,0,1,32.1,29a4.4,4.4,0,0,1,.91-.08,3.94,3.94,0,0,1,1.14.15,2.38,2.38,0,0,1,.84.43,1.89,1.89,0,0,1,.51.7,2.27,2.27,0,0,1,.17.93,2.57,2.57,0,0,1-.1.75,2,2,0,0,1-.3.62,1.73,1.73,0,0,1-.5.47,2.22,2.22,0,0,1-.68.29v0a2.36,2.36,0,0,1,.83.23,2.14,2.14,0,0,1,.63.46,1.91,1.91,0,0,1,.39.62A2,2,0,0,1,36.08,35.3Z"/><path d="M43.13,35a3.08,3.08,0,0,1-.25,1.28,2.56,2.56,0,0,1-.7,1,3.22,3.22,0,0,1-1.1.59,4.49,4.49,0,0,1-1.41.21,4.75,4.75,0,0,1-.78-.06,5.41,5.41,0,0,1-.67-.12l-.48-.16a1.32,1.32,0,0,1-.25-.13.76.76,0,0,1-.08-.11.66.66,0,0,1,0-.15,1.17,1.17,0,0,1,0-.22c0-.08,0-.19,0-.3a2.92,2.92,0,0,1,0-.33.87.87,0,0,1,0-.21.31.31,0,0,1,.07-.12.18.18,0,0,1,.1,0,.51.51,0,0,1,.21.08,2.57,2.57,0,0,0,.37.18,4,4,0,0,0,.55.17,3.63,3.63,0,0,0,.79.08,3.17,3.17,0,0,0,.72-.08,1.48,1.48,0,0,0,.55-.26,1.31,1.31,0,0,0,.35-.46,1.62,1.62,0,0,0,.12-.66,1.54,1.54,0,0,0-.1-.58,1,1,0,0,0-.32-.43,1.44,1.44,0,0,0-.57-.27,3.37,3.37,0,0,0-.84-.09,5.44,5.44,0,0,0-.73,0,4.35,4.35,0,0,1-.61,0,.34.34,0,0,1-.28-.1.52.52,0,0,1-.09-.36V29.56a.6.6,0,0,1,.11-.4.43.43,0,0,1,.34-.12h4.19a.21.21,0,0,1,.11,0,.34.34,0,0,1,.1.13,1.11,1.11,0,0,1,0,.24,3.49,3.49,0,0,1,0,.35,2.07,2.07,0,0,1-.07.6q-.08.18-.21.18H39.17v1.89l.48,0h.49a4.51,4.51,0,0,1,1.28.17,2.71,2.71,0,0,1,.94.49,2.13,2.13,0,0,1,.57.81A2.77,2.77,0,0,1,43.13,35Z"/><path d="M50.45,34.94a3.59,3.59,0,0,1-.21,1.24,2.69,2.69,0,0,1-1.58,1.63,3.48,3.48,0,0,1-1.34.24,3.75,3.75,0,0,1-1.07-.14,2.37,2.37,0,0,1-.79-.41,2,2,0,0,1-.55-.64,3.52,3.52,0,0,1-.34-.84,6.33,6.33,0,0,1-.17-1,11,11,0,0,1,0-1.18c0-.34,0-.7,0-1.08a6.12,6.12,0,0,1,.2-1.12,4.89,4.89,0,0,1,.41-1,3.23,3.23,0,0,1,.69-.87,3.18,3.18,0,0,1,1-.59,4.28,4.28,0,0,1,1.42-.22l.52,0,.49.08a2.51,2.51,0,0,1,.38.11,1,1,0,0,1,.21.11.39.39,0,0,1,.08.1.83.83,0,0,1,0,.12,1.57,1.57,0,0,1,0,.16v.23c0,.14,0,.26,0,.35a1,1,0,0,1,0,.22.18.18,0,0,1-.07.11.16.16,0,0,1-.12,0,.76.76,0,0,1-.21-.05l-.31-.1-.44-.09a3.3,3.3,0,0,0-.58,0,2,2,0,0,0-.93.2,1.67,1.67,0,0,0-.62.56,2.34,2.34,0,0,0-.35.82,4.38,4.38,0,0,0-.12,1,3.69,3.69,0,0,1,.35-.19,4.08,4.08,0,0,1,.42-.17l.5-.11a3.82,3.82,0,0,1,1.71.14,2,2,0,0,1,.78.53,2,2,0,0,1,.45.83A3.61,3.61,0,0,1,50.45,34.94Zm-1.77.17a2.83,2.83,0,0,0-.06-.62,1.19,1.19,0,0,0-.2-.44.82.82,0,0,0-.36-.27,1.46,1.46,0,0,0-.55-.1,2.33,2.33,0,0,0-.37,0,2.22,2.22,0,0,0-.37.09c-.11,0-.23.09-.34.15l-.3.18a7,7,0,0,0,.08,1.22,2.25,2.25,0,0,0,.24.78,1,1,0,0,0,.4.41,1.29,1.29,0,0,0,.57.12,1.2,1.2,0,0,0,.55-.12,1.13,1.13,0,0,0,.39-.33,1.37,1.37,0,0,0,.24-.5A2.31,2.31,0,0,0,48.68,35.11Z"/><path d="M57.58,33.43a9.39,9.39,0,0,1-.17,1.92,4,4,0,0,1-.56,1.45,2.53,2.53,0,0,1-1,.92,3.18,3.18,0,0,1-1.51.33,3.22,3.22,0,0,1-1.51-.32,2.24,2.24,0,0,1-.94-.89,4.08,4.08,0,0,1-.49-1.43,12.12,12.12,0,0,1-.14-1.91,10.12,10.12,0,0,1,.17-1.91A4.49,4.49,0,0,1,52,30.13a2.62,2.62,0,0,1,1-.92,3.15,3.15,0,0,1,1.51-.32,3.21,3.21,0,0,1,1.5.31,2.26,2.26,0,0,1,1,.89,4.3,4.3,0,0,1,.49,1.43A12.2,12.2,0,0,1,57.58,33.43Zm-1.81.09q0-.63,0-1.11a7.89,7.89,0,0,0-.11-.84,3.59,3.59,0,0,0-.18-.6,1.25,1.25,0,0,0-.25-.39.84.84,0,0,0-.35-.21,1.33,1.33,0,0,0-.42-.06,1.11,1.11,0,0,0-.67.19,1.33,1.33,0,0,0-.41.59,3.39,3.39,0,0,0-.22,1,13.39,13.39,0,0,0-.06,1.35A13.16,13.16,0,0,0,53.15,35a3.53,3.53,0,0,0,.23,1,1.09,1.09,0,0,0,.42.51,1.14,1.14,0,0,0,.6.15,1.21,1.21,0,0,0,.48-.09,1.07,1.07,0,0,0,.35-.25,1.41,1.41,0,0,0,.26-.43,4.08,4.08,0,0,0,.17-.61,7.13,7.13,0,0,0,.09-.77C55.76,34.18,55.77,33.87,55.77,33.52Z"/></g></g></svg>