<svg xmlns="http://www.w3.org/2000/svg" viewBox="0 0 72 72"><defs><style>.cls-1{fill:#46c795;}.cls-2{fill:#fff;}.cls-3{fill:#020202;}</style></defs><g id="Layer_2" data-name="Layer 2"><g id="Layer_5" data-name="Layer 5"><circle class="cls-1" cx="36" cy="36" r="36"/><path class="cls-2" d="M61.37,28H53.9V20a4.5,4.5,0,1,0-2.6.06V28H37.1V12.69a4.5,4.5,0,1,0-2.6,0V28H20.4V20a4.5,4.5,0,1,0-2.6,0v8h-7a4.39,4.39,0,0,0-4.39,4.39v9.22A4.39,4.39,0,0,0,10.75,46H17.8v5.56a4.5,4.5,0,1,0,2.6,0V46H34.5V58.81a4.5,4.5,0,1,0,2.6,0V46H51.3v5.53a4.5,4.5,0,1,0,2.6.06V46h7.47a4.38,4.38,0,0,0,4.39-4.39V32.34A4.38,4.38,0,0,0,61.37,28Z"/><path class="cls-3" d="M15.27,38.4a2.12,2.12,0,0,1-.2,1,2,2,0,0,1-.55.69,2.76,2.76,0,0,1-.82.42,3.69,3.69,0,0,1-1.67.08,3.2,3.2,0,0,1-.54-.15,2.18,2.18,0,0,1-.4-.17,1.27,1.27,0,0,1-.23-.16.47.47,0,0,1-.1-.2,1.87,1.87,0,0,1,0-.38,2.16,2.16,0,0,1,0-.28.42.42,0,0,1,0-.18.29.29,0,0,1,.06-.1.17.17,0,0,1,.1,0,.43.43,0,0,1,.21.09,3.48,3.48,0,0,0,.35.19,3.78,3.78,0,0,0,.52.2,2.31,2.31,0,0,0,.69.09,1.65,1.65,0,0,0,.46-.06,1.1,1.1,0,0,0,.34-.18.67.67,0,0,0,.22-.28.87.87,0,0,0,.08-.37.66.66,0,0,0-.13-.4,1.1,1.1,0,0,0-.34-.3,3.42,3.42,0,0,0-.47-.25l-.54-.25a3.5,3.5,0,0,1-.54-.29,2.22,2.22,0,0,1-.47-.39,1.84,1.84,0,0,1-.34-.54,2.1,2.1,0,0,1-.13-.75,2.07,2.07,0,0,1,.19-.88,1.69,1.69,0,0,1,.5-.62,2,2,0,0,1,.74-.38,3.32,3.32,0,0,1,.9-.12,2.81,2.81,0,0,1,.5,0,3.11,3.11,0,0,1,.46.1,2.77,2.77,0,0,1,.38.14.83.83,0,0,1,.22.14.18.18,0,0,1,.07.09.23.23,0,0,1,0,.1s0,.09,0,.15v.24a2,2,0,0,1,0,.26.9.9,0,0,1,0,.18s0,.08-.06.1a.12.12,0,0,1-.09,0,.44.44,0,0,1-.19-.07l-.32-.17a3,3,0,0,0-.43-.16,1.9,1.9,0,0,0-.54-.07,1.27,1.27,0,0,0-.41.06.75.75,0,0,0-.28.15.69.69,0,0,0-.18.24.94.94,0,0,0-.05.3.7.7,0,0,0,.12.4,1.43,1.43,0,0,0,.34.3,2.69,2.69,0,0,0,.48.24l.55.25a5.77,5.77,0,0,1,.55.29,2.28,2.28,0,0,1,.48.39,1.87,1.87,0,0,1,.33.54A1.83,1.83,0,0,1,15.27,38.4Z"/><path class="cls-3" d="M22.61,36.93a5.2,5.2,0,0,1-.22,1.54,3.11,3.11,0,0,1-.64,1.16,2.72,2.72,0,0,1-1.05.73,4.47,4.47,0,0,1-2.86,0,2.46,2.46,0,0,1-1-.64,2.7,2.7,0,0,1-.6-1.11,5.39,5.39,0,0,1-.2-1.59,5.12,5.12,0,0,1,.21-1.52,3,3,0,0,1,.64-1.14,2.72,2.72,0,0,1,1.05-.73,3.83,3.83,0,0,1,1.45-.25,4.29,4.29,0,0,1,1.4.21,2.46,2.46,0,0,1,1,.64,2.86,2.86,0,0,1,.61,1.1A5.24,5.24,0,0,1,22.61,36.93ZM21.12,37A5.92,5.92,0,0,0,21,36a2.14,2.14,0,0,0-.3-.77,1.33,1.33,0,0,0-.55-.5,2,2,0,0,0-.86-.17,1.8,1.8,0,0,0-.87.19,1.67,1.67,0,0,0-.56.53,2.24,2.24,0,0,0-.3.76,4.66,4.66,0,0,0-.09.93,6.21,6.21,0,0,0,.08,1,2.39,2.39,0,0,0,.29.78,1.37,1.37,0,0,0,.55.49,2,2,0,0,0,.87.17,1.8,1.8,0,0,0,.87-.19,1.58,1.58,0,0,0,.56-.53,2.27,2.27,0,0,0,.3-.78A4.62,4.62,0,0,0,21.12,37Z"/><path class="cls-3" d="M27.69,34.11a2.1,2.1,0,0,1,0,.27,1.27,1.27,0,0,1,0,.18.35.35,0,0,1-.07.09.12.12,0,0,1-.09,0H25.21v1.87h2.13l.09,0a.35.35,0,0,1,.07.09.69.69,0,0,1,0,.18,2.1,2.1,0,0,1,0,.27,2,2,0,0,1,0,.26.69.69,0,0,1,0,.18.29.29,0,0,1-.07.1.16.16,0,0,1-.09,0H25.21v2.59a.17.17,0,0,1,0,.1.22.22,0,0,1-.12.07.9.9,0,0,1-.22,0h-.68a1,1,0,0,1-.22,0,.23.23,0,0,1-.11-.07.13.13,0,0,1,0-.1V34a.43.43,0,0,1,.12-.34.44.44,0,0,1,.3-.11h3.27a.16.16,0,0,1,.09,0,.29.29,0,0,1,.07.1,1.27,1.27,0,0,1,0,.18A2.18,2.18,0,0,1,27.69,34.11Z"/><path class="cls-3" d="M33.47,34.11a2,2,0,0,1,0,.27.8.8,0,0,1,0,.18.22.22,0,0,1-.07.09.09.09,0,0,1-.08,0H31.52v5.6a.18.18,0,0,1,0,.1.35.35,0,0,1-.11.07l-.22,0h-.68l-.22,0a.42.42,0,0,1-.12-.07.17.17,0,0,1,0-.1v-5.6H28.36a.1.1,0,0,1-.09,0,.22.22,0,0,1-.07-.09.8.8,0,0,1,0-.18,3.65,3.65,0,0,1,0-.54.6.6,0,0,1,0-.18.2.2,0,0,1,.07-.1.12.12,0,0,1,.09,0h4.9a.11.11,0,0,1,.08,0,.2.2,0,0,1,.07.1.6.6,0,0,1,0,.18A2,2,0,0,1,33.47,34.11Z"/><path class="cls-3" d="M41.6,40.12a.51.51,0,0,1-.09.21.32.32,0,0,1-.17.12,1.55,1.55,0,0,1-.29,0h-.94a1.55,1.55,0,0,1-.29,0,.4.4,0,0,1-.16-.12.73.73,0,0,1-.07-.21l-1.11-4.4h0l-1.06,4.4a.47.47,0,0,1-.07.2.32.32,0,0,1-.15.13,1.72,1.72,0,0,1-.29,0h-1a1.41,1.41,0,0,1-.29,0,.3.3,0,0,1-.16-.12.71.71,0,0,1-.08-.21l-1.58-6.06a1.53,1.53,0,0,1,0-.3.17.17,0,0,1,.06-.17.38.38,0,0,1,.22-.08h.83a.62.62,0,0,1,.22,0,.16.16,0,0,1,.1.08.53.53,0,0,1,0,.16l1.22,5.32h0l1.27-5.28a.58.58,0,0,1,0-.17.31.31,0,0,1,.12-.1,1,1,0,0,1,.23-.05h.8a.61.61,0,0,1,.23.05.18.18,0,0,1,.12.1.38.38,0,0,1,.06.17l1.31,5.28h0l1.22-5.3a.53.53,0,0,1,0-.15s.05-.07.1-.1a.81.81,0,0,1,.21-.05H43a.31.31,0,0,1,.19.08.19.19,0,0,1,0,.17,1.5,1.5,0,0,1,0,.31Z"/><path class="cls-3" d="M49.43,40a1.35,1.35,0,0,1,.08.3.18.18,0,0,1,0,.17.34.34,0,0,1-.21.07h-.84a1,1,0,0,1-.23,0,.2.2,0,0,1-.12-.06,1.17,1.17,0,0,1,0-.11l-.47-1.4H44.94l-.44,1.36a.33.33,0,0,1,0,.12.21.21,0,0,1-.12.08.57.57,0,0,1-.22,0h-.76a.31.31,0,0,1-.19-.08.19.19,0,0,1,0-.17,1.7,1.7,0,0,1,.08-.3l2.15-6.17a.52.52,0,0,1,.07-.15.27.27,0,0,1,.14-.08.83.83,0,0,1,.26,0h.94a1.08,1.08,0,0,1,.3,0,.27.27,0,0,1,.15.08.91.91,0,0,1,.08.17Zm-3.19-5.1h0l-1,3h2Z"/><path class="cls-3" d="M55.56,40.3a.3.3,0,0,1,0,.1s0,.05-.1.07a1.19,1.19,0,0,1-.24,0h-.78a.56.56,0,0,1-.21,0,.19.19,0,0,1-.11-.07.39.39,0,0,1-.06-.11l-.62-1.55c-.08-.18-.15-.34-.22-.47a1.28,1.28,0,0,0-.24-.34.89.89,0,0,0-.7-.28h-.44v2.65a.13.13,0,0,1,0,.1.35.35,0,0,1-.11.07l-.22,0h-.68l-.22,0a.35.35,0,0,1-.11-.07.17.17,0,0,1,0-.1V34a.43.43,0,0,1,.12-.34.44.44,0,0,1,.29-.11h2.26l.32,0a3.16,3.16,0,0,1,.75.2,1.83,1.83,0,0,1,.57.38,1.5,1.5,0,0,1,.36.56,2,2,0,0,1,.12.73,2.2,2.2,0,0,1-.09.64,1.54,1.54,0,0,1-.26.51,1.57,1.57,0,0,1-.42.39,2.39,2.39,0,0,1-.58.27,1.49,1.49,0,0,1,.3.18,1.55,1.55,0,0,1,.25.26,1.77,1.77,0,0,1,.23.35c.07.13.14.28.21.44l.59,1.37.11.3A1.25,1.25,0,0,1,55.56,40.3Zm-1.82-4.72a1.06,1.06,0,0,0-.15-.58,1,1,0,0,0-.51-.33l-.25,0-.38,0h-.63v2h.72a1.64,1.64,0,0,0,.52-.07,1.24,1.24,0,0,0,.38-.2.9.9,0,0,0,.23-.32A1.07,1.07,0,0,0,53.74,35.58Z"/><path class="cls-3" d="M60.72,39.93a1.84,1.84,0,0,1,0,.26.39.39,0,0,1,0,.17.2.2,0,0,1-.06.09l-.09,0H57A.39.39,0,0,1,56.6,40V34a.43.43,0,0,1,.12-.34.44.44,0,0,1,.3-.11h3.47a.11.11,0,0,1,.08,0,.22.22,0,0,1,.07.09.8.8,0,0,1,0,.18,1.86,1.86,0,0,1,0,.26,2,2,0,0,1,0,.26.71.71,0,0,1,0,.17.22.22,0,0,1-.07.09.11.11,0,0,1-.08,0H58v1.7h2.1a.11.11,0,0,1,.08,0s.05.05.07.09a.53.53,0,0,1,0,.16,1.7,1.7,0,0,1,0,.52.62.62,0,0,1,0,.16.22.22,0,0,1-.07.09.11.11,0,0,1-.08,0H58v2h2.5l.09,0a.16.16,0,0,1,.06.09.39.39,0,0,1,0,.17A1.84,1.84,0,0,1,60.72,39.93Z"/></g></g></svg>