<svg xmlns="http://www.w3.org/2000/svg" viewBox="0 0 76.37 56.04"><defs><style>.cls-1{fill:#46c795;}.cls-2{fill:#fff;}</style></defs><g id="Layer_2" data-name="Layer 2"><g id="Layer_5" data-name="Layer 5"><path class="cls-1" d="M14.41,56l-3.21-1A16.39,16.39,0,0,1,0,39.34C0,32,4.47,25.24,10.69,23.18c.51-5.22,2.91-9.57,6.62-12a12.73,12.73,0,0,1,7-2.06,13.1,13.1,0,0,1,4.24.71A19.42,19.42,0,0,1,45.17,0C56.74,0,64.28,10.12,65,20.05a17.93,17.93,0,0,1,10,10.37,20.9,20.9,0,0,1-.82,16.28A15.72,15.72,0,0,1,60.19,56H14.41Z"/><path class="cls-2" d="M59.74,22.59H52V19.24a3.27,3.27,0,1,0-1.88,0v3.35H39.9V13.92A3.27,3.27,0,1,0,38,14v8.63H27.7V19.24a3.27,3.27,0,1,0-1.89,0v3.35h-7.7A4.4,4.4,0,0,0,13.72,27v7.43a4.39,4.39,0,0,0,4.39,4.38h7.7v3.36a3.27,3.27,0,1,0,1.89,0V38.79H38v8.64a3.26,3.26,0,1,0,1.89,0V38.79H50.15v3.36a3.24,3.24,0,0,0-2.33,3.11,3.27,3.27,0,1,0,6.54,0A3.24,3.24,0,0,0,52,42.15V38.79h7.71a4.38,4.38,0,0,0,4.38-4.38V27A4.39,4.39,0,0,0,59.74,22.59Z"/><path d="M34.28,34.6a3.11,3.11,0,0,1,0,.34,1.14,1.14,0,0,1,0,.23.48.48,0,0,1-.09.13.28.28,0,0,1-.13,0H28.91l-.26,0a.42.42,0,0,1-.18-.11.55.55,0,0,1-.1-.23,2.06,2.06,0,0,1,0-.39,3.79,3.79,0,0,1,0-.38,1.11,1.11,0,0,1,.08-.29.89.89,0,0,1,.14-.25,2.18,2.18,0,0,1,.22-.26l1.53-1.64a8.23,8.23,0,0,0,.74-.87,5.6,5.6,0,0,0,.44-.72,3.1,3.1,0,0,0,.21-.6,2.37,2.37,0,0,0,.06-.52,1.25,1.25,0,0,0-.07-.43,1.13,1.13,0,0,0-.21-.35.89.89,0,0,0-.36-.23,1.22,1.22,0,0,0-.49-.09,2.61,2.61,0,0,0-.72.1,4.15,4.15,0,0,0-.55.23c-.15.09-.28.16-.39.24a.48.48,0,0,1-.25.1.13.13,0,0,1-.1,0,.3.3,0,0,1-.07-.14,1.22,1.22,0,0,1-.05-.25c0-.11,0-.24,0-.4a2,2,0,0,1,0-.26.48.48,0,0,1,0-.18.46.46,0,0,1,.05-.14.47.47,0,0,1,.12-.14,1.58,1.58,0,0,1,.32-.21,4.37,4.37,0,0,1,.56-.25c.22-.07.47-.14.74-.2a4.6,4.6,0,0,1,.84-.08,3.61,3.61,0,0,1,1.2.18,2.24,2.24,0,0,1,.86.48,1.89,1.89,0,0,1,.51.74,2.51,2.51,0,0,1,.17.92,4.8,4.8,0,0,1-.08.85,3.56,3.56,0,0,1-.34.89,6.94,6.94,0,0,1-.74,1.07,16.92,16.92,0,0,1-1.25,1.36l-1,1.06H34a.17.17,0,0,1,.12,0,.27.27,0,0,1,.1.13.58.58,0,0,1,.06.22A1.61,1.61,0,0,1,34.28,34.6Z"/><path d="M41.29,32.46A3,3,0,0,1,41,33.74a2.59,2.59,0,0,1-.7.95,3.24,3.24,0,0,1-1.1.6,4.82,4.82,0,0,1-1.42.2,6.53,6.53,0,0,1-.78-.05,5.51,5.51,0,0,1-.66-.13,2.43,2.43,0,0,1-.48-.16.78.78,0,0,1-.25-.13.28.28,0,0,1-.08-.11.53.53,0,0,1,0-.15,1.15,1.15,0,0,1,0-.21,2.91,2.91,0,0,1,0-.31,2.58,2.58,0,0,1,0-.32.62.62,0,0,1,0-.22.35.35,0,0,1,.07-.12.17.17,0,0,1,.1,0,.63.63,0,0,1,.21.08,2.71,2.71,0,0,0,.37.17,3.19,3.19,0,0,0,1.34.26,2.73,2.73,0,0,0,.72-.09,1.34,1.34,0,0,0,.55-.26,1.19,1.19,0,0,0,.35-.45,1.69,1.69,0,0,0,.12-.66,1.5,1.5,0,0,0-.1-.58,1.09,1.09,0,0,0-.32-.44,1.51,1.51,0,0,0-.57-.27,4,4,0,0,0-.85-.08,5.39,5.39,0,0,0-.72,0c-.21,0-.42,0-.61,0a.36.36,0,0,1-.28-.1.57.57,0,0,1-.09-.37V27a.59.59,0,0,1,.11-.39.42.42,0,0,1,.33-.12h4.2a.17.17,0,0,1,.11,0,.25.25,0,0,1,.09.13.7.7,0,0,1,.06.23,3.53,3.53,0,0,1,0,.36,1.66,1.66,0,0,1-.08.59c0,.12-.11.19-.2.19H37.33v1.89a3.87,3.87,0,0,1,.48,0h.49a4.22,4.22,0,0,1,1.28.17,2.43,2.43,0,0,1,.93.49,1.92,1.92,0,0,1,.58.81A2.93,2.93,0,0,1,41.29,32.46Z"/><path d="M48.64,30.88a9.36,9.36,0,0,1-.17,1.91,4.27,4.27,0,0,1-.55,1.46,2.62,2.62,0,0,1-1,.92,3.3,3.3,0,0,1-1.51.32,3.22,3.22,0,0,1-1.51-.31,2.39,2.39,0,0,1-.94-.9,4,4,0,0,1-.49-1.42A12.21,12.21,0,0,1,42.32,31,9.42,9.42,0,0,1,42.5,29a4,4,0,0,1,.56-1.45,2.55,2.55,0,0,1,1-.93,3.3,3.3,0,0,1,1.51-.32,3.25,3.25,0,0,1,1.51.31,2.39,2.39,0,0,1,.94.9A4,4,0,0,1,48.51,29,12.2,12.2,0,0,1,48.64,30.88ZM46.83,31c0-.42,0-.79,0-1.12a5.6,5.6,0,0,0-.11-.83,2.52,2.52,0,0,0-.18-.6,1.19,1.19,0,0,0-.25-.4,1,1,0,0,0-.34-.21,1.44,1.44,0,0,0-.43-.06,1.06,1.06,0,0,0-.66.2,1.23,1.23,0,0,0-.42.58,3.87,3.87,0,0,0-.22,1,13.46,13.46,0,0,0-.06,1.36,13.16,13.16,0,0,0,.08,1.56,3.83,3.83,0,0,0,.23,1,1.08,1.08,0,0,0,.42.52,1.28,1.28,0,0,0,.61.14,1.4,1.4,0,0,0,.47-.08,1.27,1.27,0,0,0,.36-.26,1.48,1.48,0,0,0,.25-.43,2.87,2.87,0,0,0,.17-.6c0-.23.07-.49.09-.77S46.83,31.31,46.83,31Z"/></g></g></svg>