<svg xmlns="http://www.w3.org/2000/svg" viewBox="0 0 76.37 56.04"><defs><style>.cls-1{fill:#46c795;}.cls-2{fill:#fff;}</style></defs><g id="Layer_2" data-name="Layer 2"><g id="Layer_5" data-name="Layer 5"><path class="cls-1" d="M14.41,56l-3.21-1A16.39,16.39,0,0,1,0,39.34C0,32,4.47,25.24,10.69,23.18c.51-5.22,2.91-9.57,6.62-12a12.73,12.73,0,0,1,7-2.06,13.1,13.1,0,0,1,4.24.71A19.42,19.42,0,0,1,45.17,0C56.74,0,64.28,10.12,65,20.05a17.93,17.93,0,0,1,10,10.37,20.9,20.9,0,0,1-.82,16.28A15.72,15.72,0,0,1,60.19,56H14.41Z"/><path class="cls-2" d="M59.77,22.59h-7.7V19.24a3.27,3.27,0,1,0-1.92,0v3.36H39.94V13.92a3.28,3.28,0,1,0-1.89,0v8.63H27.7V19.26a3.29,3.29,0,1,0-1.85,0v3.35h-7.7A4.39,4.39,0,0,0,13.76,27v7.43a4.38,4.38,0,0,0,4.39,4.38h7.7v3.36a3.25,3.25,0,1,0,1.85,0V38.79H38.05v8.64a3.26,3.26,0,1,0,1.89,0V38.79H50.15v3.36a3.24,3.24,0,0,0-2.33,3.11,3.27,3.27,0,1,0,4.25-3.1V38.79h7.7a4.39,4.39,0,0,0,4.39-4.38V27A4.4,4.4,0,0,0,59.77,22.59Z"/><path d="M25.21,34c0,.12,0,.22,0,.29s0,.15,0,.21l-.06.15a.92.92,0,0,1-.11.14,1.24,1.24,0,0,1-.29.2,3.22,3.22,0,0,1-.52.23,4.17,4.17,0,0,1-.72.19,4.57,4.57,0,0,1-.86.08A4.7,4.7,0,0,1,21,35.2a3.37,3.37,0,0,1-1.25-.84A3.76,3.76,0,0,1,18.94,33,6.31,6.31,0,0,1,18.67,31a6.25,6.25,0,0,1,.3-2,4.22,4.22,0,0,1,.84-1.47,3.66,3.66,0,0,1,1.29-.9,4.51,4.51,0,0,1,1.67-.31,4.17,4.17,0,0,1,.71.07,3.62,3.62,0,0,1,.63.16,2.48,2.48,0,0,1,.52.23A1.32,1.32,0,0,1,25,27a.64.64,0,0,1,.12.15.38.38,0,0,1,.06.16c0,.06,0,.14,0,.22a3.22,3.22,0,0,1,0,.33c0,.13,0,.25,0,.34a1.11,1.11,0,0,1-.05.24.32.32,0,0,1-.08.13.25.25,0,0,1-.11,0,.46.46,0,0,1-.26-.12,4.89,4.89,0,0,0-.41-.27,2.69,2.69,0,0,0-.59-.26,2.55,2.55,0,0,0-.83-.12,2.06,2.06,0,0,0-.94.21,2,2,0,0,0-.7.62,2.66,2.66,0,0,0-.44,1,5.05,5.05,0,0,0-.15,1.28,4.9,4.9,0,0,0,.16,1.35,2.43,2.43,0,0,0,.46.94,1.73,1.73,0,0,0,.71.55,2.4,2.4,0,0,0,.95.18,2.61,2.61,0,0,0,.83-.11,3.39,3.39,0,0,0,.6-.25,4.37,4.37,0,0,0,.41-.25.48.48,0,0,1,.24-.1c.05,0,.09,0,.11,0a.23.23,0,0,1,.07.11,1.07,1.07,0,0,1,0,.23A3.84,3.84,0,0,1,25.21,34Z"/><path d="M31.36,34.58a3.32,3.32,0,0,1,0,.35,1.14,1.14,0,0,1-.05.23.26.26,0,0,1-.08.13.19.19,0,0,1-.12,0H27a.57.57,0,0,1-.38-.13.55.55,0,0,1-.15-.43v-8a.19.19,0,0,1,0-.12.35.35,0,0,1,.15-.09,1.43,1.43,0,0,1,.28-.05,2.69,2.69,0,0,1,.43,0,2.76,2.76,0,0,1,.44,0,1.46,1.46,0,0,1,.27.05.35.35,0,0,1,.15.09.19.19,0,0,1,0,.12v7.12h2.79a.19.19,0,0,1,.12,0,.23.23,0,0,1,.08.12,1,1,0,0,1,.05.23A3.11,3.11,0,0,1,31.36,34.58Z"/><path d="M40.13,30.81a6.66,6.66,0,0,1-.27,2A4,4,0,0,1,39,34.25a3.49,3.49,0,0,1-1.33.92,4.81,4.81,0,0,1-1.85.32,5.5,5.5,0,0,1-1.8-.27,3.11,3.11,0,0,1-1.28-.82A3.55,3.55,0,0,1,32,33a7.1,7.1,0,0,1-.25-2A6.5,6.5,0,0,1,32,29a3.87,3.87,0,0,1,.81-1.45,3.55,3.55,0,0,1,1.34-.93A5,5,0,0,1,36,26.33a5.31,5.31,0,0,1,1.77.27,3.14,3.14,0,0,1,1.29.82,3.65,3.65,0,0,1,.78,1.4A6.86,6.86,0,0,1,40.13,30.81Zm-1.89.09a6.16,6.16,0,0,0-.11-1.26,2.6,2.6,0,0,0-.37-1,1.78,1.78,0,0,0-.7-.63A2.38,2.38,0,0,0,36,27.81a2.22,2.22,0,0,0-1.11.25,2,2,0,0,0-.72.66,2.75,2.75,0,0,0-.38,1,5.55,5.55,0,0,0-.12,1.18,7.33,7.33,0,0,0,.11,1.3,2.91,2.91,0,0,0,.37,1,1.68,1.68,0,0,0,.7.62,2.4,2.4,0,0,0,1.1.22A2.22,2.22,0,0,0,37,33.76a2,2,0,0,0,.71-.67,2.57,2.57,0,0,0,.39-1A5.69,5.69,0,0,0,38.24,30.9Z"/><path d="M48.86,32a4.18,4.18,0,0,1-.24,1.46,2.84,2.84,0,0,1-.7,1.08,3.14,3.14,0,0,1-1.15.68,5,5,0,0,1-1.57.23,4.94,4.94,0,0,1-1.5-.21,2.92,2.92,0,0,1-1.12-.63,2.63,2.63,0,0,1-.7-1.06,4.13,4.13,0,0,1-.25-1.48V26.73a.21.21,0,0,1,0-.12s.07-.06.14-.09l.28-.05a4.74,4.74,0,0,1,.87,0,1.46,1.46,0,0,1,.27.05.35.35,0,0,1,.15.09.19.19,0,0,1,0,.12V32a3.07,3.07,0,0,0,.13.91,1.74,1.74,0,0,0,.37.64,1.66,1.66,0,0,0,.59.38,2.19,2.19,0,0,0,.75.12,2,2,0,0,0,.76-.13,1.56,1.56,0,0,0,.57-.37,2,2,0,0,0,.36-.62,2.64,2.64,0,0,0,.12-.83V26.73a.28.28,0,0,1,0-.12.35.35,0,0,1,.15-.09,1.46,1.46,0,0,1,.27-.05,2.82,2.82,0,0,1,.44,0,2.75,2.75,0,0,1,.43,0,1.46,1.46,0,0,1,.27.05.38.38,0,0,1,.14.09.19.19,0,0,1,0,.12Z"/><path d="M58.13,30.78a6.06,6.06,0,0,1-.32,2.08,3.41,3.41,0,0,1-.91,1.41,3.62,3.62,0,0,1-1.45.81,7.06,7.06,0,0,1-2,.25H51.31a.57.57,0,0,1-.38-.13.55.55,0,0,1-.15-.43V27.06a.56.56,0,0,1,.15-.44.57.57,0,0,1,.38-.13h2.27a6.21,6.21,0,0,1,2,.28,3.52,3.52,0,0,1,1.39.82,3.64,3.64,0,0,1,.86,1.34A5.48,5.48,0,0,1,58.13,30.78Zm-1.86.06a4.36,4.36,0,0,0-.15-1.17,2.4,2.4,0,0,0-.47-.93,2.16,2.16,0,0,0-.83-.62,3.38,3.38,0,0,0-1.34-.22h-.91v6h.94a3.48,3.48,0,0,0,1.24-.19,2.12,2.12,0,0,0,.85-.58,2.43,2.43,0,0,0,.5-1A4.85,4.85,0,0,0,56.27,30.84Z"/></g></g></svg>