<svg xmlns="http://www.w3.org/2000/svg" viewBox="0 0 66.24 66.24"><defs><style>.cls-1{fill:#46c795;}.cls-2{fill:#fff;}</style></defs><g id="Layer_2" data-name="Layer 2"><g id="Layer_5" data-name="Layer 5"><rect class="cls-1" width="66.24" height="66.24" rx="7.63"/><path class="cls-2" d="M58.43,24.74H51.12V17.53a4.5,4.5,0,1,0-2.6,0v7.21H34.42V10.23a4.5,4.5,0,1,0-2.6,0V24.74H19.93a21.33,21.33,0,0,1,2,9,21.36,21.36,0,0,1-2,9H18.71a19.36,19.36,0,0,0,2.22-9,19.33,19.33,0,0,0-2.22-9h-1V17.5a4.5,4.5,0,1,0-2.6.06v7.18H7.81a4.38,4.38,0,0,0-4.39,4.39v9.22a4.39,4.39,0,0,0,4.39,4.39h7.31v6.18a4.52,4.52,0,1,0,2.6.07V42.74h14.1V56.26a4.5,4.5,0,1,0,2.6,0V42.74h14.1V49a4.5,4.5,0,1,0,2.6,0V42.74h7.31a4.39,4.39,0,0,0,4.39-4.39V29.13A4.38,4.38,0,0,0,58.43,24.74ZM13.55,37a3.28,3.28,0,1,1,3.27-3.27A3.28,3.28,0,0,1,13.55,37Z"/><circle class="cls-2" cx="13.55" cy="33.74" r="2.27"/><rect class="cls-1" x="18.71" y="24.74" width="1.22"/><path d="M27.48,36.08c0,.11.05.19.06.25a.16.16,0,0,1,0,.14.34.34,0,0,1-.17.06h-.65l-.18,0s-.07,0-.08-.06a.19.19,0,0,1,0-.09L26,35.22H24l-.34,1.11a1,1,0,0,1,0,.1.22.22,0,0,1-.09.07.65.65,0,0,1-.17,0h-.59a.21.21,0,0,1-.15-.07.26.26,0,0,1,0-.14,1.42,1.42,0,0,1,.07-.25l1.65-5a.67.67,0,0,1,.06-.12.18.18,0,0,1,.1-.07.58.58,0,0,1,.21,0h.73a.65.65,0,0,1,.22,0,.2.2,0,0,1,.12.07.81.81,0,0,1,.06.13ZM25,31.91h0l-.76,2.42h1.52Z"/><path d="M31.9,32.55a2.44,2.44,0,0,1-.14.85,1.5,1.5,0,0,1-.41.62,1.81,1.81,0,0,1-.66.39,2.84,2.84,0,0,1-.92.13h-.45v1.82a.11.11,0,0,1,0,.07.15.15,0,0,1-.09.06l-.16,0h-.53a.61.61,0,0,1-.17,0,.15.15,0,0,1-.09-.06.19.19,0,0,1,0-.07V31.24a.41.41,0,0,1,.1-.31.36.36,0,0,1,.27-.1h1.62a2.61,2.61,0,0,1,.42.07,1.38,1.38,0,0,1,.48.19,1.28,1.28,0,0,1,.42.34,1.37,1.37,0,0,1,.27.49A2,2,0,0,1,31.9,32.55Zm-1.14.09a1,1,0,0,0-.1-.49.79.79,0,0,0-.24-.29.91.91,0,0,0-.31-.12l-.33,0h-.46v1.93h.49a1.06,1.06,0,0,0,.43-.08.79.79,0,0,0,.29-.2A.86.86,0,0,0,30.7,33,1.29,1.29,0,0,0,30.76,32.64Z"/><path d="M36.42,32.55a2.44,2.44,0,0,1-.14.85,1.5,1.5,0,0,1-.41.62,1.81,1.81,0,0,1-.66.39,2.86,2.86,0,0,1-.93.13h-.44v1.82a.11.11,0,0,1,0,.07.15.15,0,0,1-.09.06.61.61,0,0,1-.17,0H33a.61.61,0,0,1-.17,0,.15.15,0,0,1-.09-.06.1.1,0,0,1,0-.07V31.24a.41.41,0,0,1,.1-.31.36.36,0,0,1,.27-.1h1.62a2.61,2.61,0,0,1,.42.07,1.38,1.38,0,0,1,.48.19,1.28,1.28,0,0,1,.42.34,1.37,1.37,0,0,1,.27.49A2,2,0,0,1,36.42,32.55Zm-1.14.09a1,1,0,0,0-.1-.49.79.79,0,0,0-.24-.29.91.91,0,0,0-.31-.12l-.33,0h-.46v1.93h.49a1.06,1.06,0,0,0,.43-.08.79.79,0,0,0,.29-.2.86.86,0,0,0,.17-.33A1.29,1.29,0,0,0,35.28,32.64Z"/><path d="M40.21,36a1.41,1.41,0,0,1,0,.22.33.33,0,0,1,0,.15.19.19,0,0,1-.05.09l-.07,0H37.59a.31.31,0,0,1-.23-.08.38.38,0,0,1-.09-.28V31a.19.19,0,0,1,0-.08.15.15,0,0,1,.09-.06.61.61,0,0,1,.17,0h.53a.53.53,0,0,1,.16,0s.08,0,.09.06a.11.11,0,0,1,0,.08v4.57h1.69l.07,0a.22.22,0,0,1,.05.08.33.33,0,0,1,0,.15A1.41,1.41,0,0,1,40.21,36Z"/><path d="M42,36.36a.11.11,0,0,1,0,.07.1.1,0,0,1-.08.06l-.17,0h-.53a.61.61,0,0,1-.17,0,.15.15,0,0,1-.09-.06.19.19,0,0,1,0-.07V31a.19.19,0,0,1,0-.08.15.15,0,0,1,.09-.06l.17,0h.53l.17,0a.1.1,0,0,1,.08.06A.11.11,0,0,1,42,31Z"/><path d="M47.52,36.08c0,.11,0,.19.06.25a.16.16,0,0,1,0,.14.34.34,0,0,1-.17.06h-.65l-.18,0s-.07,0-.08-.06a.19.19,0,0,1,0-.09l-.36-1.14h-2l-.34,1.11a1,1,0,0,1,0,.1.22.22,0,0,1-.09.07.65.65,0,0,1-.17,0h-.59a.21.21,0,0,1-.15-.07.26.26,0,0,1,0-.14,1.42,1.42,0,0,1,.07-.25l1.65-5a.67.67,0,0,1,.06-.12.18.18,0,0,1,.1-.07.58.58,0,0,1,.21,0h.73a.65.65,0,0,1,.22,0,.2.2,0,0,1,.12.07.81.81,0,0,1,.06.13Zm-2.47-4.17h0l-.76,2.42h1.52Z"/><path d="M52.69,36.11a.48.48,0,0,1,0,.18.3.3,0,0,1-.09.13.35.35,0,0,1-.13.08l-.16,0h-.46a.9.9,0,0,1-.25,0,.49.49,0,0,1-.2-.11.8.8,0,0,1-.17-.22A2.85,2.85,0,0,1,51,35.8l-1.33-2.66-.24-.51c-.08-.18-.15-.36-.22-.53h0c0,.21,0,.42,0,.63s0,.42,0,.65v3a.19.19,0,0,1,0,.08l-.08.06-.15,0h-.49l-.15,0a.22.22,0,0,1-.07-.06.11.11,0,0,1,0-.08V31.24a.38.38,0,0,1,.11-.31.4.4,0,0,1,.28-.1h.58a1,1,0,0,1,.27,0,.42.42,0,0,1,.19.09.71.71,0,0,1,.16.18c0,.08.1.18.16.29l1,2.08.18.37c.06.12.12.24.17.37s.11.24.17.35l.15.35h0c0-.2,0-.41,0-.64V31a.19.19,0,0,1,0-.08l.09-.06a.46.46,0,0,1,.15,0h.48l.15,0a.22.22,0,0,1,.07.06.19.19,0,0,1,0,.08Z"/><path d="M57.57,35.65v.19a.69.69,0,0,0,0,.13.3.3,0,0,1,0,.1l-.06.09-.18.13a2.44,2.44,0,0,1-.32.15,2.21,2.21,0,0,1-.43.12,2.87,2.87,0,0,1-.52,0,2.66,2.66,0,0,1-1-.18,1.86,1.86,0,0,1-.75-.54,2.42,2.42,0,0,1-.48-.9,4.2,4.2,0,0,1-.17-1.25,3.87,3.87,0,0,1,.19-1.28,2.7,2.7,0,0,1,.51-.95,2.13,2.13,0,0,1,.78-.58,2.56,2.56,0,0,1,1-.2,3,3,0,0,1,.43,0l.39.11.31.14a1,1,0,0,1,.2.15l.08.1a.62.62,0,0,1,0,.1s0,.09,0,.14v.43l0,.15a.36.36,0,0,1-.05.09l-.07,0a.3.3,0,0,1-.16-.07A1.86,1.86,0,0,0,57,32a2,2,0,0,0-.36-.17,1.51,1.51,0,0,0-.5-.07,1.14,1.14,0,0,0-.57.13,1.36,1.36,0,0,0-.43.4,1.85,1.85,0,0,0-.27.62,3.43,3.43,0,0,0-.09.82,3.15,3.15,0,0,0,.1.87,1.64,1.64,0,0,0,.28.61,1.21,1.21,0,0,0,.43.35,1.34,1.34,0,0,0,.58.12,1.5,1.5,0,0,0,.5-.08,2,2,0,0,0,.36-.16l.25-.16a.33.33,0,0,1,.15-.07l.07,0a.21.21,0,0,1,0,.07.61.61,0,0,1,0,.15A1.78,1.78,0,0,1,57.57,35.65Z"/><path d="M61.54,36.06c0,.09,0,.16,0,.21a.39.39,0,0,1,0,.14.16.16,0,0,1-.05.08.08.08,0,0,1-.07,0H58.68a.31.31,0,0,1-.23-.08.38.38,0,0,1-.09-.28v-5a.38.38,0,0,1,.09-.28.36.36,0,0,1,.23-.08h2.68a.07.07,0,0,1,.06,0,.12.12,0,0,1,0,.08.26.26,0,0,1,0,.14,1.28,1.28,0,0,1,0,.21,1.22,1.22,0,0,1,0,.21.26.26,0,0,1,0,.14.16.16,0,0,1,0,.08l-.06,0H59.44v1.39h1.62a.09.09,0,0,1,.07,0,.13.13,0,0,1,0,.07.26.26,0,0,1,0,.14,1.15,1.15,0,0,1,0,.2,1.41,1.41,0,0,1,0,.22.25.25,0,0,1,0,.13.13.13,0,0,1,0,.07.08.08,0,0,1-.07,0H59.44v1.61h1.93l.07,0a.16.16,0,0,1,.05.08.39.39,0,0,1,0,.14C61.53,35.91,61.54,36,61.54,36.06Z"/></g></g></svg>