<svg xmlns="http://www.w3.org/2000/svg" viewBox="0 0 72 72"><defs><style>.cls-1{fill:#333;}.cls-2{fill:#fff;}</style></defs><g id="Layer_2" data-name="Layer 2"><g id="Layer_5" data-name="Layer 5"><circle class="cls-1" cx="36" cy="36" r="36"/><path class="cls-2" d="M37,7.2h10.9l5.4,9.4L47.76,26h-5.2V18.2A1.62,1.62,0,0,0,44,16.6a1.6,1.6,0,1,0-3.2,0,.9.9,0,0,0,.1.5L34.06,21l-2.5-4.4Zm3.9,29.7-6.8,3.9-2.6-4.5L34,32.1l6.8,4v.3A1.09,1.09,0,0,0,40.86,36.9Zm.3.4a2.07,2.07,0,0,0,1,.6v7.8H37l-2.6-4.5ZM41,35.5l-6.7-4L37,26.8h5.1v7.8A1.44,1.44,0,0,0,41,35.5ZM36.86,26l-2.6-4.6L41,17.5a1.83,1.83,0,0,0,1,.7V26Zm-.7.5L33.56,31l-6.7-4a1.27,1.27,0,0,0,.1-.6,1.45,1.45,0,0,0-.2-.7l6.7-3.9Zm-2.9,5-2.5,4.4h-5.2V28.1a2.34,2.34,0,0,0,1-.5Zm-2.6,5.2,2.6,4.5-6.8,3.9a1.8,1.8,0,0,0-.9-.6V36.7Zm-3.9,8.9,6.8-3.9,2.6,4.5-2.6,4.5-6.7-4a1.27,1.27,0,0,0,.1-.6A1.69,1.69,0,0,1,26.76,45.6Zm10.1,1h5.3v7.8a1.71,1.71,0,0,0-1.3.7l-6.7-4Zm-17-29.5h10.9l2.5,4.3-6.8,3.9a1.61,1.61,0,0,0-1.1-.5,1.58,1.58,0,0,0-1.6,1.6,1.62,1.62,0,0,0,1.3,1.6v7.8h-5.2l-5.4-9.4Zm-.1,38.4-5.4-9.4,5.5-9.4h5.2v7.8a1.62,1.62,0,0,0-1.4,1.6,1.58,1.58,0,0,0,1.6,1.6,1.76,1.76,0,0,0,1.3-.6l6.7,4-2.6,4.4Zm27.9,9.9H36.76L31.36,56l2.5-4.4,6.7,4c0,.1-.1.3-.1.4a1.6,1.6,0,1,0,3.2,0,1.71,1.71,0,0,0-1.2-1.6V46.6h5l5.4,9.4Zm.1-19.7h-5.1V37.9A1.53,1.53,0,0,0,44,36.3a1.62,1.62,0,0,0-1.4-1.6V26.9h5.2l5.4,9.4Z"/></g></g></svg>