<svg xmlns="http://www.w3.org/2000/svg" viewBox="0 0 72 72"><defs><style>.cls-1{fill:#333;}.cls-2{fill:#fff;}</style></defs><g id="Layer_2" data-name="Layer 2"><g id="Layer_5" data-name="Layer 5"><circle class="cls-1" cx="36" cy="36" r="36"/><path class="cls-2" d="M18.2,52.45a8.83,8.83,0,0,1-8.9-8.8V28.35a8.83,8.83,0,0,1,8.9-8.8h14l-1.3,5.1-12,2.6a2.65,2.65,0,0,0-2,2.4v12.9a2.67,2.67,0,0,0,2,2.4l12,2.6,1.3,4.9Zm12.7-15.7v-1.3H41.1v1.3Zm22.7,15.7H39.7l1.3-4.9L53,45a2.67,2.67,0,0,0,2-2.4V29.65a2.54,2.54,0,0,0-2-2.4l-12-2.6-1.3-5.1H53.6a8.83,8.83,0,0,1,8.9,8.8v15.3A8.83,8.83,0,0,1,53.6,52.45Z"/></g></g></svg>