<svg xmlns="http://www.w3.org/2000/svg" viewBox="0 0 72 72"><defs><style>.cls-1{fill:#333;}.cls-2{fill:#fff;}</style></defs><g id="Layer_2" data-name="Layer 2"><g id="Layer_5" data-name="Layer 5"><circle class="cls-1" cx="36" cy="36" r="36"/><path class="cls-2" d="M23.23,16a6.85,6.85,0,0,1,5.11,2.2l4.35,4.35.06-.05L28.34,18a7.48,7.48,0,0,0-5.11-2.09,7.31,7.31,0,0,0-7.18,7.3,7.13,7.13,0,0,1,2.19-5.09A7.23,7.23,0,0,1,23.23,16Z"/><path class="cls-2" d="M57.7,14.76a11.91,11.91,0,0,0-16.83-.46l-.46.46L36,19.17l-4.41-4.41A11.91,11.91,0,0,0,14.3,31.13l.46.46L19.17,36l-4.41,4.41A11.91,11.91,0,0,0,31.13,57.7l.46-.46L36,52.83l4.41,4.41A11.91,11.91,0,1,0,57.7,40.87l-.46-.46L52.83,36l4.41-4.41A11.91,11.91,0,0,0,57.7,14.76ZM18.13,28.46a7.37,7.37,0,0,1,5.1-12.54A7.48,7.48,0,0,1,28.34,18l4.41,4.53-.06.05.06.06L22.54,32.87ZM28.46,54.11A7.3,7.3,0,0,1,18.13,43.78l4.41-4.41L32.87,49.7ZM28.11,36A7.89,7.89,0,1,1,36,43.89,8,8,0,0,1,28.11,36ZM54,43.66a7.18,7.18,0,0,1-.35,10.21,7.29,7.29,0,0,1-9.86,0l-4.41-4.41L49.58,39.25Zm-.12-15.2-4.41,4.41L39.25,22.54l4.53-4.41a7.27,7.27,0,0,1,10.21,0,7.47,7.47,0,0,1,2.09,5.1A7.31,7.31,0,0,1,53.87,28.46Z"/><path class="cls-2" d="M32.75,22.65l-.06-.06L22.54,32.75l-4.41-4.41a7.34,7.34,0,0,1-2.08-5.12,7.46,7.46,0,0,0,2.08,5.24l4.41,4.41Z"/></g></g></svg>