<svg xmlns="http://www.w3.org/2000/svg" viewBox="0 0 72 72"><defs><style>.cls-1{fill:#333;}.cls-2{fill:#fff;}</style></defs><g id="Layer_2" data-name="Layer 2"><g id="Layer_5" data-name="Layer 5"><circle class="cls-1" cx="36" cy="36" r="36"/><path class="cls-2" d="M19.7,44.69c1.3-.8,2.5-1.7,3.9-2.4a5.58,5.58,0,0,1,6.6.7c.6.5,1.2,1.1,1.9,1.6a5.56,5.56,0,0,0,6.6.4l2.1-1.5c2.9-2.2,7.1-3.1,10.4.6a5.21,5.21,0,0,0,3.5,1.8c1.9.1,4.7-.6,5.5-2.5a9.22,9.22,0,0,0-.8-.5,8.85,8.85,0,0,1-1.7,1.2,4.8,4.8,0,0,1-6-1.2c-3.1-3.5-8.1-3-11.1-.7l-2.1,1.5a3.88,3.88,0,0,1-3.5.9,13.93,13.93,0,0,1-3.7-2.2,7.11,7.11,0,0,0-8.6-1.1c-1.4.8-2.7,1.7-4,2.6a3.75,3.75,0,0,1-4.4,0,21.41,21.41,0,0,1-1.9-1.3,3.19,3.19,0,0,0-.6.7C14,46.09,16.9,46.49,19.7,44.69Z"/><polygon class="cls-2" points="34.5 27.99 35.1 27.29 36.5 30.69 38.4 30.69 36.1 25.89 38.6 21.89 36.5 21.89 34.7 25.19 34.8 21.89 33.1 21.89 33 21.89 33 30.69 34.5 30.69 34.5 27.99"/><path class="cls-2" d="M21.5,38.49a4.6,4.6,0,0,0,4.5-3.8H44.8a4.54,4.54,0,0,0,4.5,3.8,4.6,4.6,0,0,0,0-9.2,5.84,5.84,0,0,0-1.8.4l-8.9-13.3a4.53,4.53,0,0,0,1.4-3.3,4.6,4.6,0,0,0-9.2,0,4.51,4.51,0,0,0,1.5,3.4l-8.9,13.3a4.55,4.55,0,0,0-2-.5,4.5,4.5,0,0,0-4.5,4.6A4.65,4.65,0,0,0,21.5,38.49Zm27.8-7.4A2.9,2.9,0,1,1,46.4,34,2.9,2.9,0,0,1,49.3,31.09ZM35.4,10.29a2.9,2.9,0,1,1-2.9,2.9A2.9,2.9,0,0,1,35.4,10.29Zm-1.7,7.1a4.67,4.67,0,0,0,1.7.3,4.06,4.06,0,0,0,1.9-.4l8.9,13.3a4.8,4.8,0,0,0-1.4,2.5H26a4.64,4.64,0,0,0-1.2-2.3ZM21.4,31.09A2.9,2.9,0,1,1,18.5,34,2.9,2.9,0,0,1,21.4,31.09Z"/><path class="cls-2" d="M19.9,50.39a23,23,0,0,1,3.3-2.1,5.88,5.88,0,0,1,7,.7l1.8,1.5a5.56,5.56,0,0,0,6.8.4c1.1-.7,2.1-1.5,3.2-2.2a7.09,7.09,0,0,1,5.3-1.1c1.7.2,2.8,1.3,3.9,2.4a6.08,6.08,0,0,0,7.8.6l1.2-1.2a6.4,6.4,0,0,0-1.1-.6c-2.2,2.2-5.4,2.5-7.6,0-.3-.3-.6-.5-.9-.8a7.17,7.17,0,0,0-4.8-1.8c-2.5-.1-4.5,1.1-6.4,2.5-3.4,2.5-4.8,2.4-8-.3s-6.1-3-9.8-.8c-1.1.7-2.1,1.5-3.2,2.2a3.31,3.31,0,0,1-3.8.1c-.7-.4-1.4-1-2.2-1.5a5,5,0,0,0-.8.7C13.7,51.39,16.6,53,19.9,50.39Z"/><path class="cls-2" d="M59.6,54.49a21,21,0,0,1-2.4,1.4,4.51,4.51,0,0,1-5.2-1.3c-3.4-3.7-8-3.1-11.1-.9-1,.7-1.9,1.4-2.9,2a4.23,4.23,0,0,1-4.7-.2l-1.6-1.3c-3.3-2.7-6.2-3-9.8-.8a35.29,35.29,0,0,0-3.2,2.1,3.45,3.45,0,0,1-4.1.1l-2.1-1.5a5.72,5.72,0,0,0-.8.7c2.2,2.4,5,3.8,8,1.4a36.11,36.11,0,0,1,3.6-2.3,5.74,5.74,0,0,1,7,.7c.6.5,1.3,1.1,2,1.6,1.1.8,2.4,1.6,3.8,1.2a24.77,24.77,0,0,0,3.7-1.7c1-.5,1.8-1.3,2.8-1.8A6.52,6.52,0,0,1,50.5,55a19.2,19.2,0,0,0,1.5,1.4c2.8,2.3,7.2.7,8.4-1.4A9.22,9.22,0,0,0,59.6,54.49Z"/></g></g></svg>