<svg xmlns="http://www.w3.org/2000/svg" viewBox="0 0 72 72"><defs><style>.cls-1{fill:#333;}.cls-2{fill:#fff;}</style></defs><g id="Layer_2" data-name="Layer 2"><g id="Layer_5" data-name="Layer 5"><circle class="cls-1" cx="36" cy="36" r="36"/><path class="cls-2" d="M31.05,39.33a2.51,2.51,0,0,0,.4.7.84.84,0,0,0,.7.2l1.8-.1a1.08,1.08,0,0,0,.8-.2c.2-.3.4-.5.4-.8l2.9-12.2L41,39.13a2,2,0,0,0,.4.8,1.2,1.2,0,0,0,.8.2h1.6a1.85,1.85,0,0,0,.7-.2,1.61,1.61,0,0,0,.4-.7l4.6-14.6c0-.2.1-.3.1-.5v-.4a.55.55,0,0,0-.5-.3h-1.8a1.85,1.85,0,0,0-.7.2,1.61,1.61,0,0,0-.4.7L42.85,37l-3-12.7c-.1-.3-.2-.6-.4-.7a1.2,1.2,0,0,0-.8-.2h-1.5a1.88,1.88,0,0,0-.8.2c-.2.1-.3.3-.4.7l-2.9,12.5-3.2-12.5a2.51,2.51,0,0,0-.4-.7.84.84,0,0,0-.7-.2h-2a.55.55,0,0,0-.3.5c.1.3.1.6.2.8Z"/><path class="cls-2" d="M19.05,30.43c-.7,0-1.3-.1-2-.1a6.7,6.7,0,0,0-4.6,1.5,5.07,5.07,0,0,0-1.7,3.9,4.9,4.9,0,0,0,1.4,3.6,5.38,5.38,0,0,0,3.8,1.4,7.12,7.12,0,0,0,5.6-2.6,10.91,10.91,0,0,0,.6,1.1,5.5,5.5,0,0,0,.7.9.86.86,0,0,0,.6.3.76.76,0,0,0,.5-.2l1.2-.8c.2-.2.4-.4.4-.6a.6.6,0,0,0-.1-.4c-.2-.5-.4-.9-.6-1.4a9.85,9.85,0,0,1-.2-1.7l-.4-6.4a6.4,6.4,0,0,0-1.6-4.6c-1-1-2.7-1.5-4.9-1.5a14.46,14.46,0,0,0-2.9.4,11.72,11.72,0,0,0-2.4.9,1,1,0,0,0-.5.4,1.7,1.7,0,0,0-.1.7v.9c0,.4.1.6.4.6a.37.37,0,0,1,.3-.1,1.45,1.45,0,0,0,.7-.2c.6-.2,1.3-.4,2-.6a12.31,12.31,0,0,1,2-.2,4.25,4.25,0,0,1,3.1.9,4.14,4.14,0,0,1,.9,3v1.3A20.69,20.69,0,0,0,19.05,30.43Zm2.6,2.7v.8a8.75,8.75,0,0,1-.2,1.6,2.73,2.73,0,0,1-.6,1.2,4.39,4.39,0,0,1-1.8,1.2,6.93,6.93,0,0,1-2,.3c-.9,0-1.4,0-1.9-.5a2.58,2.58,0,0,1-.7-2,2.66,2.66,0,0,1,.9-2.2,4.25,4.25,0,0,1,2.8-.8,10.87,10.87,0,0,1,1.8.1C20.45,32.93,21.05,33,21.65,33.13Z"/><path class="cls-2" d="M62.65,32.83a5.19,5.19,0,0,0-2.9-1.8l-2.7-.9a5.11,5.11,0,0,1-2.1-1,1.61,1.61,0,0,1-.6-1.3,1.85,1.85,0,0,1,.9-1.7,5.51,5.51,0,0,1,2.5-.5,8.89,8.89,0,0,1,3.6.7,1.45,1.45,0,0,0,.7.2c.3,0,.4-.2.4-.6V25a1.42,1.42,0,0,0-.2-.6,2.65,2.65,0,0,0-.6-.5c-.3-.1-.5-.2-.8-.3l-1.1-.3c-.4-.1-.8-.1-1.2-.2a5.7,5.7,0,0,0-1.3-.1,9.86,9.86,0,0,0-2.4.3,7.5,7.5,0,0,0-2,1,5.21,5.21,0,0,0-1.4,1.6A5,5,0,0,0,51,28a4.6,4.6,0,0,0,.9,2.7,5.58,5.58,0,0,0,3,1.9l2.7.9a4.13,4.13,0,0,1,1.9,1,1.9,1.9,0,0,1,.5,1.3,2.23,2.23,0,0,1-1,1.8,5.55,5.55,0,0,1-2.8.6A8.2,8.2,0,0,1,54,38a17.23,17.23,0,0,1-2.1-.7,1.69,1.69,0,0,0-.5-.2.37.37,0,0,0-.3-.1c-.3,0-.4.2-.4.6v.9a1.23,1.23,0,0,0,.7,1.1,8.26,8.26,0,0,0,2.2.8,13.58,13.58,0,0,0,2.9.3,20,20,0,0,0,3.1-.3,7,7,0,0,0,2.1-1.1,4.57,4.57,0,0,0,1.4-1.7,5.45,5.45,0,0,0,.5-2.2A4.32,4.32,0,0,0,62.65,32.83Z"/><path class="cls-2" d="M59.15,48.53a54.76,54.76,0,0,1-21.5,4.4,56.12,56.12,0,0,1-28.1-7.5c-.7-.4-1.2.3-.6.8a41.53,41.53,0,0,0,28.1,10.7c7.8,0,16.8-2.4,23-7C61.05,49.13,60.15,48,59.15,48.53Z"/></g></g></svg>