<svg xmlns="http://www.w3.org/2000/svg" viewBox="0 0 72 72"><defs><style>.cls-1{fill:#333;}.cls-2{fill:#fff;}</style></defs><g id="Layer_2" data-name="Layer 2"><g id="Layer_5" data-name="Layer 5"><circle class="cls-1" cx="36" cy="36" r="36"/><path class="cls-2" d="M16.8,14.65H55.4c.3,0,.8-.1,1.1.1a.73.73,0,0,1,.2.6v8.4c0,.2,0,.5-.2.6a.84.84,0,0,1-.7.2H52.1a.83.83,0,0,1-.8-.3,1.08,1.08,0,0,1-.2-.8v-3.3h-30v3.4a.84.84,0,0,1-.2.7,1,1,0,0,1-.7.2H16.3a.75.75,0,0,1-.9-.9V16A1.26,1.26,0,0,1,16.8,14.65Zm34,19.6V38a.84.84,0,0,1-.2.7,1.08,1.08,0,0,1-.8.2H45.3a3.75,3.75,0,0,1-1.1-.1.67.67,0,0,1-.4-.7v-3.8a1.2,1.2,0,0,1,.2-.8.91.91,0,0,1,.7-.3H50a.84.84,0,0,1,.7.2C50.9,33.65,50.8,34,50.8,34.25Zm-10.3.3a3.75,3.75,0,0,1-1.1.1H34.8a.8.8,0,0,1-1-1v-3.6a1.08,1.08,0,0,1,.2-.8.73.73,0,0,1,.6-.2h5.2a.75.75,0,0,1,.9.9v3.9C40.9,34.05,40.8,34.35,40.5,34.55Zm.4,3.9v3.9a.91.91,0,0,1-.3.7c-.3.2-.8.1-1.1.1H34.9a.8.8,0,0,1-1-1v-3.6a1.08,1.08,0,0,1,.2-.8.84.84,0,0,1,.7-.2H40a.84.84,0,0,1,.7.2A1.17,1.17,0,0,1,40.9,38.45Zm-10.3.1a1.08,1.08,0,0,1-.8.2H24.7a.84.84,0,0,1-.7-.2c-.2-.2-.2-.4-.3-.7v-3.7a1.08,1.08,0,0,1,.2-.8c.3-.3.9-.2,1.3-.2h4.7a.84.84,0,0,1,.7.2,1.08,1.08,0,0,1,.2.8v3.7A1.45,1.45,0,0,1,30.6,38.55Zm.2,4.1v3.7a.75.75,0,0,1-.9.9H24.7a.83.83,0,0,1-.8-.3,1.08,1.08,0,0,1-.2-.8v-3.7a.91.91,0,0,1,.4-.8,3.75,3.75,0,0,1,1.1-.1h4.7a.84.84,0,0,1,.7.2A1.83,1.83,0,0,1,30.8,42.65Zm-.2-12.6a1.08,1.08,0,0,1-.8.2H25.1a3.4,3.4,0,0,1-1-.1c-.3-.1-.4-.4-.4-.8v-4a1.08,1.08,0,0,1,.2-.8,1.14,1.14,0,0,1,.8-.3h5.1c.3,0,.7,0,.9.3a1,1,0,0,1,.2.7v3.8C30.8,29.55,30.8,29.85,30.6,30.05Zm26.1,26.4a.84.84,0,0,1-.2.7c-.3.3-.7.2-1.1.2H16.1a.73.73,0,0,1-.6-.2.84.84,0,0,1-.2-.7v-8.1a1.14,1.14,0,0,1,.3-.8c.1-.1.4-.1.6-.1H20a.83.83,0,0,1,.8.3.84.84,0,0,1,.2.7v3.3H51.1v-3.3a.84.84,0,0,1,.2-.7,1.08,1.08,0,0,1,.8-.2h3.5a1.08,1.08,0,0,1,.8.2,1.14,1.14,0,0,1,.3.8v7.9Z"/></g></g></svg>