<svg xmlns="http://www.w3.org/2000/svg" viewBox="0 0 72 72"><defs><style>.cls-1{fill:#333;}.cls-2{fill:#fff;}</style></defs><g id="Layer_2" data-name="Layer 2"><g id="Layer_5" data-name="Layer 5"><circle class="cls-1" cx="36" cy="36" r="36"/><path class="cls-2" d="M27.4,54.33a1.33,1.33,0,0,1-.3.5c-.1.1-.2.3-.4.4s-.3.2-.5.2a1.09,1.09,0,0,1-.5.1H14.6a1.88,1.88,0,0,1-.8-.2,1.47,1.47,0,0,1-.6-.5,1.14,1.14,0,0,1-.3-.8,2,2,0,0,1,.1-.8l13.8-40.9a1.33,1.33,0,0,1,.3-.5c.1-.1.2-.3.4-.4s.3-.2.5-.2a1.09,1.09,0,0,1,.5-.1h.2a.75.75,0,0,1,.5.1c.1.1.3.1.5.2a1.46,1.46,0,0,1,.6.9L36,29.13l-3.5,10.5H26.6a1.61,1.61,0,0,0-.9.3,1.48,1.48,0,0,0-.6,1.6,1.37,1.37,0,0,0,.5.8l4.6,4.3ZM44.1,54a1.33,1.33,0,0,1-.3.8,2.65,2.65,0,0,1-.6.5,1.88,1.88,0,0,1-.8.2h-.8c-.1,0-.2-.1-.3-.1s-.2-.1-.3-.2-.2-.1-.3-.2l-9.5-8.9-.4-.4-.4-.4-4.2-4c-.1-.1-.1-.2-.2-.3s0-.4.2-.6a.37.37,0,0,1,.3-.1H39.7L44,53C44.1,53.53,44.2,53.83,44.1,54ZM60,54a1.33,1.33,0,0,1-.3.8,1.62,1.62,0,0,1-1.4.7H44.6a.35.35,0,0,0,.1-.2,3.08,3.08,0,0,0,.5-1.2,2.88,2.88,0,0,0-.1-1.3l-4.2-12.3-.2-.5-.2-.5L37,29l-.3-.8-.3-.8-5.2-15.5a4.05,4.05,0,0,0-.5-.9H44.4a.75.75,0,0,1,.5.1c.2.1.3.1.5.2s.3.2.4.4a2.19,2.19,0,0,1,.3.5l13.6,40.2h0l.2.7A3.44,3.44,0,0,1,60,54Z"/></g></g></svg>