<svg xmlns="http://www.w3.org/2000/svg" viewBox="0 0 72 72"><defs><style>.cls-1{fill:#333;}.cls-2{fill:#fff;}</style></defs><g id="Layer_2" data-name="Layer 2"><g id="Layer_5" data-name="Layer 5"><circle class="cls-1" cx="36" cy="36" r="36"/><path class="cls-2" d="M56.67,18A4.35,4.35,0,1,0,61,22.31,4.37,4.37,0,0,0,56.67,18Z"/><path class="cls-2" d="M39,26.65a17.67,17.67,0,0,0-12.34,4.63v-23a.77.77,0,0,0-1.12-.7L19.92,10.8a.48.48,0,0,0-.15.28V59.9a.67.67,0,0,0,.71.7h5.33a.66.66,0,0,0,.7-.7V56.67A18.27,18.27,0,0,0,38.85,61.3c10.24,0,17.82-7.57,18-17.25S49.09,26.65,39,26.65Zm-.14,28.2a10.94,10.94,0,1,1,10.8-10.94A10.87,10.87,0,0,1,38.85,54.85Z"/></g></g></svg>