<svg xmlns="http://www.w3.org/2000/svg" viewBox="0 0 72 72"><defs><style>.cls-1{fill:#333;}.cls-2{fill:#fff;}</style></defs><g id="Layer_2" data-name="Layer 2"><g id="Layer_5" data-name="Layer 5"><circle class="cls-1" cx="36" cy="36" r="36"/><path class="cls-2" d="M47.7,37.5c1.4,0,2.8-.1,4.2-.2l-.1-1.1c-1.4,0-2.8-.1-4.2-.2l-4.2-.2c-2.4-.1-4.9-.1-7.3-.1,0-2.4,0-4.9-.1-7.3l-.2-4.2a29.54,29.54,0,0,0-.2-4.2H34.5c0,1.4-.1,2.8-.2,4.2l-.2,4.2c0,1.1-.1,2.3-.1,3.4-.5-1.1-.9-2.1-1.4-3.2l-1.7-3.8c-.6-1.2-1.1-2.5-1.8-3.8l-1.1.5c.5,1.3.9,2.6,1.4,4l1.5,3.9c.4,1.1.8,2.1,1.3,3.2-.8-.9-1.7-1.6-2.5-2.4l-3-2.9c-1-.9-2-1.9-3.1-2.8l-.8.8c.9,1,1.9,2,2.8,3.1l2.9,3c.8.8,1.6,1.7,2.4,2.5-1.1-.5-2.1-.8-3.2-1.3l-3.9-1.5c-1.3-.5-2.6-1-4-1.4l-.5,1.1c1.2.6,2.5,1.2,3.8,1.8l3.8,1.7c1.1.5,2.1.9,3.2,1.4-1.1,0-2.3,0-3.4.1l-4.2.2a29.54,29.54,0,0,0-4.2.2v1.1c1.4,0,2.8.1,4.2.2l4.2.2c2.4.1,4.9.1,7.3.1,0,2.4,0,4.9.1,7.3l.2,4.2c0,1.4.1,2.8.2,4.2h1.1c0-1.4.1-2.8.2-4.2l.2-4.2c0-1.1.1-2.4.1-3.5.4,1.1.9,2.2,1.4,3.3l1.7,3.8c.6,1.2,1.1,2.5,1.8,3.8l1-.4c-.5-1.3-.9-2.6-1.4-4l-1.4-3.9c-.4-1.1-.8-2.2-1.3-3.3.8.8,1.7,1.6,2.5,2.4l3,2.9c1,.9,2,1.9,3.1,2.8l.8-.8-2.8-3.1-2.9-3c-.8-.8-1.6-1.7-2.4-2.5,1.1.5,2.2.8,3.3,1.3l3.9,1.4c1.3.5,2.6,1,4,1.4l.4-1c-1.2-.6-2.5-1.2-3.8-1.8l-3.8-1.7c-1.1-.4-2.1-.9-3.2-1.4,1.1,0,2.4,0,3.5-.1Z"/><path class="cls-2" d="M36,9A27,27,0,1,0,63,36,27,27,0,0,0,36,9Zm0,51.5A24.5,24.5,0,1,1,60.5,36,24.54,24.54,0,0,1,36,60.5Z"/></g></g></svg>