<svg xmlns="http://www.w3.org/2000/svg" viewBox="0 0 72 72"><defs><style>.cls-1{fill:#333;}.cls-2{fill:#fff;}</style></defs><g id="Layer_2" data-name="Layer 2"><g id="Layer_5" data-name="Layer 5"><circle class="cls-1" cx="36" cy="36" r="36"/><path class="cls-2" d="M61.87,39.73,57,20.07c-.15-.29-.3-.73-.44-1a3.88,3.88,0,0,0-.89-.74l-18-9.16a3.34,3.34,0,0,0-2.37,0L17,18.3a3.88,3.88,0,0,0-.89.74,1.36,1.36,0,0,0-.44,1L10.89,39.73a1.6,1.6,0,0,0,0,1.18,7,7,0,0,0,.45,1l13,16.11a3.78,3.78,0,0,0,.88.73,2.16,2.16,0,0,0,1,.3H46.5a3.42,3.42,0,0,0,1.18-.3,3.82,3.82,0,0,0,.89-.73L61.42,41.94a1.57,1.57,0,0,0,.45-1A1.71,1.71,0,0,0,61.87,39.73ZM46.5,56.27H26.26l-12.86-16L18,20.67l18.33-9,18,9,4.88,19.65Z"/></g></g></svg>