<svg xmlns="http://www.w3.org/2000/svg" viewBox="0 0 72 72"><defs><style>.cls-1{fill:#333;}.cls-2{fill:#fff;}</style></defs><g id="Layer_2" data-name="Layer 2"><g id="Layer_5" data-name="Layer 5"><circle class="cls-1" cx="36" cy="36" r="36"/><path class="cls-2" d="M34.2,39a27.69,27.69,0,0,1-4.5-3.7c-.1-.1-.1-.6-.1-.6a24,24,0,0,0,7,3.8,5.37,5.37,0,0,0,4.4-.4,10.84,10.84,0,0,0,3.4-3l.2.3a7.26,7.26,0,0,1-.6,1.4,4.18,4.18,0,0,0,1,.4l2.7-.4a8.13,8.13,0,0,0,.9-6.4,14.94,14.94,0,0,0-2.8-4.2c-.5-.5.1-2.6-1-4.8-1.1-2.4-4.1-4.8-5.4-5.9.4.3,2.7,1.2,3.8,2.6.1-.1.1-.9.2-1a7.77,7.77,0,0,1-1-4,7,7,0,0,0-.5-2.3,3.78,3.78,0,0,1,1.2,2,8.44,8.44,0,0,0,1.7,3.7c1.5,1.9,2.9,2.9,3.6,2.2.8-.9-.9-4.7-3-6.8-2.5-2.5-3.2-2.2-4.7-1.6-1.2.4-1.8,3.8-4.9,3.7a20.08,20.08,0,0,0-2.5-.1c.3-.5.6-.9.6-.9a19.17,19.17,0,0,0-1.9.9l-.1-.1a7.19,7.19,0,0,1,.6-1s-.8.5-1.6,1.1a2.18,2.18,0,0,1,.7-1.2,5.26,5.26,0,0,0-2.4,1.7,18.26,18.26,0,0,0-3.1,1.2,5.22,5.22,0,0,1-3.8-2.4,2.41,2.41,0,0,0-3.1-.6c-1.8.7-4,1.7-4,1.7h1.5c-1,.4-2.1.9-2.1.9h1.1c-.4.3-.6.5-1,.8a10.55,10.55,0,0,0-1.7,1.5,10.6,10.6,0,0,1,1.2-.5c-.4.9-1.2,1.6-1.1,2.8a8.68,8.68,0,0,0,3.1,4.5c.1.1,2.4,2.2,4.1,1.3s2.4-1.6,2.7-2.8.1-2.4-.6-5.3c-.2-1-.8-2.9-1.1-3.9h.1A46.64,46.64,0,0,1,24,20c.9,3.2.6,4.9.2,5.5-1.2,1.8-4.4,2.1-5.9,1.1a13.43,13.43,0,0,0,.8,5.8,8.33,8.33,0,0,0,.4,2.5,3.63,3.63,0,0,1,.3-1.1,8.62,8.62,0,0,0,.5,1.9,4.28,4.28,0,0,1,.2-1.2,8.74,8.74,0,0,0,.8,1,6.75,6.75,0,0,0,.8,1.6,2.89,2.89,0,0,1,0-1,6.93,6.93,0,0,1,1.7,4.6c.4,3.9-6.2,7-7.4,9.5-1,1.5-1.5,3.7.1,5.1,3.9,3.3,2.4,4.2,4.4,5.6,2.7,2,6.1,1.1,7.2-.5,1.6-2.2,1.2-4.3.6-6.3-.5-1.5-1.7-4.1-3.3-5.1a7.31,7.31,0,0,0-4.5-1.1l.1-.1a6.83,6.83,0,0,1,5.3.8,9.42,9.42,0,0,1,3.9,5.6c.9-.1,1-.2,1.8-.3l-1.8-14.2Zm9.2-17.7c1.7.8,1.5,2.3,1.5,3.1v.5a2.87,2.87,0,0,0-1.2-.2.9.9,0,0,0-.5.1,3.26,3.26,0,0,1-1.3-1.7c0-.1-.1-.1-.1-.2v-.1c-.2-.6-.1-.7,0-.9s.4-.3-.1-.5h-.1C41.8,21.13,42.7,21,43.4,21.33ZM41.3,31a8.92,8.92,0,0,1,3.2-.9,6.47,6.47,0,0,1,2,0c.4.2.4,1,.1,1.7-.4,1-1,2.1-1.7,2.2a5.2,5.2,0,0,1-3.4-1.4A1,1,0,0,1,41.3,31Zm-10.8-7.6c1.8-1.2,4.1-.7,3.7-.4-.7.7.2.5.4,1.8a2,2,0,0,1-.5,1.8,12.27,12.27,0,0,0-2.1.5c-.5.2-.9.3-1.3.5-.1-.1-.2-.1-.3-.3A2.5,2.5,0,0,1,30.5,23.43Z"/><path class="cls-2" d="M57.6,36,43,38.73a7.63,7.63,0,0,1-1.7,1.5,5.37,5.37,0,0,1-4.2.4c-.7-.2-1.1-.3-1.7-.5l-3.6.5L34,58.73l25-4.5ZM35.3,56.83l-.2-2,4.1-6.2L43.8,50l4-6.7,4.8,3.2,3.6-7.6,1.3,13.9Z"/></g></g></svg>