<svg xmlns="http://www.w3.org/2000/svg" viewBox="0 0 72 72"><defs><style>.cls-1{fill:#333;}.cls-2{fill:#fff;}</style></defs><g id="Layer_2" data-name="Layer 2"><g id="Layer_5" data-name="Layer 5"><circle class="cls-1" cx="36" cy="36" r="36"/><path class="cls-2" d="M42.49,29.25h5.8v5.2h-5.8Zm-6.9-12.7h5.8v5.2h-5.8Zm0,6.3h5.8v5.2h-5.8Zm0,6.4h5.8v5.2h-5.8Zm-6.8-6.4h5.8v5.2h-5.8Zm0,6.4h5.8v5.2h-5.8ZM22,22.85h5.7v5.2H22Zm0,6.4h5.7v5.2H22Zm-6.8,0H21v5.2h-5.8ZM58,37.55c-4.8,11.6-15,17.9-28.7,17.9-19,0-19-17.4-18.3-20H49a9.26,9.26,0,0,0,4.3-1c-2.9-5.4,1.1-10.2,1.1-10.2s4.2,2.3,4.8,6.3c5.1-.8,7.6,1.5,7.6,1.5S65.29,38.05,58,37.55Z"/></g></g></svg>