<svg xmlns="http://www.w3.org/2000/svg" viewBox="0 0 72 72"><defs><style>.cls-1{fill:#333;}.cls-2{fill:#fff;}</style></defs><g id="Layer_2" data-name="Layer 2"><g id="Layer_5" data-name="Layer 5"><circle class="cls-1" cx="36" cy="36" r="36"/><path class="cls-2" d="M12.4,41.28C12.12,36.91,12,33,12,30.54c0-.27,0-.53,0-.76a4.45,4.45,0,0,1,1.49-3.4C17,23,25.87,14.61,27.64,12.94a4.44,4.44,0,0,1,3.47-1.31c2.38.14,6.65.44,11.47,1,7.39.86,13.87,2.1,13.87,2.1L44.1,26.5A104.45,104.45,0,0,0,29.46,26c-5,.15-9.93.69-13.27,1.13a5.18,5.18,0,0,0-3.32,1.71A3.93,3.93,0,0,0,12,30.54c.79-3.3,14.47-1.66,14.47-1.66a101.85,101.85,0,0,0-.28,14.66L13.84,55.3S12.88,48.7,12.4,41.28Zm46.3,4.29L44.58,59.06a4.47,4.47,0,0,1-3.47,1.31l-.76,0,.08,0h-.18c-.79-.06-6.44-.45-10.61-.92-7.39-.85-13.94-2.13-13.94-2.13L28.06,45.51A102.26,102.26,0,0,0,42.72,46s.93,13.39-2.25,14.34A4.1,4.1,0,0,0,42,59.54a5.17,5.17,0,0,0,1.88-3.23c.6-3.32,1.38-8.23,1.78-13.2A104.1,104.1,0,0,0,46,28.47L58.32,16.71s.92,6.54,1.42,14c.32,4.85.42,9.12.44,11.5A4.47,4.47,0,0,1,58.7,45.57Z"/><path class="cls-2" d="M40.47,60.3h0Z"/></g></g></svg>