<svg xmlns="http://www.w3.org/2000/svg" viewBox="0 0 72 72"><defs><style>.cls-1{fill:#333;}.cls-2{fill:#fff;}</style></defs><g id="Layer_2" data-name="Layer 2"><g id="Layer_5" data-name="Layer 5"><circle class="cls-1" cx="36" cy="36" r="36"/><path class="cls-2" d="M29.57,15.89a14.1,14.1,0,0,1,25.73,8,13.84,13.84,0,0,1-.27,2.8L42.39,37.74,29.89,32h0l-2.43-5.23ZM23.2,14.47a6.64,6.64,0,0,1,4.12,1.38L25.4,25.6l-8.57-2h0a6.9,6.9,0,0,1-.41-2.34A6.8,6.8,0,0,1,23.2,14.47ZM9.6,34.63a9.51,9.51,0,0,1,6.5-9h0l9.43,2.2,2.2,4.71-12,10.91A9.43,9.43,0,0,1,9.6,34.63ZM39,59.69h0Zm3.5-3.63a14.17,14.17,0,0,1-25.88-8,14.86,14.86,0,0,1,.27-2.84L29.24,34.12l12.55,5.73,2.8,5.31Zm6.27,1.37A6.7,6.7,0,0,1,44.72,56L46.6,46.3l8.57,2a6.69,6.69,0,0,1,.41,2.34A6.79,6.79,0,0,1,48.8,57.43Zm7.1-11.17-9.43-2.2h0L44,39.25,56.31,28.44a9.46,9.46,0,0,1-.41,17.82Z"/><path class="cls-2" d="M39,59.69h0Z"/></g></g></svg>