<svg xmlns="http://www.w3.org/2000/svg" viewBox="0 0 72 72"><defs><style>.cls-1{fill:#333;}.cls-2{fill:#fff;}</style></defs><g id="Layer_2" data-name="Layer 2"><g id="Layer_5" data-name="Layer 5"><circle class="cls-1" cx="36" cy="36" r="36"/><path class="cls-2" d="M56.76,22.25c-.27,1.22-.39,2.44-.7,3.76-3.7-.45-8.07-.79-13-1-.44,1.23-.78,2.47-1.23,3.81C50,29.37,54,31.5,56.4,34.08a10.62,10.62,0,0,1,2.69,8.08,12,12,0,0,1-4.82,9.08,17.62,17.62,0,0,1-8.41,3.14c-3.7.34-8.75-.56-9.87-1.23-.67-1.46-1.35-3-2-4.6a.92.92,0,0,1,.22-1.12c.68-.68,1.35-1.46,2.14-2.13.33-.23.78-.56,1-.12,1,1.57,2,3,2.92,4.49s2.69,3,6.28,2.8a6,6,0,0,0,5.61-5c.22-4.6-4.49-8-16.71-9h0c2.35-7.18,4.6-14,6.5-19.4,2.92.11,5.61.33,8.19.67,1.92.21,3.63.62,5.43.86A24.89,24.89,0,0,0,16.14,51c.94,0,1.58-.26,1.68-.67a13.09,13.09,0,0,0-.11-1.9A117.79,117.79,0,0,1,17.26,33c-1.23.11-2.35.11-3.47.23.11-1,.11-1.91.22-2.92l3.48-.34c.11-.78.11-1.68.22-2.46.56-5,5.94-8.08,10.32-9.31a21.24,21.24,0,0,1,4.15-.67h0a2.86,2.86,0,0,1,1,0,4.31,4.31,0,0,1,2.46.44c1,.79,1.91,1.46,2.92,2.25.11.11.22.33,0,.67a19.92,19.92,0,0,0-1.35,1.57,1,1,0,0,1-1.12.11c-.78-.33-1.57-.78-2.35-1.12a9.28,9.28,0,0,0-4.49-1.23,2.46,2.46,0,0,0-2,2.46c-.11,2.13-.22,4.38-.33,6.73,2.8,0,5.6-.11,8.52-.11v1.91c-.9.45-1.8.89-2.81,1.34-1.9.11-3.81.11-5.71.11-.12,5.72,0,11.33.22,16.49a10.11,10.11,0,0,0,.34,2.13c.22.67,1.79,1.12,5.15,1.35v1.68a99.4,99.4,0,0,1-14.91-1.38A24.9,24.9,0,0,0,56.76,22.25Z"/></g></g></svg>