<svg xmlns="http://www.w3.org/2000/svg" xmlns:xlink="http://www.w3.org/1999/xlink" viewBox="0 0 72 72"><defs><style>.cls-1{fill:#fff;}.cls-2{fill:#333;}</style><symbol id="New_Symbol_12" data-name="New Symbol 12" viewBox="0 0 70.5 70.78"><path class="cls-1" d="M9.27,39a4,4,0,0,0,.29.29l.07.07h0a2.06,2.06,0,0,0,.52.2,24.13,24.13,0,0,1-.4-5.19,14.83,14.83,0,0,1,1.36-6.07c.13-.28.77-1.32.93-1.54,0,0-.52,3.55-.6,4.94a21.1,21.1,0,0,0,.47,5.51l.22-.15a16.06,16.06,0,0,1,0-3.6,20.36,20.36,0,0,1,1.23-5.07,27.56,27.56,0,0,1,2.87-5.58,8.35,8.35,0,0,0-7.13,6.19s0-1,.08-1.28a20.9,20.9,0,0,1,.6-3.8A10.47,10.47,0,0,0,9,26a28.09,28.09,0,0,0-.81,4,28.24,28.24,0,0,0-.28,3.8,11.43,11.43,0,0,0,.52,3.72A5,5,0,0,0,9.27,39Z"/><path class="cls-1" d="M13.52,36.86a7,7,0,0,1,1.85-.79c1.25-.35,2.62-.7,4.3-1.11l.56-.14a33.26,33.26,0,0,0,4.25-1.23,11.15,11.15,0,0,0,2.43-1.28,13.44,13.44,0,0,0,3-2.81,4.79,4.79,0,0,0,.92-1.78l.33-1.12s1.37,1.53,0,4.24a5.1,5.1,0,0,0,2.35-2.33,32.46,32.46,0,0,0,1.45-4.28,5.76,5.76,0,0,1-.31,5.94,5,5,0,0,0,1.05-.67c7.39-7.34,1-11.5-.31-12.5a12,12,0,0,0-2.89-1.54l-.17-.07a.52.52,0,0,1-.17-.13l-.94-1,1.66.46.67.19a13.68,13.68,0,0,1,4.34,2c1.31,1,6.32,5.16,1,11.32,1.63-.57,4.73-2.28,5.78-3.76,5-7.09-.75-11.22-.5-11.22l.29,0a.71.71,0,0,0,.2,0c.11,0,.29,0,.32-.12a.51.51,0,0,0-.21-.49,2,2,0,0,0-1.57-.5c-5.22.81-7.07-.81-7.07-.81s7.32.37,7.56-.83a14.65,14.65,0,0,0-3.61-2.69,19.67,19.67,0,0,0-6.57-2.19,17.57,17.57,0,0,0-6.28.16c.28-.36,1.69-2,7.53-1.51a18.1,18.1,0,0,1,6.7,2c.53.27.85-.37.86-.66s.59,1.12.6,1.2a7.4,7.4,0,0,1,.33-.91A9.43,9.43,0,0,1,44,7.68a11,11,0,0,1,.76-.85,4,4,0,0,1,.14,1.66s.78-.51.78-.51a6.84,6.84,0,0,0,1.22,2.63,4.89,4.89,0,0,1,1,1.55,7.43,7.43,0,0,0,1.25-2.35,6.64,6.64,0,0,1,0,2.91l.89-.64a7.7,7.7,0,0,1-.44,3,2.29,2.29,0,0,0-.07.28,6.2,6.2,0,0,0,1.19-1.15l-.12.56a9.79,9.79,0,0,1-1,2.81,7.89,7.89,0,0,0-.85,2,3.09,3.09,0,0,1,.45-.36,4.12,4.12,0,0,1,.86-.44l.68-.25c1.16-.42,2.33-.91,3.46-1.41,2.4-1.06,1.86-2.54,1.86-2.54-.61,1.2-2.84,2.41-2.84,2.41s2.89-2.59,1.65-5.62c-.33.79-.66,1.59-1,2.33a11.56,11.56,0,0,1-1.74,3.12,4.33,4.33,0,0,1-1.32,1.1,2,2,0,0,1-.33.14l-.13,0A6.75,6.75,0,0,0,50.93,15c0-.83,0-1.68,0-2.44v-.16c0-.39,0-.78,0-1.17a15.1,15.1,0,0,1,.39-4c0-.06,0-.13-.05-.2a3.31,3.31,0,0,1-.21-.46c-.11-.26-.2-.52-.3-.81a4.22,4.22,0,0,0-1.08-1.74c-.11.34-.8,1.75-.8,1.75V4.53c-.2-1.51-3.92-2.87-4-2.92l.2,1.19A2.33,2.33,0,0,1,43.5,2a1.34,1.34,0,0,0-.38-.37l.27.9.27.63a1.74,1.74,0,0,1-1.28-.79c-.1-.17-.23-.36-.34-.56A2.2,2.2,0,0,0,40.35.6C39.82.53,39.24.47,38.58.42A3.9,3.9,0,0,1,37.17.1L36.94,0c0,.08.09.17.13.26a1.47,1.47,0,0,1,.12.28l0,.06.1.23.14.51A4.66,4.66,0,0,1,35.2.46a2,2,0,0,0-1-.21h-.1c-.34,0-.67,0-1,0a9.2,9.2,0,0,0-2.71.38l-.17.06h.51a2.9,2.9,0,0,1,2.62,1.22s-1.79,0-2.31.07a13.29,13.29,0,0,0-1.82.31,15,15,0,0,0-4.79,2.34c-.36.26-.74.51-1.14.76A5.52,5.52,0,0,0,21.65,7a.92.92,0,0,0-.1.2c0,.11,0,.12,0,.15a2.4,2.4,0,0,0,.5.18,7,7,0,0,1,5.26,5.92l0,.36a17,17,0,0,1,.16,2.78,10,10,0,0,1-2.65,6.46,6.07,6.07,0,0,1-3.89,2,9.07,9.07,0,0,0,2.59-4.89,4.11,4.11,0,0,0-.25-2.44s0,.09-.05.13A7.42,7.42,0,0,1,22,20.43c-.38.45-.92.95-1.53,1.54-2.69,2.55-7.18,6.83-7.11,13.63A5.8,5.8,0,0,0,13.52,36.86Z"/><path class="cls-1" d="M54.71,19.65l-1,.86a5.53,5.53,0,0,1-2,1.16,1.43,1.43,0,0,1-1.44-.36,3.82,3.82,0,0,0,1.32-1.15,23,23,0,0,0-3.4,2.09,7.76,7.76,0,0,0-1.15,1,2.35,2.35,0,0,0-.61,1.43h0a1.57,1.57,0,0,1,.16,0,17.52,17.52,0,0,0,3.62-1.44,46.52,46.52,0,0,0,5.18-3.17A.91.91,0,0,1,55.7,20l1.09-.31-.67.92-.08.1a21.43,21.43,0,0,1-7,4.79,13.92,13.92,0,0,1-1.45.51,27.61,27.61,0,0,0,4.46-1.54,12.77,12.77,0,0,0,3.6-2.28,11.19,11.19,0,0,0,3-4.65,2.21,2.21,0,0,0,.07-.3l-.33.1a7.92,7.92,0,0,0-1.1.38,6.35,6.35,0,0,0-1.25.85C55.58,18.9,55.1,19.31,54.71,19.65Z"/><path class="cls-1" d="M4.51,44.2c.38.6.79,1.2,1.19,1.77l.06.09a6.83,6.83,0,0,1,.66-5.84l.42,1.15a3.58,3.58,0,0,0,.49.89A13.51,13.51,0,0,1,8.91,40a4.2,4.2,0,0,1-1.39-1.22,7.06,7.06,0,0,1-1.23-2.94,16.09,16.09,0,0,1-.2-4.61c0-.51.1-1,.17-1.55a24.72,24.72,0,0,0-4.79,8s0,0,0,.07A28.56,28.56,0,0,0,4.51,44.2Z"/><path class="cls-1" d="M53.6,9.89a14.76,14.76,0,0,1,1.08-5.7l0-.12a2.71,2.71,0,0,0-.73.74,8.51,8.51,0,0,0-1.17,2.75,33.61,33.61,0,0,0-1,6.8,6.75,6.75,0,0,0,1.69-3.58C53.56,10.5,53.59,10.19,53.6,9.89Z"/><path class="cls-1" d="M63.53,66c-1.17-.2-3.64-1.07-4.33-2.79-.85,2.08.9,3.6,2.21,4.28a4.13,4.13,0,0,0,.53.24c.25.11-.48,1.46.14,2.08a1.53,1.53,0,0,0,1.43.43s1.07,1,1.67.33a1.22,1.22,0,0,0,.09-1.14C65,69,64.4,69,64.34,69c-1.21,0-1.1-.55-.92-.8s.39-.16.61-.16h.16a7.29,7.29,0,0,0,.79,0,6.34,6.34,0,0,0,2.9-.53,3,3,0,0,0,1.4-2A11.83,11.83,0,0,1,63.53,66Z"/><path class="cls-1" d="M70.38,43c-.11-.29-.25-.58-.37-.84l-.18-.37c-.06-.14-.12-.27-.19-.41a7.44,7.44,0,0,1-.45-1,3.84,3.84,0,0,1-.15-.94l0-.34a9.76,9.76,0,0,0-5.53-7.67,3.73,3.73,0,0,1-.64,1.23.78.78,0,0,1-.77.4c-.46,0-.53-.53-.39-.78a4.54,4.54,0,0,0,.58-1.6A4.49,4.49,0,0,0,61,27.5a7.59,7.59,0,0,0-2.88-2,6.65,6.65,0,0,0,.36,3.27c.39,1.07,1.6,3.16,1.31,4.42a1.92,1.92,0,0,1-.89,1.33c-.45.28-.64.15-.64.15.87-1.85.88-2.63-.08-4.38a6.11,6.11,0,0,1-.8-4.12c0-.06,0-.12,0-.18a6.21,6.21,0,0,1-.26.59,16.23,16.23,0,0,0-1.85,3.3,6.07,6.07,0,0,0,1,4.72,3.65,3.65,0,0,1-1.63-2.37,12.76,12.76,0,0,0-3.94,3.43,5.84,5.84,0,0,1-.76.8,14.5,14.5,0,0,1-5.83,3.24c-1.46.42-3,.78-4.43,1.14l-.39.09a36.37,36.37,0,0,0-6.18,1.94,19.2,19.2,0,0,0-5.66,3.65,13,13,0,0,0-3.91,7.65A18.34,18.34,0,0,0,24,61.55c0,.1-3-2.77-1.45-11l-.7,0h-.2c-5.7.17-8.07,3.31-8.07,3.31s.37-3.48,5.86-4.65c.42-.09,3.87-.87,4-.91a15.53,15.53,0,0,1,1.64-2.62l-.49.08c-.94.14-1.91.29-2.87.42l-.74.1a32.23,32.23,0,0,0-5.14.93,10,10,0,0,0-4.19,2.26,9.42,9.42,0,0,0-2.51,4.25,1.38,1.38,0,0,0-.07.26c0,.14-.08.29-.13.44A.85.85,0,0,0,9,55a16.21,16.21,0,0,0,5.23,7,22.13,22.13,0,0,0,6.33,3.48.74.74,0,0,1,.32.19l1,1-1.6-.38-.57-.14a21,21,0,0,1-8.51-4.52c-.8-.29-4.91-2.34-6.66-5.71l-.29-.56s2.23,2.2,3.8,2.52a17.1,17.1,0,0,1-1.67-3.6A.83.83,0,0,0,6.29,54,34.63,34.63,0,0,1,.44,43.74C.35,43.49.27,43.23.19,43A25.36,25.36,0,0,0,0,46.09c0,.32,2.82,7.8,2.82,7.8A22.07,22.07,0,0,1,.55,50.77s-.18-.59-.2-.63a23.58,23.58,0,0,0,2.54,7.44A24.51,24.51,0,0,0,19,70a22.67,22.67,0,0,0,5.77.75l23.17,0a14.75,14.75,0,0,0,2.69-.21l.12,0a4.49,4.49,0,0,1,.83-.1,4.26,4.26,0,0,1,1,.13l.18,0a4.35,4.35,0,0,0,1,.16c3.89,0,3.35-2.31,3.35-2.31a2.06,2.06,0,0,0-1.64-1.22,3.31,3.31,0,0,0-.83-.1A4.41,4.41,0,0,0,53,67.5l-.84.36-.51.22-.29.12a1.73,1.73,0,0,1-.5.1c-.59,0-.61-.57-.63-.92a1.35,1.35,0,0,1,.5-1.1,9,9,0,0,1,.89-.67,8,8,0,0,0,1.63-1.32,4.43,4.43,0,0,0,1.06-2.06,2.34,2.34,0,0,0-.13-1.38c0-.11-.08-.13-.11-.14L53,60.38a6.77,6.77,0,0,1-3.32-1.9,8.26,8.26,0,0,1-1.3-2,17.92,17.92,0,0,1-1.22-3.23,7.26,7.26,0,0,0-3.4-4.35,10.43,10.43,0,0,0-4.59-1.54c-.4,0-.81-.06-1.25-.08l-.61-.07c-.22,0-.45-.07-.55-.07l-.62,0s.16-.22,1.44-.71a3.76,3.76,0,0,1,.74-.16,9.55,9.55,0,0,1,1.74-.16,8,8,0,0,1,3.8.93A8.78,8.78,0,0,1,47.4,50.6a13.7,13.7,0,0,1,1.23,2.92c.06.21.12.42.17.64a11.33,11.33,0,0,0,.36,1.17,6,6,0,0,0,5,3.88,13.05,13.05,0,0,0,1.84.13,10,10,0,0,0,3.18-.49,6.27,6.27,0,0,0,3.13-2.1,4,4,0,0,0,.75-1.45l.1-.36.6.14.39.09.27,0a4.5,4.5,0,0,0,.85-.13l0,0A3,3,0,0,1,66,55h.18a.55.55,0,0,1,.46.27.69.69,0,0,0,.52.31.82.82,0,0,0,.22,0,1.47,1.47,0,0,0,1.41-1.22.53.53,0,0,0-.21-.49l-.39-.24-.67-.43.45-.34a.75.75,0,0,1,.43-.15.87.87,0,0,1,.36.09s-.57-3-4.51-2.11l-1,.38-.15.06a.77.77,0,0,1-.3.06,1.13,1.13,0,0,1-.49-.14,5,5,0,0,0-3-.39,6.63,6.63,0,0,1-1.59-.17.65.65,0,0,1-.34-.2L57.18,50a7.7,7.7,0,0,1-3.49-.58,5.51,5.51,0,0,1-2.94-2.66,4.54,4.54,0,0,1-.44-2c0,.06,0,.13.08.2a6.37,6.37,0,0,0,1.1,2,8.08,8.08,0,0,0,3.39,2.4,10.54,10.54,0,0,0,2.25.62S60,50.06,61.2,49a5.38,5.38,0,0,1,2.71-.78h.18c3,0,3.3-1.47,3.3-1.47a1.3,1.3,0,0,0,.83.15,2,2,0,0,0,1.23-.6A2,2,0,0,0,70,45.06l-1-.9L68.78,44l-.39-.31.27-.31a.81.81,0,0,1,.61-.29.78.78,0,0,1,.39.1,3.59,3.59,0,0,1,.49.35l.15.11.19.15A1.57,1.57,0,0,0,70.38,43Zm-3.73-.81c-.12.32-.26.37-.59.29a3.19,3.19,0,0,0-.54,0c-.32,0-.65.07-1,.08a3.29,3.29,0,0,1-2.25-.66,2,2,0,0,1-.52-2.78c0,.06,0,.08,0,.11a2.19,2.19,0,0,0,1,1.8,4.08,4.08,0,0,0,1.76.58A3.33,3.33,0,0,1,66,42l.12.06v0a1.42,1.42,0,0,1-.07-.72,1.61,1.61,0,0,0,0-.87,1.84,1.84,0,0,1-.74.89.2.2,0,0,1-.16.06c-.23,0-.46-.1-.68-.17a8.46,8.46,0,0,1-1.25-.52,1.21,1.21,0,0,1-.69-1.42.59.59,0,0,0-.16-.56c-.07-.07-.13-.15-.2-.23a5.84,5.84,0,0,1,.46-.42,2.91,2.91,0,0,1,.46-.32,2.55,2.55,0,0,1,3.56,1.14A3.63,3.63,0,0,1,66.93,40,4.94,4.94,0,0,1,66.65,42.19Z"/><path class="cls-1" d="M5.69,50.82c-.06-.7-.1-1.39-.14-2.23a.3.3,0,0,0-.06-.18A46.82,46.82,0,0,1,1.23,41.1c-.19-.4-.36-.78-.5-1.16a22.81,22.81,0,0,0,5,10.9Z"/><path class="cls-1" d="M61.69,62.92a6.71,6.71,0,0,0,2.16.85,11.62,11.62,0,0,0,2.85.37A4.74,4.74,0,0,0,68.09,64a2.4,2.4,0,0,0,1.74-1.88A19,19,0,0,0,70.2,60a5.29,5.29,0,0,0-1.09-3.9l-.32.26a3.34,3.34,0,0,1-.58.36,2,2,0,0,1-.86.21,1.74,1.74,0,0,1-.82-.22,2.93,2.93,0,0,0-1.36-.3l-.62,0c-.08,0-.11,0-.15.12A6.89,6.89,0,0,1,60.57,60l0,0a0,0,0,0,0,0,0,3.35,3.35,0,0,0,0,1.34A2.57,2.57,0,0,0,61.69,62.92Z"/><path class="cls-1" d="M44.07,28.05a20.62,20.62,0,0,1-5.8,4,20.88,20.88,0,0,1-5.38,1.72l-3.67.7-.25,0-3.11.6a62.63,62.63,0,0,0-8.47,2.09,21,21,0,0,0-5,2.3A8.93,8.93,0,0,0,9.59,42.3c-.16.27-.3.58-.43.85s-.14.32-.22.47a1.31,1.31,0,0,1-.22.34,6,6,0,0,0-1.81,5.18,10.29,10.29,0,0,0,1.16,3.64A7.55,7.55,0,0,1,12,47.12a14.45,14.45,0,0,1,4.08-1.53c1.55-.34,3.13-.63,4.61-.89l.9-.16a35.39,35.39,0,0,0,4.6-1c.35-.11.7-.23,1-.35a5.1,5.1,0,0,0,1.16-.61,14.62,14.62,0,0,1,1.3-.86c-1.92,0-5.19-.05-6.2-.05a14.48,14.48,0,0,0-5.79.92c-2.05.78-7.89,3.75-7.89,3.75a26.38,26.38,0,0,1,8.36-5.44A23.19,23.19,0,0,1,24,39.46a24.69,24.69,0,0,1,2.77-.14c.81,0,1.65,0,2.57.1l4.53.32h0l.22,0a31.66,31.66,0,0,1,4.63-1c.52-.07,1-.18,1.56-.28l-.3-.09-.35-.13-.26-.1-1-.69,3.82.08c.83,0,8.94-1.31,12.42-11,.23-.64.47-1.29.66-2a22.48,22.48,0,0,1-7.87,3.13A21.53,21.53,0,0,1,44.07,28.05Z"/><polygon class="cls-1" points="58.17 22.53 58.17 22.54 58.17 22.54 58.17 22.53"/><path class="cls-1" d="M63.19,39.12a.8.8,0,0,0,.8.79.79.79,0,0,0,.79-.79.79.79,0,0,0-.79-.8A.8.8,0,0,0,63.19,39.12Z"/></symbol></defs><g id="Layer_2" data-name="Layer 2"><g id="Layer_5" data-name="Layer 5"><circle class="cls-2" cx="36" cy="36" r="36"/><use width="70.5" height="70.78" transform="translate(9.61 8.96) scale(0.7)" xlink:href="#New_Symbol_12"/></g></g></svg>