<svg xmlns="http://www.w3.org/2000/svg" viewBox="0 0 72 72"><defs><style>.cls-1{fill:#333;}.cls-2{fill:#fff;}</style></defs><g id="Layer_2" data-name="Layer 2"><g id="Layer_5" data-name="Layer 5"><circle class="cls-1" cx="36" cy="36" r="36"/><path class="cls-2" d="M35.2,56H22.9a16.35,16.35,0,0,1-9.3-3l6.8-6.8a7,7,0,0,0,2.5.5H35.1V56Zm-6.4-19.2a6.78,6.78,0,0,0-5.8-3.5,6.59,6.59,0,0,0-6.6,6.6,6.47,6.47,0,0,0,3.5,5.8l-3.8,3.8-3,3a16,16,0,0,1,.9-25.8A19.62,19.62,0,0,1,17.2,25a16.16,16.16,0,0,1,5.8-1.1,18.16,18.16,0,0,1,3.2.3A15.61,15.61,0,0,1,35.6,30Zm6.8-17.3a12.78,12.78,0,0,0-9.4,4.1,3.4,3.4,0,0,0-1-.1c-.2,0-.3-.1-.5-.1a8.6,8.6,0,0,0-1.6-.1H21.5c-.3,0-.5.1-.8.1-.1,0-.3.1-.4.1s-.5.1-.7.1-.3.1-.5.1-.5.1-.7.2-.3.1-.4.1a1.85,1.85,0,0,1-.7.2c-.1.1-.3.1-.4.2s-.5.2-.7.3-.3.1-.4.2a2.51,2.51,0,0,0-.7.4c-.1.1-.2.1-.4.2s-.2.1-.3.1A22.36,22.36,0,0,1,35.7,10a22.07,22.07,0,0,1,14.5,5.4L46.6,19l-3,3a14.53,14.53,0,0,0-8-2.5Zm12.6,36.4H36v-9.4H48.2a6.59,6.59,0,0,0,6.6-6.6,6.67,6.67,0,0,0-6.3-6.6v-.9a12.79,12.79,0,0,0-4.5-9.8l3.7-3.7L50.6,16a22.53,22.53,0,0,1,6.5,10.6c0,.1.1.1.1.2A16.08,16.08,0,0,1,64.1,40,15.88,15.88,0,0,1,48.2,55.93Z"/></g></g></svg>