<svg xmlns="http://www.w3.org/2000/svg" viewBox="0 0 72 72"><defs><style>.cls-1{fill:#333;}.cls-2{fill:#fff;}</style></defs><g id="Layer_2" data-name="Layer 2"><g id="Layer_5" data-name="Layer 5"><circle class="cls-1" cx="36" cy="36" r="36"/><path class="cls-2" d="M53.65,11.9h-27a7.81,7.81,0,0,0-7.8,7.8V31.5a7.84,7.84,0,0,0,1.9,5.1,7.23,7.23,0,0,0-.8,8.8,8.24,8.24,0,0,0-3,6.2v.8a7.81,7.81,0,0,0,7.8,7.8h21.4A7.81,7.81,0,0,0,54,52.4v-.8a7.81,7.81,0,0,0-7.8-7.8h-20a2.25,2.25,0,0,1,0-4.5h18A7.81,7.81,0,0,0,52,31.5V18.1a1.11,1.11,0,0,1,1.1-1.1h.5a1.32,1.32,0,0,0,1.3-1.3h.2V13.1A1.5,1.5,0,0,0,53.65,11.9Zm-29,36.9h21.4a2.69,2.69,0,0,1,2.7,2.7v.8a2.69,2.69,0,0,1-2.7,2.7H24.65A2.69,2.69,0,0,1,22,52.3v-.8A2.69,2.69,0,0,1,24.65,48.8Zm22.1-17.3a2.69,2.69,0,0,1-2.7,2.7H26.55a2.69,2.69,0,0,1-2.7-2.7V19.7a2.69,2.69,0,0,1,2.7-2.7h17.5a2.69,2.69,0,0,1,2.7,2.7Z"/></g></g></svg>