<svg xmlns="http://www.w3.org/2000/svg" viewBox="0 0 72 72"><defs><style>.cls-1{fill:#333;}.cls-2{fill:#fff;}</style></defs><g id="Layer_2" data-name="Layer 2"><g id="Layer_5" data-name="Layer 5"><circle class="cls-1" cx="36" cy="36" r="36"/><path class="cls-2" d="M13.78,27.49a1.33,1.33,0,0,0,1.33-2.31l-5.33-3a1.33,1.33,0,1,0-1.33,2.3Z"/><path class="cls-2" d="M51.09,28.58a17.22,17.22,0,0,0-32.34,6.9,11.91,11.91,0,0,0,1.33,23.75H48.31A15.41,15.41,0,0,0,63.69,43.84,15.25,15.25,0,0,0,51.09,28.58ZM57.88,52.2a12.71,12.71,0,0,1-9.57,4.36H20.08a9.25,9.25,0,0,1-1.21-18.41,18.33,18.33,0,0,0,1.94,6.66,1.35,1.35,0,1,0,2.42-1.21,14.69,14.69,0,0,1,5.93-19.75,14.48,14.48,0,0,1,18.78,4.48A15.66,15.66,0,0,0,36.8,33.54a1.29,1.29,0,1,0,1.93,1.7,12.79,12.79,0,0,1,19.15,17Z"/><path class="cls-2" d="M49.52,17.92l3-5.33a1.34,1.34,0,0,0-2.31-1.34l-3,5.33a1.4,1.4,0,0,0,.49,1.82A1.38,1.38,0,0,0,49.52,17.92Z"/><path class="cls-2" d="M36,15.13a1.34,1.34,0,0,0,1.33-1.33V7.62a1.33,1.33,0,1,0-2.66,0V13.8A1.34,1.34,0,0,0,36,15.13Z"/><path class="cls-2" d="M22.38,17.79a1.33,1.33,0,1,0,2.3-1.33l-3-5.33a1.33,1.33,0,0,0-2.3,1.33Z"/><path class="cls-2" d="M57.75,27.53a1.47,1.47,0,0,1-.51,0A1.47,1.47,0,0,0,57.75,27.53Z"/><path class="cls-2" d="M56.42,26.88a1.23,1.23,0,0,1-.16-.49,1.23,1.23,0,0,0,.16.49,1.4,1.4,0,0,0,.82.61A1.4,1.4,0,0,1,56.42,26.88Z"/><path class="cls-2" d="M62.72,21.87a1.19,1.19,0,0,0-.48.16l-5.33,3,5.33-3A1.19,1.19,0,0,1,62.72,21.87Z"/><path class="cls-2" d="M63.57,24.34a1.36,1.36,0,0,0,.6-.78A1.36,1.36,0,0,1,63.57,24.34Z"/><path class="cls-2" d="M64.05,22.52a1.61,1.61,0,0,1,.17.54,1.61,1.61,0,0,0-.17-.54,1.41,1.41,0,0,0-1.33-.65A1.41,1.41,0,0,1,64.05,22.52Z"/><path class="cls-2" d="M57.75,27.53a1.23,1.23,0,0,0,.49-.16l5.33-3-5.33,3A1.23,1.23,0,0,1,57.75,27.53Z"/><path class="cls-2" d="M64.05,22.52a1.41,1.41,0,0,0-1.33-.65,1.19,1.19,0,0,0-.48.16l-5.33,3a1.39,1.39,0,0,0-.65,1.33,1.23,1.23,0,0,0,.16.49,1.4,1.4,0,0,0,.82.61,1.47,1.47,0,0,0,.51,0,1.23,1.23,0,0,0,.49-.16l5.33-3a1.36,1.36,0,0,0,.6-.78,1.19,1.19,0,0,0,0-.5A1.61,1.61,0,0,0,64.05,22.52Z"/></g></g></svg>