<svg xmlns="http://www.w3.org/2000/svg" viewBox="0 0 72 72"><defs><style>.cls-1{fill:#333;}.cls-2{fill:#fff;}</style></defs><g id="Layer_2" data-name="Layer 2"><g id="Layer_5" data-name="Layer 5"><circle class="cls-1" cx="36" cy="36" r="36"/><path class="cls-2" d="M56.45,24H66v1.6H55.75Zm-1.1,3.1H66v1.6H54.65Zm2.3,17.7v-1.6h8.4v1.6Zm8.4,1.7v1.6h-8.4v-1.6Zm-3.4-6.4v1.6h-4.9v-1.6Zm-5-1.7v-1.6h4.9v1.6Zm-3.4-8h8.4V32h-8.9ZM52.75,35l.5-1.3h9.5v1.6h-4.9v-1.5l-.5,1.5h-8.9l-.5-1.5v1.5h-4.9v-1.6h9.5Zm-1.3,9.8-.5-1.6h3.5l-.5,1.6Zm1.9,1.7-.5,1.6-.5-1.6Zm-3-4.8-.5-1.6h5.6l-.5,1.6Zm-1-3.3-.5-1.6h7.8l-.5,1.6Zm-6.6,0v-1.6h4.9v1.6Zm4.9,1.7v1.6h-4.9v-1.6Zm4-8h-8.9v-1.6h8.4ZM39.25,24h9.5l.5,1.6H39.05l.2-1.6Zm0,3.1h10.6l.5,1.6H39.05l.2-1.6Zm0,16.1h8.4v1.6h-8.4Zm0,3.3h8.4v1.6h-8.4Zm-16.5-8.1v-1.6h13.3c.5.5,1.1,1.1,1.5,1.6Zm4.9,1.7v1.6h-4.9v-1.6Zm9.6-6.4a3.89,3.89,0,0,1-1.5,1.6H22.45v-1.6Zm-14.5-1.6v-1.6h4.9v1.6Zm10,8h5.3a4.4,4.4,0,0,1,.2,1.6h-5.5Zm5.1-8h-5.3v-1.6h5.5A3.08,3.08,0,0,1,37.85,32.05ZM19.45,24h12.4a7.88,7.88,0,0,1,4.4,1.6H19.45V24Zm0,3.1h17.9a5.58,5.58,0,0,1,.7,1.6H19.45v-1.6Zm0,16.1h18.6a11.11,11.11,0,0,1-.7,1.6H19.45v-1.6Zm0,3.3h16.7a6,6,0,0,1-4.4,1.6H19.35v-1.6ZM6,24h11.7v1.6H6Zm0,3.1h11.7v1.6H6Zm3.4,11.3v-1.6h4.9v1.6Zm5,1.7v1.6H9.45v-1.6Zm-5-4.8v-1.6h4.9v1.6Zm0-3.2v-1.6h4.9v1.6ZM6,43.15h11.7v1.6H6Zm0,3.3h11.7v1.6H6Z"/></g></g></svg>