<svg xmlns="http://www.w3.org/2000/svg" viewBox="0 0 72 72"><defs><style>.cls-1{fill:#333;}.cls-2{fill:#fff;}</style></defs><g id="Layer_2" data-name="Layer 2"><g id="Layer_5" data-name="Layer 5"><circle class="cls-1" cx="36" cy="36" r="36"/><path class="cls-2" d="M31.85,41.37a1.23,1.23,0,0,0,1.34,1.34A1.91,1.91,0,0,0,35,41.42a1.61,1.61,0,0,0,.08-.52V39.62C33.44,39.58,31.85,40,31.85,41.37Z"/><path class="cls-2" d="M41.59,41.37a1.24,1.24,0,0,0,1.34,1.34,1.94,1.94,0,0,0,1.85-1.29,1.91,1.91,0,0,0,.07-.52V39.62C43.18,39.58,41.59,40,41.59,41.37Z"/><path class="cls-2" d="M23.64,33a6.3,6.3,0,0,0-1.37.12v4.37a4.62,4.62,0,0,0,1.15.1c1.77,0,2.84-.86,2.84-2.38S25.27,33,23.64,33Z"/><path class="cls-2" d="M59.3,31.17v-2.9c0-7.9-6.8-13.9-14.7-13.9A14.28,14.28,0,0,0,31,23.27,11.31,11.31,0,0,0,24,21a12,12,0,0,0-11.9,11.6,9.94,9.94,0,0,0,3.6,19.1H55.8A10.16,10.16,0,0,0,66,41.57C66,37.07,63.6,32.47,59.3,31.17Zm-42,13H14.93V34.84h2.38ZM16.1,33.5a1.24,1.24,0,0,1-1.31-1.26,1.33,1.33,0,0,1,2.65,0A1.25,1.25,0,0,1,16.1,33.5ZM27.51,38a5.71,5.71,0,0,1-4.09,1.38,6.4,6.4,0,0,1-1.15-.08v4.87H19.93V31.43a20.89,20.89,0,0,1,3.61-.27,5.86,5.86,0,0,1,3.82,1.06,3.66,3.66,0,0,1,1.26,2.85A3.92,3.92,0,0,1,27.51,38Zm7.9,6.17-.15-1H35.2a3.45,3.45,0,0,1-2.76,1.25,2.77,2.77,0,0,1-2.93-2.79c0-2.35,2.09-3.54,5.54-3.52v-.16c0-.61-.25-1.63-1.9-1.63a5,5,0,0,0-2.51.69l-.46-1.53a6.74,6.74,0,0,1,3.37-.83c3,0,3.86,1.9,3.86,3.93v3.38a15.8,15.8,0,0,0,.13,2.24Zm9.75,0-.15-1H45a3.48,3.48,0,0,1-2.76,1.25,2.78,2.78,0,0,1-2.94-2.79c0-2.35,2.09-3.54,5.54-3.52v-.16c0-.61-.24-1.63-1.89-1.63a5,5,0,0,0-2.52.69l-.46-1.53a6.75,6.75,0,0,1,3.38-.83c3,0,3.85,1.9,3.85,3.93v3.38a14.31,14.31,0,0,0,.14,2.24Zm7.5.2a7.7,7.7,0,0,1-3.49-.81l.52-2a6.38,6.38,0,0,0,3.12.83c1.52,0,2.36-.71,2.36-1.77s-.65-1.55-2.3-2.14c-2.13-.77-3.49-1.9-3.49-3.76,0-2.11,1.76-3.72,4.57-3.72a6.76,6.76,0,0,1,3.1.65l-.57,1.9A5.48,5.48,0,0,0,53.91,33c-1.5,0-2.15.81-2.15,1.56,0,1,.75,1.45,2.47,2.13,2.25.84,3.34,2,3.34,3.83C57.57,42.57,56,44.38,52.66,44.38Z"/></g></g></svg>