<svg xmlns="http://www.w3.org/2000/svg" viewBox="0 0 72 72"><defs><style>.cls-1{fill:#333;}.cls-2{fill:#fff;}</style></defs><g id="Layer_2" data-name="Layer 2"><g id="Layer_5" data-name="Layer 5"><circle class="cls-1" cx="36" cy="36" r="36"/><path class="cls-2" d="M41.26,62.05h0Z"/><path class="cls-2" d="M57.55,49.79a4.16,4.16,0,0,0-1.33-2.62,2.08,2.08,0,0,1-.81-1.93c.14-.83.81-1.35,1.9-1.49A147.89,147.89,0,0,0,54.42,28.8a9.67,9.67,0,0,0-2.93-5.19c.25-.12.48-.24.71-.37l.89-.48c2.92-1.64,3.4-2.43,3.5-2.88a.9.9,0,0,0-.15-.79,2.08,2.08,0,0,0-1.67-.5,18.63,18.63,0,0,0-3.61.48c0,.24,0,.5-.07.78a19.33,19.33,0,0,1,3.67-.52c.87,0,1.07.18,1.1.22s0,0,0,.16-.38.84-3.14,2.4C52,22.55,51,23,50,23.54v0h0c-1.22.59-2.6,1.21-4.08,1.86-.88.38-1.76.75-2.62,1.1.42-.47.78-.9,1-1.23a1.47,1.47,0,0,0-.19-2.08.51.51,0,0,0-.13-.09,16.16,16.16,0,0,1,3.85-.4c1,0,1.78.06,1.78.06.32-.45,2.21-6.91-1-6.91-2.81,0-4.64,5.48-5.1,7A1.45,1.45,0,0,0,42,23.4a32,32,0,0,1-4.62,4.81l-.21.08a1.49,1.49,0,0,0-2.42,1.28l-.45.09-1.09.09-.08-.08a1.47,1.47,0,0,0-1.6-.18A11.42,11.42,0,0,1,27.7,28.4a17.61,17.61,0,0,0-4.34-1.35c.51-.22.85-.35.85-.35s-1.74-5.11-4.08-5.11a1.85,1.85,0,0,0-.94.27c-2.8,1.7,1.11,6.85,1.11,6.85a15.93,15.93,0,0,1,1.43-.86,1.47,1.47,0,0,0,1,2.12c-5.26-.17-6.18-.88-6.35-1.11a.21.21,0,0,1,0-.21,4.12,4.12,0,0,1,2-1.51,6.1,6.1,0,0,1-.32-.68,4.66,4.66,0,0,0-2.4,1.93.89.89,0,0,0,.09.89c.17.25.61.89,3.85,1.24l.77.07c-1.36,2.82-.77,5.95-.26,8.54A70.38,70.38,0,0,0,23.85,50c.66,1.61,1.24,3,1.6,3.8,4.18.37,9.55.59,15.4.59a165.69,165.69,0,0,0,17.56-.81c-.28-1.07-.72-2.92-.83-3.62a.53.53,0,0,0,0-.12ZM46.13,20.65a2,2,0,0,1,0-.23,5.08,5.08,0,0,1,.14-.83,4,4,0,0,1,.48-1.11,2.22,2.22,0,0,1,.47-.56,2.07,2.07,0,0,1,.24-.17l.19-.09a1.21,1.21,0,0,1,.31-.09,1.66,1.66,0,0,1,.22,0h.22l.21.05h0l.06,0h.12a.83.83,0,0,1,.23.19l0,.05,0,.06a.27.27,0,0,1,.05.11s0,0,0,0v0a1.27,1.27,0,0,1,.05.42c0,.13,0,.24-.06.36a1.51,1.51,0,0,1-.1.3,3.47,3.47,0,0,1-.25.51,4.3,4.3,0,0,1-.46.69,2.75,2.75,0,0,1-.21.25s0-.12.07-.3l.2-.78c0-.16.07-.34.1-.51a2.35,2.35,0,0,0,0-.52.17.17,0,0,0,0-.07.83.83,0,0,0,0-.12s0,0,0,0h-.06l-.07,0a.38.38,0,0,0-.1,0h-.23a1.13,1.13,0,0,0-.33.13l-.1.07-.11.08a1.8,1.8,0,0,0-.19.2l-.1.1-.17.22c-.16.23-.31.47-.44.67s-.23.41-.31.56l-.08.14c-.1.17-.15.28-.15.28a.14.14,0,0,0,0-.07ZM36,29.09l.06,0a.59.59,0,0,1,.17,0,.66.66,0,0,1,.15,0,.27.27,0,0,1,.13.07l.42.34.52-.15c.12,0,.23-.08.36-.12l0,0h0a3.16,3.16,0,0,0,.6-.43,48.23,48.23,0,0,0,4.34-4.64.41.41,0,0,1,.34-.16.48.48,0,0,1,.28.1.43.43,0,0,1,.05.61c-.59.72-1.17,1.38-1.71,2-.74.83-1.43,1.54-2,2.09,0,.05-.1.11-.15.15a2.52,2.52,0,0,1-.3.27l-.28.24a4.23,4.23,0,0,1-.58.44,1.21,1.21,0,0,1-.26.15A.39.39,0,0,1,38,30a2.68,2.68,0,0,1-.43.14,2,2,0,0,1-.53.07l-.32,0a1.57,1.57,0,0,1-.29-.08.59.59,0,0,0-.14-.06L36.19,30a1,1,0,0,1-.35-.34.15.15,0,0,1,0-.08.24.24,0,0,1,0-.16.43.43,0,0,1,.21-.34Zm6.42,15.68a6,6,0,0,1-2.33.3H40c0,.23,0,.5.07.82,0,.06,0,.12,0,.18a1.63,1.63,0,0,1-.45,1.26,1.56,1.56,0,0,1-1.13.45,1.78,1.78,0,0,1-.59-.09,1.09,1.09,0,0,1-.36-.22,1.26,1.26,0,0,1-.78.64,2.35,2.35,0,0,1-.51.08c-.84,0-1.48-.63-1.77-1.73l-.24.14a2.34,2.34,0,0,1-1.07.25,2.47,2.47,0,0,1-1.85-.77,1.82,1.82,0,0,1-.43-1.45c.22-1.65,2.57-2.48,2.84-2.57l.42-.15,0-.13s0-.06,0-.08v-.11a.09.09,0,0,1,0-.05v0a.31.31,0,0,1,0-.08s0-.06,0-.08,0,0,0,0l0-.06a0,0,0,0,1,0,0s0,0,0-.06v0a.41.41,0,0,1,.05-.09.28.28,0,0,0,0-.08s0,0,0,0,0,0,.05-.06l0,0,.06-.06h0l.17-.15h0s.05,0,.07-.06l0,0s.06,0,.08-.06h0l.1-.07.13-.07h0a1.75,1.75,0,0,1,.28-.13h0l.15-.06.15-.05h0l.16,0,.16,0h.05a.62.62,0,0,0,.16,0l.19,0,.19,0h.75l.14,0h.08s.07,0,.09,0h.06l.1,0h0l.1,0h0a1.57,1.57,0,0,1,.53.28.27.27,0,0,1,.08.07l.09.09,0,0,0,0,0,.06,0,0h.52a8,8,0,0,1,2.93.48c.76.31,1.22.75,1.3,1.26a2.07,2.07,0,0,1-1.31,2.34ZM22.29,26.43c-.12-.14-.27-.35-.44-.59s-.38-.54-.6-.82a4.87,4.87,0,0,0-.33-.43c-.05-.05-.09-.11-.14-.15a.83.83,0,0,0-.14-.13l-.09-.07-.08-.06-.07,0h-.06l-.07,0a.32.32,0,0,0-.06.13,1.57,1.57,0,0,0,0,.44,3.4,3.4,0,0,0,.06.46c0,.29.1.55.14.72s0,.16,0,.21a.08.08,0,0,0,0,0,.07.07,0,0,0,0,0,.17.17,0,0,1-.05-.06,1.31,1.31,0,0,1-.14-.16,3.59,3.59,0,0,1-.3-.44c0-.06-.07-.13-.11-.2l-.07-.15a3.21,3.21,0,0,1-.12-.33,1.66,1.66,0,0,1-.08-.65,1.18,1.18,0,0,1,.07-.3.54.54,0,0,1,.05-.11.82.82,0,0,1,.39-.32h0l.05,0h.32l.13,0a1.19,1.19,0,0,1,.3.14l.08.06a1.27,1.27,0,0,1,.12.1l.15.14a2.39,2.39,0,0,1,.21.26c.12.17.23.35.33.52a4.77,4.77,0,0,1,.25.51l.11.3a1.77,1.77,0,0,1,.06.17l.07.21c.06.21.09.38.13.51a1.37,1.37,0,0,1,0,.16v.05a.17.17,0,0,0,0,.07l-.18-.23Zm.33,2.2a.5.5,0,0,1,.07-.32.45.45,0,0,1,.28-.19h.29l.16,0,.4.07.31.07.29.08a1.39,1.39,0,0,0,.19.06l.25.07.22.07.11,0,.25.08.53.18.28.11.17.07.91.34.26.11.33.12.49.19.27.09a13,13,0,0,0,1.6.48l.1,0,.54.11h0a4.16,4.16,0,0,0,.55,0h.26l.21-.1a.35.35,0,0,1,.2-.05.24.24,0,0,1,.13,0,.32.32,0,0,1,.15.08.14.14,0,0,1,.07.08l.06.1v0s0,.05,0,.08v.05a.31.31,0,0,1,0,.18.41.41,0,0,1,0,.09l0,0s0,0,0,0,0,0,0,0l-.14.08a1.25,1.25,0,0,1-.29.09l-.21,0h-.25a4.46,4.46,0,0,1-.84-.08,6.71,6.71,0,0,1-1-.23c-.37-.1-.78-.23-1.23-.38s-.91-.34-1.42-.53-1.14-.44-1.58-.61l-.16-.05a9.63,9.63,0,0,0-2-.55H23a.44.44,0,0,1-.42-.36Zm-.4,9.08A5.83,5.83,0,1,1,28,43.54,5.82,5.82,0,0,1,22.22,37.71ZM43,40.08a5.83,5.83,0,1,1,5.83-5.83A5.84,5.84,0,0,1,43,40.08ZM22.08,55a2.9,2.9,0,0,0,2.38-1.28l.1-.13c-.37-.87-.9-2.1-1.46-3.49-.4-1-.81-2-1.23-3.11a5.1,5.1,0,0,0-.92,1.1,7.63,7.63,0,0,0-.9,2.45A7.16,7.16,0,0,0,20,53.1a3.23,3.23,0,0,0,.31.89A1.87,1.87,0,0,0,22.08,55ZM16.71,51.8c0,.41.88.79,2.45,1.13a7.41,7.41,0,0,1,.06-2.28C17.62,51,16.71,51.38,16.71,51.8Zm46.2-1a1.63,1.63,0,0,1-.09.19A3.38,3.38,0,0,1,62,52.13a4.66,4.66,0,0,1-1.88,1.21c3.06-.43,4.88-1,4.88-1.54,0-.37-.74-.73-2.09-1Z"/><path class="cls-2" d="M62.08,50.57a4.75,4.75,0,0,0-3.51-6.08h0s-.27,0-.62,0c-.74,0-1.64.16-1.77.9-.08.52.14.79.63,1.3a4.88,4.88,0,0,1,1.52,3c0,.12,0,.23.05.35.27,1.67.71,2.51,1.32,2.51.3,0,.86-.18,1.79-1a2.66,2.66,0,0,0,.63-.92ZM23,22.69a24.47,24.47,0,0,1,0-2.88c.16-.75,4.84-6.1,7.92-6.73A5.81,5.81,0,0,1,31.8,13c3.47,0,10.12,2.48,10.93,2.91a3.55,3.55,0,0,1,.18.57,3.59,3.59,0,0,0-.85,1.7,3.63,3.63,0,0,0,0,1.9c-3.51,1.53-12.25,4.83-18.8,3.06.13.21.27.43.4.67A17.14,17.14,0,0,1,24.77,26c2.71.43,8.7.53,18.09-3.7.18-.56.45-1.36.82-2.22a.56.56,0,0,1-.48.21c-.38-.08-.64-.95-.41-2s.77-1.63,1.14-1.63H44c.37.08.61.89.42,1.87,1.23-2.28,2.62-3.42,4.13-3.42a2.51,2.51,0,0,1,1.33.34c.64-.77,1-1.3,1-1.3-.47.08-1.48.22-1.48.22a5.23,5.23,0,0,0,3.48-5.17c0,.65-2,2.21-2,2.21a3,3,0,0,0-.22-1.31c.08.74-2.26,2.66-2.26,2.66a2,2,0,0,0,.05-1c-.13.7-1.17,1-1.17,1,.64-.79,1.86-4.92,1-5.17s-2.18,2.7-2.18,2.7c-.05-.7-.44-.7-.44-.7a5.63,5.63,0,0,1-1.56,3.91c-.13-.44-.83-.65-.83-.65a8.3,8.3,0,0,1,0,2.5l0,0c-.37-.37-7.81-3.13-11.47-3.13a5.34,5.34,0,0,0-1.05.09c-1.93.4-4.24,2.39-5.43,3.55-1.44,1.36-3,3.16-3.08,3.8a18.19,18.19,0,0,0,0,2.12A5.16,5.16,0,0,1,23,22.69Zm4.84,36.16c-.83.18-3.26,1.51-5.37,1.92s-3.94.61-4.58.86-1.13.7.12,1.18,7.34.64,7.89,0-.37-.92-1.71-.91c-1,0-.83-.31-.83-.35s.06-.42,1.52-.62,7.89-.81,7.77-1.49-4-.78-4.81-.59Z"/><ellipse class="cls-2" cx="23.65" cy="63.92" rx="1.26" ry="0.37" transform="translate(-13.06 6.5) rotate(-12.28)"/><ellipse class="cls-2" cx="20.73" cy="63.76" rx="1.33" ry="0.36" transform="translate(-4.98 1.84) rotate(-4.54)"/><ellipse class="cls-2" cx="18.39" cy="63.47" rx="0.89" ry="0.28" transform="translate(-8.41 3.07) rotate(-7.77)"/><ellipse class="cls-2" cx="16.66" cy="63.2" rx="0.86" ry="0.22" transform="translate(-8.92 3.05) rotate(-8.27)"/><ellipse class="cls-2" cx="16.28" cy="62.71" rx="0.86" ry="0.22" transform="translate(-8.85 2.99) rotate(-8.27)"/><ellipse class="cls-2" cx="16.18" cy="62.16" rx="0.74" ry="0.2" transform="matrix(0.99, -0.14, 0.14, 0.99, -8.77, 2.97)"/><path class="cls-2" d="M40.48,59.52c-1.45.07-4.72-.1-5.17.66s1.33,1,4.12.81,6.76-.55,6.92-1.4-.73-.69-.83-1.23,1-.55,1.2-1.36-1.47-.7-3-.7-4,.14-4.21.92,1.13.79,2.11,1,.68.54.68.54C42.31,59.23,41.92,59.45,40.48,59.52Z"/><ellipse class="cls-2" cx="36.62" cy="61.59" rx="1.25" ry="0.41"/><ellipse class="cls-2" cx="39.84" cy="61.51" rx="0.83" ry="0.37"/><ellipse class="cls-2" cx="42.45" cy="61.24" rx="0.92" ry="0.3"/><ellipse class="cls-2" cx="44.45" cy="60.9" rx="0.67" ry="0.32"/><ellipse class="cls-2" cx="46.19" cy="60.54" rx="0.67" ry="0.31"/><path class="cls-2" d="M28.06,32.89a4.85,4.85,0,0,0-3.25,1.25,1.29,1.29,0,0,0-.16.17,4.79,4.79,0,0,0-1.41,3.4,4.87,4.87,0,0,0,.22,1.44,4.08,4.08,0,0,0,.37.86,4.49,4.49,0,0,0,.37.59,4.82,4.82,0,1,0,3.86-7.71Zm-.44,8a1.55,1.55,0,0,1-1.08-.44.8.8,0,0,1-.15-.17.46.46,0,0,1-.08-.13,1,1,0,0,1-.13-.29.64.64,0,0,1,0-.07,1.31,1.31,0,0,1-.06-.41,1.52,1.52,0,0,1,1.52-1.52A1.5,1.5,0,0,1,29.06,39a1.35,1.35,0,0,1,.07.46A1.51,1.51,0,0,1,27.62,40.93Zm17-11.22a4,4,0,0,0-.93-.23,4.49,4.49,0,0,0-.73-.06,4.89,4.89,0,0,0-3.87,1.94,4.6,4.6,0,0,0-.37.6l-.21.41c-.06.14-.11.29-.16.44a4.87,4.87,0,0,0-.22,1.44,4.79,4.79,0,0,0,.29,1.66c0,.07.06.15.08.22A5.85,5.85,0,0,0,39,37a1.41,1.41,0,0,0,.14.18c.09.13.2.25.29.36a3.24,3.24,0,0,0,.5.48,4.83,4.83,0,1,0,4.75-8.26Zm-1.72,7.54a1.45,1.45,0,0,1-.59.12,1.63,1.63,0,0,1-.45-.07,1.54,1.54,0,0,1-.49-.26l-.14-.11-.09-.11-.14-.2a.76.76,0,0,1-.09-.18,2.25,2.25,0,0,1-.08-.24,2,2,0,0,1,0-.35,1.16,1.16,0,0,1,0-.3,1.51,1.51,0,0,1,1-1.15,1.33,1.33,0,0,1,.45-.07,1.63,1.63,0,0,1,.59.12,1.05,1.05,0,0,1,.26.13.52.52,0,0,1,.11.1,1.51,1.51,0,0,1-.37,2.57ZM37,46.61a2.85,2.85,0,0,1-.1-.32,8.75,8.75,0,0,1-.23-1,2.5,2.5,0,0,0-.38.15,12.3,12.3,0,0,0-1.16.66h0c.1.43.39,1.37,1.14,1.37a.82.82,0,0,0,.3,0c.35-.11.46-.44.46-.81Zm1-1.57-.49,0-.2,0c0,.27.12.64.22,1s.32.84.56.94a1.34,1.34,0,0,0,.33,0c.39,0,.9-.17.88-1V46c0-.39,0-.67-.08-.88h-.38l-.84,0Z"/><path class="cls-2" d="M39.5,41.41s-.14,1.62-2.42,2a6.87,6.87,0,0,1-1.12.09,2.28,2.28,0,0,1-2-.75s-2.19.74-2.37,2c-.13.94.78,1.42,1.58,1.42a1.6,1.6,0,0,0,.73-.16,9.59,9.59,0,0,1,3.58-1.61,4.8,4.8,0,0,1,.58,0c.54,0,1.28,0,2,0a5.7,5.7,0,0,0,2-.24A1.35,1.35,0,0,0,43,42.56C43,42.14,42,41.43,39.5,41.41Z"/></g></g></svg>