<svg xmlns="http://www.w3.org/2000/svg" viewBox="0 0 72 72"><defs><style>.cls-1{fill:#333;}.cls-2{fill:#fff;}</style></defs><g id="Layer_2" data-name="Layer 2"><g id="Layer_5" data-name="Layer 5"><circle class="cls-1" cx="36" cy="36" r="36"/><path class="cls-2" d="M50.87,39.3l-.1-.1a7.11,7.11,0,0,0-5.5-.7,7.71,7.71,0,0,0-3.5,2.2l-3.4-2a9.74,9.74,0,0,0,.6-3.4,6.68,6.68,0,0,0-.6-3l3.4-2a7.06,7.06,0,0,0,8.5,1.7l.5-.3a7.63,7.63,0,0,0,3.4-4.5,7.41,7.41,0,0,0-.7-5.6,7.23,7.23,0,0,0-4.4-3.5,7.11,7.11,0,0,0-5.5.7h-.1a7.63,7.63,0,0,0-3.4,4.5,6.72,6.72,0,0,0,.1,4.2l-3.4,2c-.2-.2-.4-.5-.6-.7a9.09,9.09,0,0,0-5.1-2.7v-4a7.16,7.16,0,0,0,3.6-2,7.49,7.49,0,0,0,0-10.4,7.26,7.26,0,0,0-5.2-2.2,7.5,7.5,0,0,0-5.2,2.2,7.49,7.49,0,0,0,0,10.4,6.77,6.77,0,0,0,3.6,2v4a9.75,9.75,0,0,0-5.1,2.7,9.89,9.89,0,0,0-2.7,6.7,9.45,9.45,0,0,0,2.7,6.7,9.09,9.09,0,0,0,5.1,2.7v4a7.16,7.16,0,0,0-3.6,2,7.49,7.49,0,0,0,0,10.4,7.26,7.26,0,0,0,5.2,2.2,7.5,7.5,0,0,0,5.2-2.2,7.49,7.49,0,0,0,0-10.4,6.77,6.77,0,0,0-3.6-2v-4a9.75,9.75,0,0,0,5.1-2.7c.2-.2.4-.5.6-.7l3.4,2a7.51,7.51,0,0,0-.1,4.2,7.26,7.26,0,0,0,3.4,4.5,7.11,7.11,0,0,0,5.5.7,7.43,7.43,0,0,0,4.4-3.4l.1-.1a7.35,7.35,0,0,0,.7-5.6A7.2,7.2,0,0,0,50.87,39.3Zm-7-15.1a3.36,3.36,0,0,1,1.6-2.1,3.94,3.94,0,0,1,2.6-.3,3.89,3.89,0,0,1,2,1.6,3.87,3.87,0,0,1,.3,2.6,3.22,3.22,0,0,1-1.5,2.1,3.94,3.94,0,0,1-2.6.3,3.45,3.45,0,0,1-2-1.6A3.52,3.52,0,0,1,43.87,24.2Zm-16.6-7a3.31,3.31,0,0,1-1-2.4,3.39,3.39,0,0,1,5.8-2.4,3.31,3.31,0,0,1,1,2.4,3.41,3.41,0,0,1-3.4,3.4A3.31,3.31,0,0,1,27.27,17.2Zm4.8,36.3a3.31,3.31,0,0,1,1,2.4,3.41,3.41,0,0,1-3.4,3.4,3.31,3.31,0,0,1-2.4-1,3.38,3.38,0,0,1,0-4.8,3.31,3.31,0,0,1,2.4-1A3.49,3.49,0,0,1,32.07,53.5Zm1.1-14.7a4.83,4.83,0,0,1-7,0,5.07,5.07,0,0,1,0-7,4.91,4.91,0,0,1,3.5-1.5,5.29,5.29,0,0,1,3.5,1.5,4.83,4.83,0,0,1,1.4,3.5A5,5,0,0,1,33.17,38.8Zm17.1,8.5-.1.1a3.64,3.64,0,0,1-2.1,1.6,3.06,3.06,0,0,1-4-2.4,3,3,0,0,1,.3-2.6A3.43,3.43,0,0,1,49,42.7a3.36,3.36,0,0,1,1.6,2.1A3.66,3.66,0,0,1,50.27,47.3Z"/></g></g></svg>