<svg xmlns="http://www.w3.org/2000/svg" viewBox="0 0 72 72"><defs><style>.cls-1{fill:#333;}.cls-2{fill:#fff;fill-rule:evenodd;}</style></defs><g id="Layer_2" data-name="Layer 2"><g id="Layer_5" data-name="Layer 5"><circle class="cls-1" cx="36" cy="36" r="36"/><path class="cls-2" d="M27.79,46.24h9.63l5,6.29-.86,2.14H29.12l.3-2.14L26.49,47.9Zm6.89-27.62h5.16L63,46.26l-1.8,8.41H51.3l.62-2.37L30.24,26.45ZM43.8,7.37l10.79,8.47-1.38,1.43,1.87,2.6v2.79L49.7,27l-9-10.68H35.39l2.12-3.89,6.29-5.1ZM21.17,34.51,28.69,28l10,12-2.83,4.4H26.63l-6.36,8.36-1.46,1.92H10.56V44.42l7.69-9.91Z"/></g></g></svg>