<svg xmlns="http://www.w3.org/2000/svg" viewBox="0 0 72 72"><defs><style>.cls-1{fill:#333;}.cls-2{fill:#fff;}</style></defs><g id="Layer_2" data-name="Layer 2"><g id="Layer_5" data-name="Layer 5"><circle class="cls-1" cx="36" cy="36" r="36"/><path class="cls-2" d="M31.15,36.05a.91.91,0,0,0-.1-1.2l-3.9-3.5a10.47,10.47,0,0,0-1.5,6.5l5-1.5C30.85,36.35,31,36.25,31.15,36.05Z"/><path class="cls-2" d="M31.55,39.35h-.2l-5.1.9a10.67,10.67,0,0,0,4.1,5.2l2-4.8a.64.64,0,0,0,0-.6A.85.85,0,0,0,31.55,39.35Z"/><path class="cls-2" d="M33.45,32.65a.88.88,0,0,0,.9-.8l.3-5.2a4.25,4.25,0,0,0-1.1.2,9.88,9.88,0,0,0-4.9,2.7l4.3,2.9A.76.76,0,0,0,33.45,32.65Z"/><path class="cls-2" d="M37.65,32.25a.93.93,0,0,0,1.2.2l4.3-3a10.31,10.31,0,0,0-6-2.9l.3,5.2A.76.76,0,0,0,37.65,32.25Z"/><polygon class="cls-2" points="34.45 37.95 35.95 38.55 37.35 37.95 37.75 36.35 36.75 35.15 35.15 35.15 34.15 36.35 34.45 37.95"/><path class="cls-2" d="M59.75,41l-4.1-17.9A3,3,0,0,0,54,21l-16.6-7.9a4,4,0,0,0-1.5-.3,2.66,2.66,0,0,0-1.2.3l-16.6,8a3,3,0,0,0-1.7,2.1l-4.1,17.9a3.36,3.36,0,0,0,.4,2.4c.1.1.1.2.2.3l11.5,14.3a3,3,0,0,0,2.5,1.2h18.5a3,3,0,0,0,2.5-1.2l11.5-14.3A4.5,4.5,0,0,0,59.75,41Zm-7.6.5a.37.37,0,0,1-.3-.1l-.9-.3c-.7-.2-1.2-.4-1.7-.5a1.07,1.07,0,0,0-.6.2c-.1,0-.3-.1-.4-.1a13.18,13.18,0,0,1-5.7,7.2c0,.1.1.4.2.4a.61.61,0,0,0-.1.6,8.94,8.94,0,0,0,.9,1.6,3.51,3.51,0,0,1,.5.8c0,.1.1.2.1.3a1,1,0,0,1-.4,1.4,1.1,1.1,0,0,1-1.4-.6c0-.1-.1-.2-.1-.3l-.3-.9a6.69,6.69,0,0,0-.7-1.7c-.2-.2-.3-.3-.5-.3a.76.76,0,0,0-.2-.4,10.93,10.93,0,0,1-1.7.5,13.55,13.55,0,0,1-7.5-.5l-.2.4a.52.52,0,0,0-.4.2,6.06,6.06,0,0,0-.8,1.8,3.18,3.18,0,0,1-.3.9c0,.1-.1.2-.1.3a1.2,1.2,0,0,1-1.4.6,1,1,0,0,1-.4-1.4c0-.1.1-.2.1-.3a3.51,3.51,0,0,0,.5-.8,8.94,8.94,0,0,0,.9-1.6,1.27,1.27,0,0,0-.1-.6l.2-.4a12.84,12.84,0,0,1-5.7-7.2l-.4.1a1.07,1.07,0,0,0-.6-.2,15.43,15.43,0,0,0-1.7.5,3.18,3.18,0,0,1-.9.3.37.37,0,0,0-.3.1,1,1,0,1,1-.5-1.9.37.37,0,0,0,.3-.1c.3-.1.6,0,1-.1a8.42,8.42,0,0,0,1.8-.3c.2-.1.3-.3.4-.4l.4-.1a12.87,12.87,0,0,1,2-9l-.3-.3a.85.85,0,0,0-.2-.6,5.6,5.6,0,0,0-1.5-1c-.3-.2-.5-.3-.8-.5-.1,0-.1-.1-.2-.2a1,1,0,0,1-.2-1.5,1.23,1.23,0,0,1,.8-.4,1.08,1.08,0,0,1,.7.3c.1.1.2.1.2.2.3.2.4.5.7.7a13.1,13.1,0,0,0,1.3,1.2,1.27,1.27,0,0,0,.6.1c.1,0,.2.2.4.3a12.81,12.81,0,0,1,6.5-3.7l1.8-.3v-.4a.85.85,0,0,0,.3-.5,12.13,12.13,0,0,0-.1-1.8c0-.3-.1-.6-.1-.9V20a1,1,0,1,1,2,0v.3c0,.4-.1.6-.1.9a5.74,5.74,0,0,0-.1,1.8.62.62,0,0,0,.3.5v.4a13.08,13.08,0,0,1,8.3,4l.4-.3a1.49,1.49,0,0,0,.6-.1,7.1,7.1,0,0,0,1.3-1.2,4.62,4.62,0,0,1,.7-.7c.1-.1.2-.1.2-.2a1.09,1.09,0,0,1,1.5.1A1.23,1.23,0,0,1,50,27c-.1.1-.2.1-.2.2-.3.2-.5.3-.8.5-.6.4-1.1.7-1.5,1a.73.73,0,0,0-.2.6c-.1.1-.3.2-.4.3a12.84,12.84,0,0,1,1.9,4.3,12.42,12.42,0,0,1,.2,4.7l.4.1c.1.1.2.4.4.4a8.42,8.42,0,0,0,1.8.3,3.75,3.75,0,0,1,1,.1.37.37,0,0,1,.3.1,1.21,1.21,0,0,1,.6,1.2A1,1,0,0,1,52.15,41.45Z"/><path class="cls-2" d="M36.25,41.55a.6.6,0,0,0-.4-.1.75.75,0,0,0-.7.5l-2.5,4.6a10.63,10.63,0,0,0,5.6.3l1-.3L36.65,42A.78.78,0,0,0,36.25,41.55Z"/><path class="cls-2" d="M44.65,31.35l-3.9,3.5a2.19,2.19,0,0,0-.3.5.83.83,0,0,0,.6,1l5,1.5a12.22,12.22,0,0,0-.2-3.3A6.89,6.89,0,0,0,44.65,31.35Z"/><path class="cls-2" d="M40.25,39.35a.37.37,0,0,0-.3.1.84.84,0,0,0-.4,1.1l2,4.9a10.75,10.75,0,0,0,4.2-5.2l-5.3-.9Z"/></g></g></svg>