<svg xmlns="http://www.w3.org/2000/svg" viewBox="0 0 72 72"><defs><style>.cls-1{fill:#333;}.cls-2{fill:#fff;}</style></defs><g id="Layer_2" data-name="Layer 2"><g id="Layer_5" data-name="Layer 5"><circle class="cls-1" cx="36" cy="36" r="36"/><path class="cls-2" d="M58.55,16.65h-1.2c-2.3,0-2.7.9-3.4,3.6l-1.9,7c-1,3.4-2.4,5-6.5,5h-5.7v7.5h5.7c4.1,0,5.6,1.6,6.5,5l1.9,7c.7,2.7,1.1,3.6,3.4,3.6h1.2v2.2h-8.2c-4,0-4.8-1.6-5.7-5.3l-2.2-8c-.7-2.4-1.2-3.6-2.7-4.5h-7.5c-1.4.9-2,2.2-2.7,4.5l-2.2,8c-1,3.6-1.8,5.3-5.7,5.3h-8.2v-2.2h1.2c2.4,0,2.7-.9,3.4-3.6l1.9-7c1-3.4,2.5-5,6.6-5h5.7v-7.5h-5.7c-4.1,0-5.6-1.6-6.6-5l-1.9-7c-.7-2.7-1-3.6-3.4-3.6h-1.2v-2.2h8.2c3.9,0,4.8,1.7,5.7,5.3l2.2,8c.7,2.3,1.3,3.6,2.7,4.5h7.5c1.4-.9,2-2.1,2.7-4.5l2.2-8c.9-3.7,1.7-5.3,5.7-5.3h8.2Z"/></g></g></svg>