<svg xmlns="http://www.w3.org/2000/svg" viewBox="0 0 72 72"><defs><style>.cls-1{fill:#333;}.cls-2{fill:#fff;}</style></defs><g id="Layer_2" data-name="Layer 2"><g id="Layer_5" data-name="Layer 5"><circle class="cls-1" cx="36" cy="36" r="36"/><path class="cls-2" d="M41.09,13.24c-2.46-2.92-4.58-5.88-5-6.5a.12.12,0,0,0-.16,0c-.43.62-2.55,3.58-5,6.5-21.1,26.91,3.33,45.08,3.33,45.08l.2.13c.18,2.81.64,6.84.64,6.84H36.9s.45-4,.64-6.84l.2-.16S62.19,40.15,41.09,13.24ZM36,57.91a10.4,10.4,0,0,1-1.39-1.42v0l1.32-29.31a.07.07,0,0,1,.14,0l1.32,29.31v0A10.4,10.4,0,0,1,36,57.91Z"/></g></g></svg>