<svg xmlns="http://www.w3.org/2000/svg" viewBox="0 0 72 72"><defs><style>.cls-1{fill:#333;}.cls-2{fill:#fff;}</style></defs><g id="Layer_2" data-name="Layer 2"><g id="Layer_5" data-name="Layer 5"><circle class="cls-1" cx="36" cy="36" r="36"/><path class="cls-2" d="M47.93,16.51l-11.75,18L24.56,16.39A23,23,0,0,0,26.5,57.07l1.93-7.39A14.53,14.53,0,0,1,23,28.74L33,43.75h6.06l10-15A14.61,14.61,0,0,1,44.66,49.2l1.93,7.5a23.78,23.78,0,0,0,12.6-20.46A22.88,22.88,0,0,0,47.93,16.51Z"/><path class="cls-2" d="M35.94,5.49A30.51,30.51,0,1,0,66.69,36,30.64,30.64,0,0,0,35.94,5.49Zm0,58.72a28,28,0,1,1,6.3-55.33A27.28,27.28,0,0,1,63.3,29.82,28.12,28.12,0,0,1,35.94,64.21Z"/></g></g></svg>