<svg xmlns="http://www.w3.org/2000/svg" viewBox="0 0 72 72"><defs><style>.cls-1{fill:#333;}.cls-2{fill:#fff;}</style></defs><g id="Layer_2" data-name="Layer 2"><g id="Layer_5" data-name="Layer 5"><circle class="cls-1" cx="36" cy="36" r="36"/><path class="cls-2" d="M39,60h0L39,60Zm14.2-1a5,5,0,0,1-2.32.67l-8.61-.41a66.14,66.14,0,0,0-7.45.21,55.49,55.49,0,0,1-10.31.06c-1.9-.16-3.83-.06-5.74-.09a3.33,3.33,0,0,1-3.08-1.25v-.76a5.47,5.47,0,0,1,5.72-2.58,68.52,68.52,0,0,0,15.68-.09,20.73,20.73,0,0,1,5.16,0l8,.66a18.42,18.42,0,0,1,2.46.34,1.75,1.75,0,0,1,1.45,1.37A1.7,1.7,0,0,1,53.21,59Zm1-16.06a11,11,0,0,1-.12,3.8,3.27,3.27,0,0,1-3.47,3.05l-.13,0a33.79,33.79,0,0,1-6.24-.91,6.44,6.44,0,0,1-3.58-2.78,40.92,40.92,0,0,1-2.32-3.74A30.1,30.1,0,0,0,34,36.08a31.21,31.21,0,0,1-2.76-3.9,7.52,7.52,0,0,0-.61-1,1.31,1.31,0,0,0-2.29.43,4.36,4.36,0,0,0-.24,1.52L27.87,42a4.19,4.19,0,0,1-.33,1.48,4.11,4.11,0,0,0-.09,3.68,1.47,1.47,0,0,1-.64,2,1.23,1.23,0,0,1-.42.14,8.73,8.73,0,0,1-6.73-.19,3,3,0,0,1-1.89-2.85l-.22-6.34a4.14,4.14,0,0,1,1.34-3.5A5.54,5.54,0,0,0,20,35a2.54,2.54,0,0,0-.1-3.05,12,12,0,0,1-2.33-8.86l.14-6.32,0-1.54a1.91,1.91,0,0,1,1.54-2.21,2,2,0,0,1,.9.06,13.23,13.23,0,0,0,4.69-.88,2.83,2.83,0,0,1,3.75,1.39,2.37,2.37,0,0,1,.13.34c.24.53.43,1.07.65,1.61a3.22,3.22,0,0,0,1.93,2,4.59,4.59,0,0,1,2.29,2l6,8.67a14.27,14.27,0,0,0,2.12,2.47c.86.78,1.57.54,1.71-.64a27.77,27.77,0,0,0,.25-5.54,63.43,63.43,0,0,1,.1-8.61,2.88,2.88,0,0,1,3.62-3.3l2.12.12a4.09,4.09,0,0,1,4.27,3.4,10.77,10.77,0,0,1,.38,2.46l0,4.8-.08,0,.29,6.51a34.71,34.71,0,0,1-.13,4.21A30.89,30.89,0,0,0,54.26,42.92Z"/><path class="cls-2" d="M39,60h0L39,60Z"/></g></g></svg>