<svg xmlns="http://www.w3.org/2000/svg" viewBox="0 0 72 72"><defs><style>.cls-1{fill:#333;}.cls-2{fill:#fff;}</style></defs><g id="Layer_2" data-name="Layer 2"><g id="Layer_5" data-name="Layer 5"><circle class="cls-1" cx="36" cy="36" r="36"/><path class="cls-2" d="M27.12,28.55c.1.1.1,0,0,0Z"/><path class="cls-2" d="M15.12,16.55v34.9h18.2a.37.37,0,0,1,.3.1l3.3,3a17.88,17.88,0,0,0,1.4,1.3c1.8,1.7,3.7,3.4,5.5,5.1l.2.2v-9.7h14.1V16.55Zm35.6,26.7h-7.5c-.2,0-.3,0-.4-.1l-8.1-7.5c-2.5-2.4-5-4.7-7.6-7.1v14.8H22V24.65h7.9a.37.37,0,0,1,.3.1c3.6,3.3,7.3,6.7,10.9,10.1l4.3,4c.1,0,.1,0,.2.1V24.55h5.1Z"/></g></g></svg>