<svg xmlns="http://www.w3.org/2000/svg" viewBox="0 0 72 72"><defs><style>.cls-1{fill:#333;}.cls-2{fill:#fff;}</style></defs><g id="Layer_2" data-name="Layer 2"><g id="Layer_5" data-name="Layer 5"><circle class="cls-1" cx="36" cy="36" r="36"/><path class="cls-2" d="M34.07,34.87a1.59,1.59,0,0,0-2.2,0L22.77,44a1.57,1.57,0,0,0,0,2.2l5.2,5.2a1.57,1.57,0,0,0,2.2,0L36,45.58a8.1,8.1,0,0,1,.7-8.11Z"/><path class="cls-2" d="M22.77,49.67a1.47,1.47,0,0,0-2.1,0L17.37,53l-.9-.9a1.27,1.27,0,1,0-1.8,1.79l5.5,5.5A1.27,1.27,0,0,0,22,57.58l-.9-.91c0,.11,3.3-3.3,3.3-3.3a1.44,1.44,0,0,0,0-2.09Z"/><path class="cls-2" d="M61.37,25.17,49,12.78a1.52,1.52,0,0,0-2.3,0L43.47,16a1.71,1.71,0,0,0,0,2.31l12.4,12.39a1.67,1.67,0,0,0,2.3,0l3.2-3.19A1.71,1.71,0,0,0,61.37,25.17Z"/><path class="cls-2" d="M43.57,22a1.61,1.61,0,0,0-2.3-.11L34.17,29a1.71,1.71,0,0,0,0,2.31l4.4,4.39a8,8,0,0,1,10.2.81l3.5-3.5a1.71,1.71,0,0,0,0-2.31Z"/><path class="cls-2" d="M39.37,38.28a5.16,5.16,0,1,0,7.3,0A5.19,5.19,0,0,0,39.37,38.28Zm5.6,5.5a2.55,2.55,0,1,1,0-3.61A2.53,2.53,0,0,1,45,43.78Z"/></g></g></svg>