<svg xmlns="http://www.w3.org/2000/svg" viewBox="0 0 72 72"><defs><style>.cls-1{fill:#333;}.cls-2{fill:#fff;}</style></defs><g id="Layer_2" data-name="Layer 2"><g id="Layer_5" data-name="Layer 5"><circle class="cls-1" cx="36" cy="36" r="36"/><path class="cls-2" d="M57.93,46.1a23.81,23.81,0,0,1-41,3.86l-4,1.44a23.87,23.87,0,0,1-3.7-8.1l8-2.9a16.16,16.16,0,0,0,4.06,8l4-1.45a14.7,14.7,0,0,0,4.5,3.2,15.49,15.49,0,0,0,20.7-7.5,15.28,15.28,0,0,0,1.4-5.36l-4.1,1.46a14.83,14.83,0,0,0-1.9-8.8l8-2.9a20.15,20.15,0,0,1,2.3,8.6l4-1.5A24.2,24.2,0,0,1,57.93,46.1Zm-4.5-19A15.86,15.86,0,0,0,51,23.84L47.43,25.1a14.7,14.7,0,0,0-4.5-3.2A15.52,15.52,0,0,0,21,34.71l3.37-1.21a13.94,13.94,0,0,0,.3,4.1l-8,2.9A18.8,18.8,0,0,1,16,36.68L12.53,37.9a24.2,24.2,0,0,1,2.2-12,23.87,23.87,0,0,1,31.8-11.6,23.53,23.53,0,0,1,9.27,7.76l3.53-1.26a39.72,39.72,0,0,1,2,3.5Z"/></g></g></svg>