<svg xmlns="http://www.w3.org/2000/svg" viewBox="0 0 72 72"><defs><style>.cls-1{fill:#333;}.cls-2{fill:#fff;}</style></defs><g id="Layer_2" data-name="Layer 2"><g id="Layer_5" data-name="Layer 5"><circle class="cls-1" cx="36" cy="36" r="36"/><path class="cls-2" d="M33.88,31.62a1.19,1.19,0,0,0-1.66.29l-5,7.82H29.1l4.1-6.51,2.24,3.6H31.22l.93,1.46h4.28l.88,1.45h1.87l-5-7.83A1.28,1.28,0,0,0,33.88,31.62Z"/><path class="cls-2" d="M12.48,31.49H7.69a4.12,4.12,0,1,0-.21,8.24h5a4.12,4.12,0,0,0,0-8.24Zm.07,6.79H7.79a2.67,2.67,0,0,1,0-5.34h4.58a2.67,2.67,0,0,1,.18,5.34Z"/><path class="cls-2" d="M27.17,34.27a2.79,2.79,0,0,0-2.79-2.79H17.44v8.25H19V32.94h5.26a1.34,1.34,0,1,1,0,2.67H19.81l4.73,4.12h2.3l-3.18-2.67h.72A2.79,2.79,0,0,0,27.17,34.27Z"/><path class="cls-2" d="M39.84,35.7a2.67,2.67,0,0,1,2.59-2.76h4.82l.94-1.45h-5.7a4.12,4.12,0,1,0-.21,8.24h5.1l.93-1.45H42.6A2.67,2.67,0,0,1,39.84,35.7Z"/><path class="cls-2" d="M61.88,38.28h0a2.68,2.68,0,0,1-2.57-1.94h6.78L67,34.88H59.31a2.68,2.68,0,0,1,2.57-1.94h4.66l.93-1.46H61.78a4.13,4.13,0,0,0,0,8.25h4.89l.93-1.45Z"/><path class="cls-2" d="M50.63,38.28v-6.8H49v7.46a.76.76,0,0,0,.24.56.82.82,0,0,0,.57.24h7.22L58,38.28H50.63Z"/></g></g></svg>