<svg xmlns="http://www.w3.org/2000/svg" viewBox="0 0 72 72"><defs><style>.cls-1{fill:#333;}.cls-2{fill:#fff;}</style></defs><g id="Layer_2" data-name="Layer 2"><g id="Layer_5" data-name="Layer 5"><circle class="cls-1" cx="36" cy="36" r="36"/><path class="cls-2" d="M48,10.61l-22.6.1a.52.52,0,0,0-.4.2L11,28.61a.75.75,0,0,0-.1.5l5.1,22c0,.2.2.3.3.4l20.4,9.8a.45.45,0,0,0,.5,0l20.3-9.9c.2-.1.3-.2.3-.4l5-22.1a.9.9,0,0,0-.1-.5l-14.2-17.6A.76.76,0,0,0,48,10.61Zm-.2,1.1,13.8,17.2-4.8,21.5L37,60l-19.9-9.5-5-21.5,13.7-17.3Zm-12.2,4.5a15.19,15.19,0,0,0-5.2.7h0c-3.4,1.2-5.9,4.6-6.6,8.5h0c-.7,3.2-.8,5.8-1.2,8.3-.2,1-.3,2-.6,3a7.72,7.72,0,0,0-2.7,4.6h0a21,21,0,0,0-.5,3.2h-1.4v1.1h19.1c-.1,1-.3,2.2-.4,3.1h-8.9v1.1h17.2a3.85,3.85,0,0,1-1.6-1.1h-1.5l-1.8,1.1-.5-.9.4-.2h-2.3c.2-1.7.4-3.5.8-5.5h0a7,7,0,0,1,4.1-5.3h0a9.87,9.87,0,0,1,3.3-.4,16.08,16.08,0,0,1,3.5.4,7,7,0,0,1,4.1,5.3h0c.4,2.1.6,3.9.8,5.5h-1.6l.4.2-.5.9-1.8-1.1h-1.6a4.19,4.19,0,0,1-1.6,1.1h9.5v-1.1h-2c-.2-1.6-.4-3.6-.8-5.7h0a7,7,0,0,0-.6-1.9h4V40h-4.6a10.61,10.61,0,0,0-1.7-2h3.9v-1.1h-5a10.46,10.46,0,0,1-.4-1.7h3.2v-1.1h-3.4c0-.2-.1-.3-.1-.5-.4-2.4-.5-5.1-1.2-8.3h0c-.8-4-3.3-7.3-6.7-8.5h0a22,22,0,0,0-5.5-.6Zm0,.8a15.19,15.19,0,0,1,5.2.7h0c3,1.1,5.4,4.2,6.1,7.9h0c.7,3.1.8,5.8,1.2,8.2.2,1.1.4,2.2.7,3.3a13.22,13.22,0,0,0-3.6-.4h-.8l-4-4c.1-.2.2-.3.2-.5l4.6,2.7.3-.5-4.7-2.7a4.33,4.33,0,0,0,.1-.5l5,1.3L46,32l-5.1-1.4a4.68,4.68,0,0,0-4.8-4.5,4.75,4.75,0,0,0-4.8,4.5l-5,1.3.1.5,4.9-1.3c0,.2.1.3.1.5l-4.6,2.7.3.5,4.5-2.6.3.6-2.7,2.7a16.41,16.41,0,0,0-2.3-.2,8.42,8.42,0,0,0-3.4.5l-.6.3a17,17,0,0,0,.4-2.2c.4-2.5.5-5.1,1.2-8.2h0c.7-3.7,3.1-6.8,6.1-7.9h0a13.37,13.37,0,0,1,5-.8Zm-6.5,4.3a2.61,2.61,0,0,0-2.1,1.1l-.3.3.7.5.3-.3a2.24,2.24,0,0,1,1.5-.8,1.82,1.82,0,0,1,1.4.6l.3.3.6-.6-.3-.3a2.35,2.35,0,0,0-2.1-.8Zm13.9,0a3.23,3.23,0,0,0-2.1.8l-.3.3.6.6.3-.3a2,2,0,0,1,1.5-.6,1.9,1.9,0,0,1,1.5.8l.3.3.7-.5-.3-.3A3,3,0,0,0,43,21.31Zm-13.7,3.2a2.6,2.6,0,1,0,2.5,2.6,2.56,2.56,0,0,0-2.5-2.6Zm13.5,0a2.6,2.6,0,1,0,2.5,2.6,2.5,2.5,0,0,0-2.5-2.6Zm-13.5.9a1.75,1.75,0,0,1,1.7,1.7,1.69,1.69,0,0,1-1.7,1.7,1.75,1.75,0,0,1-1.7-1.7h0v-.2a1.09,1.09,0,0,0,1,.7,1,1,0,0,0,1-1.1,1.17,1.17,0,0,0-.8-1.1Zm13.5,0a1.75,1.75,0,0,1,1.7,1.7,1.69,1.69,0,0,1-1.7,1.7,1.75,1.75,0,0,1-1.7-1.7v-.2a1.09,1.09,0,0,0,1,.7,1,1,0,0,0,1-1.1h0a1,1,0,0,0-.8-1A1.09,1.09,0,0,1,42.84,25.41Zm-6.6,1.5a3.71,3.71,0,1,1-3.9,3.7A3.74,3.74,0,0,1,36.24,26.91Zm0,1.2a1.88,1.88,0,0,0-.8.2.9.9,0,0,1-.5.1.86.86,0,0,0-.6.3.76.76,0,0,0-.2.4c-.1.3-.1.6-.2.7a.44.44,0,0,0,.1.5l.3.3a4.35,4.35,0,0,0,.7.6c.3.2.5.4.7.5v.2a3.22,3.22,0,0,1-.7.4,1.27,1.27,0,0,1-.6.1,1,1,0,0,1-.5-.4c0-.3.1-.6.1-1l-.8-.2c-.1.5-.1.9-.2,1.4l.1.1a1.67,1.67,0,0,0,1.1.8,1.38,1.38,0,0,0,1.1-.1,4.67,4.67,0,0,0,1-.5,3,3,0,0,0,1,.5,2.16,2.16,0,0,0,1.1.1,1.55,1.55,0,0,0,1.1-.8l.1-.1a6.75,6.75,0,0,0-.2-1.4l-.8.2c.1.3.1.7.2,1a1,1,0,0,1-.5.4,1.27,1.27,0,0,1-.6-.1,1.4,1.4,0,0,1-.7-.4v-.2a3,3,0,0,0,.7-.5c.2-.2.5-.4.7-.6l.3-.3a1.09,1.09,0,0,0,.1-.5,4.08,4.08,0,0,0-.2-.7.52.52,0,0,0-.2-.4.71.71,0,0,0-.6-.3c-.2,0-.3-.1-.5-.1a8.92,8.92,0,0,0-1.1-.2Zm0,.8a4.33,4.33,0,0,0,.5.1,1.45,1.45,0,0,0,.7.2c.1.2.1.5.2.7l-.1.1c-.2.2-.4.3-.6.5-.4.3-.6.4-.7.5a4.23,4.23,0,0,1-.7-.5c-.2-.2-.4-.3-.6-.5l-.1-.1a6.37,6.37,0,0,1,.2-.7,1.85,1.85,0,0,0,.7-.2A4.33,4.33,0,0,1,36.24,28.91Zm-7,1.3a1.38,1.38,0,0,0-1.3,1.1l2.3-.6A1.23,1.23,0,0,0,29.24,30.21Zm13.7,0a1,1,0,0,0-.9.4c.8.2,1.5.4,2.2.6A1.38,1.38,0,0,0,42.94,30.21Zm-1.4,1.3v.2l2,1.2a1.34,1.34,0,0,0,.6-.7Zm-11,.1-2.6.7a1.39,1.39,0,0,0,.8.7l1.7-1a.6.6,0,0,0,.1-.4Zm9.6,1.6,3.6,3.6a11.27,11.27,0,0,0-1.8.3l-2.1-3.6Q40.14,33.36,40.14,33.21Zm-7.8,0c.1.1.2.3.3.4l-1.4,2.5-.6-.3h0c-.2-.1-.4-.1-.6-.2Zm7.2.7,1.9,3.3a7.08,7.08,0,0,0-3.3,2.9h-3.6a7.5,7.5,0,0,0-2.9-3.8l1.3-2.3a5,5,0,0,0,6.6-.1ZM27,36.21a14.87,14.87,0,0,1,3.3.4,6.31,6.31,0,0,1,3.8,4.9h0c.2,1.1.4,2.1.5,3.1h-2.4a.78.78,0,0,0-1.1,0h-.6a2.92,2.92,0,0,0-.2-.9,1.85,1.85,0,0,0,1.2.5,1.8,1.8,0,1,0-1.8-1.8.6.6,0,0,0,.1.4,3.22,3.22,0,0,0-2.6-1.2,3.12,3.12,0,0,0-3.2,3h-.7a.78.78,0,0,0-1.1,0h-2.7c.1-1,.3-2,.5-3.1h0a6.16,6.16,0,0,1,3.8-4.9h0a9.23,9.23,0,0,1,3.2-.4Zm-4.2,2.4a1.6,1.6,0,0,0-1.4.8l-.3.3.7.5.3-.3a.91.91,0,0,1,.8-.4,1.14,1.14,0,0,1,.8.3l.3.3.6-.6-.3-.3A1.5,1.5,0,0,0,22.84,38.61Zm8.9,0a1.82,1.82,0,0,0-1.4.6l-.3.3.6.6.3-.3a1.14,1.14,0,0,1,.8-.3,1.23,1.23,0,0,1,.8.4l.3.3.7-.5-.3-.3A2.06,2.06,0,0,0,31.74,38.61Zm9.1,1.6a1.76,1.76,0,0,0-1.5.8l-.3.3.7.5.3-.3a1.35,1.35,0,0,1,.9-.5,1.4,1.4,0,0,1,.9.3l.3.3.6-.6-.3-.3A1.94,1.94,0,0,0,40.84,40.21Zm9.5,0a2,2,0,0,0-1.5.6l-.3.3.6.6.3-.3a1,1,0,0,1,.9-.3,1.05,1.05,0,0,1,.9.5l.3.3.7-.5-.3-.3A2.06,2.06,0,0,0,50.34,40.21Zm-27.4.5a1.8,1.8,0,1,0,1.8,1.8,1.79,1.79,0,0,0-1.8-1.8Zm11.9.6h2.7a10.56,10.56,0,0,0-.6,1.9h0l-.3,1.5h-1.3a30.62,30.62,0,0,0-.5-3.2h0C34.94,41.31,34.94,41.31,34.84,41.31Zm-11.9.2a.9.9,0,0,1,.9.9h0a1.06,1.06,0,0,1-.9,1h0a.9.9,0,0,1-.9-.9.76.76,0,0,0,.5.2.68.68,0,0,0,.7-.7h0a2.19,2.19,0,0,0-.3-.5Zm8.7,0a.92.92,0,0,1,.9,1,1.06,1.06,0,0,1-.9,1h0a.9.9,0,0,1-.9-.9.6.6,0,0,0,.6.3.68.68,0,0,0,.7-.7h0a1,1,0,0,0-.4-.7Zm9.3.9a2,2,0,0,0-1.9,1.9,1.9,1.9,0,0,0,1.9,1.9,2,2,0,0,0,1.9-1.9A1.9,1.9,0,0,0,40.94,42.41Zm9.3,0a2,2,0,0,0-1.9,1.9,1.27,1.27,0,0,0,.1.6,3.5,3.5,0,0,0-2.8-1.4,3.4,3.4,0,0,0-3.4,3.2l-3.3.9.1.5,3.2-.9v.2l-3.1,1.8.3.5,3-1.7a3.31,3.31,0,0,0,3.1,2,3.54,3.54,0,0,0,3.2-2.1l3,1.7.3-.5-3.1-1.8v-.2l3.3.9.1-.5-3.4-.9a4.25,4.25,0,0,0-.2-1.1,1.75,1.75,0,0,0,1.4.7,2,2,0,0,0,1.9-1.9A1.82,1.82,0,0,0,50.24,42.41Zm-22.9.1a2.4,2.4,0,0,1,2.4,2.1h-.9v-.1a.75.75,0,0,0,.1-.5,1,1,0,0,0-.1-.4c0-.1-.1-.2-.2-.3a.76.76,0,0,0-.5-.2.37.37,0,0,1-.3-.1,4.33,4.33,0,0,0-.5-.1,4.33,4.33,0,0,0-.5.1c-.1,0-.2.1-.3.1a.76.76,0,0,0-.5.2c-.1.1-.1.2-.2.3a1,1,0,0,0-.1.4c-.1.2,0,.3,0,.5l.1.1h-.9A2.32,2.32,0,0,1,27.34,42.51Zm13.6.7a1,1,0,0,1,1,1,1.09,1.09,0,0,1-1,1.1h0a1,1,0,0,1-1-1c.1.2.3.2.5.2a.68.68,0,0,0,.7-.7.85.85,0,0,0-.2-.6Zm9.3,0a1,1,0,0,1,1,1,1.1,1.1,0,0,1-1,1.1,1,1,0,0,1-1-1h0v-.1a.75.75,0,0,0,.7.5.68.68,0,0,0,.7-.7.73.73,0,0,0-.6-.7C50.14,43.21,50.14,43.21,50.24,43.21Zm-22.9.5a.77.77,0,0,1,.3.1.76.76,0,0,0,.4.1.37.37,0,0,0,.1.3,1.38,1.38,0,0,1-.4.3c-.1.1-.1.1-.2.1h-.4c-.1,0-.1-.1-.2-.1a1.38,1.38,0,0,0-.4-.3l.1-.3c.2,0,.3-.1.4-.1A.37.37,0,0,0,27.34,43.71Zm18.3.6a2.55,2.55,0,0,1,2.6,2.4,3.55,3.55,0,0,1-.2,1v-.4a.9.9,0,0,0-.1-.5l-.8.2.1.6c-.1.1-.2.1-.2.2h-.4c-.2-.1-.3-.1-.4-.2.1-.1.3-.2.4-.3s.3-.3.5-.4.1-.2.2-.2a.75.75,0,0,0,.1-.5,1.75,1.75,0,0,0-.1-.5c0-.1-.1-.2-.2-.4s-.3-.2-.5-.2a.37.37,0,0,1-.3-.1,3.54,3.54,0,0,0-.6-.1c-.2,0-.4.1-.6.1s-.2.1-.3.1a.76.76,0,0,0-.5.2c-.1.1-.1.2-.2.4a1.09,1.09,0,0,0-.1.5c-.1.2,0,.3.1.5s.1.2.2.2a2.18,2.18,0,0,0,.5.4c.1.1.3.2.4.3a.52.52,0,0,1-.4.2c-.1,0-.2.1-.4,0a.22.22,0,0,1-.2-.2c0-.2.1-.4.1-.6l-.8-.2a2.77,2.77,0,0,0-.1.9,2.92,2.92,0,0,1-.2-.9A2.34,2.34,0,0,1,45.64,44.31Zm0,1.3a.37.37,0,0,1,.3.1c.1.1.4.1.4.1l.1.3a1.38,1.38,0,0,1-.4.3c-.2.2-.3.2-.4.3-.1-.1-.2-.1-.4-.3s-.3-.2-.4-.3l.1-.3c.2,0,.3-.1.4-.1S45.54,45.61,45.64,45.61Zm-4.8.8a.76.76,0,0,0-.8.6l1.4-.4A1.42,1.42,0,0,0,40.84,46.41Zm9.4,0c-.2,0-.3.1-.5.2l1.3.3A.89.89,0,0,0,50.24,46.41Zm-8.8,1.2-1.3.4c.1.1.2.2.3.2Zm8.5,0,.9.5.2-.2Zm-4.3.5a3.33,3.33,0,0,0,.6.3,2.49,2.49,0,0,0,.8.1.55.55,0,0,0,.5-.3,2.52,2.52,0,0,1-2,.9,2.56,2.56,0,0,1-1.9-.8.76.76,0,0,0,.4.2,1.06,1.06,0,0,0,.8-.1A1,1,0,0,0,45.64,48.11ZM25,51.61v1.1h13.5v-1.1Zm7.8,2.8v1.1h11.1v-1.1Z"/></g></g></svg>