<svg xmlns="http://www.w3.org/2000/svg" viewBox="0 0 72 72"><defs><style>.cls-1{fill:#333;}.cls-2{fill:#fff;}</style></defs><g id="Layer_2" data-name="Layer 2"><g id="Layer_5" data-name="Layer 5"><circle class="cls-1" cx="36" cy="36" r="36"/><path class="cls-2" d="M46.82,21.88a2.86,2.86,0,0,1,2-.85c-2.77-2.28-5.44-2.13-20.28,12.7l3.2,3.19Z"/><path class="cls-2" d="M50.8,26.11,34.91,40.05l2.86,2.87c6.6-6.28,13-12.72,13.46-17.28a3.27,3.27,0,0,1-.3.35Z"/><path class="cls-2" d="M28,34.32l-4,4a.24.24,0,0,0,0,.32.21.21,0,0,0,.28.12l6.71-1.46Z"/><path class="cls-2" d="M54.5,10.54a6.17,6.17,0,0,0-4.11,10.75.42.42,0,0,1,.17.1l.22.22a6.08,6.08,0,0,0,3.76,1.25,5.83,5.83,0,0,0,2.7-.64L53,18a.37.37,0,0,1-.12-.29.36.36,0,0,1,.12-.28L58.45,12A6.06,6.06,0,0,0,54.5,10.54Z"/><path class="cls-2" d="M50.56,21.39a.42.42,0,0,0-.17-.1l.39.32Z"/><path class="cls-2" d="M59.06,12.53l-5.21,5.16L58,21.8a5,5,0,0,0,.89-.73A6.2,6.2,0,0,0,59.06,12.53Zm-.82,6.06a.5.5,0,0,1,0-.65,1.53,1.53,0,0,0,.17-1.55s0-.08,0-.12a.48.48,0,0,1,.28-.61.49.49,0,0,1,.61.28,2.39,2.39,0,0,1-.33,2.57A.46.46,0,0,1,58.24,18.59Z"/><path class="cls-2" d="M47.59,22.29a.55.55,0,0,1-.16.12l-15,15.08.48.49L49.06,21.8A2.18,2.18,0,0,0,47.59,22.29Z"/><path class="cls-2" d="M33.14,38.25,49.52,21.86a1.82,1.82,0,0,0-.46-.06L32.87,38Z"/><path class="cls-2" d="M33.69,38.79l.69.7,15.94-14a2.07,2.07,0,0,0,.73-1.74,4.45,4.45,0,0,0-.86-1.51Z"/><path class="cls-2" d="M33.16,38.27l.24.24L49.9,22a2.13,2.13,0,0,0-.35-.14Z"/><path class="cls-2" d="M33.16,38.27l16.39-16.4h0L33.14,38.25Z"/><path class="cls-2" d="M33.69,38.79l16.5-16.54a4.45,4.45,0,0,1,.86,1.51,2.16,2.16,0,0,0-.49-1.23A2,2,0,0,0,50,22L33.42,38.53Z"/><path class="cls-2" d="M33.4,38.51l0,0L50,22l-.06,0Z"/><path class="cls-2" d="M30,41.48h-.12l-1.77.37L15.29,54.59l4.17,4.17h0l.16.16a.4.4,0,0,0,.41,0,.42.42,0,0,0,.16-.57l-.69-2.93a.74.74,0,0,1,.4-.85A84.84,84.84,0,0,0,37.18,43.51l-1.72-1.72-1.24-1.24Z"/><polygon class="cls-2" points="37.18 43.51 35.46 41.79 37.18 43.51 37.18 43.51"/><path class="cls-2" d="M11.49,58.39a.24.24,0,0,0,0,.37.21.21,0,0,0,.16.08l7.2.49L14.7,55.18Z"/><polygon class="cls-2" points="31.98 38.31 31.77 38.11 30.26 39.62 33.31 39.67 31.98 38.31"/><polygon class="cls-2" points="31.78 38.1 31.77 38.11 31.98 38.31 31.78 38.1"/><path class="cls-2" d="M29.54,40.54a.23.23,0,0,0,.16.12l1-.22-1.2,0A.27.27,0,0,0,29.54,40.54Z"/><polygon class="cls-2" points="33.48 39.85 33.31 39.67 30.26 39.62 29.86 40.02 32.48 40.07 33.48 39.85"/><path class="cls-2" d="M32.48,40.07l-2.62,0-.28.28a.25.25,0,0,0-.07.12l1.2,0Z"/><polygon class="cls-2" points="31.98 38.31 33.31 39.67 33.34 39.67 32.79 39.12 32.55 38.88 32.55 38.88 31.98 38.31"/><rect class="cls-2" x="31.01" y="37.79" height="2.14"/><polygon class="cls-2" points="31.78 38.1 31.77 38.11 31.77 38.11 31.78 38.1"/><polygon class="cls-2" points="32.55 38.88 32.55 38.88 31.78 38.1 31.98 38.31 32.55 38.88"/><polygon class="cls-2" points="33.34 39.67 33.34 39.67 32.79 39.12 33.34 39.67"/><path class="cls-2" d="M29.7,40.66h.08l1-.22h-.09Z"/><rect class="cls-2" x="30.06" y="39.54" height="0.57"/><polygon class="cls-2" points="33.34 39.67 33.31 39.67 33.48 39.85 32.48 40.07 32.53 40.07 33.52 39.85 33.34 39.67"/><rect class="cls-2" x="33.43" y="39.64" height="0.25"/><polygon class="cls-2" points="30.71 40.44 30.8 40.44 32.53 40.07 32.48 40.07 30.71 40.44"/><rect class="cls-2" x="29.52" y="40.16" width="0.39" transform="translate(-19.69 32.78) rotate(-45)"/></g></g></svg>