<svg xmlns="http://www.w3.org/2000/svg" viewBox="0 0 72 72"><defs><style>.cls-1{fill:#333;}.cls-2{fill:#fff;}</style></defs><g id="Layer_2" data-name="Layer 2"><g id="Layer_5" data-name="Layer 5"><circle class="cls-1" cx="36" cy="36" r="36"/><path id="path4486" class="cls-2" d="M36.35,10.17A25.83,25.83,0,1,0,62.19,36,25.83,25.83,0,0,0,36.35,10.17Zm0,48.35c-4.06,0-7.35-2.71-7.35-6.06H43.7C43.7,55.8,40.41,58.52,36.35,58.52Zm12.14-8.06H24.21V46.05H48.49v4.41Zm-.08-6.67H24.28L24,43.51a17.62,17.62,0,0,1-3.64-6.2c0-.05,3,.62,5.16,1.1,0,0,1.1.25,2.72.55a10.08,10.08,0,0,1-2.47-6.48c0-5.18,4-9.71,2.54-13.37,1.39.12,2.88,2.95,3,7.37,1.49-2.05,2.11-5.79,2.11-8.08s1.56-5.14,3.13-5.23c-1.4,2.3.36,4.27,1.92,9.16.59,1.84.51,4.93,1,6.89.15-4.07.85-10,3.44-12.06-1.14,2.58.17,5.81,1.06,7.37a13.89,13.89,0,0,1,2.32,8A10,10,0,0,1,43.88,39c1.71-.32,2.88-.61,2.88-.61l5.54-1.08A15.56,15.56,0,0,1,48.41,43.79Z"/><path class="cls-2" d="M36.34,13.84h0Z"/></g></g></svg>