<svg xmlns="http://www.w3.org/2000/svg" viewBox="0 0 72 72"><defs><style>.cls-1{fill:#333;}.cls-2{fill:#fff;}</style></defs><g id="Layer_2" data-name="Layer 2"><g id="Layer_5" data-name="Layer 5"><circle class="cls-1" cx="36" cy="36" r="36"/><path class="cls-2" d="M57.54,27.35v12a2.26,2.26,0,0,1-2.3,2.3H49a2.26,2.26,0,0,1-2.3-2.3v-4.7a2.27,2.27,0,0,0-.9,1.8v3.9a2.26,2.26,0,0,0,2.3,2.3h4v6.1a1.37,1.37,0,0,1-1.4,1.4h-7.6a1.37,1.37,0,0,1-1.4-1.4v-5.7a1.37,1.37,0,0,0-1.4-1.4H21.44a1.37,1.37,0,0,0-1.4,1.4v5.7a1.37,1.37,0,0,1-1.4,1.4H11a1.37,1.37,0,0,1-1.4-1.4V32.35l-3.4,2.7c-.2.1-.4.1-.5-.1l-1-1.2a.3.3,0,0,1,0-.4l5-7.7a1.44,1.44,0,0,1,1.3-.8h26.7a1.37,1.37,0,0,1,1.4,1.6l-.5,3.3a1.42,1.42,0,0,0,1.4,1.6h5.4a1.4,1.4,0,0,0,1.4-1.2,3.59,3.59,0,0,1-1.1.2h-3.8a1.91,1.91,0,0,1-1.9-2.3l.7-3.9c.2-1.3.7-2.3,1.1-2.3s.7,1,.7,2.3v.6h12.9A2.16,2.16,0,0,1,57.54,27.35Zm5.1,2.9h-4v-2.8h1.2a2.26,2.26,0,0,0,2.3-2.3v-1c0-1.3.3-2.3.7-2.3s.9,1,1.1,2.3l.7,3.9A1.78,1.78,0,0,1,62.64,30.25Z"/></g></g></svg>