<svg xmlns="http://www.w3.org/2000/svg" viewBox="0 0 72 72"><defs><style>.cls-1{fill:#333;}.cls-2{fill:#fff;}</style></defs><g id="Layer_2" data-name="Layer 2"><g id="Layer_5" data-name="Layer 5"><circle class="cls-1" cx="36" cy="36" r="36"/><path id="path8" class="cls-2" d="M45.39,36c3.68,0,9-.77,9-5.16a5.63,5.63,0,0,0-.09-1l-2.18-9.55c-.5-2.09-1-3.06-4.63-4.89-2.86-1.48-9.08-3.86-10.94-3.86s-2.24,2.21-4.27,2.21S28.88,12.1,27,12.1s-2.92,1.21-3.81,3.68c0,0-2.47,7-2.8,8a1.75,1.75,0,0,0-.06.56C20.33,27.07,31,36,45.39,36M55,32.64a15.21,15.21,0,0,1,.5,3c0,4.12-4.63,6.42-10.73,6.42C31,42,18.89,34,18.89,28.63a5.48,5.48,0,0,1,.44-2.15C14.38,26.72,8,27.6,8,33.26,8,42.54,29.94,54,47.33,54,60.68,54,64,47.94,64,43.16c0-3.74-3.24-8-9.07-10.52"/></g></g></svg>