<svg xmlns="http://www.w3.org/2000/svg" viewBox="0 0 72 72"><defs><style>.cls-1{fill:#333;}.cls-2{fill:#fff;}</style></defs><g id="Layer_2" data-name="Layer 2"><g id="Layer_5" data-name="Layer 5"><circle class="cls-1" cx="36" cy="36" r="36"/><path class="cls-2" d="M43.31,30.94H42v4.68h1.28c1.71,0,3.07-.57,3.07-2.37S45,30.94,43.31,30.94Z"/><path class="cls-2" d="M29.51,32.82l-1.84,5.82a5.49,5.49,0,0,0,1.86.32,5.36,5.36,0,0,0,1.83-.31l-1.81-5.83Z"/><path class="cls-2" d="M7.92,21.39V50.61H37.77L67,21.39Zm36,18.23H42l0,5.15H33.18l-.62-2.23a9.68,9.68,0,0,1-3,.47,9.55,9.55,0,0,1-3.1-.5l-.88,2.26-4.92,0,.22-1.14-.22.18a7.92,7.92,0,0,1-5,1.59H15.1a12.41,12.41,0,0,1-6.35-1.66l1.79-3.56a8,8,0,0,0,4.82,1.37A2.54,2.54,0,0,0,17.23,41a1.38,1.38,0,0,0,.38-.91c0-.93-1.3-1.36-2.91-1.86a13.75,13.75,0,0,1-4-1.81,4.57,4.57,0,0,1-2-4.06A4.89,4.89,0,0,1,10.14,29,8,8,0,0,1,16,26.83h0a15.7,15.7,0,0,1,6.58,1.55l-2,3.52a9.61,9.61,0,0,0-4.25-1.15c-1.74-.09-2.62.53-2.63,1.2,0,.82,1.64,1.56,3.21,2.07,2.37.75,5.38,1.76,5.85,4.67L27,27.23h5L37.15,41V27.24H43c5.55,0,8.16,1.88,8.16,6.19C51.13,37.31,48.45,39.62,43.91,39.62Z"/></g></g></svg>