<svg xmlns="http://www.w3.org/2000/svg" viewBox="0 0 72 72"><defs><style>.cls-1{fill:#333;}.cls-2{fill:#fff;}</style></defs><g id="Layer_2" data-name="Layer 2"><g id="Layer_5" data-name="Layer 5"><circle class="cls-1" cx="36" cy="36" r="36"/><path id="Path" class="cls-2" d="M54.46,49.5,43.59,43.22a3.2,3.2,0,0,0-4.78,3.07V58.56a3.19,3.19,0,0,0,6.37,0V51.51L51.27,55a3.19,3.19,0,0,0,3.19-5.53"/><path id="Path2" class="cls-2" d="M27.43,36a3.14,3.14,0,0,0-1.56-2.76L15,27a3.12,3.12,0,0,0-3.12,5.4L18.15,36l-6.27,3.62a3,3,0,0,0-1.45,1.89,3.07,3.07,0,0,0,.31,2.37A3.11,3.11,0,0,0,15,45.05l10.87-6.27A3.15,3.15,0,0,0,27.43,36"/><path id="Path3" class="cls-2" d="M17.47,22.56l10.87,6.28A3.26,3.26,0,0,0,33.19,26V13.44a3.18,3.18,0,1,0-6.36,0V20.6L20.66,17a3.19,3.19,0,1,0-3.19,5.52"/><path id="Combined-Shape" class="cls-2" d="M41.91,36.55a1.25,1.25,0,0,1-.31.75l-4.31,4.31a1.23,1.23,0,0,1-.75.31h-1.1a1.23,1.23,0,0,1-.75-.31L30.38,37.3a1.25,1.25,0,0,1-.31-.75v-1.1a1.25,1.25,0,0,1,.31-.75l4.31-4.31a1.23,1.23,0,0,1,.75-.31h1.1a1.23,1.23,0,0,1,.75.31L41.6,34.7a1.25,1.25,0,0,1,.31.75ZM38.06,36v0a.88.88,0,0,0-.23-.55l-1.27-1.27a.85.85,0,0,0-.55-.23h0a.9.9,0,0,0-.55.23l-1.26,1.27a.85.85,0,0,0-.23.55v0a.85.85,0,0,0,.23.55l1.26,1.28a1,1,0,0,0,.55.22h0a.9.9,0,0,0,.55-.22l1.27-1.28A.85.85,0,0,0,38.06,36Z"/><path id="Path4" class="cls-2" d="M43.59,28.84l10.87-6.28A3.19,3.19,0,1,0,51.27,17l-6.09,3.51V13.44a3.19,3.19,0,0,0-6.37,0V25.77a3.2,3.2,0,0,0,4.78,3.07"/><path id="Path5" class="cls-2" d="M30.51,42.85a3.1,3.1,0,0,0-2.17.37L17.47,49.5A3.19,3.19,0,0,0,20.66,55l6.17-3.57v7.1a3.18,3.18,0,1,0,6.36,0V46a3.18,3.18,0,0,0-2.68-3.14"/><path id="Path6" class="cls-2" d="M61.25,28.12A3.17,3.17,0,0,0,56.89,27L46,33.22a3.27,3.27,0,0,0,0,5.62l10.87,6.27a3.19,3.19,0,0,0,3.19-5.53L53.93,36l6.15-3.56a3.18,3.18,0,0,0,1.17-4.35"/></g></g></svg>