<svg xmlns="http://www.w3.org/2000/svg" viewBox="0 0 72 72"><defs><style>.cls-1{fill:#333;}.cls-2{fill:#fff;}</style></defs><g id="Layer_2" data-name="Layer 2"><g id="Layer_5" data-name="Layer 5"><circle class="cls-1" cx="36" cy="36" r="36"/><path class="cls-2" d="M61.37,33.57c0-.11-.08-.17-.1-.23L58.9,28.85a.26.26,0,0,1,0-.36c1.25-1.47,2.49-2.94,3.74-4.39a.47.47,0,0,0,.1-.2l-1.09.29c-1.51.4-3,.79-4.53,1.2a.21.21,0,0,1-.28-.12C56,23.84,55.16,22.4,54.29,21a.56.56,0,0,0-.18-.2l-.21,1.14-.72,4a3.64,3.64,0,0,0-.07.44.26.26,0,0,1-.21.23l-5.34,1.69a.57.57,0,0,0-.24.13l4.39,1.75-.13.1-2.73,1.76a.27.27,0,0,1-.32,0l-3.27-1.45A3.35,3.35,0,0,1,44,29.71,1.69,1.69,0,0,1,44.4,27a4.38,4.38,0,0,1,1.1-.5c1.75-.57,3.5-1.12,5.24-1.67a.31.31,0,0,0,.24-.27c.23-1.35.47-2.71.72-4a7.2,7.2,0,0,1,.55-2.13,3.1,3.1,0,0,1,.49-.71,1.56,1.56,0,0,1,2.4-.07,4.39,4.39,0,0,1,.65.84c.81,1.32,1.6,2.65,2.4,4a.28.28,0,0,0,.36.14L64.41,21A2.79,2.79,0,0,1,65.63,21a1.2,1.2,0,0,1,1,1.72A3.16,3.16,0,0,1,66,23.75c-1.37,1.6-2.73,3.21-4.09,4.81a.28.28,0,0,0,0,.37l2.44,4.63a2.46,2.46,0,0,1,.35,1.18A1.9,1.9,0,0,1,63,36.63a3.5,3.5,0,0,1-1.54-.19l-3.68-1.12a.23.23,0,0,1-.18-.2c-.14-.87-.29-1.73-.44-2.59a.41.41,0,0,1,0-.1l4.22,1.16"/><path class="cls-2" d="M59,46.21H55.63a.34.34,0,0,1-.31-.17c-1.3-2-2.63-4-3.92-6l-.16-.24c-.28,2.15-.56,4.25-.83,6.35h-2.9c0-.28.07-.55.1-.82.29-2.17.57-4.31.85-6.47s.54-4.13.82-6.19a.27.27,0,0,1,.1-.17c1-.65,2-1.29,3-1.93l.08,0c-.3,2.31-.6,4.59-.9,6.87l0,0c1.57-1.74,3.13-3.48,4.73-5.24,0,.27.09.5.13.73l.33,2a.3.3,0,0,1-.09.3q-1.53,1.59-3,3.2l-.13.15.09.15,5.22,7.33a.63.63,0,0,0,.11.12v0"/><path class="cls-2" d="M24.78,39.74a6,6,0,0,0-.17-.87A3,3,0,0,0,21,36.93a4,4,0,0,0-3.16,3.56,2.88,2.88,0,0,0,1.89,3,3.42,3.42,0,0,0,3-.35,4,4,0,0,0,2-3.45ZM17.14,45.3c-.09.64-.17,1.24-.25,1.85-.1.81-.21,1.61-.31,2.43,0,.09,0,.13-.14.13H14.05l-.08,0,.15-1.15c.17-1.33.35-2.66.53-4,.2-1.53.36-3,.62-4.57a7.19,7.19,0,0,1,5.42-5.58,5.61,5.61,0,0,1,4.39.7,4.92,4.92,0,0,1,2.3,3.72,6.63,6.63,0,0,1-2.16,5.66,6.81,6.81,0,0,1-3.74,1.87,5.52,5.52,0,0,1-4.15-.9l-.17-.11"/><path class="cls-2" d="M15.81,32.56,13.2,34.5l-.41-.64a2,2,0,0,0-1.52-1,1.69,1.69,0,0,0-1.42.56,1,1,0,0,0-.07,1.32c.35.46.74.9,1.13,1.32.66.71,1.34,1.39,2,2.11a4.42,4.42,0,0,1,1.21,2.26,4.59,4.59,0,0,1-.54,3,5.6,5.6,0,0,1-4.28,3,5.6,5.6,0,0,1-2.51-.13,3.71,3.71,0,0,1-2.34-2c-.18-.36-.31-.74-.46-1.12L6.8,41.64c0,.08,0,.15.08.21.16.32.3.66.49,1a1.91,1.91,0,0,0,2.51.71,2.65,2.65,0,0,0,.69-.45,1.47,1.47,0,0,0,.28-2,8.83,8.83,0,0,0-.92-1.12c-.77-.85-1.57-1.69-2.32-2.56a4.09,4.09,0,0,1-1-2.11,3.63,3.63,0,0,1,.51-2.44,5.34,5.34,0,0,1,5-2.73,3.91,3.91,0,0,1,3,1.6c.23.28.44.58.67.89"/><path class="cls-2" d="M36.91,42.37c-.14,1.11-.28,2.16-.42,3.21a.23.23,0,0,1-.1.15,5.72,5.72,0,0,1-6.75-1.15,5.2,5.2,0,0,1-1.29-3.78,7.14,7.14,0,0,1,6.15-6.59A5.24,5.24,0,0,1,39.37,36a5,5,0,0,1,1.23,3.56c0,.88-.18,1.76-.29,2.63-.16,1.24-.33,2.49-.49,3.72,0,0,0,.09,0,.14H37.23c0-.28.06-.56.1-.84.19-1.43.39-2.87.56-4.31a4.57,4.57,0,0,0-.38-2.6,2.51,2.51,0,0,0-2.12-1.45,4,4,0,0,0-4.28,3.11,3,3,0,0,0,1.18,3.22,3.26,3.26,0,0,0,3.16.23,4.14,4.14,0,0,0,1.47-1"/><path class="cls-2" d="M47.83,34.54c-.12.9-.24,1.78-.35,2.67H45.86a1,1,0,0,0-1,.69,2.84,2.84,0,0,0-.1.49q-.41,3.09-.81,6.15c-.06.52-.13,1-.2,1.56H41.11c0-.4.1-.78.15-1.16.18-1.33.35-2.67.53-4,.15-1.15.29-2.31.47-3.46a3.72,3.72,0,0,1,3.31-3c.74,0,1.48,0,2.25,0"/><path class="cls-2" d="M62.18,46.21V45.08h0l-.45,1.13h-.14l-.44-1.13h0v1.13h-.22V44.85h.34l.41,1,.39-1h.35v1.36Zm-2-1.18v1.18H60V45h-.42v-.18h1.07V45h-.42"/><path class="cls-2" d="M19.38,30.66h.67l-.16-1Zm.77.65h-1.1L18.7,32h-.79l1.73-3.23h.76L21,32h-.72l-.11-.69"/><path class="cls-2" d="M24.11,29.43h-.39l-.13.74H24a.41.41,0,0,0,.43-.45.27.27,0,0,0-.3-.29Zm-.95-.65h1a.83.83,0,0,1,.91.87,1.12,1.12,0,0,1-1.19,1.17h-.45L23.26,32h-.67l.57-3.24"/><path class="cls-2" d="M27.41,30.66h.66l-.15-1Zm.77.65H27.07l-.35.69h-.78l1.72-3.23h.76L29,32h-.73l-.1-.69"/><path class="cls-2" d="M32.46,31.89a1.66,1.66,0,0,1-.73.17,1.36,1.36,0,0,1-1.39-1.44,1.91,1.91,0,0,1,1.89-1.89,1.45,1.45,0,0,1,.68.16l-.09.78a.89.89,0,0,0-.66-.27,1.16,1.16,0,0,0-1.11,1.15.77.77,0,0,0,.76.84,1.15,1.15,0,0,0,.74-.27l-.09.77"/><path class="cls-2" d="M36.71,30.7H35.3L35.08,32H34.4L35,28.77h.68L35.42,30h1.41l.22-1.27h.68L37.16,32h-.68l.23-1.3"/><path class="cls-2" d="M39.14,32l.57-3.23H41.5l-.12.65H40.27l-.12.63h1l-.12.65H40l-.11.65H41l-.11.65H39.14"/></g></g></svg>