<svg xmlns="http://www.w3.org/2000/svg" viewBox="0 0 72 72"><defs><style>.cls-1{fill:#333;}.cls-2{fill:#fff;}</style></defs><g id="Layer_2" data-name="Layer 2"><g id="Layer_5" data-name="Layer 5"><circle class="cls-1" cx="36" cy="36" r="36"/><rect class="cls-2" x="26.22" y="26.55" width="2.5" height="14.2"/><path class="cls-2" d="M13.62,37.25a2.51,2.51,0,0,0-.4-.7,6,6,0,0,0-.8-.8q-.45-.3-1.2-.9a11.15,11.15,0,0,1-1-.9.91.91,0,0,1-.3-.7c0-.3,0-.5.3-.7a1.61,1.61,0,0,1,.9-.3,2.52,2.52,0,0,1,1.6.5l.8-1.2a3.1,3.1,0,0,0-1.3-.6,7.72,7.72,0,0,0-1.5-.2,5.07,5.07,0,0,0-1.3.2,3.13,3.13,0,0,0-1,.5,2.7,2.7,0,0,0-.7.8,3.59,3.59,0,0,0-.2,1.1,2.92,2.92,0,0,0,.2.9,3,3,0,0,0,.5.7c.2.2.5.4.7.6s.5.4.8.6a5.55,5.55,0,0,1,.8.6l.5.5c.1.1.1.3.2.4s.1.2.1.4a1,1,0,0,1-.4.9,1.69,1.69,0,0,1-1,.3,1.64,1.64,0,0,1-1-.2,4.89,4.89,0,0,1-1.1-.7L7,39.75a6,6,0,0,0,1.5.9,4.67,4.67,0,0,0,1.7.3,6.05,6.05,0,0,0,1.5-.2,3.88,3.88,0,0,0,1.1-.6,1.76,1.76,0,0,0,.8-.9,2.66,2.66,0,0,0,.3-1.2A.83.83,0,0,0,13.62,37.25Z"/><path class="cls-2" d="M37.12,36.25a3.42,3.42,0,0,1-.1,1.1,1.45,1.45,0,0,1-.2.7,2,2,0,0,1-2,1.2,1.7,1.7,0,0,1-1.6-.8,1.45,1.45,0,0,1-.2-.7c0-.3-.1-.6-.1-1.1v-5.5h-2.5v7.1a4.33,4.33,0,0,0,.1.5c0,.2.1.3.1.4a2.37,2.37,0,0,0,1.1,1.3,3.83,3.83,0,0,0,1.9.5,3.42,3.42,0,0,0,1.8-.4,5.27,5.27,0,0,0,1.5-1.2v1.3l2.7.1v-9.7h-2.5Z"/><path class="cls-2" d="M23.92,32.15a3.59,3.59,0,0,0-1.4-1,4.71,4.71,0,0,0-1.7-.4,3.42,3.42,0,0,0-1.8.4,7.89,7.89,0,0,0-1.5,1.2V31H15v14.5h2.5v-6.1a4.62,4.62,0,0,0,.7.7,3,3,0,0,0,.7.5c.2.1.5.2.7.3s.5.1.8.1a3.42,3.42,0,0,0,1.8-.4,4.18,4.18,0,0,0,1.5-1.1,6.93,6.93,0,0,0,1-1.7,4.64,4.64,0,0,0,.4-2.1,6.45,6.45,0,0,0-.3-2A3.77,3.77,0,0,0,23.92,32.15ZM22.32,37a5.64,5.64,0,0,1-.4,1.2,2.18,2.18,0,0,1-.7.9,2.14,2.14,0,0,1-1.2.4,2,2,0,0,1-1.8-.9,4.73,4.73,0,0,1-.7-2.6,4,4,0,0,1,.7-2.6,2.12,2.12,0,0,1,1.8-1,2,2,0,0,1,1.7.9,3.9,3.9,0,0,1,.7,2.5A4.87,4.87,0,0,1,22.32,37Z"/><polygon class="cls-2" points="63.42 31.15 63.42 32.85 69.42 35.75 63.42 38.75 63.42 40.45 71.12 36.65 71.12 35.05 63.42 31.15"/><polygon class="cls-2" points="60.62 31.75 58.72 30.95 55.32 34.95 55.02 34.95 55.02 26.65 52.42 26.65 52.42 40.85 55.02 40.85 55.02 35.75 58.82 41.05 61.22 40.05 57.32 35.25 60.62 31.75"/><path class="cls-2" d="M50.42,32.65a2.37,2.37,0,0,0-1.1-1.3,3.83,3.83,0,0,0-1.9-.5,3.42,3.42,0,0,0-1.8.4,5.27,5.27,0,0,0-1.5,1.2v-1.3h-2.6v9.7h2.6v-6.3a1.85,1.85,0,0,1,.2-.7,1.76,1.76,0,0,1,.8-.9,2.38,2.38,0,0,1,1.2-.3,1.7,1.7,0,0,1,1.6.8,1.45,1.45,0,0,1,.2.7c0,.3.1.6.1,1.1v5.5h2.4v-7.2a4.33,4.33,0,0,0-.1-.5C50.52,33,50.42,32.75,50.42,32.65Z"/></g></g></svg>