<svg xmlns="http://www.w3.org/2000/svg" viewBox="0 0 72 72"><defs><style>.cls-1{fill:#333;}.cls-2{fill:#fff;}</style></defs><g id="Layer_2" data-name="Layer 2"><g id="Layer_5" data-name="Layer 5"><circle class="cls-1" cx="36" cy="36" r="36"/><path class="cls-2" d="M21.71,23.17a1,1,0,0,0-.33.78L17.81,38.8a1.15,1.15,0,0,0,0,.89,5.07,5.07,0,0,0,.33.78L28,52.64a3.26,3.26,0,0,0,.67.56,1.66,1.66,0,0,0,.78.22h15.3a2.7,2.7,0,0,0,.89-.22,3,3,0,0,0,.67-.56L56,40.47a1.19,1.19,0,0,0,.33-.78,1.15,1.15,0,0,0,0-.89L52.63,24c-.11-.22-.22-.55-.33-.78a3.61,3.61,0,0,0-.67-.56L38,15.69a2.51,2.51,0,0,0-1.79,0L22.38,22.61A3.61,3.61,0,0,0,21.71,23.17ZM37,17.59,50.62,24.4l3.69,14.85-9.6,12H29.41l-9.71-12L23.16,24.4Z"/><polygon class="cls-2" points="56.2 18.48 38.12 9.44 38.12 11.68 54.53 19.94 56.2 18.48"/><polygon class="cls-2" points="36 11.56 36 9.33 17.7 18.37 19.48 19.82 36 11.56"/><polygon class="cls-2" points="60.11 39.25 62.34 39.69 57.43 20.05 55.65 21.5 60.11 39.25"/><polygon class="cls-2" points="27.96 56.55 26.96 58.67 47.27 58.67 46.27 56.55 27.96 56.55"/><polygon class="cls-2" points="18.25 21.5 16.47 20.05 11.78 39.58 14.01 39.13 18.25 21.5"/><polygon class="cls-2" points="48.17 55.65 49.17 57.66 61.9 41.59 59.66 41.14 48.17 55.65"/><polygon class="cls-2" points="12.22 41.7 25.17 57.66 26.18 55.65 14.46 41.14 12.22 41.7"/></g></g></svg>