<svg xmlns="http://www.w3.org/2000/svg" viewBox="0 0 72 72"><defs><style>.cls-1{fill:#333;}.cls-2{fill:#fff;}</style></defs><g id="Layer_2" data-name="Layer 2"><g id="Layer_5" data-name="Layer 5"><circle class="cls-1" cx="36" cy="36" r="36"/><path class="cls-2" d="M11.58,40.65a27.86,27.86,0,0,1-.3-5.8c.6-8.8,4.2-15.9,12.3-20.5a24,24,0,0,1,8.7-2.8l2.6-.3h2.2c.7.1,1.4.1,2.1.2a27.81,27.81,0,0,1,7.4,1.9,77.17,77.17,0,0,1-15,17.3,67.78,67.78,0,0,1-19.7,12.2C11.78,42.05,11.68,41.35,11.58,40.65ZM16.38,52c-.8-1.3-1.7-2.6-2.5-4-.2-.3-.1-.5.2-.7a62.85,62.85,0,0,0,7.8-4.8,77,77,0,0,0,12.5-11,85.93,85.93,0,0,0,12.9-17.8.35.35,0,0,0,.1-.2c.7.4,1.4.7,2.2,1.2a101.1,101.1,0,0,1-32.6,38C16.78,52.45,16.48,52.25,16.38,52Zm43.7-10.3a23.67,23.67,0,0,1-21.2,18.9c-.6.1-1.2.1-1.8.2h-2.2c-.6-.1-1.3-.1-1.9-.2a26.13,26.13,0,0,1-8.3-2.2c-1.1-.5-2.2-1.1-3.3-1.7,13-11.8,22.2-25.8,28.8-41.5a24,24,0,0,1,5.2,4.5,23.72,23.72,0,0,1,5.3,14.5A23.81,23.81,0,0,1,60.08,41.65Z"/></g></g></svg>