<svg xmlns="http://www.w3.org/2000/svg" viewBox="0 0 72 72"><defs><style>.cls-1{fill:#333;}.cls-2{fill:#fff;}</style></defs><g id="Layer_2" data-name="Layer 2"><g id="Layer_5" data-name="Layer 5"><circle class="cls-1" cx="36" cy="36" r="36"/><path class="cls-2" d="M26.64,32.63a4.35,4.35,0,0,0-3,1.28,3.31,3.31,0,0,0-2.89-1.28,4.78,4.78,0,0,0-2.84,1.28,3.39,3.39,0,0,0-2.52-1.28,3.12,3.12,0,0,0-3.05,2.07l-1.92,4.52L8,33.44a1.34,1.34,0,0,0-1.79-.67,1.3,1.3,0,0,0-.65,1.79l3,6.53c.47,1,1,1.55,1.9,1.55s1.44-.58,1.91-1.55c0,0,2.61-5.71,2.65-5.77a.37.37,0,0,1,.38-.24.41.41,0,0,1,.41.42v5.57a1.41,1.41,0,1,0,2.8,0V36.51a1.4,1.4,0,0,1,1.49-1.45,1.36,1.36,0,0,1,1.43,1.45v4.56a1.41,1.41,0,1,0,2.8,0V36.51a1.4,1.4,0,0,1,1.49-1.45,1.36,1.36,0,0,1,1.42,1.45v4.56a1.41,1.41,0,1,0,2.8,0V35.88A3.26,3.26,0,0,0,26.64,32.63Z"/><path class="cls-2" d="M48.85,32.86A6.32,6.32,0,0,0,46,33.4a.57.57,0,0,0-.39.58.63.63,0,0,0,.62.61.62.62,0,0,0,.25-.05,4.89,4.89,0,0,1,2.19-.43c1.77,0,2.82.87,2.82,2.57V37a10.09,10.09,0,0,0-2.92-.4c-2.4,0-4,1.06-4,3v0c0,1.94,1.78,2.95,3.56,3A4.14,4.14,0,0,0,51.52,41v.89a.64.64,0,0,0,.67.66.67.67,0,0,0,.68-.7V36.67a3.72,3.72,0,0,0-1-2.76A4.08,4.08,0,0,0,48.85,32.86ZM51.51,39c0,1.5-1.43,2.56-3.17,2.56-1.27,0-2.37-.69-2.37-1.88v0c0-1.18,1-2,2.76-2a10,10,0,0,1,2.78.4Z"/><path class="cls-2" d="M43.81,32.82a.7.7,0,0,0-.68.56l-2.42,6.93-2.38-6.92a.76.76,0,0,0-.74-.57h-.07a.73.73,0,0,0-.7.57l-2.39,6.92L32,33.4a.75.75,0,0,0-.72-.58.7.7,0,0,0-.72.69,1.3,1.3,0,0,0,.09.39l2.88,8a.86.86,0,0,0,.82.65h0a.81.81,0,0,0,.77-.65l2.38-6.8,2.36,6.8a.79.79,0,0,0,.77.65h0a.85.85,0,0,0,.77-.65l2.89-8a1.24,1.24,0,0,0,.09-.39A.68.68,0,0,0,43.81,32.82Z"/><path class="cls-2" d="M59.19,32.84a3.87,3.87,0,0,0-3.27,2.32V33.53a.71.71,0,0,0-.71-.72.72.72,0,0,0-.7.72v8.29a.71.71,0,0,0,.72.72.7.7,0,0,0,.69-.72V38.6c0-2.72,1.52-4.11,3.34-4.33a.7.7,0,0,0,.64-.71A.68.68,0,0,0,59.19,32.84Z"/><path class="cls-2" d="M68.58,37.58c0-2.49-1.57-4.76-4.32-4.76a4.62,4.62,0,0,0-4.45,4.89v0a4.64,4.64,0,0,0,4.63,4.89A4.75,4.75,0,0,0,68,41.23a.62.62,0,0,0,.21-.46.59.59,0,0,0-1-.44,3.82,3.82,0,0,1-2.68,1.09,3.27,3.27,0,0,1-3.27-3.18h6.71A.65.65,0,0,0,68.58,37.58Zm-7.37-.38a3.22,3.22,0,0,1,3-3.19c1.85,0,2.82,1.49,3,3.19Z"/></g></g></svg>