<svg id="Layer_1" data-name="Layer 1" xmlns="http://www.w3.org/2000/svg" viewBox="0 0 215.99 53.06"><path d="M3.92,43.44H6.05q1.13,5.51,4.2,7.78a10.42,10.42,0,0,0,6.3,2.27,6.11,6.11,0,0,0,4.34-1.32,4.63,4.63,0,0,0,1.39-3.51,4.74,4.74,0,0,0-1.5-3.53,11.06,11.06,0,0,0-2.66-1.69l-5.7-2.78A17.43,17.43,0,0,1,6,35.86a9.7,9.7,0,0,1-2-6.11A10.77,10.77,0,0,1,7.1,22c2.07-2.16,5-3.24,8.7-3.24a18.27,18.27,0,0,1,5.18.8,17,17,0,0,0,3.41.81A1.79,1.79,0,0,0,25.72,20a3.17,3.17,0,0,0,.66-1.11h1.69V30H26.12a13.31,13.31,0,0,0-3.56-6.26,8.08,8.08,0,0,0-5.77-2.37A4.77,4.77,0,0,0,13,22.81a4.54,4.54,0,0,0-1.25,3.07,4.3,4.3,0,0,0,1.12,2.7A11.88,11.88,0,0,0,17,31.44l4.19,2a21.52,21.52,0,0,1,5.7,3.64,10,10,0,0,1,3,7.39,12.22,12.22,0,0,1-3.1,8q-3.09,3.69-9.28,3.69a15.69,15.69,0,0,1-3.1-.32,31.27,31.27,0,0,1-3.84-1.11l-1.31-.46L8.38,54a2.52,2.52,0,0,0-.43,0,1.45,1.45,0,0,0-1.11.51,8,8,0,0,0-1.08,1.7H3.92Z" transform="translate(-3.92 -3.17)"/><path d="M37.31,24.09a16.12,16.12,0,0,1,12.4-5.36A15.89,15.89,0,0,1,62.17,24.2,19.28,19.28,0,0,1,67,37.48a19.49,19.49,0,0,1-4.8,13.21,15.76,15.76,0,0,1-12.51,5.53A16,16,0,0,1,37.3,50.84a19.11,19.11,0,0,1-4.91-13.36A19,19,0,0,1,37.31,24.09Zm7.18,24.67c.87,3.32,2.61,5,5.22,5s4.1-1.28,4.87-3.83,1.16-6.7,1.16-12.44-.4-9.87-1.21-12.43-2.4-3.84-4.77-3.84c-2.61,0-4.34,1.66-5.22,5q-.85,3.33-.86,11.28C43.67,42.84,44,46.61,44.49,48.76Z" transform="translate(-3.92 -3.17)"/><path d="M69.17,53.23A6.52,6.52,0,0,0,72,51.94c.57-.53.84-1.66.84-3.36V9.47c0-1.64-.26-2.71-.78-3.22A6.43,6.43,0,0,0,69.17,5V3.17H83.72V48.58c0,1.7.28,2.82.82,3.33a6.74,6.74,0,0,0,2.93,1.32v1.83H69.17Z" transform="translate(-3.92 -3.17)"/><path d="M95.05,39.66q5-3,15.64-6.12V28a7.47,7.47,0,0,0-1.44-5c-1-1.08-2.68-1.63-5.13-1.63a6.79,6.79,0,0,0-3.4.77A2.24,2.24,0,0,0,99.4,24a1.6,1.6,0,0,0,.15.74,3.19,3.19,0,0,0,.45.65l.46.53a5.54,5.54,0,0,1,.84,1.4,4.54,4.54,0,0,1-1.12,5,5.19,5.19,0,0,1-3.36,1.19,5.64,5.64,0,0,1-3.76-1.32,4.65,4.65,0,0,1-1.56-3.78,7.88,7.88,0,0,1,4.17-7,19.09,19.09,0,0,1,10.23-2.58,21.67,21.67,0,0,1,10.92,2.51q4.35,2.57,4.34,9.38V49.3a2.22,2.22,0,0,0,.43,1.4,1.21,1.21,0,0,0,1,.58,2.09,2.09,0,0,0,.81-.16,5.21,5.21,0,0,0,1.11-.92l1.16,1.61a12.48,12.48,0,0,1-5,3.68,9.87,9.87,0,0,1-3.63.67c-2.28,0-4-.66-5-2a7.58,7.58,0,0,1-1.32-3.34,18,18,0,0,1-7.2,4.5,14.65,14.65,0,0,1-4.8.83,9.75,9.75,0,0,1-5.88-2c-1.85-1.34-2.76-3.43-2.76-6.26Q90.06,42.69,95.05,39.66Zm13.39,9.88a14.73,14.73,0,0,0,2.14-2.11V36.19a15.87,15.87,0,0,0-5.4,2.37,8.25,8.25,0,0,0-3.94,7,5.62,5.62,0,0,0,1.14,3.82,3.42,3.42,0,0,0,2.56,1.3A6,6,0,0,0,108.44,49.54Z" transform="translate(-3.92 -3.17)"/><path d="M153.53,21.09a7.07,7.07,0,0,1,3.55,6.08,5,5,0,0,1-7.52,4.24c-1.38-.79-2.06-2.24-2.06-4.34,0-.23,0-.56,0-1s0-.91,0-1.4a3.43,3.43,0,0,0-.93-2.78,3.48,3.48,0,0,0-2.21-.75q-3.57,0-5.07,3.92a25,25,0,0,0-1.5,9,23.61,23.61,0,0,0,2.85,12.08c1.91,3.24,4.46,4.87,7.68,4.87a9.49,9.49,0,0,0,5.18-1.35,16.11,16.11,0,0,0,3.15-2.89l1.43,1.31a19.59,19.59,0,0,1-8.78,7.16,16,16,0,0,1-5.66,1,15.39,15.39,0,0,1-12.08-5.29A18.7,18.7,0,0,1,127,38.05a20,20,0,0,1,5-13.67q5-5.65,13.25-5.65A14.76,14.76,0,0,1,153.53,21.09Z" transform="translate(-3.92 -3.17)"/><path d="M164.69,23.7A15.18,15.18,0,0,1,176,18.81a13.72,13.72,0,0,1,7.14,2,13.4,13.4,0,0,1,5.14,5.51,21.19,21.19,0,0,1,1.88,6.89,24.52,24.52,0,0,1,.27,3h-19.6a27.18,27.18,0,0,0,1.5,8q2.25,6.33,7.93,6.34a8.71,8.71,0,0,0,5.1-1.69A22.77,22.77,0,0,0,189,45.45l1.76,1.08c-2.38,3.91-5.13,6.61-8.26,8.14a16,16,0,0,1-7,1.46,15.66,15.66,0,0,1-10.62-4.46q-5-4.44-5-14.24C160,31.54,161.54,27,164.69,23.7ZM181,33.38c0-4.52-.41-7.69-1-9.48A3.83,3.83,0,0,0,176,21.19a4.11,4.11,0,0,0-4.11,3.11,30.72,30.72,0,0,0-1.27,9.07H181Z" transform="translate(-3.92 -3.17)"/><circle cx="203.2" cy="40.26" r="12.8"/></svg>