<svg xmlns="http://www.w3.org/2000/svg" viewBox="0 0 72 72"><defs><style>.cls-1{fill:#333;}.cls-2{fill:none;}.cls-3{fill:#fff;}</style></defs><g id="Layer_2" data-name="Layer 2"><g id="Layer_5" data-name="Layer 5"><circle class="cls-1" cx="36" cy="36" r="36"/><rect class="cls-2" x="10.65" y="21.7" width="50.82" height="34.1"/><path class="cls-3" d="M60.92,14.77H11.08a1.63,1.63,0,0,0-1.76,1.32V55.91c0,.77.77,1.32,1.76,1.32H60.92a1.62,1.62,0,0,0,1.75-1.32V16.2A1.61,1.61,0,0,0,60.92,14.77ZM25.05,16.46A1.57,1.57,0,1,1,23.48,18,1.57,1.57,0,0,1,25.05,16.46Zm-5.8,0A1.57,1.57,0,1,1,17.68,18,1.57,1.57,0,0,1,19.25,16.46Zm-5.46,0A1.57,1.57,0,1,1,12.22,18,1.57,1.57,0,0,1,13.79,16.46ZM61.47,55.8H10.65V21.7H61.47Z"/><path class="cls-3" d="M39,36.82a6,6,0,0,0-.76-.92l.55-1.53c-.25-.21-.47-.46-.72-.63l-1.48.8a10.46,10.46,0,0,0-1-.6l0-1.63a7.81,7.81,0,0,0-.93-.35l-1.09,1.19A6.82,6.82,0,0,0,32.3,33l-.59-1.52a7.7,7.7,0,0,0-1,0l-.62,1.54a1.59,1.59,0,0,0-.61,0l-.56.11-1.08-1.23-.92.33-.06,1.64a9.26,9.26,0,0,0-1,.58l-1.43-.8a4.9,4.9,0,0,0-.74.61l.51,1.56a9.59,9.59,0,0,0-.77.9l-1.64-.27c-.17.29-.35.57-.49.82l1,1.27a6.15,6.15,0,0,0-.41,1.11L20.25,40c-.07.32-.13.64-.2,1l1.4.87a6.53,6.53,0,0,0,0,1.17l-1.41.87c0,.18,0,.32.07.5s0,.32.08.5l1.61.33a8.92,8.92,0,0,0,.4,1.1l-1.05,1.29a4,4,0,0,0,.5.85l1.64-.23a5.85,5.85,0,0,0,.75.91l-.55,1.54c.25.21.47.46.72.63l1.45-.76a8.75,8.75,0,0,0,1,.59l0,1.64a6,6,0,0,0,.93.34l1.08-1.22a7.1,7.1,0,0,0,1.18.2l.59,1.52c.32,0,.64,0,1,0l.62-1.54c.22,0,.4,0,.61-.08l.57-.11,1.08,1.23.92-.33.05-1.63a10.07,10.07,0,0,0,1-.59l1.44.81a7.36,7.36,0,0,0,.74-.62L38,49.2a8.19,8.19,0,0,0,.77-.89l1.64.26c.18-.28.35-.57.49-.82l-1-1.27a5.88,5.88,0,0,0,.41-1.11L42,45c.06-.33.13-.65.2-1l-1.4-.87a6.53,6.53,0,0,0,0-1.17l1.45-.87c0-.18,0-.32-.08-.5s0-.32-.08-.5l-1.6-.33a8.94,8.94,0,0,0-.41-1.1l1.06-1.29a4.08,4.08,0,0,0-.51-.85ZM32.05,48a5.53,5.53,0,1,1,4.51-6.36A5.54,5.54,0,0,1,32.05,48Z"/><path class="cls-3" d="M50.82,31.64h0l1.32-.46V31a5.39,5.39,0,0,0-.19-1.09l-1.36-.07a8.56,8.56,0,0,0-.52-1.28l.92-1a8.22,8.22,0,0,0-.79-1L49,27.18a6,6,0,0,0-1.1-.85L48.11,25a6.3,6.3,0,0,0-1.17-.49l-.77,1.2a5.65,5.65,0,0,0-1.37-.18l-.46-1.36h-.17a5.39,5.39,0,0,0-1.09.19L43,25.73a8,8,0,0,0-1.28.52l-1-.92a8.17,8.17,0,0,0-1,.78l.62,1.24a6.4,6.4,0,0,0-.84,1.1l-1.38-.26a7.12,7.12,0,0,0-.48,1.18l1.2.77a6.11,6.11,0,0,0-.19,1.36L37.26,32v.18a5.39,5.39,0,0,0,.19,1.09l1.39.08a9.57,9.57,0,0,0,.53,1.28l-.92,1a8.17,8.17,0,0,0,.78,1L40.48,36a7,7,0,0,0,1.1.85l-.26,1.37a7.16,7.16,0,0,0,1.18.49l.77-1.2a5.57,5.57,0,0,0,1.36.18l.46,1.36h.18a6.19,6.19,0,0,0,1.09-.19l.07-1.4a8.09,8.09,0,0,0,1.29-.52l1,.92a7.36,7.36,0,0,0,1-.79l-.63-1.23a7,7,0,0,0,.85-1.1l1.37.25a6.26,6.26,0,0,0,.48-1.17L50.64,33A11.41,11.41,0,0,0,50.82,31.64Zm-5.88,3a3.07,3.07,0,1,1,2.84-3.29A3.07,3.07,0,0,1,44.94,34.62Z"/></g></g></svg>