<svg xmlns="http://www.w3.org/2000/svg" viewBox="0 0 72 72"><defs><style>.cls-1{fill:#333;}.cls-2{fill:none;}.cls-3{fill:#fff;}</style></defs><g id="Layer_2" data-name="Layer 2"><g id="Layer_5" data-name="Layer 5"><circle class="cls-1" cx="36" cy="36" r="36"/><rect class="cls-2" x="10.65" y="21.7" width="50.82" height="34.1"/><path class="cls-3" d="M60.92,14.77H11.08a1.63,1.63,0,0,0-1.76,1.32V55.91c0,.77.77,1.32,1.76,1.32H60.92a1.62,1.62,0,0,0,1.75-1.32V16.2A1.61,1.61,0,0,0,60.92,14.77ZM25.05,16.46A1.57,1.57,0,1,1,23.48,18,1.57,1.57,0,0,1,25.05,16.46Zm-5.8,0A1.57,1.57,0,1,1,17.68,18,1.57,1.57,0,0,1,19.25,16.46Zm-5.46,0A1.57,1.57,0,1,1,12.22,18,1.57,1.57,0,0,1,13.79,16.46ZM61.47,55.8H10.65V21.7H61.47Z"/><path class="cls-3" d="M57,33.05a2.8,2.8,0,0,0-2.07-1,3,3,0,0,0-2.07,1,3.42,3.42,0,0,0-.72,1.11H49.6l-4-2.95a1.29,1.29,0,0,0-.72-.24c-.24,0-.56.08-.64.24l-4,2.95H36.36V32.41a1.06,1.06,0,0,0-1-1H29.26a1.06,1.06,0,0,0-1,1v1.75h-4.3a2.74,2.74,0,0,0-.72-1.11,2.7,2.7,0,0,0-2.07-1H17.06a3,3,0,0,0-2.07,1,2.69,2.69,0,0,0-1,2.07,3,3,0,0,0,1,2.07,2.67,2.67,0,0,0,2.07,1h4.07a3,3,0,0,0,2.07-1,3.22,3.22,0,0,0,.72-1.11h4.3v1.75a1.06,1.06,0,0,0,1,1h2v6.62a1.07,1.07,0,0,0,1.11,1H44.81a1.08,1.08,0,0,0,1.12-1v-6.7l3.67-2.71h2.55a2.61,2.61,0,0,0,.72,1.11,2.82,2.82,0,0,0,2.07,1,3,3,0,0,0,2.07-1,2.67,2.67,0,0,0,1-2.07A3.34,3.34,0,0,0,57,33.05ZM43.62,44.53H33.41V39h1.83a1.06,1.06,0,0,0,1-1V36.16h3.91l3.43,2.55Z"/></g></g></svg>