<svg xmlns="http://www.w3.org/2000/svg" viewBox="0 0 72 72"><defs><style>.cls-1{fill:#333;}.cls-2{isolation:isolate;}.cls-3{fill:#fff;}</style></defs><g id="Layer_2" data-name="Layer 2"><g id="Layer_5" data-name="Layer 5"><circle class="cls-1" cx="36" cy="36" r="36"/><g class="cls-2"><path class="cls-3" d="M16.32,43.48c0,.16,0,.16-.15.31s-.16.15-.31.15H14.65c-.15,0-.3,0-.3-.15s-.15-.15-.15-.31V42.27a5.3,5.3,0,0,1-1.82,1.37,4.84,4.84,0,0,1-2.11.45,7.69,7.69,0,0,1-1.82-.3A6.2,6.2,0,0,1,7.09,43a8.46,8.46,0,0,1-.91-1.21,5.4,5.4,0,0,1-.3-1.51,3.27,3.27,0,0,1,.45-1.82,4.8,4.8,0,0,1,1.21-1.21,6,6,0,0,1,2-.75,12.65,12.65,0,0,1,2.57-.31h1.67v-.9a2.78,2.78,0,0,0-.16-1.21l-.45-.91a1.38,1.38,0,0,0-.91-.61,3.36,3.36,0,0,0-1.36-.15,4.69,4.69,0,0,0-1.51.15c-.46.15-.76.31-1.21.46a3.38,3.38,0,0,0-.76.45.74.74,0,0,1-.45.15H6.79l-.15-.15a.45.45,0,0,0-.16-.3v-.91a.33.33,0,0,1,.31-.3,2.27,2.27,0,0,1,.6-.46,7.49,7.49,0,0,1,1.06-.45,3.58,3.58,0,0,1,1.21-.3A4.21,4.21,0,0,1,11,30.63a9.19,9.19,0,0,1,2.27.3,3,3,0,0,1,1.51.91,3,3,0,0,1,.76,1.36,7.68,7.68,0,0,1,.3,2v8.32Zm-2.27-5.59h-2a5.69,5.69,0,0,0-1.66.15,7,7,0,0,0-1.06.45,1.54,1.54,0,0,0-.61.76,2.25,2.25,0,0,0-.15,1.06,1.74,1.74,0,0,0,.61,1.51,2.74,2.74,0,0,0,1.66.61A3.1,3.1,0,0,0,12.54,42a6.16,6.16,0,0,0,1.51-1.36Z"/><path class="cls-3" d="M20.55,47.12c0,.15-.15.15-.15.3a.15.15,0,0,1-.15.15c-.15,0-.15,0-.3.15s-.3,0-.46,0h-.6a.52.52,0,0,1-.3-.15.15.15,0,0,1-.15-.15v-.3L26.6,24.58c0-.16.16-.16.16-.31a.15.15,0,0,1,.15-.15c.15,0,.15,0,.3-.15s.3,0,.45,0h.61c.15,0,.3,0,.3.15a.15.15,0,0,1,.15.15v.31Z"/><path class="cls-3" d="M42.49,37.28a17,17,0,0,1-.3,2.88,7.17,7.17,0,0,1-1.06,2.11,4.81,4.81,0,0,1-1.67,1.37,5.07,5.07,0,0,1-2.27.45,2.29,2.29,0,0,1-1.06-.15c-.3-.15-.6-.15-.9-.3s-.61-.46-.91-.61-.61-.6-1.06-.91v1.67l-.15.15H31.6c-.15,0-.15,0-.15-.15V25.33l.15-.15c.15,0,.15,0,.3-.15s.3,0,.6,0h.61c.15,0,.3,0,.3.15a.15.15,0,0,1,.15.15v7.41a6,6,0,0,1,1.06-.9,2.37,2.37,0,0,1,1.06-.61,2.17,2.17,0,0,1,.91-.3c.3,0,.6-.15,1.06-.15a3.68,3.68,0,0,1,2.27.6,3.38,3.38,0,0,1,1.51,1.36,5.42,5.42,0,0,1,.91,2.12C42.34,35.47,42.49,36.37,42.49,37.28Zm-2.42.31a7.42,7.42,0,0,0-.15-1.82c-.15-.61-.31-1.06-.46-1.51a6.22,6.22,0,0,0-.9-1.06A2.6,2.6,0,0,0,37,32.74a1.85,1.85,0,0,0-.91.16c-.3.15-.6.15-.9.45a3.64,3.64,0,0,0-.91.76l-1.06,1V40a6.1,6.1,0,0,0,1.82,1.66,2.91,2.91,0,0,0,1.81.6,2.54,2.54,0,0,0,1.51-.45,2,2,0,0,0,.91-1.06,4.56,4.56,0,0,0,.61-1.51A6.84,6.84,0,0,0,40.07,37.59Z"/><path class="cls-3" d="M46,47.12c0,.15-.15.15-.15.3a.15.15,0,0,1-.15.15c-.16,0-.16,0-.31.15s-.3,0-.45,0H44.3a.52.52,0,0,1-.3-.15.15.15,0,0,1-.15-.15v-.3L52,24.58c0-.16.15-.16.15-.31a.15.15,0,0,1,.15-.15c.15,0,.15,0,.3-.15s.31,0,.46,0h.6c.15,0,.31,0,.31.15a.15.15,0,0,1,.15.15v.31Z"/><path class="cls-3" d="M64.88,41.67v.76c0,.15,0,.15-.15.15a.52.52,0,0,0-.15.3,2.29,2.29,0,0,1-.61.45l-.91.46a2.78,2.78,0,0,1-1.06.3,3.33,3.33,0,0,1-1.21.15,5.13,5.13,0,0,1-2.27-.45,7,7,0,0,1-1.66-1.21,7,7,0,0,1-1.06-2.12,8.92,8.92,0,0,1-.3-2.87A10.12,10.12,0,0,1,56,34.41a7.15,7.15,0,0,1,1.21-2.12A3.9,3.9,0,0,1,59,31.08a6.08,6.08,0,0,1,2.27-.45,3.38,3.38,0,0,1,1.21.15,2.88,2.88,0,0,1,1.06.3,3.28,3.28,0,0,1,.75.45c.15.16.46.31.46.46s.15.15.15.3,0,.15.15.15v.76a1.12,1.12,0,0,1-.15.75c-.15.16-.15.16-.3.16a.54.54,0,0,1-.46-.16c-.15-.15-.45-.3-.6-.45a3.81,3.81,0,0,0-1.06-.45,4.24,4.24,0,0,0-1.36-.15,2.73,2.73,0,0,0-2.42,1.21,6.93,6.93,0,0,0-.91,3.63,9.31,9.31,0,0,0,.15,2.11,4.6,4.6,0,0,0,.6,1.52,2.07,2.07,0,0,0,1.06.9,4.32,4.32,0,0,0,1.52.31,4.24,4.24,0,0,0,1.36-.31,2.51,2.51,0,0,0,1.06-.6,2.52,2.52,0,0,0,.75-.61c.15-.15.31-.3.46-.3h.15l.15.15v.31A.55.55,0,0,0,64.88,41.67Z"/></g></g></g></svg>