<svg xmlns="http://www.w3.org/2000/svg" viewBox="0 0 72 72"><defs><style>.cls-1{fill:#333;}.cls-2{fill:#fff;}</style></defs><g id="Layer_2" data-name="Layer 2"><g id="Layer_5" data-name="Layer 5"><circle class="cls-1" cx="36" cy="36" r="36"/><path class="cls-2" d="M36.07,62.82A11.06,11.06,0,0,0,47.14,51.74,11.25,11.25,0,0,0,42,42.38h0V12.32a6.33,6.33,0,0,0-12.66,0V42.91a11.23,11.23,0,0,0-4.48,8.83A11.34,11.34,0,0,0,36.07,62.82ZM31.58,12.19a4.11,4.11,0,0,1,4.09-4.08h0a4.08,4.08,0,0,1,4.09,4H37.12v.79h2.64v2.9H36.2v.79h3.56v3H37.12v.79h2.64v3.95H36.2v.79h3.56v3.43H37.12v.79h2.64v3.56H36.2v.79h3.56v3.69H37.12v.79h2.64V30.91H31.58V12.19Z"/></g></g></svg>